<?xml version="1.0" encoding="utf-8" standalone="no"?>
<!DOCTYPE svg PUBLIC "-//W3C//DTD SVG 1.1//EN"
  "http://www.w3.org/Graphics/SVG/1.1/DTD/svg11.dtd">
<svg xmlns:xlink="http://www.w3.org/1999/xlink" width="432pt" height="288pt" viewBox="0 0 432 288" xmlns="http://www.w3.org/2000/svg" version="1.1">
 <metadata>
  <rdf:RDF xmlns:dc="http://purl.org/dc/elements/1.1/" xmlns:cc="http://creativecommons.org/ns#" xmlns:rdf="http://www.w3.org/1999/02/22-rdf-syntax-ns#">
   <cc:Work>
    <dc:type rdf:resource="http://purl.org/dc/dcmitype/StillImage"/>
    <dc:date>2023-03-17T16:05:34.780336</dc:date>
    <dc:format>image/svg+xml</dc:format>
    <dc:creator>
     <cc:Agent>
      <dc:title>Matplotlib v3.6.2, https://matplotlib.org/</dc:title>
     </cc:Agent>
    </dc:creator>
   </cc:Work>
  </rdf:RDF>
 </metadata>
 <defs>
  <style type="text/css">*{stroke-linejoin: round; stroke-linecap: butt}</style>
 </defs>
 <g id="figure_1">
  <g id="patch_1">
   <path d="M 0 288 
L 432 288 
L 432 0 
L 0 0 
z
" style="fill: #ffffff"/>
  </g>
  <g id="axes_1">
   <g id="patch_2">
    <path d="M 64.658389 242.728 
L 421.2 242.728 
L 421.2 16.416 
L 64.658389 16.416 
z
" style="fill: #ffffff"/>
   </g>
   <g id="PolyCollection_1">
    <path d="M 82.457708 30.320458 
L 82.457708 34.904975 
L 85.643473 34.943815 
L 88.829237 34.984288 
L 92.015001 35.026462 
L 95.200765 35.070409 
L 98.38653 35.116206 
L 101.572294 35.163935 
L 104.758058 35.213679 
L 107.943823 35.26553 
L 111.129587 35.319581 
L 114.315351 35.375932 
L 117.501115 35.434688 
L 120.68688 35.495962 
L 123.872644 35.55987 
L 127.058408 35.626537 
L 130.244173 35.696094 
L 133.429937 35.768678 
L 136.615701 35.844438 
L 139.801465 35.923527 
L 142.98723 36.00611 
L 146.172994 36.092359 
L 149.358758 36.182458 
L 152.544522 36.2766 
L 155.730287 36.374991 
L 158.916051 36.477849 
L 162.101815 36.585404 
L 165.28758 36.697898 
L 168.473344 36.815591 
L 171.659108 36.938757 
L 174.844872 37.067685 
L 178.030637 37.202684 
L 181.216401 37.34408 
L 184.402165 37.492219 
L 187.58793 37.64747 
L 190.773694 37.810222 
L 193.959458 37.98089 
L 197.145222 38.159914 
L 200.330987 38.347764 
L 203.516751 38.544936 
L 206.702515 38.75196 
L 209.88828 38.9694 
L 213.074044 39.197854 
L 216.259808 39.437962 
L 219.445572 39.690404 
L 222.631337 39.955905 
L 225.817101 40.235238 
L 229.002865 40.529228 
L 232.188629 40.838756 
L 235.374394 41.164763 
L 238.560158 41.508252 
L 241.745922 41.870297 
L 244.931687 42.252046 
L 248.117451 42.654727 
L 251.303215 43.079653 
L 254.488979 43.52823 
L 257.674744 44.001964 
L 260.860508 44.502465 
L 264.046272 45.031457 
L 267.232037 45.590787 
L 270.417801 46.18243 
L 273.603565 46.8085 
L 276.789329 47.471256 
L 279.975094 48.173113 
L 283.160858 48.916648 
L 286.346622 49.704612 
L 289.532387 50.539936 
L 292.718151 51.425742 
L 295.903915 52.365352 
L 299.089679 53.362297 
L 302.275444 54.42033 
L 305.461208 55.543438 
L 308.646972 56.735856 
L 311.832736 58.002087 
L 315.018501 59.346923 
L 318.204265 60.77547 
L 321.390029 62.293181 
L 324.575794 63.905896 
L 327.761558 65.619886 
L 330.947322 67.441916 
L 334.133086 69.379313 
L 337.318851 71.440051 
L 340.504615 73.632863 
L 343.690379 75.967378 
L 346.876144 78.454292 
L 350.061908 81.105595 
L 353.247672 83.934877 
L 356.433436 86.95773 
L 359.619201 90.192328 
L 362.804965 93.660238 
L 365.990729 97.387642 
L 369.176494 101.407214 
L 372.362258 105.76115 
L 375.548022 110.506332 
L 378.733786 115.723757 
L 381.919551 121.537327 
L 385.105315 128.156045 
L 388.291079 135.98669 
L 391.476843 146.033503 
L 394.662608 162.51829 
L 397.848372 27994.237 
L 397.848372 117.249885 
L 397.848372 117.249885 
L 394.662608 112.6979 
L 391.476843 108.395663 
L 388.291079 104.329193 
L 385.105315 100.485262 
L 381.919551 96.851351 
L 378.733786 93.415615 
L 375.548022 90.166851 
L 372.362258 87.094458 
L 369.176494 84.188415 
L 365.990729 81.439243 
L 362.804965 78.837983 
L 359.619201 76.376167 
L 356.433436 74.045797 
L 353.247672 71.839316 
L 350.061908 69.749592 
L 346.876144 67.769895 
L 343.690379 65.893881 
L 340.504615 64.115569 
L 337.318851 62.429332 
L 334.133086 60.829875 
L 330.947322 59.312225 
L 327.761558 57.871714 
L 324.575794 56.503968 
L 321.390029 55.204894 
L 318.204265 53.970664 
L 315.018501 52.797705 
L 311.832736 51.682682 
L 308.646972 50.622486 
L 305.461208 49.614221 
L 302.275444 48.655184 
L 299.089679 47.742857 
L 295.903915 46.874884 
L 292.718151 46.049063 
L 289.532387 45.26333 
L 286.346622 44.515743 
L 283.160858 43.804473 
L 279.975094 43.127794 
L 276.789329 42.484067 
L 273.603565 41.87174 
L 270.417801 41.289334 
L 267.232037 40.735439 
L 264.046272 40.208709 
L 260.860508 39.707859 
L 257.674744 39.231657 
L 254.488979 38.778926 
L 251.303215 38.348538 
L 248.117451 37.939412 
L 244.931687 37.550515 
L 241.745922 37.180856 
L 238.560158 36.829488 
L 235.374394 36.495504 
L 232.188629 36.178036 
L 229.002865 35.876256 
L 225.817101 35.589371 
L 222.631337 35.316626 
L 219.445572 35.057299 
L 216.259808 34.810701 
L 213.074044 34.576175 
L 209.88828 34.353095 
L 206.702515 34.140864 
L 203.516751 33.938915 
L 200.330987 33.746706 
L 197.145222 33.563722 
L 193.959458 33.389474 
L 190.773694 33.223496 
L 187.58793 33.065344 
L 184.402165 32.914598 
L 181.216401 32.770858 
L 178.030637 32.633743 
L 174.844872 32.502891 
L 171.659108 32.377961 
L 168.473344 32.258626 
L 165.28758 32.144577 
L 162.101815 32.035521 
L 158.916051 31.93118 
L 155.730287 31.831289 
L 152.544522 31.735597 
L 149.358758 31.643868 
L 146.172994 31.555875 
L 142.98723 31.471406 
L 139.801465 31.390257 
L 136.615701 31.312237 
L 133.429937 31.237164 
L 130.244173 31.164865 
L 127.058408 31.095178 
L 123.872644 31.027947 
L 120.68688 30.963027 
L 117.501115 30.900279 
L 114.315351 30.839571 
L 111.129587 30.780779 
L 107.943823 30.723787 
L 104.758058 30.668482 
L 101.572294 30.614759 
L 98.38653 30.56252 
L 95.200765 30.51167 
L 92.015001 30.462121 
L 88.829237 30.413788 
L 85.643473 30.366592 
L 82.457708 30.320458 
z
" clip-path="url(#pdc87f95ab6)" style="fill: #008000; fill-opacity: 0.5"/>
   </g>
   <g id="PolyCollection_2">
    <path d="M 82.457708 31.900414 
L 82.457708 32.919932 
L 85.643473 32.940777 
L 88.829237 32.96364 
L 92.015001 32.988657 
L 95.200765 33.015975 
L 98.38653 33.045753 
L 101.572294 33.07816 
L 104.758058 33.113378 
L 107.943823 33.151601 
L 111.129587 33.193027 
L 114.315351 33.237867 
L 117.501115 33.28633 
L 120.68688 33.338625 
L 123.872644 33.394952 
L 127.058408 33.455499 
L 130.244173 33.520432 
L 133.429937 33.589895 
L 136.615701 33.664006 
L 139.801465 33.742858 
L 142.98723 33.826523 
L 146.172994 33.915059 
L 149.358758 34.008516 
L 152.544522 34.106944 
L 155.730287 34.210402 
L 158.916051 34.318963 
L 162.101815 34.432717 
L 165.28758 34.551781 
L 168.473344 34.676294 
L 171.659108 34.806425 
L 174.844872 34.94237 
L 178.030637 35.084358 
L 181.216401 35.232645 
L 184.402165 35.387522 
L 187.58793 35.549312 
L 190.773694 35.718374 
L 193.959458 35.895102 
L 197.145222 36.07993 
L 200.330987 36.273332 
L 203.516751 36.475829 
L 206.702515 36.687987 
L 209.88828 36.910427 
L 213.074044 37.143825 
L 216.259808 37.388917 
L 219.445572 37.646507 
L 222.631337 37.917471 
L 225.817101 38.202757 
L 229.002865 38.503397 
L 232.188629 38.820504 
L 235.374394 39.155279 
L 238.560158 39.509006 
L 241.745922 39.883057 
L 244.931687 40.278883 
L 248.117451 40.698014 
L 251.303215 41.142054 
L 254.488979 41.612672 
L 257.674744 42.111608 
L 260.860508 42.640665 
L 264.046272 43.201714 
L 267.232037 43.7967 
L 270.417801 44.427651 
L 273.603565 45.096687 
L 276.789329 45.806034 
L 279.975094 46.558036 
L 283.160858 47.355175 
L 286.346622 48.200081 
L 289.532387 49.095549 
L 292.718151 50.04456 
L 295.903915 51.050298 
L 299.089679 52.116164 
L 302.275444 53.245807 
L 305.461208 54.44314 
L 308.646972 55.712369 
L 311.832736 57.058026 
L 315.018501 58.485002 
L 318.204265 59.998588 
L 321.390029 61.604526 
L 324.575794 63.309067 
L 327.761558 65.119041 
L 330.947322 67.041948 
L 334.133086 69.086066 
L 337.318851 71.26059 
L 340.504615 73.575811 
L 343.690379 76.043357 
L 346.876144 78.676503 
L 350.061908 81.490612 
L 353.247672 84.503745 
L 356.433436 87.73755 
L 359.619201 91.218593 
L 362.804965 94.980437 
L 365.990729 99.067032 
L 369.176494 103.538585 
L 372.362258 108.482463 
L 375.548022 114.035447 
L 378.733786 120.435379 
L 381.919551 128.166261 
L 385.105315 138.522805 
L 388.291079 158.544082 
L 391.476843 27994.237 
L 394.662608 27994.237 
L 397.848372 27994.237 
L 397.848372 116.30752 
L 397.848372 116.30752 
L 394.662608 111.800322 
L 391.476843 107.543684 
L 388.291079 103.523641 
L 385.105315 99.726978 
L 381.919551 96.141192 
L 378.733786 92.754457 
L 375.548022 89.555587 
L 372.362258 86.534002 
L 369.176494 83.679701 
L 365.990729 80.983229 
L 362.804965 78.435649 
L 359.619201 76.028515 
L 356.433436 73.753848 
L 353.247672 71.604111 
L 350.061908 69.572184 
L 346.876144 67.651347 
L 343.690379 65.83525 
L 340.504615 64.117904 
L 337.318851 62.493653 
L 334.133086 60.95716 
L 330.947322 59.503389 
L 327.761558 58.12759 
L 324.575794 56.82528 
L 321.390029 55.592229 
L 318.204265 54.424448 
L 315.018501 53.318175 
L 311.832736 52.269858 
L 308.646972 51.276148 
L 305.461208 50.333887 
L 302.275444 49.440092 
L 299.089679 48.591952 
L 295.903915 47.786812 
L 292.718151 47.022171 
L 289.532387 46.295667 
L 286.346622 45.605076 
L 283.160858 44.948303 
L 279.975094 44.323378 
L 276.789329 43.728449 
L 273.603565 43.161785 
L 270.417801 42.621767 
L 267.232037 42.106893 
L 264.046272 41.615771 
L 260.860508 41.147123 
L 257.674744 40.699777 
L 254.488979 40.272671 
L 251.303215 39.864841 
L 248.117451 39.475415 
L 244.931687 39.103605 
L 241.745922 38.748693 
L 238.560158 38.410017 
L 235.374394 38.086965 
L 232.188629 37.778956 
L 229.002865 37.485435 
L 225.817101 37.205861 
L 222.631337 36.939708 
L 219.445572 36.686456 
L 216.259808 36.445589 
L 213.074044 36.216599 
L 209.88828 35.998981 
L 206.702515 35.792237 
L 203.516751 35.595875 
L 200.330987 35.409411 
L 197.145222 35.232368 
L 193.959458 35.06428 
L 190.773694 34.90469 
L 187.58793 34.753147 
L 184.402165 34.609214 
L 181.216401 34.47246 
L 178.030637 34.342461 
L 174.844872 34.218802 
L 171.659108 34.101073 
L 168.473344 33.988871 
L 165.28758 33.881794 
L 162.101815 33.779446 
L 158.916051 33.681433 
L 155.730287 33.587362 
L 152.544522 33.496847 
L 149.358758 33.409507 
L 146.172994 33.324972 
L 142.98723 33.242886 
L 139.801465 33.162915 
L 136.615701 33.084753 
L 133.429937 33.008129 
L 130.244173 32.932809 
L 127.058408 32.858603 
L 123.872644 32.785362 
L 120.68688 32.712979 
L 117.501115 32.641377 
L 114.315351 32.570509 
L 111.129587 32.500351 
L 107.943823 32.43089 
L 104.758058 32.362124 
L 101.572294 32.294056 
L 98.38653 32.22669 
L 95.200765 32.160028 
L 92.015001 32.094072 
L 88.829237 32.028822 
L 85.643473 31.964271 
L 82.457708 31.900414 
z
" clip-path="url(#pdc87f95ab6)" style="fill: #ff0000; fill-opacity: 0.6"/>
   </g>
   <g id="matplotlib.axis_1">
    <g id="xtick_1">
     <g id="line2d_1">
      <defs>
       <path id="mfe5394c0f6" d="M 0 0 
L 0 3.5 
" style="stroke: #000000; stroke-width: 0.8"/>
      </defs>
      <g>
       <use xlink:href="#mfe5394c0f6" x="139.549957" y="242.728" style="stroke: #000000; stroke-width: 0.8"/>
      </g>
     </g>
     <g id="text_1">
      <!-- $\mathdefault{10^{0}}$ -->
      <g transform="translate(130.749957 257.326437) scale(0.1 -0.1)">
       <defs>
        <path id="DejaVuSans-31" d="M 794 531 
L 1825 531 
L 1825 4091 
L 703 3866 
L 703 4441 
L 1819 4666 
L 2450 4666 
L 2450 531 
L 3481 531 
L 3481 0 
L 794 0 
L 794 531 
z
" transform="scale(0.015625)"/>
        <path id="DejaVuSans-30" d="M 2034 4250 
Q 1547 4250 1301 3770 
Q 1056 3291 1056 2328 
Q 1056 1369 1301 889 
Q 1547 409 2034 409 
Q 2525 409 2770 889 
Q 3016 1369 3016 2328 
Q 3016 3291 2770 3770 
Q 2525 4250 2034 4250 
z
M 2034 4750 
Q 2819 4750 3233 4129 
Q 3647 3509 3647 2328 
Q 3647 1150 3233 529 
Q 2819 -91 2034 -91 
Q 1250 -91 836 529 
Q 422 1150 422 2328 
Q 422 3509 836 4129 
Q 1250 4750 2034 4750 
z
" transform="scale(0.015625)"/>
       </defs>
       <use xlink:href="#DejaVuSans-31" transform="translate(0 0.765625)"/>
       <use xlink:href="#DejaVuSans-30" transform="translate(63.623047 0.765625)"/>
       <use xlink:href="#DejaVuSans-30" transform="translate(128.203125 39.046875) scale(0.7)"/>
      </g>
     </g>
    </g>
    <g id="xtick_2">
     <g id="line2d_2">
      <g>
       <use xlink:href="#mfe5394c0f6" x="273.687401" y="242.728" style="stroke: #000000; stroke-width: 0.8"/>
      </g>
     </g>
     <g id="text_2">
      <!-- $\mathdefault{10^{1}}$ -->
      <g transform="translate(264.887401 257.326437) scale(0.1 -0.1)">
       <use xlink:href="#DejaVuSans-31" transform="translate(0 0.684375)"/>
       <use xlink:href="#DejaVuSans-30" transform="translate(63.623047 0.684375)"/>
       <use xlink:href="#DejaVuSans-31" transform="translate(128.203125 38.965625) scale(0.7)"/>
      </g>
     </g>
    </g>
    <g id="xtick_3">
     <g id="line2d_3">
      <g>
       <use xlink:href="#mfe5394c0f6" x="407.824846" y="242.728" style="stroke: #000000; stroke-width: 0.8"/>
      </g>
     </g>
     <g id="text_3">
      <!-- $\mathdefault{10^{2}}$ -->
      <g transform="translate(399.024846 257.326437) scale(0.1 -0.1)">
       <defs>
        <path id="DejaVuSans-32" d="M 1228 531 
L 3431 531 
L 3431 0 
L 469 0 
L 469 531 
Q 828 903 1448 1529 
Q 2069 2156 2228 2338 
Q 2531 2678 2651 2914 
Q 2772 3150 2772 3378 
Q 2772 3750 2511 3984 
Q 2250 4219 1831 4219 
Q 1534 4219 1204 4116 
Q 875 4013 500 3803 
L 500 4441 
Q 881 4594 1212 4672 
Q 1544 4750 1819 4750 
Q 2544 4750 2975 4387 
Q 3406 4025 3406 3419 
Q 3406 3131 3298 2873 
Q 3191 2616 2906 2266 
Q 2828 2175 2409 1742 
Q 1991 1309 1228 531 
z
" transform="scale(0.015625)"/>
       </defs>
       <use xlink:href="#DejaVuSans-31" transform="translate(0 0.765625)"/>
       <use xlink:href="#DejaVuSans-30" transform="translate(63.623047 0.765625)"/>
       <use xlink:href="#DejaVuSans-32" transform="translate(128.203125 39.046875) scale(0.7)"/>
      </g>
     </g>
    </g>
    <g id="xtick_4">
     <g id="line2d_4">
      <defs>
       <path id="m1c6550cd1f" d="M 0 0 
L 0 2 
" style="stroke: #000000; stroke-width: 0.6"/>
      </defs>
      <g>
       <use xlink:href="#m1c6550cd1f" x="69.412339" y="242.728" style="stroke: #000000; stroke-width: 0.6"/>
      </g>
     </g>
    </g>
    <g id="xtick_5">
     <g id="line2d_5">
      <g>
       <use xlink:href="#m1c6550cd1f" x="86.171302" y="242.728" style="stroke: #000000; stroke-width: 0.6"/>
      </g>
     </g>
    </g>
    <g id="xtick_6">
     <g id="line2d_6">
      <g>
       <use xlink:href="#m1c6550cd1f" x="99.170563" y="242.728" style="stroke: #000000; stroke-width: 0.6"/>
      </g>
     </g>
    </g>
    <g id="xtick_7">
     <g id="line2d_7">
      <g>
       <use xlink:href="#m1c6550cd1f" x="109.791733" y="242.728" style="stroke: #000000; stroke-width: 0.6"/>
      </g>
     </g>
    </g>
    <g id="xtick_8">
     <g id="line2d_8">
      <g>
       <use xlink:href="#m1c6550cd1f" x="118.771804" y="242.728" style="stroke: #000000; stroke-width: 0.6"/>
      </g>
     </g>
    </g>
    <g id="xtick_9">
     <g id="line2d_9">
      <g>
       <use xlink:href="#m1c6550cd1f" x="126.550696" y="242.728" style="stroke: #000000; stroke-width: 0.6"/>
      </g>
     </g>
    </g>
    <g id="xtick_10">
     <g id="line2d_10">
      <g>
       <use xlink:href="#m1c6550cd1f" x="133.412165" y="242.728" style="stroke: #000000; stroke-width: 0.6"/>
      </g>
     </g>
    </g>
    <g id="xtick_11">
     <g id="line2d_11">
      <g>
       <use xlink:href="#m1c6550cd1f" x="179.929352" y="242.728" style="stroke: #000000; stroke-width: 0.6"/>
      </g>
     </g>
    </g>
    <g id="xtick_12">
     <g id="line2d_12">
      <g>
       <use xlink:href="#m1c6550cd1f" x="203.549783" y="242.728" style="stroke: #000000; stroke-width: 0.6"/>
      </g>
     </g>
    </g>
    <g id="xtick_13">
     <g id="line2d_13">
      <g>
       <use xlink:href="#m1c6550cd1f" x="220.308746" y="242.728" style="stroke: #000000; stroke-width: 0.6"/>
      </g>
     </g>
    </g>
    <g id="xtick_14">
     <g id="line2d_14">
      <g>
       <use xlink:href="#m1c6550cd1f" x="233.308007" y="242.728" style="stroke: #000000; stroke-width: 0.6"/>
      </g>
     </g>
    </g>
    <g id="xtick_15">
     <g id="line2d_15">
      <g>
       <use xlink:href="#m1c6550cd1f" x="243.929177" y="242.728" style="stroke: #000000; stroke-width: 0.6"/>
      </g>
     </g>
    </g>
    <g id="xtick_16">
     <g id="line2d_16">
      <g>
       <use xlink:href="#m1c6550cd1f" x="252.909249" y="242.728" style="stroke: #000000; stroke-width: 0.6"/>
      </g>
     </g>
    </g>
    <g id="xtick_17">
     <g id="line2d_17">
      <g>
       <use xlink:href="#m1c6550cd1f" x="260.68814" y="242.728" style="stroke: #000000; stroke-width: 0.6"/>
      </g>
     </g>
    </g>
    <g id="xtick_18">
     <g id="line2d_18">
      <g>
       <use xlink:href="#m1c6550cd1f" x="267.549609" y="242.728" style="stroke: #000000; stroke-width: 0.6"/>
      </g>
     </g>
    </g>
    <g id="xtick_19">
     <g id="line2d_19">
      <g>
       <use xlink:href="#m1c6550cd1f" x="314.066796" y="242.728" style="stroke: #000000; stroke-width: 0.6"/>
      </g>
     </g>
    </g>
    <g id="xtick_20">
     <g id="line2d_20">
      <g>
       <use xlink:href="#m1c6550cd1f" x="337.687227" y="242.728" style="stroke: #000000; stroke-width: 0.6"/>
      </g>
     </g>
    </g>
    <g id="xtick_21">
     <g id="line2d_21">
      <g>
       <use xlink:href="#m1c6550cd1f" x="354.44619" y="242.728" style="stroke: #000000; stroke-width: 0.6"/>
      </g>
     </g>
    </g>
    <g id="xtick_22">
     <g id="line2d_22">
      <g>
       <use xlink:href="#m1c6550cd1f" x="367.445451" y="242.728" style="stroke: #000000; stroke-width: 0.6"/>
      </g>
     </g>
    </g>
    <g id="xtick_23">
     <g id="line2d_23">
      <g>
       <use xlink:href="#m1c6550cd1f" x="378.066621" y="242.728" style="stroke: #000000; stroke-width: 0.6"/>
      </g>
     </g>
    </g>
    <g id="xtick_24">
     <g id="line2d_24">
      <g>
       <use xlink:href="#m1c6550cd1f" x="387.046693" y="242.728" style="stroke: #000000; stroke-width: 0.6"/>
      </g>
     </g>
    </g>
    <g id="xtick_25">
     <g id="line2d_25">
      <g>
       <use xlink:href="#m1c6550cd1f" x="394.825584" y="242.728" style="stroke: #000000; stroke-width: 0.6"/>
      </g>
     </g>
    </g>
    <g id="xtick_26">
     <g id="line2d_26">
      <g>
       <use xlink:href="#m1c6550cd1f" x="401.687053" y="242.728" style="stroke: #000000; stroke-width: 0.6"/>
      </g>
     </g>
    </g>
    <g id="text_4">
     <!-- Energy [TeV] -->
     <g transform="translate(211.231538 271.004562) scale(0.1 -0.1)">
      <defs>
       <path id="DejaVuSans-45" d="M 628 4666 
L 3578 4666 
L 3578 4134 
L 1259 4134 
L 1259 2753 
L 3481 2753 
L 3481 2222 
L 1259 2222 
L 1259 531 
L 3634 531 
L 3634 0 
L 628 0 
L 628 4666 
z
" transform="scale(0.015625)"/>
       <path id="DejaVuSans-6e" d="M 3513 2113 
L 3513 0 
L 2938 0 
L 2938 2094 
Q 2938 2591 2744 2837 
Q 2550 3084 2163 3084 
Q 1697 3084 1428 2787 
Q 1159 2491 1159 1978 
L 1159 0 
L 581 0 
L 581 3500 
L 1159 3500 
L 1159 2956 
Q 1366 3272 1645 3428 
Q 1925 3584 2291 3584 
Q 2894 3584 3203 3211 
Q 3513 2838 3513 2113 
z
" transform="scale(0.015625)"/>
       <path id="DejaVuSans-65" d="M 3597 1894 
L 3597 1613 
L 953 1613 
Q 991 1019 1311 708 
Q 1631 397 2203 397 
Q 2534 397 2845 478 
Q 3156 559 3463 722 
L 3463 178 
Q 3153 47 2828 -22 
Q 2503 -91 2169 -91 
Q 1331 -91 842 396 
Q 353 884 353 1716 
Q 353 2575 817 3079 
Q 1281 3584 2069 3584 
Q 2775 3584 3186 3129 
Q 3597 2675 3597 1894 
z
M 3022 2063 
Q 3016 2534 2758 2815 
Q 2500 3097 2075 3097 
Q 1594 3097 1305 2825 
Q 1016 2553 972 2059 
L 3022 2063 
z
" transform="scale(0.015625)"/>
       <path id="DejaVuSans-72" d="M 2631 2963 
Q 2534 3019 2420 3045 
Q 2306 3072 2169 3072 
Q 1681 3072 1420 2755 
Q 1159 2438 1159 1844 
L 1159 0 
L 581 0 
L 581 3500 
L 1159 3500 
L 1159 2956 
Q 1341 3275 1631 3429 
Q 1922 3584 2338 3584 
Q 2397 3584 2469 3576 
Q 2541 3569 2628 3553 
L 2631 2963 
z
" transform="scale(0.015625)"/>
       <path id="DejaVuSans-67" d="M 2906 1791 
Q 2906 2416 2648 2759 
Q 2391 3103 1925 3103 
Q 1463 3103 1205 2759 
Q 947 2416 947 1791 
Q 947 1169 1205 825 
Q 1463 481 1925 481 
Q 2391 481 2648 825 
Q 2906 1169 2906 1791 
z
M 3481 434 
Q 3481 -459 3084 -895 
Q 2688 -1331 1869 -1331 
Q 1566 -1331 1297 -1286 
Q 1028 -1241 775 -1147 
L 775 -588 
Q 1028 -725 1275 -790 
Q 1522 -856 1778 -856 
Q 2344 -856 2625 -561 
Q 2906 -266 2906 331 
L 2906 616 
Q 2728 306 2450 153 
Q 2172 0 1784 0 
Q 1141 0 747 490 
Q 353 981 353 1791 
Q 353 2603 747 3093 
Q 1141 3584 1784 3584 
Q 2172 3584 2450 3431 
Q 2728 3278 2906 2969 
L 2906 3500 
L 3481 3500 
L 3481 434 
z
" transform="scale(0.015625)"/>
       <path id="DejaVuSans-79" d="M 2059 -325 
Q 1816 -950 1584 -1140 
Q 1353 -1331 966 -1331 
L 506 -1331 
L 506 -850 
L 844 -850 
Q 1081 -850 1212 -737 
Q 1344 -625 1503 -206 
L 1606 56 
L 191 3500 
L 800 3500 
L 1894 763 
L 2988 3500 
L 3597 3500 
L 2059 -325 
z
" transform="scale(0.015625)"/>
       <path id="DejaVuSans-20" transform="scale(0.015625)"/>
       <path id="DejaVuSans-5b" d="M 550 4863 
L 1875 4863 
L 1875 4416 
L 1125 4416 
L 1125 -397 
L 1875 -397 
L 1875 -844 
L 550 -844 
L 550 4863 
z
" transform="scale(0.015625)"/>
       <path id="DejaVuSans-54" d="M -19 4666 
L 3928 4666 
L 3928 4134 
L 2272 4134 
L 2272 0 
L 1638 0 
L 1638 4134 
L -19 4134 
L -19 4666 
z
" transform="scale(0.015625)"/>
       <path id="DejaVuSans-56" d="M 1831 0 
L 50 4666 
L 709 4666 
L 2188 738 
L 3669 4666 
L 4325 4666 
L 2547 0 
L 1831 0 
z
" transform="scale(0.015625)"/>
       <path id="DejaVuSans-5d" d="M 1947 4863 
L 1947 -844 
L 622 -844 
L 622 -397 
L 1369 -397 
L 1369 4416 
L 622 4416 
L 622 4863 
L 1947 4863 
z
" transform="scale(0.015625)"/>
      </defs>
      <use xlink:href="#DejaVuSans-45"/>
      <use xlink:href="#DejaVuSans-6e" x="63.183594"/>
      <use xlink:href="#DejaVuSans-65" x="126.5625"/>
      <use xlink:href="#DejaVuSans-72" x="188.085938"/>
      <use xlink:href="#DejaVuSans-67" x="227.449219"/>
      <use xlink:href="#DejaVuSans-79" x="290.925781"/>
      <use xlink:href="#DejaVuSans-20" x="350.105469"/>
      <use xlink:href="#DejaVuSans-5b" x="381.892578"/>
      <use xlink:href="#DejaVuSans-54" x="420.90625"/>
      <use xlink:href="#DejaVuSans-65" x="464.990234"/>
      <use xlink:href="#DejaVuSans-56" x="526.513672"/>
      <use xlink:href="#DejaVuSans-5d" x="594.921875"/>
     </g>
    </g>
   </g>
   <g id="matplotlib.axis_2">
    <g id="ytick_1">
     <g id="line2d_27">
      <defs>
       <path id="mdb88822f7f" d="M 0 0 
L -3.5 0 
" style="stroke: #000000; stroke-width: 0.8"/>
      </defs>
      <g>
       <use xlink:href="#mdb88822f7f" x="64.658389" y="242.728" style="stroke: #000000; stroke-width: 0.8"/>
      </g>
     </g>
     <g id="text_5">
      <!-- $\mathdefault{10^{-19}}$ -->
      <g transform="translate(29.758389 246.527219) scale(0.1 -0.1)">
       <defs>
        <path id="DejaVuSans-2212" d="M 678 2272 
L 4684 2272 
L 4684 1741 
L 678 1741 
L 678 2272 
z
" transform="scale(0.015625)"/>
        <path id="DejaVuSans-39" d="M 703 97 
L 703 672 
Q 941 559 1184 500 
Q 1428 441 1663 441 
Q 2288 441 2617 861 
Q 2947 1281 2994 2138 
Q 2813 1869 2534 1725 
Q 2256 1581 1919 1581 
Q 1219 1581 811 2004 
Q 403 2428 403 3163 
Q 403 3881 828 4315 
Q 1253 4750 1959 4750 
Q 2769 4750 3195 4129 
Q 3622 3509 3622 2328 
Q 3622 1225 3098 567 
Q 2575 -91 1691 -91 
Q 1453 -91 1209 -44 
Q 966 3 703 97 
z
M 1959 2075 
Q 2384 2075 2632 2365 
Q 2881 2656 2881 3163 
Q 2881 3666 2632 3958 
Q 2384 4250 1959 4250 
Q 1534 4250 1286 3958 
Q 1038 3666 1038 3163 
Q 1038 2656 1286 2365 
Q 1534 2075 1959 2075 
z
" transform="scale(0.015625)"/>
       </defs>
       <use xlink:href="#DejaVuSans-31" transform="translate(0 0.765625)"/>
       <use xlink:href="#DejaVuSans-30" transform="translate(63.623047 0.765625)"/>
       <use xlink:href="#DejaVuSans-2212" transform="translate(128.203125 39.046875) scale(0.7)"/>
       <use xlink:href="#DejaVuSans-31" transform="translate(186.855469 39.046875) scale(0.7)"/>
       <use xlink:href="#DejaVuSans-39" transform="translate(231.391602 39.046875) scale(0.7)"/>
      </g>
     </g>
    </g>
    <g id="ytick_2">
     <g id="line2d_28">
      <g>
       <use xlink:href="#mdb88822f7f" x="64.658389" y="186.15" style="stroke: #000000; stroke-width: 0.8"/>
      </g>
     </g>
     <g id="text_6">
      <!-- $\mathdefault{10^{-17}}$ -->
      <g transform="translate(29.758389 189.949219) scale(0.1 -0.1)">
       <defs>
        <path id="DejaVuSans-37" d="M 525 4666 
L 3525 4666 
L 3525 4397 
L 1831 0 
L 1172 0 
L 2766 4134 
L 525 4134 
L 525 4666 
z
" transform="scale(0.015625)"/>
       </defs>
       <use xlink:href="#DejaVuSans-31" transform="translate(0 0.684375)"/>
       <use xlink:href="#DejaVuSans-30" transform="translate(63.623047 0.684375)"/>
       <use xlink:href="#DejaVuSans-2212" transform="translate(128.203125 38.965625) scale(0.7)"/>
       <use xlink:href="#DejaVuSans-31" transform="translate(186.855469 38.965625) scale(0.7)"/>
       <use xlink:href="#DejaVuSans-37" transform="translate(231.391602 38.965625) scale(0.7)"/>
      </g>
     </g>
    </g>
    <g id="ytick_3">
     <g id="line2d_29">
      <g>
       <use xlink:href="#mdb88822f7f" x="64.658389" y="129.572" style="stroke: #000000; stroke-width: 0.8"/>
      </g>
     </g>
     <g id="text_7">
      <!-- $\mathdefault{10^{-15}}$ -->
      <g transform="translate(29.758389 133.371219) scale(0.1 -0.1)">
       <defs>
        <path id="DejaVuSans-35" d="M 691 4666 
L 3169 4666 
L 3169 4134 
L 1269 4134 
L 1269 2991 
Q 1406 3038 1543 3061 
Q 1681 3084 1819 3084 
Q 2600 3084 3056 2656 
Q 3513 2228 3513 1497 
Q 3513 744 3044 326 
Q 2575 -91 1722 -91 
Q 1428 -91 1123 -41 
Q 819 9 494 109 
L 494 744 
Q 775 591 1075 516 
Q 1375 441 1709 441 
Q 2250 441 2565 725 
Q 2881 1009 2881 1497 
Q 2881 1984 2565 2268 
Q 2250 2553 1709 2553 
Q 1456 2553 1204 2497 
Q 953 2441 691 2322 
L 691 4666 
z
" transform="scale(0.015625)"/>
       </defs>
       <use xlink:href="#DejaVuSans-31" transform="translate(0 0.684375)"/>
       <use xlink:href="#DejaVuSans-30" transform="translate(63.623047 0.684375)"/>
       <use xlink:href="#DejaVuSans-2212" transform="translate(128.203125 38.965625) scale(0.7)"/>
       <use xlink:href="#DejaVuSans-31" transform="translate(186.855469 38.965625) scale(0.7)"/>
       <use xlink:href="#DejaVuSans-35" transform="translate(231.391602 38.965625) scale(0.7)"/>
      </g>
     </g>
    </g>
    <g id="ytick_4">
     <g id="line2d_30">
      <g>
       <use xlink:href="#mdb88822f7f" x="64.658389" y="72.994" style="stroke: #000000; stroke-width: 0.8"/>
      </g>
     </g>
     <g id="text_8">
      <!-- $\mathdefault{10^{-13}}$ -->
      <g transform="translate(29.758389 76.793219) scale(0.1 -0.1)">
       <defs>
        <path id="DejaVuSans-33" d="M 2597 2516 
Q 3050 2419 3304 2112 
Q 3559 1806 3559 1356 
Q 3559 666 3084 287 
Q 2609 -91 1734 -91 
Q 1441 -91 1130 -33 
Q 819 25 488 141 
L 488 750 
Q 750 597 1062 519 
Q 1375 441 1716 441 
Q 2309 441 2620 675 
Q 2931 909 2931 1356 
Q 2931 1769 2642 2001 
Q 2353 2234 1838 2234 
L 1294 2234 
L 1294 2753 
L 1863 2753 
Q 2328 2753 2575 2939 
Q 2822 3125 2822 3475 
Q 2822 3834 2567 4026 
Q 2313 4219 1838 4219 
Q 1578 4219 1281 4162 
Q 984 4106 628 3988 
L 628 4550 
Q 988 4650 1302 4700 
Q 1616 4750 1894 4750 
Q 2613 4750 3031 4423 
Q 3450 4097 3450 3541 
Q 3450 3153 3228 2886 
Q 3006 2619 2597 2516 
z
" transform="scale(0.015625)"/>
       </defs>
       <use xlink:href="#DejaVuSans-31" transform="translate(0 0.765625)"/>
       <use xlink:href="#DejaVuSans-30" transform="translate(63.623047 0.765625)"/>
       <use xlink:href="#DejaVuSans-2212" transform="translate(128.203125 39.046875) scale(0.7)"/>
       <use xlink:href="#DejaVuSans-31" transform="translate(186.855469 39.046875) scale(0.7)"/>
       <use xlink:href="#DejaVuSans-33" transform="translate(231.391602 39.046875) scale(0.7)"/>
      </g>
     </g>
    </g>
    <g id="ytick_5">
     <g id="line2d_31">
      <g>
       <use xlink:href="#mdb88822f7f" x="64.658389" y="16.416" style="stroke: #000000; stroke-width: 0.8"/>
      </g>
     </g>
     <g id="text_9">
      <!-- $\mathdefault{10^{-11}}$ -->
      <g transform="translate(29.758389 20.215219) scale(0.1 -0.1)">
       <use xlink:href="#DejaVuSans-31" transform="translate(0 0.684375)"/>
       <use xlink:href="#DejaVuSans-30" transform="translate(63.623047 0.684375)"/>
       <use xlink:href="#DejaVuSans-2212" transform="translate(128.203125 38.965625) scale(0.7)"/>
       <use xlink:href="#DejaVuSans-31" transform="translate(186.855469 38.965625) scale(0.7)"/>
       <use xlink:href="#DejaVuSans-31" transform="translate(231.391602 38.965625) scale(0.7)"/>
      </g>
     </g>
    </g>
    <g id="text_10">
     <!-- E$^2$ dN/dE [TeV cm$^{-2}$ s$^{-1}$] -->
     <g transform="translate(23.678702 190.822) rotate(-90) scale(0.1 -0.1)">
      <defs>
       <path id="DejaVuSans-64" d="M 2906 2969 
L 2906 4863 
L 3481 4863 
L 3481 0 
L 2906 0 
L 2906 525 
Q 2725 213 2448 61 
Q 2172 -91 1784 -91 
Q 1150 -91 751 415 
Q 353 922 353 1747 
Q 353 2572 751 3078 
Q 1150 3584 1784 3584 
Q 2172 3584 2448 3432 
Q 2725 3281 2906 2969 
z
M 947 1747 
Q 947 1113 1208 752 
Q 1469 391 1925 391 
Q 2381 391 2643 752 
Q 2906 1113 2906 1747 
Q 2906 2381 2643 2742 
Q 2381 3103 1925 3103 
Q 1469 3103 1208 2742 
Q 947 2381 947 1747 
z
" transform="scale(0.015625)"/>
       <path id="DejaVuSans-4e" d="M 628 4666 
L 1478 4666 
L 3547 763 
L 3547 4666 
L 4159 4666 
L 4159 0 
L 3309 0 
L 1241 3903 
L 1241 0 
L 628 0 
L 628 4666 
z
" transform="scale(0.015625)"/>
       <path id="DejaVuSans-2f" d="M 1625 4666 
L 2156 4666 
L 531 -594 
L 0 -594 
L 1625 4666 
z
" transform="scale(0.015625)"/>
       <path id="DejaVuSans-63" d="M 3122 3366 
L 3122 2828 
Q 2878 2963 2633 3030 
Q 2388 3097 2138 3097 
Q 1578 3097 1268 2742 
Q 959 2388 959 1747 
Q 959 1106 1268 751 
Q 1578 397 2138 397 
Q 2388 397 2633 464 
Q 2878 531 3122 666 
L 3122 134 
Q 2881 22 2623 -34 
Q 2366 -91 2075 -91 
Q 1284 -91 818 406 
Q 353 903 353 1747 
Q 353 2603 823 3093 
Q 1294 3584 2113 3584 
Q 2378 3584 2631 3529 
Q 2884 3475 3122 3366 
z
" transform="scale(0.015625)"/>
       <path id="DejaVuSans-6d" d="M 3328 2828 
Q 3544 3216 3844 3400 
Q 4144 3584 4550 3584 
Q 5097 3584 5394 3201 
Q 5691 2819 5691 2113 
L 5691 0 
L 5113 0 
L 5113 2094 
Q 5113 2597 4934 2840 
Q 4756 3084 4391 3084 
Q 3944 3084 3684 2787 
Q 3425 2491 3425 1978 
L 3425 0 
L 2847 0 
L 2847 2094 
Q 2847 2600 2669 2842 
Q 2491 3084 2119 3084 
Q 1678 3084 1418 2786 
Q 1159 2488 1159 1978 
L 1159 0 
L 581 0 
L 581 3500 
L 1159 3500 
L 1159 2956 
Q 1356 3278 1631 3431 
Q 1906 3584 2284 3584 
Q 2666 3584 2933 3390 
Q 3200 3197 3328 2828 
z
" transform="scale(0.015625)"/>
       <path id="DejaVuSans-73" d="M 2834 3397 
L 2834 2853 
Q 2591 2978 2328 3040 
Q 2066 3103 1784 3103 
Q 1356 3103 1142 2972 
Q 928 2841 928 2578 
Q 928 2378 1081 2264 
Q 1234 2150 1697 2047 
L 1894 2003 
Q 2506 1872 2764 1633 
Q 3022 1394 3022 966 
Q 3022 478 2636 193 
Q 2250 -91 1575 -91 
Q 1294 -91 989 -36 
Q 684 19 347 128 
L 347 722 
Q 666 556 975 473 
Q 1284 391 1588 391 
Q 1994 391 2212 530 
Q 2431 669 2431 922 
Q 2431 1156 2273 1281 
Q 2116 1406 1581 1522 
L 1381 1569 
Q 847 1681 609 1914 
Q 372 2147 372 2553 
Q 372 3047 722 3315 
Q 1072 3584 1716 3584 
Q 2034 3584 2315 3537 
Q 2597 3491 2834 3397 
z
" transform="scale(0.015625)"/>
      </defs>
      <use xlink:href="#DejaVuSans-45" transform="translate(0 0.765625)"/>
      <use xlink:href="#DejaVuSans-32" transform="translate(64.140625 39.046875) scale(0.7)"/>
      <use xlink:href="#DejaVuSans-20" transform="translate(111.411133 0.765625)"/>
      <use xlink:href="#DejaVuSans-64" transform="translate(143.198242 0.765625)"/>
      <use xlink:href="#DejaVuSans-4e" transform="translate(206.674805 0.765625)"/>
      <use xlink:href="#DejaVuSans-2f" transform="translate(281.479492 0.765625)"/>
      <use xlink:href="#DejaVuSans-64" transform="translate(315.170898 0.765625)"/>
      <use xlink:href="#DejaVuSans-45" transform="translate(378.647461 0.765625)"/>
      <use xlink:href="#DejaVuSans-20" transform="translate(441.831055 0.765625)"/>
      <use xlink:href="#DejaVuSans-5b" transform="translate(473.618164 0.765625)"/>
      <use xlink:href="#DejaVuSans-54" transform="translate(512.631836 0.765625)"/>
      <use xlink:href="#DejaVuSans-65" transform="translate(573.71582 0.765625)"/>
      <use xlink:href="#DejaVuSans-56" transform="translate(635.239258 0.765625)"/>
      <use xlink:href="#DejaVuSans-20" transform="translate(703.647461 0.765625)"/>
      <use xlink:href="#DejaVuSans-63" transform="translate(735.43457 0.765625)"/>
      <use xlink:href="#DejaVuSans-6d" transform="translate(790.415039 0.765625)"/>
      <use xlink:href="#DejaVuSans-2212" transform="translate(888.78418 39.046875) scale(0.7)"/>
      <use xlink:href="#DejaVuSans-32" transform="translate(947.436523 39.046875) scale(0.7)"/>
      <use xlink:href="#DejaVuSans-20" transform="translate(994.707031 0.765625)"/>
      <use xlink:href="#DejaVuSans-73" transform="translate(1026.494141 0.765625)"/>
      <use xlink:href="#DejaVuSans-2212" transform="translate(1079.550781 39.046875) scale(0.7)"/>
      <use xlink:href="#DejaVuSans-31" transform="translate(1138.203125 39.046875) scale(0.7)"/>
      <use xlink:href="#DejaVuSans-5d" transform="translate(1185.473633 0.765625)"/>
     </g>
    </g>
   </g>
   <g id="line2d_32">
    <path d="M 82.457708 32.399601 
L 85.643473 32.442825 
L 88.829237 32.487342 
L 92.015001 32.533224 
L 95.200765 32.580549 
L 98.38653 32.629397 
L 101.572294 32.679854 
L 104.758058 32.73201 
L 107.943823 32.785961 
L 111.129587 32.841808 
L 114.315351 32.899658 
L 117.501115 32.959622 
L 120.68688 33.02182 
L 123.872644 33.086377 
L 127.058408 33.153426 
L 130.244173 33.223107 
L 133.429937 33.295569 
L 136.615701 33.370966 
L 139.801465 33.449465 
L 142.98723 33.531239 
L 146.172994 33.616473 
L 149.358758 33.705361 
L 152.544522 33.798109 
L 155.730287 33.894933 
L 158.916051 33.996063 
L 162.101815 34.10174 
L 165.28758 34.212221 
L 168.473344 34.327775 
L 171.659108 34.448688 
L 174.844872 34.57526 
L 178.030637 34.70781 
L 181.216401 34.846673 
L 184.402165 34.992206 
L 187.58793 35.144781 
L 190.773694 35.304797 
L 193.959458 35.472669 
L 197.145222 35.648841 
L 200.330987 35.833779 
L 203.516751 36.027975 
L 206.702515 36.23195 
L 209.88828 36.446254 
L 213.074044 36.671467 
L 216.259808 36.908201 
L 219.445572 37.157106 
L 222.631337 37.418865 
L 225.817101 37.694201 
L 229.002865 37.983875 
L 232.188629 38.288696 
L 235.374394 38.609514 
L 238.560158 38.947228 
L 241.745922 39.302787 
L 244.931687 39.677196 
L 248.117451 40.071513 
L 251.303215 40.486858 
L 254.488979 40.924412 
L 257.674744 41.385424 
L 260.860508 41.871212 
L 264.046272 42.38317 
L 267.232037 42.922767 
L 270.417801 43.491558 
L 273.603565 44.091184 
L 276.789329 44.723377 
L 279.975094 45.389969 
L 283.160858 46.092893 
L 286.346622 46.834191 
L 289.532387 47.61602 
L 292.718151 48.440658 
L 295.903915 49.310512 
L 299.089679 50.228122 
L 302.275444 51.196175 
L 305.461208 52.217504 
L 308.646972 53.295105 
L 311.832736 54.43214 
L 315.018501 55.63195 
L 318.204265 56.898064 
L 321.390029 58.234209 
L 324.575794 59.644321 
L 327.761558 61.132557 
L 330.947322 62.703309 
L 334.133086 64.361216 
L 337.318851 66.111175 
L 340.504615 67.958362 
L 343.690379 69.908242 
L 346.876144 71.966585 
L 350.061908 74.139491 
L 353.247672 76.433397 
L 356.433436 78.855105 
L 359.619201 81.411799 
L 362.804965 84.111066 
L 365.990729 86.96092 
L 369.176494 89.969826 
L 372.362258 93.146724 
L 375.548022 96.501056 
L 378.733786 100.042797 
L 381.919551 103.782479 
L 385.105315 107.73123 
L 388.291079 111.9008 
L 391.476843 116.303603 
L 394.662608 120.952747 
L 397.848372 125.86208 
" clip-path="url(#pdc87f95ab6)" style="fill: none; stroke-dasharray: 1.5,2.475; stroke-dashoffset: 0; stroke: #000000; stroke-width: 1.5"/>
   </g>
   <g id="LineCollection_1">
    <path clip-path="url(#pdc87f95ab6)" style="fill: none; stroke: #8b0000; stroke-width: 1.5"/>
    <path clip-path="url(#pdc87f95ab6)" style="fill: none; stroke: #8b0000; stroke-width: 1.5"/>
    <path clip-path="url(#pdc87f95ab6)" style="fill: none; stroke: #8b0000; stroke-width: 1.5"/>
    <path clip-path="url(#pdc87f95ab6)" style="fill: none; stroke: #8b0000; stroke-width: 1.5"/>
    <path d="M 86.417135 33.245782 
L 86.417135 31.568331 
" clip-path="url(#pdc87f95ab6)" style="fill: none; stroke: #8b0000; stroke-width: 1.5"/>
    <path d="M 103.184316 33.366156 
L 103.184316 31.912205 
" clip-path="url(#pdc87f95ab6)" style="fill: none; stroke: #8b0000; stroke-width: 1.5"/>
    <path d="M 119.951496 33.619224 
L 119.951496 32.222848 
" clip-path="url(#pdc87f95ab6)" style="fill: none; stroke: #8b0000; stroke-width: 1.5"/>
    <path d="M 136.718676 33.960615 
L 136.718676 32.566494 
" clip-path="url(#pdc87f95ab6)" style="fill: none; stroke: #8b0000; stroke-width: 1.5"/>
    <path d="M 153.485858 34.419192 
L 153.485858 32.954688 
" clip-path="url(#pdc87f95ab6)" style="fill: none; stroke: #8b0000; stroke-width: 1.5"/>
    <path d="M 170.253039 34.992533 
L 170.253039 33.439506 
" clip-path="url(#pdc87f95ab6)" style="fill: none; stroke: #8b0000; stroke-width: 1.5"/>
    <path d="M 187.020217 35.746185 
L 187.020217 34.029561 
" clip-path="url(#pdc87f95ab6)" style="fill: none; stroke: #8b0000; stroke-width: 1.5"/>
    <path d="M 203.787398 36.715342 
L 203.787398 34.782775 
" clip-path="url(#pdc87f95ab6)" style="fill: none; stroke: #8b0000; stroke-width: 1.5"/>
    <path d="M 220.55458 37.978603 
L 220.55458 35.74908 
" clip-path="url(#pdc87f95ab6)" style="fill: none; stroke: #8b0000; stroke-width: 1.5"/>
    <path d="M 237.321759 39.655736 
L 237.321759 36.984558 
" clip-path="url(#pdc87f95ab6)" style="fill: none; stroke: #8b0000; stroke-width: 1.5"/>
    <path d="M 254.088938 41.889385 
L 254.088938 38.582363 
" clip-path="url(#pdc87f95ab6)" style="fill: none; stroke: #8b0000; stroke-width: 1.5"/>
    <path d="M 270.856119 44.808341 
L 270.856119 40.716383 
" clip-path="url(#pdc87f95ab6)" style="fill: none; stroke: #8b0000; stroke-width: 1.5"/>
    <path d="M 287.623301 48.796981 
L 287.623301 43.471973 
" clip-path="url(#pdc87f95ab6)" style="fill: none; stroke: #8b0000; stroke-width: 1.5"/>
    <path d="M 304.390483 54.374854 
L 304.390483 47.018141 
" clip-path="url(#pdc87f95ab6)" style="fill: none; stroke: #8b0000; stroke-width: 1.5"/>
    <path d="M 321.157664 62.51372 
L 321.157664 51.567874 
" clip-path="url(#pdc87f95ab6)" style="fill: none; stroke: #8b0000; stroke-width: 1.5"/>
    <path d="M 337.924842 77.046107 
L 337.924842 57.135219 
" clip-path="url(#pdc87f95ab6)" style="fill: none; stroke: #8b0000; stroke-width: 1.5"/>
    <path d="M 354.692023 289 
L 354.692023 63.750177 
" clip-path="url(#pdc87f95ab6)" style="fill: none; stroke: #8b0000; stroke-width: 1.5"/>
    <path d="M 371.459203 289 
L 371.459203 71.069003 
" clip-path="url(#pdc87f95ab6)" style="fill: none; stroke: #8b0000; stroke-width: 1.5"/>
    <path d="M 388.226382 289 
L 388.226382 78.121372 
" clip-path="url(#pdc87f95ab6)" style="fill: none; stroke: #8b0000; stroke-width: 1.5"/>
    <path d="M 404.993563 289 
L 404.993563 84.436413 
" clip-path="url(#pdc87f95ab6)" style="fill: none; stroke: #8b0000; stroke-width: 1.5"/>
   </g>
   <g id="LineCollection_2">
    <path clip-path="url(#pdc87f95ab6)" style="fill: none; stroke: #006400; stroke-width: 1.5"/>
    <path clip-path="url(#pdc87f95ab6)" style="fill: none; stroke: #006400; stroke-width: 1.5"/>
    <path clip-path="url(#pdc87f95ab6)" style="fill: none; stroke: #006400; stroke-width: 1.5"/>
    <path clip-path="url(#pdc87f95ab6)" style="fill: none; stroke: #006400; stroke-width: 1.5"/>
    <path d="M 80.864826 33.752852 
L 80.864826 31.133362 
" clip-path="url(#pdc87f95ab6)" style="fill: none; stroke: #006400; stroke-width: 1.5"/>
    <path d="M 97.632007 33.835314 
L 97.632007 31.512446 
" clip-path="url(#pdc87f95ab6)" style="fill: none; stroke: #006400; stroke-width: 1.5"/>
    <path d="M 114.399187 34.070998 
L 114.399187 31.843708 
" clip-path="url(#pdc87f95ab6)" style="fill: none; stroke: #006400; stroke-width: 1.5"/>
    <path d="M 131.166367 34.400792 
L 131.166367 32.182468 
" clip-path="url(#pdc87f95ab6)" style="fill: none; stroke: #006400; stroke-width: 1.5"/>
    <path d="M 147.933549 34.870004 
L 147.933549 32.566984 
" clip-path="url(#pdc87f95ab6)" style="fill: none; stroke: #006400; stroke-width: 1.5"/>
    <path d="M 164.70073 35.447164 
L 164.70073 33.05059 
" clip-path="url(#pdc87f95ab6)" style="fill: none; stroke: #006400; stroke-width: 1.5"/>
    <path d="M 181.467908 36.21729 
L 181.467908 33.633637 
" clip-path="url(#pdc87f95ab6)" style="fill: none; stroke: #006400; stroke-width: 1.5"/>
    <path d="M 198.235089 37.19825 
L 198.235089 34.380009 
" clip-path="url(#pdc87f95ab6)" style="fill: none; stroke: #006400; stroke-width: 1.5"/>
    <path d="M 215.002271 38.470657 
L 215.002271 35.343818 
" clip-path="url(#pdc87f95ab6)" style="fill: none; stroke: #006400; stroke-width: 1.5"/>
    <path d="M 231.769451 40.149739 
L 231.769451 36.598913 
" clip-path="url(#pdc87f95ab6)" style="fill: none; stroke: #006400; stroke-width: 1.5"/>
    <path d="M 248.536629 42.37501 
L 248.536629 38.226667 
" clip-path="url(#pdc87f95ab6)" style="fill: none; stroke: #006400; stroke-width: 1.5"/>
    <path d="M 265.30381 45.286573 
L 265.30381 40.395501 
" clip-path="url(#pdc87f95ab6)" style="fill: none; stroke: #006400; stroke-width: 1.5"/>
    <path d="M 282.070992 49.257767 
L 282.070992 43.19051 
" clip-path="url(#pdc87f95ab6)" style="fill: none; stroke: #006400; stroke-width: 1.5"/>
    <path d="M 298.838174 54.822553 
L 298.838174 46.787332 
" clip-path="url(#pdc87f95ab6)" style="fill: none; stroke: #006400; stroke-width: 1.5"/>
    <path d="M 315.605355 62.982983 
L 315.605355 51.394046 
" clip-path="url(#pdc87f95ab6)" style="fill: none; stroke: #006400; stroke-width: 1.5"/>
    <path d="M 332.372533 77.730657 
L 332.372533 57.014344 
" clip-path="url(#pdc87f95ab6)" style="fill: none; stroke: #006400; stroke-width: 1.5"/>
    <path d="M 349.139714 289 
L 349.139714 63.687355 
" clip-path="url(#pdc87f95ab6)" style="fill: none; stroke: #006400; stroke-width: 1.5"/>
    <path d="M 365.906894 289 
L 365.906894 71.042497 
" clip-path="url(#pdc87f95ab6)" style="fill: none; stroke: #006400; stroke-width: 1.5"/>
    <path d="M 382.674073 289 
L 382.674073 78.165994 
" clip-path="url(#pdc87f95ab6)" style="fill: none; stroke: #006400; stroke-width: 1.5"/>
    <path d="M 399.441254 289 
L 399.441254 84.491678 
" clip-path="url(#pdc87f95ab6)" style="fill: none; stroke: #006400; stroke-width: 1.5"/>
   </g>
   <g id="line2d_33">
    <defs>
     <path id="m0d6e64f600" d="M 0 3 
C 0.795609 3 1.55874 2.683901 2.12132 2.12132 
C 2.683901 1.55874 3 0.795609 3 0 
C 3 -0.795609 2.683901 -1.55874 2.12132 -2.12132 
C 1.55874 -2.683901 0.795609 -3 0 -3 
C -0.795609 -3 -1.55874 -2.683901 -2.12132 -2.12132 
C -2.683901 -1.55874 -3 -0.795609 -3 0 
C -3 0.795609 -2.683901 1.55874 -2.12132 2.12132 
C -1.55874 2.683901 -0.795609 3 0 3 
z
" style="stroke: #8b0000"/>
    </defs>
    <g clip-path="url(#pdc87f95ab6)">
     <use xlink:href="#m0d6e64f600" x="86.417135" y="32.378449" style="fill: #8b0000; stroke: #8b0000"/>
     <use xlink:href="#m0d6e64f600" x="103.184316" y="32.617684" style="fill: #8b0000; stroke: #8b0000"/>
     <use xlink:href="#m0d6e64f600" x="119.951496" y="32.901208" style="fill: #8b0000; stroke: #8b0000"/>
     <use xlink:href="#m0d6e64f600" x="136.718676" y="33.24379" style="fill: #8b0000; stroke: #8b0000"/>
     <use xlink:href="#m0d6e64f600" x="153.485858" y="33.665131" style="fill: #8b0000; stroke: #8b0000"/>
     <use xlink:href="#m0d6e64f600" x="170.253039" y="34.191497" style="fill: #8b0000; stroke: #8b0000"/>
     <use xlink:href="#m0d6e64f600" x="187.020217" y="34.857916" style="fill: #8b0000; stroke: #8b0000"/>
     <use xlink:href="#m0d6e64f600" x="203.787398" y="35.711098" style="fill: #8b0000; stroke: #8b0000"/>
     <use xlink:href="#m0d6e64f600" x="220.55458" y="36.813337" style="fill: #8b0000; stroke: #8b0000"/>
     <use xlink:href="#m0d6e64f600" x="237.321759" y="38.247693" style="fill: #8b0000; stroke: #8b0000"/>
     <use xlink:href="#m0d6e64f600" x="254.088938" y="40.124937" style="fill: #8b0000; stroke: #8b0000"/>
     <use xlink:href="#m0d6e64f600" x="270.856119" y="42.592782" style="fill: #8b0000; stroke: #8b0000"/>
     <use xlink:href="#m0d6e64f600" x="287.623301" y="45.848206" style="fill: #8b0000; stroke: #8b0000"/>
     <use xlink:href="#m0d6e64f600" x="304.390483" y="50.153882" style="fill: #8b0000; stroke: #8b0000"/>
     <use xlink:href="#m0d6e64f600" x="321.157664" y="55.860093" style="fill: #8b0000; stroke: #8b0000"/>
     <use xlink:href="#m0d6e64f600" x="337.924842" y="63.433945" style="fill: #8b0000; stroke: #8b0000"/>
     <use xlink:href="#m0d6e64f600" x="354.692023" y="73.49834" style="fill: #8b0000; stroke: #8b0000"/>
     <use xlink:href="#m0d6e64f600" x="371.459203" y="86.883925" style="fill: #8b0000; stroke: #8b0000"/>
     <use xlink:href="#m0d6e64f600" x="388.226382" y="104.698387" style="fill: #8b0000; stroke: #8b0000"/>
     <use xlink:href="#m0d6e64f600" x="404.993563" y="128.418927" style="fill: #8b0000; stroke: #8b0000"/>
    </g>
   </g>
   <g id="line2d_34">
    <defs>
     <path id="m26b15a065c" d="M 0 3 
C 0.795609 3 1.55874 2.683901 2.12132 2.12132 
C 2.683901 1.55874 3 0.795609 3 0 
C 3 -0.795609 2.683901 -1.55874 2.12132 -2.12132 
C 1.55874 -2.683901 0.795609 -3 0 -3 
C -0.795609 -3 -1.55874 -2.683901 -2.12132 -2.12132 
C -2.683901 -1.55874 -3 -0.795609 -3 0 
C -3 0.795609 -2.683901 1.55874 -2.12132 2.12132 
C -1.55874 2.683901 -0.795609 3 0 3 
z
" style="stroke: #006400"/>
    </defs>
    <g clip-path="url(#pdc87f95ab6)">
     <use xlink:href="#m26b15a065c" x="80.864826" y="32.373425" style="fill: #006400; stroke: #006400"/>
     <use xlink:href="#m26b15a065c" x="97.632007" y="32.619064" style="fill: #006400; stroke: #006400"/>
     <use xlink:href="#m26b15a065c" x="114.399187" y="32.906949" style="fill: #006400; stroke: #006400"/>
     <use xlink:href="#m26b15a065c" x="131.166367" y="33.24163" style="fill: #006400; stroke: #006400"/>
     <use xlink:href="#m26b15a065c" x="147.933549" y="33.664609" style="fill: #006400; stroke: #006400"/>
     <use xlink:href="#m26b15a065c" x="164.70073" y="34.190532" style="fill: #006400; stroke: #006400"/>
     <use xlink:href="#m26b15a065c" x="181.467908" y="34.857671" style="fill: #006400; stroke: #006400"/>
     <use xlink:href="#m26b15a065c" x="198.235089" y="35.708496" style="fill: #006400; stroke: #006400"/>
     <use xlink:href="#m26b15a065c" x="215.002271" y="36.808028" style="fill: #006400; stroke: #006400"/>
     <use xlink:href="#m26b15a065c" x="231.769451" y="38.246488" style="fill: #006400; stroke: #006400"/>
     <use xlink:href="#m26b15a065c" x="248.536629" y="40.126576" style="fill: #006400; stroke: #006400"/>
     <use xlink:href="#m26b15a065c" x="265.30381" y="42.59923" style="fill: #006400; stroke: #006400"/>
     <use xlink:href="#m26b15a065c" x="282.070992" y="45.853348" style="fill: #006400; stroke: #006400"/>
     <use xlink:href="#m26b15a065c" x="298.838174" y="50.15942" style="fill: #006400; stroke: #006400"/>
     <use xlink:href="#m26b15a065c" x="315.605355" y="55.869904" style="fill: #006400; stroke: #006400"/>
     <use xlink:href="#m26b15a065c" x="332.372533" y="63.442473" style="fill: #006400; stroke: #006400"/>
     <use xlink:href="#m26b15a065c" x="349.139714" y="73.518179" style="fill: #006400; stroke: #006400"/>
     <use xlink:href="#m26b15a065c" x="365.906894" y="86.905944" style="fill: #006400; stroke: #006400"/>
     <use xlink:href="#m26b15a065c" x="382.674073" y="104.775989" style="fill: #006400; stroke: #006400"/>
     <use xlink:href="#m26b15a065c" x="399.441254" y="128.496348" style="fill: #006400; stroke: #006400"/>
    </g>
   </g>
   <g id="patch_3">
    <path d="M 64.658389 242.728 
L 64.658389 16.416 
" style="fill: none; stroke: #000000; stroke-width: 0.8; stroke-linejoin: miter; stroke-linecap: square"/>
   </g>
   <g id="patch_4">
    <path d="M 421.2 242.728 
L 421.2 16.416 
" style="fill: none; stroke: #000000; stroke-width: 0.8; stroke-linejoin: miter; stroke-linecap: square"/>
   </g>
   <g id="patch_5">
    <path d="M 64.658389 242.728 
L 421.2 242.728 
" style="fill: none; stroke: #000000; stroke-width: 0.8; stroke-linejoin: miter; stroke-linecap: square"/>
   </g>
   <g id="patch_6">
    <path d="M 64.658389 16.416 
L 421.2 16.416 
" style="fill: none; stroke: #000000; stroke-width: 0.8; stroke-linejoin: miter; stroke-linecap: square"/>
   </g>
   <g id="legend_1">
    <g id="patch_7">
     <path d="M 71.658389 237.728 
L 165.558389 237.728 
Q 167.558389 237.728 167.558389 235.728 
L 167.558389 192.693625 
Q 167.558389 190.693625 165.558389 190.693625 
L 71.658389 190.693625 
Q 69.658389 190.693625 69.658389 192.693625 
L 69.658389 235.728 
Q 69.658389 237.728 71.658389 237.728 
z
" style="fill: #ffffff; opacity: 0.8; stroke: #cccccc; stroke-linejoin: miter"/>
    </g>
    <g id="patch_8">
     <path d="M 73.658389 202.292062 
L 93.658389 202.292062 
L 93.658389 195.292062 
L 73.658389 195.292062 
z
" style="fill: #008000; fill-opacity: 0.5"/>
    </g>
    <g id="text_11">
     <!-- $1\sigma$ Nuisance -->
     <g transform="translate(101.658389 202.292062) scale(0.1 -0.1)">
      <defs>
       <path id="DejaVuSans-Oblique-3c3" d="M 2219 3044 
Q 1744 3044 1422 2700 
Q 1081 2341 969 1747 
Q 844 1119 1044 756 
Q 1241 397 1706 397 
Q 2166 397 2503 759 
Q 2844 1122 2966 1747 
Q 3075 2319 2881 2700 
Q 2700 3044 2219 3044 
z
M 2309 3503 
L 4219 3500 
L 4106 2925 
L 3463 2925 
Q 3706 2438 3575 1747 
Q 3406 888 2884 400 
Q 2359 -91 1609 -91 
Q 856 -91 525 400 
Q 194 888 363 1747 
Q 528 2609 1050 3097 
Q 1484 3503 2309 3503 
z
" transform="scale(0.015625)"/>
       <path id="DejaVuSans-75" d="M 544 1381 
L 544 3500 
L 1119 3500 
L 1119 1403 
Q 1119 906 1312 657 
Q 1506 409 1894 409 
Q 2359 409 2629 706 
Q 2900 1003 2900 1516 
L 2900 3500 
L 3475 3500 
L 3475 0 
L 2900 0 
L 2900 538 
Q 2691 219 2414 64 
Q 2138 -91 1772 -91 
Q 1169 -91 856 284 
Q 544 659 544 1381 
z
M 1991 3584 
L 1991 3584 
z
" transform="scale(0.015625)"/>
       <path id="DejaVuSans-69" d="M 603 3500 
L 1178 3500 
L 1178 0 
L 603 0 
L 603 3500 
z
M 603 4863 
L 1178 4863 
L 1178 4134 
L 603 4134 
L 603 4863 
z
" transform="scale(0.015625)"/>
       <path id="DejaVuSans-61" d="M 2194 1759 
Q 1497 1759 1228 1600 
Q 959 1441 959 1056 
Q 959 750 1161 570 
Q 1363 391 1709 391 
Q 2188 391 2477 730 
Q 2766 1069 2766 1631 
L 2766 1759 
L 2194 1759 
z
M 3341 1997 
L 3341 0 
L 2766 0 
L 2766 531 
Q 2569 213 2275 61 
Q 1981 -91 1556 -91 
Q 1019 -91 701 211 
Q 384 513 384 1019 
Q 384 1609 779 1909 
Q 1175 2209 1959 2209 
L 2766 2209 
L 2766 2266 
Q 2766 2663 2505 2880 
Q 2244 3097 1772 3097 
Q 1472 3097 1187 3025 
Q 903 2953 641 2809 
L 641 3341 
Q 956 3463 1253 3523 
Q 1550 3584 1831 3584 
Q 2591 3584 2966 3190 
Q 3341 2797 3341 1997 
z
" transform="scale(0.015625)"/>
      </defs>
      <use xlink:href="#DejaVuSans-31" transform="translate(0 0.015625)"/>
      <use xlink:href="#DejaVuSans-Oblique-3c3" transform="translate(63.623047 0.015625)"/>
      <use xlink:href="#DejaVuSans-20" transform="translate(127.001953 0.015625)"/>
      <use xlink:href="#DejaVuSans-4e" transform="translate(158.789062 0.015625)"/>
      <use xlink:href="#DejaVuSans-75" transform="translate(233.59375 0.015625)"/>
      <use xlink:href="#DejaVuSans-69" transform="translate(296.972656 0.015625)"/>
      <use xlink:href="#DejaVuSans-73" transform="translate(324.755859 0.015625)"/>
      <use xlink:href="#DejaVuSans-61" transform="translate(376.855469 0.015625)"/>
      <use xlink:href="#DejaVuSans-6e" transform="translate(438.134766 0.015625)"/>
      <use xlink:href="#DejaVuSans-63" transform="translate(501.513672 0.015625)"/>
      <use xlink:href="#DejaVuSans-65" transform="translate(556.494141 0.015625)"/>
     </g>
    </g>
    <g id="patch_9">
     <path d="M 73.658389 216.970187 
L 93.658389 216.970187 
L 93.658389 209.970187 
L 73.658389 209.970187 
z
" style="fill: #ff0000; fill-opacity: 0.6"/>
    </g>
    <g id="text_12">
     <!-- $1\sigma$ Standard -->
     <g transform="translate(101.658389 216.970187) scale(0.1 -0.1)">
      <defs>
       <path id="DejaVuSans-53" d="M 3425 4513 
L 3425 3897 
Q 3066 4069 2747 4153 
Q 2428 4238 2131 4238 
Q 1616 4238 1336 4038 
Q 1056 3838 1056 3469 
Q 1056 3159 1242 3001 
Q 1428 2844 1947 2747 
L 2328 2669 
Q 3034 2534 3370 2195 
Q 3706 1856 3706 1288 
Q 3706 609 3251 259 
Q 2797 -91 1919 -91 
Q 1588 -91 1214 -16 
Q 841 59 441 206 
L 441 856 
Q 825 641 1194 531 
Q 1563 422 1919 422 
Q 2459 422 2753 634 
Q 3047 847 3047 1241 
Q 3047 1584 2836 1778 
Q 2625 1972 2144 2069 
L 1759 2144 
Q 1053 2284 737 2584 
Q 422 2884 422 3419 
Q 422 4038 858 4394 
Q 1294 4750 2059 4750 
Q 2388 4750 2728 4690 
Q 3069 4631 3425 4513 
z
" transform="scale(0.015625)"/>
       <path id="DejaVuSans-74" d="M 1172 4494 
L 1172 3500 
L 2356 3500 
L 2356 3053 
L 1172 3053 
L 1172 1153 
Q 1172 725 1289 603 
Q 1406 481 1766 481 
L 2356 481 
L 2356 0 
L 1766 0 
Q 1100 0 847 248 
Q 594 497 594 1153 
L 594 3053 
L 172 3053 
L 172 3500 
L 594 3500 
L 594 4494 
L 1172 4494 
z
" transform="scale(0.015625)"/>
      </defs>
      <use xlink:href="#DejaVuSans-31" transform="translate(0 0.015625)"/>
      <use xlink:href="#DejaVuSans-Oblique-3c3" transform="translate(63.623047 0.015625)"/>
      <use xlink:href="#DejaVuSans-20" transform="translate(127.001953 0.015625)"/>
      <use xlink:href="#DejaVuSans-53" transform="translate(158.789062 0.015625)"/>
      <use xlink:href="#DejaVuSans-74" transform="translate(222.265625 0.015625)"/>
      <use xlink:href="#DejaVuSans-61" transform="translate(261.474609 0.015625)"/>
      <use xlink:href="#DejaVuSans-6e" transform="translate(322.753906 0.015625)"/>
      <use xlink:href="#DejaVuSans-64" transform="translate(386.132812 0.015625)"/>
      <use xlink:href="#DejaVuSans-61" transform="translate(449.609375 0.015625)"/>
      <use xlink:href="#DejaVuSans-72" transform="translate(510.888672 0.015625)"/>
      <use xlink:href="#DejaVuSans-64" transform="translate(552.001953 0.015625)"/>
     </g>
    </g>
    <g id="line2d_35">
     <path d="M 73.658389 228.148312 
L 83.658389 228.148312 
L 93.658389 228.148312 
" style="fill: none; stroke-dasharray: 1.5,2.475; stroke-dashoffset: 0; stroke: #000000; stroke-width: 1.5"/>
    </g>
    <g id="text_13">
     <!-- Input -->
     <g transform="translate(101.658389 231.648312) scale(0.1 -0.1)">
      <defs>
       <path id="DejaVuSans-49" d="M 628 4666 
L 1259 4666 
L 1259 0 
L 628 0 
L 628 4666 
z
" transform="scale(0.015625)"/>
       <path id="DejaVuSans-70" d="M 1159 525 
L 1159 -1331 
L 581 -1331 
L 581 3500 
L 1159 3500 
L 1159 2969 
Q 1341 3281 1617 3432 
Q 1894 3584 2278 3584 
Q 2916 3584 3314 3078 
Q 3713 2572 3713 1747 
Q 3713 922 3314 415 
Q 2916 -91 2278 -91 
Q 1894 -91 1617 61 
Q 1341 213 1159 525 
z
M 3116 1747 
Q 3116 2381 2855 2742 
Q 2594 3103 2138 3103 
Q 1681 3103 1420 2742 
Q 1159 2381 1159 1747 
Q 1159 1113 1420 752 
Q 1681 391 2138 391 
Q 2594 391 2855 752 
Q 3116 1113 3116 1747 
z
" transform="scale(0.015625)"/>
      </defs>
      <use xlink:href="#DejaVuSans-49"/>
      <use xlink:href="#DejaVuSans-6e" x="29.492188"/>
      <use xlink:href="#DejaVuSans-70" x="92.871094"/>
      <use xlink:href="#DejaVuSans-75" x="156.347656"/>
      <use xlink:href="#DejaVuSans-74" x="219.726562"/>
     </g>
    </g>
   </g>
  </g>
 </g>
 <defs>
  <clipPath id="pdc87f95ab6">
   <rect x="64.658389" y="16.416" width="356.541611" height="226.312"/>
  </clipPath>
 </defs>
</svg>
