<?xml version="1.0" encoding="utf-8" standalone="no"?>
<!DOCTYPE svg PUBLIC "-//W3C//DTD SVG 1.1//EN"
  "http://www.w3.org/Graphics/SVG/1.1/DTD/svg11.dtd">
<svg xmlns:xlink="http://www.w3.org/1999/xlink" width="432pt" height="288pt" viewBox="0 0 432 288" xmlns="http://www.w3.org/2000/svg" version="1.1">
 <metadata>
  <rdf:RDF xmlns:dc="http://purl.org/dc/elements/1.1/" xmlns:cc="http://creativecommons.org/ns#" xmlns:rdf="http://www.w3.org/1999/02/22-rdf-syntax-ns#">
   <cc:Work>
    <dc:type rdf:resource="http://purl.org/dc/dcmitype/StillImage"/>
    <dc:date>2023-03-03T15:47:28.638588</dc:date>
    <dc:format>image/svg+xml</dc:format>
    <dc:creator>
     <cc:Agent>
      <dc:title>Matplotlib v3.6.2, https://matplotlib.org/</dc:title>
     </cc:Agent>
    </dc:creator>
   </cc:Work>
  </rdf:RDF>
 </metadata>
 <defs>
  <style type="text/css">*{stroke-linejoin: round; stroke-linecap: butt}</style>
 </defs>
 <g id="figure_1">
  <g id="patch_1">
   <path d="M 0 288 
L 432 288 
L 432 0 
L 0 0 
z
" style="fill: #ffffff"/>
  </g>
  <g id="axes_1">
   <g id="patch_2">
    <path d="M 60.468889 242.728 
L 421.2 242.728 
L 421.2 10.8 
L 60.468889 10.8 
z
" style="fill: #ffffff"/>
   </g>
   <g id="PolyCollection_1">
    <path d="M 78.477357 21.342182 
L 78.477357 40.470284 
L 81.700555 40.569969 
L 84.923754 40.671946 
L 88.146952 40.776318 
L 91.37015 40.883197 
L 94.593348 40.992697 
L 97.816546 41.104942 
L 101.039745 41.220062 
L 104.262943 41.338193 
L 107.486141 41.459479 
L 110.709339 41.584075 
L 113.932538 41.71214 
L 117.155736 41.843846 
L 120.378934 41.979372 
L 123.602132 42.118909 
L 126.825331 42.262659 
L 130.048529 42.410834 
L 133.271727 42.563658 
L 136.494925 42.72137 
L 139.718123 42.884221 
L 142.941322 43.052477 
L 146.16452 43.226418 
L 149.387718 43.406342 
L 152.610916 43.592563 
L 155.834115 43.785415 
L 159.057313 43.985249 
L 162.280511 44.192437 
L 165.503709 44.407375 
L 168.726907 44.63048 
L 171.950106 44.862194 
L 175.173304 45.102985 
L 178.396502 45.35335 
L 181.6197 45.613815 
L 184.842899 45.884936 
L 188.066097 46.167305 
L 191.289295 46.461547 
L 194.512493 46.768328 
L 197.735691 47.088352 
L 200.95889 47.422367 
L 204.182088 47.771168 
L 207.405286 48.135598 
L 210.628484 48.516553 
L 213.851683 48.914985 
L 217.074881 49.331907 
L 220.298079 49.768395 
L 223.521277 50.225594 
L 226.744476 50.704724 
L 229.967674 51.207083 
L 233.190872 51.734053 
L 236.41407 52.287109 
L 239.637268 52.867823 
L 242.860467 53.477871 
L 246.083665 54.119044 
L 249.306863 54.793254 
L 252.530061 55.502544 
L 255.75326 56.249098 
L 258.976458 57.035255 
L 262.199656 57.863517 
L 265.422854 58.736566 
L 268.646052 59.657274 
L 271.869251 60.628725 
L 275.092449 61.654228 
L 278.315647 62.737337 
L 281.538845 63.881872 
L 284.762044 65.091943 
L 287.985242 66.37197 
L 291.20844 67.726718 
L 294.431638 69.161316 
L 297.654836 70.6813 
L 300.878035 72.29264 
L 304.101233 74.00178 
L 307.324431 75.81568 
L 310.547629 77.741863 
L 313.770828 79.788461 
L 316.994026 81.964271 
L 320.217224 84.278817 
L 323.440422 86.742417 
L 326.663621 89.366264 
L 329.886819 92.162516 
L 333.110017 95.14441 
L 336.333215 98.326401 
L 339.556413 101.724333 
L 342.779612 105.355667 
L 346.00281 109.239781 
L 349.226008 113.398375 
L 352.449206 117.856027 
L 355.672405 122.64098 
L 358.895603 127.786267 
L 362.118801 133.331383 
L 365.341999 139.32483 
L 368.565197 145.828163 
L 371.788396 152.922748 
L 375.011594 160.721755 
L 378.234792 169.393197 
L 381.45799 179.209115 
L 384.681189 190.667424 
L 387.904387 204.871961 
L 391.127585 225.357961 
L 394.350783 45194.737708 
L 397.573981 45194.737708 
L 397.573981 167.723339 
L 397.573981 167.723339 
L 394.350783 160.317561 
L 391.127585 153.309576 
L 387.904387 146.676398 
L 384.681189 140.396283 
L 381.45799 134.448678 
L 378.234792 128.814173 
L 375.011594 123.474459 
L 371.788396 118.412293 
L 368.565197 113.611459 
L 365.341999 109.056735 
L 362.118801 104.733859 
L 358.895603 100.629494 
L 355.672405 96.731193 
L 352.449206 93.027361 
L 349.226008 89.507209 
L 346.00281 86.160714 
L 342.779612 82.978563 
L 339.556413 79.952106 
L 336.333215 77.0733 
L 333.110017 74.334656 
L 329.886819 71.729184 
L 326.663621 69.250346 
L 323.440422 66.892004 
L 320.217224 64.648381 
L 316.994026 62.514021 
L 313.770828 60.483756 
L 310.547629 58.552678 
L 307.324431 56.716117 
L 304.101233 54.969617 
L 300.878035 53.308922 
L 297.654836 51.729966 
L 294.431638 50.228855 
L 291.20844 48.801864 
L 287.985242 47.445426 
L 284.762044 46.156128 
L 281.538845 44.9307 
L 278.315647 43.766018 
L 275.092449 42.65909 
L 271.869251 41.607059 
L 268.646052 40.607193 
L 265.422854 39.656885 
L 262.199656 38.753644 
L 258.976458 37.895097 
L 255.75326 37.078978 
L 252.530061 36.30313 
L 249.306863 35.565496 
L 246.083665 34.86412 
L 242.860467 34.197136 
L 239.637268 33.562773 
L 236.41407 32.959344 
L 233.190872 32.385245 
L 229.967674 31.838952 
L 226.744476 31.319016 
L 223.521277 30.824062 
L 220.298079 30.352782 
L 217.074881 29.903934 
L 213.851683 29.476342 
L 210.628484 29.068886 
L 207.405286 28.680504 
L 204.182088 28.31019 
L 200.95889 27.956988 
L 197.735691 27.619991 
L 194.512493 27.298339 
L 191.289295 26.991218 
L 188.066097 26.697853 
L 184.842899 26.417513 
L 181.6197 26.1495 
L 178.396502 25.893158 
L 175.173304 25.647861 
L 171.950106 25.413017 
L 168.726907 25.188065 
L 165.503709 24.972473 
L 162.280511 24.765738 
L 159.057313 24.567383 
L 155.834115 24.376954 
L 152.610916 24.194023 
L 149.387718 24.018183 
L 146.16452 23.849052 
L 142.941322 23.686263 
L 139.718123 23.529471 
L 136.494925 23.37835 
L 133.271727 23.232589 
L 130.048529 23.091896 
L 126.825331 22.955992 
L 123.602132 22.824614 
L 120.378934 22.697513 
L 117.155736 22.574452 
L 113.932538 22.455208 
L 110.709339 22.339569 
L 107.486141 22.227335 
L 104.262943 22.118315 
L 101.039745 22.01233 
L 97.816546 21.90921 
L 94.593348 21.808792 
L 91.37015 21.710925 
L 88.146952 21.615464 
L 84.923754 21.522272 
L 81.700555 21.431219 
L 78.477357 21.342182 
z
" clip-path="url(#p6e41c8d2f1)" style="fill: #008000; fill-opacity: 0.5"/>
   </g>
   <g id="PolyCollection_2">
    <path d="M 78.477357 27.954404 
L 78.477357 29.442514 
L 81.700555 29.500851 
L 84.923754 29.562493 
L 88.146952 29.627669 
L 91.37015 29.696628 
L 94.593348 29.769637 
L 97.816546 29.846984 
L 101.039745 29.928974 
L 104.262943 30.015928 
L 107.486141 30.108177 
L 110.709339 30.206059 
L 113.932538 30.309905 
L 117.155736 30.420036 
L 120.378934 30.536746 
L 123.602132 30.660296 
L 126.825331 30.790903 
L 130.048529 30.92874 
L 133.271727 31.073937 
L 136.494925 31.226588 
L 139.718123 31.386759 
L 142.941322 31.554506 
L 146.16452 31.729887 
L 149.387718 31.912971 
L 152.610916 32.103854 
L 155.834115 32.302662 
L 159.057313 32.50956 
L 162.280511 32.724751 
L 165.503709 32.948486 
L 168.726907 33.181057 
L 171.950106 33.422807 
L 175.173304 33.674122 
L 178.396502 33.93544 
L 181.6197 34.207248 
L 184.842899 34.490086 
L 188.066097 34.78455 
L 191.289295 35.091291 
L 194.512493 35.411027 
L 197.735691 35.744538 
L 200.95889 36.092681 
L 204.182088 36.456386 
L 207.405286 36.836674 
L 210.628484 37.234655 
L 213.851683 37.651541 
L 217.074881 38.088654 
L 220.298079 38.547433 
L 223.521277 39.029442 
L 226.744476 39.536379 
L 229.967674 40.070075 
L 233.190872 40.632501 
L 236.41407 41.225767 
L 239.637268 41.852114 
L 242.860467 42.513908 
L 246.083665 43.213632 
L 249.306863 43.953879 
L 252.530061 44.737339 
L 255.75326 45.566801 
L 258.976458 46.445149 
L 262.199656 47.375373 
L 265.422854 48.360577 
L 268.646052 49.403998 
L 271.869251 50.509023 
L 275.092449 51.679214 
L 278.315647 52.91833 
L 281.538845 54.230351 
L 284.762044 55.619502 
L 287.985242 57.090285 
L 291.20844 58.647497 
L 294.431638 60.296266 
L 297.654836 62.042081 
L 300.878035 63.890822 
L 304.101233 65.848802 
L 307.324431 67.922806 
L 310.547629 70.120143 
L 313.770828 72.448703 
L 316.994026 74.91702 
L 320.217224 77.53435 
L 323.440422 80.310771 
L 326.663621 83.257292 
L 329.886819 86.385993 
L 333.110017 89.710205 
L 336.333215 93.24473 
L 339.556413 97.006126 
L 342.779612 101.013085 
L 346.00281 105.286939 
L 349.226008 109.852348 
L 352.449206 114.738278 
L 355.672405 119.979401 
L 358.895603 125.618211 
L 362.118801 131.708294 
L 365.341999 138.319674 
L 368.565197 145.548022 
L 371.788396 153.531704 
L 375.011594 162.486382 
L 378.234792 172.784721 
L 381.45799 185.177714 
L 384.681189 201.637193 
L 387.904387 232.185818 
L 391.127585 45194.737708 
L 394.350783 45194.737708 
L 397.573981 45194.737708 
L 397.573981 166.549701 
L 397.573981 166.549701 
L 394.350783 159.240442 
L 391.127585 152.336194 
L 387.904387 145.81439 
L 384.681189 139.653678 
L 381.45799 133.833855 
L 378.234792 128.335812 
L 375.011594 123.141473 
L 371.788396 118.233746 
L 368.565197 113.596471 
L 365.341999 109.214369 
L 362.118801 105.073001 
L 358.895603 101.158722 
L 355.672405 97.458641 
L 352.449206 93.960579 
L 349.226008 90.653034 
L 346.00281 87.525145 
L 342.779612 84.566658 
L 339.556413 81.767891 
L 336.333215 79.119709 
L 333.110017 76.613488 
L 329.886819 74.241093 
L 326.663621 71.994847 
L 323.440422 69.867506 
L 320.217224 67.852237 
L 316.994026 65.942594 
L 313.770828 64.132496 
L 310.547629 62.416205 
L 307.324431 60.788309 
L 304.101233 59.243699 
L 300.878035 57.777557 
L 297.654836 56.385333 
L 294.431638 55.062736 
L 291.20844 53.805714 
L 287.985242 52.610445 
L 284.762044 51.473322 
L 281.538845 50.390946 
L 278.315647 49.360113 
L 275.092449 48.377813 
L 271.869251 47.441217 
L 268.646052 46.547681 
L 265.422854 45.69474 
L 262.199656 44.880107 
L 258.976458 44.101674 
L 255.75326 43.357513 
L 252.530061 42.645867 
L 249.306863 41.965148 
L 246.083665 41.313929 
L 242.860467 40.690922 
L 239.637268 40.094967 
L 236.41407 39.525008 
L 233.190872 38.980071 
L 229.967674 38.459243 
L 226.744476 37.961657 
L 223.521277 37.486472 
L 220.298079 37.032867 
L 217.074881 36.60003 
L 213.851683 36.187158 
L 210.628484 35.793453 
L 207.405286 35.418122 
L 204.182088 35.060378 
L 200.95889 34.719444 
L 197.735691 34.394555 
L 194.512493 34.084954 
L 191.289295 33.789903 
L 188.066097 33.508674 
L 184.842899 33.240556 
L 181.6197 32.984855 
L 178.396502 32.74089 
L 175.173304 32.507994 
L 171.950106 32.285513 
L 168.726907 32.072805 
L 165.503709 31.869236 
L 162.280511 31.674182 
L 159.057313 31.487021 
L 155.834115 31.307139 
L 152.610916 31.133921 
L 149.387718 30.966757 
L 146.16452 30.805041 
L 142.941322 30.648174 
L 139.718123 30.49557 
L 136.494925 30.346665 
L 133.271727 30.200926 
L 130.048529 30.057865 
L 126.825331 29.917048 
L 123.602132 29.778106 
L 120.378934 29.64074 
L 117.155736 29.504721 
L 113.932538 29.369886 
L 110.709339 29.236129 
L 107.486141 29.103391 
L 104.262943 28.971647 
L 101.039745 28.840892 
L 97.816546 28.711136 
L 94.593348 28.582397 
L 91.37015 28.454691 
L 88.146952 28.328032 
L 84.923754 28.202429 
L 81.700555 28.077887 
L 78.477357 27.954404 
z
" clip-path="url(#p6e41c8d2f1)" style="fill: #ff0000; fill-opacity: 0.6"/>
   </g>
   <g id="matplotlib.axis_1">
    <g id="xtick_1">
     <g id="line2d_1">
      <defs>
       <path id="m1f6dc471d8" d="M 0 0 
L 0 3.5 
" style="stroke: #000000; stroke-width: 0.8"/>
      </defs>
      <g>
       <use xlink:href="#m1f6dc471d8" x="136.240462" y="242.728" style="stroke: #000000; stroke-width: 0.8"/>
      </g>
     </g>
     <g id="text_1">
      <!-- $\mathdefault{10^{0}}$ -->
      <g transform="translate(127.440462 257.326437) scale(0.1 -0.1)">
       <defs>
        <path id="DejaVuSans-31" d="M 794 531 
L 1825 531 
L 1825 4091 
L 703 3866 
L 703 4441 
L 1819 4666 
L 2450 4666 
L 2450 531 
L 3481 531 
L 3481 0 
L 794 0 
L 794 531 
z
" transform="scale(0.015625)"/>
        <path id="DejaVuSans-30" d="M 2034 4250 
Q 1547 4250 1301 3770 
Q 1056 3291 1056 2328 
Q 1056 1369 1301 889 
Q 1547 409 2034 409 
Q 2525 409 2770 889 
Q 3016 1369 3016 2328 
Q 3016 3291 2770 3770 
Q 2525 4250 2034 4250 
z
M 2034 4750 
Q 2819 4750 3233 4129 
Q 3647 3509 3647 2328 
Q 3647 1150 3233 529 
Q 2819 -91 2034 -91 
Q 1250 -91 836 529 
Q 422 1150 422 2328 
Q 422 3509 836 4129 
Q 1250 4750 2034 4750 
z
" transform="scale(0.015625)"/>
       </defs>
       <use xlink:href="#DejaVuSans-31" transform="translate(0 0.765625)"/>
       <use xlink:href="#DejaVuSans-30" transform="translate(63.623047 0.765625)"/>
       <use xlink:href="#DejaVuSans-30" transform="translate(128.203125 39.046875) scale(0.7)"/>
      </g>
     </g>
    </g>
    <g id="xtick_2">
     <g id="line2d_2">
      <g>
       <use xlink:href="#m1f6dc471d8" x="271.954072" y="242.728" style="stroke: #000000; stroke-width: 0.8"/>
      </g>
     </g>
     <g id="text_2">
      <!-- $\mathdefault{10^{1}}$ -->
      <g transform="translate(263.154072 257.326437) scale(0.1 -0.1)">
       <use xlink:href="#DejaVuSans-31" transform="translate(0 0.684375)"/>
       <use xlink:href="#DejaVuSans-30" transform="translate(63.623047 0.684375)"/>
       <use xlink:href="#DejaVuSans-31" transform="translate(128.203125 38.965625) scale(0.7)"/>
      </g>
     </g>
    </g>
    <g id="xtick_3">
     <g id="line2d_3">
      <g>
       <use xlink:href="#m1f6dc471d8" x="407.667682" y="242.728" style="stroke: #000000; stroke-width: 0.8"/>
      </g>
     </g>
     <g id="text_3">
      <!-- $\mathdefault{10^{2}}$ -->
      <g transform="translate(398.867682 257.326437) scale(0.1 -0.1)">
       <defs>
        <path id="DejaVuSans-32" d="M 1228 531 
L 3431 531 
L 3431 0 
L 469 0 
L 469 531 
Q 828 903 1448 1529 
Q 2069 2156 2228 2338 
Q 2531 2678 2651 2914 
Q 2772 3150 2772 3378 
Q 2772 3750 2511 3984 
Q 2250 4219 1831 4219 
Q 1534 4219 1204 4116 
Q 875 4013 500 3803 
L 500 4441 
Q 881 4594 1212 4672 
Q 1544 4750 1819 4750 
Q 2544 4750 2975 4387 
Q 3406 4025 3406 3419 
Q 3406 3131 3298 2873 
Q 3191 2616 2906 2266 
Q 2828 2175 2409 1742 
Q 1991 1309 1228 531 
z
" transform="scale(0.015625)"/>
       </defs>
       <use xlink:href="#DejaVuSans-31" transform="translate(0 0.765625)"/>
       <use xlink:href="#DejaVuSans-30" transform="translate(63.623047 0.765625)"/>
       <use xlink:href="#DejaVuSans-32" transform="translate(128.203125 39.046875) scale(0.7)"/>
      </g>
     </g>
    </g>
    <g id="xtick_4">
     <g id="line2d_4">
      <defs>
       <path id="m4c8acac29b" d="M 0 0 
L 0 2 
" style="stroke: #000000; stroke-width: 0.6"/>
      </defs>
      <g>
       <use xlink:href="#m4c8acac29b" x="65.2787" y="242.728" style="stroke: #000000; stroke-width: 0.6"/>
      </g>
     </g>
    </g>
    <g id="xtick_5">
     <g id="line2d_5">
      <g>
       <use xlink:href="#m4c8acac29b" x="82.234587" y="242.728" style="stroke: #000000; stroke-width: 0.6"/>
      </g>
     </g>
    </g>
    <g id="xtick_6">
     <g id="line2d_6">
      <g>
       <use xlink:href="#m4c8acac29b" x="95.386594" y="242.728" style="stroke: #000000; stroke-width: 0.6"/>
      </g>
     </g>
    </g>
    <g id="xtick_7">
     <g id="line2d_7">
      <g>
       <use xlink:href="#m4c8acac29b" x="106.132567" y="242.728" style="stroke: #000000; stroke-width: 0.6"/>
      </g>
     </g>
    </g>
    <g id="xtick_8">
     <g id="line2d_8">
      <g>
       <use xlink:href="#m4c8acac29b" x="115.218158" y="242.728" style="stroke: #000000; stroke-width: 0.6"/>
      </g>
     </g>
    </g>
    <g id="xtick_9">
     <g id="line2d_9">
      <g>
       <use xlink:href="#m4c8acac29b" x="123.088454" y="242.728" style="stroke: #000000; stroke-width: 0.6"/>
      </g>
     </g>
    </g>
    <g id="xtick_10">
     <g id="line2d_10">
      <g>
       <use xlink:href="#m4c8acac29b" x="130.030548" y="242.728" style="stroke: #000000; stroke-width: 0.6"/>
      </g>
     </g>
    </g>
    <g id="xtick_11">
     <g id="line2d_11">
      <g>
       <use xlink:href="#m4c8acac29b" x="177.094329" y="242.728" style="stroke: #000000; stroke-width: 0.6"/>
      </g>
     </g>
    </g>
    <g id="xtick_12">
     <g id="line2d_12">
      <g>
       <use xlink:href="#m4c8acac29b" x="200.99231" y="242.728" style="stroke: #000000; stroke-width: 0.6"/>
      </g>
     </g>
    </g>
    <g id="xtick_13">
     <g id="line2d_13">
      <g>
       <use xlink:href="#m4c8acac29b" x="217.948197" y="242.728" style="stroke: #000000; stroke-width: 0.6"/>
      </g>
     </g>
    </g>
    <g id="xtick_14">
     <g id="line2d_14">
      <g>
       <use xlink:href="#m4c8acac29b" x="231.100205" y="242.728" style="stroke: #000000; stroke-width: 0.6"/>
      </g>
     </g>
    </g>
    <g id="xtick_15">
     <g id="line2d_15">
      <g>
       <use xlink:href="#m4c8acac29b" x="241.846177" y="242.728" style="stroke: #000000; stroke-width: 0.6"/>
      </g>
     </g>
    </g>
    <g id="xtick_16">
     <g id="line2d_16">
      <g>
       <use xlink:href="#m4c8acac29b" x="250.931768" y="242.728" style="stroke: #000000; stroke-width: 0.6"/>
      </g>
     </g>
    </g>
    <g id="xtick_17">
     <g id="line2d_17">
      <g>
       <use xlink:href="#m4c8acac29b" x="258.802064" y="242.728" style="stroke: #000000; stroke-width: 0.6"/>
      </g>
     </g>
    </g>
    <g id="xtick_18">
     <g id="line2d_18">
      <g>
       <use xlink:href="#m4c8acac29b" x="265.744158" y="242.728" style="stroke: #000000; stroke-width: 0.6"/>
      </g>
     </g>
    </g>
    <g id="xtick_19">
     <g id="line2d_19">
      <g>
       <use xlink:href="#m4c8acac29b" x="312.80794" y="242.728" style="stroke: #000000; stroke-width: 0.6"/>
      </g>
     </g>
    </g>
    <g id="xtick_20">
     <g id="line2d_20">
      <g>
       <use xlink:href="#m4c8acac29b" x="336.70592" y="242.728" style="stroke: #000000; stroke-width: 0.6"/>
      </g>
     </g>
    </g>
    <g id="xtick_21">
     <g id="line2d_21">
      <g>
       <use xlink:href="#m4c8acac29b" x="353.661807" y="242.728" style="stroke: #000000; stroke-width: 0.6"/>
      </g>
     </g>
    </g>
    <g id="xtick_22">
     <g id="line2d_22">
      <g>
       <use xlink:href="#m4c8acac29b" x="366.813815" y="242.728" style="stroke: #000000; stroke-width: 0.6"/>
      </g>
     </g>
    </g>
    <g id="xtick_23">
     <g id="line2d_23">
      <g>
       <use xlink:href="#m4c8acac29b" x="377.559788" y="242.728" style="stroke: #000000; stroke-width: 0.6"/>
      </g>
     </g>
    </g>
    <g id="xtick_24">
     <g id="line2d_24">
      <g>
       <use xlink:href="#m4c8acac29b" x="386.645378" y="242.728" style="stroke: #000000; stroke-width: 0.6"/>
      </g>
     </g>
    </g>
    <g id="xtick_25">
     <g id="line2d_25">
      <g>
       <use xlink:href="#m4c8acac29b" x="394.515675" y="242.728" style="stroke: #000000; stroke-width: 0.6"/>
      </g>
     </g>
    </g>
    <g id="xtick_26">
     <g id="line2d_26">
      <g>
       <use xlink:href="#m4c8acac29b" x="401.457768" y="242.728" style="stroke: #000000; stroke-width: 0.6"/>
      </g>
     </g>
    </g>
    <g id="text_4">
     <!-- Energy [TeV] -->
     <g transform="translate(209.136788 271.004562) scale(0.1 -0.1)">
      <defs>
       <path id="DejaVuSans-45" d="M 628 4666 
L 3578 4666 
L 3578 4134 
L 1259 4134 
L 1259 2753 
L 3481 2753 
L 3481 2222 
L 1259 2222 
L 1259 531 
L 3634 531 
L 3634 0 
L 628 0 
L 628 4666 
z
" transform="scale(0.015625)"/>
       <path id="DejaVuSans-6e" d="M 3513 2113 
L 3513 0 
L 2938 0 
L 2938 2094 
Q 2938 2591 2744 2837 
Q 2550 3084 2163 3084 
Q 1697 3084 1428 2787 
Q 1159 2491 1159 1978 
L 1159 0 
L 581 0 
L 581 3500 
L 1159 3500 
L 1159 2956 
Q 1366 3272 1645 3428 
Q 1925 3584 2291 3584 
Q 2894 3584 3203 3211 
Q 3513 2838 3513 2113 
z
" transform="scale(0.015625)"/>
       <path id="DejaVuSans-65" d="M 3597 1894 
L 3597 1613 
L 953 1613 
Q 991 1019 1311 708 
Q 1631 397 2203 397 
Q 2534 397 2845 478 
Q 3156 559 3463 722 
L 3463 178 
Q 3153 47 2828 -22 
Q 2503 -91 2169 -91 
Q 1331 -91 842 396 
Q 353 884 353 1716 
Q 353 2575 817 3079 
Q 1281 3584 2069 3584 
Q 2775 3584 3186 3129 
Q 3597 2675 3597 1894 
z
M 3022 2063 
Q 3016 2534 2758 2815 
Q 2500 3097 2075 3097 
Q 1594 3097 1305 2825 
Q 1016 2553 972 2059 
L 3022 2063 
z
" transform="scale(0.015625)"/>
       <path id="DejaVuSans-72" d="M 2631 2963 
Q 2534 3019 2420 3045 
Q 2306 3072 2169 3072 
Q 1681 3072 1420 2755 
Q 1159 2438 1159 1844 
L 1159 0 
L 581 0 
L 581 3500 
L 1159 3500 
L 1159 2956 
Q 1341 3275 1631 3429 
Q 1922 3584 2338 3584 
Q 2397 3584 2469 3576 
Q 2541 3569 2628 3553 
L 2631 2963 
z
" transform="scale(0.015625)"/>
       <path id="DejaVuSans-67" d="M 2906 1791 
Q 2906 2416 2648 2759 
Q 2391 3103 1925 3103 
Q 1463 3103 1205 2759 
Q 947 2416 947 1791 
Q 947 1169 1205 825 
Q 1463 481 1925 481 
Q 2391 481 2648 825 
Q 2906 1169 2906 1791 
z
M 3481 434 
Q 3481 -459 3084 -895 
Q 2688 -1331 1869 -1331 
Q 1566 -1331 1297 -1286 
Q 1028 -1241 775 -1147 
L 775 -588 
Q 1028 -725 1275 -790 
Q 1522 -856 1778 -856 
Q 2344 -856 2625 -561 
Q 2906 -266 2906 331 
L 2906 616 
Q 2728 306 2450 153 
Q 2172 0 1784 0 
Q 1141 0 747 490 
Q 353 981 353 1791 
Q 353 2603 747 3093 
Q 1141 3584 1784 3584 
Q 2172 3584 2450 3431 
Q 2728 3278 2906 2969 
L 2906 3500 
L 3481 3500 
L 3481 434 
z
" transform="scale(0.015625)"/>
       <path id="DejaVuSans-79" d="M 2059 -325 
Q 1816 -950 1584 -1140 
Q 1353 -1331 966 -1331 
L 506 -1331 
L 506 -850 
L 844 -850 
Q 1081 -850 1212 -737 
Q 1344 -625 1503 -206 
L 1606 56 
L 191 3500 
L 800 3500 
L 1894 763 
L 2988 3500 
L 3597 3500 
L 2059 -325 
z
" transform="scale(0.015625)"/>
       <path id="DejaVuSans-20" transform="scale(0.015625)"/>
       <path id="DejaVuSans-5b" d="M 550 4863 
L 1875 4863 
L 1875 4416 
L 1125 4416 
L 1125 -397 
L 1875 -397 
L 1875 -844 
L 550 -844 
L 550 4863 
z
" transform="scale(0.015625)"/>
       <path id="DejaVuSans-54" d="M -19 4666 
L 3928 4666 
L 3928 4134 
L 2272 4134 
L 2272 0 
L 1638 0 
L 1638 4134 
L -19 4134 
L -19 4666 
z
" transform="scale(0.015625)"/>
       <path id="DejaVuSans-56" d="M 1831 0 
L 50 4666 
L 709 4666 
L 2188 738 
L 3669 4666 
L 4325 4666 
L 2547 0 
L 1831 0 
z
" transform="scale(0.015625)"/>
       <path id="DejaVuSans-5d" d="M 1947 4863 
L 1947 -844 
L 622 -844 
L 622 -397 
L 1369 -397 
L 1369 4416 
L 622 4416 
L 622 4863 
L 1947 4863 
z
" transform="scale(0.015625)"/>
      </defs>
      <use xlink:href="#DejaVuSans-45"/>
      <use xlink:href="#DejaVuSans-6e" x="63.183594"/>
      <use xlink:href="#DejaVuSans-65" x="126.5625"/>
      <use xlink:href="#DejaVuSans-72" x="188.085938"/>
      <use xlink:href="#DejaVuSans-67" x="227.449219"/>
      <use xlink:href="#DejaVuSans-79" x="290.925781"/>
      <use xlink:href="#DejaVuSans-20" x="350.105469"/>
      <use xlink:href="#DejaVuSans-5b" x="381.892578"/>
      <use xlink:href="#DejaVuSans-54" x="420.90625"/>
      <use xlink:href="#DejaVuSans-65" x="464.990234"/>
      <use xlink:href="#DejaVuSans-56" x="526.513672"/>
      <use xlink:href="#DejaVuSans-5d" x="594.921875"/>
     </g>
    </g>
   </g>
   <g id="matplotlib.axis_2">
    <g id="ytick_1">
     <g id="line2d_27">
      <defs>
       <path id="m62782b238d" d="M 0 0 
L -3.5 0 
" style="stroke: #000000; stroke-width: 0.8"/>
      </defs>
      <g>
       <use xlink:href="#m62782b238d" x="60.468889" y="231.991944" style="stroke: #000000; stroke-width: 0.8"/>
      </g>
     </g>
     <g id="text_5">
      <!-- $\mathdefault{10^{-16}}$ -->
      <g transform="translate(25.568889 235.791163) scale(0.1 -0.1)">
       <defs>
        <path id="DejaVuSans-2212" d="M 678 2272 
L 4684 2272 
L 4684 1741 
L 678 1741 
L 678 2272 
z
" transform="scale(0.015625)"/>
        <path id="DejaVuSans-36" d="M 2113 2584 
Q 1688 2584 1439 2293 
Q 1191 2003 1191 1497 
Q 1191 994 1439 701 
Q 1688 409 2113 409 
Q 2538 409 2786 701 
Q 3034 994 3034 1497 
Q 3034 2003 2786 2293 
Q 2538 2584 2113 2584 
z
M 3366 4563 
L 3366 3988 
Q 3128 4100 2886 4159 
Q 2644 4219 2406 4219 
Q 1781 4219 1451 3797 
Q 1122 3375 1075 2522 
Q 1259 2794 1537 2939 
Q 1816 3084 2150 3084 
Q 2853 3084 3261 2657 
Q 3669 2231 3669 1497 
Q 3669 778 3244 343 
Q 2819 -91 2113 -91 
Q 1303 -91 875 529 
Q 447 1150 447 2328 
Q 447 3434 972 4092 
Q 1497 4750 2381 4750 
Q 2619 4750 2861 4703 
Q 3103 4656 3366 4563 
z
" transform="scale(0.015625)"/>
       </defs>
       <use xlink:href="#DejaVuSans-31" transform="translate(0 0.765625)"/>
       <use xlink:href="#DejaVuSans-30" transform="translate(63.623047 0.765625)"/>
       <use xlink:href="#DejaVuSans-2212" transform="translate(128.203125 39.046875) scale(0.7)"/>
       <use xlink:href="#DejaVuSans-31" transform="translate(186.855469 39.046875) scale(0.7)"/>
       <use xlink:href="#DejaVuSans-36" transform="translate(231.391602 39.046875) scale(0.7)"/>
      </g>
     </g>
    </g>
    <g id="ytick_2">
     <g id="line2d_28">
      <g>
       <use xlink:href="#m62782b238d" x="60.468889" y="186.298097" style="stroke: #000000; stroke-width: 0.8"/>
      </g>
     </g>
     <g id="text_6">
      <!-- $\mathdefault{10^{-15}}$ -->
      <g transform="translate(25.568889 190.097315) scale(0.1 -0.1)">
       <defs>
        <path id="DejaVuSans-35" d="M 691 4666 
L 3169 4666 
L 3169 4134 
L 1269 4134 
L 1269 2991 
Q 1406 3038 1543 3061 
Q 1681 3084 1819 3084 
Q 2600 3084 3056 2656 
Q 3513 2228 3513 1497 
Q 3513 744 3044 326 
Q 2575 -91 1722 -91 
Q 1428 -91 1123 -41 
Q 819 9 494 109 
L 494 744 
Q 775 591 1075 516 
Q 1375 441 1709 441 
Q 2250 441 2565 725 
Q 2881 1009 2881 1497 
Q 2881 1984 2565 2268 
Q 2250 2553 1709 2553 
Q 1456 2553 1204 2497 
Q 953 2441 691 2322 
L 691 4666 
z
" transform="scale(0.015625)"/>
       </defs>
       <use xlink:href="#DejaVuSans-31" transform="translate(0 0.684375)"/>
       <use xlink:href="#DejaVuSans-30" transform="translate(63.623047 0.684375)"/>
       <use xlink:href="#DejaVuSans-2212" transform="translate(128.203125 38.965625) scale(0.7)"/>
       <use xlink:href="#DejaVuSans-31" transform="translate(186.855469 38.965625) scale(0.7)"/>
       <use xlink:href="#DejaVuSans-35" transform="translate(231.391602 38.965625) scale(0.7)"/>
      </g>
     </g>
    </g>
    <g id="ytick_3">
     <g id="line2d_29">
      <g>
       <use xlink:href="#m62782b238d" x="60.468889" y="140.604249" style="stroke: #000000; stroke-width: 0.8"/>
      </g>
     </g>
     <g id="text_7">
      <!-- $\mathdefault{10^{-14}}$ -->
      <g transform="translate(25.568889 144.403468) scale(0.1 -0.1)">
       <defs>
        <path id="DejaVuSans-34" d="M 2419 4116 
L 825 1625 
L 2419 1625 
L 2419 4116 
z
M 2253 4666 
L 3047 4666 
L 3047 1625 
L 3713 1625 
L 3713 1100 
L 3047 1100 
L 3047 0 
L 2419 0 
L 2419 1100 
L 313 1100 
L 313 1709 
L 2253 4666 
z
" transform="scale(0.015625)"/>
       </defs>
       <use xlink:href="#DejaVuSans-31" transform="translate(0 0.684375)"/>
       <use xlink:href="#DejaVuSans-30" transform="translate(63.623047 0.684375)"/>
       <use xlink:href="#DejaVuSans-2212" transform="translate(128.203125 38.965625) scale(0.7)"/>
       <use xlink:href="#DejaVuSans-31" transform="translate(186.855469 38.965625) scale(0.7)"/>
       <use xlink:href="#DejaVuSans-34" transform="translate(231.391602 38.965625) scale(0.7)"/>
      </g>
     </g>
    </g>
    <g id="ytick_4">
     <g id="line2d_30">
      <g>
       <use xlink:href="#m62782b238d" x="60.468889" y="94.910402" style="stroke: #000000; stroke-width: 0.8"/>
      </g>
     </g>
     <g id="text_8">
      <!-- $\mathdefault{10^{-13}}$ -->
      <g transform="translate(25.568889 98.709621) scale(0.1 -0.1)">
       <defs>
        <path id="DejaVuSans-33" d="M 2597 2516 
Q 3050 2419 3304 2112 
Q 3559 1806 3559 1356 
Q 3559 666 3084 287 
Q 2609 -91 1734 -91 
Q 1441 -91 1130 -33 
Q 819 25 488 141 
L 488 750 
Q 750 597 1062 519 
Q 1375 441 1716 441 
Q 2309 441 2620 675 
Q 2931 909 2931 1356 
Q 2931 1769 2642 2001 
Q 2353 2234 1838 2234 
L 1294 2234 
L 1294 2753 
L 1863 2753 
Q 2328 2753 2575 2939 
Q 2822 3125 2822 3475 
Q 2822 3834 2567 4026 
Q 2313 4219 1838 4219 
Q 1578 4219 1281 4162 
Q 984 4106 628 3988 
L 628 4550 
Q 988 4650 1302 4700 
Q 1616 4750 1894 4750 
Q 2613 4750 3031 4423 
Q 3450 4097 3450 3541 
Q 3450 3153 3228 2886 
Q 3006 2619 2597 2516 
z
" transform="scale(0.015625)"/>
       </defs>
       <use xlink:href="#DejaVuSans-31" transform="translate(0 0.765625)"/>
       <use xlink:href="#DejaVuSans-30" transform="translate(63.623047 0.765625)"/>
       <use xlink:href="#DejaVuSans-2212" transform="translate(128.203125 39.046875) scale(0.7)"/>
       <use xlink:href="#DejaVuSans-31" transform="translate(186.855469 39.046875) scale(0.7)"/>
       <use xlink:href="#DejaVuSans-33" transform="translate(231.391602 39.046875) scale(0.7)"/>
      </g>
     </g>
    </g>
    <g id="ytick_5">
     <g id="line2d_31">
      <g>
       <use xlink:href="#m62782b238d" x="60.468889" y="49.216555" style="stroke: #000000; stroke-width: 0.8"/>
      </g>
     </g>
     <g id="text_9">
      <!-- $\mathdefault{10^{-12}}$ -->
      <g transform="translate(25.568889 53.015773) scale(0.1 -0.1)">
       <use xlink:href="#DejaVuSans-31" transform="translate(0 0.765625)"/>
       <use xlink:href="#DejaVuSans-30" transform="translate(63.623047 0.765625)"/>
       <use xlink:href="#DejaVuSans-2212" transform="translate(128.203125 39.046875) scale(0.7)"/>
       <use xlink:href="#DejaVuSans-31" transform="translate(186.855469 39.046875) scale(0.7)"/>
       <use xlink:href="#DejaVuSans-32" transform="translate(231.391602 39.046875) scale(0.7)"/>
      </g>
     </g>
    </g>
    <g id="ytick_6">
     <g id="line2d_32">
      <defs>
       <path id="md36a9426de" d="M 0 0 
L -2 0 
" style="stroke: #000000; stroke-width: 0.6"/>
      </defs>
      <g>
       <use xlink:href="#md36a9426de" x="60.468889" y="242.129067" style="stroke: #000000; stroke-width: 0.6"/>
      </g>
     </g>
    </g>
    <g id="ytick_7">
     <g id="line2d_33">
      <g>
       <use xlink:href="#md36a9426de" x="60.468889" y="239.07001" style="stroke: #000000; stroke-width: 0.6"/>
      </g>
     </g>
    </g>
    <g id="ytick_8">
     <g id="line2d_34">
      <g>
       <use xlink:href="#md36a9426de" x="60.468889" y="236.420135" style="stroke: #000000; stroke-width: 0.6"/>
      </g>
     </g>
    </g>
    <g id="ytick_9">
     <g id="line2d_35">
      <g>
       <use xlink:href="#md36a9426de" x="60.468889" y="234.08278" style="stroke: #000000; stroke-width: 0.6"/>
      </g>
     </g>
    </g>
    <g id="ytick_10">
     <g id="line2d_36">
      <g>
       <use xlink:href="#md36a9426de" x="60.468889" y="218.236725" style="stroke: #000000; stroke-width: 0.6"/>
      </g>
     </g>
    </g>
    <g id="ytick_11">
     <g id="line2d_37">
      <g>
       <use xlink:href="#md36a9426de" x="60.468889" y="210.190438" style="stroke: #000000; stroke-width: 0.6"/>
      </g>
     </g>
    </g>
    <g id="ytick_12">
     <g id="line2d_38">
      <g>
       <use xlink:href="#md36a9426de" x="60.468889" y="204.481507" style="stroke: #000000; stroke-width: 0.6"/>
      </g>
     </g>
    </g>
    <g id="ytick_13">
     <g id="line2d_39">
      <g>
       <use xlink:href="#md36a9426de" x="60.468889" y="200.053315" style="stroke: #000000; stroke-width: 0.6"/>
      </g>
     </g>
    </g>
    <g id="ytick_14">
     <g id="line2d_40">
      <g>
       <use xlink:href="#md36a9426de" x="60.468889" y="196.43522" style="stroke: #000000; stroke-width: 0.6"/>
      </g>
     </g>
    </g>
    <g id="ytick_15">
     <g id="line2d_41">
      <g>
       <use xlink:href="#md36a9426de" x="60.468889" y="193.376163" style="stroke: #000000; stroke-width: 0.6"/>
      </g>
     </g>
    </g>
    <g id="ytick_16">
     <g id="line2d_42">
      <g>
       <use xlink:href="#md36a9426de" x="60.468889" y="190.726288" style="stroke: #000000; stroke-width: 0.6"/>
      </g>
     </g>
    </g>
    <g id="ytick_17">
     <g id="line2d_43">
      <g>
       <use xlink:href="#md36a9426de" x="60.468889" y="188.388932" style="stroke: #000000; stroke-width: 0.6"/>
      </g>
     </g>
    </g>
    <g id="ytick_18">
     <g id="line2d_44">
      <g>
       <use xlink:href="#md36a9426de" x="60.468889" y="172.542878" style="stroke: #000000; stroke-width: 0.6"/>
      </g>
     </g>
    </g>
    <g id="ytick_19">
     <g id="line2d_45">
      <g>
       <use xlink:href="#md36a9426de" x="60.468889" y="164.496591" style="stroke: #000000; stroke-width: 0.6"/>
      </g>
     </g>
    </g>
    <g id="ytick_20">
     <g id="line2d_46">
      <g>
       <use xlink:href="#md36a9426de" x="60.468889" y="158.787659" style="stroke: #000000; stroke-width: 0.6"/>
      </g>
     </g>
    </g>
    <g id="ytick_21">
     <g id="line2d_47">
      <g>
       <use xlink:href="#md36a9426de" x="60.468889" y="154.359468" style="stroke: #000000; stroke-width: 0.6"/>
      </g>
     </g>
    </g>
    <g id="ytick_22">
     <g id="line2d_48">
      <g>
       <use xlink:href="#md36a9426de" x="60.468889" y="150.741372" style="stroke: #000000; stroke-width: 0.6"/>
      </g>
     </g>
    </g>
    <g id="ytick_23">
     <g id="line2d_49">
      <g>
       <use xlink:href="#md36a9426de" x="60.468889" y="147.682316" style="stroke: #000000; stroke-width: 0.6"/>
      </g>
     </g>
    </g>
    <g id="ytick_24">
     <g id="line2d_50">
      <g>
       <use xlink:href="#md36a9426de" x="60.468889" y="145.032441" style="stroke: #000000; stroke-width: 0.6"/>
      </g>
     </g>
    </g>
    <g id="ytick_25">
     <g id="line2d_51">
      <g>
       <use xlink:href="#md36a9426de" x="60.468889" y="142.695085" style="stroke: #000000; stroke-width: 0.6"/>
      </g>
     </g>
    </g>
    <g id="ytick_26">
     <g id="line2d_52">
      <g>
       <use xlink:href="#md36a9426de" x="60.468889" y="126.849031" style="stroke: #000000; stroke-width: 0.6"/>
      </g>
     </g>
    </g>
    <g id="ytick_27">
     <g id="line2d_53">
      <g>
       <use xlink:href="#md36a9426de" x="60.468889" y="118.802744" style="stroke: #000000; stroke-width: 0.6"/>
      </g>
     </g>
    </g>
    <g id="ytick_28">
     <g id="line2d_54">
      <g>
       <use xlink:href="#md36a9426de" x="60.468889" y="113.093812" style="stroke: #000000; stroke-width: 0.6"/>
      </g>
     </g>
    </g>
    <g id="ytick_29">
     <g id="line2d_55">
      <g>
       <use xlink:href="#md36a9426de" x="60.468889" y="108.665621" style="stroke: #000000; stroke-width: 0.6"/>
      </g>
     </g>
    </g>
    <g id="ytick_30">
     <g id="line2d_56">
      <g>
       <use xlink:href="#md36a9426de" x="60.468889" y="105.047525" style="stroke: #000000; stroke-width: 0.6"/>
      </g>
     </g>
    </g>
    <g id="ytick_31">
     <g id="line2d_57">
      <g>
       <use xlink:href="#md36a9426de" x="60.468889" y="101.988468" style="stroke: #000000; stroke-width: 0.6"/>
      </g>
     </g>
    </g>
    <g id="ytick_32">
     <g id="line2d_58">
      <g>
       <use xlink:href="#md36a9426de" x="60.468889" y="99.338593" style="stroke: #000000; stroke-width: 0.6"/>
      </g>
     </g>
    </g>
    <g id="ytick_33">
     <g id="line2d_59">
      <g>
       <use xlink:href="#md36a9426de" x="60.468889" y="97.001238" style="stroke: #000000; stroke-width: 0.6"/>
      </g>
     </g>
    </g>
    <g id="ytick_34">
     <g id="line2d_60">
      <g>
       <use xlink:href="#md36a9426de" x="60.468889" y="81.155183" style="stroke: #000000; stroke-width: 0.6"/>
      </g>
     </g>
    </g>
    <g id="ytick_35">
     <g id="line2d_61">
      <g>
       <use xlink:href="#md36a9426de" x="60.468889" y="73.108896" style="stroke: #000000; stroke-width: 0.6"/>
      </g>
     </g>
    </g>
    <g id="ytick_36">
     <g id="line2d_62">
      <g>
       <use xlink:href="#md36a9426de" x="60.468889" y="67.399965" style="stroke: #000000; stroke-width: 0.6"/>
      </g>
     </g>
    </g>
    <g id="ytick_37">
     <g id="line2d_63">
      <g>
       <use xlink:href="#md36a9426de" x="60.468889" y="62.971773" style="stroke: #000000; stroke-width: 0.6"/>
      </g>
     </g>
    </g>
    <g id="ytick_38">
     <g id="line2d_64">
      <g>
       <use xlink:href="#md36a9426de" x="60.468889" y="59.353678" style="stroke: #000000; stroke-width: 0.6"/>
      </g>
     </g>
    </g>
    <g id="ytick_39">
     <g id="line2d_65">
      <g>
       <use xlink:href="#md36a9426de" x="60.468889" y="56.294621" style="stroke: #000000; stroke-width: 0.6"/>
      </g>
     </g>
    </g>
    <g id="ytick_40">
     <g id="line2d_66">
      <g>
       <use xlink:href="#md36a9426de" x="60.468889" y="53.644746" style="stroke: #000000; stroke-width: 0.6"/>
      </g>
     </g>
    </g>
    <g id="ytick_41">
     <g id="line2d_67">
      <g>
       <use xlink:href="#md36a9426de" x="60.468889" y="51.30739" style="stroke: #000000; stroke-width: 0.6"/>
      </g>
     </g>
    </g>
    <g id="ytick_42">
     <g id="line2d_68">
      <g>
       <use xlink:href="#md36a9426de" x="60.468889" y="35.461336" style="stroke: #000000; stroke-width: 0.6"/>
      </g>
     </g>
    </g>
    <g id="ytick_43">
     <g id="line2d_69">
      <g>
       <use xlink:href="#md36a9426de" x="60.468889" y="27.415049" style="stroke: #000000; stroke-width: 0.6"/>
      </g>
     </g>
    </g>
    <g id="ytick_44">
     <g id="line2d_70">
      <g>
       <use xlink:href="#md36a9426de" x="60.468889" y="21.706117" style="stroke: #000000; stroke-width: 0.6"/>
      </g>
     </g>
    </g>
    <g id="ytick_45">
     <g id="line2d_71">
      <g>
       <use xlink:href="#md36a9426de" x="60.468889" y="17.277926" style="stroke: #000000; stroke-width: 0.6"/>
      </g>
     </g>
    </g>
    <g id="ytick_46">
     <g id="line2d_72">
      <g>
       <use xlink:href="#md36a9426de" x="60.468889" y="13.65983" style="stroke: #000000; stroke-width: 0.6"/>
      </g>
     </g>
    </g>
    <g id="text_10">
     <!-- e2 * dnde [TeV / (cm2 s)] -->
     <g transform="translate(19.489202 189.243688) rotate(-90) scale(0.1 -0.1)">
      <defs>
       <path id="DejaVuSans-2a" d="M 3009 3897 
L 1888 3291 
L 3009 2681 
L 2828 2375 
L 1778 3009 
L 1778 1831 
L 1422 1831 
L 1422 3009 
L 372 2375 
L 191 2681 
L 1313 3291 
L 191 3897 
L 372 4206 
L 1422 3572 
L 1422 4750 
L 1778 4750 
L 1778 3572 
L 2828 4206 
L 3009 3897 
z
" transform="scale(0.015625)"/>
       <path id="DejaVuSans-64" d="M 2906 2969 
L 2906 4863 
L 3481 4863 
L 3481 0 
L 2906 0 
L 2906 525 
Q 2725 213 2448 61 
Q 2172 -91 1784 -91 
Q 1150 -91 751 415 
Q 353 922 353 1747 
Q 353 2572 751 3078 
Q 1150 3584 1784 3584 
Q 2172 3584 2448 3432 
Q 2725 3281 2906 2969 
z
M 947 1747 
Q 947 1113 1208 752 
Q 1469 391 1925 391 
Q 2381 391 2643 752 
Q 2906 1113 2906 1747 
Q 2906 2381 2643 2742 
Q 2381 3103 1925 3103 
Q 1469 3103 1208 2742 
Q 947 2381 947 1747 
z
" transform="scale(0.015625)"/>
       <path id="DejaVuSans-2f" d="M 1625 4666 
L 2156 4666 
L 531 -594 
L 0 -594 
L 1625 4666 
z
" transform="scale(0.015625)"/>
       <path id="DejaVuSans-28" d="M 1984 4856 
Q 1566 4138 1362 3434 
Q 1159 2731 1159 2009 
Q 1159 1288 1364 580 
Q 1569 -128 1984 -844 
L 1484 -844 
Q 1016 -109 783 600 
Q 550 1309 550 2009 
Q 550 2706 781 3412 
Q 1013 4119 1484 4856 
L 1984 4856 
z
" transform="scale(0.015625)"/>
       <path id="DejaVuSans-63" d="M 3122 3366 
L 3122 2828 
Q 2878 2963 2633 3030 
Q 2388 3097 2138 3097 
Q 1578 3097 1268 2742 
Q 959 2388 959 1747 
Q 959 1106 1268 751 
Q 1578 397 2138 397 
Q 2388 397 2633 464 
Q 2878 531 3122 666 
L 3122 134 
Q 2881 22 2623 -34 
Q 2366 -91 2075 -91 
Q 1284 -91 818 406 
Q 353 903 353 1747 
Q 353 2603 823 3093 
Q 1294 3584 2113 3584 
Q 2378 3584 2631 3529 
Q 2884 3475 3122 3366 
z
" transform="scale(0.015625)"/>
       <path id="DejaVuSans-6d" d="M 3328 2828 
Q 3544 3216 3844 3400 
Q 4144 3584 4550 3584 
Q 5097 3584 5394 3201 
Q 5691 2819 5691 2113 
L 5691 0 
L 5113 0 
L 5113 2094 
Q 5113 2597 4934 2840 
Q 4756 3084 4391 3084 
Q 3944 3084 3684 2787 
Q 3425 2491 3425 1978 
L 3425 0 
L 2847 0 
L 2847 2094 
Q 2847 2600 2669 2842 
Q 2491 3084 2119 3084 
Q 1678 3084 1418 2786 
Q 1159 2488 1159 1978 
L 1159 0 
L 581 0 
L 581 3500 
L 1159 3500 
L 1159 2956 
Q 1356 3278 1631 3431 
Q 1906 3584 2284 3584 
Q 2666 3584 2933 3390 
Q 3200 3197 3328 2828 
z
" transform="scale(0.015625)"/>
       <path id="DejaVuSans-73" d="M 2834 3397 
L 2834 2853 
Q 2591 2978 2328 3040 
Q 2066 3103 1784 3103 
Q 1356 3103 1142 2972 
Q 928 2841 928 2578 
Q 928 2378 1081 2264 
Q 1234 2150 1697 2047 
L 1894 2003 
Q 2506 1872 2764 1633 
Q 3022 1394 3022 966 
Q 3022 478 2636 193 
Q 2250 -91 1575 -91 
Q 1294 -91 989 -36 
Q 684 19 347 128 
L 347 722 
Q 666 556 975 473 
Q 1284 391 1588 391 
Q 1994 391 2212 530 
Q 2431 669 2431 922 
Q 2431 1156 2273 1281 
Q 2116 1406 1581 1522 
L 1381 1569 
Q 847 1681 609 1914 
Q 372 2147 372 2553 
Q 372 3047 722 3315 
Q 1072 3584 1716 3584 
Q 2034 3584 2315 3537 
Q 2597 3491 2834 3397 
z
" transform="scale(0.015625)"/>
       <path id="DejaVuSans-29" d="M 513 4856 
L 1013 4856 
Q 1481 4119 1714 3412 
Q 1947 2706 1947 2009 
Q 1947 1309 1714 600 
Q 1481 -109 1013 -844 
L 513 -844 
Q 928 -128 1133 580 
Q 1338 1288 1338 2009 
Q 1338 2731 1133 3434 
Q 928 4138 513 4856 
z
" transform="scale(0.015625)"/>
      </defs>
      <use xlink:href="#DejaVuSans-65"/>
      <use xlink:href="#DejaVuSans-32" x="61.523438"/>
      <use xlink:href="#DejaVuSans-20" x="125.146484"/>
      <use xlink:href="#DejaVuSans-2a" x="156.933594"/>
      <use xlink:href="#DejaVuSans-20" x="206.933594"/>
      <use xlink:href="#DejaVuSans-64" x="238.720703"/>
      <use xlink:href="#DejaVuSans-6e" x="302.197266"/>
      <use xlink:href="#DejaVuSans-64" x="365.576172"/>
      <use xlink:href="#DejaVuSans-65" x="429.052734"/>
      <use xlink:href="#DejaVuSans-20" x="490.576172"/>
      <use xlink:href="#DejaVuSans-5b" x="522.363281"/>
      <use xlink:href="#DejaVuSans-54" x="561.376953"/>
      <use xlink:href="#DejaVuSans-65" x="605.460938"/>
      <use xlink:href="#DejaVuSans-56" x="666.984375"/>
      <use xlink:href="#DejaVuSans-20" x="735.392578"/>
      <use xlink:href="#DejaVuSans-2f" x="767.179688"/>
      <use xlink:href="#DejaVuSans-20" x="800.871094"/>
      <use xlink:href="#DejaVuSans-28" x="832.658203"/>
      <use xlink:href="#DejaVuSans-63" x="871.671875"/>
      <use xlink:href="#DejaVuSans-6d" x="926.652344"/>
      <use xlink:href="#DejaVuSans-32" x="1024.064453"/>
      <use xlink:href="#DejaVuSans-20" x="1087.6875"/>
      <use xlink:href="#DejaVuSans-73" x="1119.474609"/>
      <use xlink:href="#DejaVuSans-29" x="1171.574219"/>
      <use xlink:href="#DejaVuSans-5d" x="1210.587891"/>
     </g>
    </g>
   </g>
   <g id="line2d_73">
    <path d="M 78.477357 28.684513 
L 81.700555 28.776618 
L 84.923754 28.870812 
L 88.146952 28.967213 
L 91.37015 29.065946 
L 94.593348 29.16714 
L 97.816546 29.270935 
L 101.039745 29.377476 
L 104.262943 29.486919 
L 107.486141 29.599426 
L 110.709339 29.715169 
L 113.932538 29.83433 
L 117.155736 29.957102 
L 120.378934 30.083687 
L 123.602132 30.214299 
L 126.825331 30.349166 
L 130.048529 30.488526 
L 133.271727 30.632631 
L 136.494925 30.78175 
L 139.718123 30.936162 
L 142.941322 31.096166 
L 146.16452 31.262076 
L 149.387718 31.434225 
L 152.610916 31.612962 
L 155.834115 31.798658 
L 159.057313 31.991705 
L 162.280511 32.192515 
L 165.503709 32.401525 
L 168.726907 32.619196 
L 171.950106 32.846014 
L 175.173304 33.082493 
L 178.396502 33.329178 
L 181.6197 33.586641 
L 184.842899 33.855488 
L 188.066097 34.13636 
L 191.289295 34.429931 
L 194.512493 34.736916 
L 197.735691 35.058069 
L 200.95889 35.394186 
L 204.182088 35.746109 
L 207.405286 36.114725 
L 210.628484 36.500974 
L 213.851683 36.905845 
L 217.074881 37.330387 
L 220.298079 37.775704 
L 223.521277 38.242965 
L 226.744476 38.733402 
L 229.967674 39.248319 
L 233.190872 39.789092 
L 236.41407 40.357173 
L 239.637268 40.954098 
L 242.860467 41.581489 
L 246.083665 42.241057 
L 249.306863 42.934611 
L 252.530061 43.664062 
L 255.75326 44.431428 
L 258.976458 45.238839 
L 262.199656 46.088546 
L 265.422854 46.982927 
L 268.646052 47.924493 
L 271.869251 48.915897 
L 275.092449 49.959939 
L 278.315647 51.059578 
L 281.538845 52.21794 
L 284.762044 53.438325 
L 287.985242 54.724219 
L 291.20844 56.079305 
L 294.431638 57.507472 
L 297.654836 59.012827 
L 300.878035 60.59971 
L 304.101233 62.272703 
L 307.324431 64.036646 
L 310.547629 65.896652 
L 313.770828 67.85812 
L 316.994026 69.926753 
L 320.217224 72.108575 
L 323.440422 74.409948 
L 326.663621 76.837592 
L 329.886819 79.398605 
L 333.110017 82.100483 
L 336.333215 84.951144 
L 339.556413 87.958951 
L 342.779612 91.132738 
L 346.00281 94.481833 
L 349.226008 98.016091 
L 352.449206 101.74592 
L 355.672405 105.682313 
L 358.895603 109.83688 
L 362.118801 114.221884 
L 365.341999 118.85028 
L 368.565197 123.735747 
L 371.788396 128.892735 
L 375.011594 134.336506 
L 378.234792 140.08318 
L 381.45799 146.149784 
L 384.681189 152.5543 
L 387.904387 159.315721 
L 391.127585 166.45411 
L 394.350783 173.990656 
L 397.573981 181.947738 
" clip-path="url(#p6e41c8d2f1)" style="fill: none; stroke-dasharray: 1.5,2.475; stroke-dashoffset: 0; stroke: #000000; stroke-width: 1.5"/>
   </g>
   <g id="LineCollection_1">
    <path clip-path="url(#p6e41c8d2f1)" style="fill: none; stroke: #8b0000; stroke-width: 1.5"/>
    <path clip-path="url(#p6e41c8d2f1)" style="fill: none; stroke: #8b0000; stroke-width: 1.5"/>
    <path clip-path="url(#p6e41c8d2f1)" style="fill: none; stroke: #8b0000; stroke-width: 1.5"/>
    <path clip-path="url(#p6e41c8d2f1)" style="fill: none; stroke: #8b0000; stroke-width: 1.5"/>
    <path d="M 82.483309 29.915141 
L 82.483309 27.440383 
" clip-path="url(#p6e41c8d2f1)" style="fill: none; stroke: #8b0000; stroke-width: 1.5"/>
    <path d="M 99.447511 30.260141 
L 99.447511 28.085261 
" clip-path="url(#p6e41c8d2f1)" style="fill: none; stroke: #8b0000; stroke-width: 1.5"/>
    <path d="M 116.411711 30.803484 
L 116.411711 28.689317 
" clip-path="url(#p6e41c8d2f1)" style="fill: none; stroke: #8b0000; stroke-width: 1.5"/>
    <path d="M 133.375912 31.484184 
L 133.375912 29.351147 
" clip-path="url(#p6e41c8d2f1)" style="fill: none; stroke: #8b0000; stroke-width: 1.5"/>
    <path d="M 150.340115 32.350096 
L 150.340115 30.088469 
" clip-path="url(#p6e41c8d2f1)" style="fill: none; stroke: #8b0000; stroke-width: 1.5"/>
    <path d="M 167.304316 33.400065 
L 167.304316 30.983267 
" clip-path="url(#p6e41c8d2f1)" style="fill: none; stroke: #8b0000; stroke-width: 1.5"/>
    <path d="M 184.268515 34.74028 
L 184.268515 32.049059 
" clip-path="url(#p6e41c8d2f1)" style="fill: none; stroke: #8b0000; stroke-width: 1.5"/>
    <path d="M 201.232717 36.428538 
L 201.232717 33.378768 
" clip-path="url(#p6e41c8d2f1)" style="fill: none; stroke: #8b0000; stroke-width: 1.5"/>
    <path d="M 218.19692 38.593145 
L 218.19692 35.052035 
" clip-path="url(#p6e41c8d2f1)" style="fill: none; stroke: #8b0000; stroke-width: 1.5"/>
    <path d="M 235.16112 41.423152 
L 235.16112 37.163234 
" clip-path="url(#p6e41c8d2f1)" style="fill: none; stroke: #8b0000; stroke-width: 1.5"/>
    <path d="M 252.125319 45.151124 
L 252.125319 39.861051 
" clip-path="url(#p6e41c8d2f1)" style="fill: none; stroke: #8b0000; stroke-width: 1.5"/>
    <path d="M 269.089521 49.991839 
L 269.089521 43.421735 
" clip-path="url(#p6e41c8d2f1)" style="fill: none; stroke: #8b0000; stroke-width: 1.5"/>
    <path d="M 286.053724 56.564074 
L 286.053724 47.98558 
" clip-path="url(#p6e41c8d2f1)" style="fill: none; stroke: #8b0000; stroke-width: 1.5"/>
    <path d="M 303.017927 65.704254 
L 303.017927 53.82868 
" clip-path="url(#p6e41c8d2f1)" style="fill: none; stroke: #8b0000; stroke-width: 1.5"/>
    <path d="M 319.982128 78.961013 
L 319.982128 61.305018 
" clip-path="url(#p6e41c8d2f1)" style="fill: none; stroke: #8b0000; stroke-width: 1.5"/>
    <path d="M 336.946327 102.391454 
L 336.946327 70.452244 
" clip-path="url(#p6e41c8d2f1)" style="fill: none; stroke: #8b0000; stroke-width: 1.5"/>
    <path d="M 353.910529 289 
L 353.910529 81.369724 
" clip-path="url(#p6e41c8d2f1)" style="fill: none; stroke: #8b0000; stroke-width: 1.5"/>
    <path d="M 370.87473 289 
L 370.87473 93.591728 
" clip-path="url(#p6e41c8d2f1)" style="fill: none; stroke: #8b0000; stroke-width: 1.5"/>
    <path d="M 387.838929 289 
L 387.838929 105.600392 
" clip-path="url(#p6e41c8d2f1)" style="fill: none; stroke: #8b0000; stroke-width: 1.5"/>
    <path d="M 404.803131 289 
L 404.803131 115.784581 
" clip-path="url(#p6e41c8d2f1)" style="fill: none; stroke: #8b0000; stroke-width: 1.5"/>
   </g>
   <g id="LineCollection_2">
    <path clip-path="url(#p6e41c8d2f1)" style="fill: none; stroke: #006400; stroke-width: 1.5"/>
    <path clip-path="url(#p6e41c8d2f1)" style="fill: none; stroke: #006400; stroke-width: 1.5"/>
    <path clip-path="url(#p6e41c8d2f1)" style="fill: none; stroke: #006400; stroke-width: 1.5"/>
    <path clip-path="url(#p6e41c8d2f1)" style="fill: none; stroke: #006400; stroke-width: 1.5"/>
    <path d="M 76.865758 30.973382 
L 76.865758 26.549823 
" clip-path="url(#p6e41c8d2f1)" style="fill: none; stroke: #006400; stroke-width: 1.5"/>
    <path d="M 93.82996 31.301071 
L 93.82996 27.20305 
" clip-path="url(#p6e41c8d2f1)" style="fill: none; stroke: #006400; stroke-width: 1.5"/>
    <path d="M 110.79416 31.825743 
L 110.79416 27.818549 
" clip-path="url(#p6e41c8d2f1)" style="fill: none; stroke: #006400; stroke-width: 1.5"/>
    <path d="M 127.758361 32.495442 
L 127.758361 28.474979 
" clip-path="url(#p6e41c8d2f1)" style="fill: none; stroke: #006400; stroke-width: 1.5"/>
    <path d="M 144.722564 33.370535 
L 144.722564 29.220364 
" clip-path="url(#p6e41c8d2f1)" style="fill: none; stroke: #006400; stroke-width: 1.5"/>
    <path d="M 161.686765 34.413832 
L 161.686765 30.12462 
" clip-path="url(#p6e41c8d2f1)" style="fill: none; stroke: #006400; stroke-width: 1.5"/>
    <path d="M 178.650965 35.751175 
L 178.650965 31.206709 
" clip-path="url(#p6e41c8d2f1)" style="fill: none; stroke: #006400; stroke-width: 1.5"/>
    <path d="M 195.615166 37.42231 
L 195.615166 32.559867 
" clip-path="url(#p6e41c8d2f1)" style="fill: none; stroke: #006400; stroke-width: 1.5"/>
    <path d="M 212.579369 39.557482 
L 212.579369 34.273064 
" clip-path="url(#p6e41c8d2f1)" style="fill: none; stroke: #006400; stroke-width: 1.5"/>
    <path d="M 229.543569 42.338397 
L 229.543569 36.451481 
" clip-path="url(#p6e41c8d2f1)" style="fill: none; stroke: #006400; stroke-width: 1.5"/>
    <path d="M 246.507769 46.004726 
L 246.507769 39.236451 
" clip-path="url(#p6e41c8d2f1)" style="fill: none; stroke: #006400; stroke-width: 1.5"/>
    <path d="M 263.471971 50.789128 
L 263.471971 42.886596 
" clip-path="url(#p6e41c8d2f1)" style="fill: none; stroke: #006400; stroke-width: 1.5"/>
    <path d="M 280.436173 57.286978 
L 280.436173 47.544624 
" clip-path="url(#p6e41c8d2f1)" style="fill: none; stroke: #006400; stroke-width: 1.5"/>
    <path d="M 297.400376 66.361825 
L 297.400376 53.491142 
" clip-path="url(#p6e41c8d2f1)" style="fill: none; stroke: #006400; stroke-width: 1.5"/>
    <path d="M 314.364577 79.602776 
L 314.364577 61.071998 
" clip-path="url(#p6e41c8d2f1)" style="fill: none; stroke: #006400; stroke-width: 1.5"/>
    <path d="M 331.328777 103.226816 
L 331.328777 70.307443 
" clip-path="url(#p6e41c8d2f1)" style="fill: none; stroke: #006400; stroke-width: 1.5"/>
    <path d="M 348.292978 289 
L 348.292978 81.315909 
" clip-path="url(#p6e41c8d2f1)" style="fill: none; stroke: #006400; stroke-width: 1.5"/>
    <path d="M 365.257179 289 
L 365.257179 93.585737 
" clip-path="url(#p6e41c8d2f1)" style="fill: none; stroke: #006400; stroke-width: 1.5"/>
    <path d="M 382.221378 289 
L 382.221378 105.683217 
" clip-path="url(#p6e41c8d2f1)" style="fill: none; stroke: #006400; stroke-width: 1.5"/>
    <path d="M 399.185581 289 
L 399.185581 115.890939 
" clip-path="url(#p6e41c8d2f1)" style="fill: none; stroke: #006400; stroke-width: 1.5"/>
   </g>
   <g id="line2d_74">
    <defs>
     <path id="m50bb6902e1" d="M 0 3 
C 0.795609 3 1.55874 2.683901 2.12132 2.12132 
C 2.683901 1.55874 3 0.795609 3 0 
C 3 -0.795609 2.683901 -1.55874 2.12132 -2.12132 
C 1.55874 -2.683901 0.795609 -3 0 -3 
C -0.795609 -3 -1.55874 -2.683901 -2.12132 -2.12132 
C -2.683901 -1.55874 -3 -0.795609 -3 0 
C -3 0.795609 -2.683901 1.55874 -2.12132 2.12132 
C -1.55874 2.683901 -0.795609 3 0 3 
z
" style="stroke: #8b0000"/>
    </defs>
    <g clip-path="url(#p6e41c8d2f1)">
     <use xlink:href="#m50bb6902e1" x="82.483309" y="28.639209" style="fill: #8b0000; stroke: #8b0000"/>
     <use xlink:href="#m50bb6902e1" x="99.447511" y="29.142921" style="fill: #8b0000; stroke: #8b0000"/>
     <use xlink:href="#m50bb6902e1" x="116.411711" y="29.71826" style="fill: #8b0000; stroke: #8b0000"/>
     <use xlink:href="#m50bb6902e1" x="133.375912" y="30.38902" style="fill: #8b0000; stroke: #8b0000"/>
     <use xlink:href="#m50bb6902e1" x="150.340115" y="31.187081" style="fill: #8b0000; stroke: #8b0000"/>
     <use xlink:href="#m50bb6902e1" x="167.304316" y="32.154897" style="fill: #8b0000; stroke: #8b0000"/>
     <use xlink:href="#m50bb6902e1" x="184.268515" y="33.349083" style="fill: #8b0000; stroke: #8b0000"/>
     <use xlink:href="#m50bb6902e1" x="201.232717" y="34.845124" style="fill: #8b0000; stroke: #8b0000"/>
     <use xlink:href="#m50bb6902e1" x="218.19692" y="36.743709" style="fill: #8b0000; stroke: #8b0000"/>
     <use xlink:href="#m50bb6902e1" x="235.16112" y="39.179105" style="fill: #8b0000; stroke: #8b0000"/>
     <use xlink:href="#m50bb6902e1" x="252.125319" y="42.330332" style="fill: #8b0000; stroke: #8b0000"/>
     <use xlink:href="#m50bb6902e1" x="269.089521" y="46.436118" style="fill: #8b0000; stroke: #8b0000"/>
     <use xlink:href="#m50bb6902e1" x="286.053724" y="51.814849" style="fill: #8b0000; stroke: #8b0000"/>
     <use xlink:href="#m50bb6902e1" x="303.017927" y="58.891079" style="fill: #8b0000; stroke: #8b0000"/>
     <use xlink:href="#m50bb6902e1" x="319.982128" y="68.230959" style="fill: #8b0000; stroke: #8b0000"/>
     <use xlink:href="#m50bb6902e1" x="336.946327" y="80.589464" style="fill: #8b0000; stroke: #8b0000"/>
     <use xlink:href="#m50bb6902e1" x="353.910529" y="96.973376" style="fill: #8b0000; stroke: #8b0000"/>
     <use xlink:href="#m50bb6902e1" x="370.87473" y="118.725249" style="fill: #8b0000; stroke: #8b0000"/>
     <use xlink:href="#m50bb6902e1" x="387.838929" y="147.635412" style="fill: #8b0000; stroke: #8b0000"/>
     <use xlink:href="#m50bb6902e1" x="404.803131" y="186.091316" style="fill: #8b0000; stroke: #8b0000"/>
    </g>
   </g>
   <g id="line2d_75">
    <defs>
     <path id="m5b1cf5c076" d="M 0 3 
C 0.795609 3 1.55874 2.683901 2.12132 2.12132 
C 2.683901 1.55874 3 0.795609 3 0 
C 3 -0.795609 2.683901 -1.55874 2.12132 -2.12132 
C 1.55874 -2.683901 0.795609 -3 0 -3 
C -0.795609 -3 -1.55874 -2.683901 -2.12132 -2.12132 
C -2.683901 -1.55874 -3 -0.795609 -3 0 
C -3 0.795609 -2.683901 1.55874 -2.12132 2.12132 
C -1.55874 2.683901 -0.795609 3 0 3 
z
" style="stroke: #006400"/>
    </defs>
    <g clip-path="url(#p6e41c8d2f1)">
     <use xlink:href="#m5b1cf5c076" x="76.865758" y="28.6386" style="fill: #006400; stroke: #006400"/>
     <use xlink:href="#m5b1cf5c076" x="93.82996" y="29.146464" style="fill: #006400; stroke: #006400"/>
     <use xlink:href="#m5b1cf5c076" x="110.79416" y="29.721171" style="fill: #006400; stroke: #006400"/>
     <use xlink:href="#m5b1cf5c076" x="127.758361" y="30.383567" style="fill: #006400; stroke: #006400"/>
     <use xlink:href="#m5b1cf5c076" x="144.722564" y="31.187154" style="fill: #006400; stroke: #006400"/>
     <use xlink:href="#m5b1cf5c076" x="161.686765" y="32.153567" style="fill: #006400; stroke: #006400"/>
     <use xlink:href="#m5b1cf5c076" x="178.650965" y="33.349138" style="fill: #006400; stroke: #006400"/>
     <use xlink:href="#m5b1cf5c076" x="195.615166" y="34.842532" style="fill: #006400; stroke: #006400"/>
     <use xlink:href="#m5b1cf5c076" x="212.579369" y="36.739892" style="fill: #006400; stroke: #006400"/>
     <use xlink:href="#m5b1cf5c076" x="229.543569" y="39.17744" style="fill: #006400; stroke: #006400"/>
     <use xlink:href="#m5b1cf5c076" x="246.507769" y="42.333425" style="fill: #006400; stroke: #006400"/>
     <use xlink:href="#m5b1cf5c076" x="263.471971" y="46.447065" style="fill: #006400; stroke: #006400"/>
     <use xlink:href="#m5b1cf5c076" x="280.436173" y="51.823855" style="fill: #006400; stroke: #006400"/>
     <use xlink:href="#m5b1cf5c076" x="297.400376" y="58.900826" style="fill: #006400; stroke: #006400"/>
     <use xlink:href="#m5b1cf5c076" x="314.364577" y="68.248694" style="fill: #006400; stroke: #006400"/>
     <use xlink:href="#m5b1cf5c076" x="331.328777" y="80.604694" style="fill: #006400; stroke: #006400"/>
     <use xlink:href="#m5b1cf5c076" x="348.292978" y="97.009264" style="fill: #006400; stroke: #006400"/>
     <use xlink:href="#m5b1cf5c076" x="365.257179" y="118.76292" style="fill: #006400; stroke: #006400"/>
     <use xlink:href="#m5b1cf5c076" x="382.221378" y="147.712581" style="fill: #006400; stroke: #006400"/>
     <use xlink:href="#m5b1cf5c076" x="399.185581" y="186.198177" style="fill: #006400; stroke: #006400"/>
    </g>
   </g>
   <g id="patch_3">
    <path d="M 60.468889 242.728 
L 60.468889 10.8 
" style="fill: none; stroke: #000000; stroke-width: 0.8; stroke-linejoin: miter; stroke-linecap: square"/>
   </g>
   <g id="patch_4">
    <path d="M 421.2 242.728 
L 421.2 10.8 
" style="fill: none; stroke: #000000; stroke-width: 0.8; stroke-linejoin: miter; stroke-linecap: square"/>
   </g>
   <g id="patch_5">
    <path d="M 60.468889 242.728 
L 421.2 242.728 
" style="fill: none; stroke: #000000; stroke-width: 0.8; stroke-linejoin: miter; stroke-linecap: square"/>
   </g>
   <g id="patch_6">
    <path d="M 60.468889 10.8 
L 421.2 10.8 
" style="fill: none; stroke: #000000; stroke-width: 0.8; stroke-linejoin: miter; stroke-linecap: square"/>
   </g>
   <g id="legend_1">
    <g id="patch_7">
     <path d="M 320.3 62.834375 
L 414.2 62.834375 
Q 416.2 62.834375 416.2 60.834375 
L 416.2 17.8 
Q 416.2 15.8 414.2 15.8 
L 320.3 15.8 
Q 318.3 15.8 318.3 17.8 
L 318.3 60.834375 
Q 318.3 62.834375 320.3 62.834375 
z
" style="fill: #ffffff; opacity: 0.8; stroke: #cccccc; stroke-linejoin: miter"/>
    </g>
    <g id="patch_8">
     <path d="M 322.3 27.398438 
L 342.3 27.398438 
L 342.3 20.398438 
L 322.3 20.398438 
z
" style="fill: #008000; fill-opacity: 0.5"/>
    </g>
    <g id="text_11">
     <!-- $1\sigma$ Nuisance -->
     <g transform="translate(350.3 27.398438) scale(0.1 -0.1)">
      <defs>
       <path id="DejaVuSans-Oblique-3c3" d="M 2219 3044 
Q 1744 3044 1422 2700 
Q 1081 2341 969 1747 
Q 844 1119 1044 756 
Q 1241 397 1706 397 
Q 2166 397 2503 759 
Q 2844 1122 2966 1747 
Q 3075 2319 2881 2700 
Q 2700 3044 2219 3044 
z
M 2309 3503 
L 4219 3500 
L 4106 2925 
L 3463 2925 
Q 3706 2438 3575 1747 
Q 3406 888 2884 400 
Q 2359 -91 1609 -91 
Q 856 -91 525 400 
Q 194 888 363 1747 
Q 528 2609 1050 3097 
Q 1484 3503 2309 3503 
z
" transform="scale(0.015625)"/>
       <path id="DejaVuSans-4e" d="M 628 4666 
L 1478 4666 
L 3547 763 
L 3547 4666 
L 4159 4666 
L 4159 0 
L 3309 0 
L 1241 3903 
L 1241 0 
L 628 0 
L 628 4666 
z
" transform="scale(0.015625)"/>
       <path id="DejaVuSans-75" d="M 544 1381 
L 544 3500 
L 1119 3500 
L 1119 1403 
Q 1119 906 1312 657 
Q 1506 409 1894 409 
Q 2359 409 2629 706 
Q 2900 1003 2900 1516 
L 2900 3500 
L 3475 3500 
L 3475 0 
L 2900 0 
L 2900 538 
Q 2691 219 2414 64 
Q 2138 -91 1772 -91 
Q 1169 -91 856 284 
Q 544 659 544 1381 
z
M 1991 3584 
L 1991 3584 
z
" transform="scale(0.015625)"/>
       <path id="DejaVuSans-69" d="M 603 3500 
L 1178 3500 
L 1178 0 
L 603 0 
L 603 3500 
z
M 603 4863 
L 1178 4863 
L 1178 4134 
L 603 4134 
L 603 4863 
z
" transform="scale(0.015625)"/>
       <path id="DejaVuSans-61" d="M 2194 1759 
Q 1497 1759 1228 1600 
Q 959 1441 959 1056 
Q 959 750 1161 570 
Q 1363 391 1709 391 
Q 2188 391 2477 730 
Q 2766 1069 2766 1631 
L 2766 1759 
L 2194 1759 
z
M 3341 1997 
L 3341 0 
L 2766 0 
L 2766 531 
Q 2569 213 2275 61 
Q 1981 -91 1556 -91 
Q 1019 -91 701 211 
Q 384 513 384 1019 
Q 384 1609 779 1909 
Q 1175 2209 1959 2209 
L 2766 2209 
L 2766 2266 
Q 2766 2663 2505 2880 
Q 2244 3097 1772 3097 
Q 1472 3097 1187 3025 
Q 903 2953 641 2809 
L 641 3341 
Q 956 3463 1253 3523 
Q 1550 3584 1831 3584 
Q 2591 3584 2966 3190 
Q 3341 2797 3341 1997 
z
" transform="scale(0.015625)"/>
      </defs>
      <use xlink:href="#DejaVuSans-31" transform="translate(0 0.015625)"/>
      <use xlink:href="#DejaVuSans-Oblique-3c3" transform="translate(63.623047 0.015625)"/>
      <use xlink:href="#DejaVuSans-20" transform="translate(127.001953 0.015625)"/>
      <use xlink:href="#DejaVuSans-4e" transform="translate(158.789062 0.015625)"/>
      <use xlink:href="#DejaVuSans-75" transform="translate(233.59375 0.015625)"/>
      <use xlink:href="#DejaVuSans-69" transform="translate(296.972656 0.015625)"/>
      <use xlink:href="#DejaVuSans-73" transform="translate(324.755859 0.015625)"/>
      <use xlink:href="#DejaVuSans-61" transform="translate(376.855469 0.015625)"/>
      <use xlink:href="#DejaVuSans-6e" transform="translate(438.134766 0.015625)"/>
      <use xlink:href="#DejaVuSans-63" transform="translate(501.513672 0.015625)"/>
      <use xlink:href="#DejaVuSans-65" transform="translate(556.494141 0.015625)"/>
     </g>
    </g>
    <g id="patch_9">
     <path d="M 322.3 42.076562 
L 342.3 42.076562 
L 342.3 35.076562 
L 322.3 35.076562 
z
" style="fill: #ff0000; fill-opacity: 0.6"/>
    </g>
    <g id="text_12">
     <!-- $1\sigma$ Standard -->
     <g transform="translate(350.3 42.076562) scale(0.1 -0.1)">
      <defs>
       <path id="DejaVuSans-53" d="M 3425 4513 
L 3425 3897 
Q 3066 4069 2747 4153 
Q 2428 4238 2131 4238 
Q 1616 4238 1336 4038 
Q 1056 3838 1056 3469 
Q 1056 3159 1242 3001 
Q 1428 2844 1947 2747 
L 2328 2669 
Q 3034 2534 3370 2195 
Q 3706 1856 3706 1288 
Q 3706 609 3251 259 
Q 2797 -91 1919 -91 
Q 1588 -91 1214 -16 
Q 841 59 441 206 
L 441 856 
Q 825 641 1194 531 
Q 1563 422 1919 422 
Q 2459 422 2753 634 
Q 3047 847 3047 1241 
Q 3047 1584 2836 1778 
Q 2625 1972 2144 2069 
L 1759 2144 
Q 1053 2284 737 2584 
Q 422 2884 422 3419 
Q 422 4038 858 4394 
Q 1294 4750 2059 4750 
Q 2388 4750 2728 4690 
Q 3069 4631 3425 4513 
z
" transform="scale(0.015625)"/>
       <path id="DejaVuSans-74" d="M 1172 4494 
L 1172 3500 
L 2356 3500 
L 2356 3053 
L 1172 3053 
L 1172 1153 
Q 1172 725 1289 603 
Q 1406 481 1766 481 
L 2356 481 
L 2356 0 
L 1766 0 
Q 1100 0 847 248 
Q 594 497 594 1153 
L 594 3053 
L 172 3053 
L 172 3500 
L 594 3500 
L 594 4494 
L 1172 4494 
z
" transform="scale(0.015625)"/>
      </defs>
      <use xlink:href="#DejaVuSans-31" transform="translate(0 0.015625)"/>
      <use xlink:href="#DejaVuSans-Oblique-3c3" transform="translate(63.623047 0.015625)"/>
      <use xlink:href="#DejaVuSans-20" transform="translate(127.001953 0.015625)"/>
      <use xlink:href="#DejaVuSans-53" transform="translate(158.789062 0.015625)"/>
      <use xlink:href="#DejaVuSans-74" transform="translate(222.265625 0.015625)"/>
      <use xlink:href="#DejaVuSans-61" transform="translate(261.474609 0.015625)"/>
      <use xlink:href="#DejaVuSans-6e" transform="translate(322.753906 0.015625)"/>
      <use xlink:href="#DejaVuSans-64" transform="translate(386.132812 0.015625)"/>
      <use xlink:href="#DejaVuSans-61" transform="translate(449.609375 0.015625)"/>
      <use xlink:href="#DejaVuSans-72" transform="translate(510.888672 0.015625)"/>
      <use xlink:href="#DejaVuSans-64" transform="translate(552.001953 0.015625)"/>
     </g>
    </g>
    <g id="line2d_76">
     <path d="M 322.3 53.254687 
L 332.3 53.254687 
L 342.3 53.254687 
" style="fill: none; stroke-dasharray: 1.5,2.475; stroke-dashoffset: 0; stroke: #000000; stroke-width: 1.5"/>
    </g>
    <g id="text_13">
     <!-- Input -->
     <g transform="translate(350.3 56.754687) scale(0.1 -0.1)">
      <defs>
       <path id="DejaVuSans-49" d="M 628 4666 
L 1259 4666 
L 1259 0 
L 628 0 
L 628 4666 
z
" transform="scale(0.015625)"/>
       <path id="DejaVuSans-70" d="M 1159 525 
L 1159 -1331 
L 581 -1331 
L 581 3500 
L 1159 3500 
L 1159 2969 
Q 1341 3281 1617 3432 
Q 1894 3584 2278 3584 
Q 2916 3584 3314 3078 
Q 3713 2572 3713 1747 
Q 3713 922 3314 415 
Q 2916 -91 2278 -91 
Q 1894 -91 1617 61 
Q 1341 213 1159 525 
z
M 3116 1747 
Q 3116 2381 2855 2742 
Q 2594 3103 2138 3103 
Q 1681 3103 1420 2742 
Q 1159 2381 1159 1747 
Q 1159 1113 1420 752 
Q 1681 391 2138 391 
Q 2594 391 2855 752 
Q 3116 1113 3116 1747 
z
" transform="scale(0.015625)"/>
      </defs>
      <use xlink:href="#DejaVuSans-49"/>
      <use xlink:href="#DejaVuSans-6e" x="29.492188"/>
      <use xlink:href="#DejaVuSans-70" x="92.871094"/>
      <use xlink:href="#DejaVuSans-75" x="156.347656"/>
      <use xlink:href="#DejaVuSans-74" x="219.726562"/>
     </g>
    </g>
   </g>
  </g>
 </g>
 <defs>
  <clipPath id="p6e41c8d2f1">
   <rect x="60.468889" y="10.8" width="360.731111" height="231.928"/>
  </clipPath>
 </defs>
</svg>
