<?xml version="1.0" encoding="utf-8" standalone="no"?>
<!DOCTYPE svg PUBLIC "-//W3C//DTD SVG 1.1//EN"
  "http://www.w3.org/Graphics/SVG/1.1/DTD/svg11.dtd">
<svg xmlns:xlink="http://www.w3.org/1999/xlink" width="432pt" height="288pt" viewBox="0 0 432 288" xmlns="http://www.w3.org/2000/svg" version="1.1">
 <metadata>
  <rdf:RDF xmlns:dc="http://purl.org/dc/elements/1.1/" xmlns:cc="http://creativecommons.org/ns#" xmlns:rdf="http://www.w3.org/1999/02/22-rdf-syntax-ns#">
   <cc:Work>
    <dc:type rdf:resource="http://purl.org/dc/dcmitype/StillImage"/>
    <dc:date>2023-03-15T10:46:34.480295</dc:date>
    <dc:format>image/svg+xml</dc:format>
    <dc:creator>
     <cc:Agent>
      <dc:title>Matplotlib v3.6.2, https://matplotlib.org/</dc:title>
     </cc:Agent>
    </dc:creator>
   </cc:Work>
  </rdf:RDF>
 </metadata>
 <defs>
  <style type="text/css">*{stroke-linejoin: round; stroke-linecap: butt}</style>
 </defs>
 <g id="figure_1">
  <g id="patch_1">
   <path d="M 0 288 
L 432 288 
L 432 0 
L 0 0 
z
" style="fill: #ffffff"/>
  </g>
  <g id="axes_1">
   <g id="patch_2">
    <path d="M 60.468889 242.728 
L 421.2 242.728 
L 421.2 10.8 
L 60.468889 10.8 
z
" style="fill: #ffffff"/>
   </g>
   <g id="PolyCollection_1">
    <path d="M 78.477357 25.841803 
L 78.477357 32.566307 
L 81.700555 32.623957 
L 84.923754 32.683943 
L 88.146952 32.746362 
L 91.37015 32.81132 
L 94.593348 32.878927 
L 97.816546 32.949299 
L 101.039745 33.022558 
L 104.262943 33.098834 
L 107.486141 33.178263 
L 110.709339 33.260989 
L 113.932538 33.347164 
L 117.155736 33.436947 
L 120.378934 33.530508 
L 123.602132 33.628026 
L 126.825331 33.729689 
L 130.048529 33.835697 
L 133.271727 33.94626 
L 136.494925 34.061601 
L 139.718123 34.181956 
L 142.941322 34.307573 
L 146.16452 34.438716 
L 149.387718 34.575664 
L 152.610916 34.718711 
L 155.834115 34.86817 
L 159.057313 35.024371 
L 162.280511 35.187664 
L 165.503709 35.358419 
L 168.726907 35.537028 
L 171.950106 35.723909 
L 175.173304 35.919502 
L 178.396502 36.124273 
L 181.6197 36.338719 
L 184.842899 36.563366 
L 188.066097 36.798772 
L 191.289295 37.045527 
L 194.512493 37.304262 
L 197.735691 37.575644 
L 200.95889 37.860382 
L 204.182088 38.15923 
L 207.405286 38.472989 
L 210.628484 38.802511 
L 213.851683 39.148705 
L 217.074881 39.512534 
L 220.298079 39.895026 
L 223.521277 40.297278 
L 226.744476 40.720454 
L 229.967674 41.1658 
L 233.190872 41.634642 
L 236.41407 42.128397 
L 239.637268 42.648576 
L 242.860467 43.196794 
L 246.083665 43.774777 
L 249.306863 44.384367 
L 252.530061 45.027536 
L 255.75326 45.706393 
L 258.976458 46.423192 
L 262.199656 47.180345 
L 265.422854 47.980434 
L 268.646052 48.826219 
L 271.869251 49.720653 
L 275.092449 50.666891 
L 278.315647 51.668309 
L 281.538845 52.72851 
L 284.762044 53.851341 
L 287.985242 55.040905 
L 291.20844 56.301576 
L 294.431638 57.638011 
L 297.654836 59.055167 
L 300.878035 60.558315 
L 304.101233 62.153057 
L 307.324431 63.845346 
L 310.547629 65.64151 
L 313.770828 67.548278 
L 316.994026 69.572808 
L 320.217224 71.722734 
L 323.440422 74.006204 
L 326.663621 76.431946 
L 329.886819 79.009329 
L 333.110017 81.748455 
L 336.333215 84.660258 
L 339.556413 87.756635 
L 342.779612 91.050605 
L 346.00281 94.556506 
L 349.226008 98.290258 
L 352.449206 102.269694 
L 355.672405 106.515004 
L 358.895603 111.049344 
L 362.118801 115.89968 
L 365.341999 121.09801 
L 368.565197 126.683174 
L 371.788396 132.703666 
L 375.011594 139.222186 
L 378.234792 146.323444 
L 381.45799 154.128503 
L 384.681189 162.823638 
L 387.904387 172.725994 
L 391.127585 184.462483 
L 394.350783 199.627715 
L 397.573981 225.568115 
L 397.573981 151.102203 
L 397.573981 151.102203 
L 394.350783 144.563602 
L 391.127585 138.382573 
L 387.904387 132.539104 
L 384.681189 127.014258 
L 381.45799 121.790116 
L 378.234792 116.849728 
L 375.011594 112.177058 
L 371.788396 107.756941 
L 368.565197 103.575038 
L 365.341999 99.617792 
L 362.118801 95.872391 
L 358.895603 92.326729 
L 355.672405 88.969373 
L 352.449206 85.78953 
L 349.226008 82.777016 
L 346.00281 79.922226 
L 342.779612 77.216111 
L 339.556413 74.650151 
L 336.333215 72.21633 
L 333.110017 69.907118 
L 329.886819 67.715446 
L 326.663621 65.634686 
L 323.440422 63.658632 
L 320.217224 61.781478 
L 316.994026 59.997799 
L 313.770828 58.302529 
L 310.547629 56.690939 
L 307.324431 55.158617 
L 304.101233 53.701441 
L 300.878035 52.315565 
L 297.654836 50.997387 
L 294.431638 49.743535 
L 291.20844 48.550842 
L 287.985242 47.416328 
L 284.762044 46.337185 
L 281.538845 45.310755 
L 278.315647 44.334524 
L 275.092449 43.4061 
L 271.869251 42.523211 
L 268.646052 41.68369 
L 265.422854 40.885471 
L 262.199656 40.126579 
L 258.976458 39.405127 
L 255.75326 38.719311 
L 252.530061 38.067403 
L 249.306863 37.447752 
L 246.083665 36.858779 
L 242.860467 36.298971 
L 239.637268 35.766883 
L 236.41407 35.261134 
L 233.190872 34.780404 
L 229.967674 34.323432 
L 226.744476 33.889014 
L 223.521277 33.476001 
L 220.298079 33.083297 
L 217.074881 32.709859 
L 213.851683 32.354688 
L 210.628484 32.016838 
L 207.405286 31.695404 
L 204.182088 31.389525 
L 200.95889 31.098384 
L 197.735691 30.821201 
L 194.512493 30.557235 
L 191.289295 30.305782 
L 188.066097 30.066173 
L 184.842899 29.83777 
L 181.6197 29.61997 
L 178.396502 29.412198 
L 175.173304 29.213909 
L 171.950106 29.024585 
L 168.726907 28.843734 
L 165.503709 28.67089 
L 162.280511 28.50561 
L 159.057313 28.347474 
L 155.834115 28.196084 
L 152.610916 28.051062 
L 149.387718 27.912049 
L 146.16452 27.778705 
L 142.941322 27.650708 
L 139.718123 27.527753 
L 136.494925 27.409551 
L 133.271727 27.295827 
L 130.048529 27.186321 
L 126.825331 27.080787 
L 123.602132 26.978992 
L 120.378934 26.880716 
L 117.155736 26.785748 
L 113.932538 26.693892 
L 110.709339 26.604959 
L 107.486141 26.518773 
L 104.262943 26.435166 
L 101.039745 26.353979 
L 97.816546 26.275062 
L 94.593348 26.198274 
L 91.37015 26.123479 
L 88.146952 26.050551 
L 84.923754 25.97937 
L 81.700555 25.909823 
L 78.477357 25.841803 
z
" clip-path="url(#p3bf16a745f)" style="fill: #008000; fill-opacity: 0.5"/>
   </g>
   <g id="PolyCollection_2">
    <path d="M 78.477357 28.323425 
L 78.477357 29.723541 
L 81.700555 29.757805 
L 84.923754 29.794811 
L 88.146952 29.834737 
L 91.37015 29.877773 
L 94.593348 29.924124 
L 97.816546 29.974006 
L 101.039745 30.027651 
L 104.262943 30.0853 
L 107.486141 30.147208 
L 110.709339 30.213637 
L 113.932538 30.284856 
L 117.155736 30.361135 
L 120.378934 30.44274 
L 123.602132 30.52993 
L 126.825331 30.62295 
L 130.048529 30.722029 
L 133.271727 30.827376 
L 136.494925 30.939179 
L 139.718123 31.057608 
L 142.941322 31.182822 
L 146.16452 31.314969 
L 149.387718 31.454197 
L 152.610916 31.600659 
L 155.834115 31.754524 
L 159.057313 31.915979 
L 162.280511 32.085234 
L 165.503709 32.262533 
L 168.726907 32.448147 
L 171.950106 32.642389 
L 175.173304 32.845604 
L 178.396502 33.058182 
L 181.6197 33.280552 
L 184.842899 33.513189 
L 188.066097 33.756611 
L 191.289295 34.011388 
L 194.512493 34.278138 
L 197.735691 34.557534 
L 200.95889 34.850306 
L 204.182088 35.157245 
L 207.405286 35.479207 
L 210.628484 35.817114 
L 213.851683 36.171967 
L 217.074881 36.54484 
L 220.298079 36.936896 
L 223.521277 37.349384 
L 226.744476 37.783647 
L 229.967674 38.241128 
L 233.190872 38.723371 
L 236.41407 39.232028 
L 239.637268 39.76886 
L 242.860467 40.335738 
L 246.083665 40.93465 
L 249.306863 41.567692 
L 252.530061 42.23708 
L 255.75326 42.945141 
L 258.976458 43.694321 
L 262.199656 44.487187 
L 265.422854 45.326429 
L 268.646052 46.214867 
L 271.869251 47.15546 
L 275.092449 48.15132 
L 278.315647 49.205715 
L 281.538845 50.322095 
L 284.762044 51.504099 
L 287.985242 52.755576 
L 291.20844 54.080605 
L 294.431638 55.483512 
L 297.654836 56.968898 
L 300.878035 58.541656 
L 304.101233 60.207004 
L 307.324431 61.97051 
L 310.547629 63.838124 
L 313.770828 65.816218 
L 316.994026 67.91162 
L 320.217224 70.131668 
L 323.440422 72.484256 
L 326.663621 74.977903 
L 329.886819 77.621824 
L 333.110017 80.426016 
L 336.333215 83.401367 
L 339.556413 86.559786 
L 342.779612 89.914367 
L 346.00281 93.479591 
L 349.226008 97.271592 
L 352.449206 101.308503 
L 355.672405 105.610921 
L 358.895603 110.202543 
L 362.118801 115.111059 
L 365.341999 120.369454 
L 368.565197 126.01795 
L 371.788396 132.107043 
L 375.011594 138.702472 
L 378.234792 145.893823 
L 381.45799 153.810576 
L 384.681189 162.654969 
L 387.904387 172.778725 
L 391.127585 184.900609 
L 394.350783 200.967837 
L 397.573981 232.185818 
L 397.573981 150.968825 
L 397.573981 150.968825 
L 394.350783 144.454239 
L 391.127585 138.298539 
L 387.904387 132.481792 
L 384.681189 126.98514 
L 381.45799 121.790752 
L 378.234792 116.881762 
L 375.011594 112.242226 
L 371.788396 107.857068 
L 368.565197 103.71204 
L 365.341999 99.793675 
L 362.118801 96.089247 
L 358.895603 92.586734 
L 355.672405 89.274777 
L 352.449206 86.142648 
L 349.226008 83.180215 
L 346.00281 80.377911 
L 342.779612 77.7267 
L 339.556413 75.218056 
L 336.333215 72.843925 
L 333.110017 70.596709 
L 329.886819 68.469235 
L 326.663621 66.454733 
L 323.440422 64.546813 
L 320.217224 62.739448 
L 316.994026 61.026948 
L 313.770828 59.403944 
L 310.547629 57.865372 
L 307.324431 56.406454 
L 304.101233 55.022681 
L 300.878035 53.709803 
L 297.654836 52.46381 
L 294.431638 51.280924 
L 291.20844 50.157584 
L 287.985242 49.090439 
L 284.762044 48.076336 
L 281.538845 47.11231 
L 278.315647 46.19558 
L 275.092449 45.32354 
L 271.869251 44.493752 
L 268.646052 43.703939 
L 265.422854 42.95198 
L 262.199656 42.235901 
L 258.976458 41.55387 
L 255.75326 40.904186 
L 252.530061 40.285272 
L 249.306863 39.695663 
L 246.083665 39.133995 
L 242.860467 38.598997 
L 239.637268 38.089475 
L 236.41407 37.604304 
L 233.190872 37.14242 
L 229.967674 36.702808 
L 226.744476 36.284499 
L 223.521277 35.886558 
L 220.298079 35.508088 
L 217.074881 35.148216 
L 213.851683 34.806102 
L 210.628484 34.480927 
L 207.405286 34.171898 
L 204.182088 33.878246 
L 200.95889 33.599221 
L 197.735691 33.334098 
L 194.512493 33.082173 
L 191.289295 32.84276 
L 188.066097 32.615194 
L 184.842899 32.398829 
L 181.6197 32.193034 
L 178.396502 31.997199 
L 175.173304 31.810723 
L 171.950106 31.633024 
L 168.726907 31.46353 
L 165.503709 31.301681 
L 162.280511 31.146927 
L 159.057313 30.998729 
L 155.834115 30.85656 
L 152.610916 30.719903 
L 149.387718 30.588255 
L 146.16452 30.461132 
L 142.941322 30.338071 
L 139.718123 30.218635 
L 136.494925 30.10242 
L 133.271727 29.989059 
L 130.048529 29.878227 
L 126.825331 29.769644 
L 123.602132 29.663076 
L 120.378934 29.558329 
L 117.155736 29.455251 
L 113.932538 29.353724 
L 110.709339 29.253657 
L 107.486141 29.154984 
L 104.262943 29.057653 
L 101.039745 28.961623 
L 97.816546 28.866863 
L 94.593348 28.773343 
L 91.37015 28.681037 
L 88.146952 28.589919 
L 84.923754 28.499963 
L 81.700555 28.411141 
L 78.477357 28.323425 
z
" clip-path="url(#p3bf16a745f)" style="fill: #ff0000; fill-opacity: 0.6"/>
   </g>
   <g id="matplotlib.axis_1">
    <g id="xtick_1">
     <g id="line2d_1">
      <defs>
       <path id="mc0edf56c4a" d="M 0 0 
L 0 3.5 
" style="stroke: #000000; stroke-width: 0.8"/>
      </defs>
      <g>
       <use xlink:href="#mc0edf56c4a" x="136.240462" y="242.728" style="stroke: #000000; stroke-width: 0.8"/>
      </g>
     </g>
     <g id="text_1">
      <!-- $\mathdefault{10^{0}}$ -->
      <g transform="translate(127.440462 257.326437) scale(0.1 -0.1)">
       <defs>
        <path id="DejaVuSans-31" d="M 794 531 
L 1825 531 
L 1825 4091 
L 703 3866 
L 703 4441 
L 1819 4666 
L 2450 4666 
L 2450 531 
L 3481 531 
L 3481 0 
L 794 0 
L 794 531 
z
" transform="scale(0.015625)"/>
        <path id="DejaVuSans-30" d="M 2034 4250 
Q 1547 4250 1301 3770 
Q 1056 3291 1056 2328 
Q 1056 1369 1301 889 
Q 1547 409 2034 409 
Q 2525 409 2770 889 
Q 3016 1369 3016 2328 
Q 3016 3291 2770 3770 
Q 2525 4250 2034 4250 
z
M 2034 4750 
Q 2819 4750 3233 4129 
Q 3647 3509 3647 2328 
Q 3647 1150 3233 529 
Q 2819 -91 2034 -91 
Q 1250 -91 836 529 
Q 422 1150 422 2328 
Q 422 3509 836 4129 
Q 1250 4750 2034 4750 
z
" transform="scale(0.015625)"/>
       </defs>
       <use xlink:href="#DejaVuSans-31" transform="translate(0 0.765625)"/>
       <use xlink:href="#DejaVuSans-30" transform="translate(63.623047 0.765625)"/>
       <use xlink:href="#DejaVuSans-30" transform="translate(128.203125 39.046875) scale(0.7)"/>
      </g>
     </g>
    </g>
    <g id="xtick_2">
     <g id="line2d_2">
      <g>
       <use xlink:href="#mc0edf56c4a" x="271.954072" y="242.728" style="stroke: #000000; stroke-width: 0.8"/>
      </g>
     </g>
     <g id="text_2">
      <!-- $\mathdefault{10^{1}}$ -->
      <g transform="translate(263.154072 257.326437) scale(0.1 -0.1)">
       <use xlink:href="#DejaVuSans-31" transform="translate(0 0.684375)"/>
       <use xlink:href="#DejaVuSans-30" transform="translate(63.623047 0.684375)"/>
       <use xlink:href="#DejaVuSans-31" transform="translate(128.203125 38.965625) scale(0.7)"/>
      </g>
     </g>
    </g>
    <g id="xtick_3">
     <g id="line2d_3">
      <g>
       <use xlink:href="#mc0edf56c4a" x="407.667682" y="242.728" style="stroke: #000000; stroke-width: 0.8"/>
      </g>
     </g>
     <g id="text_3">
      <!-- $\mathdefault{10^{2}}$ -->
      <g transform="translate(398.867682 257.326437) scale(0.1 -0.1)">
       <defs>
        <path id="DejaVuSans-32" d="M 1228 531 
L 3431 531 
L 3431 0 
L 469 0 
L 469 531 
Q 828 903 1448 1529 
Q 2069 2156 2228 2338 
Q 2531 2678 2651 2914 
Q 2772 3150 2772 3378 
Q 2772 3750 2511 3984 
Q 2250 4219 1831 4219 
Q 1534 4219 1204 4116 
Q 875 4013 500 3803 
L 500 4441 
Q 881 4594 1212 4672 
Q 1544 4750 1819 4750 
Q 2544 4750 2975 4387 
Q 3406 4025 3406 3419 
Q 3406 3131 3298 2873 
Q 3191 2616 2906 2266 
Q 2828 2175 2409 1742 
Q 1991 1309 1228 531 
z
" transform="scale(0.015625)"/>
       </defs>
       <use xlink:href="#DejaVuSans-31" transform="translate(0 0.765625)"/>
       <use xlink:href="#DejaVuSans-30" transform="translate(63.623047 0.765625)"/>
       <use xlink:href="#DejaVuSans-32" transform="translate(128.203125 39.046875) scale(0.7)"/>
      </g>
     </g>
    </g>
    <g id="xtick_4">
     <g id="line2d_4">
      <defs>
       <path id="m0c3de16b67" d="M 0 0 
L 0 2 
" style="stroke: #000000; stroke-width: 0.6"/>
      </defs>
      <g>
       <use xlink:href="#m0c3de16b67" x="65.2787" y="242.728" style="stroke: #000000; stroke-width: 0.6"/>
      </g>
     </g>
    </g>
    <g id="xtick_5">
     <g id="line2d_5">
      <g>
       <use xlink:href="#m0c3de16b67" x="82.234587" y="242.728" style="stroke: #000000; stroke-width: 0.6"/>
      </g>
     </g>
    </g>
    <g id="xtick_6">
     <g id="line2d_6">
      <g>
       <use xlink:href="#m0c3de16b67" x="95.386594" y="242.728" style="stroke: #000000; stroke-width: 0.6"/>
      </g>
     </g>
    </g>
    <g id="xtick_7">
     <g id="line2d_7">
      <g>
       <use xlink:href="#m0c3de16b67" x="106.132567" y="242.728" style="stroke: #000000; stroke-width: 0.6"/>
      </g>
     </g>
    </g>
    <g id="xtick_8">
     <g id="line2d_8">
      <g>
       <use xlink:href="#m0c3de16b67" x="115.218158" y="242.728" style="stroke: #000000; stroke-width: 0.6"/>
      </g>
     </g>
    </g>
    <g id="xtick_9">
     <g id="line2d_9">
      <g>
       <use xlink:href="#m0c3de16b67" x="123.088454" y="242.728" style="stroke: #000000; stroke-width: 0.6"/>
      </g>
     </g>
    </g>
    <g id="xtick_10">
     <g id="line2d_10">
      <g>
       <use xlink:href="#m0c3de16b67" x="130.030548" y="242.728" style="stroke: #000000; stroke-width: 0.6"/>
      </g>
     </g>
    </g>
    <g id="xtick_11">
     <g id="line2d_11">
      <g>
       <use xlink:href="#m0c3de16b67" x="177.094329" y="242.728" style="stroke: #000000; stroke-width: 0.6"/>
      </g>
     </g>
    </g>
    <g id="xtick_12">
     <g id="line2d_12">
      <g>
       <use xlink:href="#m0c3de16b67" x="200.99231" y="242.728" style="stroke: #000000; stroke-width: 0.6"/>
      </g>
     </g>
    </g>
    <g id="xtick_13">
     <g id="line2d_13">
      <g>
       <use xlink:href="#m0c3de16b67" x="217.948197" y="242.728" style="stroke: #000000; stroke-width: 0.6"/>
      </g>
     </g>
    </g>
    <g id="xtick_14">
     <g id="line2d_14">
      <g>
       <use xlink:href="#m0c3de16b67" x="231.100205" y="242.728" style="stroke: #000000; stroke-width: 0.6"/>
      </g>
     </g>
    </g>
    <g id="xtick_15">
     <g id="line2d_15">
      <g>
       <use xlink:href="#m0c3de16b67" x="241.846177" y="242.728" style="stroke: #000000; stroke-width: 0.6"/>
      </g>
     </g>
    </g>
    <g id="xtick_16">
     <g id="line2d_16">
      <g>
       <use xlink:href="#m0c3de16b67" x="250.931768" y="242.728" style="stroke: #000000; stroke-width: 0.6"/>
      </g>
     </g>
    </g>
    <g id="xtick_17">
     <g id="line2d_17">
      <g>
       <use xlink:href="#m0c3de16b67" x="258.802064" y="242.728" style="stroke: #000000; stroke-width: 0.6"/>
      </g>
     </g>
    </g>
    <g id="xtick_18">
     <g id="line2d_18">
      <g>
       <use xlink:href="#m0c3de16b67" x="265.744158" y="242.728" style="stroke: #000000; stroke-width: 0.6"/>
      </g>
     </g>
    </g>
    <g id="xtick_19">
     <g id="line2d_19">
      <g>
       <use xlink:href="#m0c3de16b67" x="312.80794" y="242.728" style="stroke: #000000; stroke-width: 0.6"/>
      </g>
     </g>
    </g>
    <g id="xtick_20">
     <g id="line2d_20">
      <g>
       <use xlink:href="#m0c3de16b67" x="336.70592" y="242.728" style="stroke: #000000; stroke-width: 0.6"/>
      </g>
     </g>
    </g>
    <g id="xtick_21">
     <g id="line2d_21">
      <g>
       <use xlink:href="#m0c3de16b67" x="353.661807" y="242.728" style="stroke: #000000; stroke-width: 0.6"/>
      </g>
     </g>
    </g>
    <g id="xtick_22">
     <g id="line2d_22">
      <g>
       <use xlink:href="#m0c3de16b67" x="366.813815" y="242.728" style="stroke: #000000; stroke-width: 0.6"/>
      </g>
     </g>
    </g>
    <g id="xtick_23">
     <g id="line2d_23">
      <g>
       <use xlink:href="#m0c3de16b67" x="377.559788" y="242.728" style="stroke: #000000; stroke-width: 0.6"/>
      </g>
     </g>
    </g>
    <g id="xtick_24">
     <g id="line2d_24">
      <g>
       <use xlink:href="#m0c3de16b67" x="386.645378" y="242.728" style="stroke: #000000; stroke-width: 0.6"/>
      </g>
     </g>
    </g>
    <g id="xtick_25">
     <g id="line2d_25">
      <g>
       <use xlink:href="#m0c3de16b67" x="394.515675" y="242.728" style="stroke: #000000; stroke-width: 0.6"/>
      </g>
     </g>
    </g>
    <g id="xtick_26">
     <g id="line2d_26">
      <g>
       <use xlink:href="#m0c3de16b67" x="401.457768" y="242.728" style="stroke: #000000; stroke-width: 0.6"/>
      </g>
     </g>
    </g>
    <g id="text_4">
     <!-- Energy [TeV] -->
     <g transform="translate(209.136788 271.004562) scale(0.1 -0.1)">
      <defs>
       <path id="DejaVuSans-45" d="M 628 4666 
L 3578 4666 
L 3578 4134 
L 1259 4134 
L 1259 2753 
L 3481 2753 
L 3481 2222 
L 1259 2222 
L 1259 531 
L 3634 531 
L 3634 0 
L 628 0 
L 628 4666 
z
" transform="scale(0.015625)"/>
       <path id="DejaVuSans-6e" d="M 3513 2113 
L 3513 0 
L 2938 0 
L 2938 2094 
Q 2938 2591 2744 2837 
Q 2550 3084 2163 3084 
Q 1697 3084 1428 2787 
Q 1159 2491 1159 1978 
L 1159 0 
L 581 0 
L 581 3500 
L 1159 3500 
L 1159 2956 
Q 1366 3272 1645 3428 
Q 1925 3584 2291 3584 
Q 2894 3584 3203 3211 
Q 3513 2838 3513 2113 
z
" transform="scale(0.015625)"/>
       <path id="DejaVuSans-65" d="M 3597 1894 
L 3597 1613 
L 953 1613 
Q 991 1019 1311 708 
Q 1631 397 2203 397 
Q 2534 397 2845 478 
Q 3156 559 3463 722 
L 3463 178 
Q 3153 47 2828 -22 
Q 2503 -91 2169 -91 
Q 1331 -91 842 396 
Q 353 884 353 1716 
Q 353 2575 817 3079 
Q 1281 3584 2069 3584 
Q 2775 3584 3186 3129 
Q 3597 2675 3597 1894 
z
M 3022 2063 
Q 3016 2534 2758 2815 
Q 2500 3097 2075 3097 
Q 1594 3097 1305 2825 
Q 1016 2553 972 2059 
L 3022 2063 
z
" transform="scale(0.015625)"/>
       <path id="DejaVuSans-72" d="M 2631 2963 
Q 2534 3019 2420 3045 
Q 2306 3072 2169 3072 
Q 1681 3072 1420 2755 
Q 1159 2438 1159 1844 
L 1159 0 
L 581 0 
L 581 3500 
L 1159 3500 
L 1159 2956 
Q 1341 3275 1631 3429 
Q 1922 3584 2338 3584 
Q 2397 3584 2469 3576 
Q 2541 3569 2628 3553 
L 2631 2963 
z
" transform="scale(0.015625)"/>
       <path id="DejaVuSans-67" d="M 2906 1791 
Q 2906 2416 2648 2759 
Q 2391 3103 1925 3103 
Q 1463 3103 1205 2759 
Q 947 2416 947 1791 
Q 947 1169 1205 825 
Q 1463 481 1925 481 
Q 2391 481 2648 825 
Q 2906 1169 2906 1791 
z
M 3481 434 
Q 3481 -459 3084 -895 
Q 2688 -1331 1869 -1331 
Q 1566 -1331 1297 -1286 
Q 1028 -1241 775 -1147 
L 775 -588 
Q 1028 -725 1275 -790 
Q 1522 -856 1778 -856 
Q 2344 -856 2625 -561 
Q 2906 -266 2906 331 
L 2906 616 
Q 2728 306 2450 153 
Q 2172 0 1784 0 
Q 1141 0 747 490 
Q 353 981 353 1791 
Q 353 2603 747 3093 
Q 1141 3584 1784 3584 
Q 2172 3584 2450 3431 
Q 2728 3278 2906 2969 
L 2906 3500 
L 3481 3500 
L 3481 434 
z
" transform="scale(0.015625)"/>
       <path id="DejaVuSans-79" d="M 2059 -325 
Q 1816 -950 1584 -1140 
Q 1353 -1331 966 -1331 
L 506 -1331 
L 506 -850 
L 844 -850 
Q 1081 -850 1212 -737 
Q 1344 -625 1503 -206 
L 1606 56 
L 191 3500 
L 800 3500 
L 1894 763 
L 2988 3500 
L 3597 3500 
L 2059 -325 
z
" transform="scale(0.015625)"/>
       <path id="DejaVuSans-20" transform="scale(0.015625)"/>
       <path id="DejaVuSans-5b" d="M 550 4863 
L 1875 4863 
L 1875 4416 
L 1125 4416 
L 1125 -397 
L 1875 -397 
L 1875 -844 
L 550 -844 
L 550 4863 
z
" transform="scale(0.015625)"/>
       <path id="DejaVuSans-54" d="M -19 4666 
L 3928 4666 
L 3928 4134 
L 2272 4134 
L 2272 0 
L 1638 0 
L 1638 4134 
L -19 4134 
L -19 4666 
z
" transform="scale(0.015625)"/>
       <path id="DejaVuSans-56" d="M 1831 0 
L 50 4666 
L 709 4666 
L 2188 738 
L 3669 4666 
L 4325 4666 
L 2547 0 
L 1831 0 
z
" transform="scale(0.015625)"/>
       <path id="DejaVuSans-5d" d="M 1947 4863 
L 1947 -844 
L 622 -844 
L 622 -397 
L 1369 -397 
L 1369 4416 
L 622 4416 
L 622 4863 
L 1947 4863 
z
" transform="scale(0.015625)"/>
      </defs>
      <use xlink:href="#DejaVuSans-45"/>
      <use xlink:href="#DejaVuSans-6e" x="63.183594"/>
      <use xlink:href="#DejaVuSans-65" x="126.5625"/>
      <use xlink:href="#DejaVuSans-72" x="188.085938"/>
      <use xlink:href="#DejaVuSans-67" x="227.449219"/>
      <use xlink:href="#DejaVuSans-79" x="290.925781"/>
      <use xlink:href="#DejaVuSans-20" x="350.105469"/>
      <use xlink:href="#DejaVuSans-5b" x="381.892578"/>
      <use xlink:href="#DejaVuSans-54" x="420.90625"/>
      <use xlink:href="#DejaVuSans-65" x="464.990234"/>
      <use xlink:href="#DejaVuSans-56" x="526.513672"/>
      <use xlink:href="#DejaVuSans-5d" x="594.921875"/>
     </g>
    </g>
   </g>
   <g id="matplotlib.axis_2">
    <g id="ytick_1">
     <g id="line2d_27">
      <defs>
       <path id="m57c01bbee2" d="M 0 0 
L -3.5 0 
" style="stroke: #000000; stroke-width: 0.8"/>
      </defs>
      <g>
       <use xlink:href="#m57c01bbee2" x="60.468889" y="208.859774" style="stroke: #000000; stroke-width: 0.8"/>
      </g>
     </g>
     <g id="text_5">
      <!-- $\mathdefault{10^{-16}}$ -->
      <g transform="translate(25.568889 212.658993) scale(0.1 -0.1)">
       <defs>
        <path id="DejaVuSans-2212" d="M 678 2272 
L 4684 2272 
L 4684 1741 
L 678 1741 
L 678 2272 
z
" transform="scale(0.015625)"/>
        <path id="DejaVuSans-36" d="M 2113 2584 
Q 1688 2584 1439 2293 
Q 1191 2003 1191 1497 
Q 1191 994 1439 701 
Q 1688 409 2113 409 
Q 2538 409 2786 701 
Q 3034 994 3034 1497 
Q 3034 2003 2786 2293 
Q 2538 2584 2113 2584 
z
M 3366 4563 
L 3366 3988 
Q 3128 4100 2886 4159 
Q 2644 4219 2406 4219 
Q 1781 4219 1451 3797 
Q 1122 3375 1075 2522 
Q 1259 2794 1537 2939 
Q 1816 3084 2150 3084 
Q 2853 3084 3261 2657 
Q 3669 2231 3669 1497 
Q 3669 778 3244 343 
Q 2819 -91 2113 -91 
Q 1303 -91 875 529 
Q 447 1150 447 2328 
Q 447 3434 972 4092 
Q 1497 4750 2381 4750 
Q 2619 4750 2861 4703 
Q 3103 4656 3366 4563 
z
" transform="scale(0.015625)"/>
       </defs>
       <use xlink:href="#DejaVuSans-31" transform="translate(0 0.765625)"/>
       <use xlink:href="#DejaVuSans-30" transform="translate(63.623047 0.765625)"/>
       <use xlink:href="#DejaVuSans-2212" transform="translate(128.203125 39.046875) scale(0.7)"/>
       <use xlink:href="#DejaVuSans-31" transform="translate(186.855469 39.046875) scale(0.7)"/>
       <use xlink:href="#DejaVuSans-36" transform="translate(231.391602 39.046875) scale(0.7)"/>
      </g>
     </g>
    </g>
    <g id="ytick_2">
     <g id="line2d_28">
      <g>
       <use xlink:href="#m57c01bbee2" x="60.468889" y="168.307712" style="stroke: #000000; stroke-width: 0.8"/>
      </g>
     </g>
     <g id="text_6">
      <!-- $\mathdefault{10^{-15}}$ -->
      <g transform="translate(25.568889 172.10693) scale(0.1 -0.1)">
       <defs>
        <path id="DejaVuSans-35" d="M 691 4666 
L 3169 4666 
L 3169 4134 
L 1269 4134 
L 1269 2991 
Q 1406 3038 1543 3061 
Q 1681 3084 1819 3084 
Q 2600 3084 3056 2656 
Q 3513 2228 3513 1497 
Q 3513 744 3044 326 
Q 2575 -91 1722 -91 
Q 1428 -91 1123 -41 
Q 819 9 494 109 
L 494 744 
Q 775 591 1075 516 
Q 1375 441 1709 441 
Q 2250 441 2565 725 
Q 2881 1009 2881 1497 
Q 2881 1984 2565 2268 
Q 2250 2553 1709 2553 
Q 1456 2553 1204 2497 
Q 953 2441 691 2322 
L 691 4666 
z
" transform="scale(0.015625)"/>
       </defs>
       <use xlink:href="#DejaVuSans-31" transform="translate(0 0.684375)"/>
       <use xlink:href="#DejaVuSans-30" transform="translate(63.623047 0.684375)"/>
       <use xlink:href="#DejaVuSans-2212" transform="translate(128.203125 38.965625) scale(0.7)"/>
       <use xlink:href="#DejaVuSans-31" transform="translate(186.855469 38.965625) scale(0.7)"/>
       <use xlink:href="#DejaVuSans-35" transform="translate(231.391602 38.965625) scale(0.7)"/>
      </g>
     </g>
    </g>
    <g id="ytick_3">
     <g id="line2d_29">
      <g>
       <use xlink:href="#m57c01bbee2" x="60.468889" y="127.755649" style="stroke: #000000; stroke-width: 0.8"/>
      </g>
     </g>
     <g id="text_7">
      <!-- $\mathdefault{10^{-14}}$ -->
      <g transform="translate(25.568889 131.554868) scale(0.1 -0.1)">
       <defs>
        <path id="DejaVuSans-34" d="M 2419 4116 
L 825 1625 
L 2419 1625 
L 2419 4116 
z
M 2253 4666 
L 3047 4666 
L 3047 1625 
L 3713 1625 
L 3713 1100 
L 3047 1100 
L 3047 0 
L 2419 0 
L 2419 1100 
L 313 1100 
L 313 1709 
L 2253 4666 
z
" transform="scale(0.015625)"/>
       </defs>
       <use xlink:href="#DejaVuSans-31" transform="translate(0 0.684375)"/>
       <use xlink:href="#DejaVuSans-30" transform="translate(63.623047 0.684375)"/>
       <use xlink:href="#DejaVuSans-2212" transform="translate(128.203125 38.965625) scale(0.7)"/>
       <use xlink:href="#DejaVuSans-31" transform="translate(186.855469 38.965625) scale(0.7)"/>
       <use xlink:href="#DejaVuSans-34" transform="translate(231.391602 38.965625) scale(0.7)"/>
      </g>
     </g>
    </g>
    <g id="ytick_4">
     <g id="line2d_30">
      <g>
       <use xlink:href="#m57c01bbee2" x="60.468889" y="87.203587" style="stroke: #000000; stroke-width: 0.8"/>
      </g>
     </g>
     <g id="text_8">
      <!-- $\mathdefault{10^{-13}}$ -->
      <g transform="translate(25.568889 91.002805) scale(0.1 -0.1)">
       <defs>
        <path id="DejaVuSans-33" d="M 2597 2516 
Q 3050 2419 3304 2112 
Q 3559 1806 3559 1356 
Q 3559 666 3084 287 
Q 2609 -91 1734 -91 
Q 1441 -91 1130 -33 
Q 819 25 488 141 
L 488 750 
Q 750 597 1062 519 
Q 1375 441 1716 441 
Q 2309 441 2620 675 
Q 2931 909 2931 1356 
Q 2931 1769 2642 2001 
Q 2353 2234 1838 2234 
L 1294 2234 
L 1294 2753 
L 1863 2753 
Q 2328 2753 2575 2939 
Q 2822 3125 2822 3475 
Q 2822 3834 2567 4026 
Q 2313 4219 1838 4219 
Q 1578 4219 1281 4162 
Q 984 4106 628 3988 
L 628 4550 
Q 988 4650 1302 4700 
Q 1616 4750 1894 4750 
Q 2613 4750 3031 4423 
Q 3450 4097 3450 3541 
Q 3450 3153 3228 2886 
Q 3006 2619 2597 2516 
z
" transform="scale(0.015625)"/>
       </defs>
       <use xlink:href="#DejaVuSans-31" transform="translate(0 0.765625)"/>
       <use xlink:href="#DejaVuSans-30" transform="translate(63.623047 0.765625)"/>
       <use xlink:href="#DejaVuSans-2212" transform="translate(128.203125 39.046875) scale(0.7)"/>
       <use xlink:href="#DejaVuSans-31" transform="translate(186.855469 39.046875) scale(0.7)"/>
       <use xlink:href="#DejaVuSans-33" transform="translate(231.391602 39.046875) scale(0.7)"/>
      </g>
     </g>
    </g>
    <g id="ytick_5">
     <g id="line2d_31">
      <g>
       <use xlink:href="#m57c01bbee2" x="60.468889" y="46.651524" style="stroke: #000000; stroke-width: 0.8"/>
      </g>
     </g>
     <g id="text_9">
      <!-- $\mathdefault{10^{-12}}$ -->
      <g transform="translate(25.568889 50.450743) scale(0.1 -0.1)">
       <use xlink:href="#DejaVuSans-31" transform="translate(0 0.765625)"/>
       <use xlink:href="#DejaVuSans-30" transform="translate(63.623047 0.765625)"/>
       <use xlink:href="#DejaVuSans-2212" transform="translate(128.203125 39.046875) scale(0.7)"/>
       <use xlink:href="#DejaVuSans-31" transform="translate(186.855469 39.046875) scale(0.7)"/>
       <use xlink:href="#DejaVuSans-32" transform="translate(231.391602 39.046875) scale(0.7)"/>
      </g>
     </g>
    </g>
    <g id="ytick_6">
     <g id="line2d_32">
      <defs>
       <path id="mebfafbe4ce" d="M 0 0 
L -2 0 
" style="stroke: #000000; stroke-width: 0.6"/>
      </defs>
      <g>
       <use xlink:href="#mebfafbe4ce" x="60.468889" y="237.20445" style="stroke: #000000; stroke-width: 0.6"/>
      </g>
     </g>
    </g>
    <g id="ytick_7">
     <g id="line2d_33">
      <g>
       <use xlink:href="#mebfafbe4ce" x="60.468889" y="230.063586" style="stroke: #000000; stroke-width: 0.6"/>
      </g>
     </g>
    </g>
    <g id="ytick_8">
     <g id="line2d_34">
      <g>
       <use xlink:href="#mebfafbe4ce" x="60.468889" y="224.997062" style="stroke: #000000; stroke-width: 0.6"/>
      </g>
     </g>
    </g>
    <g id="ytick_9">
     <g id="line2d_35">
      <g>
       <use xlink:href="#mebfafbe4ce" x="60.468889" y="221.067161" style="stroke: #000000; stroke-width: 0.6"/>
      </g>
     </g>
    </g>
    <g id="ytick_10">
     <g id="line2d_36">
      <g>
       <use xlink:href="#mebfafbe4ce" x="60.468889" y="217.856199" style="stroke: #000000; stroke-width: 0.6"/>
      </g>
     </g>
    </g>
    <g id="ytick_11">
     <g id="line2d_37">
      <g>
       <use xlink:href="#mebfafbe4ce" x="60.468889" y="215.141368" style="stroke: #000000; stroke-width: 0.6"/>
      </g>
     </g>
    </g>
    <g id="ytick_12">
     <g id="line2d_38">
      <g>
       <use xlink:href="#mebfafbe4ce" x="60.468889" y="212.789675" style="stroke: #000000; stroke-width: 0.6"/>
      </g>
     </g>
    </g>
    <g id="ytick_13">
     <g id="line2d_39">
      <g>
       <use xlink:href="#mebfafbe4ce" x="60.468889" y="210.715335" style="stroke: #000000; stroke-width: 0.6"/>
      </g>
     </g>
    </g>
    <g id="ytick_14">
     <g id="line2d_40">
      <g>
       <use xlink:href="#mebfafbe4ce" x="60.468889" y="196.652387" style="stroke: #000000; stroke-width: 0.6"/>
      </g>
     </g>
    </g>
    <g id="ytick_15">
     <g id="line2d_41">
      <g>
       <use xlink:href="#mebfafbe4ce" x="60.468889" y="189.511523" style="stroke: #000000; stroke-width: 0.6"/>
      </g>
     </g>
    </g>
    <g id="ytick_16">
     <g id="line2d_42">
      <g>
       <use xlink:href="#mebfafbe4ce" x="60.468889" y="184.445" style="stroke: #000000; stroke-width: 0.6"/>
      </g>
     </g>
    </g>
    <g id="ytick_17">
     <g id="line2d_43">
      <g>
       <use xlink:href="#mebfafbe4ce" x="60.468889" y="180.515099" style="stroke: #000000; stroke-width: 0.6"/>
      </g>
     </g>
    </g>
    <g id="ytick_18">
     <g id="line2d_44">
      <g>
       <use xlink:href="#mebfafbe4ce" x="60.468889" y="177.304136" style="stroke: #000000; stroke-width: 0.6"/>
      </g>
     </g>
    </g>
    <g id="ytick_19">
     <g id="line2d_45">
      <g>
       <use xlink:href="#mebfafbe4ce" x="60.468889" y="174.589306" style="stroke: #000000; stroke-width: 0.6"/>
      </g>
     </g>
    </g>
    <g id="ytick_20">
     <g id="line2d_46">
      <g>
       <use xlink:href="#mebfafbe4ce" x="60.468889" y="172.237613" style="stroke: #000000; stroke-width: 0.6"/>
      </g>
     </g>
    </g>
    <g id="ytick_21">
     <g id="line2d_47">
      <g>
       <use xlink:href="#mebfafbe4ce" x="60.468889" y="170.163272" style="stroke: #000000; stroke-width: 0.6"/>
      </g>
     </g>
    </g>
    <g id="ytick_22">
     <g id="line2d_48">
      <g>
       <use xlink:href="#mebfafbe4ce" x="60.468889" y="156.100325" style="stroke: #000000; stroke-width: 0.6"/>
      </g>
     </g>
    </g>
    <g id="ytick_23">
     <g id="line2d_49">
      <g>
       <use xlink:href="#mebfafbe4ce" x="60.468889" y="148.959461" style="stroke: #000000; stroke-width: 0.6"/>
      </g>
     </g>
    </g>
    <g id="ytick_24">
     <g id="line2d_50">
      <g>
       <use xlink:href="#mebfafbe4ce" x="60.468889" y="143.892937" style="stroke: #000000; stroke-width: 0.6"/>
      </g>
     </g>
    </g>
    <g id="ytick_25">
     <g id="line2d_51">
      <g>
       <use xlink:href="#mebfafbe4ce" x="60.468889" y="139.963036" style="stroke: #000000; stroke-width: 0.6"/>
      </g>
     </g>
    </g>
    <g id="ytick_26">
     <g id="line2d_52">
      <g>
       <use xlink:href="#mebfafbe4ce" x="60.468889" y="136.752074" style="stroke: #000000; stroke-width: 0.6"/>
      </g>
     </g>
    </g>
    <g id="ytick_27">
     <g id="line2d_53">
      <g>
       <use xlink:href="#mebfafbe4ce" x="60.468889" y="134.037243" style="stroke: #000000; stroke-width: 0.6"/>
      </g>
     </g>
    </g>
    <g id="ytick_28">
     <g id="line2d_54">
      <g>
       <use xlink:href="#mebfafbe4ce" x="60.468889" y="131.68555" style="stroke: #000000; stroke-width: 0.6"/>
      </g>
     </g>
    </g>
    <g id="ytick_29">
     <g id="line2d_55">
      <g>
       <use xlink:href="#mebfafbe4ce" x="60.468889" y="129.61121" style="stroke: #000000; stroke-width: 0.6"/>
      </g>
     </g>
    </g>
    <g id="ytick_30">
     <g id="line2d_56">
      <g>
       <use xlink:href="#mebfafbe4ce" x="60.468889" y="115.548262" style="stroke: #000000; stroke-width: 0.6"/>
      </g>
     </g>
    </g>
    <g id="ytick_31">
     <g id="line2d_57">
      <g>
       <use xlink:href="#mebfafbe4ce" x="60.468889" y="108.407398" style="stroke: #000000; stroke-width: 0.6"/>
      </g>
     </g>
    </g>
    <g id="ytick_32">
     <g id="line2d_58">
      <g>
       <use xlink:href="#mebfafbe4ce" x="60.468889" y="103.340875" style="stroke: #000000; stroke-width: 0.6"/>
      </g>
     </g>
    </g>
    <g id="ytick_33">
     <g id="line2d_59">
      <g>
       <use xlink:href="#mebfafbe4ce" x="60.468889" y="99.410974" style="stroke: #000000; stroke-width: 0.6"/>
      </g>
     </g>
    </g>
    <g id="ytick_34">
     <g id="line2d_60">
      <g>
       <use xlink:href="#mebfafbe4ce" x="60.468889" y="96.200011" style="stroke: #000000; stroke-width: 0.6"/>
      </g>
     </g>
    </g>
    <g id="ytick_35">
     <g id="line2d_61">
      <g>
       <use xlink:href="#mebfafbe4ce" x="60.468889" y="93.485181" style="stroke: #000000; stroke-width: 0.6"/>
      </g>
     </g>
    </g>
    <g id="ytick_36">
     <g id="line2d_62">
      <g>
       <use xlink:href="#mebfafbe4ce" x="60.468889" y="91.133488" style="stroke: #000000; stroke-width: 0.6"/>
      </g>
     </g>
    </g>
    <g id="ytick_37">
     <g id="line2d_63">
      <g>
       <use xlink:href="#mebfafbe4ce" x="60.468889" y="89.059147" style="stroke: #000000; stroke-width: 0.6"/>
      </g>
     </g>
    </g>
    <g id="ytick_38">
     <g id="line2d_64">
      <g>
       <use xlink:href="#mebfafbe4ce" x="60.468889" y="74.9962" style="stroke: #000000; stroke-width: 0.6"/>
      </g>
     </g>
    </g>
    <g id="ytick_39">
     <g id="line2d_65">
      <g>
       <use xlink:href="#mebfafbe4ce" x="60.468889" y="67.855336" style="stroke: #000000; stroke-width: 0.6"/>
      </g>
     </g>
    </g>
    <g id="ytick_40">
     <g id="line2d_66">
      <g>
       <use xlink:href="#mebfafbe4ce" x="60.468889" y="62.788812" style="stroke: #000000; stroke-width: 0.6"/>
      </g>
     </g>
    </g>
    <g id="ytick_41">
     <g id="line2d_67">
      <g>
       <use xlink:href="#mebfafbe4ce" x="60.468889" y="58.858911" style="stroke: #000000; stroke-width: 0.6"/>
      </g>
     </g>
    </g>
    <g id="ytick_42">
     <g id="line2d_68">
      <g>
       <use xlink:href="#mebfafbe4ce" x="60.468889" y="55.647949" style="stroke: #000000; stroke-width: 0.6"/>
      </g>
     </g>
    </g>
    <g id="ytick_43">
     <g id="line2d_69">
      <g>
       <use xlink:href="#mebfafbe4ce" x="60.468889" y="52.933118" style="stroke: #000000; stroke-width: 0.6"/>
      </g>
     </g>
    </g>
    <g id="ytick_44">
     <g id="line2d_70">
      <g>
       <use xlink:href="#mebfafbe4ce" x="60.468889" y="50.581425" style="stroke: #000000; stroke-width: 0.6"/>
      </g>
     </g>
    </g>
    <g id="ytick_45">
     <g id="line2d_71">
      <g>
       <use xlink:href="#mebfafbe4ce" x="60.468889" y="48.507085" style="stroke: #000000; stroke-width: 0.6"/>
      </g>
     </g>
    </g>
    <g id="ytick_46">
     <g id="line2d_72">
      <g>
       <use xlink:href="#mebfafbe4ce" x="60.468889" y="34.444137" style="stroke: #000000; stroke-width: 0.6"/>
      </g>
     </g>
    </g>
    <g id="ytick_47">
     <g id="line2d_73">
      <g>
       <use xlink:href="#mebfafbe4ce" x="60.468889" y="27.303273" style="stroke: #000000; stroke-width: 0.6"/>
      </g>
     </g>
    </g>
    <g id="ytick_48">
     <g id="line2d_74">
      <g>
       <use xlink:href="#mebfafbe4ce" x="60.468889" y="22.23675" style="stroke: #000000; stroke-width: 0.6"/>
      </g>
     </g>
    </g>
    <g id="ytick_49">
     <g id="line2d_75">
      <g>
       <use xlink:href="#mebfafbe4ce" x="60.468889" y="18.306849" style="stroke: #000000; stroke-width: 0.6"/>
      </g>
     </g>
    </g>
    <g id="ytick_50">
     <g id="line2d_76">
      <g>
       <use xlink:href="#mebfafbe4ce" x="60.468889" y="15.095886" style="stroke: #000000; stroke-width: 0.6"/>
      </g>
     </g>
    </g>
    <g id="ytick_51">
     <g id="line2d_77">
      <g>
       <use xlink:href="#mebfafbe4ce" x="60.468889" y="12.381056" style="stroke: #000000; stroke-width: 0.6"/>
      </g>
     </g>
    </g>
    <g id="text_10">
     <!-- e2 * dnde [TeV / (cm2 s)] -->
     <g transform="translate(19.489202 189.243688) rotate(-90) scale(0.1 -0.1)">
      <defs>
       <path id="DejaVuSans-2a" d="M 3009 3897 
L 1888 3291 
L 3009 2681 
L 2828 2375 
L 1778 3009 
L 1778 1831 
L 1422 1831 
L 1422 3009 
L 372 2375 
L 191 2681 
L 1313 3291 
L 191 3897 
L 372 4206 
L 1422 3572 
L 1422 4750 
L 1778 4750 
L 1778 3572 
L 2828 4206 
L 3009 3897 
z
" transform="scale(0.015625)"/>
       <path id="DejaVuSans-64" d="M 2906 2969 
L 2906 4863 
L 3481 4863 
L 3481 0 
L 2906 0 
L 2906 525 
Q 2725 213 2448 61 
Q 2172 -91 1784 -91 
Q 1150 -91 751 415 
Q 353 922 353 1747 
Q 353 2572 751 3078 
Q 1150 3584 1784 3584 
Q 2172 3584 2448 3432 
Q 2725 3281 2906 2969 
z
M 947 1747 
Q 947 1113 1208 752 
Q 1469 391 1925 391 
Q 2381 391 2643 752 
Q 2906 1113 2906 1747 
Q 2906 2381 2643 2742 
Q 2381 3103 1925 3103 
Q 1469 3103 1208 2742 
Q 947 2381 947 1747 
z
" transform="scale(0.015625)"/>
       <path id="DejaVuSans-2f" d="M 1625 4666 
L 2156 4666 
L 531 -594 
L 0 -594 
L 1625 4666 
z
" transform="scale(0.015625)"/>
       <path id="DejaVuSans-28" d="M 1984 4856 
Q 1566 4138 1362 3434 
Q 1159 2731 1159 2009 
Q 1159 1288 1364 580 
Q 1569 -128 1984 -844 
L 1484 -844 
Q 1016 -109 783 600 
Q 550 1309 550 2009 
Q 550 2706 781 3412 
Q 1013 4119 1484 4856 
L 1984 4856 
z
" transform="scale(0.015625)"/>
       <path id="DejaVuSans-63" d="M 3122 3366 
L 3122 2828 
Q 2878 2963 2633 3030 
Q 2388 3097 2138 3097 
Q 1578 3097 1268 2742 
Q 959 2388 959 1747 
Q 959 1106 1268 751 
Q 1578 397 2138 397 
Q 2388 397 2633 464 
Q 2878 531 3122 666 
L 3122 134 
Q 2881 22 2623 -34 
Q 2366 -91 2075 -91 
Q 1284 -91 818 406 
Q 353 903 353 1747 
Q 353 2603 823 3093 
Q 1294 3584 2113 3584 
Q 2378 3584 2631 3529 
Q 2884 3475 3122 3366 
z
" transform="scale(0.015625)"/>
       <path id="DejaVuSans-6d" d="M 3328 2828 
Q 3544 3216 3844 3400 
Q 4144 3584 4550 3584 
Q 5097 3584 5394 3201 
Q 5691 2819 5691 2113 
L 5691 0 
L 5113 0 
L 5113 2094 
Q 5113 2597 4934 2840 
Q 4756 3084 4391 3084 
Q 3944 3084 3684 2787 
Q 3425 2491 3425 1978 
L 3425 0 
L 2847 0 
L 2847 2094 
Q 2847 2600 2669 2842 
Q 2491 3084 2119 3084 
Q 1678 3084 1418 2786 
Q 1159 2488 1159 1978 
L 1159 0 
L 581 0 
L 581 3500 
L 1159 3500 
L 1159 2956 
Q 1356 3278 1631 3431 
Q 1906 3584 2284 3584 
Q 2666 3584 2933 3390 
Q 3200 3197 3328 2828 
z
" transform="scale(0.015625)"/>
       <path id="DejaVuSans-73" d="M 2834 3397 
L 2834 2853 
Q 2591 2978 2328 3040 
Q 2066 3103 1784 3103 
Q 1356 3103 1142 2972 
Q 928 2841 928 2578 
Q 928 2378 1081 2264 
Q 1234 2150 1697 2047 
L 1894 2003 
Q 2506 1872 2764 1633 
Q 3022 1394 3022 966 
Q 3022 478 2636 193 
Q 2250 -91 1575 -91 
Q 1294 -91 989 -36 
Q 684 19 347 128 
L 347 722 
Q 666 556 975 473 
Q 1284 391 1588 391 
Q 1994 391 2212 530 
Q 2431 669 2431 922 
Q 2431 1156 2273 1281 
Q 2116 1406 1581 1522 
L 1381 1569 
Q 847 1681 609 1914 
Q 372 2147 372 2553 
Q 372 3047 722 3315 
Q 1072 3584 1716 3584 
Q 2034 3584 2315 3537 
Q 2597 3491 2834 3397 
z
" transform="scale(0.015625)"/>
       <path id="DejaVuSans-29" d="M 513 4856 
L 1013 4856 
Q 1481 4119 1714 3412 
Q 1947 2706 1947 2009 
Q 1947 1309 1714 600 
Q 1481 -109 1013 -844 
L 513 -844 
Q 928 -128 1133 580 
Q 1338 1288 1338 2009 
Q 1338 2731 1133 3434 
Q 928 4138 513 4856 
z
" transform="scale(0.015625)"/>
      </defs>
      <use xlink:href="#DejaVuSans-65"/>
      <use xlink:href="#DejaVuSans-32" x="61.523438"/>
      <use xlink:href="#DejaVuSans-20" x="125.146484"/>
      <use xlink:href="#DejaVuSans-2a" x="156.933594"/>
      <use xlink:href="#DejaVuSans-20" x="206.933594"/>
      <use xlink:href="#DejaVuSans-64" x="238.720703"/>
      <use xlink:href="#DejaVuSans-6e" x="302.197266"/>
      <use xlink:href="#DejaVuSans-64" x="365.576172"/>
      <use xlink:href="#DejaVuSans-65" x="429.052734"/>
      <use xlink:href="#DejaVuSans-20" x="490.576172"/>
      <use xlink:href="#DejaVuSans-5b" x="522.363281"/>
      <use xlink:href="#DejaVuSans-54" x="561.376953"/>
      <use xlink:href="#DejaVuSans-65" x="605.460938"/>
      <use xlink:href="#DejaVuSans-56" x="666.984375"/>
      <use xlink:href="#DejaVuSans-20" x="735.392578"/>
      <use xlink:href="#DejaVuSans-2f" x="767.179688"/>
      <use xlink:href="#DejaVuSans-20" x="800.871094"/>
      <use xlink:href="#DejaVuSans-28" x="832.658203"/>
      <use xlink:href="#DejaVuSans-63" x="871.671875"/>
      <use xlink:href="#DejaVuSans-6d" x="926.652344"/>
      <use xlink:href="#DejaVuSans-32" x="1024.064453"/>
      <use xlink:href="#DejaVuSans-20" x="1087.6875"/>
      <use xlink:href="#DejaVuSans-73" x="1119.474609"/>
      <use xlink:href="#DejaVuSans-29" x="1171.574219"/>
      <use xlink:href="#DejaVuSans-5d" x="1210.587891"/>
     </g>
    </g>
   </g>
   <g id="line2d_78">
    <path d="M 78.477357 29.009573 
L 81.700555 29.071604 
L 84.923754 29.135489 
L 88.146952 29.201332 
L 91.37015 29.269242 
L 94.593348 29.339336 
L 97.816546 29.411736 
L 101.039745 29.486572 
L 104.262943 29.563982 
L 107.486141 29.644109 
L 110.709339 29.727107 
L 113.932538 29.813137 
L 117.155736 29.902369 
L 120.378934 29.994983 
L 123.602132 30.09117 
L 126.825331 30.19113 
L 130.048529 30.295075 
L 133.271727 30.40323 
L 136.494925 30.51583 
L 139.718123 30.633126 
L 142.941322 30.755382 
L 146.16452 30.882877 
L 149.387718 31.015904 
L 152.610916 31.154776 
L 155.834115 31.29982 
L 159.057313 31.451383 
L 162.280511 31.609833 
L 165.503709 31.775555 
L 168.726907 31.948959 
L 171.950106 32.130476 
L 175.173304 32.320563 
L 178.396502 32.519702 
L 181.6197 32.7284 
L 184.842899 32.947196 
L 188.066097 33.176657 
L 191.289295 33.417382 
L 194.512493 33.670005 
L 197.735691 33.935195 
L 200.95889 34.213657 
L 204.182088 34.506138 
L 207.405286 34.813425 
L 210.628484 35.136352 
L 213.851683 35.475796 
L 217.074881 35.832688 
L 220.298079 36.208006 
L 223.521277 36.602788 
L 226.744476 37.018126 
L 229.967674 37.455177 
L 233.190872 37.915161 
L 236.41407 38.399367 
L 239.637268 38.909157 
L 242.860467 39.445968 
L 246.083665 40.01132 
L 249.306863 40.606816 
L 252.530061 41.234151 
L 255.75326 41.895115 
L 258.976458 42.591597 
L 262.199656 43.325596 
L 265.422854 44.099218 
L 268.646052 44.914692 
L 271.869251 45.77437 
L 275.092449 46.680736 
L 278.315647 47.636415 
L 281.538845 48.644179 
L 284.762044 49.706955 
L 287.985242 50.827835 
L 291.20844 52.010087 
L 294.431638 53.257158 
L 297.654836 54.572693 
L 300.878035 55.96054 
L 304.101233 57.424763 
L 307.324431 58.969657 
L 310.547629 60.599754 
L 313.770828 62.319844 
L 316.994026 64.134986 
L 320.217224 66.050523 
L 323.440422 68.072098 
L 326.663621 70.20567 
L 329.886819 72.457536 
L 333.110017 74.834344 
L 336.333215 77.343117 
L 339.556413 79.991274 
L 342.779612 82.786648 
L 346.00281 85.737515 
L 349.226008 88.852615 
L 352.449206 92.141179 
L 355.672405 95.612958 
L 358.895603 99.27825 
L 362.118801 103.147932 
L 365.341999 107.233493 
L 368.565197 111.547067 
L 371.788396 116.101471 
L 375.011594 120.910241 
L 378.234792 125.987676 
L 381.45799 131.348877 
L 384.681189 137.009794 
L 387.904387 142.987273 
L 391.127585 149.29911 
L 394.350783 155.964097 
L 397.573981 163.002085 
" clip-path="url(#p3bf16a745f)" style="fill: none; stroke-dasharray: 1.5,2.475; stroke-dashoffset: 0; stroke: #000000; stroke-width: 1.5"/>
   </g>
   <g id="LineCollection_1">
    <path clip-path="url(#p3bf16a745f)" style="fill: none; stroke: #8b0000; stroke-width: 1.5"/>
    <path clip-path="url(#p3bf16a745f)" style="fill: none; stroke: #8b0000; stroke-width: 1.5"/>
    <path clip-path="url(#p3bf16a745f)" style="fill: none; stroke: #8b0000; stroke-width: 1.5"/>
    <path clip-path="url(#p3bf16a745f)" style="fill: none; stroke: #8b0000; stroke-width: 1.5"/>
    <path d="M 82.483309 28.245928 
L 82.483309 26.022668 
" clip-path="url(#p3bf16a745f)" style="fill: none; stroke: #8b0000; stroke-width: 1.5"/>
    <path d="M 99.447511 30.284706 
L 99.447511 28.190876 
" clip-path="url(#p3bf16a745f)" style="fill: none; stroke: #8b0000; stroke-width: 1.5"/>
    <path d="M 116.411711 31.162202 
L 116.411711 29.147115 
" clip-path="url(#p3bf16a745f)" style="fill: none; stroke: #8b0000; stroke-width: 1.5"/>
    <path d="M 133.375912 31.035007 
L 133.375912 29.05946 
" clip-path="url(#p3bf16a745f)" style="fill: none; stroke: #8b0000; stroke-width: 1.5"/>
    <path d="M 150.340115 33.275235 
L 150.340115 31.049138 
" clip-path="url(#p3bf16a745f)" style="fill: none; stroke: #8b0000; stroke-width: 1.5"/>
    <path d="M 167.304316 34.634418 
L 167.304316 32.238204 
" clip-path="url(#p3bf16a745f)" style="fill: none; stroke: #8b0000; stroke-width: 1.5"/>
    <path d="M 184.268515 34.533396 
L 184.268515 31.963903 
" clip-path="url(#p3bf16a745f)" style="fill: none; stroke: #8b0000; stroke-width: 1.5"/>
    <path d="M 201.232717 35.352037 
L 201.232717 32.523098 
" clip-path="url(#p3bf16a745f)" style="fill: none; stroke: #8b0000; stroke-width: 1.5"/>
    <path d="M 218.19692 36.260913 
L 218.19692 33.080558 
" clip-path="url(#p3bf16a745f)" style="fill: none; stroke: #8b0000; stroke-width: 1.5"/>
    <path d="M 235.16112 35.568867 
L 235.16112 32.064346 
" clip-path="url(#p3bf16a745f)" style="fill: none; stroke: #8b0000; stroke-width: 1.5"/>
    <path d="M 252.125319 41.374296 
L 252.125319 36.714797 
" clip-path="url(#p3bf16a745f)" style="fill: none; stroke: #8b0000; stroke-width: 1.5"/>
    <path d="M 269.089521 43.240255 
L 269.089521 37.794932 
" clip-path="url(#p3bf16a745f)" style="fill: none; stroke: #8b0000; stroke-width: 1.5"/>
    <path d="M 286.053724 48.568638 
L 286.053724 41.673526 
" clip-path="url(#p3bf16a745f)" style="fill: none; stroke: #8b0000; stroke-width: 1.5"/>
    <path d="M 303.017927 65.103566 
L 303.017927 53.568361 
" clip-path="url(#p3bf16a745f)" style="fill: none; stroke: #8b0000; stroke-width: 1.5"/>
    <path d="M 319.982128 102.125807 
L 319.982128 67.774931 
" clip-path="url(#p3bf16a745f)" style="fill: none; stroke: #8b0000; stroke-width: 1.5"/>
    <path clip-path="url(#p3bf16a745f)" style="fill: none; stroke: #8b0000; stroke-width: 1.5"/>
    <path d="M 353.910529 105.008201 
L 353.910529 68.323355 
" clip-path="url(#p3bf16a745f)" style="fill: none; stroke: #8b0000; stroke-width: 1.5"/>
    <path d="M 370.87473 289 
L 370.87473 88.463758 
" clip-path="url(#p3bf16a745f)" style="fill: none; stroke: #8b0000; stroke-width: 1.5"/>
    <path clip-path="url(#p3bf16a745f)" style="fill: none; stroke: #8b0000; stroke-width: 1.5"/>
    <path clip-path="url(#p3bf16a745f)" style="fill: none; stroke: #8b0000; stroke-width: 1.5"/>
   </g>
   <g id="LineCollection_2">
    <path clip-path="url(#p3bf16a745f)" style="fill: none; stroke: #006400; stroke-width: 1.5"/>
    <path clip-path="url(#p3bf16a745f)" style="fill: none; stroke: #006400; stroke-width: 1.5"/>
    <path clip-path="url(#p3bf16a745f)" style="fill: none; stroke: #006400; stroke-width: 1.5"/>
    <path clip-path="url(#p3bf16a745f)" style="fill: none; stroke: #006400; stroke-width: 1.5"/>
    <path d="M 76.865758 30.616196 
L 76.865758 27.048624 
" clip-path="url(#p3bf16a745f)" style="fill: none; stroke: #006400; stroke-width: 1.5"/>
    <path d="M 93.82996 33.869795 
L 93.82996 30.610708 
" clip-path="url(#p3bf16a745f)" style="fill: none; stroke: #006400; stroke-width: 1.5"/>
    <path d="M 110.79416 25.108217 
L 110.79416 21.342182 
" clip-path="url(#p3bf16a745f)" style="fill: none; stroke: #006400; stroke-width: 1.5"/>
    <path d="M 127.758361 28.670531 
L 127.758361 25.281894 
" clip-path="url(#p3bf16a745f)" style="fill: none; stroke: #006400; stroke-width: 1.5"/>
    <path d="M 144.722564 32.661511 
L 144.722564 29.163367 
" clip-path="url(#p3bf16a745f)" style="fill: none; stroke: #006400; stroke-width: 1.5"/>
    <path d="M 161.686765 36.812034 
L 161.686765 33.305433 
" clip-path="url(#p3bf16a745f)" style="fill: none; stroke: #006400; stroke-width: 1.5"/>
    <path d="M 178.650965 36.347746 
L 178.650965 32.577761 
" clip-path="url(#p3bf16a745f)" style="fill: none; stroke: #006400; stroke-width: 1.5"/>
    <path d="M 195.615166 38.105521 
L 195.615166 34.10612 
" clip-path="url(#p3bf16a745f)" style="fill: none; stroke: #006400; stroke-width: 1.5"/>
    <path d="M 212.579369 38.122416 
L 212.579369 33.685716 
" clip-path="url(#p3bf16a745f)" style="fill: none; stroke: #006400; stroke-width: 1.5"/>
    <path d="M 229.543569 38.514822 
L 229.543569 33.77238 
" clip-path="url(#p3bf16a745f)" style="fill: none; stroke: #006400; stroke-width: 1.5"/>
    <path d="M 246.507769 43.435199 
L 246.507769 37.584111 
" clip-path="url(#p3bf16a745f)" style="fill: none; stroke: #006400; stroke-width: 1.5"/>
    <path d="M 263.471971 45.815453 
L 263.471971 39.200258 
" clip-path="url(#p3bf16a745f)" style="fill: none; stroke: #006400; stroke-width: 1.5"/>
    <path d="M 280.436173 51.40626 
L 280.436173 43.421913 
" clip-path="url(#p3bf16a745f)" style="fill: none; stroke: #006400; stroke-width: 1.5"/>
    <path d="M 297.400376 64.325629 
L 297.400376 51.963589 
" clip-path="url(#p3bf16a745f)" style="fill: none; stroke: #006400; stroke-width: 1.5"/>
    <path d="M 314.364577 101.658783 
L 314.364577 66.757649 
" clip-path="url(#p3bf16a745f)" style="fill: none; stroke: #006400; stroke-width: 1.5"/>
    <path clip-path="url(#p3bf16a745f)" style="fill: none; stroke: #006400; stroke-width: 1.5"/>
    <path d="M 348.292978 103.373486 
L 348.292978 66.613938 
" clip-path="url(#p3bf16a745f)" style="fill: none; stroke: #006400; stroke-width: 1.5"/>
    <path d="M 365.257179 289 
L 365.257179 105.275688 
" clip-path="url(#p3bf16a745f)" style="fill: none; stroke: #006400; stroke-width: 1.5"/>
    <path clip-path="url(#p3bf16a745f)" style="fill: none; stroke: #006400; stroke-width: 1.5"/>
    <path clip-path="url(#p3bf16a745f)" style="fill: none; stroke: #006400; stroke-width: 1.5"/>
   </g>
   <g id="line2d_79">
    <defs>
     <path id="me53951d0fd" d="M 0 3 
C 0.795609 3 1.55874 2.683901 2.12132 2.12132 
C 2.683901 1.55874 3 0.795609 3 0 
C 3 -0.795609 2.683901 -1.55874 2.12132 -2.12132 
C 1.55874 -2.683901 0.795609 -3 0 -3 
C -0.795609 -3 -1.55874 -2.683901 -2.12132 -2.12132 
C -2.683901 -1.55874 -3 -0.795609 -3 0 
C -3 0.795609 -2.683901 1.55874 -2.12132 2.12132 
C -1.55874 2.683901 -0.795609 3 0 3 
z
" style="stroke: #8b0000"/>
    </defs>
    <g clip-path="url(#p3bf16a745f)">
     <use xlink:href="#me53951d0fd" x="82.483309" y="27.099238" style="fill: #8b0000; stroke: #8b0000"/>
     <use xlink:href="#me53951d0fd" x="99.447511" y="29.206693" style="fill: #8b0000; stroke: #8b0000"/>
     <use xlink:href="#me53951d0fd" x="116.411711" y="30.125854" style="fill: #8b0000; stroke: #8b0000"/>
     <use xlink:href="#me53951d0fd" x="133.375912" y="30.019548" style="fill: #8b0000; stroke: #8b0000"/>
     <use xlink:href="#me53951d0fd" x="150.340115" y="32.127038" style="fill: #8b0000; stroke: #8b0000"/>
     <use xlink:href="#me53951d0fd" x="167.304316" y="33.395589" style="fill: #8b0000; stroke: #8b0000"/>
     <use xlink:href="#me53951d0fd" x="184.268515" y="33.201831" style="fill: #8b0000; stroke: #8b0000"/>
     <use xlink:href="#me53951d0fd" x="201.232717" y="33.880827" style="fill: #8b0000; stroke: #8b0000"/>
     <use xlink:href="#me53951d0fd" x="218.19692" y="34.599043" style="fill: #8b0000; stroke: #8b0000"/>
     <use xlink:href="#me53951d0fd" x="235.16112" y="33.729579" style="fill: #8b0000; stroke: #8b0000"/>
     <use xlink:href="#me53951d0fd" x="252.125319" y="38.890898" style="fill: #8b0000; stroke: #8b0000"/>
     <use xlink:href="#me53951d0fd" x="269.089521" y="40.307971" style="fill: #8b0000; stroke: #8b0000"/>
     <use xlink:href="#me53951d0fd" x="286.053724" y="44.785776" style="fill: #8b0000; stroke: #8b0000"/>
     <use xlink:href="#me53951d0fd" x="303.017927" y="58.407961" style="fill: #8b0000; stroke: #8b0000"/>
     <use xlink:href="#me53951d0fd" x="319.982128" y="77.640656" style="fill: #8b0000; stroke: #8b0000"/>
     <use xlink:href="#me53951d0fd" x="328.736326" y="20737" style="fill: #8b0000; stroke: #8b0000"/>
     <use xlink:href="#me53951d0fd" x="345.156498" y="20737" style="fill: #8b0000; stroke: #8b0000"/>
     <use xlink:href="#me53951d0fd" x="353.910529" y="78.463356" style="fill: #8b0000; stroke: #8b0000"/>
     <use xlink:href="#me53951d0fd" x="362.664559" y="20737" style="fill: #8b0000; stroke: #8b0000"/>
    </g>
   </g>
   <g id="line2d_80">
    <defs>
     <path id="m8a592f380b" d="M 0 3 
C 0.795609 3 1.55874 2.683901 2.12132 2.12132 
C 2.683901 1.55874 3 0.795609 3 0 
C 3 -0.795609 2.683901 -1.55874 2.12132 -2.12132 
C 1.55874 -2.683901 0.795609 -3 0 -3 
C -0.795609 -3 -1.55874 -2.683901 -2.12132 -2.12132 
C -2.683901 -1.55874 -3 -0.795609 -3 0 
C -3 0.795609 -2.683901 1.55874 -2.12132 2.12132 
C -1.55874 2.683901 -0.795609 3 0 3 
z
" style="stroke: #006400"/>
    </defs>
    <g clip-path="url(#p3bf16a745f)">
     <use xlink:href="#m8a592f380b" x="76.865758" y="28.742229" style="fill: #006400; stroke: #006400"/>
     <use xlink:href="#m8a592f380b" x="93.82996" y="32.16497" style="fill: #006400; stroke: #006400"/>
     <use xlink:href="#m8a592f380b" x="110.79416" y="23.124725" style="fill: #006400; stroke: #006400"/>
     <use xlink:href="#m8a592f380b" x="127.758361" y="26.894837" style="fill: #006400; stroke: #006400"/>
     <use xlink:href="#m8a592f380b" x="144.722564" y="30.825728" style="fill: #006400; stroke: #006400"/>
     <use xlink:href="#m8a592f380b" x="161.686765" y="34.971603" style="fill: #006400; stroke: #006400"/>
     <use xlink:href="#m8a592f380b" x="178.650965" y="34.362068" style="fill: #006400; stroke: #006400"/>
     <use xlink:href="#m8a592f380b" x="195.615166" y="35.992536" style="fill: #006400; stroke: #006400"/>
     <use xlink:href="#m8a592f380b" x="212.579369" y="35.764722" style="fill: #006400; stroke: #006400"/>
     <use xlink:href="#m8a592f380b" x="229.543569" y="35.98445" style="fill: #006400; stroke: #006400"/>
     <use xlink:href="#m8a592f380b" x="246.507769" y="40.267776" style="fill: #006400; stroke: #006400"/>
     <use xlink:href="#m8a592f380b" x="263.471971" y="42.199067" style="fill: #006400; stroke: #006400"/>
     <use xlink:href="#m8a592f380b" x="280.436173" y="46.965437" style="fill: #006400; stroke: #006400"/>
     <use xlink:href="#m8a592f380b" x="297.400376" y="57.081513" style="fill: #006400; stroke: #006400"/>
     <use xlink:href="#m8a592f380b" x="314.364577" y="76.690953" style="fill: #006400; stroke: #006400"/>
     <use xlink:href="#m8a592f380b" x="323.11897" y="20737" style="fill: #006400; stroke: #006400"/>
     <use xlink:href="#m8a592f380b" x="339.538599" y="20737" style="fill: #006400; stroke: #006400"/>
     <use xlink:href="#m8a592f380b" x="348.292978" y="76.762197" style="fill: #006400; stroke: #006400"/>
     <use xlink:href="#m8a592f380b" x="357.047357" y="20737" style="fill: #006400; stroke: #006400"/>
    </g>
   </g>
   <g id="patch_3">
    <path d="M 60.468889 242.728 
L 60.468889 10.8 
" style="fill: none; stroke: #000000; stroke-width: 0.8; stroke-linejoin: miter; stroke-linecap: square"/>
   </g>
   <g id="patch_4">
    <path d="M 421.2 242.728 
L 421.2 10.8 
" style="fill: none; stroke: #000000; stroke-width: 0.8; stroke-linejoin: miter; stroke-linecap: square"/>
   </g>
   <g id="patch_5">
    <path d="M 60.468889 242.728 
L 421.2 242.728 
" style="fill: none; stroke: #000000; stroke-width: 0.8; stroke-linejoin: miter; stroke-linecap: square"/>
   </g>
   <g id="patch_6">
    <path d="M 60.468889 10.8 
L 421.2 10.8 
" style="fill: none; stroke: #000000; stroke-width: 0.8; stroke-linejoin: miter; stroke-linecap: square"/>
   </g>
   <g id="legend_1">
    <g id="patch_7">
     <path d="M 320.3 62.834375 
L 414.2 62.834375 
Q 416.2 62.834375 416.2 60.834375 
L 416.2 17.8 
Q 416.2 15.8 414.2 15.8 
L 320.3 15.8 
Q 318.3 15.8 318.3 17.8 
L 318.3 60.834375 
Q 318.3 62.834375 320.3 62.834375 
z
" style="fill: #ffffff; opacity: 0.8; stroke: #cccccc; stroke-linejoin: miter"/>
    </g>
    <g id="patch_8">
     <path d="M 322.3 27.398438 
L 342.3 27.398438 
L 342.3 20.398438 
L 322.3 20.398438 
z
" style="fill: #008000; fill-opacity: 0.5"/>
    </g>
    <g id="text_11">
     <!-- $1\sigma$ Nuisance -->
     <g transform="translate(350.3 27.398438) scale(0.1 -0.1)">
      <defs>
       <path id="DejaVuSans-Oblique-3c3" d="M 2219 3044 
Q 1744 3044 1422 2700 
Q 1081 2341 969 1747 
Q 844 1119 1044 756 
Q 1241 397 1706 397 
Q 2166 397 2503 759 
Q 2844 1122 2966 1747 
Q 3075 2319 2881 2700 
Q 2700 3044 2219 3044 
z
M 2309 3503 
L 4219 3500 
L 4106 2925 
L 3463 2925 
Q 3706 2438 3575 1747 
Q 3406 888 2884 400 
Q 2359 -91 1609 -91 
Q 856 -91 525 400 
Q 194 888 363 1747 
Q 528 2609 1050 3097 
Q 1484 3503 2309 3503 
z
" transform="scale(0.015625)"/>
       <path id="DejaVuSans-4e" d="M 628 4666 
L 1478 4666 
L 3547 763 
L 3547 4666 
L 4159 4666 
L 4159 0 
L 3309 0 
L 1241 3903 
L 1241 0 
L 628 0 
L 628 4666 
z
" transform="scale(0.015625)"/>
       <path id="DejaVuSans-75" d="M 544 1381 
L 544 3500 
L 1119 3500 
L 1119 1403 
Q 1119 906 1312 657 
Q 1506 409 1894 409 
Q 2359 409 2629 706 
Q 2900 1003 2900 1516 
L 2900 3500 
L 3475 3500 
L 3475 0 
L 2900 0 
L 2900 538 
Q 2691 219 2414 64 
Q 2138 -91 1772 -91 
Q 1169 -91 856 284 
Q 544 659 544 1381 
z
M 1991 3584 
L 1991 3584 
z
" transform="scale(0.015625)"/>
       <path id="DejaVuSans-69" d="M 603 3500 
L 1178 3500 
L 1178 0 
L 603 0 
L 603 3500 
z
M 603 4863 
L 1178 4863 
L 1178 4134 
L 603 4134 
L 603 4863 
z
" transform="scale(0.015625)"/>
       <path id="DejaVuSans-61" d="M 2194 1759 
Q 1497 1759 1228 1600 
Q 959 1441 959 1056 
Q 959 750 1161 570 
Q 1363 391 1709 391 
Q 2188 391 2477 730 
Q 2766 1069 2766 1631 
L 2766 1759 
L 2194 1759 
z
M 3341 1997 
L 3341 0 
L 2766 0 
L 2766 531 
Q 2569 213 2275 61 
Q 1981 -91 1556 -91 
Q 1019 -91 701 211 
Q 384 513 384 1019 
Q 384 1609 779 1909 
Q 1175 2209 1959 2209 
L 2766 2209 
L 2766 2266 
Q 2766 2663 2505 2880 
Q 2244 3097 1772 3097 
Q 1472 3097 1187 3025 
Q 903 2953 641 2809 
L 641 3341 
Q 956 3463 1253 3523 
Q 1550 3584 1831 3584 
Q 2591 3584 2966 3190 
Q 3341 2797 3341 1997 
z
" transform="scale(0.015625)"/>
      </defs>
      <use xlink:href="#DejaVuSans-31" transform="translate(0 0.015625)"/>
      <use xlink:href="#DejaVuSans-Oblique-3c3" transform="translate(63.623047 0.015625)"/>
      <use xlink:href="#DejaVuSans-20" transform="translate(127.001953 0.015625)"/>
      <use xlink:href="#DejaVuSans-4e" transform="translate(158.789062 0.015625)"/>
      <use xlink:href="#DejaVuSans-75" transform="translate(233.59375 0.015625)"/>
      <use xlink:href="#DejaVuSans-69" transform="translate(296.972656 0.015625)"/>
      <use xlink:href="#DejaVuSans-73" transform="translate(324.755859 0.015625)"/>
      <use xlink:href="#DejaVuSans-61" transform="translate(376.855469 0.015625)"/>
      <use xlink:href="#DejaVuSans-6e" transform="translate(438.134766 0.015625)"/>
      <use xlink:href="#DejaVuSans-63" transform="translate(501.513672 0.015625)"/>
      <use xlink:href="#DejaVuSans-65" transform="translate(556.494141 0.015625)"/>
     </g>
    </g>
    <g id="patch_9">
     <path d="M 322.3 42.076562 
L 342.3 42.076562 
L 342.3 35.076562 
L 322.3 35.076562 
z
" style="fill: #ff0000; fill-opacity: 0.6"/>
    </g>
    <g id="text_12">
     <!-- $1\sigma$ Standard -->
     <g transform="translate(350.3 42.076562) scale(0.1 -0.1)">
      <defs>
       <path id="DejaVuSans-53" d="M 3425 4513 
L 3425 3897 
Q 3066 4069 2747 4153 
Q 2428 4238 2131 4238 
Q 1616 4238 1336 4038 
Q 1056 3838 1056 3469 
Q 1056 3159 1242 3001 
Q 1428 2844 1947 2747 
L 2328 2669 
Q 3034 2534 3370 2195 
Q 3706 1856 3706 1288 
Q 3706 609 3251 259 
Q 2797 -91 1919 -91 
Q 1588 -91 1214 -16 
Q 841 59 441 206 
L 441 856 
Q 825 641 1194 531 
Q 1563 422 1919 422 
Q 2459 422 2753 634 
Q 3047 847 3047 1241 
Q 3047 1584 2836 1778 
Q 2625 1972 2144 2069 
L 1759 2144 
Q 1053 2284 737 2584 
Q 422 2884 422 3419 
Q 422 4038 858 4394 
Q 1294 4750 2059 4750 
Q 2388 4750 2728 4690 
Q 3069 4631 3425 4513 
z
" transform="scale(0.015625)"/>
       <path id="DejaVuSans-74" d="M 1172 4494 
L 1172 3500 
L 2356 3500 
L 2356 3053 
L 1172 3053 
L 1172 1153 
Q 1172 725 1289 603 
Q 1406 481 1766 481 
L 2356 481 
L 2356 0 
L 1766 0 
Q 1100 0 847 248 
Q 594 497 594 1153 
L 594 3053 
L 172 3053 
L 172 3500 
L 594 3500 
L 594 4494 
L 1172 4494 
z
" transform="scale(0.015625)"/>
      </defs>
      <use xlink:href="#DejaVuSans-31" transform="translate(0 0.015625)"/>
      <use xlink:href="#DejaVuSans-Oblique-3c3" transform="translate(63.623047 0.015625)"/>
      <use xlink:href="#DejaVuSans-20" transform="translate(127.001953 0.015625)"/>
      <use xlink:href="#DejaVuSans-53" transform="translate(158.789062 0.015625)"/>
      <use xlink:href="#DejaVuSans-74" transform="translate(222.265625 0.015625)"/>
      <use xlink:href="#DejaVuSans-61" transform="translate(261.474609 0.015625)"/>
      <use xlink:href="#DejaVuSans-6e" transform="translate(322.753906 0.015625)"/>
      <use xlink:href="#DejaVuSans-64" transform="translate(386.132812 0.015625)"/>
      <use xlink:href="#DejaVuSans-61" transform="translate(449.609375 0.015625)"/>
      <use xlink:href="#DejaVuSans-72" transform="translate(510.888672 0.015625)"/>
      <use xlink:href="#DejaVuSans-64" transform="translate(552.001953 0.015625)"/>
     </g>
    </g>
    <g id="line2d_81">
     <path d="M 322.3 53.254687 
L 332.3 53.254687 
L 342.3 53.254687 
" style="fill: none; stroke-dasharray: 1.5,2.475; stroke-dashoffset: 0; stroke: #000000; stroke-width: 1.5"/>
    </g>
    <g id="text_13">
     <!-- Input -->
     <g transform="translate(350.3 56.754687) scale(0.1 -0.1)">
      <defs>
       <path id="DejaVuSans-49" d="M 628 4666 
L 1259 4666 
L 1259 0 
L 628 0 
L 628 4666 
z
" transform="scale(0.015625)"/>
       <path id="DejaVuSans-70" d="M 1159 525 
L 1159 -1331 
L 581 -1331 
L 581 3500 
L 1159 3500 
L 1159 2969 
Q 1341 3281 1617 3432 
Q 1894 3584 2278 3584 
Q 2916 3584 3314 3078 
Q 3713 2572 3713 1747 
Q 3713 922 3314 415 
Q 2916 -91 2278 -91 
Q 1894 -91 1617 61 
Q 1341 213 1159 525 
z
M 3116 1747 
Q 3116 2381 2855 2742 
Q 2594 3103 2138 3103 
Q 1681 3103 1420 2742 
Q 1159 2381 1159 1747 
Q 1159 1113 1420 752 
Q 1681 391 2138 391 
Q 2594 391 2855 752 
Q 3116 1113 3116 1747 
z
" transform="scale(0.015625)"/>
      </defs>
      <use xlink:href="#DejaVuSans-49"/>
      <use xlink:href="#DejaVuSans-6e" x="29.492188"/>
      <use xlink:href="#DejaVuSans-70" x="92.871094"/>
      <use xlink:href="#DejaVuSans-75" x="156.347656"/>
      <use xlink:href="#DejaVuSans-74" x="219.726562"/>
     </g>
    </g>
   </g>
  </g>
 </g>
 <defs>
  <clipPath id="p3bf16a745f">
   <rect x="60.468889" y="10.8" width="360.731111" height="231.928"/>
  </clipPath>
 </defs>
</svg>
