<?xml version="1.0" encoding="utf-8" standalone="no"?>
<!DOCTYPE svg PUBLIC "-//W3C//DTD SVG 1.1//EN"
  "http://www.w3.org/Graphics/SVG/1.1/DTD/svg11.dtd">
<svg xmlns:xlink="http://www.w3.org/1999/xlink" width="432pt" height="288pt" viewBox="0 0 432 288" xmlns="http://www.w3.org/2000/svg" version="1.1">
 <metadata>
  <rdf:RDF xmlns:dc="http://purl.org/dc/elements/1.1/" xmlns:cc="http://creativecommons.org/ns#" xmlns:rdf="http://www.w3.org/1999/02/22-rdf-syntax-ns#">
   <cc:Work>
    <dc:type rdf:resource="http://purl.org/dc/dcmitype/StillImage"/>
    <dc:date>2023-03-15T12:11:32.876025</dc:date>
    <dc:format>image/svg+xml</dc:format>
    <dc:creator>
     <cc:Agent>
      <dc:title>Matplotlib v3.6.2, https://matplotlib.org/</dc:title>
     </cc:Agent>
    </dc:creator>
   </cc:Work>
  </rdf:RDF>
 </metadata>
 <defs>
  <style type="text/css">*{stroke-linejoin: round; stroke-linecap: butt}</style>
 </defs>
 <g id="figure_1">
  <g id="patch_1">
   <path d="M 0 288 
L 432 288 
L 432 0 
L 0 0 
z
" style="fill: #ffffff"/>
  </g>
  <g id="axes_1">
   <g id="patch_2">
    <path d="M 60.468889 242.728 
L 421.2 242.728 
L 421.2 10.8 
L 60.468889 10.8 
z
" style="fill: #ffffff"/>
   </g>
   <g id="PolyCollection_1">
    <path d="M 78.477357 21.342182 
L 78.477357 28.25794 
L 81.700555 28.316839 
L 84.923754 28.378217 
L 88.146952 28.442179 
L 91.37015 28.508834 
L 94.593348 28.578297 
L 97.816546 28.650692 
L 101.039745 28.726146 
L 104.262943 28.804795 
L 107.486141 28.886783 
L 110.709339 28.97226 
L 113.932538 29.061386 
L 117.155736 29.154329 
L 120.378934 29.251267 
L 123.602132 29.352387 
L 126.825331 29.457888 
L 130.048529 29.567979 
L 133.271727 29.682881 
L 136.494925 29.802829 
L 139.718123 29.928071 
L 142.941322 30.058868 
L 146.16452 30.195498 
L 149.387718 30.338254 
L 152.610916 30.487447 
L 155.834115 30.643405 
L 159.057313 30.806476 
L 162.280511 30.977031 
L 165.503709 31.155459 
L 168.726907 31.342176 
L 171.950106 31.537621 
L 175.173304 31.742259 
L 178.396502 31.956587 
L 181.6197 32.181127 
L 184.842899 32.416438 
L 188.066097 32.663111 
L 191.289295 32.921775 
L 194.512493 33.193097 
L 197.735691 33.477787 
L 200.95889 33.7766 
L 204.182088 34.09034 
L 207.405286 34.419861 
L 210.628484 34.766074 
L 213.851683 35.129948 
L 217.074881 35.512516 
L 220.298079 35.914881 
L 223.521277 36.338217 
L 226.744476 36.783778 
L 229.967674 37.252905 
L 233.190872 37.747027 
L 236.41407 38.267673 
L 239.637268 38.816478 
L 242.860467 39.395189 
L 246.083665 40.005678 
L 249.306863 40.649947 
L 252.530061 41.330139 
L 255.75326 42.048548 
L 258.976458 42.807634 
L 262.199656 43.610028 
L 265.422854 44.458547 
L 268.646052 45.356207 
L 271.869251 46.306236 
L 275.092449 47.312084 
L 278.315647 48.377437 
L 281.538845 49.506233 
L 284.762044 50.702669 
L 287.985242 51.971223 
L 291.20844 53.316657 
L 294.431638 54.744042 
L 297.654836 56.258764 
L 300.878035 57.86655 
L 304.101233 59.573479 
L 307.324431 61.386015 
L 310.547629 63.311024 
L 313.770828 65.35582 
L 316.994026 67.528198 
L 320.217224 69.836487 
L 323.440422 72.289615 
L 326.663621 74.897181 
L 329.886819 77.669549 
L 333.110017 80.617962 
L 336.333215 83.754677 
L 339.556413 87.093145 
L 342.779612 90.648227 
L 346.00281 94.436476 
L 349.226008 98.476508 
L 352.449206 102.789493 
L 355.672405 107.399826 
L 358.895603 112.336079 
L 362.118801 117.632368 
L 365.341999 123.330407 
L 368.565197 129.482709 
L 371.788396 136.157823 
L 375.011594 143.449404 
L 378.234792 151.493107 
L 381.45799 160.501186 
L 384.681189 170.843172 
L 387.904387 183.274327 
L 391.127585 199.837712 
L 394.350783 232.185818 
L 397.573981 42410.328067 
L 397.573981 152.957786 
L 397.573981 152.957786 
L 394.350783 146.062629 
L 391.127585 139.54611 
L 387.904387 133.38703 
L 384.681189 127.56533 
L 381.45799 122.062027 
L 378.234792 116.859159 
L 375.011594 111.939733 
L 371.788396 107.287675 
L 368.565197 102.887785 
L 365.341999 98.725686 
L 362.118801 94.787789 
L 358.895603 91.06125 
L 355.672405 87.533933 
L 352.449206 84.194373 
L 349.226008 81.031749 
L 346.00281 78.035847 
L 342.779612 75.197036 
L 339.556413 72.50624 
L 336.333215 69.954912 
L 333.110017 67.535013 
L 329.886819 65.238986 
L 326.663621 63.059743 
L 323.440422 60.990637 
L 320.217224 59.025446 
L 316.994026 57.158355 
L 313.770828 55.383932 
L 310.547629 53.697113 
L 307.324431 52.093176 
L 304.101233 50.567722 
L 300.878035 49.116654 
L 297.654836 47.736151 
L 294.431638 46.422647 
L 291.20844 45.172809 
L 287.985242 43.983517 
L 284.762044 42.851837 
L 281.538845 41.775012 
L 278.315647 40.750437 
L 275.092449 39.775644 
L 271.869251 38.848294 
L 268.646052 37.966162 
L 265.422854 37.127125 
L 262.199656 36.329159 
L 258.976458 35.570326 
L 255.75326 34.848775 
L 252.530061 34.162732 
L 249.306863 33.510497 
L 246.083665 32.890443 
L 242.860467 32.301011 
L 239.637268 31.740707 
L 236.41407 31.208102 
L 233.190872 30.701826 
L 229.967674 30.220571 
L 226.744476 29.763083 
L 223.521277 29.328168 
L 220.298079 28.91468 
L 217.074881 28.521529 
L 213.851683 28.147672 
L 210.628484 27.792116 
L 207.405286 27.453913 
L 204.182088 27.13216 
L 200.95889 26.825997 
L 197.735691 26.534604 
L 194.512493 26.257201 
L 191.289295 25.993047 
L 188.066097 25.741434 
L 184.842899 25.501692 
L 181.6197 25.273182 
L 178.396502 25.055298 
L 175.173304 24.847463 
L 171.950106 24.649129 
L 168.726907 24.459775 
L 165.503709 24.278909 
L 162.280511 24.10606 
L 159.057313 23.940784 
L 155.834115 23.782659 
L 152.610916 23.631283 
L 149.387718 23.486277 
L 146.16452 23.347279 
L 142.941322 23.213948 
L 139.718123 23.085959 
L 136.494925 22.963006 
L 133.271727 22.844796 
L 130.048529 22.731054 
L 126.825331 22.621517 
L 123.602132 22.515939 
L 120.378934 22.414085 
L 117.155736 22.315732 
L 113.932538 22.220669 
L 110.709339 22.128698 
L 107.486141 22.03963 
L 104.262943 21.953287 
L 101.039745 21.8695 
L 97.816546 21.788108 
L 94.593348 21.708962 
L 91.37015 21.631919 
L 88.146952 21.556843 
L 84.923754 21.483607 
L 81.700555 21.412092 
L 78.477357 21.342182 
z
" clip-path="url(#p7718822850)" style="fill: #008000; fill-opacity: 0.5"/>
   </g>
   <g id="PolyCollection_2">
    <path d="M 78.477357 23.715141 
L 78.477357 25.277791 
L 81.700555 25.306988 
L 84.923754 25.339397 
L 88.146952 25.375245 
L 91.37015 25.414778 
L 94.593348 25.45826 
L 97.816546 25.505979 
L 101.039745 25.558241 
L 104.262943 25.61537 
L 107.486141 25.677705 
L 110.709339 25.745589 
L 113.932538 25.819367 
L 117.155736 25.899369 
L 120.378934 25.9859 
L 123.602132 26.079227 
L 126.825331 26.179569 
L 130.048529 26.287092 
L 133.271727 26.401911 
L 136.494925 26.524092 
L 139.718123 26.653669 
L 142.941322 26.790656 
L 146.16452 26.935062 
L 149.387718 27.086909 
L 152.610916 27.246238 
L 155.834115 27.413125 
L 159.057313 27.587682 
L 162.280511 27.770062 
L 165.503709 27.960464 
L 168.726907 28.159132 
L 171.950106 28.366355 
L 175.173304 28.582471 
L 178.396502 28.807866 
L 181.6197 29.042975 
L 184.842899 29.288283 
L 188.066097 29.544331 
L 191.289295 29.811714 
L 194.512493 30.09109 
L 197.735691 30.383179 
L 200.95889 30.688773 
L 204.182088 31.008742 
L 207.405286 31.344039 
L 210.628484 31.695709 
L 213.851683 32.064902 
L 217.074881 32.452875 
L 220.298079 32.861009 
L 223.521277 33.290815 
L 226.744476 33.743942 
L 229.967674 34.222184 
L 233.190872 34.727481 
L 236.41407 35.26192 
L 239.637268 35.827728 
L 242.860467 36.42726 
L 246.083665 37.06299 
L 249.306863 37.737488 
L 252.530061 38.453419 
L 255.75326 39.213524 
L 258.976458 40.020624 
L 262.199656 40.877623 
L 265.422854 41.787523 
L 268.646052 42.753442 
L 271.869251 43.778636 
L 275.092449 44.866524 
L 278.315647 46.020719 
L 281.538845 47.24505 
L 284.762044 48.543595 
L 287.985242 49.920705 
L 291.20844 51.381038 
L 294.431638 52.929585 
L 297.654836 54.571709 
L 300.878035 56.31318 
L 304.101233 58.160215 
L 307.324431 60.119532 
L 310.547629 62.1984 
L 313.770828 64.404712 
L 316.994026 66.747058 
L 320.217224 69.234825 
L 323.440422 71.878313 
L 326.663621 74.688883 
L 329.886819 77.679138 
L 333.110017 80.863159 
L 336.333215 84.256814 
L 339.556413 87.878164 
L 342.779612 91.748016 
L 346.00281 95.890693 
L 349.226008 100.335133 
L 352.449206 105.116503 
L 355.672405 110.278667 
L 358.895603 115.878119 
L 362.118801 121.990565 
L 365.341999 128.722673 
L 368.565197 136.23482 
L 371.788396 144.790094 
L 375.011594 154.877349 
L 378.234792 167.603649 
L 381.45799 186.673119 
L 384.681189 42410.328067 
L 387.904387 42410.328067 
L 391.127585 42410.328067 
L 394.350783 42410.328067 
L 397.573981 42410.328067 
L 397.573981 150.722892 
L 397.573981 150.722892 
L 394.350783 143.918811 
L 391.127585 137.494828 
L 387.904387 131.42973 
L 384.681189 125.70344 
L 381.45799 120.296958 
L 378.234792 115.192307 
L 375.011594 110.372481 
L 371.788396 105.821394 
L 368.565197 101.523832 
L 365.341999 97.465412 
L 362.118801 93.632535 
L 358.895603 90.012349 
L 355.672405 86.592709 
L 352.449206 83.362141 
L 349.226008 80.309807 
L 346.00281 77.425471 
L 342.779612 74.699468 
L 339.556413 72.122675 
L 336.333215 69.686481 
L 333.110017 67.382759 
L 329.886819 65.203843 
L 326.663621 63.142498 
L 323.440422 61.1919 
L 320.217224 59.345611 
L 316.994026 57.597561 
L 313.770828 55.942023 
L 310.547629 54.373593 
L 307.324431 52.887177 
L 304.101233 51.477966 
L 300.878035 50.141423 
L 297.654836 48.873268 
L 294.431638 47.669461 
L 291.20844 46.526185 
L 287.985242 45.439843 
L 284.762044 44.407036 
L 281.538845 43.424561 
L 278.315647 42.489398 
L 275.092449 41.598707 
L 271.869251 40.749825 
L 268.646052 39.940262 
L 265.422854 39.167704 
L 262.199656 38.430014 
L 258.976458 37.725236 
L 255.75326 37.051599 
L 252.530061 36.407511 
L 249.306863 35.791559 
L 246.083665 35.202499 
L 242.860467 34.639234 
L 239.637268 34.100794 
L 236.41407 33.586311 
L 233.190872 33.094993 
L 229.967674 32.626093 
L 226.744476 32.178895 
L 223.521277 31.752696 
L 220.298079 31.346791 
L 217.074881 30.960473 
L 213.851683 30.593026 
L 210.628484 30.243731 
L 207.405286 29.91186 
L 204.182088 29.596686 
L 200.95889 29.297484 
L 197.735691 29.013534 
L 194.512493 28.744121 
L 191.289295 28.488545 
L 188.066097 28.246112 
L 184.842899 28.016144 
L 181.6197 27.797973 
L 178.396502 27.590944 
L 175.173304 27.394416 
L 171.950106 27.207754 
L 168.726907 27.030334 
L 165.503709 26.861539 
L 162.280511 26.700755 
L 159.057313 26.54737 
L 155.834115 26.400775 
L 152.610916 26.260358 
L 149.387718 26.125506 
L 146.16452 25.99561 
L 142.941322 25.870064 
L 139.718123 25.748276 
L 136.494925 25.629673 
L 133.271727 25.513721 
L 130.048529 25.399934 
L 126.825331 25.287885 
L 123.602132 25.177223 
L 120.378934 25.067673 
L 117.155736 24.959038 
L 113.932538 24.851188 
L 110.709339 24.744055 
L 107.486141 24.637614 
L 104.262943 24.531875 
L 101.039745 24.426864 
L 97.816546 24.322619 
L 94.593348 24.219179 
L 91.37015 24.116582 
L 88.146952 24.014859 
L 84.923754 23.914035 
L 81.700555 23.814125 
L 78.477357 23.715141 
z
" clip-path="url(#p7718822850)" style="fill: #ff0000; fill-opacity: 0.6"/>
   </g>
   <g id="matplotlib.axis_1">
    <g id="xtick_1">
     <g id="line2d_1">
      <defs>
       <path id="m268b4e6fa6" d="M 0 0 
L 0 3.5 
" style="stroke: #000000; stroke-width: 0.8"/>
      </defs>
      <g>
       <use xlink:href="#m268b4e6fa6" x="136.240462" y="242.728" style="stroke: #000000; stroke-width: 0.8"/>
      </g>
     </g>
     <g id="text_1">
      <!-- $\mathdefault{10^{0}}$ -->
      <g transform="translate(127.440462 257.326437) scale(0.1 -0.1)">
       <defs>
        <path id="DejaVuSans-31" d="M 794 531 
L 1825 531 
L 1825 4091 
L 703 3866 
L 703 4441 
L 1819 4666 
L 2450 4666 
L 2450 531 
L 3481 531 
L 3481 0 
L 794 0 
L 794 531 
z
" transform="scale(0.015625)"/>
        <path id="DejaVuSans-30" d="M 2034 4250 
Q 1547 4250 1301 3770 
Q 1056 3291 1056 2328 
Q 1056 1369 1301 889 
Q 1547 409 2034 409 
Q 2525 409 2770 889 
Q 3016 1369 3016 2328 
Q 3016 3291 2770 3770 
Q 2525 4250 2034 4250 
z
M 2034 4750 
Q 2819 4750 3233 4129 
Q 3647 3509 3647 2328 
Q 3647 1150 3233 529 
Q 2819 -91 2034 -91 
Q 1250 -91 836 529 
Q 422 1150 422 2328 
Q 422 3509 836 4129 
Q 1250 4750 2034 4750 
z
" transform="scale(0.015625)"/>
       </defs>
       <use xlink:href="#DejaVuSans-31" transform="translate(0 0.765625)"/>
       <use xlink:href="#DejaVuSans-30" transform="translate(63.623047 0.765625)"/>
       <use xlink:href="#DejaVuSans-30" transform="translate(128.203125 39.046875) scale(0.7)"/>
      </g>
     </g>
    </g>
    <g id="xtick_2">
     <g id="line2d_2">
      <g>
       <use xlink:href="#m268b4e6fa6" x="271.954072" y="242.728" style="stroke: #000000; stroke-width: 0.8"/>
      </g>
     </g>
     <g id="text_2">
      <!-- $\mathdefault{10^{1}}$ -->
      <g transform="translate(263.154072 257.326437) scale(0.1 -0.1)">
       <use xlink:href="#DejaVuSans-31" transform="translate(0 0.684375)"/>
       <use xlink:href="#DejaVuSans-30" transform="translate(63.623047 0.684375)"/>
       <use xlink:href="#DejaVuSans-31" transform="translate(128.203125 38.965625) scale(0.7)"/>
      </g>
     </g>
    </g>
    <g id="xtick_3">
     <g id="line2d_3">
      <g>
       <use xlink:href="#m268b4e6fa6" x="407.667682" y="242.728" style="stroke: #000000; stroke-width: 0.8"/>
      </g>
     </g>
     <g id="text_3">
      <!-- $\mathdefault{10^{2}}$ -->
      <g transform="translate(398.867682 257.326437) scale(0.1 -0.1)">
       <defs>
        <path id="DejaVuSans-32" d="M 1228 531 
L 3431 531 
L 3431 0 
L 469 0 
L 469 531 
Q 828 903 1448 1529 
Q 2069 2156 2228 2338 
Q 2531 2678 2651 2914 
Q 2772 3150 2772 3378 
Q 2772 3750 2511 3984 
Q 2250 4219 1831 4219 
Q 1534 4219 1204 4116 
Q 875 4013 500 3803 
L 500 4441 
Q 881 4594 1212 4672 
Q 1544 4750 1819 4750 
Q 2544 4750 2975 4387 
Q 3406 4025 3406 3419 
Q 3406 3131 3298 2873 
Q 3191 2616 2906 2266 
Q 2828 2175 2409 1742 
Q 1991 1309 1228 531 
z
" transform="scale(0.015625)"/>
       </defs>
       <use xlink:href="#DejaVuSans-31" transform="translate(0 0.765625)"/>
       <use xlink:href="#DejaVuSans-30" transform="translate(63.623047 0.765625)"/>
       <use xlink:href="#DejaVuSans-32" transform="translate(128.203125 39.046875) scale(0.7)"/>
      </g>
     </g>
    </g>
    <g id="xtick_4">
     <g id="line2d_4">
      <defs>
       <path id="mc316fc1215" d="M 0 0 
L 0 2 
" style="stroke: #000000; stroke-width: 0.6"/>
      </defs>
      <g>
       <use xlink:href="#mc316fc1215" x="65.2787" y="242.728" style="stroke: #000000; stroke-width: 0.6"/>
      </g>
     </g>
    </g>
    <g id="xtick_5">
     <g id="line2d_5">
      <g>
       <use xlink:href="#mc316fc1215" x="82.234587" y="242.728" style="stroke: #000000; stroke-width: 0.6"/>
      </g>
     </g>
    </g>
    <g id="xtick_6">
     <g id="line2d_6">
      <g>
       <use xlink:href="#mc316fc1215" x="95.386594" y="242.728" style="stroke: #000000; stroke-width: 0.6"/>
      </g>
     </g>
    </g>
    <g id="xtick_7">
     <g id="line2d_7">
      <g>
       <use xlink:href="#mc316fc1215" x="106.132567" y="242.728" style="stroke: #000000; stroke-width: 0.6"/>
      </g>
     </g>
    </g>
    <g id="xtick_8">
     <g id="line2d_8">
      <g>
       <use xlink:href="#mc316fc1215" x="115.218158" y="242.728" style="stroke: #000000; stroke-width: 0.6"/>
      </g>
     </g>
    </g>
    <g id="xtick_9">
     <g id="line2d_9">
      <g>
       <use xlink:href="#mc316fc1215" x="123.088454" y="242.728" style="stroke: #000000; stroke-width: 0.6"/>
      </g>
     </g>
    </g>
    <g id="xtick_10">
     <g id="line2d_10">
      <g>
       <use xlink:href="#mc316fc1215" x="130.030548" y="242.728" style="stroke: #000000; stroke-width: 0.6"/>
      </g>
     </g>
    </g>
    <g id="xtick_11">
     <g id="line2d_11">
      <g>
       <use xlink:href="#mc316fc1215" x="177.094329" y="242.728" style="stroke: #000000; stroke-width: 0.6"/>
      </g>
     </g>
    </g>
    <g id="xtick_12">
     <g id="line2d_12">
      <g>
       <use xlink:href="#mc316fc1215" x="200.99231" y="242.728" style="stroke: #000000; stroke-width: 0.6"/>
      </g>
     </g>
    </g>
    <g id="xtick_13">
     <g id="line2d_13">
      <g>
       <use xlink:href="#mc316fc1215" x="217.948197" y="242.728" style="stroke: #000000; stroke-width: 0.6"/>
      </g>
     </g>
    </g>
    <g id="xtick_14">
     <g id="line2d_14">
      <g>
       <use xlink:href="#mc316fc1215" x="231.100205" y="242.728" style="stroke: #000000; stroke-width: 0.6"/>
      </g>
     </g>
    </g>
    <g id="xtick_15">
     <g id="line2d_15">
      <g>
       <use xlink:href="#mc316fc1215" x="241.846177" y="242.728" style="stroke: #000000; stroke-width: 0.6"/>
      </g>
     </g>
    </g>
    <g id="xtick_16">
     <g id="line2d_16">
      <g>
       <use xlink:href="#mc316fc1215" x="250.931768" y="242.728" style="stroke: #000000; stroke-width: 0.6"/>
      </g>
     </g>
    </g>
    <g id="xtick_17">
     <g id="line2d_17">
      <g>
       <use xlink:href="#mc316fc1215" x="258.802064" y="242.728" style="stroke: #000000; stroke-width: 0.6"/>
      </g>
     </g>
    </g>
    <g id="xtick_18">
     <g id="line2d_18">
      <g>
       <use xlink:href="#mc316fc1215" x="265.744158" y="242.728" style="stroke: #000000; stroke-width: 0.6"/>
      </g>
     </g>
    </g>
    <g id="xtick_19">
     <g id="line2d_19">
      <g>
       <use xlink:href="#mc316fc1215" x="312.80794" y="242.728" style="stroke: #000000; stroke-width: 0.6"/>
      </g>
     </g>
    </g>
    <g id="xtick_20">
     <g id="line2d_20">
      <g>
       <use xlink:href="#mc316fc1215" x="336.70592" y="242.728" style="stroke: #000000; stroke-width: 0.6"/>
      </g>
     </g>
    </g>
    <g id="xtick_21">
     <g id="line2d_21">
      <g>
       <use xlink:href="#mc316fc1215" x="353.661807" y="242.728" style="stroke: #000000; stroke-width: 0.6"/>
      </g>
     </g>
    </g>
    <g id="xtick_22">
     <g id="line2d_22">
      <g>
       <use xlink:href="#mc316fc1215" x="366.813815" y="242.728" style="stroke: #000000; stroke-width: 0.6"/>
      </g>
     </g>
    </g>
    <g id="xtick_23">
     <g id="line2d_23">
      <g>
       <use xlink:href="#mc316fc1215" x="377.559788" y="242.728" style="stroke: #000000; stroke-width: 0.6"/>
      </g>
     </g>
    </g>
    <g id="xtick_24">
     <g id="line2d_24">
      <g>
       <use xlink:href="#mc316fc1215" x="386.645378" y="242.728" style="stroke: #000000; stroke-width: 0.6"/>
      </g>
     </g>
    </g>
    <g id="xtick_25">
     <g id="line2d_25">
      <g>
       <use xlink:href="#mc316fc1215" x="394.515675" y="242.728" style="stroke: #000000; stroke-width: 0.6"/>
      </g>
     </g>
    </g>
    <g id="xtick_26">
     <g id="line2d_26">
      <g>
       <use xlink:href="#mc316fc1215" x="401.457768" y="242.728" style="stroke: #000000; stroke-width: 0.6"/>
      </g>
     </g>
    </g>
    <g id="text_4">
     <!-- Energy [TeV] -->
     <g transform="translate(209.136788 271.004563) scale(0.1 -0.1)">
      <defs>
       <path id="DejaVuSans-45" d="M 628 4666 
L 3578 4666 
L 3578 4134 
L 1259 4134 
L 1259 2753 
L 3481 2753 
L 3481 2222 
L 1259 2222 
L 1259 531 
L 3634 531 
L 3634 0 
L 628 0 
L 628 4666 
z
" transform="scale(0.015625)"/>
       <path id="DejaVuSans-6e" d="M 3513 2113 
L 3513 0 
L 2938 0 
L 2938 2094 
Q 2938 2591 2744 2837 
Q 2550 3084 2163 3084 
Q 1697 3084 1428 2787 
Q 1159 2491 1159 1978 
L 1159 0 
L 581 0 
L 581 3500 
L 1159 3500 
L 1159 2956 
Q 1366 3272 1645 3428 
Q 1925 3584 2291 3584 
Q 2894 3584 3203 3211 
Q 3513 2838 3513 2113 
z
" transform="scale(0.015625)"/>
       <path id="DejaVuSans-65" d="M 3597 1894 
L 3597 1613 
L 953 1613 
Q 991 1019 1311 708 
Q 1631 397 2203 397 
Q 2534 397 2845 478 
Q 3156 559 3463 722 
L 3463 178 
Q 3153 47 2828 -22 
Q 2503 -91 2169 -91 
Q 1331 -91 842 396 
Q 353 884 353 1716 
Q 353 2575 817 3079 
Q 1281 3584 2069 3584 
Q 2775 3584 3186 3129 
Q 3597 2675 3597 1894 
z
M 3022 2063 
Q 3016 2534 2758 2815 
Q 2500 3097 2075 3097 
Q 1594 3097 1305 2825 
Q 1016 2553 972 2059 
L 3022 2063 
z
" transform="scale(0.015625)"/>
       <path id="DejaVuSans-72" d="M 2631 2963 
Q 2534 3019 2420 3045 
Q 2306 3072 2169 3072 
Q 1681 3072 1420 2755 
Q 1159 2438 1159 1844 
L 1159 0 
L 581 0 
L 581 3500 
L 1159 3500 
L 1159 2956 
Q 1341 3275 1631 3429 
Q 1922 3584 2338 3584 
Q 2397 3584 2469 3576 
Q 2541 3569 2628 3553 
L 2631 2963 
z
" transform="scale(0.015625)"/>
       <path id="DejaVuSans-67" d="M 2906 1791 
Q 2906 2416 2648 2759 
Q 2391 3103 1925 3103 
Q 1463 3103 1205 2759 
Q 947 2416 947 1791 
Q 947 1169 1205 825 
Q 1463 481 1925 481 
Q 2391 481 2648 825 
Q 2906 1169 2906 1791 
z
M 3481 434 
Q 3481 -459 3084 -895 
Q 2688 -1331 1869 -1331 
Q 1566 -1331 1297 -1286 
Q 1028 -1241 775 -1147 
L 775 -588 
Q 1028 -725 1275 -790 
Q 1522 -856 1778 -856 
Q 2344 -856 2625 -561 
Q 2906 -266 2906 331 
L 2906 616 
Q 2728 306 2450 153 
Q 2172 0 1784 0 
Q 1141 0 747 490 
Q 353 981 353 1791 
Q 353 2603 747 3093 
Q 1141 3584 1784 3584 
Q 2172 3584 2450 3431 
Q 2728 3278 2906 2969 
L 2906 3500 
L 3481 3500 
L 3481 434 
z
" transform="scale(0.015625)"/>
       <path id="DejaVuSans-79" d="M 2059 -325 
Q 1816 -950 1584 -1140 
Q 1353 -1331 966 -1331 
L 506 -1331 
L 506 -850 
L 844 -850 
Q 1081 -850 1212 -737 
Q 1344 -625 1503 -206 
L 1606 56 
L 191 3500 
L 800 3500 
L 1894 763 
L 2988 3500 
L 3597 3500 
L 2059 -325 
z
" transform="scale(0.015625)"/>
       <path id="DejaVuSans-20" transform="scale(0.015625)"/>
       <path id="DejaVuSans-5b" d="M 550 4863 
L 1875 4863 
L 1875 4416 
L 1125 4416 
L 1125 -397 
L 1875 -397 
L 1875 -844 
L 550 -844 
L 550 4863 
z
" transform="scale(0.015625)"/>
       <path id="DejaVuSans-54" d="M -19 4666 
L 3928 4666 
L 3928 4134 
L 2272 4134 
L 2272 0 
L 1638 0 
L 1638 4134 
L -19 4134 
L -19 4666 
z
" transform="scale(0.015625)"/>
       <path id="DejaVuSans-56" d="M 1831 0 
L 50 4666 
L 709 4666 
L 2188 738 
L 3669 4666 
L 4325 4666 
L 2547 0 
L 1831 0 
z
" transform="scale(0.015625)"/>
       <path id="DejaVuSans-5d" d="M 1947 4863 
L 1947 -844 
L 622 -844 
L 622 -397 
L 1369 -397 
L 1369 4416 
L 622 4416 
L 622 4863 
L 1947 4863 
z
" transform="scale(0.015625)"/>
      </defs>
      <use xlink:href="#DejaVuSans-45"/>
      <use xlink:href="#DejaVuSans-6e" x="63.183594"/>
      <use xlink:href="#DejaVuSans-65" x="126.5625"/>
      <use xlink:href="#DejaVuSans-72" x="188.085938"/>
      <use xlink:href="#DejaVuSans-67" x="227.449219"/>
      <use xlink:href="#DejaVuSans-79" x="290.925781"/>
      <use xlink:href="#DejaVuSans-20" x="350.105469"/>
      <use xlink:href="#DejaVuSans-5b" x="381.892578"/>
      <use xlink:href="#DejaVuSans-54" x="420.90625"/>
      <use xlink:href="#DejaVuSans-65" x="464.990234"/>
      <use xlink:href="#DejaVuSans-56" x="526.513672"/>
      <use xlink:href="#DejaVuSans-5d" x="594.921875"/>
     </g>
    </g>
   </g>
   <g id="matplotlib.axis_2">
    <g id="ytick_1">
     <g id="line2d_27">
      <defs>
       <path id="mee86474475" d="M 0 0 
L -3.5 0 
" style="stroke: #000000; stroke-width: 0.8"/>
      </defs>
      <g>
       <use xlink:href="#mee86474475" x="60.468889" y="214.66028" style="stroke: #000000; stroke-width: 0.8"/>
      </g>
     </g>
     <g id="text_5">
      <!-- $\mathdefault{10^{-16}}$ -->
      <g transform="translate(25.568889 218.459499) scale(0.1 -0.1)">
       <defs>
        <path id="DejaVuSans-2212" d="M 678 2272 
L 4684 2272 
L 4684 1741 
L 678 1741 
L 678 2272 
z
" transform="scale(0.015625)"/>
        <path id="DejaVuSans-36" d="M 2113 2584 
Q 1688 2584 1439 2293 
Q 1191 2003 1191 1497 
Q 1191 994 1439 701 
Q 1688 409 2113 409 
Q 2538 409 2786 701 
Q 3034 994 3034 1497 
Q 3034 2003 2786 2293 
Q 2538 2584 2113 2584 
z
M 3366 4563 
L 3366 3988 
Q 3128 4100 2886 4159 
Q 2644 4219 2406 4219 
Q 1781 4219 1451 3797 
Q 1122 3375 1075 2522 
Q 1259 2794 1537 2939 
Q 1816 3084 2150 3084 
Q 2853 3084 3261 2657 
Q 3669 2231 3669 1497 
Q 3669 778 3244 343 
Q 2819 -91 2113 -91 
Q 1303 -91 875 529 
Q 447 1150 447 2328 
Q 447 3434 972 4092 
Q 1497 4750 2381 4750 
Q 2619 4750 2861 4703 
Q 3103 4656 3366 4563 
z
" transform="scale(0.015625)"/>
       </defs>
       <use xlink:href="#DejaVuSans-31" transform="translate(0 0.765625)"/>
       <use xlink:href="#DejaVuSans-30" transform="translate(63.623047 0.765625)"/>
       <use xlink:href="#DejaVuSans-2212" transform="translate(128.203125 39.046875) scale(0.7)"/>
       <use xlink:href="#DejaVuSans-31" transform="translate(186.855469 39.046875) scale(0.7)"/>
       <use xlink:href="#DejaVuSans-36" transform="translate(231.391602 39.046875) scale(0.7)"/>
      </g>
     </g>
    </g>
    <g id="ytick_2">
     <g id="line2d_28">
      <g>
       <use xlink:href="#mee86474475" x="60.468889" y="171.778504" style="stroke: #000000; stroke-width: 0.8"/>
      </g>
     </g>
     <g id="text_6">
      <!-- $\mathdefault{10^{-15}}$ -->
      <g transform="translate(25.568889 175.577722) scale(0.1 -0.1)">
       <defs>
        <path id="DejaVuSans-35" d="M 691 4666 
L 3169 4666 
L 3169 4134 
L 1269 4134 
L 1269 2991 
Q 1406 3038 1543 3061 
Q 1681 3084 1819 3084 
Q 2600 3084 3056 2656 
Q 3513 2228 3513 1497 
Q 3513 744 3044 326 
Q 2575 -91 1722 -91 
Q 1428 -91 1123 -41 
Q 819 9 494 109 
L 494 744 
Q 775 591 1075 516 
Q 1375 441 1709 441 
Q 2250 441 2565 725 
Q 2881 1009 2881 1497 
Q 2881 1984 2565 2268 
Q 2250 2553 1709 2553 
Q 1456 2553 1204 2497 
Q 953 2441 691 2322 
L 691 4666 
z
" transform="scale(0.015625)"/>
       </defs>
       <use xlink:href="#DejaVuSans-31" transform="translate(0 0.684375)"/>
       <use xlink:href="#DejaVuSans-30" transform="translate(63.623047 0.684375)"/>
       <use xlink:href="#DejaVuSans-2212" transform="translate(128.203125 38.965625) scale(0.7)"/>
       <use xlink:href="#DejaVuSans-31" transform="translate(186.855469 38.965625) scale(0.7)"/>
       <use xlink:href="#DejaVuSans-35" transform="translate(231.391602 38.965625) scale(0.7)"/>
      </g>
     </g>
    </g>
    <g id="ytick_3">
     <g id="line2d_29">
      <g>
       <use xlink:href="#mee86474475" x="60.468889" y="128.896727" style="stroke: #000000; stroke-width: 0.8"/>
      </g>
     </g>
     <g id="text_7">
      <!-- $\mathdefault{10^{-14}}$ -->
      <g transform="translate(25.568889 132.695946) scale(0.1 -0.1)">
       <defs>
        <path id="DejaVuSans-34" d="M 2419 4116 
L 825 1625 
L 2419 1625 
L 2419 4116 
z
M 2253 4666 
L 3047 4666 
L 3047 1625 
L 3713 1625 
L 3713 1100 
L 3047 1100 
L 3047 0 
L 2419 0 
L 2419 1100 
L 313 1100 
L 313 1709 
L 2253 4666 
z
" transform="scale(0.015625)"/>
       </defs>
       <use xlink:href="#DejaVuSans-31" transform="translate(0 0.684375)"/>
       <use xlink:href="#DejaVuSans-30" transform="translate(63.623047 0.684375)"/>
       <use xlink:href="#DejaVuSans-2212" transform="translate(128.203125 38.965625) scale(0.7)"/>
       <use xlink:href="#DejaVuSans-31" transform="translate(186.855469 38.965625) scale(0.7)"/>
       <use xlink:href="#DejaVuSans-34" transform="translate(231.391602 38.965625) scale(0.7)"/>
      </g>
     </g>
    </g>
    <g id="ytick_4">
     <g id="line2d_30">
      <g>
       <use xlink:href="#mee86474475" x="60.468889" y="86.014951" style="stroke: #000000; stroke-width: 0.8"/>
      </g>
     </g>
     <g id="text_8">
      <!-- $\mathdefault{10^{-13}}$ -->
      <g transform="translate(25.568889 89.81417) scale(0.1 -0.1)">
       <defs>
        <path id="DejaVuSans-33" d="M 2597 2516 
Q 3050 2419 3304 2112 
Q 3559 1806 3559 1356 
Q 3559 666 3084 287 
Q 2609 -91 1734 -91 
Q 1441 -91 1130 -33 
Q 819 25 488 141 
L 488 750 
Q 750 597 1062 519 
Q 1375 441 1716 441 
Q 2309 441 2620 675 
Q 2931 909 2931 1356 
Q 2931 1769 2642 2001 
Q 2353 2234 1838 2234 
L 1294 2234 
L 1294 2753 
L 1863 2753 
Q 2328 2753 2575 2939 
Q 2822 3125 2822 3475 
Q 2822 3834 2567 4026 
Q 2313 4219 1838 4219 
Q 1578 4219 1281 4162 
Q 984 4106 628 3988 
L 628 4550 
Q 988 4650 1302 4700 
Q 1616 4750 1894 4750 
Q 2613 4750 3031 4423 
Q 3450 4097 3450 3541 
Q 3450 3153 3228 2886 
Q 3006 2619 2597 2516 
z
" transform="scale(0.015625)"/>
       </defs>
       <use xlink:href="#DejaVuSans-31" transform="translate(0 0.765625)"/>
       <use xlink:href="#DejaVuSans-30" transform="translate(63.623047 0.765625)"/>
       <use xlink:href="#DejaVuSans-2212" transform="translate(128.203125 39.046875) scale(0.7)"/>
       <use xlink:href="#DejaVuSans-31" transform="translate(186.855469 39.046875) scale(0.7)"/>
       <use xlink:href="#DejaVuSans-33" transform="translate(231.391602 39.046875) scale(0.7)"/>
      </g>
     </g>
    </g>
    <g id="ytick_5">
     <g id="line2d_31">
      <g>
       <use xlink:href="#mee86474475" x="60.468889" y="43.133175" style="stroke: #000000; stroke-width: 0.8"/>
      </g>
     </g>
     <g id="text_9">
      <!-- $\mathdefault{10^{-12}}$ -->
      <g transform="translate(25.568889 46.932394) scale(0.1 -0.1)">
       <use xlink:href="#DejaVuSans-31" transform="translate(0 0.765625)"/>
       <use xlink:href="#DejaVuSans-30" transform="translate(63.623047 0.765625)"/>
       <use xlink:href="#DejaVuSans-2212" transform="translate(128.203125 39.046875) scale(0.7)"/>
       <use xlink:href="#DejaVuSans-31" transform="translate(186.855469 39.046875) scale(0.7)"/>
       <use xlink:href="#DejaVuSans-32" transform="translate(231.391602 39.046875) scale(0.7)"/>
      </g>
     </g>
    </g>
    <g id="ytick_6">
     <g id="line2d_32">
      <defs>
       <path id="mf1e915ab97" d="M 0 0 
L -2 0 
" style="stroke: #000000; stroke-width: 0.6"/>
      </defs>
      <g>
       <use xlink:href="#mf1e915ab97" x="60.468889" y="237.082249" style="stroke: #000000; stroke-width: 0.6"/>
      </g>
     </g>
    </g>
    <g id="ytick_7">
     <g id="line2d_33">
      <g>
       <use xlink:href="#mf1e915ab97" x="60.468889" y="231.724654" style="stroke: #000000; stroke-width: 0.6"/>
      </g>
     </g>
    </g>
    <g id="ytick_8">
     <g id="line2d_34">
      <g>
       <use xlink:href="#mf1e915ab97" x="60.468889" y="227.568981" style="stroke: #000000; stroke-width: 0.6"/>
      </g>
     </g>
    </g>
    <g id="ytick_9">
     <g id="line2d_35">
      <g>
       <use xlink:href="#mf1e915ab97" x="60.468889" y="224.173548" style="stroke: #000000; stroke-width: 0.6"/>
      </g>
     </g>
    </g>
    <g id="ytick_10">
     <g id="line2d_36">
      <g>
       <use xlink:href="#mf1e915ab97" x="60.468889" y="221.302751" style="stroke: #000000; stroke-width: 0.6"/>
      </g>
     </g>
    </g>
    <g id="ytick_11">
     <g id="line2d_37">
      <g>
       <use xlink:href="#mf1e915ab97" x="60.468889" y="218.815953" style="stroke: #000000; stroke-width: 0.6"/>
      </g>
     </g>
    </g>
    <g id="ytick_12">
     <g id="line2d_38">
      <g>
       <use xlink:href="#mf1e915ab97" x="60.468889" y="216.622442" style="stroke: #000000; stroke-width: 0.6"/>
      </g>
     </g>
    </g>
    <g id="ytick_13">
     <g id="line2d_39">
      <g>
       <use xlink:href="#mf1e915ab97" x="60.468889" y="201.751579" style="stroke: #000000; stroke-width: 0.6"/>
      </g>
     </g>
    </g>
    <g id="ytick_14">
     <g id="line2d_40">
      <g>
       <use xlink:href="#mf1e915ab97" x="60.468889" y="194.200473" style="stroke: #000000; stroke-width: 0.6"/>
      </g>
     </g>
    </g>
    <g id="ytick_15">
     <g id="line2d_41">
      <g>
       <use xlink:href="#mf1e915ab97" x="60.468889" y="188.842878" style="stroke: #000000; stroke-width: 0.6"/>
      </g>
     </g>
    </g>
    <g id="ytick_16">
     <g id="line2d_42">
      <g>
       <use xlink:href="#mf1e915ab97" x="60.468889" y="184.687205" style="stroke: #000000; stroke-width: 0.6"/>
      </g>
     </g>
    </g>
    <g id="ytick_17">
     <g id="line2d_43">
      <g>
       <use xlink:href="#mf1e915ab97" x="60.468889" y="181.291772" style="stroke: #000000; stroke-width: 0.6"/>
      </g>
     </g>
    </g>
    <g id="ytick_18">
     <g id="line2d_44">
      <g>
       <use xlink:href="#mf1e915ab97" x="60.468889" y="178.420975" style="stroke: #000000; stroke-width: 0.6"/>
      </g>
     </g>
    </g>
    <g id="ytick_19">
     <g id="line2d_45">
      <g>
       <use xlink:href="#mf1e915ab97" x="60.468889" y="175.934177" style="stroke: #000000; stroke-width: 0.6"/>
      </g>
     </g>
    </g>
    <g id="ytick_20">
     <g id="line2d_46">
      <g>
       <use xlink:href="#mf1e915ab97" x="60.468889" y="173.740666" style="stroke: #000000; stroke-width: 0.6"/>
      </g>
     </g>
    </g>
    <g id="ytick_21">
     <g id="line2d_47">
      <g>
       <use xlink:href="#mf1e915ab97" x="60.468889" y="158.869803" style="stroke: #000000; stroke-width: 0.6"/>
      </g>
     </g>
    </g>
    <g id="ytick_22">
     <g id="line2d_48">
      <g>
       <use xlink:href="#mf1e915ab97" x="60.468889" y="151.318697" style="stroke: #000000; stroke-width: 0.6"/>
      </g>
     </g>
    </g>
    <g id="ytick_23">
     <g id="line2d_49">
      <g>
       <use xlink:href="#mf1e915ab97" x="60.468889" y="145.961102" style="stroke: #000000; stroke-width: 0.6"/>
      </g>
     </g>
    </g>
    <g id="ytick_24">
     <g id="line2d_50">
      <g>
       <use xlink:href="#mf1e915ab97" x="60.468889" y="141.805428" style="stroke: #000000; stroke-width: 0.6"/>
      </g>
     </g>
    </g>
    <g id="ytick_25">
     <g id="line2d_51">
      <g>
       <use xlink:href="#mf1e915ab97" x="60.468889" y="138.409996" style="stroke: #000000; stroke-width: 0.6"/>
      </g>
     </g>
    </g>
    <g id="ytick_26">
     <g id="line2d_52">
      <g>
       <use xlink:href="#mf1e915ab97" x="60.468889" y="135.539199" style="stroke: #000000; stroke-width: 0.6"/>
      </g>
     </g>
    </g>
    <g id="ytick_27">
     <g id="line2d_53">
      <g>
       <use xlink:href="#mf1e915ab97" x="60.468889" y="133.052401" style="stroke: #000000; stroke-width: 0.6"/>
      </g>
     </g>
    </g>
    <g id="ytick_28">
     <g id="line2d_54">
      <g>
       <use xlink:href="#mf1e915ab97" x="60.468889" y="130.85889" style="stroke: #000000; stroke-width: 0.6"/>
      </g>
     </g>
    </g>
    <g id="ytick_29">
     <g id="line2d_55">
      <g>
       <use xlink:href="#mf1e915ab97" x="60.468889" y="115.988027" style="stroke: #000000; stroke-width: 0.6"/>
      </g>
     </g>
    </g>
    <g id="ytick_30">
     <g id="line2d_56">
      <g>
       <use xlink:href="#mf1e915ab97" x="60.468889" y="108.436921" style="stroke: #000000; stroke-width: 0.6"/>
      </g>
     </g>
    </g>
    <g id="ytick_31">
     <g id="line2d_57">
      <g>
       <use xlink:href="#mf1e915ab97" x="60.468889" y="103.079326" style="stroke: #000000; stroke-width: 0.6"/>
      </g>
     </g>
    </g>
    <g id="ytick_32">
     <g id="line2d_58">
      <g>
       <use xlink:href="#mf1e915ab97" x="60.468889" y="98.923652" style="stroke: #000000; stroke-width: 0.6"/>
      </g>
     </g>
    </g>
    <g id="ytick_33">
     <g id="line2d_59">
      <g>
       <use xlink:href="#mf1e915ab97" x="60.468889" y="95.52822" style="stroke: #000000; stroke-width: 0.6"/>
      </g>
     </g>
    </g>
    <g id="ytick_34">
     <g id="line2d_60">
      <g>
       <use xlink:href="#mf1e915ab97" x="60.468889" y="92.657422" style="stroke: #000000; stroke-width: 0.6"/>
      </g>
     </g>
    </g>
    <g id="ytick_35">
     <g id="line2d_61">
      <g>
       <use xlink:href="#mf1e915ab97" x="60.468889" y="90.170625" style="stroke: #000000; stroke-width: 0.6"/>
      </g>
     </g>
    </g>
    <g id="ytick_36">
     <g id="line2d_62">
      <g>
       <use xlink:href="#mf1e915ab97" x="60.468889" y="87.977114" style="stroke: #000000; stroke-width: 0.6"/>
      </g>
     </g>
    </g>
    <g id="ytick_37">
     <g id="line2d_63">
      <g>
       <use xlink:href="#mf1e915ab97" x="60.468889" y="73.10625" style="stroke: #000000; stroke-width: 0.6"/>
      </g>
     </g>
    </g>
    <g id="ytick_38">
     <g id="line2d_64">
      <g>
       <use xlink:href="#mf1e915ab97" x="60.468889" y="65.555144" style="stroke: #000000; stroke-width: 0.6"/>
      </g>
     </g>
    </g>
    <g id="ytick_39">
     <g id="line2d_65">
      <g>
       <use xlink:href="#mf1e915ab97" x="60.468889" y="60.197549" style="stroke: #000000; stroke-width: 0.6"/>
      </g>
     </g>
    </g>
    <g id="ytick_40">
     <g id="line2d_66">
      <g>
       <use xlink:href="#mf1e915ab97" x="60.468889" y="56.041876" style="stroke: #000000; stroke-width: 0.6"/>
      </g>
     </g>
    </g>
    <g id="ytick_41">
     <g id="line2d_67">
      <g>
       <use xlink:href="#mf1e915ab97" x="60.468889" y="52.646443" style="stroke: #000000; stroke-width: 0.6"/>
      </g>
     </g>
    </g>
    <g id="ytick_42">
     <g id="line2d_68">
      <g>
       <use xlink:href="#mf1e915ab97" x="60.468889" y="49.775646" style="stroke: #000000; stroke-width: 0.6"/>
      </g>
     </g>
    </g>
    <g id="ytick_43">
     <g id="line2d_69">
      <g>
       <use xlink:href="#mf1e915ab97" x="60.468889" y="47.288848" style="stroke: #000000; stroke-width: 0.6"/>
      </g>
     </g>
    </g>
    <g id="ytick_44">
     <g id="line2d_70">
      <g>
       <use xlink:href="#mf1e915ab97" x="60.468889" y="45.095337" style="stroke: #000000; stroke-width: 0.6"/>
      </g>
     </g>
    </g>
    <g id="ytick_45">
     <g id="line2d_71">
      <g>
       <use xlink:href="#mf1e915ab97" x="60.468889" y="30.224474" style="stroke: #000000; stroke-width: 0.6"/>
      </g>
     </g>
    </g>
    <g id="ytick_46">
     <g id="line2d_72">
      <g>
       <use xlink:href="#mf1e915ab97" x="60.468889" y="22.673368" style="stroke: #000000; stroke-width: 0.6"/>
      </g>
     </g>
    </g>
    <g id="ytick_47">
     <g id="line2d_73">
      <g>
       <use xlink:href="#mf1e915ab97" x="60.468889" y="17.315773" style="stroke: #000000; stroke-width: 0.6"/>
      </g>
     </g>
    </g>
    <g id="ytick_48">
     <g id="line2d_74">
      <g>
       <use xlink:href="#mf1e915ab97" x="60.468889" y="13.1601" style="stroke: #000000; stroke-width: 0.6"/>
      </g>
     </g>
    </g>
    <g id="text_10">
     <!-- e2 * dnde [TeV / (cm2 s)] -->
     <g transform="translate(19.489202 189.243688) rotate(-90) scale(0.1 -0.1)">
      <defs>
       <path id="DejaVuSans-2a" d="M 3009 3897 
L 1888 3291 
L 3009 2681 
L 2828 2375 
L 1778 3009 
L 1778 1831 
L 1422 1831 
L 1422 3009 
L 372 2375 
L 191 2681 
L 1313 3291 
L 191 3897 
L 372 4206 
L 1422 3572 
L 1422 4750 
L 1778 4750 
L 1778 3572 
L 2828 4206 
L 3009 3897 
z
" transform="scale(0.015625)"/>
       <path id="DejaVuSans-64" d="M 2906 2969 
L 2906 4863 
L 3481 4863 
L 3481 0 
L 2906 0 
L 2906 525 
Q 2725 213 2448 61 
Q 2172 -91 1784 -91 
Q 1150 -91 751 415 
Q 353 922 353 1747 
Q 353 2572 751 3078 
Q 1150 3584 1784 3584 
Q 2172 3584 2448 3432 
Q 2725 3281 2906 2969 
z
M 947 1747 
Q 947 1113 1208 752 
Q 1469 391 1925 391 
Q 2381 391 2643 752 
Q 2906 1113 2906 1747 
Q 2906 2381 2643 2742 
Q 2381 3103 1925 3103 
Q 1469 3103 1208 2742 
Q 947 2381 947 1747 
z
" transform="scale(0.015625)"/>
       <path id="DejaVuSans-2f" d="M 1625 4666 
L 2156 4666 
L 531 -594 
L 0 -594 
L 1625 4666 
z
" transform="scale(0.015625)"/>
       <path id="DejaVuSans-28" d="M 1984 4856 
Q 1566 4138 1362 3434 
Q 1159 2731 1159 2009 
Q 1159 1288 1364 580 
Q 1569 -128 1984 -844 
L 1484 -844 
Q 1016 -109 783 600 
Q 550 1309 550 2009 
Q 550 2706 781 3412 
Q 1013 4119 1484 4856 
L 1984 4856 
z
" transform="scale(0.015625)"/>
       <path id="DejaVuSans-63" d="M 3122 3366 
L 3122 2828 
Q 2878 2963 2633 3030 
Q 2388 3097 2138 3097 
Q 1578 3097 1268 2742 
Q 959 2388 959 1747 
Q 959 1106 1268 751 
Q 1578 397 2138 397 
Q 2388 397 2633 464 
Q 2878 531 3122 666 
L 3122 134 
Q 2881 22 2623 -34 
Q 2366 -91 2075 -91 
Q 1284 -91 818 406 
Q 353 903 353 1747 
Q 353 2603 823 3093 
Q 1294 3584 2113 3584 
Q 2378 3584 2631 3529 
Q 2884 3475 3122 3366 
z
" transform="scale(0.015625)"/>
       <path id="DejaVuSans-6d" d="M 3328 2828 
Q 3544 3216 3844 3400 
Q 4144 3584 4550 3584 
Q 5097 3584 5394 3201 
Q 5691 2819 5691 2113 
L 5691 0 
L 5113 0 
L 5113 2094 
Q 5113 2597 4934 2840 
Q 4756 3084 4391 3084 
Q 3944 3084 3684 2787 
Q 3425 2491 3425 1978 
L 3425 0 
L 2847 0 
L 2847 2094 
Q 2847 2600 2669 2842 
Q 2491 3084 2119 3084 
Q 1678 3084 1418 2786 
Q 1159 2488 1159 1978 
L 1159 0 
L 581 0 
L 581 3500 
L 1159 3500 
L 1159 2956 
Q 1356 3278 1631 3431 
Q 1906 3584 2284 3584 
Q 2666 3584 2933 3390 
Q 3200 3197 3328 2828 
z
" transform="scale(0.015625)"/>
       <path id="DejaVuSans-73" d="M 2834 3397 
L 2834 2853 
Q 2591 2978 2328 3040 
Q 2066 3103 1784 3103 
Q 1356 3103 1142 2972 
Q 928 2841 928 2578 
Q 928 2378 1081 2264 
Q 1234 2150 1697 2047 
L 1894 2003 
Q 2506 1872 2764 1633 
Q 3022 1394 3022 966 
Q 3022 478 2636 193 
Q 2250 -91 1575 -91 
Q 1294 -91 989 -36 
Q 684 19 347 128 
L 347 722 
Q 666 556 975 473 
Q 1284 391 1588 391 
Q 1994 391 2212 530 
Q 2431 669 2431 922 
Q 2431 1156 2273 1281 
Q 2116 1406 1581 1522 
L 1381 1569 
Q 847 1681 609 1914 
Q 372 2147 372 2553 
Q 372 3047 722 3315 
Q 1072 3584 1716 3584 
Q 2034 3584 2315 3537 
Q 2597 3491 2834 3397 
z
" transform="scale(0.015625)"/>
       <path id="DejaVuSans-29" d="M 513 4856 
L 1013 4856 
Q 1481 4119 1714 3412 
Q 1947 2706 1947 2009 
Q 1947 1309 1714 600 
Q 1481 -109 1013 -844 
L 513 -844 
Q 928 -128 1133 580 
Q 1338 1288 1338 2009 
Q 1338 2731 1133 3434 
Q 928 4138 513 4856 
z
" transform="scale(0.015625)"/>
      </defs>
      <use xlink:href="#DejaVuSans-65"/>
      <use xlink:href="#DejaVuSans-32" x="61.523438"/>
      <use xlink:href="#DejaVuSans-20" x="125.146484"/>
      <use xlink:href="#DejaVuSans-2a" x="156.933594"/>
      <use xlink:href="#DejaVuSans-20" x="206.933594"/>
      <use xlink:href="#DejaVuSans-64" x="238.720703"/>
      <use xlink:href="#DejaVuSans-6e" x="302.197266"/>
      <use xlink:href="#DejaVuSans-64" x="365.576172"/>
      <use xlink:href="#DejaVuSans-65" x="429.052734"/>
      <use xlink:href="#DejaVuSans-20" x="490.576172"/>
      <use xlink:href="#DejaVuSans-5b" x="522.363281"/>
      <use xlink:href="#DejaVuSans-54" x="561.376953"/>
      <use xlink:href="#DejaVuSans-65" x="605.460938"/>
      <use xlink:href="#DejaVuSans-56" x="666.984375"/>
      <use xlink:href="#DejaVuSans-20" x="735.392578"/>
      <use xlink:href="#DejaVuSans-2f" x="767.179688"/>
      <use xlink:href="#DejaVuSans-20" x="800.871094"/>
      <use xlink:href="#DejaVuSans-28" x="832.658203"/>
      <use xlink:href="#DejaVuSans-63" x="871.671875"/>
      <use xlink:href="#DejaVuSans-6d" x="926.652344"/>
      <use xlink:href="#DejaVuSans-32" x="1024.064453"/>
      <use xlink:href="#DejaVuSans-20" x="1087.6875"/>
      <use xlink:href="#DejaVuSans-73" x="1119.474609"/>
      <use xlink:href="#DejaVuSans-29" x="1171.574219"/>
      <use xlink:href="#DejaVuSans-5d" x="1210.587891"/>
     </g>
    </g>
   </g>
   <g id="line2d_75">
    <path d="M 78.477357 24.480081 
L 81.700555 24.545602 
L 84.923754 24.613083 
L 88.146952 24.682634 
L 91.37015 24.75437 
L 94.593348 24.828416 
L 97.816546 24.904901 
L 101.039745 24.983962 
L 104.262943 25.065744 
L 107.486141 25.1504 
L 110.709339 25.23809 
L 113.932538 25.328987 
L 117.155736 25.423269 
L 120.378934 25.521128 
L 123.602132 25.622765 
L 126.825331 25.728391 
L 130.048529 25.838231 
L 133.271727 25.952522 
L 136.494925 26.071514 
L 139.718123 26.195471 
L 142.941322 26.324672 
L 146.16452 26.459413 
L 149.387718 26.600004 
L 152.610916 26.746775 
L 155.834115 26.900072 
L 159.057313 27.060263 
L 162.280511 27.227735 
L 165.503709 27.402897 
L 168.726907 27.586182 
L 171.950106 27.778046 
L 175.173304 27.978971 
L 178.396502 28.189467 
L 181.6197 28.410072 
L 184.842899 28.641353 
L 188.066097 28.883912 
L 191.289295 29.138381 
L 194.512493 29.405431 
L 197.735691 29.685768 
L 200.95889 29.980139 
L 204.182088 30.289334 
L 207.405286 30.614185 
L 210.628484 30.955573 
L 213.851683 31.314427 
L 217.074881 31.691728 
L 220.298079 32.088514 
L 223.521277 32.50588 
L 226.744476 32.944983 
L 229.967674 33.407044 
L 233.190872 33.893355 
L 236.41407 34.405277 
L 239.637268 34.944251 
L 242.860467 35.511797 
L 246.083665 36.109521 
L 249.306863 36.73912 
L 252.530061 37.402384 
L 255.75326 38.101208 
L 258.976458 38.837588 
L 262.199656 39.613637 
L 265.422854 40.431584 
L 268.646052 41.293784 
L 271.869251 42.202724 
L 275.092449 43.161032 
L 278.315647 44.171483 
L 281.538845 45.237007 
L 284.762044 46.360701 
L 287.985242 47.545833 
L 291.20844 48.795858 
L 294.431638 50.114423 
L 297.654836 51.50538 
L 300.878035 52.972798 
L 304.101233 54.520977 
L 307.324431 56.154454 
L 310.547629 57.878024 
L 313.770828 59.696752 
L 316.994026 61.615986 
L 320.217224 63.641376 
L 323.440422 65.778889 
L 326.663621 68.034827 
L 329.886819 70.415846 
L 333.110017 72.928977 
L 336.333215 75.581647 
L 339.556413 78.381698 
L 342.779612 81.337416 
L 346.00281 84.457549 
L 349.226008 87.751339 
L 352.449206 91.228548 
L 355.672405 94.899485 
L 358.895603 98.77504 
L 362.118801 102.866714 
L 365.341999 107.186655 
L 368.565197 111.747695 
L 371.788396 116.563383 
L 375.011594 121.648036 
L 378.234792 127.01677 
L 381.45799 132.685554 
L 384.681189 138.671253 
L 387.904387 144.991681 
L 391.127585 151.665653 
L 394.350783 158.713041 
L 397.573981 166.154836 
" clip-path="url(#p7718822850)" style="fill: none; stroke-dasharray: 1.5,2.475; stroke-dashoffset: 0; stroke: #000000; stroke-width: 1.5"/>
   </g>
   <g id="LineCollection_1">
    <path clip-path="url(#p7718822850)" style="fill: none; stroke: #8b0000; stroke-width: 1.5"/>
    <path clip-path="url(#p7718822850)" style="fill: none; stroke: #8b0000; stroke-width: 1.5"/>
    <path clip-path="url(#p7718822850)" style="fill: none; stroke: #8b0000; stroke-width: 1.5"/>
    <path clip-path="url(#p7718822850)" style="fill: none; stroke: #8b0000; stroke-width: 1.5"/>
    <path d="M 82.483309 25.722378 
L 82.483309 23.2553 
" clip-path="url(#p7718822850)" style="fill: none; stroke: #8b0000; stroke-width: 1.5"/>
    <path d="M 99.447511 25.919628 
L 99.447511 23.76404 
" clip-path="url(#p7718822850)" style="fill: none; stroke: #8b0000; stroke-width: 1.5"/>
    <path d="M 116.411711 26.312093 
L 116.411711 24.227113 
" clip-path="url(#p7718822850)" style="fill: none; stroke: #8b0000; stroke-width: 1.5"/>
    <path d="M 133.375912 26.835206 
L 133.375912 24.74301 
" clip-path="url(#p7718822850)" style="fill: none; stroke: #8b0000; stroke-width: 1.5"/>
    <path d="M 150.340115 27.534459 
L 150.340115 25.327733 
" clip-path="url(#p7718822850)" style="fill: none; stroke: #8b0000; stroke-width: 1.5"/>
    <path d="M 167.304316 28.40716 
L 167.304316 26.059422 
" clip-path="url(#p7718822850)" style="fill: none; stroke: #8b0000; stroke-width: 1.5"/>
    <path d="M 184.268515 29.552596 
L 184.268515 26.951192 
" clip-path="url(#p7718822850)" style="fill: none; stroke: #8b0000; stroke-width: 1.5"/>
    <path d="M 201.232717 31.024705 
L 201.232717 28.090368 
" clip-path="url(#p7718822850)" style="fill: none; stroke: #8b0000; stroke-width: 1.5"/>
    <path d="M 218.19692 32.943019 
L 218.19692 29.552352 
" clip-path="url(#p7718822850)" style="fill: none; stroke: #8b0000; stroke-width: 1.5"/>
    <path d="M 235.16112 35.488878 
L 235.16112 31.422434 
" clip-path="url(#p7718822850)" style="fill: none; stroke: #8b0000; stroke-width: 1.5"/>
    <path d="M 252.125319 38.879132 
L 252.125319 33.841512 
" clip-path="url(#p7718822850)" style="fill: none; stroke: #8b0000; stroke-width: 1.5"/>
    <path d="M 269.089521 43.311951 
L 269.089521 37.071201 
" clip-path="url(#p7718822850)" style="fill: none; stroke: #8b0000; stroke-width: 1.5"/>
    <path d="M 286.053724 49.374581 
L 286.053724 41.239121 
" clip-path="url(#p7718822850)" style="fill: none; stroke: #8b0000; stroke-width: 1.5"/>
    <path d="M 303.017927 57.864552 
L 303.017927 46.599351 
" clip-path="url(#p7718822850)" style="fill: none; stroke: #8b0000; stroke-width: 1.5"/>
    <path d="M 319.982128 70.286241 
L 319.982128 53.471888 
" clip-path="url(#p7718822850)" style="fill: none; stroke: #8b0000; stroke-width: 1.5"/>
    <path d="M 336.946327 92.719927 
L 336.946327 61.866195 
" clip-path="url(#p7718822850)" style="fill: none; stroke: #8b0000; stroke-width: 1.5"/>
    <path d="M 353.910529 289 
L 353.910529 71.813999 
" clip-path="url(#p7718822850)" style="fill: none; stroke: #8b0000; stroke-width: 1.5"/>
    <path d="M 370.87473 289 
L 370.87473 82.772777 
" clip-path="url(#p7718822850)" style="fill: none; stroke: #8b0000; stroke-width: 1.5"/>
    <path d="M 387.838929 289 
L 387.838929 93.27343 
" clip-path="url(#p7718822850)" style="fill: none; stroke: #8b0000; stroke-width: 1.5"/>
    <path d="M 404.803131 289 
L 404.803131 102.55462 
" clip-path="url(#p7718822850)" style="fill: none; stroke: #8b0000; stroke-width: 1.5"/>
   </g>
   <g id="LineCollection_2">
    <path clip-path="url(#p7718822850)" style="fill: none; stroke: #006400; stroke-width: 1.5"/>
    <path clip-path="url(#p7718822850)" style="fill: none; stroke: #006400; stroke-width: 1.5"/>
    <path clip-path="url(#p7718822850)" style="fill: none; stroke: #006400; stroke-width: 1.5"/>
    <path clip-path="url(#p7718822850)" style="fill: none; stroke: #006400; stroke-width: 1.5"/>
    <path d="M 76.865758 26.447853 
L 76.865758 22.640795 
" clip-path="url(#p7718822850)" style="fill: none; stroke: #006400; stroke-width: 1.5"/>
    <path d="M 93.82996 26.590714 
L 93.82996 23.191749 
" clip-path="url(#p7718822850)" style="fill: none; stroke: #006400; stroke-width: 1.5"/>
    <path d="M 110.79416 26.96161 
L 110.79416 23.66969 
" clip-path="url(#p7718822850)" style="fill: none; stroke: #006400; stroke-width: 1.5"/>
    <path d="M 127.758361 27.47898 
L 127.758361 24.176131 
" clip-path="url(#p7718822850)" style="fill: none; stroke: #006400; stroke-width: 1.5"/>
    <path d="M 144.722564 28.203769 
L 144.722564 24.751866 
" clip-path="url(#p7718822850)" style="fill: none; stroke: #006400; stroke-width: 1.5"/>
    <path d="M 161.686765 29.088915 
L 161.686765 25.47611 
" clip-path="url(#p7718822850)" style="fill: none; stroke: #006400; stroke-width: 1.5"/>
    <path d="M 178.650965 30.26431 
L 178.650965 26.353311 
" clip-path="url(#p7718822850)" style="fill: none; stroke: #006400; stroke-width: 1.5"/>
    <path d="M 195.615166 31.759468 
L 195.615166 27.480017 
" clip-path="url(#p7718822850)" style="fill: none; stroke: #006400; stroke-width: 1.5"/>
    <path d="M 212.579369 33.697475 
L 212.579369 28.938997 
" clip-path="url(#p7718822850)" style="fill: none; stroke: #006400; stroke-width: 1.5"/>
    <path d="M 229.543569 36.242846 
L 229.543569 30.834277 
" clip-path="url(#p7718822850)" style="fill: none; stroke: #006400; stroke-width: 1.5"/>
    <path d="M 246.507769 39.619854 
L 246.507769 33.299523 
" clip-path="url(#p7718822850)" style="fill: none; stroke: #006400; stroke-width: 1.5"/>
    <path d="M 263.471971 44.040398 
L 263.471971 36.583201 
" clip-path="url(#p7718822850)" style="fill: none; stroke: #006400; stroke-width: 1.5"/>
    <path d="M 280.436173 50.074795 
L 280.436173 40.812698 
" clip-path="url(#p7718822850)" style="fill: none; stroke: #006400; stroke-width: 1.5"/>
    <path d="M 297.400376 58.542294 
L 297.400376 46.251898 
" clip-path="url(#p7718822850)" style="fill: none; stroke: #006400; stroke-width: 1.5"/>
    <path d="M 314.364577 70.99554 
L 314.364577 53.212248 
" clip-path="url(#p7718822850)" style="fill: none; stroke: #006400; stroke-width: 1.5"/>
    <path d="M 331.328777 93.768545 
L 331.328777 61.687878 
" clip-path="url(#p7718822850)" style="fill: none; stroke: #006400; stroke-width: 1.5"/>
    <path d="M 348.292978 289 
L 348.292978 71.723791 
" clip-path="url(#p7718822850)" style="fill: none; stroke: #006400; stroke-width: 1.5"/>
    <path d="M 365.257179 289 
L 365.257179 82.736541 
" clip-path="url(#p7718822850)" style="fill: none; stroke: #006400; stroke-width: 1.5"/>
    <path d="M 382.221378 289 
L 382.221378 93.341078 
" clip-path="url(#p7718822850)" style="fill: none; stroke: #006400; stroke-width: 1.5"/>
    <path d="M 399.185581 289 
L 399.185581 102.640133 
" clip-path="url(#p7718822850)" style="fill: none; stroke: #006400; stroke-width: 1.5"/>
   </g>
   <g id="line2d_76">
    <defs>
     <path id="m64fa4938ce" d="M 0 3 
C 0.795609 3 1.55874 2.683901 2.12132 2.12132 
C 2.683901 1.55874 3 0.795609 3 0 
C 3 -0.795609 2.683901 -1.55874 2.12132 -2.12132 
C 1.55874 -2.683901 0.795609 -3 0 -3 
C -0.795609 -3 -1.55874 -2.683901 -2.12132 -2.12132 
C -2.683901 -1.55874 -3 -0.795609 -3 0 
C -3 0.795609 -2.683901 1.55874 -2.12132 2.12132 
C -1.55874 2.683901 -0.795609 3 0 3 
z
" style="stroke: #8b0000"/>
    </defs>
    <g clip-path="url(#p7718822850)">
     <use xlink:href="#m64fa4938ce" x="82.483309" y="24.448016" style="fill: #8b0000; stroke: #8b0000"/>
     <use xlink:href="#m64fa4938ce" x="99.447511" y="24.810664" style="fill: #8b0000; stroke: #8b0000"/>
     <use xlink:href="#m64fa4938ce" x="116.411711" y="25.24044" style="fill: #8b0000; stroke: #8b0000"/>
     <use xlink:href="#m64fa4938ce" x="133.375912" y="25.759743" style="fill: #8b0000; stroke: #8b0000"/>
     <use xlink:href="#m64fa4938ce" x="150.340115" y="26.39843" style="fill: #8b0000; stroke: #8b0000"/>
     <use xlink:href="#m64fa4938ce" x="167.304316" y="27.19632" style="fill: #8b0000; stroke: #8b0000"/>
     <use xlink:href="#m64fa4938ce" x="184.268515" y="28.206508" style="fill: #8b0000; stroke: #8b0000"/>
     <use xlink:href="#m64fa4938ce" x="201.232717" y="29.499803" style="fill: #8b0000; stroke: #8b0000"/>
     <use xlink:href="#m64fa4938ce" x="218.19692" y="31.170626" style="fill: #8b0000; stroke: #8b0000"/>
     <use xlink:href="#m64fa4938ce" x="235.16112" y="33.344886" style="fill: #8b0000; stroke: #8b0000"/>
     <use xlink:href="#m64fa4938ce" x="252.125319" y="36.190504" style="fill: #8b0000; stroke: #8b0000"/>
     <use xlink:href="#m64fa4938ce" x="269.089521" y="39.931378" style="fill: #8b0000; stroke: #8b0000"/>
     <use xlink:href="#m64fa4938ce" x="286.053724" y="44.866099" style="fill: #8b0000; stroke: #8b0000"/>
     <use xlink:href="#m64fa4938ce" x="303.017927" y="51.392843" style="fill: #8b0000; stroke: #8b0000"/>
     <use xlink:href="#m64fa4938ce" x="319.982128" y="60.042581" style="fill: #8b0000; stroke: #8b0000"/>
     <use xlink:href="#m64fa4938ce" x="336.946327" y="71.523378" style="fill: #8b0000; stroke: #8b0000"/>
     <use xlink:href="#m64fa4938ce" x="353.910529" y="86.779453" style="fill: #8b0000; stroke: #8b0000"/>
     <use xlink:href="#m64fa4938ce" x="370.87473" y="107.069943" style="fill: #8b0000; stroke: #8b0000"/>
     <use xlink:href="#m64fa4938ce" x="387.838929" y="134.073929" style="fill: #8b0000; stroke: #8b0000"/>
     <use xlink:href="#m64fa4938ce" x="404.803131" y="170.030499" style="fill: #8b0000; stroke: #8b0000"/>
    </g>
   </g>
   <g id="line2d_77">
    <defs>
     <path id="mea14a91261" d="M 0 3 
C 0.795609 3 1.55874 2.683901 2.12132 2.12132 
C 2.683901 1.55874 3 0.795609 3 0 
C 3 -0.795609 2.683901 -1.55874 2.12132 -2.12132 
C 1.55874 -2.683901 0.795609 -3 0 -3 
C -0.795609 -3 -1.55874 -2.683901 -2.12132 -2.12132 
C -2.683901 -1.55874 -3 -0.795609 -3 0 
C -3 0.795609 -2.683901 1.55874 -2.12132 2.12132 
C -1.55874 2.683901 -0.795609 3 0 3 
z
" style="stroke: #006400"/>
    </defs>
    <g clip-path="url(#p7718822850)">
     <use xlink:href="#mea14a91261" x="76.865758" y="24.447211" style="fill: #006400; stroke: #006400"/>
     <use xlink:href="#mea14a91261" x="93.82996" y="24.813795" style="fill: #006400; stroke: #006400"/>
     <use xlink:href="#mea14a91261" x="110.79416" y="25.243008" style="fill: #006400; stroke: #006400"/>
     <use xlink:href="#mea14a91261" x="127.758361" y="25.754432" style="fill: #006400; stroke: #006400"/>
     <use xlink:href="#mea14a91261" x="144.722564" y="26.397954" style="fill: #006400; stroke: #006400"/>
     <use xlink:href="#mea14a91261" x="161.686765" y="27.195042" style="fill: #006400; stroke: #006400"/>
     <use xlink:href="#mea14a91261" x="178.650965" y="28.206332" style="fill: #006400; stroke: #006400"/>
     <use xlink:href="#mea14a91261" x="195.615166" y="29.49709" style="fill: #006400; stroke: #006400"/>
     <use xlink:href="#mea14a91261" x="212.579369" y="31.166667" style="fill: #006400; stroke: #006400"/>
     <use xlink:href="#mea14a91261" x="229.543569" y="33.342904" style="fill: #006400; stroke: #006400"/>
     <use xlink:href="#mea14a91261" x="246.507769" y="36.192843" style="fill: #006400; stroke: #006400"/>
     <use xlink:href="#mea14a91261" x="263.471971" y="39.941013" style="fill: #006400; stroke: #006400"/>
     <use xlink:href="#mea14a91261" x="280.436173" y="44.873785" style="fill: #006400; stroke: #006400"/>
     <use xlink:href="#mea14a91261" x="297.400376" y="51.401102" style="fill: #006400; stroke: #006400"/>
     <use xlink:href="#mea14a91261" x="314.364577" y="60.057308" style="fill: #006400; stroke: #006400"/>
     <use xlink:href="#mea14a91261" x="331.328777" y="71.536261" style="fill: #006400; stroke: #006400"/>
     <use xlink:href="#mea14a91261" x="348.292978" y="86.809613" style="fill: #006400; stroke: #006400"/>
     <use xlink:href="#mea14a91261" x="365.257179" y="107.103026" style="fill: #006400; stroke: #006400"/>
     <use xlink:href="#mea14a91261" x="382.221378" y="134.181966" style="fill: #006400; stroke: #006400"/>
     <use xlink:href="#mea14a91261" x="399.185581" y="170.144209" style="fill: #006400; stroke: #006400"/>
    </g>
   </g>
   <g id="patch_3">
    <path d="M 60.468889 242.728 
L 60.468889 10.8 
" style="fill: none; stroke: #000000; stroke-width: 0.8; stroke-linejoin: miter; stroke-linecap: square"/>
   </g>
   <g id="patch_4">
    <path d="M 421.2 242.728 
L 421.2 10.8 
" style="fill: none; stroke: #000000; stroke-width: 0.8; stroke-linejoin: miter; stroke-linecap: square"/>
   </g>
   <g id="patch_5">
    <path d="M 60.468889 242.728 
L 421.2 242.728 
" style="fill: none; stroke: #000000; stroke-width: 0.8; stroke-linejoin: miter; stroke-linecap: square"/>
   </g>
   <g id="patch_6">
    <path d="M 60.468889 10.8 
L 421.2 10.8 
" style="fill: none; stroke: #000000; stroke-width: 0.8; stroke-linejoin: miter; stroke-linecap: square"/>
   </g>
   <g id="legend_1">
    <g id="patch_7">
     <path d="M 67.468889 237.728 
L 161.368889 237.728 
Q 163.368889 237.728 163.368889 235.728 
L 163.368889 192.693625 
Q 163.368889 190.693625 161.368889 190.693625 
L 67.468889 190.693625 
Q 65.468889 190.693625 65.468889 192.693625 
L 65.468889 235.728 
Q 65.468889 237.728 67.468889 237.728 
z
" style="fill: #ffffff; opacity: 0.8; stroke: #cccccc; stroke-linejoin: miter"/>
    </g>
    <g id="patch_8">
     <path d="M 69.468889 202.292063 
L 89.468889 202.292063 
L 89.468889 195.292063 
L 69.468889 195.292063 
z
" style="fill: #008000; fill-opacity: 0.5"/>
    </g>
    <g id="text_11">
     <!-- $1\sigma$ Nuisance -->
     <g transform="translate(97.468889 202.292063) scale(0.1 -0.1)">
      <defs>
       <path id="DejaVuSans-Oblique-3c3" d="M 2219 3044 
Q 1744 3044 1422 2700 
Q 1081 2341 969 1747 
Q 844 1119 1044 756 
Q 1241 397 1706 397 
Q 2166 397 2503 759 
Q 2844 1122 2966 1747 
Q 3075 2319 2881 2700 
Q 2700 3044 2219 3044 
z
M 2309 3503 
L 4219 3500 
L 4106 2925 
L 3463 2925 
Q 3706 2438 3575 1747 
Q 3406 888 2884 400 
Q 2359 -91 1609 -91 
Q 856 -91 525 400 
Q 194 888 363 1747 
Q 528 2609 1050 3097 
Q 1484 3503 2309 3503 
z
" transform="scale(0.015625)"/>
       <path id="DejaVuSans-4e" d="M 628 4666 
L 1478 4666 
L 3547 763 
L 3547 4666 
L 4159 4666 
L 4159 0 
L 3309 0 
L 1241 3903 
L 1241 0 
L 628 0 
L 628 4666 
z
" transform="scale(0.015625)"/>
       <path id="DejaVuSans-75" d="M 544 1381 
L 544 3500 
L 1119 3500 
L 1119 1403 
Q 1119 906 1312 657 
Q 1506 409 1894 409 
Q 2359 409 2629 706 
Q 2900 1003 2900 1516 
L 2900 3500 
L 3475 3500 
L 3475 0 
L 2900 0 
L 2900 538 
Q 2691 219 2414 64 
Q 2138 -91 1772 -91 
Q 1169 -91 856 284 
Q 544 659 544 1381 
z
M 1991 3584 
L 1991 3584 
z
" transform="scale(0.015625)"/>
       <path id="DejaVuSans-69" d="M 603 3500 
L 1178 3500 
L 1178 0 
L 603 0 
L 603 3500 
z
M 603 4863 
L 1178 4863 
L 1178 4134 
L 603 4134 
L 603 4863 
z
" transform="scale(0.015625)"/>
       <path id="DejaVuSans-61" d="M 2194 1759 
Q 1497 1759 1228 1600 
Q 959 1441 959 1056 
Q 959 750 1161 570 
Q 1363 391 1709 391 
Q 2188 391 2477 730 
Q 2766 1069 2766 1631 
L 2766 1759 
L 2194 1759 
z
M 3341 1997 
L 3341 0 
L 2766 0 
L 2766 531 
Q 2569 213 2275 61 
Q 1981 -91 1556 -91 
Q 1019 -91 701 211 
Q 384 513 384 1019 
Q 384 1609 779 1909 
Q 1175 2209 1959 2209 
L 2766 2209 
L 2766 2266 
Q 2766 2663 2505 2880 
Q 2244 3097 1772 3097 
Q 1472 3097 1187 3025 
Q 903 2953 641 2809 
L 641 3341 
Q 956 3463 1253 3523 
Q 1550 3584 1831 3584 
Q 2591 3584 2966 3190 
Q 3341 2797 3341 1997 
z
" transform="scale(0.015625)"/>
      </defs>
      <use xlink:href="#DejaVuSans-31" transform="translate(0 0.015625)"/>
      <use xlink:href="#DejaVuSans-Oblique-3c3" transform="translate(63.623047 0.015625)"/>
      <use xlink:href="#DejaVuSans-20" transform="translate(127.001953 0.015625)"/>
      <use xlink:href="#DejaVuSans-4e" transform="translate(158.789062 0.015625)"/>
      <use xlink:href="#DejaVuSans-75" transform="translate(233.59375 0.015625)"/>
      <use xlink:href="#DejaVuSans-69" transform="translate(296.972656 0.015625)"/>
      <use xlink:href="#DejaVuSans-73" transform="translate(324.755859 0.015625)"/>
      <use xlink:href="#DejaVuSans-61" transform="translate(376.855469 0.015625)"/>
      <use xlink:href="#DejaVuSans-6e" transform="translate(438.134766 0.015625)"/>
      <use xlink:href="#DejaVuSans-63" transform="translate(501.513672 0.015625)"/>
      <use xlink:href="#DejaVuSans-65" transform="translate(556.494141 0.015625)"/>
     </g>
    </g>
    <g id="patch_9">
     <path d="M 69.468889 216.970188 
L 89.468889 216.970188 
L 89.468889 209.970188 
L 69.468889 209.970188 
z
" style="fill: #ff0000; fill-opacity: 0.6"/>
    </g>
    <g id="text_12">
     <!-- $1\sigma$ Standard -->
     <g transform="translate(97.468889 216.970188) scale(0.1 -0.1)">
      <defs>
       <path id="DejaVuSans-53" d="M 3425 4513 
L 3425 3897 
Q 3066 4069 2747 4153 
Q 2428 4238 2131 4238 
Q 1616 4238 1336 4038 
Q 1056 3838 1056 3469 
Q 1056 3159 1242 3001 
Q 1428 2844 1947 2747 
L 2328 2669 
Q 3034 2534 3370 2195 
Q 3706 1856 3706 1288 
Q 3706 609 3251 259 
Q 2797 -91 1919 -91 
Q 1588 -91 1214 -16 
Q 841 59 441 206 
L 441 856 
Q 825 641 1194 531 
Q 1563 422 1919 422 
Q 2459 422 2753 634 
Q 3047 847 3047 1241 
Q 3047 1584 2836 1778 
Q 2625 1972 2144 2069 
L 1759 2144 
Q 1053 2284 737 2584 
Q 422 2884 422 3419 
Q 422 4038 858 4394 
Q 1294 4750 2059 4750 
Q 2388 4750 2728 4690 
Q 3069 4631 3425 4513 
z
" transform="scale(0.015625)"/>
       <path id="DejaVuSans-74" d="M 1172 4494 
L 1172 3500 
L 2356 3500 
L 2356 3053 
L 1172 3053 
L 1172 1153 
Q 1172 725 1289 603 
Q 1406 481 1766 481 
L 2356 481 
L 2356 0 
L 1766 0 
Q 1100 0 847 248 
Q 594 497 594 1153 
L 594 3053 
L 172 3053 
L 172 3500 
L 594 3500 
L 594 4494 
L 1172 4494 
z
" transform="scale(0.015625)"/>
      </defs>
      <use xlink:href="#DejaVuSans-31" transform="translate(0 0.015625)"/>
      <use xlink:href="#DejaVuSans-Oblique-3c3" transform="translate(63.623047 0.015625)"/>
      <use xlink:href="#DejaVuSans-20" transform="translate(127.001953 0.015625)"/>
      <use xlink:href="#DejaVuSans-53" transform="translate(158.789062 0.015625)"/>
      <use xlink:href="#DejaVuSans-74" transform="translate(222.265625 0.015625)"/>
      <use xlink:href="#DejaVuSans-61" transform="translate(261.474609 0.015625)"/>
      <use xlink:href="#DejaVuSans-6e" transform="translate(322.753906 0.015625)"/>
      <use xlink:href="#DejaVuSans-64" transform="translate(386.132812 0.015625)"/>
      <use xlink:href="#DejaVuSans-61" transform="translate(449.609375 0.015625)"/>
      <use xlink:href="#DejaVuSans-72" transform="translate(510.888672 0.015625)"/>
      <use xlink:href="#DejaVuSans-64" transform="translate(552.001953 0.015625)"/>
     </g>
    </g>
    <g id="line2d_78">
     <path d="M 69.468889 228.148313 
L 79.468889 228.148313 
L 89.468889 228.148313 
" style="fill: none; stroke-dasharray: 1.5,2.475; stroke-dashoffset: 0; stroke: #000000; stroke-width: 1.5"/>
    </g>
    <g id="text_13">
     <!-- Input -->
     <g transform="translate(97.468889 231.648313) scale(0.1 -0.1)">
      <defs>
       <path id="DejaVuSans-49" d="M 628 4666 
L 1259 4666 
L 1259 0 
L 628 0 
L 628 4666 
z
" transform="scale(0.015625)"/>
       <path id="DejaVuSans-70" d="M 1159 525 
L 1159 -1331 
L 581 -1331 
L 581 3500 
L 1159 3500 
L 1159 2969 
Q 1341 3281 1617 3432 
Q 1894 3584 2278 3584 
Q 2916 3584 3314 3078 
Q 3713 2572 3713 1747 
Q 3713 922 3314 415 
Q 2916 -91 2278 -91 
Q 1894 -91 1617 61 
Q 1341 213 1159 525 
z
M 3116 1747 
Q 3116 2381 2855 2742 
Q 2594 3103 2138 3103 
Q 1681 3103 1420 2742 
Q 1159 2381 1159 1747 
Q 1159 1113 1420 752 
Q 1681 391 2138 391 
Q 2594 391 2855 752 
Q 3116 1113 3116 1747 
z
" transform="scale(0.015625)"/>
      </defs>
      <use xlink:href="#DejaVuSans-49"/>
      <use xlink:href="#DejaVuSans-6e" x="29.492188"/>
      <use xlink:href="#DejaVuSans-70" x="92.871094"/>
      <use xlink:href="#DejaVuSans-75" x="156.347656"/>
      <use xlink:href="#DejaVuSans-74" x="219.726562"/>
     </g>
    </g>
   </g>
  </g>
 </g>
 <defs>
  <clipPath id="p7718822850">
   <rect x="60.468889" y="10.8" width="360.731111" height="231.928"/>
  </clipPath>
 </defs>
</svg>
