<?xml version="1.0" encoding="utf-8" standalone="no"?>
<!DOCTYPE svg PUBLIC "-//W3C//DTD SVG 1.1//EN"
  "http://www.w3.org/Graphics/SVG/1.1/DTD/svg11.dtd">
<svg xmlns:xlink="http://www.w3.org/1999/xlink" width="432pt" height="288pt" viewBox="0 0 432 288" xmlns="http://www.w3.org/2000/svg" version="1.1">
 <metadata>
  <rdf:RDF xmlns:dc="http://purl.org/dc/elements/1.1/" xmlns:cc="http://creativecommons.org/ns#" xmlns:rdf="http://www.w3.org/1999/02/22-rdf-syntax-ns#">
   <cc:Work>
    <dc:type rdf:resource="http://purl.org/dc/dcmitype/StillImage"/>
    <dc:date>2023-03-22T13:49:38.253216</dc:date>
    <dc:format>image/svg+xml</dc:format>
    <dc:creator>
     <cc:Agent>
      <dc:title>Matplotlib v3.6.2, https://matplotlib.org/</dc:title>
     </cc:Agent>
    </dc:creator>
   </cc:Work>
  </rdf:RDF>
 </metadata>
 <defs>
  <style type="text/css">*{stroke-linejoin: round; stroke-linecap: butt}</style>
 </defs>
 <g id="figure_1">
  <g id="patch_1">
   <path d="M 0 288 
L 432 288 
L 432 0 
L 0 0 
z
" style="fill: #ffffff"/>
  </g>
  <g id="axes_1">
   <g id="patch_2">
    <path d="M 64.703389 242.728 
L 421.2 242.728 
L 421.2 10.8 
L 64.703389 10.8 
z
" style="fill: #ffffff"/>
   </g>
   <g id="PolyCollection_1">
    <path d="M 82.500462 25.679033 
L 82.500462 32.31281 
L 85.685824 32.36857 
L 88.871186 32.426682 
L 92.056548 32.487244 
L 95.241911 32.550362 
L 98.427273 32.616145 
L 101.612635 32.68471 
L 104.797997 32.75618 
L 107.983359 32.830684 
L 111.168722 32.908358 
L 114.354084 32.989346 
L 117.539446 33.073801 
L 120.724808 33.161881 
L 123.91017 33.253756 
L 127.095533 33.349606 
L 130.280895 33.449618 
L 133.466257 33.553992 
L 136.651619 33.662939 
L 139.836981 33.776681 
L 143.022344 33.895454 
L 146.207706 34.019507 
L 149.393068 34.149103 
L 152.57843 34.284521 
L 155.763792 34.426055 
L 158.949155 34.574019 
L 162.134517 34.728741 
L 165.319879 34.890572 
L 168.505241 35.059883 
L 171.690603 35.237067 
L 174.875966 35.422538 
L 178.061328 35.616739 
L 181.24669 35.820137 
L 184.432052 36.033227 
L 187.617414 36.256537 
L 190.802777 36.490623 
L 193.988139 36.73608 
L 197.173501 36.993535 
L 200.358863 37.263658 
L 203.544225 37.547159 
L 206.729588 37.844791 
L 209.91495 38.157359 
L 213.100312 38.485716 
L 216.285674 38.830769 
L 219.471036 39.193487 
L 222.656398 39.574899 
L 225.841761 39.976103 
L 229.027123 40.398268 
L 232.212485 40.842642 
L 235.397847 41.310556 
L 238.583209 41.803429 
L 241.768572 42.322779 
L 244.953934 42.870226 
L 248.139296 43.447501 
L 251.324658 44.056455 
L 254.51002 44.699067 
L 257.695383 45.377454 
L 260.880745 46.093881 
L 264.066107 46.850771 
L 267.251469 47.650715 
L 270.436831 48.496488 
L 273.622194 49.391056 
L 276.807556 50.33759 
L 279.992918 51.339481 
L 283.17828 52.400346 
L 286.363642 53.524052 
L 289.549005 54.714718 
L 292.734367 55.976736 
L 295.919729 57.314779 
L 299.105091 58.733823 
L 302.290453 60.239155 
L 305.475816 61.836393 
L 308.661178 63.531507 
L 311.84654 65.330842 
L 315.031902 67.24114 
L 318.217264 69.269581 
L 321.402627 71.423813 
L 324.587989 73.712009 
L 327.773351 76.14292 
L 330.958713 78.725944 
L 334.144075 81.47122 
L 337.329438 84.389728 
L 340.5148 87.493418 
L 343.700162 90.795379 
L 346.885524 94.310036 
L 350.070886 98.053418 
L 353.256249 102.043496 
L 356.441611 106.300639 
L 359.626973 110.848237 
L 362.812335 115.713566 
L 365.997697 120.929048 
L 369.18306 126.534119 
L 372.368422 132.578138 
L 375.553784 139.125116 
L 378.739146 146.261864 
L 381.924508 154.113043 
L 385.109871 162.871692 
L 388.295233 172.869405 
L 391.480595 184.770724 
L 394.665957 200.309817 
L 397.851319 228.174985 
L 397.851319 150.873127 
L 397.851319 150.873127 
L 394.665957 144.328933 
L 391.480595 138.142863 
L 388.295233 132.294875 
L 385.109871 126.766003 
L 381.924508 121.538304 
L 378.739146 116.594801 
L 375.553784 111.919434 
L 372.368422 107.497016 
L 369.18306 103.313184 
L 365.997697 99.354361 
L 362.812335 95.607714 
L 359.626973 92.061117 
L 356.441611 88.703116 
L 353.256249 85.522899 
L 350.070886 82.51026 
L 346.885524 79.655577 
L 343.700162 76.949779 
L 340.5148 74.384326 
L 337.329438 71.951181 
L 334.144075 69.642793 
L 330.958713 67.452071 
L 327.773351 65.372367 
L 324.587989 63.397454 
L 321.402627 61.521506 
L 318.217264 59.739079 
L 315.031902 58.045088 
L 311.84654 56.43479 
L 308.661178 54.903758 
L 305.475816 53.44786 
L 302.290453 52.063239 
L 299.105091 50.746287 
L 295.919729 49.493627 
L 292.734367 48.302091 
L 289.549005 47.168701 
L 286.363642 46.090646 
L 283.17828 45.065276 
L 279.992918 44.090077 
L 276.807556 43.162664 
L 273.622194 42.280769 
L 270.436831 41.442231 
L 267.251469 40.644989 
L 264.066107 39.887072 
L 260.880745 39.166598 
L 257.695383 38.481767 
L 254.51002 37.830855 
L 251.324658 37.212215 
L 248.139296 36.624268 
L 244.953934 36.065505 
L 241.768572 35.534484 
L 238.583209 35.029823 
L 235.397847 34.550204 
L 232.212485 34.094367 
L 229.027123 33.661107 
L 225.841761 33.249276 
L 222.656398 32.857779 
L 219.471036 32.485569 
L 216.285674 32.13165 
L 213.100312 31.795073 
L 209.91495 31.474933 
L 206.729588 31.170369 
L 203.544225 30.880562 
L 200.358863 30.60473 
L 197.173501 30.342134 
L 193.988139 30.092066 
L 190.802777 29.853856 
L 187.617414 29.626867 
L 184.432052 29.410493 
L 181.24669 29.204159 
L 178.061328 29.007318 
L 174.875966 28.81945 
L 171.690603 28.640065 
L 168.505241 28.468693 
L 165.319879 28.304891 
L 162.134517 28.148238 
L 158.949155 27.998335 
L 155.763792 27.854802 
L 152.57843 27.717281 
L 149.393068 27.585431 
L 146.207706 27.458928 
L 143.022344 27.337466 
L 139.836981 27.220756 
L 136.651619 27.108522 
L 133.466257 27.000504 
L 130.280895 26.896455 
L 127.095533 26.796141 
L 123.91017 26.699341 
L 120.724808 26.605845 
L 117.539446 26.515455 
L 114.354084 26.427983 
L 111.168722 26.343251 
L 107.983359 26.261091 
L 104.797997 26.181345 
L 101.612635 26.103861 
L 98.427273 26.028498 
L 95.241911 25.95512 
L 92.056548 25.883602 
L 88.871186 25.813823 
L 85.685824 25.745669 
L 82.500462 25.679033 
z
" clip-path="url(#p9c0bc71cef)" style="fill: #008000; fill-opacity: 0.5"/>
   </g>
   <g id="PolyCollection_2">
    <path d="M 82.500462 28.002555 
L 82.500462 29.404765 
L 85.685824 29.439091 
L 88.871186 29.476164 
L 92.056548 29.516161 
L 95.241911 29.559273 
L 98.427273 29.605705 
L 101.612635 29.655674 
L 104.797997 29.70941 
L 107.983359 29.767157 
L 111.168722 29.82917 
L 114.354084 29.895711 
L 117.539446 29.967049 
L 120.724808 30.043454 
L 123.91017 30.125194 
L 127.095533 30.212526 
L 130.280895 30.305698 
L 133.466257 30.404938 
L 136.651619 30.510455 
L 139.836981 30.622437 
L 143.022344 30.741057 
L 146.207706 30.86647 
L 149.393068 30.998828 
L 152.57843 31.138277 
L 155.763792 31.284971 
L 158.949155 31.43908 
L 162.134517 31.60079 
L 165.319879 31.770313 
L 168.505241 31.94789 
L 171.690603 32.133798 
L 174.875966 32.328345 
L 178.061328 32.53188 
L 181.24669 32.744792 
L 184.432052 32.967511 
L 187.617414 33.200513 
L 190.802777 33.444317 
L 193.988139 33.699494 
L 197.173501 33.966662 
L 200.358863 34.246496 
L 203.544225 34.539727 
L 206.729588 34.847147 
L 209.91495 35.169612 
L 213.100312 35.508049 
L 216.285674 35.863456 
L 219.471036 36.236914 
L 222.656398 36.629583 
L 225.841761 37.042716 
L 229.027123 37.477658 
L 232.212485 37.935854 
L 235.397847 38.418851 
L 238.583209 38.928304 
L 241.768572 39.465975 
L 244.953934 40.03374 
L 248.139296 40.633588 
L 251.324658 41.267621 
L 254.51002 41.938055 
L 257.695383 42.647223 
L 260.880745 43.397576 
L 264.066107 44.191682 
L 267.251469 45.032236 
L 270.436831 45.922063 
L 273.622194 46.864127 
L 276.807556 47.861542 
L 279.992918 48.917586 
L 283.17828 50.03571 
L 286.363642 51.21956 
L 289.549005 52.472992 
L 292.734367 53.800089 
L 295.919729 55.205186 
L 299.105091 56.692889 
L 302.290453 58.268101 
L 305.475816 59.936046 
L 308.661178 61.702301 
L 311.84654 63.572827 
L 315.031902 65.554003 
L 318.217264 67.65267 
L 321.402627 69.876176 
L 324.587989 72.232428 
L 327.773351 74.729958 
L 330.958713 77.377994 
L 334.144075 80.18655 
L 337.329438 83.166531 
L 340.5148 86.329864 
L 343.700162 89.689663 
L 346.885524 93.260431 
L 350.070886 97.058328 
L 353.256249 101.101514 
L 356.441611 105.410618 
L 359.626973 110.009374 
L 362.812335 114.925516 
L 365.997697 120.192078 
L 369.18306 125.849345 
L 372.368422 131.947891 
L 375.553784 138.553556 
L 378.739146 145.756067 
L 381.924508 153.685105 
L 385.109871 162.543224 
L 388.295233 172.682706 
L 391.480595 184.823462 
L 394.665957 200.915912 
L 397.851319 232.185818 
L 397.851319 150.840366 
L 397.851319 150.840366 
L 394.665957 144.315589 
L 391.480595 138.150259 
L 388.295233 132.324411 
L 385.109871 126.819159 
L 381.924508 121.616642 
L 378.739146 116.699969 
L 375.553784 112.053171 
L 372.368422 107.661149 
L 369.18306 103.509632 
L 365.997697 99.585132 
L 362.812335 95.874905 
L 359.626973 92.366907 
L 356.441611 89.049764 
L 353.256249 85.91273 
L 350.070886 82.945658 
L 346.885524 80.138964 
L 343.700162 77.483601 
L 340.5148 74.971026 
L 337.329438 72.593176 
L 334.144075 70.34244 
L 330.958713 68.211632 
L 327.773351 66.193973 
L 324.587989 64.283064 
L 321.402627 62.472866 
L 318.217264 60.757682 
L 315.031902 59.132135 
L 311.84654 57.591152 
L 308.661178 56.129947 
L 305.475816 54.744005 
L 302.290453 53.429069 
L 299.105091 52.181122 
L 295.919729 50.996382 
L 292.734367 49.871281 
L 289.549005 48.802463 
L 286.363642 47.786769 
L 283.17828 46.821231 
L 279.992918 45.903063 
L 276.807556 45.029656 
L 273.622194 44.198565 
L 270.436831 43.407512 
L 267.251469 42.654372 
L 264.066107 41.937168 
L 260.880745 41.254065 
L 257.695383 40.60336 
L 254.51002 39.983472 
L 251.324658 39.392934 
L 248.139296 38.830382 
L 244.953934 38.29454 
L 241.768572 37.784213 
L 238.583209 37.298276 
L 235.397847 36.835662 
L 232.212485 36.395355 
L 229.027123 35.976383 
L 225.841761 35.577813 
L 222.656398 35.198742 
L 219.471036 34.838299 
L 216.285674 34.495641 
L 213.100312 34.169949 
L 209.91495 33.860429 
L 206.729588 33.566308 
L 203.544225 33.286838 
L 200.358863 33.021292 
L 197.173501 32.768964 
L 193.988139 32.529168 
L 190.802777 32.301238 
L 187.617414 32.084525 
L 184.432052 31.878401 
L 181.24669 31.68225 
L 178.061328 31.495474 
L 174.875966 31.317489 
L 171.690603 31.147721 
L 168.505241 30.985611 
L 165.319879 30.830606 
L 162.134517 30.682169 
L 158.949155 30.539769 
L 155.763792 30.40289 
L 152.57843 30.271029 
L 149.393068 30.1437 
L 146.207706 30.020439 
L 143.022344 29.900809 
L 139.836981 29.784406 
L 136.651619 29.670861 
L 133.466257 29.55985 
L 130.280895 29.451093 
L 127.095533 29.344352 
L 123.91017 29.239436 
L 120.724808 29.136192 
L 117.539446 29.034502 
L 114.354084 28.934276 
L 111.168722 28.835444 
L 107.983359 28.737957 
L 104.797997 28.641774 
L 101.612635 28.546861 
L 98.427273 28.453192 
L 95.241911 28.360738 
L 92.056548 28.269475 
L 88.871186 28.179375 
L 85.685824 28.090411 
L 82.500462 28.002555 
z
" clip-path="url(#p9c0bc71cef)" style="fill: #ff0000; fill-opacity: 0.6"/>
   </g>
   <g id="matplotlib.axis_1">
    <g id="xtick_1">
     <g id="line2d_1">
      <defs>
       <path id="mb96010320c" d="M 0 0 
L 0 3.5 
" style="stroke: #000000; stroke-width: 0.8"/>
      </defs>
      <g>
       <use xlink:href="#mb96010320c" x="139.585505" y="242.728" style="stroke: #000000; stroke-width: 0.8"/>
      </g>
     </g>
     <g id="text_1">
      <!-- $\mathdefault{10^{0}}$ -->
      <g transform="translate(130.785505 257.326437) scale(0.1 -0.1)">
       <defs>
        <path id="DejaVuSans-31" d="M 794 531 
L 1825 531 
L 1825 4091 
L 703 3866 
L 703 4441 
L 1819 4666 
L 2450 4666 
L 2450 531 
L 3481 531 
L 3481 0 
L 794 0 
L 794 531 
z
" transform="scale(0.015625)"/>
        <path id="DejaVuSans-30" d="M 2034 4250 
Q 1547 4250 1301 3770 
Q 1056 3291 1056 2328 
Q 1056 1369 1301 889 
Q 1547 409 2034 409 
Q 2525 409 2770 889 
Q 3016 1369 3016 2328 
Q 3016 3291 2770 3770 
Q 2525 4250 2034 4250 
z
M 2034 4750 
Q 2819 4750 3233 4129 
Q 3647 3509 3647 2328 
Q 3647 1150 3233 529 
Q 2819 -91 2034 -91 
Q 1250 -91 836 529 
Q 422 1150 422 2328 
Q 422 3509 836 4129 
Q 1250 4750 2034 4750 
z
" transform="scale(0.015625)"/>
       </defs>
       <use xlink:href="#DejaVuSans-31" transform="translate(0 0.765625)"/>
       <use xlink:href="#DejaVuSans-30" transform="translate(63.623047 0.765625)"/>
       <use xlink:href="#DejaVuSans-30" transform="translate(128.203125 39.046875) scale(0.7)"/>
      </g>
     </g>
    </g>
    <g id="xtick_2">
     <g id="line2d_2">
      <g>
       <use xlink:href="#mb96010320c" x="273.706019" y="242.728" style="stroke: #000000; stroke-width: 0.8"/>
      </g>
     </g>
     <g id="text_2">
      <!-- $\mathdefault{10^{1}}$ -->
      <g transform="translate(264.906019 257.326437) scale(0.1 -0.1)">
       <use xlink:href="#DejaVuSans-31" transform="translate(0 0.684375)"/>
       <use xlink:href="#DejaVuSans-30" transform="translate(63.623047 0.684375)"/>
       <use xlink:href="#DejaVuSans-31" transform="translate(128.203125 38.965625) scale(0.7)"/>
      </g>
     </g>
    </g>
    <g id="xtick_3">
     <g id="line2d_3">
      <g>
       <use xlink:href="#mb96010320c" x="407.826534" y="242.728" style="stroke: #000000; stroke-width: 0.8"/>
      </g>
     </g>
     <g id="text_3">
      <!-- $\mathdefault{10^{2}}$ -->
      <g transform="translate(399.026534 257.326437) scale(0.1 -0.1)">
       <defs>
        <path id="DejaVuSans-32" d="M 1228 531 
L 3431 531 
L 3431 0 
L 469 0 
L 469 531 
Q 828 903 1448 1529 
Q 2069 2156 2228 2338 
Q 2531 2678 2651 2914 
Q 2772 3150 2772 3378 
Q 2772 3750 2511 3984 
Q 2250 4219 1831 4219 
Q 1534 4219 1204 4116 
Q 875 4013 500 3803 
L 500 4441 
Q 881 4594 1212 4672 
Q 1544 4750 1819 4750 
Q 2544 4750 2975 4387 
Q 3406 4025 3406 3419 
Q 3406 3131 3298 2873 
Q 3191 2616 2906 2266 
Q 2828 2175 2409 1742 
Q 1991 1309 1228 531 
z
" transform="scale(0.015625)"/>
       </defs>
       <use xlink:href="#DejaVuSans-31" transform="translate(0 0.765625)"/>
       <use xlink:href="#DejaVuSans-30" transform="translate(63.623047 0.765625)"/>
       <use xlink:href="#DejaVuSans-32" transform="translate(128.203125 39.046875) scale(0.7)"/>
      </g>
     </g>
    </g>
    <g id="xtick_4">
     <g id="line2d_4">
      <defs>
       <path id="mf8d5719010" d="M 0 0 
L 0 2 
" style="stroke: #000000; stroke-width: 0.6"/>
      </defs>
      <g>
       <use xlink:href="#mf8d5719010" x="69.456739" y="242.728" style="stroke: #000000; stroke-width: 0.6"/>
      </g>
     </g>
    </g>
    <g id="xtick_5">
     <g id="line2d_5">
      <g>
       <use xlink:href="#mf8d5719010" x="86.213587" y="242.728" style="stroke: #000000; stroke-width: 0.6"/>
      </g>
     </g>
    </g>
    <g id="xtick_6">
     <g id="line2d_6">
      <g>
       <use xlink:href="#mf8d5719010" x="99.211207" y="242.728" style="stroke: #000000; stroke-width: 0.6"/>
      </g>
     </g>
    </g>
    <g id="xtick_7">
     <g id="line2d_7">
      <g>
       <use xlink:href="#mf8d5719010" x="109.831037" y="242.728" style="stroke: #000000; stroke-width: 0.6"/>
      </g>
     </g>
    </g>
    <g id="xtick_8">
     <g id="line2d_8">
      <g>
       <use xlink:href="#mf8d5719010" x="118.809975" y="242.728" style="stroke: #000000; stroke-width: 0.6"/>
      </g>
     </g>
    </g>
    <g id="xtick_9">
     <g id="line2d_9">
      <g>
       <use xlink:href="#mf8d5719010" x="126.587884" y="242.728" style="stroke: #000000; stroke-width: 0.6"/>
      </g>
     </g>
    </g>
    <g id="xtick_10">
     <g id="line2d_10">
      <g>
       <use xlink:href="#mf8d5719010" x="133.448487" y="242.728" style="stroke: #000000; stroke-width: 0.6"/>
      </g>
     </g>
    </g>
    <g id="xtick_11">
     <g id="line2d_11">
      <g>
       <use xlink:href="#mf8d5719010" x="179.959803" y="242.728" style="stroke: #000000; stroke-width: 0.6"/>
      </g>
     </g>
    </g>
    <g id="xtick_12">
     <g id="line2d_12">
      <g>
       <use xlink:href="#mf8d5719010" x="203.577253" y="242.728" style="stroke: #000000; stroke-width: 0.6"/>
      </g>
     </g>
    </g>
    <g id="xtick_13">
     <g id="line2d_13">
      <g>
       <use xlink:href="#mf8d5719010" x="220.334101" y="242.728" style="stroke: #000000; stroke-width: 0.6"/>
      </g>
     </g>
    </g>
    <g id="xtick_14">
     <g id="line2d_14">
      <g>
       <use xlink:href="#mf8d5719010" x="233.331722" y="242.728" style="stroke: #000000; stroke-width: 0.6"/>
      </g>
     </g>
    </g>
    <g id="xtick_15">
     <g id="line2d_15">
      <g>
       <use xlink:href="#mf8d5719010" x="243.951551" y="242.728" style="stroke: #000000; stroke-width: 0.6"/>
      </g>
     </g>
    </g>
    <g id="xtick_16">
     <g id="line2d_16">
      <g>
       <use xlink:href="#mf8d5719010" x="252.930489" y="242.728" style="stroke: #000000; stroke-width: 0.6"/>
      </g>
     </g>
    </g>
    <g id="xtick_17">
     <g id="line2d_17">
      <g>
       <use xlink:href="#mf8d5719010" x="260.708399" y="242.728" style="stroke: #000000; stroke-width: 0.6"/>
      </g>
     </g>
    </g>
    <g id="xtick_18">
     <g id="line2d_18">
      <g>
       <use xlink:href="#mf8d5719010" x="267.569001" y="242.728" style="stroke: #000000; stroke-width: 0.6"/>
      </g>
     </g>
    </g>
    <g id="xtick_19">
     <g id="line2d_19">
      <g>
       <use xlink:href="#mf8d5719010" x="314.080317" y="242.728" style="stroke: #000000; stroke-width: 0.6"/>
      </g>
     </g>
    </g>
    <g id="xtick_20">
     <g id="line2d_20">
      <g>
       <use xlink:href="#mf8d5719010" x="337.697767" y="242.728" style="stroke: #000000; stroke-width: 0.6"/>
      </g>
     </g>
    </g>
    <g id="xtick_21">
     <g id="line2d_21">
      <g>
       <use xlink:href="#mf8d5719010" x="354.454615" y="242.728" style="stroke: #000000; stroke-width: 0.6"/>
      </g>
     </g>
    </g>
    <g id="xtick_22">
     <g id="line2d_22">
      <g>
       <use xlink:href="#mf8d5719010" x="367.452236" y="242.728" style="stroke: #000000; stroke-width: 0.6"/>
      </g>
     </g>
    </g>
    <g id="xtick_23">
     <g id="line2d_23">
      <g>
       <use xlink:href="#mf8d5719010" x="378.072065" y="242.728" style="stroke: #000000; stroke-width: 0.6"/>
      </g>
     </g>
    </g>
    <g id="xtick_24">
     <g id="line2d_24">
      <g>
       <use xlink:href="#mf8d5719010" x="387.051003" y="242.728" style="stroke: #000000; stroke-width: 0.6"/>
      </g>
     </g>
    </g>
    <g id="xtick_25">
     <g id="line2d_25">
      <g>
       <use xlink:href="#mf8d5719010" x="394.828913" y="242.728" style="stroke: #000000; stroke-width: 0.6"/>
      </g>
     </g>
    </g>
    <g id="xtick_26">
     <g id="line2d_26">
      <g>
       <use xlink:href="#mf8d5719010" x="401.689515" y="242.728" style="stroke: #000000; stroke-width: 0.6"/>
      </g>
     </g>
    </g>
    <g id="text_4">
     <!-- Energy [TeV] -->
     <g transform="translate(211.254038 271.004562) scale(0.1 -0.1)">
      <defs>
       <path id="DejaVuSans-45" d="M 628 4666 
L 3578 4666 
L 3578 4134 
L 1259 4134 
L 1259 2753 
L 3481 2753 
L 3481 2222 
L 1259 2222 
L 1259 531 
L 3634 531 
L 3634 0 
L 628 0 
L 628 4666 
z
" transform="scale(0.015625)"/>
       <path id="DejaVuSans-6e" d="M 3513 2113 
L 3513 0 
L 2938 0 
L 2938 2094 
Q 2938 2591 2744 2837 
Q 2550 3084 2163 3084 
Q 1697 3084 1428 2787 
Q 1159 2491 1159 1978 
L 1159 0 
L 581 0 
L 581 3500 
L 1159 3500 
L 1159 2956 
Q 1366 3272 1645 3428 
Q 1925 3584 2291 3584 
Q 2894 3584 3203 3211 
Q 3513 2838 3513 2113 
z
" transform="scale(0.015625)"/>
       <path id="DejaVuSans-65" d="M 3597 1894 
L 3597 1613 
L 953 1613 
Q 991 1019 1311 708 
Q 1631 397 2203 397 
Q 2534 397 2845 478 
Q 3156 559 3463 722 
L 3463 178 
Q 3153 47 2828 -22 
Q 2503 -91 2169 -91 
Q 1331 -91 842 396 
Q 353 884 353 1716 
Q 353 2575 817 3079 
Q 1281 3584 2069 3584 
Q 2775 3584 3186 3129 
Q 3597 2675 3597 1894 
z
M 3022 2063 
Q 3016 2534 2758 2815 
Q 2500 3097 2075 3097 
Q 1594 3097 1305 2825 
Q 1016 2553 972 2059 
L 3022 2063 
z
" transform="scale(0.015625)"/>
       <path id="DejaVuSans-72" d="M 2631 2963 
Q 2534 3019 2420 3045 
Q 2306 3072 2169 3072 
Q 1681 3072 1420 2755 
Q 1159 2438 1159 1844 
L 1159 0 
L 581 0 
L 581 3500 
L 1159 3500 
L 1159 2956 
Q 1341 3275 1631 3429 
Q 1922 3584 2338 3584 
Q 2397 3584 2469 3576 
Q 2541 3569 2628 3553 
L 2631 2963 
z
" transform="scale(0.015625)"/>
       <path id="DejaVuSans-67" d="M 2906 1791 
Q 2906 2416 2648 2759 
Q 2391 3103 1925 3103 
Q 1463 3103 1205 2759 
Q 947 2416 947 1791 
Q 947 1169 1205 825 
Q 1463 481 1925 481 
Q 2391 481 2648 825 
Q 2906 1169 2906 1791 
z
M 3481 434 
Q 3481 -459 3084 -895 
Q 2688 -1331 1869 -1331 
Q 1566 -1331 1297 -1286 
Q 1028 -1241 775 -1147 
L 775 -588 
Q 1028 -725 1275 -790 
Q 1522 -856 1778 -856 
Q 2344 -856 2625 -561 
Q 2906 -266 2906 331 
L 2906 616 
Q 2728 306 2450 153 
Q 2172 0 1784 0 
Q 1141 0 747 490 
Q 353 981 353 1791 
Q 353 2603 747 3093 
Q 1141 3584 1784 3584 
Q 2172 3584 2450 3431 
Q 2728 3278 2906 2969 
L 2906 3500 
L 3481 3500 
L 3481 434 
z
" transform="scale(0.015625)"/>
       <path id="DejaVuSans-79" d="M 2059 -325 
Q 1816 -950 1584 -1140 
Q 1353 -1331 966 -1331 
L 506 -1331 
L 506 -850 
L 844 -850 
Q 1081 -850 1212 -737 
Q 1344 -625 1503 -206 
L 1606 56 
L 191 3500 
L 800 3500 
L 1894 763 
L 2988 3500 
L 3597 3500 
L 2059 -325 
z
" transform="scale(0.015625)"/>
       <path id="DejaVuSans-20" transform="scale(0.015625)"/>
       <path id="DejaVuSans-5b" d="M 550 4863 
L 1875 4863 
L 1875 4416 
L 1125 4416 
L 1125 -397 
L 1875 -397 
L 1875 -844 
L 550 -844 
L 550 4863 
z
" transform="scale(0.015625)"/>
       <path id="DejaVuSans-54" d="M -19 4666 
L 3928 4666 
L 3928 4134 
L 2272 4134 
L 2272 0 
L 1638 0 
L 1638 4134 
L -19 4134 
L -19 4666 
z
" transform="scale(0.015625)"/>
       <path id="DejaVuSans-56" d="M 1831 0 
L 50 4666 
L 709 4666 
L 2188 738 
L 3669 4666 
L 4325 4666 
L 2547 0 
L 1831 0 
z
" transform="scale(0.015625)"/>
       <path id="DejaVuSans-5d" d="M 1947 4863 
L 1947 -844 
L 622 -844 
L 622 -397 
L 1369 -397 
L 1369 4416 
L 622 4416 
L 622 4863 
L 1947 4863 
z
" transform="scale(0.015625)"/>
      </defs>
      <use xlink:href="#DejaVuSans-45"/>
      <use xlink:href="#DejaVuSans-6e" x="63.183594"/>
      <use xlink:href="#DejaVuSans-65" x="126.5625"/>
      <use xlink:href="#DejaVuSans-72" x="188.085938"/>
      <use xlink:href="#DejaVuSans-67" x="227.449219"/>
      <use xlink:href="#DejaVuSans-79" x="290.925781"/>
      <use xlink:href="#DejaVuSans-20" x="350.105469"/>
      <use xlink:href="#DejaVuSans-5b" x="381.892578"/>
      <use xlink:href="#DejaVuSans-54" x="420.90625"/>
      <use xlink:href="#DejaVuSans-65" x="464.990234"/>
      <use xlink:href="#DejaVuSans-56" x="526.513672"/>
      <use xlink:href="#DejaVuSans-5d" x="594.921875"/>
     </g>
    </g>
   </g>
   <g id="matplotlib.axis_2">
    <g id="ytick_1">
     <g id="line2d_27">
      <defs>
       <path id="m88a3fcae48" d="M 0 0 
L -3.5 0 
" style="stroke: #000000; stroke-width: 0.8"/>
      </defs>
      <g>
       <use xlink:href="#m88a3fcae48" x="64.703389" y="208.811922" style="stroke: #000000; stroke-width: 0.8"/>
      </g>
     </g>
     <g id="text_5">
      <!-- $\mathdefault{10^{-16}}$ -->
      <g transform="translate(29.803389 212.611141) scale(0.1 -0.1)">
       <defs>
        <path id="DejaVuSans-2212" d="M 678 2272 
L 4684 2272 
L 4684 1741 
L 678 1741 
L 678 2272 
z
" transform="scale(0.015625)"/>
        <path id="DejaVuSans-36" d="M 2113 2584 
Q 1688 2584 1439 2293 
Q 1191 2003 1191 1497 
Q 1191 994 1439 701 
Q 1688 409 2113 409 
Q 2538 409 2786 701 
Q 3034 994 3034 1497 
Q 3034 2003 2786 2293 
Q 2538 2584 2113 2584 
z
M 3366 4563 
L 3366 3988 
Q 3128 4100 2886 4159 
Q 2644 4219 2406 4219 
Q 1781 4219 1451 3797 
Q 1122 3375 1075 2522 
Q 1259 2794 1537 2939 
Q 1816 3084 2150 3084 
Q 2853 3084 3261 2657 
Q 3669 2231 3669 1497 
Q 3669 778 3244 343 
Q 2819 -91 2113 -91 
Q 1303 -91 875 529 
Q 447 1150 447 2328 
Q 447 3434 972 4092 
Q 1497 4750 2381 4750 
Q 2619 4750 2861 4703 
Q 3103 4656 3366 4563 
z
" transform="scale(0.015625)"/>
       </defs>
       <use xlink:href="#DejaVuSans-31" transform="translate(0 0.765625)"/>
       <use xlink:href="#DejaVuSans-30" transform="translate(63.623047 0.765625)"/>
       <use xlink:href="#DejaVuSans-2212" transform="translate(128.203125 39.046875) scale(0.7)"/>
       <use xlink:href="#DejaVuSans-31" transform="translate(186.855469 39.046875) scale(0.7)"/>
       <use xlink:href="#DejaVuSans-36" transform="translate(231.391602 39.046875) scale(0.7)"/>
      </g>
     </g>
    </g>
    <g id="ytick_2">
     <g id="line2d_28">
      <g>
       <use xlink:href="#m88a3fcae48" x="64.703389" y="168.198629" style="stroke: #000000; stroke-width: 0.8"/>
      </g>
     </g>
     <g id="text_6">
      <!-- $\mathdefault{10^{-15}}$ -->
      <g transform="translate(29.803389 171.997848) scale(0.1 -0.1)">
       <defs>
        <path id="DejaVuSans-35" d="M 691 4666 
L 3169 4666 
L 3169 4134 
L 1269 4134 
L 1269 2991 
Q 1406 3038 1543 3061 
Q 1681 3084 1819 3084 
Q 2600 3084 3056 2656 
Q 3513 2228 3513 1497 
Q 3513 744 3044 326 
Q 2575 -91 1722 -91 
Q 1428 -91 1123 -41 
Q 819 9 494 109 
L 494 744 
Q 775 591 1075 516 
Q 1375 441 1709 441 
Q 2250 441 2565 725 
Q 2881 1009 2881 1497 
Q 2881 1984 2565 2268 
Q 2250 2553 1709 2553 
Q 1456 2553 1204 2497 
Q 953 2441 691 2322 
L 691 4666 
z
" transform="scale(0.015625)"/>
       </defs>
       <use xlink:href="#DejaVuSans-31" transform="translate(0 0.684375)"/>
       <use xlink:href="#DejaVuSans-30" transform="translate(63.623047 0.684375)"/>
       <use xlink:href="#DejaVuSans-2212" transform="translate(128.203125 38.965625) scale(0.7)"/>
       <use xlink:href="#DejaVuSans-31" transform="translate(186.855469 38.965625) scale(0.7)"/>
       <use xlink:href="#DejaVuSans-35" transform="translate(231.391602 38.965625) scale(0.7)"/>
      </g>
     </g>
    </g>
    <g id="ytick_3">
     <g id="line2d_29">
      <g>
       <use xlink:href="#m88a3fcae48" x="64.703389" y="127.585336" style="stroke: #000000; stroke-width: 0.8"/>
      </g>
     </g>
     <g id="text_7">
      <!-- $\mathdefault{10^{-14}}$ -->
      <g transform="translate(29.803389 131.384555) scale(0.1 -0.1)">
       <defs>
        <path id="DejaVuSans-34" d="M 2419 4116 
L 825 1625 
L 2419 1625 
L 2419 4116 
z
M 2253 4666 
L 3047 4666 
L 3047 1625 
L 3713 1625 
L 3713 1100 
L 3047 1100 
L 3047 0 
L 2419 0 
L 2419 1100 
L 313 1100 
L 313 1709 
L 2253 4666 
z
" transform="scale(0.015625)"/>
       </defs>
       <use xlink:href="#DejaVuSans-31" transform="translate(0 0.684375)"/>
       <use xlink:href="#DejaVuSans-30" transform="translate(63.623047 0.684375)"/>
       <use xlink:href="#DejaVuSans-2212" transform="translate(128.203125 38.965625) scale(0.7)"/>
       <use xlink:href="#DejaVuSans-31" transform="translate(186.855469 38.965625) scale(0.7)"/>
       <use xlink:href="#DejaVuSans-34" transform="translate(231.391602 38.965625) scale(0.7)"/>
      </g>
     </g>
    </g>
    <g id="ytick_4">
     <g id="line2d_30">
      <g>
       <use xlink:href="#m88a3fcae48" x="64.703389" y="86.972043" style="stroke: #000000; stroke-width: 0.8"/>
      </g>
     </g>
     <g id="text_8">
      <!-- $\mathdefault{10^{-13}}$ -->
      <g transform="translate(29.803389 90.771262) scale(0.1 -0.1)">
       <defs>
        <path id="DejaVuSans-33" d="M 2597 2516 
Q 3050 2419 3304 2112 
Q 3559 1806 3559 1356 
Q 3559 666 3084 287 
Q 2609 -91 1734 -91 
Q 1441 -91 1130 -33 
Q 819 25 488 141 
L 488 750 
Q 750 597 1062 519 
Q 1375 441 1716 441 
Q 2309 441 2620 675 
Q 2931 909 2931 1356 
Q 2931 1769 2642 2001 
Q 2353 2234 1838 2234 
L 1294 2234 
L 1294 2753 
L 1863 2753 
Q 2328 2753 2575 2939 
Q 2822 3125 2822 3475 
Q 2822 3834 2567 4026 
Q 2313 4219 1838 4219 
Q 1578 4219 1281 4162 
Q 984 4106 628 3988 
L 628 4550 
Q 988 4650 1302 4700 
Q 1616 4750 1894 4750 
Q 2613 4750 3031 4423 
Q 3450 4097 3450 3541 
Q 3450 3153 3228 2886 
Q 3006 2619 2597 2516 
z
" transform="scale(0.015625)"/>
       </defs>
       <use xlink:href="#DejaVuSans-31" transform="translate(0 0.765625)"/>
       <use xlink:href="#DejaVuSans-30" transform="translate(63.623047 0.765625)"/>
       <use xlink:href="#DejaVuSans-2212" transform="translate(128.203125 39.046875) scale(0.7)"/>
       <use xlink:href="#DejaVuSans-31" transform="translate(186.855469 39.046875) scale(0.7)"/>
       <use xlink:href="#DejaVuSans-33" transform="translate(231.391602 39.046875) scale(0.7)"/>
      </g>
     </g>
    </g>
    <g id="ytick_5">
     <g id="line2d_31">
      <g>
       <use xlink:href="#m88a3fcae48" x="64.703389" y="46.35875" style="stroke: #000000; stroke-width: 0.8"/>
      </g>
     </g>
     <g id="text_9">
      <!-- $\mathdefault{10^{-12}}$ -->
      <g transform="translate(29.803389 50.157969) scale(0.1 -0.1)">
       <use xlink:href="#DejaVuSans-31" transform="translate(0 0.765625)"/>
       <use xlink:href="#DejaVuSans-30" transform="translate(63.623047 0.765625)"/>
       <use xlink:href="#DejaVuSans-2212" transform="translate(128.203125 39.046875) scale(0.7)"/>
       <use xlink:href="#DejaVuSans-31" transform="translate(186.855469 39.046875) scale(0.7)"/>
       <use xlink:href="#DejaVuSans-32" transform="translate(231.391602 39.046875) scale(0.7)"/>
      </g>
     </g>
    </g>
    <g id="ytick_6">
     <g id="line2d_32">
      <defs>
       <path id="m894ea520de" d="M 0 0 
L -2 0 
" style="stroke: #000000; stroke-width: 0.6"/>
      </defs>
      <g>
       <use xlink:href="#m894ea520de" x="64.703389" y="237.199396" style="stroke: #000000; stroke-width: 0.6"/>
      </g>
     </g>
    </g>
    <g id="ytick_7">
     <g id="line2d_33">
      <g>
       <use xlink:href="#m894ea520de" x="64.703389" y="230.04775" style="stroke: #000000; stroke-width: 0.6"/>
      </g>
     </g>
    </g>
    <g id="ytick_8">
     <g id="line2d_34">
      <g>
       <use xlink:href="#m894ea520de" x="64.703389" y="224.973576" style="stroke: #000000; stroke-width: 0.6"/>
      </g>
     </g>
    </g>
    <g id="ytick_9">
     <g id="line2d_35">
      <g>
       <use xlink:href="#m894ea520de" x="64.703389" y="221.037742" style="stroke: #000000; stroke-width: 0.6"/>
      </g>
     </g>
    </g>
    <g id="ytick_10">
     <g id="line2d_36">
      <g>
       <use xlink:href="#m894ea520de" x="64.703389" y="217.82193" style="stroke: #000000; stroke-width: 0.6"/>
      </g>
     </g>
    </g>
    <g id="ytick_11">
     <g id="line2d_37">
      <g>
       <use xlink:href="#m894ea520de" x="64.703389" y="215.103001" style="stroke: #000000; stroke-width: 0.6"/>
      </g>
     </g>
    </g>
    <g id="ytick_12">
     <g id="line2d_38">
      <g>
       <use xlink:href="#m894ea520de" x="64.703389" y="212.747757" style="stroke: #000000; stroke-width: 0.6"/>
      </g>
     </g>
    </g>
    <g id="ytick_13">
     <g id="line2d_39">
      <g>
       <use xlink:href="#m894ea520de" x="64.703389" y="210.670285" style="stroke: #000000; stroke-width: 0.6"/>
      </g>
     </g>
    </g>
    <g id="ytick_14">
     <g id="line2d_40">
      <g>
       <use xlink:href="#m894ea520de" x="64.703389" y="196.586103" style="stroke: #000000; stroke-width: 0.6"/>
      </g>
     </g>
    </g>
    <g id="ytick_15">
     <g id="line2d_41">
      <g>
       <use xlink:href="#m894ea520de" x="64.703389" y="189.434457" style="stroke: #000000; stroke-width: 0.6"/>
      </g>
     </g>
    </g>
    <g id="ytick_16">
     <g id="line2d_42">
      <g>
       <use xlink:href="#m894ea520de" x="64.703389" y="184.360283" style="stroke: #000000; stroke-width: 0.6"/>
      </g>
     </g>
    </g>
    <g id="ytick_17">
     <g id="line2d_43">
      <g>
       <use xlink:href="#m894ea520de" x="64.703389" y="180.424449" style="stroke: #000000; stroke-width: 0.6"/>
      </g>
     </g>
    </g>
    <g id="ytick_18">
     <g id="line2d_44">
      <g>
       <use xlink:href="#m894ea520de" x="64.703389" y="177.208637" style="stroke: #000000; stroke-width: 0.6"/>
      </g>
     </g>
    </g>
    <g id="ytick_19">
     <g id="line2d_45">
      <g>
       <use xlink:href="#m894ea520de" x="64.703389" y="174.489708" style="stroke: #000000; stroke-width: 0.6"/>
      </g>
     </g>
    </g>
    <g id="ytick_20">
     <g id="line2d_46">
      <g>
       <use xlink:href="#m894ea520de" x="64.703389" y="172.134464" style="stroke: #000000; stroke-width: 0.6"/>
      </g>
     </g>
    </g>
    <g id="ytick_21">
     <g id="line2d_47">
      <g>
       <use xlink:href="#m894ea520de" x="64.703389" y="170.056992" style="stroke: #000000; stroke-width: 0.6"/>
      </g>
     </g>
    </g>
    <g id="ytick_22">
     <g id="line2d_48">
      <g>
       <use xlink:href="#m894ea520de" x="64.703389" y="155.97281" style="stroke: #000000; stroke-width: 0.6"/>
      </g>
     </g>
    </g>
    <g id="ytick_23">
     <g id="line2d_49">
      <g>
       <use xlink:href="#m894ea520de" x="64.703389" y="148.821164" style="stroke: #000000; stroke-width: 0.6"/>
      </g>
     </g>
    </g>
    <g id="ytick_24">
     <g id="line2d_50">
      <g>
       <use xlink:href="#m894ea520de" x="64.703389" y="143.74699" style="stroke: #000000; stroke-width: 0.6"/>
      </g>
     </g>
    </g>
    <g id="ytick_25">
     <g id="line2d_51">
      <g>
       <use xlink:href="#m894ea520de" x="64.703389" y="139.811156" style="stroke: #000000; stroke-width: 0.6"/>
      </g>
     </g>
    </g>
    <g id="ytick_26">
     <g id="line2d_52">
      <g>
       <use xlink:href="#m894ea520de" x="64.703389" y="136.595344" style="stroke: #000000; stroke-width: 0.6"/>
      </g>
     </g>
    </g>
    <g id="ytick_27">
     <g id="line2d_53">
      <g>
       <use xlink:href="#m894ea520de" x="64.703389" y="133.876415" style="stroke: #000000; stroke-width: 0.6"/>
      </g>
     </g>
    </g>
    <g id="ytick_28">
     <g id="line2d_54">
      <g>
       <use xlink:href="#m894ea520de" x="64.703389" y="131.521171" style="stroke: #000000; stroke-width: 0.6"/>
      </g>
     </g>
    </g>
    <g id="ytick_29">
     <g id="line2d_55">
      <g>
       <use xlink:href="#m894ea520de" x="64.703389" y="129.443699" style="stroke: #000000; stroke-width: 0.6"/>
      </g>
     </g>
    </g>
    <g id="ytick_30">
     <g id="line2d_56">
      <g>
       <use xlink:href="#m894ea520de" x="64.703389" y="115.359517" style="stroke: #000000; stroke-width: 0.6"/>
      </g>
     </g>
    </g>
    <g id="ytick_31">
     <g id="line2d_57">
      <g>
       <use xlink:href="#m894ea520de" x="64.703389" y="108.207871" style="stroke: #000000; stroke-width: 0.6"/>
      </g>
     </g>
    </g>
    <g id="ytick_32">
     <g id="line2d_58">
      <g>
       <use xlink:href="#m894ea520de" x="64.703389" y="103.133697" style="stroke: #000000; stroke-width: 0.6"/>
      </g>
     </g>
    </g>
    <g id="ytick_33">
     <g id="line2d_59">
      <g>
       <use xlink:href="#m894ea520de" x="64.703389" y="99.197863" style="stroke: #000000; stroke-width: 0.6"/>
      </g>
     </g>
    </g>
    <g id="ytick_34">
     <g id="line2d_60">
      <g>
       <use xlink:href="#m894ea520de" x="64.703389" y="95.982051" style="stroke: #000000; stroke-width: 0.6"/>
      </g>
     </g>
    </g>
    <g id="ytick_35">
     <g id="line2d_61">
      <g>
       <use xlink:href="#m894ea520de" x="64.703389" y="93.263122" style="stroke: #000000; stroke-width: 0.6"/>
      </g>
     </g>
    </g>
    <g id="ytick_36">
     <g id="line2d_62">
      <g>
       <use xlink:href="#m894ea520de" x="64.703389" y="90.907878" style="stroke: #000000; stroke-width: 0.6"/>
      </g>
     </g>
    </g>
    <g id="ytick_37">
     <g id="line2d_63">
      <g>
       <use xlink:href="#m894ea520de" x="64.703389" y="88.830406" style="stroke: #000000; stroke-width: 0.6"/>
      </g>
     </g>
    </g>
    <g id="ytick_38">
     <g id="line2d_64">
      <g>
       <use xlink:href="#m894ea520de" x="64.703389" y="74.746224" style="stroke: #000000; stroke-width: 0.6"/>
      </g>
     </g>
    </g>
    <g id="ytick_39">
     <g id="line2d_65">
      <g>
       <use xlink:href="#m894ea520de" x="64.703389" y="67.594578" style="stroke: #000000; stroke-width: 0.6"/>
      </g>
     </g>
    </g>
    <g id="ytick_40">
     <g id="line2d_66">
      <g>
       <use xlink:href="#m894ea520de" x="64.703389" y="62.520404" style="stroke: #000000; stroke-width: 0.6"/>
      </g>
     </g>
    </g>
    <g id="ytick_41">
     <g id="line2d_67">
      <g>
       <use xlink:href="#m894ea520de" x="64.703389" y="58.58457" style="stroke: #000000; stroke-width: 0.6"/>
      </g>
     </g>
    </g>
    <g id="ytick_42">
     <g id="line2d_68">
      <g>
       <use xlink:href="#m894ea520de" x="64.703389" y="55.368759" style="stroke: #000000; stroke-width: 0.6"/>
      </g>
     </g>
    </g>
    <g id="ytick_43">
     <g id="line2d_69">
      <g>
       <use xlink:href="#m894ea520de" x="64.703389" y="52.649829" style="stroke: #000000; stroke-width: 0.6"/>
      </g>
     </g>
    </g>
    <g id="ytick_44">
     <g id="line2d_70">
      <g>
       <use xlink:href="#m894ea520de" x="64.703389" y="50.294585" style="stroke: #000000; stroke-width: 0.6"/>
      </g>
     </g>
    </g>
    <g id="ytick_45">
     <g id="line2d_71">
      <g>
       <use xlink:href="#m894ea520de" x="64.703389" y="48.217113" style="stroke: #000000; stroke-width: 0.6"/>
      </g>
     </g>
    </g>
    <g id="ytick_46">
     <g id="line2d_72">
      <g>
       <use xlink:href="#m894ea520de" x="64.703389" y="34.132931" style="stroke: #000000; stroke-width: 0.6"/>
      </g>
     </g>
    </g>
    <g id="ytick_47">
     <g id="line2d_73">
      <g>
       <use xlink:href="#m894ea520de" x="64.703389" y="26.981285" style="stroke: #000000; stroke-width: 0.6"/>
      </g>
     </g>
    </g>
    <g id="ytick_48">
     <g id="line2d_74">
      <g>
       <use xlink:href="#m894ea520de" x="64.703389" y="21.907111" style="stroke: #000000; stroke-width: 0.6"/>
      </g>
     </g>
    </g>
    <g id="ytick_49">
     <g id="line2d_75">
      <g>
       <use xlink:href="#m894ea520de" x="64.703389" y="17.971277" style="stroke: #000000; stroke-width: 0.6"/>
      </g>
     </g>
    </g>
    <g id="ytick_50">
     <g id="line2d_76">
      <g>
       <use xlink:href="#m894ea520de" x="64.703389" y="14.755466" style="stroke: #000000; stroke-width: 0.6"/>
      </g>
     </g>
    </g>
    <g id="ytick_51">
     <g id="line2d_77">
      <g>
       <use xlink:href="#m894ea520de" x="64.703389" y="12.036536" style="stroke: #000000; stroke-width: 0.6"/>
      </g>
     </g>
    </g>
    <g id="text_10">
     <!-- E$^2$ dN/dE [TeV cm$^{-2}$ s$^{-1}$] -->
     <g transform="translate(23.723702 188.014) rotate(-90) scale(0.1 -0.1)">
      <defs>
       <path id="DejaVuSans-64" d="M 2906 2969 
L 2906 4863 
L 3481 4863 
L 3481 0 
L 2906 0 
L 2906 525 
Q 2725 213 2448 61 
Q 2172 -91 1784 -91 
Q 1150 -91 751 415 
Q 353 922 353 1747 
Q 353 2572 751 3078 
Q 1150 3584 1784 3584 
Q 2172 3584 2448 3432 
Q 2725 3281 2906 2969 
z
M 947 1747 
Q 947 1113 1208 752 
Q 1469 391 1925 391 
Q 2381 391 2643 752 
Q 2906 1113 2906 1747 
Q 2906 2381 2643 2742 
Q 2381 3103 1925 3103 
Q 1469 3103 1208 2742 
Q 947 2381 947 1747 
z
" transform="scale(0.015625)"/>
       <path id="DejaVuSans-4e" d="M 628 4666 
L 1478 4666 
L 3547 763 
L 3547 4666 
L 4159 4666 
L 4159 0 
L 3309 0 
L 1241 3903 
L 1241 0 
L 628 0 
L 628 4666 
z
" transform="scale(0.015625)"/>
       <path id="DejaVuSans-2f" d="M 1625 4666 
L 2156 4666 
L 531 -594 
L 0 -594 
L 1625 4666 
z
" transform="scale(0.015625)"/>
       <path id="DejaVuSans-63" d="M 3122 3366 
L 3122 2828 
Q 2878 2963 2633 3030 
Q 2388 3097 2138 3097 
Q 1578 3097 1268 2742 
Q 959 2388 959 1747 
Q 959 1106 1268 751 
Q 1578 397 2138 397 
Q 2388 397 2633 464 
Q 2878 531 3122 666 
L 3122 134 
Q 2881 22 2623 -34 
Q 2366 -91 2075 -91 
Q 1284 -91 818 406 
Q 353 903 353 1747 
Q 353 2603 823 3093 
Q 1294 3584 2113 3584 
Q 2378 3584 2631 3529 
Q 2884 3475 3122 3366 
z
" transform="scale(0.015625)"/>
       <path id="DejaVuSans-6d" d="M 3328 2828 
Q 3544 3216 3844 3400 
Q 4144 3584 4550 3584 
Q 5097 3584 5394 3201 
Q 5691 2819 5691 2113 
L 5691 0 
L 5113 0 
L 5113 2094 
Q 5113 2597 4934 2840 
Q 4756 3084 4391 3084 
Q 3944 3084 3684 2787 
Q 3425 2491 3425 1978 
L 3425 0 
L 2847 0 
L 2847 2094 
Q 2847 2600 2669 2842 
Q 2491 3084 2119 3084 
Q 1678 3084 1418 2786 
Q 1159 2488 1159 1978 
L 1159 0 
L 581 0 
L 581 3500 
L 1159 3500 
L 1159 2956 
Q 1356 3278 1631 3431 
Q 1906 3584 2284 3584 
Q 2666 3584 2933 3390 
Q 3200 3197 3328 2828 
z
" transform="scale(0.015625)"/>
       <path id="DejaVuSans-73" d="M 2834 3397 
L 2834 2853 
Q 2591 2978 2328 3040 
Q 2066 3103 1784 3103 
Q 1356 3103 1142 2972 
Q 928 2841 928 2578 
Q 928 2378 1081 2264 
Q 1234 2150 1697 2047 
L 1894 2003 
Q 2506 1872 2764 1633 
Q 3022 1394 3022 966 
Q 3022 478 2636 193 
Q 2250 -91 1575 -91 
Q 1294 -91 989 -36 
Q 684 19 347 128 
L 347 722 
Q 666 556 975 473 
Q 1284 391 1588 391 
Q 1994 391 2212 530 
Q 2431 669 2431 922 
Q 2431 1156 2273 1281 
Q 2116 1406 1581 1522 
L 1381 1569 
Q 847 1681 609 1914 
Q 372 2147 372 2553 
Q 372 3047 722 3315 
Q 1072 3584 1716 3584 
Q 2034 3584 2315 3537 
Q 2597 3491 2834 3397 
z
" transform="scale(0.015625)"/>
      </defs>
      <use xlink:href="#DejaVuSans-45" transform="translate(0 0.765625)"/>
      <use xlink:href="#DejaVuSans-32" transform="translate(64.140625 39.046875) scale(0.7)"/>
      <use xlink:href="#DejaVuSans-20" transform="translate(111.411133 0.765625)"/>
      <use xlink:href="#DejaVuSans-64" transform="translate(143.198242 0.765625)"/>
      <use xlink:href="#DejaVuSans-4e" transform="translate(206.674805 0.765625)"/>
      <use xlink:href="#DejaVuSans-2f" transform="translate(281.479492 0.765625)"/>
      <use xlink:href="#DejaVuSans-64" transform="translate(315.170898 0.765625)"/>
      <use xlink:href="#DejaVuSans-45" transform="translate(378.647461 0.765625)"/>
      <use xlink:href="#DejaVuSans-20" transform="translate(441.831055 0.765625)"/>
      <use xlink:href="#DejaVuSans-5b" transform="translate(473.618164 0.765625)"/>
      <use xlink:href="#DejaVuSans-54" transform="translate(512.631836 0.765625)"/>
      <use xlink:href="#DejaVuSans-65" transform="translate(573.71582 0.765625)"/>
      <use xlink:href="#DejaVuSans-56" transform="translate(635.239258 0.765625)"/>
      <use xlink:href="#DejaVuSans-20" transform="translate(703.647461 0.765625)"/>
      <use xlink:href="#DejaVuSans-63" transform="translate(735.43457 0.765625)"/>
      <use xlink:href="#DejaVuSans-6d" transform="translate(790.415039 0.765625)"/>
      <use xlink:href="#DejaVuSans-2212" transform="translate(888.78418 39.046875) scale(0.7)"/>
      <use xlink:href="#DejaVuSans-32" transform="translate(947.436523 39.046875) scale(0.7)"/>
      <use xlink:href="#DejaVuSans-20" transform="translate(994.707031 0.765625)"/>
      <use xlink:href="#DejaVuSans-73" transform="translate(1026.494141 0.765625)"/>
      <use xlink:href="#DejaVuSans-2212" transform="translate(1079.550781 39.046875) scale(0.7)"/>
      <use xlink:href="#DejaVuSans-31" transform="translate(1138.203125 39.046875) scale(0.7)"/>
      <use xlink:href="#DejaVuSans-5d" transform="translate(1185.473633 0.765625)"/>
     </g>
    </g>
   </g>
   <g id="line2d_78">
    <path d="M 82.500462 28.689729 
L 85.685824 28.751864 
L 88.871186 28.815854 
L 92.056548 28.881805 
L 95.241911 28.949827 
L 98.427273 29.020036 
L 101.612635 29.092556 
L 104.797997 29.167515 
L 107.983359 29.245051 
L 111.168722 29.32531 
L 114.354084 29.408443 
L 117.539446 29.494613 
L 120.724808 29.58399 
L 123.91017 29.676755 
L 127.095533 29.773098 
L 130.280895 29.87322 
L 133.466257 29.977333 
L 136.651619 30.085663 
L 139.836981 30.198445 
L 143.022344 30.31593 
L 146.207706 30.438383 
L 149.393068 30.566082 
L 152.57843 30.699323 
L 155.763792 30.838417 
L 158.949155 30.983694 
L 162.134517 31.1355 
L 165.319879 31.294202 
L 168.505241 31.460189 
L 171.690603 31.633869 
L 174.875966 31.815676 
L 178.061328 32.006066 
L 181.24669 32.205521 
L 184.432052 32.414551 
L 187.617414 32.633694 
L 190.802777 32.863519 
L 193.988139 33.104626 
L 197.173501 33.357649 
L 200.358863 33.623258 
L 203.544225 33.90216 
L 206.729588 34.195104 
L 209.91495 34.502876 
L 213.100312 34.826313 
L 216.285674 35.166293 
L 219.471036 35.523747 
L 222.656398 35.899657 
L 225.841761 36.295061 
L 229.027123 36.711053 
L 232.212485 37.148792 
L 235.397847 37.609499 
L 238.583209 38.094467 
L 241.768572 38.605058 
L 244.953934 39.142712 
L 248.139296 39.708952 
L 251.324658 40.305383 
L 254.51002 40.933702 
L 257.695383 41.595703 
L 260.880745 42.293279 
L 264.066107 43.028428 
L 267.251469 43.803263 
L 270.436831 44.620015 
L 273.622194 45.48104 
L 276.807556 46.388826 
L 279.992918 47.346002 
L 283.17828 48.355343 
L 286.363642 49.419783 
L 289.549005 50.542419 
L 292.734367 51.72652 
L 295.919729 52.975543 
L 299.105091 54.293136 
L 302.290453 55.683154 
L 305.475816 57.149667 
L 308.661178 58.696976 
L 311.84654 60.329622 
L 315.031902 62.052402 
L 318.217264 63.870382 
L 321.402627 65.788912 
L 324.587989 67.813646 
L 327.773351 69.950553 
L 330.958713 72.205937 
L 334.144075 74.586459 
L 337.329438 77.099152 
L 340.5148 79.751445 
L 343.700162 82.551186 
L 346.885524 85.506662 
L 350.070886 88.626627 
L 353.256249 91.920328 
L 356.441611 95.397528 
L 359.626973 99.068543 
L 362.812335 102.944268 
L 365.997697 107.036208 
L 369.18306 111.356516 
L 372.368422 115.918031 
L 375.553784 120.734308 
L 378.739146 125.819669 
L 381.924508 131.189239 
L 385.109871 136.858992 
L 388.295233 142.845802 
L 391.480595 149.167491 
L 394.665957 155.84288 
L 397.851319 162.891853 
" clip-path="url(#p9c0bc71cef)" style="fill: none; stroke-dasharray: 1.5,2.475; stroke-dashoffset: 0; stroke: #000000; stroke-width: 1.5"/>
   </g>
   <g id="LineCollection_1">
    <path clip-path="url(#p9c0bc71cef)" style="fill: none; stroke: #8b0000; stroke-width: 1.5"/>
    <path clip-path="url(#p9c0bc71cef)" style="fill: none; stroke: #8b0000; stroke-width: 1.5"/>
    <path clip-path="url(#p9c0bc71cef)" style="fill: none; stroke: #8b0000; stroke-width: 1.5"/>
    <path clip-path="url(#p9c0bc71cef)" style="fill: none; stroke: #8b0000; stroke-width: 1.5"/>
    <path d="M 86.459389 27.924876 
L 86.459389 25.698312 
" clip-path="url(#p9c0bc71cef)" style="fill: none; stroke: #8b0000; stroke-width: 1.5"/>
    <path d="M 103.224454 29.966873 
L 103.224454 27.869918 
" clip-path="url(#p9c0bc71cef)" style="fill: none; stroke: #8b0000; stroke-width: 1.5"/>
    <path d="M 119.989517 30.845842 
L 119.989517 28.827733 
" clip-path="url(#p9c0bc71cef)" style="fill: none; stroke: #8b0000; stroke-width: 1.5"/>
    <path d="M 136.754581 30.718569 
L 136.754581 28.740048 
" clip-path="url(#p9c0bc71cef)" style="fill: none; stroke: #8b0000; stroke-width: 1.5"/>
    <path d="M 153.519647 32.962302 
L 153.519647 30.732841 
" clip-path="url(#p9c0bc71cef)" style="fill: none; stroke: #8b0000; stroke-width: 1.5"/>
    <path d="M 170.284711 34.323648 
L 170.284711 31.923803 
" clip-path="url(#p9c0bc71cef)" style="fill: none; stroke: #8b0000; stroke-width: 1.5"/>
    <path d="M 187.049774 34.222564 
L 187.049774 31.649169 
" clip-path="url(#p9c0bc71cef)" style="fill: none; stroke: #8b0000; stroke-width: 1.5"/>
    <path d="M 203.814838 35.042536 
L 203.814838 32.20929 
" clip-path="url(#p9c0bc71cef)" style="fill: none; stroke: #8b0000; stroke-width: 1.5"/>
    <path d="M 220.579904 35.952878 
L 220.579904 32.767672 
" clip-path="url(#p9c0bc71cef)" style="fill: none; stroke: #8b0000; stroke-width: 1.5"/>
    <path d="M 237.344967 35.259896 
L 237.344967 31.750015 
" clip-path="url(#p9c0bc71cef)" style="fill: none; stroke: #8b0000; stroke-width: 1.5"/>
    <path d="M 254.11003 41.074236 
L 254.11003 36.407592 
" clip-path="url(#p9c0bc71cef)" style="fill: none; stroke: #8b0000; stroke-width: 1.5"/>
    <path d="M 270.875095 42.943177 
L 270.875095 37.48948 
" clip-path="url(#p9c0bc71cef)" style="fill: none; stroke: #8b0000; stroke-width: 1.5"/>
    <path d="M 287.64016 48.279733 
L 287.64016 41.374003 
" clip-path="url(#p9c0bc71cef)" style="fill: none; stroke: #8b0000; stroke-width: 1.5"/>
    <path d="M 304.405226 64.840097 
L 304.405226 53.286972 
" clip-path="url(#p9c0bc71cef)" style="fill: none; stroke: #8b0000; stroke-width: 1.5"/>
    <path d="M 321.17029 101.927651 
L 321.17029 67.51634 
" clip-path="url(#p9c0bc71cef)" style="fill: none; stroke: #8b0000; stroke-width: 1.5"/>
    <path clip-path="url(#p9c0bc71cef)" style="fill: none; stroke: #8b0000; stroke-width: 1.5"/>
    <path d="M 354.700417 104.811789 
L 354.700417 68.06527 
" clip-path="url(#p9c0bc71cef)" style="fill: none; stroke: #8b0000; stroke-width: 1.5"/>
    <path d="M 371.465481 289 
L 371.465481 88.651843 
" clip-path="url(#p9c0bc71cef)" style="fill: none; stroke: #8b0000; stroke-width: 1.5"/>
    <path clip-path="url(#p9c0bc71cef)" style="fill: none; stroke: #8b0000; stroke-width: 1.5"/>
    <path clip-path="url(#p9c0bc71cef)" style="fill: none; stroke: #8b0000; stroke-width: 1.5"/>
   </g>
   <g id="LineCollection_2">
    <path clip-path="url(#p9c0bc71cef)" style="fill: none; stroke: #006400; stroke-width: 1.5"/>
    <path clip-path="url(#p9c0bc71cef)" style="fill: none; stroke: #006400; stroke-width: 1.5"/>
    <path clip-path="url(#p9c0bc71cef)" style="fill: none; stroke: #006400; stroke-width: 1.5"/>
    <path clip-path="url(#p9c0bc71cef)" style="fill: none; stroke: #006400; stroke-width: 1.5"/>
    <path d="M 80.907781 30.541737 
L 80.907781 27.004496 
" clip-path="url(#p9c0bc71cef)" style="fill: none; stroke: #006400; stroke-width: 1.5"/>
    <path d="M 97.672846 33.691846 
L 97.672846 30.448851 
" clip-path="url(#p9c0bc71cef)" style="fill: none; stroke: #006400; stroke-width: 1.5"/>
    <path d="M 114.437909 25.018167 
L 114.437909 21.342182 
" clip-path="url(#p9c0bc71cef)" style="fill: none; stroke: #006400; stroke-width: 1.5"/>
    <path d="M 131.202973 28.261975 
L 131.202973 24.902246 
" clip-path="url(#p9c0bc71cef)" style="fill: none; stroke: #006400; stroke-width: 1.5"/>
    <path d="M 147.968038 32.385711 
L 147.968038 28.908149 
" clip-path="url(#p9c0bc71cef)" style="fill: none; stroke: #006400; stroke-width: 1.5"/>
    <path d="M 164.733103 36.554064 
L 164.733103 33.054267 
" clip-path="url(#p9c0bc71cef)" style="fill: none; stroke: #006400; stroke-width: 1.5"/>
    <path d="M 181.498165 36.061035 
L 181.498165 32.295056 
" clip-path="url(#p9c0bc71cef)" style="fill: none; stroke: #006400; stroke-width: 1.5"/>
    <path d="M 198.26323 37.762766 
L 198.26323 33.759337 
" clip-path="url(#p9c0bc71cef)" style="fill: none; stroke: #006400; stroke-width: 1.5"/>
    <path d="M 215.028296 37.785168 
L 215.028296 33.343915 
" clip-path="url(#p9c0bc71cef)" style="fill: none; stroke: #006400; stroke-width: 1.5"/>
    <path d="M 231.793359 38.231631 
L 231.793359 33.481891 
" clip-path="url(#p9c0bc71cef)" style="fill: none; stroke: #006400; stroke-width: 1.5"/>
    <path d="M 248.558421 43.129751 
L 248.558421 37.264591 
" clip-path="url(#p9c0bc71cef)" style="fill: none; stroke: #006400; stroke-width: 1.5"/>
    <path d="M 265.323487 45.569243 
L 265.323487 38.939554 
" clip-path="url(#p9c0bc71cef)" style="fill: none; stroke: #006400; stroke-width: 1.5"/>
    <path d="M 282.088552 51.135619 
L 282.088552 43.134978 
" clip-path="url(#p9c0bc71cef)" style="fill: none; stroke: #006400; stroke-width: 1.5"/>
    <path d="M 298.853618 64.16691 
L 298.853618 51.779294 
" clip-path="url(#p9c0bc71cef)" style="fill: none; stroke: #006400; stroke-width: 1.5"/>
    <path d="M 315.618682 101.317467 
L 315.618682 66.454202 
" clip-path="url(#p9c0bc71cef)" style="fill: none; stroke: #006400; stroke-width: 1.5"/>
    <path clip-path="url(#p9c0bc71cef)" style="fill: none; stroke: #006400; stroke-width: 1.5"/>
    <path d="M 349.148809 103.118173 
L 349.148809 66.3929 
" clip-path="url(#p9c0bc71cef)" style="fill: none; stroke: #006400; stroke-width: 1.5"/>
    <path d="M 365.913873 289 
L 365.913873 149.272247 
" clip-path="url(#p9c0bc71cef)" style="fill: none; stroke: #006400; stroke-width: 1.5"/>
    <path clip-path="url(#p9c0bc71cef)" style="fill: none; stroke: #006400; stroke-width: 1.5"/>
    <path clip-path="url(#p9c0bc71cef)" style="fill: none; stroke: #006400; stroke-width: 1.5"/>
   </g>
   <g id="line2d_79">
    <defs>
     <path id="m0207c3f1e5" d="M 0 3 
C 0.795609 3 1.55874 2.683901 2.12132 2.12132 
C 2.683901 1.55874 3 0.795609 3 0 
C 3 -0.795609 2.683901 -1.55874 2.12132 -2.12132 
C 1.55874 -2.683901 0.795609 -3 0 -3 
C -0.795609 -3 -1.55874 -2.683901 -2.12132 -2.12132 
C -2.683901 -1.55874 -3 -0.795609 -3 0 
C -3 0.795609 -2.683901 1.55874 -2.12132 2.12132 
C -1.55874 2.683901 -0.795609 3 0 3 
z
" style="stroke: #8b0000"/>
    </defs>
    <g clip-path="url(#p9c0bc71cef)">
     <use xlink:href="#m0207c3f1e5" x="86.459389" y="26.776483" style="fill: #8b0000; stroke: #8b0000"/>
     <use xlink:href="#m0207c3f1e5" x="103.224454" y="28.887251" style="fill: #8b0000; stroke: #8b0000"/>
     <use xlink:href="#m0207c3f1e5" x="119.989517" y="29.80794" style="fill: #8b0000; stroke: #8b0000"/>
     <use xlink:href="#m0207c3f1e5" x="136.754581" y="29.701581" style="fill: #8b0000; stroke: #8b0000"/>
     <use xlink:href="#m0207c3f1e5" x="153.519647" y="31.812369" style="fill: #8b0000; stroke: #8b0000"/>
     <use xlink:href="#m0207c3f1e5" x="170.284711" y="33.082941" style="fill: #8b0000; stroke: #8b0000"/>
     <use xlink:href="#m0207c3f1e5" x="187.049774" y="32.888976" style="fill: #8b0000; stroke: #8b0000"/>
     <use xlink:href="#m0207c3f1e5" x="203.814838" y="33.569085" style="fill: #8b0000; stroke: #8b0000"/>
     <use xlink:href="#m0207c3f1e5" x="220.579904" y="34.288472" style="fill: #8b0000; stroke: #8b0000"/>
     <use xlink:href="#m0207c3f1e5" x="237.344967" y="33.417793" style="fill: #8b0000; stroke: #8b0000"/>
     <use xlink:href="#m0207c3f1e5" x="254.11003" y="38.587026" style="fill: #8b0000; stroke: #8b0000"/>
     <use xlink:href="#m0207c3f1e5" x="270.875095" y="40.006378" style="fill: #8b0000; stroke: #8b0000"/>
     <use xlink:href="#m0207c3f1e5" x="287.64016" y="44.491036" style="fill: #8b0000; stroke: #8b0000"/>
     <use xlink:href="#m0207c3f1e5" x="304.405226" y="58.134051" style="fill: #8b0000; stroke: #8b0000"/>
     <use xlink:href="#m0207c3f1e5" x="321.17029" y="77.398028" style="fill: #8b0000; stroke: #8b0000"/>
     <use xlink:href="#m0207c3f1e5" x="329.808785" y="20737" style="fill: #8b0000; stroke: #8b0000"/>
     <use xlink:href="#m0207c3f1e5" x="346.062088" y="20737" style="fill: #8b0000; stroke: #8b0000"/>
     <use xlink:href="#m0207c3f1e5" x="354.700417" y="78.221277" style="fill: #8b0000; stroke: #8b0000"/>
     <use xlink:href="#m0207c3f1e5" x="363.338745" y="20737" style="fill: #8b0000; stroke: #8b0000"/>
    </g>
   </g>
   <g id="line2d_80">
    <defs>
     <path id="m30924fec54" d="M 0 3 
C 0.795609 3 1.55874 2.683901 2.12132 2.12132 
C 2.683901 1.55874 3 0.795609 3 0 
C 3 -0.795609 2.683901 -1.55874 2.12132 -2.12132 
C 1.55874 -2.683901 0.795609 -3 0 -3 
C -0.795609 -3 -1.55874 -2.683901 -2.12132 -2.12132 
C -2.683901 -1.55874 -3 -0.795609 -3 0 
C -3 0.795609 -2.683901 1.55874 -2.12132 2.12132 
C -1.55874 2.683901 -0.795609 3 0 3 
z
" style="stroke: #006400"/>
    </defs>
    <g clip-path="url(#p9c0bc71cef)">
     <use xlink:href="#m30924fec54" x="80.907781" y="28.684593" style="fill: #006400; stroke: #006400"/>
     <use xlink:href="#m30924fec54" x="97.672846" y="31.99592" style="fill: #006400; stroke: #006400"/>
     <use xlink:href="#m30924fec54" x="114.437909" y="23.084582" style="fill: #006400; stroke: #006400"/>
     <use xlink:href="#m30924fec54" x="131.202973" y="26.502236" style="fill: #006400; stroke: #006400"/>
     <use xlink:href="#m30924fec54" x="147.968038" y="30.561363" style="fill: #006400; stroke: #006400"/>
     <use xlink:href="#m30924fec54" x="164.733103" y="34.717503" style="fill: #006400; stroke: #006400"/>
     <use xlink:href="#m30924fec54" x="181.498165" y="34.077725" style="fill: #006400; stroke: #006400"/>
     <use xlink:href="#m30924fec54" x="198.26323" y="35.647709" style="fill: #006400; stroke: #006400"/>
     <use xlink:href="#m30924fec54" x="215.028296" y="35.425122" style="fill: #006400; stroke: #006400"/>
     <use xlink:href="#m30924fec54" x="231.793359" y="35.697361" style="fill: #006400; stroke: #006400"/>
     <use xlink:href="#m30924fec54" x="248.558421" y="39.954495" style="fill: #006400; stroke: #006400"/>
     <use xlink:href="#m30924fec54" x="265.323487" y="41.944725" style="fill: #006400; stroke: #006400"/>
     <use xlink:href="#m30924fec54" x="282.088552" y="46.685499" style="fill: #006400; stroke: #006400"/>
     <use xlink:href="#m30924fec54" x="298.853618" y="56.907235" style="fill: #006400; stroke: #006400"/>
     <use xlink:href="#m30924fec54" x="315.618682" y="76.391508" style="fill: #006400; stroke: #006400"/>
     <use xlink:href="#m30924fec54" x="324.25738" y="20737" style="fill: #006400; stroke: #006400"/>
     <use xlink:href="#m30924fec54" x="340.510141" y="20737" style="fill: #006400; stroke: #006400"/>
     <use xlink:href="#m30924fec54" x="349.148809" y="76.546553" style="fill: #006400; stroke: #006400"/>
     <use xlink:href="#m30924fec54" x="357.787476" y="20737" style="fill: #006400; stroke: #006400"/>
    </g>
   </g>
   <g id="patch_3">
    <path d="M 64.703389 242.728 
L 64.703389 10.8 
" style="fill: none; stroke: #000000; stroke-width: 0.8; stroke-linejoin: miter; stroke-linecap: square"/>
   </g>
   <g id="patch_4">
    <path d="M 421.2 242.728 
L 421.2 10.8 
" style="fill: none; stroke: #000000; stroke-width: 0.8; stroke-linejoin: miter; stroke-linecap: square"/>
   </g>
   <g id="patch_5">
    <path d="M 64.703389 242.728 
L 421.2 242.728 
" style="fill: none; stroke: #000000; stroke-width: 0.8; stroke-linejoin: miter; stroke-linecap: square"/>
   </g>
   <g id="patch_6">
    <path d="M 64.703389 10.8 
L 421.2 10.8 
" style="fill: none; stroke: #000000; stroke-width: 0.8; stroke-linejoin: miter; stroke-linecap: square"/>
   </g>
   <g id="legend_1">
    <g id="patch_7">
     <path d="M 320.3 62.834375 
L 414.2 62.834375 
Q 416.2 62.834375 416.2 60.834375 
L 416.2 17.8 
Q 416.2 15.8 414.2 15.8 
L 320.3 15.8 
Q 318.3 15.8 318.3 17.8 
L 318.3 60.834375 
Q 318.3 62.834375 320.3 62.834375 
z
" style="fill: #ffffff; opacity: 0.8; stroke: #cccccc; stroke-linejoin: miter"/>
    </g>
    <g id="patch_8">
     <path d="M 322.3 27.398438 
L 342.3 27.398438 
L 342.3 20.398438 
L 322.3 20.398438 
z
" style="fill: #008000; fill-opacity: 0.5"/>
    </g>
    <g id="text_11">
     <!-- $1\sigma$ Nuisance -->
     <g transform="translate(350.3 27.398438) scale(0.1 -0.1)">
      <defs>
       <path id="DejaVuSans-Oblique-3c3" d="M 2219 3044 
Q 1744 3044 1422 2700 
Q 1081 2341 969 1747 
Q 844 1119 1044 756 
Q 1241 397 1706 397 
Q 2166 397 2503 759 
Q 2844 1122 2966 1747 
Q 3075 2319 2881 2700 
Q 2700 3044 2219 3044 
z
M 2309 3503 
L 4219 3500 
L 4106 2925 
L 3463 2925 
Q 3706 2438 3575 1747 
Q 3406 888 2884 400 
Q 2359 -91 1609 -91 
Q 856 -91 525 400 
Q 194 888 363 1747 
Q 528 2609 1050 3097 
Q 1484 3503 2309 3503 
z
" transform="scale(0.015625)"/>
       <path id="DejaVuSans-75" d="M 544 1381 
L 544 3500 
L 1119 3500 
L 1119 1403 
Q 1119 906 1312 657 
Q 1506 409 1894 409 
Q 2359 409 2629 706 
Q 2900 1003 2900 1516 
L 2900 3500 
L 3475 3500 
L 3475 0 
L 2900 0 
L 2900 538 
Q 2691 219 2414 64 
Q 2138 -91 1772 -91 
Q 1169 -91 856 284 
Q 544 659 544 1381 
z
M 1991 3584 
L 1991 3584 
z
" transform="scale(0.015625)"/>
       <path id="DejaVuSans-69" d="M 603 3500 
L 1178 3500 
L 1178 0 
L 603 0 
L 603 3500 
z
M 603 4863 
L 1178 4863 
L 1178 4134 
L 603 4134 
L 603 4863 
z
" transform="scale(0.015625)"/>
       <path id="DejaVuSans-61" d="M 2194 1759 
Q 1497 1759 1228 1600 
Q 959 1441 959 1056 
Q 959 750 1161 570 
Q 1363 391 1709 391 
Q 2188 391 2477 730 
Q 2766 1069 2766 1631 
L 2766 1759 
L 2194 1759 
z
M 3341 1997 
L 3341 0 
L 2766 0 
L 2766 531 
Q 2569 213 2275 61 
Q 1981 -91 1556 -91 
Q 1019 -91 701 211 
Q 384 513 384 1019 
Q 384 1609 779 1909 
Q 1175 2209 1959 2209 
L 2766 2209 
L 2766 2266 
Q 2766 2663 2505 2880 
Q 2244 3097 1772 3097 
Q 1472 3097 1187 3025 
Q 903 2953 641 2809 
L 641 3341 
Q 956 3463 1253 3523 
Q 1550 3584 1831 3584 
Q 2591 3584 2966 3190 
Q 3341 2797 3341 1997 
z
" transform="scale(0.015625)"/>
      </defs>
      <use xlink:href="#DejaVuSans-31" transform="translate(0 0.015625)"/>
      <use xlink:href="#DejaVuSans-Oblique-3c3" transform="translate(63.623047 0.015625)"/>
      <use xlink:href="#DejaVuSans-20" transform="translate(127.001953 0.015625)"/>
      <use xlink:href="#DejaVuSans-4e" transform="translate(158.789062 0.015625)"/>
      <use xlink:href="#DejaVuSans-75" transform="translate(233.59375 0.015625)"/>
      <use xlink:href="#DejaVuSans-69" transform="translate(296.972656 0.015625)"/>
      <use xlink:href="#DejaVuSans-73" transform="translate(324.755859 0.015625)"/>
      <use xlink:href="#DejaVuSans-61" transform="translate(376.855469 0.015625)"/>
      <use xlink:href="#DejaVuSans-6e" transform="translate(438.134766 0.015625)"/>
      <use xlink:href="#DejaVuSans-63" transform="translate(501.513672 0.015625)"/>
      <use xlink:href="#DejaVuSans-65" transform="translate(556.494141 0.015625)"/>
     </g>
    </g>
    <g id="patch_9">
     <path d="M 322.3 42.076562 
L 342.3 42.076562 
L 342.3 35.076562 
L 322.3 35.076562 
z
" style="fill: #ff0000; fill-opacity: 0.6"/>
    </g>
    <g id="text_12">
     <!-- $1\sigma$ Standard -->
     <g transform="translate(350.3 42.076562) scale(0.1 -0.1)">
      <defs>
       <path id="DejaVuSans-53" d="M 3425 4513 
L 3425 3897 
Q 3066 4069 2747 4153 
Q 2428 4238 2131 4238 
Q 1616 4238 1336 4038 
Q 1056 3838 1056 3469 
Q 1056 3159 1242 3001 
Q 1428 2844 1947 2747 
L 2328 2669 
Q 3034 2534 3370 2195 
Q 3706 1856 3706 1288 
Q 3706 609 3251 259 
Q 2797 -91 1919 -91 
Q 1588 -91 1214 -16 
Q 841 59 441 206 
L 441 856 
Q 825 641 1194 531 
Q 1563 422 1919 422 
Q 2459 422 2753 634 
Q 3047 847 3047 1241 
Q 3047 1584 2836 1778 
Q 2625 1972 2144 2069 
L 1759 2144 
Q 1053 2284 737 2584 
Q 422 2884 422 3419 
Q 422 4038 858 4394 
Q 1294 4750 2059 4750 
Q 2388 4750 2728 4690 
Q 3069 4631 3425 4513 
z
" transform="scale(0.015625)"/>
       <path id="DejaVuSans-74" d="M 1172 4494 
L 1172 3500 
L 2356 3500 
L 2356 3053 
L 1172 3053 
L 1172 1153 
Q 1172 725 1289 603 
Q 1406 481 1766 481 
L 2356 481 
L 2356 0 
L 1766 0 
Q 1100 0 847 248 
Q 594 497 594 1153 
L 594 3053 
L 172 3053 
L 172 3500 
L 594 3500 
L 594 4494 
L 1172 4494 
z
" transform="scale(0.015625)"/>
      </defs>
      <use xlink:href="#DejaVuSans-31" transform="translate(0 0.015625)"/>
      <use xlink:href="#DejaVuSans-Oblique-3c3" transform="translate(63.623047 0.015625)"/>
      <use xlink:href="#DejaVuSans-20" transform="translate(127.001953 0.015625)"/>
      <use xlink:href="#DejaVuSans-53" transform="translate(158.789062 0.015625)"/>
      <use xlink:href="#DejaVuSans-74" transform="translate(222.265625 0.015625)"/>
      <use xlink:href="#DejaVuSans-61" transform="translate(261.474609 0.015625)"/>
      <use xlink:href="#DejaVuSans-6e" transform="translate(322.753906 0.015625)"/>
      <use xlink:href="#DejaVuSans-64" transform="translate(386.132812 0.015625)"/>
      <use xlink:href="#DejaVuSans-61" transform="translate(449.609375 0.015625)"/>
      <use xlink:href="#DejaVuSans-72" transform="translate(510.888672 0.015625)"/>
      <use xlink:href="#DejaVuSans-64" transform="translate(552.001953 0.015625)"/>
     </g>
    </g>
    <g id="line2d_81">
     <path d="M 322.3 53.254687 
L 332.3 53.254687 
L 342.3 53.254687 
" style="fill: none; stroke-dasharray: 1.5,2.475; stroke-dashoffset: 0; stroke: #000000; stroke-width: 1.5"/>
    </g>
    <g id="text_13">
     <!-- Input -->
     <g transform="translate(350.3 56.754687) scale(0.1 -0.1)">
      <defs>
       <path id="DejaVuSans-49" d="M 628 4666 
L 1259 4666 
L 1259 0 
L 628 0 
L 628 4666 
z
" transform="scale(0.015625)"/>
       <path id="DejaVuSans-70" d="M 1159 525 
L 1159 -1331 
L 581 -1331 
L 581 3500 
L 1159 3500 
L 1159 2969 
Q 1341 3281 1617 3432 
Q 1894 3584 2278 3584 
Q 2916 3584 3314 3078 
Q 3713 2572 3713 1747 
Q 3713 922 3314 415 
Q 2916 -91 2278 -91 
Q 1894 -91 1617 61 
Q 1341 213 1159 525 
z
M 3116 1747 
Q 3116 2381 2855 2742 
Q 2594 3103 2138 3103 
Q 1681 3103 1420 2742 
Q 1159 2381 1159 1747 
Q 1159 1113 1420 752 
Q 1681 391 2138 391 
Q 2594 391 2855 752 
Q 3116 1113 3116 1747 
z
" transform="scale(0.015625)"/>
      </defs>
      <use xlink:href="#DejaVuSans-49"/>
      <use xlink:href="#DejaVuSans-6e" x="29.492188"/>
      <use xlink:href="#DejaVuSans-70" x="92.871094"/>
      <use xlink:href="#DejaVuSans-75" x="156.347656"/>
      <use xlink:href="#DejaVuSans-74" x="219.726562"/>
     </g>
    </g>
   </g>
  </g>
 </g>
 <defs>
  <clipPath id="p9c0bc71cef">
   <rect x="64.703389" y="10.8" width="356.496611" height="231.928"/>
  </clipPath>
 </defs>
</svg>
