<?xml version="1.0" encoding="utf-8" standalone="no"?>
<!DOCTYPE svg PUBLIC "-//W3C//DTD SVG 1.1//EN"
  "http://www.w3.org/Graphics/SVG/1.1/DTD/svg11.dtd">
<svg xmlns:xlink="http://www.w3.org/1999/xlink" width="432pt" height="288pt" viewBox="0 0 432 288" xmlns="http://www.w3.org/2000/svg" version="1.1">
 <metadata>
  <rdf:RDF xmlns:dc="http://purl.org/dc/elements/1.1/" xmlns:cc="http://creativecommons.org/ns#" xmlns:rdf="http://www.w3.org/1999/02/22-rdf-syntax-ns#">
   <cc:Work>
    <dc:type rdf:resource="http://purl.org/dc/dcmitype/StillImage"/>
    <dc:date>2023-03-21T14:10:03.943614</dc:date>
    <dc:format>image/svg+xml</dc:format>
    <dc:creator>
     <cc:Agent>
      <dc:title>Matplotlib v3.6.2, https://matplotlib.org/</dc:title>
     </cc:Agent>
    </dc:creator>
   </cc:Work>
  </rdf:RDF>
 </metadata>
 <defs>
  <style type="text/css">*{stroke-linejoin: round; stroke-linecap: butt}</style>
 </defs>
 <g id="figure_1">
  <g id="patch_1">
   <path d="M 0 288 
L 432 288 
L 432 0 
L 0 0 
z
" style="fill: #ffffff"/>
  </g>
  <g id="axes_1">
   <g id="patch_2">
    <path d="M 64.703389 242.728 
L 421.2 242.728 
L 421.2 16.416 
L 64.703389 16.416 
z
" style="fill: #ffffff"/>
   </g>
   <g id="PolyCollection_1">
    <path d="M 82.500462 38.631423 
L 82.500462 46.024585 
L 85.685824 46.086729 
L 88.871186 46.151492 
L 92.056548 46.218987 
L 95.241911 46.28933 
L 98.427273 46.362644 
L 101.612635 46.439058 
L 104.797997 46.518709 
L 107.983359 46.601742 
L 111.168722 46.688307 
L 114.354084 46.778566 
L 117.539446 46.872688 
L 120.724808 46.970851 
L 123.91017 47.073244 
L 127.095533 47.180066 
L 130.280895 47.291526 
L 133.466257 47.407849 
L 136.651619 47.529267 
L 139.836981 47.656029 
L 143.022344 47.788399 
L 146.207706 47.926652 
L 149.393068 48.071083 
L 152.57843 48.222003 
L 155.763792 48.379739 
L 158.949155 48.54464 
L 162.134517 48.717074 
L 165.319879 48.897431 
L 168.505241 49.086123 
L 171.690603 49.283589 
L 174.875966 49.490292 
L 178.061328 49.706723 
L 181.24669 49.933405 
L 184.432052 50.170888 
L 187.617414 50.41976 
L 190.802777 50.680643 
L 193.988139 50.954198 
L 197.173501 51.241125 
L 200.358863 51.54217 
L 203.544225 51.858123 
L 206.729588 52.189827 
L 209.91495 52.538175 
L 213.100312 52.904119 
L 216.285674 53.288672 
L 219.471036 53.692911 
L 222.656398 54.117984 
L 225.841761 54.565115 
L 229.027123 55.035606 
L 232.212485 55.530849 
L 235.397847 56.052326 
L 238.583209 56.60162 
L 241.768572 57.180421 
L 244.953934 57.790536 
L 248.139296 58.433893 
L 251.324658 59.112555 
L 254.51002 59.828729 
L 257.695383 60.584773 
L 260.880745 61.383211 
L 264.066107 62.226743 
L 267.251469 63.11826 
L 270.436831 64.06085 
L 273.622194 65.057822 
L 276.807556 66.112708 
L 279.992918 67.229287 
L 283.17828 68.411593 
L 286.363642 69.663932 
L 289.549005 70.990897 
L 292.734367 72.397381 
L 295.919729 73.888594 
L 299.105091 75.470079 
L 302.290453 77.14773 
L 305.475816 78.927808 
L 308.661178 80.816966 
L 311.84654 82.822275 
L 315.031902 84.951251 
L 318.217264 87.211892 
L 321.402627 89.612725 
L 324.587989 92.162856 
L 327.773351 94.872039 
L 330.958713 97.750749 
L 334.144075 100.810284 
L 337.329438 104.06288 
L 340.5148 107.521858 
L 343.700162 111.201803 
L 346.885524 115.118792 
L 350.070886 119.290688 
L 353.256249 123.73752 
L 356.441611 128.481989 
L 359.626973 133.550162 
L 362.812335 138.972438 
L 365.997697 144.784949 
L 369.18306 151.031647 
L 372.368422 157.76754 
L 375.553784 165.063968 
L 378.739146 173.017677 
L 381.924508 181.767601 
L 385.109871 191.528875 
L 388.295233 202.671051 
L 391.480595 215.934745 
L 394.665957 233.252637 
L 397.851319 264.307602 
L 397.851319 178.156803 
L 397.851319 178.156803 
L 394.665957 170.863479 
L 391.480595 163.969274 
L 388.295233 157.451851 
L 385.109871 151.290076 
L 381.924508 145.463949 
L 378.739146 139.95455 
L 375.553784 134.743982 
L 372.368422 129.815318 
L 369.18306 125.152553 
L 365.997697 120.740553 
L 362.812335 116.565018 
L 359.626973 112.612433 
L 356.441611 108.870033 
L 353.256249 105.325768 
L 350.070886 101.968266 
L 346.885524 98.7868 
L 343.700162 95.771262 
L 340.5148 92.912135 
L 337.329438 90.200462 
L 334.144075 87.627826 
L 330.958713 85.186327 
L 327.773351 82.868554 
L 324.587989 80.667568 
L 321.402627 78.576875 
L 318.217264 76.590409 
L 315.031902 74.702503 
L 311.84654 72.90787 
L 308.661178 71.201577 
L 305.475816 69.579018 
L 302.290453 68.035896 
L 299.105091 66.568189 
L 295.919729 65.172134 
L 292.734367 63.8442 
L 289.549005 62.581067 
L 286.363642 61.379606 
L 283.17828 60.236858 
L 279.992918 59.150026 
L 276.807556 58.11645 
L 273.622194 57.133602 
L 270.436831 56.199075 
L 267.251469 55.310569 
L 264.066107 54.465892 
L 260.880745 53.662944 
L 257.695383 52.899718 
L 254.51002 52.174295 
L 251.324658 51.484837 
L 248.139296 50.829587 
L 244.953934 50.206861 
L 241.768572 49.615052 
L 238.583209 49.052622 
L 235.397847 48.5181 
L 232.212485 48.010081 
L 229.027123 47.527225 
L 225.841761 47.068251 
L 222.656398 46.631938 
L 219.471036 46.21712 
L 216.285674 45.822687 
L 213.100312 45.447581 
L 209.91495 45.090794 
L 206.729588 44.751366 
L 203.544225 44.428384 
L 200.358863 44.120977 
L 197.173501 43.828321 
L 193.988139 43.549627 
L 190.802777 43.284149 
L 187.617414 43.031176 
L 184.432052 42.790033 
L 181.24669 42.560079 
L 178.061328 42.340705 
L 174.875966 42.131332 
L 171.690603 41.931411 
L 168.505241 41.740422 
L 165.319879 41.557869 
L 162.134517 41.383284 
L 158.949155 41.216221 
L 155.763792 41.056258 
L 152.57843 40.902995 
L 149.393068 40.756051 
L 146.207706 40.615067 
L 143.022344 40.479701 
L 139.836981 40.349631 
L 136.651619 40.22455 
L 133.466257 40.104166 
L 130.280895 39.988206 
L 127.095533 39.876409 
L 123.91017 39.768528 
L 120.724808 39.664329 
L 117.539446 39.563592 
L 114.354084 39.466107 
L 111.168722 39.371675 
L 107.983359 39.280111 
L 104.797997 39.191235 
L 101.612635 39.104882 
L 98.427273 39.020892 
L 95.241911 38.939115 
L 92.056548 38.859409 
L 88.871186 38.781642 
L 85.685824 38.705687 
L 82.500462 38.631423 
z
" clip-path="url(#pc86b6df8bc)" style="fill: #008000; fill-opacity: 0.5"/>
   </g>
   <g id="PolyCollection_2">
    <path d="M 82.500462 41.220925 
L 82.500462 42.783648 
L 85.685824 42.821904 
L 88.871186 42.863221 
L 92.056548 42.907796 
L 95.241911 42.955844 
L 98.427273 43.007591 
L 101.612635 43.06328 
L 104.797997 43.123167 
L 107.983359 43.187525 
L 111.168722 43.256637 
L 114.354084 43.330795 
L 117.539446 43.410299 
L 120.724808 43.49545 
L 123.91017 43.586547 
L 127.095533 43.683877 
L 130.280895 43.787714 
L 133.466257 43.898314 
L 136.651619 44.01591 
L 139.836981 44.140711 
L 143.022344 44.272909 
L 146.207706 44.412679 
L 149.393068 44.560188 
L 152.57843 44.7156 
L 155.763792 44.879087 
L 158.949155 45.050837 
L 162.134517 45.231058 
L 165.319879 45.419987 
L 168.505241 45.617892 
L 171.690603 45.825081 
L 174.875966 46.041898 
L 178.061328 46.268732 
L 181.24669 46.506017 
L 184.432052 46.754232 
L 187.617414 47.013906 
L 190.802777 47.285619 
L 193.988139 47.570006 
L 197.173501 47.867758 
L 200.358863 48.179625 
L 203.544225 48.506423 
L 206.729588 48.849034 
L 209.91495 49.208413 
L 213.100312 49.585591 
L 216.285674 49.981683 
L 219.471036 50.397891 
L 222.656398 50.83551 
L 225.841761 51.295936 
L 229.027123 51.780667 
L 232.212485 52.291314 
L 235.397847 52.829601 
L 238.583209 53.397371 
L 241.768572 53.996591 
L 244.953934 54.62935 
L 248.139296 55.297864 
L 251.324658 56.004476 
L 254.51002 56.751656 
L 257.695383 57.542005 
L 260.880745 58.378252 
L 264.066107 59.263262 
L 267.251469 60.200036 
L 270.436831 61.191724 
L 273.622194 62.241628 
L 276.807556 63.353221 
L 279.992918 64.530152 
L 283.17828 65.776271 
L 286.363642 67.095639 
L 289.549005 68.492554 
L 292.734367 69.971568 
L 295.919729 71.53751 
L 299.105091 73.195514 
L 302.290453 74.951044 
L 305.475816 76.809923 
L 308.661178 78.778366 
L 311.84654 80.863016 
L 315.031902 83.070982 
L 318.217264 85.409889 
L 321.402627 87.887925 
L 324.587989 90.513904 
L 327.773351 93.297332 
L 330.958713 96.248496 
L 334.144075 99.378554 
L 337.329438 102.699661 
L 340.5148 106.225109 
L 343.700162 109.969513 
L 346.885524 113.949036 
L 350.070886 118.181687 
L 353.256249 122.687707 
L 356.441611 127.490086 
L 359.626973 132.615273 
L 362.812335 138.094178 
L 365.997697 143.963617 
L 369.18306 150.268485 
L 372.368422 157.065147 
L 375.553784 164.42698 
L 378.739146 172.453981 
L 381.924508 181.290676 
L 385.109871 191.162807 
L 388.295233 202.46298 
L 391.480595 215.99352 
L 394.665957 233.928113 
L 397.851319 268.777565 
L 397.851319 178.120292 
L 397.851319 178.120292 
L 394.665957 170.848608 
L 391.480595 163.977517 
L 388.295233 157.484768 
L 385.109871 151.349316 
L 381.924508 145.551254 
L 378.739146 140.071757 
L 375.553784 134.893028 
L 372.368422 129.99824 
L 369.18306 125.371489 
L 365.997697 120.997742 
L 362.812335 116.862795 
L 359.626973 112.953228 
L 356.441611 109.256363 
L 353.256249 105.760225 
L 350.070886 102.453504 
L 346.885524 99.325521 
L 343.700162 96.366191 
L 340.5148 93.565996 
L 337.329438 90.915947 
L 334.144075 88.407563 
L 330.958713 86.032837 
L 327.773351 83.784211 
L 324.587989 81.654555 
L 321.402627 79.63714 
L 318.217264 77.725614 
L 315.031902 75.913987 
L 311.84654 74.196603 
L 308.661178 72.56813 
L 305.475816 71.023536 
L 302.290453 69.558076 
L 299.105091 68.167274 
L 295.919729 66.846913 
L 292.734367 65.593019 
L 289.549005 64.40185 
L 286.363642 63.269888 
L 283.17828 62.193822 
L 279.992918 61.17055 
L 276.807556 60.19716 
L 273.622194 59.270933 
L 270.436831 58.389326 
L 267.251469 57.549972 
L 264.066107 56.750668 
L 260.880745 55.989368 
L 257.695383 55.264175 
L 254.51002 54.573327 
L 251.324658 53.915189 
L 248.139296 53.28824 
L 244.953934 52.691059 
L 241.768572 52.122314 
L 238.583209 51.580751 
L 235.397847 51.06518 
L 232.212485 50.57447 
L 229.027123 50.107537 
L 225.841761 49.663341 
L 222.656398 49.240877 
L 219.471036 48.839174 
L 216.285674 48.457291 
L 213.100312 48.094316 
L 209.91495 47.749364 
L 206.729588 47.421574 
L 203.544225 47.110113 
L 200.358863 46.814169 
L 197.173501 46.532957 
L 193.988139 46.26571 
L 190.802777 46.011688 
L 187.617414 45.770168 
L 184.432052 45.540448 
L 181.24669 45.321843 
L 178.061328 45.113687 
L 174.875966 44.915327 
L 171.690603 44.726126 
L 168.505241 44.545458 
L 165.319879 44.37271 
L 162.134517 44.20728 
L 158.949155 44.04858 
L 155.763792 43.896032 
L 152.57843 43.749077 
L 149.393068 43.607172 
L 146.207706 43.469801 
L 143.022344 43.336477 
L 139.836981 43.206748 
L 136.651619 43.080206 
L 133.466257 42.956487 
L 130.280895 42.83528 
L 127.095533 42.71632 
L 123.91017 42.599394 
L 120.724808 42.484332 
L 117.539446 42.371001 
L 114.354084 42.259301 
L 111.168722 42.149157 
L 107.983359 42.04051 
L 104.797997 41.933316 
L 101.612635 41.827539 
L 98.427273 41.723147 
L 95.241911 41.62011 
L 92.056548 41.518399 
L 88.871186 41.417985 
L 85.685824 41.318838 
L 82.500462 41.220925 
z
" clip-path="url(#pc86b6df8bc)" style="fill: #ff0000; fill-opacity: 0.6"/>
   </g>
   <g id="matplotlib.axis_1">
    <g id="xtick_1">
     <g id="line2d_1">
      <defs>
       <path id="me787e7f247" d="M 0 0 
L 0 3.5 
" style="stroke: #000000; stroke-width: 0.8"/>
      </defs>
      <g>
       <use xlink:href="#me787e7f247" x="139.585505" y="242.728" style="stroke: #000000; stroke-width: 0.8"/>
      </g>
     </g>
     <g id="text_1">
      <!-- $\mathdefault{10^{0}}$ -->
      <g transform="translate(130.785505 257.326437) scale(0.1 -0.1)">
       <defs>
        <path id="DejaVuSans-31" d="M 794 531 
L 1825 531 
L 1825 4091 
L 703 3866 
L 703 4441 
L 1819 4666 
L 2450 4666 
L 2450 531 
L 3481 531 
L 3481 0 
L 794 0 
L 794 531 
z
" transform="scale(0.015625)"/>
        <path id="DejaVuSans-30" d="M 2034 4250 
Q 1547 4250 1301 3770 
Q 1056 3291 1056 2328 
Q 1056 1369 1301 889 
Q 1547 409 2034 409 
Q 2525 409 2770 889 
Q 3016 1369 3016 2328 
Q 3016 3291 2770 3770 
Q 2525 4250 2034 4250 
z
M 2034 4750 
Q 2819 4750 3233 4129 
Q 3647 3509 3647 2328 
Q 3647 1150 3233 529 
Q 2819 -91 2034 -91 
Q 1250 -91 836 529 
Q 422 1150 422 2328 
Q 422 3509 836 4129 
Q 1250 4750 2034 4750 
z
" transform="scale(0.015625)"/>
       </defs>
       <use xlink:href="#DejaVuSans-31" transform="translate(0 0.765625)"/>
       <use xlink:href="#DejaVuSans-30" transform="translate(63.623047 0.765625)"/>
       <use xlink:href="#DejaVuSans-30" transform="translate(128.203125 39.046875) scale(0.7)"/>
      </g>
     </g>
    </g>
    <g id="xtick_2">
     <g id="line2d_2">
      <g>
       <use xlink:href="#me787e7f247" x="273.706019" y="242.728" style="stroke: #000000; stroke-width: 0.8"/>
      </g>
     </g>
     <g id="text_2">
      <!-- $\mathdefault{10^{1}}$ -->
      <g transform="translate(264.906019 257.326437) scale(0.1 -0.1)">
       <use xlink:href="#DejaVuSans-31" transform="translate(0 0.684375)"/>
       <use xlink:href="#DejaVuSans-30" transform="translate(63.623047 0.684375)"/>
       <use xlink:href="#DejaVuSans-31" transform="translate(128.203125 38.965625) scale(0.7)"/>
      </g>
     </g>
    </g>
    <g id="xtick_3">
     <g id="line2d_3">
      <g>
       <use xlink:href="#me787e7f247" x="407.826534" y="242.728" style="stroke: #000000; stroke-width: 0.8"/>
      </g>
     </g>
     <g id="text_3">
      <!-- $\mathdefault{10^{2}}$ -->
      <g transform="translate(399.026534 257.326437) scale(0.1 -0.1)">
       <defs>
        <path id="DejaVuSans-32" d="M 1228 531 
L 3431 531 
L 3431 0 
L 469 0 
L 469 531 
Q 828 903 1448 1529 
Q 2069 2156 2228 2338 
Q 2531 2678 2651 2914 
Q 2772 3150 2772 3378 
Q 2772 3750 2511 3984 
Q 2250 4219 1831 4219 
Q 1534 4219 1204 4116 
Q 875 4013 500 3803 
L 500 4441 
Q 881 4594 1212 4672 
Q 1544 4750 1819 4750 
Q 2544 4750 2975 4387 
Q 3406 4025 3406 3419 
Q 3406 3131 3298 2873 
Q 3191 2616 2906 2266 
Q 2828 2175 2409 1742 
Q 1991 1309 1228 531 
z
" transform="scale(0.015625)"/>
       </defs>
       <use xlink:href="#DejaVuSans-31" transform="translate(0 0.765625)"/>
       <use xlink:href="#DejaVuSans-30" transform="translate(63.623047 0.765625)"/>
       <use xlink:href="#DejaVuSans-32" transform="translate(128.203125 39.046875) scale(0.7)"/>
      </g>
     </g>
    </g>
    <g id="xtick_4">
     <g id="line2d_4">
      <defs>
       <path id="m9bc14a2fd3" d="M 0 0 
L 0 2 
" style="stroke: #000000; stroke-width: 0.6"/>
      </defs>
      <g>
       <use xlink:href="#m9bc14a2fd3" x="69.456739" y="242.728" style="stroke: #000000; stroke-width: 0.6"/>
      </g>
     </g>
    </g>
    <g id="xtick_5">
     <g id="line2d_5">
      <g>
       <use xlink:href="#m9bc14a2fd3" x="86.213587" y="242.728" style="stroke: #000000; stroke-width: 0.6"/>
      </g>
     </g>
    </g>
    <g id="xtick_6">
     <g id="line2d_6">
      <g>
       <use xlink:href="#m9bc14a2fd3" x="99.211207" y="242.728" style="stroke: #000000; stroke-width: 0.6"/>
      </g>
     </g>
    </g>
    <g id="xtick_7">
     <g id="line2d_7">
      <g>
       <use xlink:href="#m9bc14a2fd3" x="109.831037" y="242.728" style="stroke: #000000; stroke-width: 0.6"/>
      </g>
     </g>
    </g>
    <g id="xtick_8">
     <g id="line2d_8">
      <g>
       <use xlink:href="#m9bc14a2fd3" x="118.809975" y="242.728" style="stroke: #000000; stroke-width: 0.6"/>
      </g>
     </g>
    </g>
    <g id="xtick_9">
     <g id="line2d_9">
      <g>
       <use xlink:href="#m9bc14a2fd3" x="126.587884" y="242.728" style="stroke: #000000; stroke-width: 0.6"/>
      </g>
     </g>
    </g>
    <g id="xtick_10">
     <g id="line2d_10">
      <g>
       <use xlink:href="#m9bc14a2fd3" x="133.448487" y="242.728" style="stroke: #000000; stroke-width: 0.6"/>
      </g>
     </g>
    </g>
    <g id="xtick_11">
     <g id="line2d_11">
      <g>
       <use xlink:href="#m9bc14a2fd3" x="179.959803" y="242.728" style="stroke: #000000; stroke-width: 0.6"/>
      </g>
     </g>
    </g>
    <g id="xtick_12">
     <g id="line2d_12">
      <g>
       <use xlink:href="#m9bc14a2fd3" x="203.577253" y="242.728" style="stroke: #000000; stroke-width: 0.6"/>
      </g>
     </g>
    </g>
    <g id="xtick_13">
     <g id="line2d_13">
      <g>
       <use xlink:href="#m9bc14a2fd3" x="220.334101" y="242.728" style="stroke: #000000; stroke-width: 0.6"/>
      </g>
     </g>
    </g>
    <g id="xtick_14">
     <g id="line2d_14">
      <g>
       <use xlink:href="#m9bc14a2fd3" x="233.331722" y="242.728" style="stroke: #000000; stroke-width: 0.6"/>
      </g>
     </g>
    </g>
    <g id="xtick_15">
     <g id="line2d_15">
      <g>
       <use xlink:href="#m9bc14a2fd3" x="243.951551" y="242.728" style="stroke: #000000; stroke-width: 0.6"/>
      </g>
     </g>
    </g>
    <g id="xtick_16">
     <g id="line2d_16">
      <g>
       <use xlink:href="#m9bc14a2fd3" x="252.930489" y="242.728" style="stroke: #000000; stroke-width: 0.6"/>
      </g>
     </g>
    </g>
    <g id="xtick_17">
     <g id="line2d_17">
      <g>
       <use xlink:href="#m9bc14a2fd3" x="260.708399" y="242.728" style="stroke: #000000; stroke-width: 0.6"/>
      </g>
     </g>
    </g>
    <g id="xtick_18">
     <g id="line2d_18">
      <g>
       <use xlink:href="#m9bc14a2fd3" x="267.569001" y="242.728" style="stroke: #000000; stroke-width: 0.6"/>
      </g>
     </g>
    </g>
    <g id="xtick_19">
     <g id="line2d_19">
      <g>
       <use xlink:href="#m9bc14a2fd3" x="314.080317" y="242.728" style="stroke: #000000; stroke-width: 0.6"/>
      </g>
     </g>
    </g>
    <g id="xtick_20">
     <g id="line2d_20">
      <g>
       <use xlink:href="#m9bc14a2fd3" x="337.697767" y="242.728" style="stroke: #000000; stroke-width: 0.6"/>
      </g>
     </g>
    </g>
    <g id="xtick_21">
     <g id="line2d_21">
      <g>
       <use xlink:href="#m9bc14a2fd3" x="354.454615" y="242.728" style="stroke: #000000; stroke-width: 0.6"/>
      </g>
     </g>
    </g>
    <g id="xtick_22">
     <g id="line2d_22">
      <g>
       <use xlink:href="#m9bc14a2fd3" x="367.452236" y="242.728" style="stroke: #000000; stroke-width: 0.6"/>
      </g>
     </g>
    </g>
    <g id="xtick_23">
     <g id="line2d_23">
      <g>
       <use xlink:href="#m9bc14a2fd3" x="378.072065" y="242.728" style="stroke: #000000; stroke-width: 0.6"/>
      </g>
     </g>
    </g>
    <g id="xtick_24">
     <g id="line2d_24">
      <g>
       <use xlink:href="#m9bc14a2fd3" x="387.051003" y="242.728" style="stroke: #000000; stroke-width: 0.6"/>
      </g>
     </g>
    </g>
    <g id="xtick_25">
     <g id="line2d_25">
      <g>
       <use xlink:href="#m9bc14a2fd3" x="394.828913" y="242.728" style="stroke: #000000; stroke-width: 0.6"/>
      </g>
     </g>
    </g>
    <g id="xtick_26">
     <g id="line2d_26">
      <g>
       <use xlink:href="#m9bc14a2fd3" x="401.689515" y="242.728" style="stroke: #000000; stroke-width: 0.6"/>
      </g>
     </g>
    </g>
    <g id="text_4">
     <!-- Energy [TeV] -->
     <g transform="translate(211.254038 271.004563) scale(0.1 -0.1)">
      <defs>
       <path id="DejaVuSans-45" d="M 628 4666 
L 3578 4666 
L 3578 4134 
L 1259 4134 
L 1259 2753 
L 3481 2753 
L 3481 2222 
L 1259 2222 
L 1259 531 
L 3634 531 
L 3634 0 
L 628 0 
L 628 4666 
z
" transform="scale(0.015625)"/>
       <path id="DejaVuSans-6e" d="M 3513 2113 
L 3513 0 
L 2938 0 
L 2938 2094 
Q 2938 2591 2744 2837 
Q 2550 3084 2163 3084 
Q 1697 3084 1428 2787 
Q 1159 2491 1159 1978 
L 1159 0 
L 581 0 
L 581 3500 
L 1159 3500 
L 1159 2956 
Q 1366 3272 1645 3428 
Q 1925 3584 2291 3584 
Q 2894 3584 3203 3211 
Q 3513 2838 3513 2113 
z
" transform="scale(0.015625)"/>
       <path id="DejaVuSans-65" d="M 3597 1894 
L 3597 1613 
L 953 1613 
Q 991 1019 1311 708 
Q 1631 397 2203 397 
Q 2534 397 2845 478 
Q 3156 559 3463 722 
L 3463 178 
Q 3153 47 2828 -22 
Q 2503 -91 2169 -91 
Q 1331 -91 842 396 
Q 353 884 353 1716 
Q 353 2575 817 3079 
Q 1281 3584 2069 3584 
Q 2775 3584 3186 3129 
Q 3597 2675 3597 1894 
z
M 3022 2063 
Q 3016 2534 2758 2815 
Q 2500 3097 2075 3097 
Q 1594 3097 1305 2825 
Q 1016 2553 972 2059 
L 3022 2063 
z
" transform="scale(0.015625)"/>
       <path id="DejaVuSans-72" d="M 2631 2963 
Q 2534 3019 2420 3045 
Q 2306 3072 2169 3072 
Q 1681 3072 1420 2755 
Q 1159 2438 1159 1844 
L 1159 0 
L 581 0 
L 581 3500 
L 1159 3500 
L 1159 2956 
Q 1341 3275 1631 3429 
Q 1922 3584 2338 3584 
Q 2397 3584 2469 3576 
Q 2541 3569 2628 3553 
L 2631 2963 
z
" transform="scale(0.015625)"/>
       <path id="DejaVuSans-67" d="M 2906 1791 
Q 2906 2416 2648 2759 
Q 2391 3103 1925 3103 
Q 1463 3103 1205 2759 
Q 947 2416 947 1791 
Q 947 1169 1205 825 
Q 1463 481 1925 481 
Q 2391 481 2648 825 
Q 2906 1169 2906 1791 
z
M 3481 434 
Q 3481 -459 3084 -895 
Q 2688 -1331 1869 -1331 
Q 1566 -1331 1297 -1286 
Q 1028 -1241 775 -1147 
L 775 -588 
Q 1028 -725 1275 -790 
Q 1522 -856 1778 -856 
Q 2344 -856 2625 -561 
Q 2906 -266 2906 331 
L 2906 616 
Q 2728 306 2450 153 
Q 2172 0 1784 0 
Q 1141 0 747 490 
Q 353 981 353 1791 
Q 353 2603 747 3093 
Q 1141 3584 1784 3584 
Q 2172 3584 2450 3431 
Q 2728 3278 2906 2969 
L 2906 3500 
L 3481 3500 
L 3481 434 
z
" transform="scale(0.015625)"/>
       <path id="DejaVuSans-79" d="M 2059 -325 
Q 1816 -950 1584 -1140 
Q 1353 -1331 966 -1331 
L 506 -1331 
L 506 -850 
L 844 -850 
Q 1081 -850 1212 -737 
Q 1344 -625 1503 -206 
L 1606 56 
L 191 3500 
L 800 3500 
L 1894 763 
L 2988 3500 
L 3597 3500 
L 2059 -325 
z
" transform="scale(0.015625)"/>
       <path id="DejaVuSans-20" transform="scale(0.015625)"/>
       <path id="DejaVuSans-5b" d="M 550 4863 
L 1875 4863 
L 1875 4416 
L 1125 4416 
L 1125 -397 
L 1875 -397 
L 1875 -844 
L 550 -844 
L 550 4863 
z
" transform="scale(0.015625)"/>
       <path id="DejaVuSans-54" d="M -19 4666 
L 3928 4666 
L 3928 4134 
L 2272 4134 
L 2272 0 
L 1638 0 
L 1638 4134 
L -19 4134 
L -19 4666 
z
" transform="scale(0.015625)"/>
       <path id="DejaVuSans-56" d="M 1831 0 
L 50 4666 
L 709 4666 
L 2188 738 
L 3669 4666 
L 4325 4666 
L 2547 0 
L 1831 0 
z
" transform="scale(0.015625)"/>
       <path id="DejaVuSans-5d" d="M 1947 4863 
L 1947 -844 
L 622 -844 
L 622 -397 
L 1369 -397 
L 1369 4416 
L 622 4416 
L 622 4863 
L 1947 4863 
z
" transform="scale(0.015625)"/>
      </defs>
      <use xlink:href="#DejaVuSans-45"/>
      <use xlink:href="#DejaVuSans-6e" x="63.183594"/>
      <use xlink:href="#DejaVuSans-65" x="126.5625"/>
      <use xlink:href="#DejaVuSans-72" x="188.085938"/>
      <use xlink:href="#DejaVuSans-67" x="227.449219"/>
      <use xlink:href="#DejaVuSans-79" x="290.925781"/>
      <use xlink:href="#DejaVuSans-20" x="350.105469"/>
      <use xlink:href="#DejaVuSans-5b" x="381.892578"/>
      <use xlink:href="#DejaVuSans-54" x="420.90625"/>
      <use xlink:href="#DejaVuSans-65" x="464.990234"/>
      <use xlink:href="#DejaVuSans-56" x="526.513672"/>
      <use xlink:href="#DejaVuSans-5d" x="594.921875"/>
     </g>
    </g>
   </g>
   <g id="matplotlib.axis_2">
    <g id="ytick_1">
     <g id="line2d_27">
      <defs>
       <path id="m5e969acd8a" d="M 0 0 
L -3.5 0 
" style="stroke: #000000; stroke-width: 0.8"/>
      </defs>
      <g>
       <use xlink:href="#m5e969acd8a" x="64.703389" y="242.728" style="stroke: #000000; stroke-width: 0.8"/>
      </g>
     </g>
     <g id="text_5">
      <!-- $\mathdefault{10^{-16}}$ -->
      <g transform="translate(29.803389 246.527219) scale(0.1 -0.1)">
       <defs>
        <path id="DejaVuSans-2212" d="M 678 2272 
L 4684 2272 
L 4684 1741 
L 678 1741 
L 678 2272 
z
" transform="scale(0.015625)"/>
        <path id="DejaVuSans-36" d="M 2113 2584 
Q 1688 2584 1439 2293 
Q 1191 2003 1191 1497 
Q 1191 994 1439 701 
Q 1688 409 2113 409 
Q 2538 409 2786 701 
Q 3034 994 3034 1497 
Q 3034 2003 2786 2293 
Q 2538 2584 2113 2584 
z
M 3366 4563 
L 3366 3988 
Q 3128 4100 2886 4159 
Q 2644 4219 2406 4219 
Q 1781 4219 1451 3797 
Q 1122 3375 1075 2522 
Q 1259 2794 1537 2939 
Q 1816 3084 2150 3084 
Q 2853 3084 3261 2657 
Q 3669 2231 3669 1497 
Q 3669 778 3244 343 
Q 2819 -91 2113 -91 
Q 1303 -91 875 529 
Q 447 1150 447 2328 
Q 447 3434 972 4092 
Q 1497 4750 2381 4750 
Q 2619 4750 2861 4703 
Q 3103 4656 3366 4563 
z
" transform="scale(0.015625)"/>
       </defs>
       <use xlink:href="#DejaVuSans-31" transform="translate(0 0.765625)"/>
       <use xlink:href="#DejaVuSans-30" transform="translate(63.623047 0.765625)"/>
       <use xlink:href="#DejaVuSans-2212" transform="translate(128.203125 39.046875) scale(0.7)"/>
       <use xlink:href="#DejaVuSans-31" transform="translate(186.855469 39.046875) scale(0.7)"/>
       <use xlink:href="#DejaVuSans-36" transform="translate(231.391602 39.046875) scale(0.7)"/>
      </g>
     </g>
    </g>
    <g id="ytick_2">
     <g id="line2d_28">
      <g>
       <use xlink:href="#m5e969acd8a" x="64.703389" y="197.4656" style="stroke: #000000; stroke-width: 0.8"/>
      </g>
     </g>
     <g id="text_6">
      <!-- $\mathdefault{10^{-15}}$ -->
      <g transform="translate(29.803389 201.264819) scale(0.1 -0.1)">
       <defs>
        <path id="DejaVuSans-35" d="M 691 4666 
L 3169 4666 
L 3169 4134 
L 1269 4134 
L 1269 2991 
Q 1406 3038 1543 3061 
Q 1681 3084 1819 3084 
Q 2600 3084 3056 2656 
Q 3513 2228 3513 1497 
Q 3513 744 3044 326 
Q 2575 -91 1722 -91 
Q 1428 -91 1123 -41 
Q 819 9 494 109 
L 494 744 
Q 775 591 1075 516 
Q 1375 441 1709 441 
Q 2250 441 2565 725 
Q 2881 1009 2881 1497 
Q 2881 1984 2565 2268 
Q 2250 2553 1709 2553 
Q 1456 2553 1204 2497 
Q 953 2441 691 2322 
L 691 4666 
z
" transform="scale(0.015625)"/>
       </defs>
       <use xlink:href="#DejaVuSans-31" transform="translate(0 0.684375)"/>
       <use xlink:href="#DejaVuSans-30" transform="translate(63.623047 0.684375)"/>
       <use xlink:href="#DejaVuSans-2212" transform="translate(128.203125 38.965625) scale(0.7)"/>
       <use xlink:href="#DejaVuSans-31" transform="translate(186.855469 38.965625) scale(0.7)"/>
       <use xlink:href="#DejaVuSans-35" transform="translate(231.391602 38.965625) scale(0.7)"/>
      </g>
     </g>
    </g>
    <g id="ytick_3">
     <g id="line2d_29">
      <g>
       <use xlink:href="#m5e969acd8a" x="64.703389" y="152.2032" style="stroke: #000000; stroke-width: 0.8"/>
      </g>
     </g>
     <g id="text_7">
      <!-- $\mathdefault{10^{-14}}$ -->
      <g transform="translate(29.803389 156.002419) scale(0.1 -0.1)">
       <defs>
        <path id="DejaVuSans-34" d="M 2419 4116 
L 825 1625 
L 2419 1625 
L 2419 4116 
z
M 2253 4666 
L 3047 4666 
L 3047 1625 
L 3713 1625 
L 3713 1100 
L 3047 1100 
L 3047 0 
L 2419 0 
L 2419 1100 
L 313 1100 
L 313 1709 
L 2253 4666 
z
" transform="scale(0.015625)"/>
       </defs>
       <use xlink:href="#DejaVuSans-31" transform="translate(0 0.684375)"/>
       <use xlink:href="#DejaVuSans-30" transform="translate(63.623047 0.684375)"/>
       <use xlink:href="#DejaVuSans-2212" transform="translate(128.203125 38.965625) scale(0.7)"/>
       <use xlink:href="#DejaVuSans-31" transform="translate(186.855469 38.965625) scale(0.7)"/>
       <use xlink:href="#DejaVuSans-34" transform="translate(231.391602 38.965625) scale(0.7)"/>
      </g>
     </g>
    </g>
    <g id="ytick_4">
     <g id="line2d_30">
      <g>
       <use xlink:href="#m5e969acd8a" x="64.703389" y="106.9408" style="stroke: #000000; stroke-width: 0.8"/>
      </g>
     </g>
     <g id="text_8">
      <!-- $\mathdefault{10^{-13}}$ -->
      <g transform="translate(29.803389 110.740019) scale(0.1 -0.1)">
       <defs>
        <path id="DejaVuSans-33" d="M 2597 2516 
Q 3050 2419 3304 2112 
Q 3559 1806 3559 1356 
Q 3559 666 3084 287 
Q 2609 -91 1734 -91 
Q 1441 -91 1130 -33 
Q 819 25 488 141 
L 488 750 
Q 750 597 1062 519 
Q 1375 441 1716 441 
Q 2309 441 2620 675 
Q 2931 909 2931 1356 
Q 2931 1769 2642 2001 
Q 2353 2234 1838 2234 
L 1294 2234 
L 1294 2753 
L 1863 2753 
Q 2328 2753 2575 2939 
Q 2822 3125 2822 3475 
Q 2822 3834 2567 4026 
Q 2313 4219 1838 4219 
Q 1578 4219 1281 4162 
Q 984 4106 628 3988 
L 628 4550 
Q 988 4650 1302 4700 
Q 1616 4750 1894 4750 
Q 2613 4750 3031 4423 
Q 3450 4097 3450 3541 
Q 3450 3153 3228 2886 
Q 3006 2619 2597 2516 
z
" transform="scale(0.015625)"/>
       </defs>
       <use xlink:href="#DejaVuSans-31" transform="translate(0 0.765625)"/>
       <use xlink:href="#DejaVuSans-30" transform="translate(63.623047 0.765625)"/>
       <use xlink:href="#DejaVuSans-2212" transform="translate(128.203125 39.046875) scale(0.7)"/>
       <use xlink:href="#DejaVuSans-31" transform="translate(186.855469 39.046875) scale(0.7)"/>
       <use xlink:href="#DejaVuSans-33" transform="translate(231.391602 39.046875) scale(0.7)"/>
      </g>
     </g>
    </g>
    <g id="ytick_5">
     <g id="line2d_31">
      <g>
       <use xlink:href="#m5e969acd8a" x="64.703389" y="61.6784" style="stroke: #000000; stroke-width: 0.8"/>
      </g>
     </g>
     <g id="text_9">
      <!-- $\mathdefault{10^{-12}}$ -->
      <g transform="translate(29.803389 65.477619) scale(0.1 -0.1)">
       <use xlink:href="#DejaVuSans-31" transform="translate(0 0.765625)"/>
       <use xlink:href="#DejaVuSans-30" transform="translate(63.623047 0.765625)"/>
       <use xlink:href="#DejaVuSans-2212" transform="translate(128.203125 39.046875) scale(0.7)"/>
       <use xlink:href="#DejaVuSans-31" transform="translate(186.855469 39.046875) scale(0.7)"/>
       <use xlink:href="#DejaVuSans-32" transform="translate(231.391602 39.046875) scale(0.7)"/>
      </g>
     </g>
    </g>
    <g id="ytick_6">
     <g id="line2d_32">
      <g>
       <use xlink:href="#m5e969acd8a" x="64.703389" y="16.416" style="stroke: #000000; stroke-width: 0.8"/>
      </g>
     </g>
     <g id="text_10">
      <!-- $\mathdefault{10^{-11}}$ -->
      <g transform="translate(29.803389 20.215219) scale(0.1 -0.1)">
       <use xlink:href="#DejaVuSans-31" transform="translate(0 0.684375)"/>
       <use xlink:href="#DejaVuSans-30" transform="translate(63.623047 0.684375)"/>
       <use xlink:href="#DejaVuSans-2212" transform="translate(128.203125 38.965625) scale(0.7)"/>
       <use xlink:href="#DejaVuSans-31" transform="translate(186.855469 38.965625) scale(0.7)"/>
       <use xlink:href="#DejaVuSans-31" transform="translate(231.391602 38.965625) scale(0.7)"/>
      </g>
     </g>
    </g>
    <g id="ytick_7">
     <g id="line2d_33">
      <defs>
       <path id="mcbc7ac9e38" d="M 0 0 
L -2 0 
" style="stroke: #000000; stroke-width: 0.6"/>
      </defs>
      <g>
       <use xlink:href="#mcbc7ac9e38" x="64.703389" y="229.10266" style="stroke: #000000; stroke-width: 0.6"/>
      </g>
     </g>
    </g>
    <g id="ytick_8">
     <g id="line2d_34">
      <g>
       <use xlink:href="#mcbc7ac9e38" x="64.703389" y="221.132347" style="stroke: #000000; stroke-width: 0.6"/>
      </g>
     </g>
    </g>
    <g id="ytick_9">
     <g id="line2d_35">
      <g>
       <use xlink:href="#mcbc7ac9e38" x="64.703389" y="215.47732" style="stroke: #000000; stroke-width: 0.6"/>
      </g>
     </g>
    </g>
    <g id="ytick_10">
     <g id="line2d_36">
      <g>
       <use xlink:href="#mcbc7ac9e38" x="64.703389" y="211.09094" style="stroke: #000000; stroke-width: 0.6"/>
      </g>
     </g>
    </g>
    <g id="ytick_11">
     <g id="line2d_37">
      <g>
       <use xlink:href="#mcbc7ac9e38" x="64.703389" y="207.507007" style="stroke: #000000; stroke-width: 0.6"/>
      </g>
     </g>
    </g>
    <g id="ytick_12">
     <g id="line2d_38">
      <g>
       <use xlink:href="#mcbc7ac9e38" x="64.703389" y="204.476834" style="stroke: #000000; stroke-width: 0.6"/>
      </g>
     </g>
    </g>
    <g id="ytick_13">
     <g id="line2d_39">
      <g>
       <use xlink:href="#mcbc7ac9e38" x="64.703389" y="201.85198" style="stroke: #000000; stroke-width: 0.6"/>
      </g>
     </g>
    </g>
    <g id="ytick_14">
     <g id="line2d_40">
      <g>
       <use xlink:href="#mcbc7ac9e38" x="64.703389" y="199.536694" style="stroke: #000000; stroke-width: 0.6"/>
      </g>
     </g>
    </g>
    <g id="ytick_15">
     <g id="line2d_41">
      <g>
       <use xlink:href="#mcbc7ac9e38" x="64.703389" y="183.84026" style="stroke: #000000; stroke-width: 0.6"/>
      </g>
     </g>
    </g>
    <g id="ytick_16">
     <g id="line2d_42">
      <g>
       <use xlink:href="#mcbc7ac9e38" x="64.703389" y="175.869947" style="stroke: #000000; stroke-width: 0.6"/>
      </g>
     </g>
    </g>
    <g id="ytick_17">
     <g id="line2d_43">
      <g>
       <use xlink:href="#mcbc7ac9e38" x="64.703389" y="170.21492" style="stroke: #000000; stroke-width: 0.6"/>
      </g>
     </g>
    </g>
    <g id="ytick_18">
     <g id="line2d_44">
      <g>
       <use xlink:href="#mcbc7ac9e38" x="64.703389" y="165.82854" style="stroke: #000000; stroke-width: 0.6"/>
      </g>
     </g>
    </g>
    <g id="ytick_19">
     <g id="line2d_45">
      <g>
       <use xlink:href="#mcbc7ac9e38" x="64.703389" y="162.244607" style="stroke: #000000; stroke-width: 0.6"/>
      </g>
     </g>
    </g>
    <g id="ytick_20">
     <g id="line2d_46">
      <g>
       <use xlink:href="#mcbc7ac9e38" x="64.703389" y="159.214434" style="stroke: #000000; stroke-width: 0.6"/>
      </g>
     </g>
    </g>
    <g id="ytick_21">
     <g id="line2d_47">
      <g>
       <use xlink:href="#mcbc7ac9e38" x="64.703389" y="156.58958" style="stroke: #000000; stroke-width: 0.6"/>
      </g>
     </g>
    </g>
    <g id="ytick_22">
     <g id="line2d_48">
      <g>
       <use xlink:href="#mcbc7ac9e38" x="64.703389" y="154.274294" style="stroke: #000000; stroke-width: 0.6"/>
      </g>
     </g>
    </g>
    <g id="ytick_23">
     <g id="line2d_49">
      <g>
       <use xlink:href="#mcbc7ac9e38" x="64.703389" y="138.57786" style="stroke: #000000; stroke-width: 0.6"/>
      </g>
     </g>
    </g>
    <g id="ytick_24">
     <g id="line2d_50">
      <g>
       <use xlink:href="#mcbc7ac9e38" x="64.703389" y="130.607547" style="stroke: #000000; stroke-width: 0.6"/>
      </g>
     </g>
    </g>
    <g id="ytick_25">
     <g id="line2d_51">
      <g>
       <use xlink:href="#mcbc7ac9e38" x="64.703389" y="124.95252" style="stroke: #000000; stroke-width: 0.6"/>
      </g>
     </g>
    </g>
    <g id="ytick_26">
     <g id="line2d_52">
      <g>
       <use xlink:href="#mcbc7ac9e38" x="64.703389" y="120.56614" style="stroke: #000000; stroke-width: 0.6"/>
      </g>
     </g>
    </g>
    <g id="ytick_27">
     <g id="line2d_53">
      <g>
       <use xlink:href="#mcbc7ac9e38" x="64.703389" y="116.982207" style="stroke: #000000; stroke-width: 0.6"/>
      </g>
     </g>
    </g>
    <g id="ytick_28">
     <g id="line2d_54">
      <g>
       <use xlink:href="#mcbc7ac9e38" x="64.703389" y="113.952034" style="stroke: #000000; stroke-width: 0.6"/>
      </g>
     </g>
    </g>
    <g id="ytick_29">
     <g id="line2d_55">
      <g>
       <use xlink:href="#mcbc7ac9e38" x="64.703389" y="111.32718" style="stroke: #000000; stroke-width: 0.6"/>
      </g>
     </g>
    </g>
    <g id="ytick_30">
     <g id="line2d_56">
      <g>
       <use xlink:href="#mcbc7ac9e38" x="64.703389" y="109.011894" style="stroke: #000000; stroke-width: 0.6"/>
      </g>
     </g>
    </g>
    <g id="ytick_31">
     <g id="line2d_57">
      <g>
       <use xlink:href="#mcbc7ac9e38" x="64.703389" y="93.31546" style="stroke: #000000; stroke-width: 0.6"/>
      </g>
     </g>
    </g>
    <g id="ytick_32">
     <g id="line2d_58">
      <g>
       <use xlink:href="#mcbc7ac9e38" x="64.703389" y="85.345147" style="stroke: #000000; stroke-width: 0.6"/>
      </g>
     </g>
    </g>
    <g id="ytick_33">
     <g id="line2d_59">
      <g>
       <use xlink:href="#mcbc7ac9e38" x="64.703389" y="79.69012" style="stroke: #000000; stroke-width: 0.6"/>
      </g>
     </g>
    </g>
    <g id="ytick_34">
     <g id="line2d_60">
      <g>
       <use xlink:href="#mcbc7ac9e38" x="64.703389" y="75.30374" style="stroke: #000000; stroke-width: 0.6"/>
      </g>
     </g>
    </g>
    <g id="ytick_35">
     <g id="line2d_61">
      <g>
       <use xlink:href="#mcbc7ac9e38" x="64.703389" y="71.719807" style="stroke: #000000; stroke-width: 0.6"/>
      </g>
     </g>
    </g>
    <g id="ytick_36">
     <g id="line2d_62">
      <g>
       <use xlink:href="#mcbc7ac9e38" x="64.703389" y="68.689634" style="stroke: #000000; stroke-width: 0.6"/>
      </g>
     </g>
    </g>
    <g id="ytick_37">
     <g id="line2d_63">
      <g>
       <use xlink:href="#mcbc7ac9e38" x="64.703389" y="66.06478" style="stroke: #000000; stroke-width: 0.6"/>
      </g>
     </g>
    </g>
    <g id="ytick_38">
     <g id="line2d_64">
      <g>
       <use xlink:href="#mcbc7ac9e38" x="64.703389" y="63.749494" style="stroke: #000000; stroke-width: 0.6"/>
      </g>
     </g>
    </g>
    <g id="ytick_39">
     <g id="line2d_65">
      <g>
       <use xlink:href="#mcbc7ac9e38" x="64.703389" y="48.05306" style="stroke: #000000; stroke-width: 0.6"/>
      </g>
     </g>
    </g>
    <g id="ytick_40">
     <g id="line2d_66">
      <g>
       <use xlink:href="#mcbc7ac9e38" x="64.703389" y="40.082747" style="stroke: #000000; stroke-width: 0.6"/>
      </g>
     </g>
    </g>
    <g id="ytick_41">
     <g id="line2d_67">
      <g>
       <use xlink:href="#mcbc7ac9e38" x="64.703389" y="34.42772" style="stroke: #000000; stroke-width: 0.6"/>
      </g>
     </g>
    </g>
    <g id="ytick_42">
     <g id="line2d_68">
      <g>
       <use xlink:href="#mcbc7ac9e38" x="64.703389" y="30.04134" style="stroke: #000000; stroke-width: 0.6"/>
      </g>
     </g>
    </g>
    <g id="ytick_43">
     <g id="line2d_69">
      <g>
       <use xlink:href="#mcbc7ac9e38" x="64.703389" y="26.457407" style="stroke: #000000; stroke-width: 0.6"/>
      </g>
     </g>
    </g>
    <g id="ytick_44">
     <g id="line2d_70">
      <g>
       <use xlink:href="#mcbc7ac9e38" x="64.703389" y="23.427234" style="stroke: #000000; stroke-width: 0.6"/>
      </g>
     </g>
    </g>
    <g id="ytick_45">
     <g id="line2d_71">
      <g>
       <use xlink:href="#mcbc7ac9e38" x="64.703389" y="20.80238" style="stroke: #000000; stroke-width: 0.6"/>
      </g>
     </g>
    </g>
    <g id="ytick_46">
     <g id="line2d_72">
      <g>
       <use xlink:href="#mcbc7ac9e38" x="64.703389" y="18.487094" style="stroke: #000000; stroke-width: 0.6"/>
      </g>
     </g>
    </g>
    <g id="text_11">
     <!-- E$^2$ dN/dE [TeV cm$^{-2}$ s$^{-1}$] -->
     <g transform="translate(23.723702 190.822) rotate(-90) scale(0.1 -0.1)">
      <defs>
       <path id="DejaVuSans-64" d="M 2906 2969 
L 2906 4863 
L 3481 4863 
L 3481 0 
L 2906 0 
L 2906 525 
Q 2725 213 2448 61 
Q 2172 -91 1784 -91 
Q 1150 -91 751 415 
Q 353 922 353 1747 
Q 353 2572 751 3078 
Q 1150 3584 1784 3584 
Q 2172 3584 2448 3432 
Q 2725 3281 2906 2969 
z
M 947 1747 
Q 947 1113 1208 752 
Q 1469 391 1925 391 
Q 2381 391 2643 752 
Q 2906 1113 2906 1747 
Q 2906 2381 2643 2742 
Q 2381 3103 1925 3103 
Q 1469 3103 1208 2742 
Q 947 2381 947 1747 
z
" transform="scale(0.015625)"/>
       <path id="DejaVuSans-4e" d="M 628 4666 
L 1478 4666 
L 3547 763 
L 3547 4666 
L 4159 4666 
L 4159 0 
L 3309 0 
L 1241 3903 
L 1241 0 
L 628 0 
L 628 4666 
z
" transform="scale(0.015625)"/>
       <path id="DejaVuSans-2f" d="M 1625 4666 
L 2156 4666 
L 531 -594 
L 0 -594 
L 1625 4666 
z
" transform="scale(0.015625)"/>
       <path id="DejaVuSans-63" d="M 3122 3366 
L 3122 2828 
Q 2878 2963 2633 3030 
Q 2388 3097 2138 3097 
Q 1578 3097 1268 2742 
Q 959 2388 959 1747 
Q 959 1106 1268 751 
Q 1578 397 2138 397 
Q 2388 397 2633 464 
Q 2878 531 3122 666 
L 3122 134 
Q 2881 22 2623 -34 
Q 2366 -91 2075 -91 
Q 1284 -91 818 406 
Q 353 903 353 1747 
Q 353 2603 823 3093 
Q 1294 3584 2113 3584 
Q 2378 3584 2631 3529 
Q 2884 3475 3122 3366 
z
" transform="scale(0.015625)"/>
       <path id="DejaVuSans-6d" d="M 3328 2828 
Q 3544 3216 3844 3400 
Q 4144 3584 4550 3584 
Q 5097 3584 5394 3201 
Q 5691 2819 5691 2113 
L 5691 0 
L 5113 0 
L 5113 2094 
Q 5113 2597 4934 2840 
Q 4756 3084 4391 3084 
Q 3944 3084 3684 2787 
Q 3425 2491 3425 1978 
L 3425 0 
L 2847 0 
L 2847 2094 
Q 2847 2600 2669 2842 
Q 2491 3084 2119 3084 
Q 1678 3084 1418 2786 
Q 1159 2488 1159 1978 
L 1159 0 
L 581 0 
L 581 3500 
L 1159 3500 
L 1159 2956 
Q 1356 3278 1631 3431 
Q 1906 3584 2284 3584 
Q 2666 3584 2933 3390 
Q 3200 3197 3328 2828 
z
" transform="scale(0.015625)"/>
       <path id="DejaVuSans-73" d="M 2834 3397 
L 2834 2853 
Q 2591 2978 2328 3040 
Q 2066 3103 1784 3103 
Q 1356 3103 1142 2972 
Q 928 2841 928 2578 
Q 928 2378 1081 2264 
Q 1234 2150 1697 2047 
L 1894 2003 
Q 2506 1872 2764 1633 
Q 3022 1394 3022 966 
Q 3022 478 2636 193 
Q 2250 -91 1575 -91 
Q 1294 -91 989 -36 
Q 684 19 347 128 
L 347 722 
Q 666 556 975 473 
Q 1284 391 1588 391 
Q 1994 391 2212 530 
Q 2431 669 2431 922 
Q 2431 1156 2273 1281 
Q 2116 1406 1581 1522 
L 1381 1569 
Q 847 1681 609 1914 
Q 372 2147 372 2553 
Q 372 3047 722 3315 
Q 1072 3584 1716 3584 
Q 2034 3584 2315 3537 
Q 2597 3491 2834 3397 
z
" transform="scale(0.015625)"/>
      </defs>
      <use xlink:href="#DejaVuSans-45" transform="translate(0 0.765625)"/>
      <use xlink:href="#DejaVuSans-32" transform="translate(64.140625 39.046875) scale(0.7)"/>
      <use xlink:href="#DejaVuSans-20" transform="translate(111.411133 0.765625)"/>
      <use xlink:href="#DejaVuSans-64" transform="translate(143.198242 0.765625)"/>
      <use xlink:href="#DejaVuSans-4e" transform="translate(206.674805 0.765625)"/>
      <use xlink:href="#DejaVuSans-2f" transform="translate(281.479492 0.765625)"/>
      <use xlink:href="#DejaVuSans-64" transform="translate(315.170898 0.765625)"/>
      <use xlink:href="#DejaVuSans-45" transform="translate(378.647461 0.765625)"/>
      <use xlink:href="#DejaVuSans-20" transform="translate(441.831055 0.765625)"/>
      <use xlink:href="#DejaVuSans-5b" transform="translate(473.618164 0.765625)"/>
      <use xlink:href="#DejaVuSans-54" transform="translate(512.631836 0.765625)"/>
      <use xlink:href="#DejaVuSans-65" transform="translate(573.71582 0.765625)"/>
      <use xlink:href="#DejaVuSans-56" transform="translate(635.239258 0.765625)"/>
      <use xlink:href="#DejaVuSans-20" transform="translate(703.647461 0.765625)"/>
      <use xlink:href="#DejaVuSans-63" transform="translate(735.43457 0.765625)"/>
      <use xlink:href="#DejaVuSans-6d" transform="translate(790.415039 0.765625)"/>
      <use xlink:href="#DejaVuSans-2212" transform="translate(888.78418 39.046875) scale(0.7)"/>
      <use xlink:href="#DejaVuSans-32" transform="translate(947.436523 39.046875) scale(0.7)"/>
      <use xlink:href="#DejaVuSans-20" transform="translate(994.707031 0.765625)"/>
      <use xlink:href="#DejaVuSans-73" transform="translate(1026.494141 0.765625)"/>
      <use xlink:href="#DejaVuSans-2212" transform="translate(1079.550781 39.046875) scale(0.7)"/>
      <use xlink:href="#DejaVuSans-31" transform="translate(1138.203125 39.046875) scale(0.7)"/>
      <use xlink:href="#DejaVuSans-5d" transform="translate(1185.473633 0.765625)"/>
     </g>
    </g>
   </g>
   <g id="line2d_73">
    <path d="M 82.500462 41.986761 
L 85.685824 42.056008 
L 88.871186 42.127324 
L 92.056548 42.200825 
L 95.241911 42.276633 
L 98.427273 42.35488 
L 101.612635 42.4357 
L 104.797997 42.51924 
L 107.983359 42.605653 
L 111.168722 42.695098 
L 114.354084 42.787748 
L 117.539446 42.883782 
L 120.724808 42.983391 
L 123.91017 43.086775 
L 127.095533 43.194146 
L 130.280895 43.305729 
L 133.466257 43.421761 
L 136.651619 43.542491 
L 139.836981 43.668183 
L 143.022344 43.799117 
L 146.207706 43.935587 
L 149.393068 44.077905 
L 152.57843 44.226398 
L 155.763792 44.381415 
L 158.949155 44.543322 
L 162.134517 44.712505 
L 165.319879 44.889375 
L 168.505241 45.074362 
L 171.690603 45.267925 
L 174.875966 45.470543 
L 178.061328 45.682727 
L 181.24669 45.905015 
L 184.432052 46.137973 
L 187.617414 46.382202 
L 190.802777 46.638335 
L 193.988139 46.907042 
L 197.173501 47.18903 
L 200.358863 47.485044 
L 203.544225 47.795873 
L 206.729588 48.12235 
L 209.91495 48.465354 
L 213.100312 48.825815 
L 216.285674 49.204714 
L 219.471036 49.603087 
L 222.656398 50.022028 
L 225.841761 50.462694 
L 229.027123 50.926306 
L 232.212485 51.414154 
L 235.397847 51.9276 
L 238.583209 52.468083 
L 241.768572 53.037122 
L 244.953934 53.636324 
L 248.139296 54.267382 
L 251.324658 54.932088 
L 254.51002 55.632333 
L 257.695383 56.370115 
L 260.880745 57.147543 
L 264.066107 57.966847 
L 267.251469 58.83038 
L 270.436831 59.740627 
L 273.622194 60.700216 
L 276.807556 61.711918 
L 279.992918 62.778665 
L 283.17828 63.903548 
L 286.363642 65.089837 
L 289.549005 66.340983 
L 292.734367 67.660632 
L 295.919729 69.052633 
L 299.105091 70.521055 
L 302.290453 72.070192 
L 305.475816 73.704581 
L 308.661178 75.429014 
L 311.84654 77.248553 
L 315.031902 79.168544 
L 318.217264 81.194632 
L 321.402627 83.332782 
L 324.587989 85.589293 
L 327.773351 87.970816 
L 330.958713 90.48438 
L 334.144075 93.137406 
L 337.329438 95.937734 
L 340.5148 98.893642 
L 343.700162 102.013876 
L 346.885524 105.307673 
L 350.070886 108.784789 
L 353.256249 112.455527 
L 356.441611 116.330771 
L 359.626973 120.422017 
L 362.812335 124.741406 
L 365.997697 129.30176 
L 369.18306 134.116626 
L 372.368422 139.200308 
L 375.553784 144.567918 
L 378.739146 150.235413 
L 381.924508 156.219651 
L 385.109871 162.538435 
L 388.295233 169.21057 
L 391.480595 176.255918 
L 394.665957 183.695457 
L 397.851319 191.551344 
" clip-path="url(#pc86b6df8bc)" style="fill: none; stroke-dasharray: 1.5,2.475; stroke-dashoffset: 0; stroke: #000000; stroke-width: 1.5"/>
   </g>
   <g id="LineCollection_1">
    <path clip-path="url(#pc86b6df8bc)" style="fill: none; stroke: #8b0000; stroke-width: 1.5"/>
    <path clip-path="url(#pc86b6df8bc)" style="fill: none; stroke: #8b0000; stroke-width: 1.5"/>
    <path clip-path="url(#pc86b6df8bc)" style="fill: none; stroke: #8b0000; stroke-width: 1.5"/>
    <path clip-path="url(#pc86b6df8bc)" style="fill: none; stroke: #8b0000; stroke-width: 1.5"/>
    <path d="M 86.459389 41.134353 
L 86.459389 38.652909 
" clip-path="url(#pc86b6df8bc)" style="fill: none; stroke: #8b0000; stroke-width: 1.5"/>
    <path d="M 103.224454 43.410103 
L 103.224454 41.073104 
" clip-path="url(#pc86b6df8bc)" style="fill: none; stroke: #8b0000; stroke-width: 1.5"/>
    <path d="M 119.989517 44.38969 
L 119.989517 42.140562 
" clip-path="url(#pc86b6df8bc)" style="fill: none; stroke: #8b0000; stroke-width: 1.5"/>
    <path d="M 136.754581 44.247847 
L 136.754581 42.04284 
" clip-path="url(#pc86b6df8bc)" style="fill: none; stroke: #8b0000; stroke-width: 1.5"/>
    <path d="M 153.519647 46.748426 
L 153.519647 44.263753 
" clip-path="url(#pc86b6df8bc)" style="fill: none; stroke: #8b0000; stroke-width: 1.5"/>
    <path d="M 170.284711 48.265609 
L 170.284711 45.591048 
" clip-path="url(#pc86b6df8bc)" style="fill: none; stroke: #8b0000; stroke-width: 1.5"/>
    <path d="M 187.049774 48.152954 
L 187.049774 45.284975 
" clip-path="url(#pc86b6df8bc)" style="fill: none; stroke: #8b0000; stroke-width: 1.5"/>
    <path d="M 203.814838 49.06679 
L 203.814838 45.909215 
" clip-path="url(#pc86b6df8bc)" style="fill: none; stroke: #8b0000; stroke-width: 1.5"/>
    <path d="M 220.579904 50.081341 
L 220.579904 46.531516 
" clip-path="url(#pc86b6df8bc)" style="fill: none; stroke: #8b0000; stroke-width: 1.5"/>
    <path d="M 237.344967 49.309031 
L 237.344967 45.397365 
" clip-path="url(#pc86b6df8bc)" style="fill: none; stroke: #8b0000; stroke-width: 1.5"/>
    <path d="M 254.11003 55.788954 
L 254.11003 50.588107 
" clip-path="url(#pc86b6df8bc)" style="fill: none; stroke: #8b0000; stroke-width: 1.5"/>
    <path d="M 270.875095 57.871837 
L 270.875095 51.793842 
" clip-path="url(#pc86b6df8bc)" style="fill: none; stroke: #8b0000; stroke-width: 1.5"/>
    <path d="M 287.64016 63.819282 
L 287.64016 56.123036 
" clip-path="url(#pc86b6df8bc)" style="fill: none; stroke: #8b0000; stroke-width: 1.5"/>
    <path d="M 304.405226 82.275354 
L 304.405226 69.399713 
" clip-path="url(#pc86b6df8bc)" style="fill: none; stroke: #8b0000; stroke-width: 1.5"/>
    <path d="M 321.17029 123.608414 
L 321.17029 85.257953 
" clip-path="url(#pc86b6df8bc)" style="fill: none; stroke: #8b0000; stroke-width: 1.5"/>
    <path clip-path="url(#pc86b6df8bc)" style="fill: none; stroke: #8b0000; stroke-width: 1.5"/>
    <path d="M 354.700417 126.822707 
L 354.700417 85.869721 
" clip-path="url(#pc86b6df8bc)" style="fill: none; stroke: #8b0000; stroke-width: 1.5"/>
    <path d="M 371.465481 289 
L 371.465481 108.81289 
" clip-path="url(#pc86b6df8bc)" style="fill: none; stroke: #8b0000; stroke-width: 1.5"/>
    <path clip-path="url(#pc86b6df8bc)" style="fill: none; stroke: #8b0000; stroke-width: 1.5"/>
    <path clip-path="url(#pc86b6df8bc)" style="fill: none; stroke: #8b0000; stroke-width: 1.5"/>
   </g>
   <g id="LineCollection_2">
    <path clip-path="url(#pc86b6df8bc)" style="fill: none; stroke: #006400; stroke-width: 1.5"/>
    <path clip-path="url(#pc86b6df8bc)" style="fill: none; stroke: #006400; stroke-width: 1.5"/>
    <path clip-path="url(#pc86b6df8bc)" style="fill: none; stroke: #006400; stroke-width: 1.5"/>
    <path clip-path="url(#pc86b6df8bc)" style="fill: none; stroke: #006400; stroke-width: 1.5"/>
    <path d="M 80.907781 44.050773 
L 80.907781 40.108616 
" clip-path="url(#pc86b6df8bc)" style="fill: none; stroke: #006400; stroke-width: 1.5"/>
    <path d="M 97.672846 47.561483 
L 97.672846 43.947254 
" clip-path="url(#pc86b6df8bc)" style="fill: none; stroke: #006400; stroke-width: 1.5"/>
    <path d="M 114.437909 37.894905 
L 114.437909 33.798121 
" clip-path="url(#pc86b6df8bc)" style="fill: none; stroke: #006400; stroke-width: 1.5"/>
    <path d="M 131.202973 41.510041 
L 131.202973 37.765715 
" clip-path="url(#pc86b6df8bc)" style="fill: none; stroke: #006400; stroke-width: 1.5"/>
    <path d="M 147.968038 46.105831 
L 147.968038 42.230184 
" clip-path="url(#pc86b6df8bc)" style="fill: none; stroke: #006400; stroke-width: 1.5"/>
    <path d="M 164.733103 50.751346 
L 164.733103 46.850919 
" clip-path="url(#pc86b6df8bc)" style="fill: none; stroke: #006400; stroke-width: 1.5"/>
    <path d="M 181.498165 50.201879 
L 181.498165 46.004799 
" clip-path="url(#pc86b6df8bc)" style="fill: none; stroke: #006400; stroke-width: 1.5"/>
    <path d="M 198.26323 52.098412 
L 198.26323 47.6367 
" clip-path="url(#pc86b6df8bc)" style="fill: none; stroke: #006400; stroke-width: 1.5"/>
    <path d="M 215.028296 52.123377 
L 215.028296 47.173724 
" clip-path="url(#pc86b6df8bc)" style="fill: none; stroke: #006400; stroke-width: 1.5"/>
    <path d="M 231.793359 52.620949 
L 231.793359 47.327494 
" clip-path="url(#pc86b6df8bc)" style="fill: none; stroke: #006400; stroke-width: 1.5"/>
    <path d="M 248.558421 58.079769 
L 248.558421 51.543209 
" clip-path="url(#pc86b6df8bc)" style="fill: none; stroke: #006400; stroke-width: 1.5"/>
    <path d="M 265.323487 60.798516 
L 265.323487 53.409909 
" clip-path="url(#pc86b6df8bc)" style="fill: none; stroke: #006400; stroke-width: 1.5"/>
    <path d="M 282.088552 67.002089 
L 282.088552 58.085594 
" clip-path="url(#pc86b6df8bc)" style="fill: none; stroke: #006400; stroke-width: 1.5"/>
    <path d="M 298.853618 81.525105 
L 298.853618 67.719448 
" clip-path="url(#pc86b6df8bc)" style="fill: none; stroke: #006400; stroke-width: 1.5"/>
    <path d="M 315.618682 122.928381 
L 315.618682 84.074229 
" clip-path="url(#pc86b6df8bc)" style="fill: none; stroke: #006400; stroke-width: 1.5"/>
    <path clip-path="url(#pc86b6df8bc)" style="fill: none; stroke: #006400; stroke-width: 1.5"/>
    <path d="M 349.148809 124.935219 
L 349.148809 84.00591 
" clip-path="url(#pc86b6df8bc)" style="fill: none; stroke: #006400; stroke-width: 1.5"/>
    <path d="M 365.913873 289 
L 365.913873 176.372666 
" clip-path="url(#pc86b6df8bc)" style="fill: none; stroke: #006400; stroke-width: 1.5"/>
    <path clip-path="url(#pc86b6df8bc)" style="fill: none; stroke: #006400; stroke-width: 1.5"/>
    <path clip-path="url(#pc86b6df8bc)" style="fill: none; stroke: #006400; stroke-width: 1.5"/>
   </g>
   <g id="line2d_74">
    <defs>
     <path id="mbbe8efa3fc" d="M 0 3 
C 0.795609 3 1.55874 2.683901 2.12132 2.12132 
C 2.683901 1.55874 3 0.795609 3 0 
C 3 -0.795609 2.683901 -1.55874 2.12132 -2.12132 
C 1.55874 -2.683901 0.795609 -3 0 -3 
C -0.795609 -3 -1.55874 -2.683901 -2.12132 -2.12132 
C -2.683901 -1.55874 -3 -0.795609 -3 0 
C -3 0.795609 -2.683901 1.55874 -2.12132 2.12132 
C -1.55874 2.683901 -0.795609 3 0 3 
z
" style="stroke: #8b0000"/>
    </defs>
    <g clip-path="url(#pc86b6df8bc)">
     <use xlink:href="#mbbe8efa3fc" x="86.459389" y="39.854501" style="fill: #8b0000; stroke: #8b0000"/>
     <use xlink:href="#mbbe8efa3fc" x="103.224454" y="42.206894" style="fill: #8b0000; stroke: #8b0000"/>
     <use xlink:href="#mbbe8efa3fc" x="119.989517" y="43.232976" style="fill: #8b0000; stroke: #8b0000"/>
     <use xlink:href="#mbbe8efa3fc" x="136.754581" y="43.114442" style="fill: #8b0000; stroke: #8b0000"/>
     <use xlink:href="#mbbe8efa3fc" x="153.519647" y="45.466858" style="fill: #8b0000; stroke: #8b0000"/>
     <use xlink:href="#mbbe8efa3fc" x="170.284711" y="46.882875" style="fill: #8b0000; stroke: #8b0000"/>
     <use xlink:href="#mbbe8efa3fc" x="187.049774" y="46.666706" style="fill: #8b0000; stroke: #8b0000"/>
     <use xlink:href="#mbbe8efa3fc" x="203.814838" y="47.42467" style="fill: #8b0000; stroke: #8b0000"/>
     <use xlink:href="#mbbe8efa3fc" x="220.579904" y="48.226406" style="fill: #8b0000; stroke: #8b0000"/>
     <use xlink:href="#mbbe8efa3fc" x="237.344967" y="47.256059" style="fill: #8b0000; stroke: #8b0000"/>
     <use xlink:href="#mbbe8efa3fc" x="254.11003" y="53.017027" style="fill: #8b0000; stroke: #8b0000"/>
     <use xlink:href="#mbbe8efa3fc" x="270.875095" y="54.598855" style="fill: #8b0000; stroke: #8b0000"/>
     <use xlink:href="#mbbe8efa3fc" x="287.64016" y="59.596884" style="fill: #8b0000; stroke: #8b0000"/>
     <use xlink:href="#mbbe8efa3fc" x="304.405226" y="74.80165" style="fill: #8b0000; stroke: #8b0000"/>
     <use xlink:href="#mbbe8efa3fc" x="321.17029" y="96.270823" style="fill: #8b0000; stroke: #8b0000"/>
     <use xlink:href="#mbbe8efa3fc" x="328.914405" y="20737" style="fill: #8b0000; stroke: #8b0000"/>
     <use xlink:href="#mbbe8efa3fc" x="346.956487" y="20737" style="fill: #8b0000; stroke: #8b0000"/>
     <use xlink:href="#mbbe8efa3fc" x="354.700417" y="97.188312" style="fill: #8b0000; stroke: #8b0000"/>
     <use xlink:href="#mbbe8efa3fc" x="362.444347" y="20737" style="fill: #8b0000; stroke: #8b0000"/>
    </g>
   </g>
   <g id="line2d_75">
    <defs>
     <path id="m883c22b464" d="M 0 3 
C 0.795609 3 1.55874 2.683901 2.12132 2.12132 
C 2.683901 1.55874 3 0.795609 3 0 
C 3 -0.795609 2.683901 -1.55874 2.12132 -2.12132 
C 1.55874 -2.683901 0.795609 -3 0 -3 
C -0.795609 -3 -1.55874 -2.683901 -2.12132 -2.12132 
C -2.683901 -1.55874 -3 -0.795609 -3 0 
C -3 0.795609 -2.683901 1.55874 -2.12132 2.12132 
C -1.55874 2.683901 -0.795609 3 0 3 
z
" style="stroke: #006400"/>
    </defs>
    <g clip-path="url(#pc86b6df8bc)">
     <use xlink:href="#m883c22b464" x="80.907781" y="41.981037" style="fill: #006400; stroke: #006400"/>
     <use xlink:href="#m883c22b464" x="97.672846" y="45.67142" style="fill: #006400; stroke: #006400"/>
     <use xlink:href="#m883c22b464" x="114.437909" y="35.739979" style="fill: #006400; stroke: #006400"/>
     <use xlink:href="#m883c22b464" x="131.202973" y="39.54886" style="fill: #006400; stroke: #006400"/>
     <use xlink:href="#m883c22b464" x="147.968038" y="44.072646" style="fill: #006400; stroke: #006400"/>
     <use xlink:href="#m883c22b464" x="164.733103" y="48.704549" style="fill: #006400; stroke: #006400"/>
     <use xlink:href="#m883c22b464" x="181.498165" y="47.991534" style="fill: #006400; stroke: #006400"/>
     <use xlink:href="#m883c22b464" x="198.26323" y="49.741239" style="fill: #006400; stroke: #006400"/>
     <use xlink:href="#m883c22b464" x="215.028296" y="49.493171" style="fill: #006400; stroke: #006400"/>
     <use xlink:href="#m883c22b464" x="231.793359" y="49.796574" style="fill: #006400; stroke: #006400"/>
     <use xlink:href="#m883c22b464" x="248.558421" y="54.541034" style="fill: #006400; stroke: #006400"/>
     <use xlink:href="#m883c22b464" x="265.323487" y="56.75909" style="fill: #006400; stroke: #006400"/>
     <use xlink:href="#m883c22b464" x="282.088552" y="62.042553" style="fill: #006400; stroke: #006400"/>
     <use xlink:href="#m883c22b464" x="298.853618" y="73.434397" style="fill: #006400; stroke: #006400"/>
     <use xlink:href="#m883c22b464" x="315.618682" y="95.149084" style="fill: #006400; stroke: #006400"/>
     <use xlink:href="#m883c22b464" x="323.363023" y="20737" style="fill: #006400; stroke: #006400"/>
     <use xlink:href="#m883c22b464" x="341.404502" y="20737" style="fill: #006400; stroke: #006400"/>
     <use xlink:href="#m883c22b464" x="349.148809" y="95.321878" style="fill: #006400; stroke: #006400"/>
     <use xlink:href="#m883c22b464" x="356.893115" y="20737" style="fill: #006400; stroke: #006400"/>
    </g>
   </g>
   <g id="patch_3">
    <path d="M 64.703389 242.728 
L 64.703389 16.416 
" style="fill: none; stroke: #000000; stroke-width: 0.8; stroke-linejoin: miter; stroke-linecap: square"/>
   </g>
   <g id="patch_4">
    <path d="M 421.2 242.728 
L 421.2 16.416 
" style="fill: none; stroke: #000000; stroke-width: 0.8; stroke-linejoin: miter; stroke-linecap: square"/>
   </g>
   <g id="patch_5">
    <path d="M 64.703389 242.728 
L 421.2 242.728 
" style="fill: none; stroke: #000000; stroke-width: 0.8; stroke-linejoin: miter; stroke-linecap: square"/>
   </g>
   <g id="patch_6">
    <path d="M 64.703389 16.416 
L 421.2 16.416 
" style="fill: none; stroke: #000000; stroke-width: 0.8; stroke-linejoin: miter; stroke-linecap: square"/>
   </g>
   <g id="legend_1">
    <g id="patch_7">
     <path d="M 320.3 68.450375 
L 414.2 68.450375 
Q 416.2 68.450375 416.2 66.450375 
L 416.2 23.416 
Q 416.2 21.416 414.2 21.416 
L 320.3 21.416 
Q 318.3 21.416 318.3 23.416 
L 318.3 66.450375 
Q 318.3 68.450375 320.3 68.450375 
z
" style="fill: #ffffff; opacity: 0.8; stroke: #cccccc; stroke-linejoin: miter"/>
    </g>
    <g id="patch_8">
     <path d="M 322.3 33.014437 
L 342.3 33.014437 
L 342.3 26.014437 
L 322.3 26.014437 
z
" style="fill: #008000; fill-opacity: 0.5"/>
    </g>
    <g id="text_12">
     <!-- $1\sigma$ Nuisance -->
     <g transform="translate(350.3 33.014437) scale(0.1 -0.1)">
      <defs>
       <path id="DejaVuSans-Oblique-3c3" d="M 2219 3044 
Q 1744 3044 1422 2700 
Q 1081 2341 969 1747 
Q 844 1119 1044 756 
Q 1241 397 1706 397 
Q 2166 397 2503 759 
Q 2844 1122 2966 1747 
Q 3075 2319 2881 2700 
Q 2700 3044 2219 3044 
z
M 2309 3503 
L 4219 3500 
L 4106 2925 
L 3463 2925 
Q 3706 2438 3575 1747 
Q 3406 888 2884 400 
Q 2359 -91 1609 -91 
Q 856 -91 525 400 
Q 194 888 363 1747 
Q 528 2609 1050 3097 
Q 1484 3503 2309 3503 
z
" transform="scale(0.015625)"/>
       <path id="DejaVuSans-75" d="M 544 1381 
L 544 3500 
L 1119 3500 
L 1119 1403 
Q 1119 906 1312 657 
Q 1506 409 1894 409 
Q 2359 409 2629 706 
Q 2900 1003 2900 1516 
L 2900 3500 
L 3475 3500 
L 3475 0 
L 2900 0 
L 2900 538 
Q 2691 219 2414 64 
Q 2138 -91 1772 -91 
Q 1169 -91 856 284 
Q 544 659 544 1381 
z
M 1991 3584 
L 1991 3584 
z
" transform="scale(0.015625)"/>
       <path id="DejaVuSans-69" d="M 603 3500 
L 1178 3500 
L 1178 0 
L 603 0 
L 603 3500 
z
M 603 4863 
L 1178 4863 
L 1178 4134 
L 603 4134 
L 603 4863 
z
" transform="scale(0.015625)"/>
       <path id="DejaVuSans-61" d="M 2194 1759 
Q 1497 1759 1228 1600 
Q 959 1441 959 1056 
Q 959 750 1161 570 
Q 1363 391 1709 391 
Q 2188 391 2477 730 
Q 2766 1069 2766 1631 
L 2766 1759 
L 2194 1759 
z
M 3341 1997 
L 3341 0 
L 2766 0 
L 2766 531 
Q 2569 213 2275 61 
Q 1981 -91 1556 -91 
Q 1019 -91 701 211 
Q 384 513 384 1019 
Q 384 1609 779 1909 
Q 1175 2209 1959 2209 
L 2766 2209 
L 2766 2266 
Q 2766 2663 2505 2880 
Q 2244 3097 1772 3097 
Q 1472 3097 1187 3025 
Q 903 2953 641 2809 
L 641 3341 
Q 956 3463 1253 3523 
Q 1550 3584 1831 3584 
Q 2591 3584 2966 3190 
Q 3341 2797 3341 1997 
z
" transform="scale(0.015625)"/>
      </defs>
      <use xlink:href="#DejaVuSans-31" transform="translate(0 0.015625)"/>
      <use xlink:href="#DejaVuSans-Oblique-3c3" transform="translate(63.623047 0.015625)"/>
      <use xlink:href="#DejaVuSans-20" transform="translate(127.001953 0.015625)"/>
      <use xlink:href="#DejaVuSans-4e" transform="translate(158.789062 0.015625)"/>
      <use xlink:href="#DejaVuSans-75" transform="translate(233.59375 0.015625)"/>
      <use xlink:href="#DejaVuSans-69" transform="translate(296.972656 0.015625)"/>
      <use xlink:href="#DejaVuSans-73" transform="translate(324.755859 0.015625)"/>
      <use xlink:href="#DejaVuSans-61" transform="translate(376.855469 0.015625)"/>
      <use xlink:href="#DejaVuSans-6e" transform="translate(438.134766 0.015625)"/>
      <use xlink:href="#DejaVuSans-63" transform="translate(501.513672 0.015625)"/>
      <use xlink:href="#DejaVuSans-65" transform="translate(556.494141 0.015625)"/>
     </g>
    </g>
    <g id="patch_9">
     <path d="M 322.3 47.692562 
L 342.3 47.692562 
L 342.3 40.692562 
L 322.3 40.692562 
z
" style="fill: #ff0000; fill-opacity: 0.6"/>
    </g>
    <g id="text_13">
     <!-- $1\sigma$ Standard -->
     <g transform="translate(350.3 47.692562) scale(0.1 -0.1)">
      <defs>
       <path id="DejaVuSans-53" d="M 3425 4513 
L 3425 3897 
Q 3066 4069 2747 4153 
Q 2428 4238 2131 4238 
Q 1616 4238 1336 4038 
Q 1056 3838 1056 3469 
Q 1056 3159 1242 3001 
Q 1428 2844 1947 2747 
L 2328 2669 
Q 3034 2534 3370 2195 
Q 3706 1856 3706 1288 
Q 3706 609 3251 259 
Q 2797 -91 1919 -91 
Q 1588 -91 1214 -16 
Q 841 59 441 206 
L 441 856 
Q 825 641 1194 531 
Q 1563 422 1919 422 
Q 2459 422 2753 634 
Q 3047 847 3047 1241 
Q 3047 1584 2836 1778 
Q 2625 1972 2144 2069 
L 1759 2144 
Q 1053 2284 737 2584 
Q 422 2884 422 3419 
Q 422 4038 858 4394 
Q 1294 4750 2059 4750 
Q 2388 4750 2728 4690 
Q 3069 4631 3425 4513 
z
" transform="scale(0.015625)"/>
       <path id="DejaVuSans-74" d="M 1172 4494 
L 1172 3500 
L 2356 3500 
L 2356 3053 
L 1172 3053 
L 1172 1153 
Q 1172 725 1289 603 
Q 1406 481 1766 481 
L 2356 481 
L 2356 0 
L 1766 0 
Q 1100 0 847 248 
Q 594 497 594 1153 
L 594 3053 
L 172 3053 
L 172 3500 
L 594 3500 
L 594 4494 
L 1172 4494 
z
" transform="scale(0.015625)"/>
      </defs>
      <use xlink:href="#DejaVuSans-31" transform="translate(0 0.015625)"/>
      <use xlink:href="#DejaVuSans-Oblique-3c3" transform="translate(63.623047 0.015625)"/>
      <use xlink:href="#DejaVuSans-20" transform="translate(127.001953 0.015625)"/>
      <use xlink:href="#DejaVuSans-53" transform="translate(158.789062 0.015625)"/>
      <use xlink:href="#DejaVuSans-74" transform="translate(222.265625 0.015625)"/>
      <use xlink:href="#DejaVuSans-61" transform="translate(261.474609 0.015625)"/>
      <use xlink:href="#DejaVuSans-6e" transform="translate(322.753906 0.015625)"/>
      <use xlink:href="#DejaVuSans-64" transform="translate(386.132812 0.015625)"/>
      <use xlink:href="#DejaVuSans-61" transform="translate(449.609375 0.015625)"/>
      <use xlink:href="#DejaVuSans-72" transform="translate(510.888672 0.015625)"/>
      <use xlink:href="#DejaVuSans-64" transform="translate(552.001953 0.015625)"/>
     </g>
    </g>
    <g id="line2d_76">
     <path d="M 322.3 58.870687 
L 332.3 58.870687 
L 342.3 58.870687 
" style="fill: none; stroke-dasharray: 1.5,2.475; stroke-dashoffset: 0; stroke: #000000; stroke-width: 1.5"/>
    </g>
    <g id="text_14">
     <!-- Input -->
     <g transform="translate(350.3 62.370687) scale(0.1 -0.1)">
      <defs>
       <path id="DejaVuSans-49" d="M 628 4666 
L 1259 4666 
L 1259 0 
L 628 0 
L 628 4666 
z
" transform="scale(0.015625)"/>
       <path id="DejaVuSans-70" d="M 1159 525 
L 1159 -1331 
L 581 -1331 
L 581 3500 
L 1159 3500 
L 1159 2969 
Q 1341 3281 1617 3432 
Q 1894 3584 2278 3584 
Q 2916 3584 3314 3078 
Q 3713 2572 3713 1747 
Q 3713 922 3314 415 
Q 2916 -91 2278 -91 
Q 1894 -91 1617 61 
Q 1341 213 1159 525 
z
M 3116 1747 
Q 3116 2381 2855 2742 
Q 2594 3103 2138 3103 
Q 1681 3103 1420 2742 
Q 1159 2381 1159 1747 
Q 1159 1113 1420 752 
Q 1681 391 2138 391 
Q 2594 391 2855 752 
Q 3116 1113 3116 1747 
z
" transform="scale(0.015625)"/>
      </defs>
      <use xlink:href="#DejaVuSans-49"/>
      <use xlink:href="#DejaVuSans-6e" x="29.492188"/>
      <use xlink:href="#DejaVuSans-70" x="92.871094"/>
      <use xlink:href="#DejaVuSans-75" x="156.347656"/>
      <use xlink:href="#DejaVuSans-74" x="219.726562"/>
     </g>
    </g>
   </g>
  </g>
 </g>
 <defs>
  <clipPath id="pc86b6df8bc">
   <rect x="64.703389" y="16.416" width="356.496611" height="226.312"/>
  </clipPath>
 </defs>
</svg>
