<?xml version="1.0" encoding="utf-8" standalone="no"?>
<!DOCTYPE svg PUBLIC "-//W3C//DTD SVG 1.1//EN"
  "http://www.w3.org/Graphics/SVG/1.1/DTD/svg11.dtd">
<svg xmlns:xlink="http://www.w3.org/1999/xlink" width="432pt" height="288pt" viewBox="0 0 432 288" xmlns="http://www.w3.org/2000/svg" version="1.1">
 <metadata>
  <rdf:RDF xmlns:dc="http://purl.org/dc/elements/1.1/" xmlns:cc="http://creativecommons.org/ns#" xmlns:rdf="http://www.w3.org/1999/02/22-rdf-syntax-ns#">
   <cc:Work>
    <dc:type rdf:resource="http://purl.org/dc/dcmitype/StillImage"/>
    <dc:date>2023-03-15T14:35:05.268073</dc:date>
    <dc:format>image/svg+xml</dc:format>
    <dc:creator>
     <cc:Agent>
      <dc:title>Matplotlib v3.6.2, https://matplotlib.org/</dc:title>
     </cc:Agent>
    </dc:creator>
   </cc:Work>
  </rdf:RDF>
 </metadata>
 <defs>
  <style type="text/css">*{stroke-linejoin: round; stroke-linecap: butt}</style>
 </defs>
 <g id="figure_1">
  <g id="patch_1">
   <path d="M 0 288 
L 432 288 
L 432 0 
L 0 0 
z
" style="fill: #ffffff"/>
  </g>
  <g id="axes_1">
   <g id="patch_2">
    <path d="M 60.468889 242.728 
L 421.2 242.728 
L 421.2 10.8 
L 60.468889 10.8 
z
" style="fill: #ffffff"/>
   </g>
   <g id="PolyCollection_1">
    <path d="M 78.477357 25.679033 
L 78.477357 32.31281 
L 81.700555 32.36857 
L 84.923754 32.426682 
L 88.146952 32.487244 
L 91.37015 32.550362 
L 94.593348 32.616145 
L 97.816546 32.68471 
L 101.039745 32.75618 
L 104.262943 32.830684 
L 107.486141 32.908358 
L 110.709339 32.989346 
L 113.932538 33.073801 
L 117.155736 33.161881 
L 120.378934 33.253756 
L 123.602132 33.349606 
L 126.825331 33.449618 
L 130.048529 33.553992 
L 133.271727 33.662939 
L 136.494925 33.776681 
L 139.718123 33.895454 
L 142.941322 34.019507 
L 146.16452 34.149103 
L 149.387718 34.284521 
L 152.610916 34.426055 
L 155.834115 34.574019 
L 159.057313 34.728741 
L 162.280511 34.890572 
L 165.503709 35.059883 
L 168.726907 35.237067 
L 171.950106 35.422538 
L 175.173304 35.616739 
L 178.396502 35.820137 
L 181.6197 36.033227 
L 184.842899 36.256537 
L 188.066097 36.490623 
L 191.289295 36.73608 
L 194.512493 36.993535 
L 197.735691 37.263658 
L 200.95889 37.547159 
L 204.182088 37.844791 
L 207.405286 38.157359 
L 210.628484 38.485716 
L 213.851683 38.830769 
L 217.074881 39.193487 
L 220.298079 39.574899 
L 223.521277 39.976103 
L 226.744476 40.398268 
L 229.967674 40.842642 
L 233.190872 41.310556 
L 236.41407 41.803429 
L 239.637268 42.322779 
L 242.860467 42.870226 
L 246.083665 43.447501 
L 249.306863 44.056455 
L 252.530061 44.699067 
L 255.75326 45.377454 
L 258.976458 46.093881 
L 262.199656 46.850771 
L 265.422854 47.650715 
L 268.646052 48.496488 
L 271.869251 49.391056 
L 275.092449 50.33759 
L 278.315647 51.339481 
L 281.538845 52.400346 
L 284.762044 53.524052 
L 287.985242 54.714718 
L 291.20844 55.976736 
L 294.431638 57.314779 
L 297.654836 58.733823 
L 300.878035 60.239155 
L 304.101233 61.836393 
L 307.324431 63.531507 
L 310.547629 65.330842 
L 313.770828 67.24114 
L 316.994026 69.269581 
L 320.217224 71.423813 
L 323.440422 73.712009 
L 326.663621 76.14292 
L 329.886819 78.725944 
L 333.110017 81.47122 
L 336.333215 84.389728 
L 339.556413 87.493418 
L 342.779612 90.795379 
L 346.00281 94.310036 
L 349.226008 98.053418 
L 352.449206 102.043496 
L 355.672405 106.300639 
L 358.895603 110.848237 
L 362.118801 115.713566 
L 365.341999 120.929048 
L 368.565197 126.534119 
L 371.788396 132.578138 
L 375.011594 139.125116 
L 378.234792 146.261864 
L 381.45799 154.113043 
L 384.681189 162.871692 
L 387.904387 172.869405 
L 391.127585 184.770724 
L 394.350783 200.309817 
L 397.573981 228.174985 
L 397.573981 150.873127 
L 397.573981 150.873127 
L 394.350783 144.328933 
L 391.127585 138.142863 
L 387.904387 132.294875 
L 384.681189 126.766003 
L 381.45799 121.538304 
L 378.234792 116.594801 
L 375.011594 111.919434 
L 371.788396 107.497016 
L 368.565197 103.313184 
L 365.341999 99.354361 
L 362.118801 95.607714 
L 358.895603 92.061117 
L 355.672405 88.703116 
L 352.449206 85.522899 
L 349.226008 82.51026 
L 346.00281 79.655577 
L 342.779612 76.949779 
L 339.556413 74.384326 
L 336.333215 71.951181 
L 333.110017 69.642793 
L 329.886819 67.452071 
L 326.663621 65.372367 
L 323.440422 63.397454 
L 320.217224 61.521506 
L 316.994026 59.739079 
L 313.770828 58.045088 
L 310.547629 56.43479 
L 307.324431 54.903758 
L 304.101233 53.44786 
L 300.878035 52.063239 
L 297.654836 50.746287 
L 294.431638 49.493627 
L 291.20844 48.302091 
L 287.985242 47.168701 
L 284.762044 46.090646 
L 281.538845 45.065276 
L 278.315647 44.090077 
L 275.092449 43.162664 
L 271.869251 42.280769 
L 268.646052 41.442231 
L 265.422854 40.644989 
L 262.199656 39.887072 
L 258.976458 39.166598 
L 255.75326 38.481767 
L 252.530061 37.830855 
L 249.306863 37.212215 
L 246.083665 36.624268 
L 242.860467 36.065505 
L 239.637268 35.534484 
L 236.41407 35.029823 
L 233.190872 34.550204 
L 229.967674 34.094367 
L 226.744476 33.661107 
L 223.521277 33.249276 
L 220.298079 32.857779 
L 217.074881 32.485569 
L 213.851683 32.13165 
L 210.628484 31.795073 
L 207.405286 31.474933 
L 204.182088 31.170369 
L 200.95889 30.880562 
L 197.735691 30.60473 
L 194.512493 30.342134 
L 191.289295 30.092066 
L 188.066097 29.853856 
L 184.842899 29.626867 
L 181.6197 29.410493 
L 178.396502 29.204159 
L 175.173304 29.007318 
L 171.950106 28.81945 
L 168.726907 28.640065 
L 165.503709 28.468693 
L 162.280511 28.304891 
L 159.057313 28.148238 
L 155.834115 27.998335 
L 152.610916 27.854802 
L 149.387718 27.717281 
L 146.16452 27.585431 
L 142.941322 27.458928 
L 139.718123 27.337466 
L 136.494925 27.220756 
L 133.271727 27.108522 
L 130.048529 27.000504 
L 126.825331 26.896455 
L 123.602132 26.796141 
L 120.378934 26.699341 
L 117.155736 26.605845 
L 113.932538 26.515455 
L 110.709339 26.427983 
L 107.486141 26.343251 
L 104.262943 26.261091 
L 101.039745 26.181345 
L 97.816546 26.103861 
L 94.593348 26.028498 
L 91.37015 25.95512 
L 88.146952 25.883602 
L 84.923754 25.813823 
L 81.700555 25.745669 
L 78.477357 25.679033 
z
" clip-path="url(#pac6d2dd220)" style="fill: #008000; fill-opacity: 0.5"/>
   </g>
   <g id="PolyCollection_2">
    <path d="M 78.477357 28.002555 
L 78.477357 29.404765 
L 81.700555 29.439091 
L 84.923754 29.476164 
L 88.146952 29.516161 
L 91.37015 29.559273 
L 94.593348 29.605705 
L 97.816546 29.655674 
L 101.039745 29.70941 
L 104.262943 29.767157 
L 107.486141 29.82917 
L 110.709339 29.895711 
L 113.932538 29.967049 
L 117.155736 30.043454 
L 120.378934 30.125194 
L 123.602132 30.212526 
L 126.825331 30.305698 
L 130.048529 30.404938 
L 133.271727 30.510455 
L 136.494925 30.622437 
L 139.718123 30.741057 
L 142.941322 30.86647 
L 146.16452 30.998828 
L 149.387718 31.138277 
L 152.610916 31.284971 
L 155.834115 31.43908 
L 159.057313 31.60079 
L 162.280511 31.770313 
L 165.503709 31.94789 
L 168.726907 32.133798 
L 171.950106 32.328345 
L 175.173304 32.53188 
L 178.396502 32.744792 
L 181.6197 32.967511 
L 184.842899 33.200513 
L 188.066097 33.444317 
L 191.289295 33.699494 
L 194.512493 33.966662 
L 197.735691 34.246496 
L 200.95889 34.539727 
L 204.182088 34.847147 
L 207.405286 35.169612 
L 210.628484 35.508049 
L 213.851683 35.863456 
L 217.074881 36.236914 
L 220.298079 36.629583 
L 223.521277 37.042716 
L 226.744476 37.477658 
L 229.967674 37.935854 
L 233.190872 38.418851 
L 236.41407 38.928304 
L 239.637268 39.465975 
L 242.860467 40.03374 
L 246.083665 40.633588 
L 249.306863 41.267621 
L 252.530061 41.938055 
L 255.75326 42.647223 
L 258.976458 43.397576 
L 262.199656 44.191682 
L 265.422854 45.032236 
L 268.646052 45.922063 
L 271.869251 46.864127 
L 275.092449 47.861542 
L 278.315647 48.917586 
L 281.538845 50.03571 
L 284.762044 51.21956 
L 287.985242 52.472992 
L 291.20844 53.800089 
L 294.431638 55.205186 
L 297.654836 56.692889 
L 300.878035 58.268101 
L 304.101233 59.936046 
L 307.324431 61.702301 
L 310.547629 63.572827 
L 313.770828 65.554003 
L 316.994026 67.65267 
L 320.217224 69.876176 
L 323.440422 72.232428 
L 326.663621 74.729958 
L 329.886819 77.377994 
L 333.110017 80.18655 
L 336.333215 83.166531 
L 339.556413 86.329864 
L 342.779612 89.689663 
L 346.00281 93.260431 
L 349.226008 97.058328 
L 352.449206 101.101514 
L 355.672405 105.410618 
L 358.895603 110.009374 
L 362.118801 114.925516 
L 365.341999 120.192078 
L 368.565197 125.849345 
L 371.788396 131.947891 
L 375.011594 138.553556 
L 378.234792 145.756067 
L 381.45799 153.685105 
L 384.681189 162.543224 
L 387.904387 172.682706 
L 391.127585 184.823462 
L 394.350783 200.915912 
L 397.573981 232.185818 
L 397.573981 150.840366 
L 397.573981 150.840366 
L 394.350783 144.315589 
L 391.127585 138.150259 
L 387.904387 132.324411 
L 384.681189 126.819159 
L 381.45799 121.616642 
L 378.234792 116.699969 
L 375.011594 112.053171 
L 371.788396 107.661149 
L 368.565197 103.509632 
L 365.341999 99.585132 
L 362.118801 95.874905 
L 358.895603 92.366907 
L 355.672405 89.049764 
L 352.449206 85.91273 
L 349.226008 82.945658 
L 346.00281 80.138964 
L 342.779612 77.483601 
L 339.556413 74.971026 
L 336.333215 72.593176 
L 333.110017 70.34244 
L 329.886819 68.211632 
L 326.663621 66.193973 
L 323.440422 64.283064 
L 320.217224 62.472866 
L 316.994026 60.757682 
L 313.770828 59.132135 
L 310.547629 57.591152 
L 307.324431 56.129947 
L 304.101233 54.744005 
L 300.878035 53.429069 
L 297.654836 52.181122 
L 294.431638 50.996382 
L 291.20844 49.871281 
L 287.985242 48.802463 
L 284.762044 47.786769 
L 281.538845 46.821231 
L 278.315647 45.903063 
L 275.092449 45.029656 
L 271.869251 44.198565 
L 268.646052 43.407512 
L 265.422854 42.654372 
L 262.199656 41.937168 
L 258.976458 41.254065 
L 255.75326 40.60336 
L 252.530061 39.983472 
L 249.306863 39.392934 
L 246.083665 38.830382 
L 242.860467 38.29454 
L 239.637268 37.784213 
L 236.41407 37.298276 
L 233.190872 36.835662 
L 229.967674 36.395355 
L 226.744476 35.976383 
L 223.521277 35.577813 
L 220.298079 35.198742 
L 217.074881 34.838299 
L 213.851683 34.495641 
L 210.628484 34.169949 
L 207.405286 33.860429 
L 204.182088 33.566308 
L 200.95889 33.286838 
L 197.735691 33.021292 
L 194.512493 32.768964 
L 191.289295 32.529168 
L 188.066097 32.301238 
L 184.842899 32.084525 
L 181.6197 31.878401 
L 178.396502 31.68225 
L 175.173304 31.495474 
L 171.950106 31.317489 
L 168.726907 31.147721 
L 165.503709 30.985611 
L 162.280511 30.830606 
L 159.057313 30.682169 
L 155.834115 30.539769 
L 152.610916 30.40289 
L 149.387718 30.271029 
L 146.16452 30.1437 
L 142.941322 30.020439 
L 139.718123 29.900809 
L 136.494925 29.784406 
L 133.271727 29.670861 
L 130.048529 29.55985 
L 126.825331 29.451093 
L 123.602132 29.344352 
L 120.378934 29.239436 
L 117.155736 29.136192 
L 113.932538 29.034502 
L 110.709339 28.934276 
L 107.486141 28.835444 
L 104.262943 28.737957 
L 101.039745 28.641774 
L 97.816546 28.546861 
L 94.593348 28.453192 
L 91.37015 28.360738 
L 88.146952 28.269475 
L 84.923754 28.179375 
L 81.700555 28.090411 
L 78.477357 28.002555 
z
" clip-path="url(#pac6d2dd220)" style="fill: #ff0000; fill-opacity: 0.6"/>
   </g>
   <g id="matplotlib.axis_1">
    <g id="xtick_1">
     <g id="line2d_1">
      <defs>
       <path id="m72e80ab6b6" d="M 0 0 
L 0 3.5 
" style="stroke: #000000; stroke-width: 0.8"/>
      </defs>
      <g>
       <use xlink:href="#m72e80ab6b6" x="136.240462" y="242.728" style="stroke: #000000; stroke-width: 0.8"/>
      </g>
     </g>
     <g id="text_1">
      <!-- $\mathdefault{10^{0}}$ -->
      <g transform="translate(127.440462 257.326437) scale(0.1 -0.1)">
       <defs>
        <path id="DejaVuSans-31" d="M 794 531 
L 1825 531 
L 1825 4091 
L 703 3866 
L 703 4441 
L 1819 4666 
L 2450 4666 
L 2450 531 
L 3481 531 
L 3481 0 
L 794 0 
L 794 531 
z
" transform="scale(0.015625)"/>
        <path id="DejaVuSans-30" d="M 2034 4250 
Q 1547 4250 1301 3770 
Q 1056 3291 1056 2328 
Q 1056 1369 1301 889 
Q 1547 409 2034 409 
Q 2525 409 2770 889 
Q 3016 1369 3016 2328 
Q 3016 3291 2770 3770 
Q 2525 4250 2034 4250 
z
M 2034 4750 
Q 2819 4750 3233 4129 
Q 3647 3509 3647 2328 
Q 3647 1150 3233 529 
Q 2819 -91 2034 -91 
Q 1250 -91 836 529 
Q 422 1150 422 2328 
Q 422 3509 836 4129 
Q 1250 4750 2034 4750 
z
" transform="scale(0.015625)"/>
       </defs>
       <use xlink:href="#DejaVuSans-31" transform="translate(0 0.765625)"/>
       <use xlink:href="#DejaVuSans-30" transform="translate(63.623047 0.765625)"/>
       <use xlink:href="#DejaVuSans-30" transform="translate(128.203125 39.046875) scale(0.7)"/>
      </g>
     </g>
    </g>
    <g id="xtick_2">
     <g id="line2d_2">
      <g>
       <use xlink:href="#m72e80ab6b6" x="271.954072" y="242.728" style="stroke: #000000; stroke-width: 0.8"/>
      </g>
     </g>
     <g id="text_2">
      <!-- $\mathdefault{10^{1}}$ -->
      <g transform="translate(263.154072 257.326437) scale(0.1 -0.1)">
       <use xlink:href="#DejaVuSans-31" transform="translate(0 0.684375)"/>
       <use xlink:href="#DejaVuSans-30" transform="translate(63.623047 0.684375)"/>
       <use xlink:href="#DejaVuSans-31" transform="translate(128.203125 38.965625) scale(0.7)"/>
      </g>
     </g>
    </g>
    <g id="xtick_3">
     <g id="line2d_3">
      <g>
       <use xlink:href="#m72e80ab6b6" x="407.667682" y="242.728" style="stroke: #000000; stroke-width: 0.8"/>
      </g>
     </g>
     <g id="text_3">
      <!-- $\mathdefault{10^{2}}$ -->
      <g transform="translate(398.867682 257.326437) scale(0.1 -0.1)">
       <defs>
        <path id="DejaVuSans-32" d="M 1228 531 
L 3431 531 
L 3431 0 
L 469 0 
L 469 531 
Q 828 903 1448 1529 
Q 2069 2156 2228 2338 
Q 2531 2678 2651 2914 
Q 2772 3150 2772 3378 
Q 2772 3750 2511 3984 
Q 2250 4219 1831 4219 
Q 1534 4219 1204 4116 
Q 875 4013 500 3803 
L 500 4441 
Q 881 4594 1212 4672 
Q 1544 4750 1819 4750 
Q 2544 4750 2975 4387 
Q 3406 4025 3406 3419 
Q 3406 3131 3298 2873 
Q 3191 2616 2906 2266 
Q 2828 2175 2409 1742 
Q 1991 1309 1228 531 
z
" transform="scale(0.015625)"/>
       </defs>
       <use xlink:href="#DejaVuSans-31" transform="translate(0 0.765625)"/>
       <use xlink:href="#DejaVuSans-30" transform="translate(63.623047 0.765625)"/>
       <use xlink:href="#DejaVuSans-32" transform="translate(128.203125 39.046875) scale(0.7)"/>
      </g>
     </g>
    </g>
    <g id="xtick_4">
     <g id="line2d_4">
      <defs>
       <path id="mead35bc13e" d="M 0 0 
L 0 2 
" style="stroke: #000000; stroke-width: 0.6"/>
      </defs>
      <g>
       <use xlink:href="#mead35bc13e" x="65.2787" y="242.728" style="stroke: #000000; stroke-width: 0.6"/>
      </g>
     </g>
    </g>
    <g id="xtick_5">
     <g id="line2d_5">
      <g>
       <use xlink:href="#mead35bc13e" x="82.234587" y="242.728" style="stroke: #000000; stroke-width: 0.6"/>
      </g>
     </g>
    </g>
    <g id="xtick_6">
     <g id="line2d_6">
      <g>
       <use xlink:href="#mead35bc13e" x="95.386594" y="242.728" style="stroke: #000000; stroke-width: 0.6"/>
      </g>
     </g>
    </g>
    <g id="xtick_7">
     <g id="line2d_7">
      <g>
       <use xlink:href="#mead35bc13e" x="106.132567" y="242.728" style="stroke: #000000; stroke-width: 0.6"/>
      </g>
     </g>
    </g>
    <g id="xtick_8">
     <g id="line2d_8">
      <g>
       <use xlink:href="#mead35bc13e" x="115.218158" y="242.728" style="stroke: #000000; stroke-width: 0.6"/>
      </g>
     </g>
    </g>
    <g id="xtick_9">
     <g id="line2d_9">
      <g>
       <use xlink:href="#mead35bc13e" x="123.088454" y="242.728" style="stroke: #000000; stroke-width: 0.6"/>
      </g>
     </g>
    </g>
    <g id="xtick_10">
     <g id="line2d_10">
      <g>
       <use xlink:href="#mead35bc13e" x="130.030548" y="242.728" style="stroke: #000000; stroke-width: 0.6"/>
      </g>
     </g>
    </g>
    <g id="xtick_11">
     <g id="line2d_11">
      <g>
       <use xlink:href="#mead35bc13e" x="177.094329" y="242.728" style="stroke: #000000; stroke-width: 0.6"/>
      </g>
     </g>
    </g>
    <g id="xtick_12">
     <g id="line2d_12">
      <g>
       <use xlink:href="#mead35bc13e" x="200.99231" y="242.728" style="stroke: #000000; stroke-width: 0.6"/>
      </g>
     </g>
    </g>
    <g id="xtick_13">
     <g id="line2d_13">
      <g>
       <use xlink:href="#mead35bc13e" x="217.948197" y="242.728" style="stroke: #000000; stroke-width: 0.6"/>
      </g>
     </g>
    </g>
    <g id="xtick_14">
     <g id="line2d_14">
      <g>
       <use xlink:href="#mead35bc13e" x="231.100205" y="242.728" style="stroke: #000000; stroke-width: 0.6"/>
      </g>
     </g>
    </g>
    <g id="xtick_15">
     <g id="line2d_15">
      <g>
       <use xlink:href="#mead35bc13e" x="241.846177" y="242.728" style="stroke: #000000; stroke-width: 0.6"/>
      </g>
     </g>
    </g>
    <g id="xtick_16">
     <g id="line2d_16">
      <g>
       <use xlink:href="#mead35bc13e" x="250.931768" y="242.728" style="stroke: #000000; stroke-width: 0.6"/>
      </g>
     </g>
    </g>
    <g id="xtick_17">
     <g id="line2d_17">
      <g>
       <use xlink:href="#mead35bc13e" x="258.802064" y="242.728" style="stroke: #000000; stroke-width: 0.6"/>
      </g>
     </g>
    </g>
    <g id="xtick_18">
     <g id="line2d_18">
      <g>
       <use xlink:href="#mead35bc13e" x="265.744158" y="242.728" style="stroke: #000000; stroke-width: 0.6"/>
      </g>
     </g>
    </g>
    <g id="xtick_19">
     <g id="line2d_19">
      <g>
       <use xlink:href="#mead35bc13e" x="312.80794" y="242.728" style="stroke: #000000; stroke-width: 0.6"/>
      </g>
     </g>
    </g>
    <g id="xtick_20">
     <g id="line2d_20">
      <g>
       <use xlink:href="#mead35bc13e" x="336.70592" y="242.728" style="stroke: #000000; stroke-width: 0.6"/>
      </g>
     </g>
    </g>
    <g id="xtick_21">
     <g id="line2d_21">
      <g>
       <use xlink:href="#mead35bc13e" x="353.661807" y="242.728" style="stroke: #000000; stroke-width: 0.6"/>
      </g>
     </g>
    </g>
    <g id="xtick_22">
     <g id="line2d_22">
      <g>
       <use xlink:href="#mead35bc13e" x="366.813815" y="242.728" style="stroke: #000000; stroke-width: 0.6"/>
      </g>
     </g>
    </g>
    <g id="xtick_23">
     <g id="line2d_23">
      <g>
       <use xlink:href="#mead35bc13e" x="377.559788" y="242.728" style="stroke: #000000; stroke-width: 0.6"/>
      </g>
     </g>
    </g>
    <g id="xtick_24">
     <g id="line2d_24">
      <g>
       <use xlink:href="#mead35bc13e" x="386.645378" y="242.728" style="stroke: #000000; stroke-width: 0.6"/>
      </g>
     </g>
    </g>
    <g id="xtick_25">
     <g id="line2d_25">
      <g>
       <use xlink:href="#mead35bc13e" x="394.515675" y="242.728" style="stroke: #000000; stroke-width: 0.6"/>
      </g>
     </g>
    </g>
    <g id="xtick_26">
     <g id="line2d_26">
      <g>
       <use xlink:href="#mead35bc13e" x="401.457768" y="242.728" style="stroke: #000000; stroke-width: 0.6"/>
      </g>
     </g>
    </g>
    <g id="text_4">
     <!-- Energy [TeV] -->
     <g transform="translate(209.136788 271.004562) scale(0.1 -0.1)">
      <defs>
       <path id="DejaVuSans-45" d="M 628 4666 
L 3578 4666 
L 3578 4134 
L 1259 4134 
L 1259 2753 
L 3481 2753 
L 3481 2222 
L 1259 2222 
L 1259 531 
L 3634 531 
L 3634 0 
L 628 0 
L 628 4666 
z
" transform="scale(0.015625)"/>
       <path id="DejaVuSans-6e" d="M 3513 2113 
L 3513 0 
L 2938 0 
L 2938 2094 
Q 2938 2591 2744 2837 
Q 2550 3084 2163 3084 
Q 1697 3084 1428 2787 
Q 1159 2491 1159 1978 
L 1159 0 
L 581 0 
L 581 3500 
L 1159 3500 
L 1159 2956 
Q 1366 3272 1645 3428 
Q 1925 3584 2291 3584 
Q 2894 3584 3203 3211 
Q 3513 2838 3513 2113 
z
" transform="scale(0.015625)"/>
       <path id="DejaVuSans-65" d="M 3597 1894 
L 3597 1613 
L 953 1613 
Q 991 1019 1311 708 
Q 1631 397 2203 397 
Q 2534 397 2845 478 
Q 3156 559 3463 722 
L 3463 178 
Q 3153 47 2828 -22 
Q 2503 -91 2169 -91 
Q 1331 -91 842 396 
Q 353 884 353 1716 
Q 353 2575 817 3079 
Q 1281 3584 2069 3584 
Q 2775 3584 3186 3129 
Q 3597 2675 3597 1894 
z
M 3022 2063 
Q 3016 2534 2758 2815 
Q 2500 3097 2075 3097 
Q 1594 3097 1305 2825 
Q 1016 2553 972 2059 
L 3022 2063 
z
" transform="scale(0.015625)"/>
       <path id="DejaVuSans-72" d="M 2631 2963 
Q 2534 3019 2420 3045 
Q 2306 3072 2169 3072 
Q 1681 3072 1420 2755 
Q 1159 2438 1159 1844 
L 1159 0 
L 581 0 
L 581 3500 
L 1159 3500 
L 1159 2956 
Q 1341 3275 1631 3429 
Q 1922 3584 2338 3584 
Q 2397 3584 2469 3576 
Q 2541 3569 2628 3553 
L 2631 2963 
z
" transform="scale(0.015625)"/>
       <path id="DejaVuSans-67" d="M 2906 1791 
Q 2906 2416 2648 2759 
Q 2391 3103 1925 3103 
Q 1463 3103 1205 2759 
Q 947 2416 947 1791 
Q 947 1169 1205 825 
Q 1463 481 1925 481 
Q 2391 481 2648 825 
Q 2906 1169 2906 1791 
z
M 3481 434 
Q 3481 -459 3084 -895 
Q 2688 -1331 1869 -1331 
Q 1566 -1331 1297 -1286 
Q 1028 -1241 775 -1147 
L 775 -588 
Q 1028 -725 1275 -790 
Q 1522 -856 1778 -856 
Q 2344 -856 2625 -561 
Q 2906 -266 2906 331 
L 2906 616 
Q 2728 306 2450 153 
Q 2172 0 1784 0 
Q 1141 0 747 490 
Q 353 981 353 1791 
Q 353 2603 747 3093 
Q 1141 3584 1784 3584 
Q 2172 3584 2450 3431 
Q 2728 3278 2906 2969 
L 2906 3500 
L 3481 3500 
L 3481 434 
z
" transform="scale(0.015625)"/>
       <path id="DejaVuSans-79" d="M 2059 -325 
Q 1816 -950 1584 -1140 
Q 1353 -1331 966 -1331 
L 506 -1331 
L 506 -850 
L 844 -850 
Q 1081 -850 1212 -737 
Q 1344 -625 1503 -206 
L 1606 56 
L 191 3500 
L 800 3500 
L 1894 763 
L 2988 3500 
L 3597 3500 
L 2059 -325 
z
" transform="scale(0.015625)"/>
       <path id="DejaVuSans-20" transform="scale(0.015625)"/>
       <path id="DejaVuSans-5b" d="M 550 4863 
L 1875 4863 
L 1875 4416 
L 1125 4416 
L 1125 -397 
L 1875 -397 
L 1875 -844 
L 550 -844 
L 550 4863 
z
" transform="scale(0.015625)"/>
       <path id="DejaVuSans-54" d="M -19 4666 
L 3928 4666 
L 3928 4134 
L 2272 4134 
L 2272 0 
L 1638 0 
L 1638 4134 
L -19 4134 
L -19 4666 
z
" transform="scale(0.015625)"/>
       <path id="DejaVuSans-56" d="M 1831 0 
L 50 4666 
L 709 4666 
L 2188 738 
L 3669 4666 
L 4325 4666 
L 2547 0 
L 1831 0 
z
" transform="scale(0.015625)"/>
       <path id="DejaVuSans-5d" d="M 1947 4863 
L 1947 -844 
L 622 -844 
L 622 -397 
L 1369 -397 
L 1369 4416 
L 622 4416 
L 622 4863 
L 1947 4863 
z
" transform="scale(0.015625)"/>
      </defs>
      <use xlink:href="#DejaVuSans-45"/>
      <use xlink:href="#DejaVuSans-6e" x="63.183594"/>
      <use xlink:href="#DejaVuSans-65" x="126.5625"/>
      <use xlink:href="#DejaVuSans-72" x="188.085938"/>
      <use xlink:href="#DejaVuSans-67" x="227.449219"/>
      <use xlink:href="#DejaVuSans-79" x="290.925781"/>
      <use xlink:href="#DejaVuSans-20" x="350.105469"/>
      <use xlink:href="#DejaVuSans-5b" x="381.892578"/>
      <use xlink:href="#DejaVuSans-54" x="420.90625"/>
      <use xlink:href="#DejaVuSans-65" x="464.990234"/>
      <use xlink:href="#DejaVuSans-56" x="526.513672"/>
      <use xlink:href="#DejaVuSans-5d" x="594.921875"/>
     </g>
    </g>
   </g>
   <g id="matplotlib.axis_2">
    <g id="ytick_1">
     <g id="line2d_27">
      <defs>
       <path id="m16663f57ae" d="M 0 0 
L -3.5 0 
" style="stroke: #000000; stroke-width: 0.8"/>
      </defs>
      <g>
       <use xlink:href="#m16663f57ae" x="60.468889" y="208.811922" style="stroke: #000000; stroke-width: 0.8"/>
      </g>
     </g>
     <g id="text_5">
      <!-- $\mathdefault{10^{-16}}$ -->
      <g transform="translate(25.568889 212.611141) scale(0.1 -0.1)">
       <defs>
        <path id="DejaVuSans-2212" d="M 678 2272 
L 4684 2272 
L 4684 1741 
L 678 1741 
L 678 2272 
z
" transform="scale(0.015625)"/>
        <path id="DejaVuSans-36" d="M 2113 2584 
Q 1688 2584 1439 2293 
Q 1191 2003 1191 1497 
Q 1191 994 1439 701 
Q 1688 409 2113 409 
Q 2538 409 2786 701 
Q 3034 994 3034 1497 
Q 3034 2003 2786 2293 
Q 2538 2584 2113 2584 
z
M 3366 4563 
L 3366 3988 
Q 3128 4100 2886 4159 
Q 2644 4219 2406 4219 
Q 1781 4219 1451 3797 
Q 1122 3375 1075 2522 
Q 1259 2794 1537 2939 
Q 1816 3084 2150 3084 
Q 2853 3084 3261 2657 
Q 3669 2231 3669 1497 
Q 3669 778 3244 343 
Q 2819 -91 2113 -91 
Q 1303 -91 875 529 
Q 447 1150 447 2328 
Q 447 3434 972 4092 
Q 1497 4750 2381 4750 
Q 2619 4750 2861 4703 
Q 3103 4656 3366 4563 
z
" transform="scale(0.015625)"/>
       </defs>
       <use xlink:href="#DejaVuSans-31" transform="translate(0 0.765625)"/>
       <use xlink:href="#DejaVuSans-30" transform="translate(63.623047 0.765625)"/>
       <use xlink:href="#DejaVuSans-2212" transform="translate(128.203125 39.046875) scale(0.7)"/>
       <use xlink:href="#DejaVuSans-31" transform="translate(186.855469 39.046875) scale(0.7)"/>
       <use xlink:href="#DejaVuSans-36" transform="translate(231.391602 39.046875) scale(0.7)"/>
      </g>
     </g>
    </g>
    <g id="ytick_2">
     <g id="line2d_28">
      <g>
       <use xlink:href="#m16663f57ae" x="60.468889" y="168.198629" style="stroke: #000000; stroke-width: 0.8"/>
      </g>
     </g>
     <g id="text_6">
      <!-- $\mathdefault{10^{-15}}$ -->
      <g transform="translate(25.568889 171.997848) scale(0.1 -0.1)">
       <defs>
        <path id="DejaVuSans-35" d="M 691 4666 
L 3169 4666 
L 3169 4134 
L 1269 4134 
L 1269 2991 
Q 1406 3038 1543 3061 
Q 1681 3084 1819 3084 
Q 2600 3084 3056 2656 
Q 3513 2228 3513 1497 
Q 3513 744 3044 326 
Q 2575 -91 1722 -91 
Q 1428 -91 1123 -41 
Q 819 9 494 109 
L 494 744 
Q 775 591 1075 516 
Q 1375 441 1709 441 
Q 2250 441 2565 725 
Q 2881 1009 2881 1497 
Q 2881 1984 2565 2268 
Q 2250 2553 1709 2553 
Q 1456 2553 1204 2497 
Q 953 2441 691 2322 
L 691 4666 
z
" transform="scale(0.015625)"/>
       </defs>
       <use xlink:href="#DejaVuSans-31" transform="translate(0 0.684375)"/>
       <use xlink:href="#DejaVuSans-30" transform="translate(63.623047 0.684375)"/>
       <use xlink:href="#DejaVuSans-2212" transform="translate(128.203125 38.965625) scale(0.7)"/>
       <use xlink:href="#DejaVuSans-31" transform="translate(186.855469 38.965625) scale(0.7)"/>
       <use xlink:href="#DejaVuSans-35" transform="translate(231.391602 38.965625) scale(0.7)"/>
      </g>
     </g>
    </g>
    <g id="ytick_3">
     <g id="line2d_29">
      <g>
       <use xlink:href="#m16663f57ae" x="60.468889" y="127.585336" style="stroke: #000000; stroke-width: 0.8"/>
      </g>
     </g>
     <g id="text_7">
      <!-- $\mathdefault{10^{-14}}$ -->
      <g transform="translate(25.568889 131.384555) scale(0.1 -0.1)">
       <defs>
        <path id="DejaVuSans-34" d="M 2419 4116 
L 825 1625 
L 2419 1625 
L 2419 4116 
z
M 2253 4666 
L 3047 4666 
L 3047 1625 
L 3713 1625 
L 3713 1100 
L 3047 1100 
L 3047 0 
L 2419 0 
L 2419 1100 
L 313 1100 
L 313 1709 
L 2253 4666 
z
" transform="scale(0.015625)"/>
       </defs>
       <use xlink:href="#DejaVuSans-31" transform="translate(0 0.684375)"/>
       <use xlink:href="#DejaVuSans-30" transform="translate(63.623047 0.684375)"/>
       <use xlink:href="#DejaVuSans-2212" transform="translate(128.203125 38.965625) scale(0.7)"/>
       <use xlink:href="#DejaVuSans-31" transform="translate(186.855469 38.965625) scale(0.7)"/>
       <use xlink:href="#DejaVuSans-34" transform="translate(231.391602 38.965625) scale(0.7)"/>
      </g>
     </g>
    </g>
    <g id="ytick_4">
     <g id="line2d_30">
      <g>
       <use xlink:href="#m16663f57ae" x="60.468889" y="86.972043" style="stroke: #000000; stroke-width: 0.8"/>
      </g>
     </g>
     <g id="text_8">
      <!-- $\mathdefault{10^{-13}}$ -->
      <g transform="translate(25.568889 90.771262) scale(0.1 -0.1)">
       <defs>
        <path id="DejaVuSans-33" d="M 2597 2516 
Q 3050 2419 3304 2112 
Q 3559 1806 3559 1356 
Q 3559 666 3084 287 
Q 2609 -91 1734 -91 
Q 1441 -91 1130 -33 
Q 819 25 488 141 
L 488 750 
Q 750 597 1062 519 
Q 1375 441 1716 441 
Q 2309 441 2620 675 
Q 2931 909 2931 1356 
Q 2931 1769 2642 2001 
Q 2353 2234 1838 2234 
L 1294 2234 
L 1294 2753 
L 1863 2753 
Q 2328 2753 2575 2939 
Q 2822 3125 2822 3475 
Q 2822 3834 2567 4026 
Q 2313 4219 1838 4219 
Q 1578 4219 1281 4162 
Q 984 4106 628 3988 
L 628 4550 
Q 988 4650 1302 4700 
Q 1616 4750 1894 4750 
Q 2613 4750 3031 4423 
Q 3450 4097 3450 3541 
Q 3450 3153 3228 2886 
Q 3006 2619 2597 2516 
z
" transform="scale(0.015625)"/>
       </defs>
       <use xlink:href="#DejaVuSans-31" transform="translate(0 0.765625)"/>
       <use xlink:href="#DejaVuSans-30" transform="translate(63.623047 0.765625)"/>
       <use xlink:href="#DejaVuSans-2212" transform="translate(128.203125 39.046875) scale(0.7)"/>
       <use xlink:href="#DejaVuSans-31" transform="translate(186.855469 39.046875) scale(0.7)"/>
       <use xlink:href="#DejaVuSans-33" transform="translate(231.391602 39.046875) scale(0.7)"/>
      </g>
     </g>
    </g>
    <g id="ytick_5">
     <g id="line2d_31">
      <g>
       <use xlink:href="#m16663f57ae" x="60.468889" y="46.35875" style="stroke: #000000; stroke-width: 0.8"/>
      </g>
     </g>
     <g id="text_9">
      <!-- $\mathdefault{10^{-12}}$ -->
      <g transform="translate(25.568889 50.157969) scale(0.1 -0.1)">
       <use xlink:href="#DejaVuSans-31" transform="translate(0 0.765625)"/>
       <use xlink:href="#DejaVuSans-30" transform="translate(63.623047 0.765625)"/>
       <use xlink:href="#DejaVuSans-2212" transform="translate(128.203125 39.046875) scale(0.7)"/>
       <use xlink:href="#DejaVuSans-31" transform="translate(186.855469 39.046875) scale(0.7)"/>
       <use xlink:href="#DejaVuSans-32" transform="translate(231.391602 39.046875) scale(0.7)"/>
      </g>
     </g>
    </g>
    <g id="ytick_6">
     <g id="line2d_32">
      <defs>
       <path id="mb9e15d45dd" d="M 0 0 
L -2 0 
" style="stroke: #000000; stroke-width: 0.6"/>
      </defs>
      <g>
       <use xlink:href="#mb9e15d45dd" x="60.468889" y="237.199396" style="stroke: #000000; stroke-width: 0.6"/>
      </g>
     </g>
    </g>
    <g id="ytick_7">
     <g id="line2d_33">
      <g>
       <use xlink:href="#mb9e15d45dd" x="60.468889" y="230.04775" style="stroke: #000000; stroke-width: 0.6"/>
      </g>
     </g>
    </g>
    <g id="ytick_8">
     <g id="line2d_34">
      <g>
       <use xlink:href="#mb9e15d45dd" x="60.468889" y="224.973576" style="stroke: #000000; stroke-width: 0.6"/>
      </g>
     </g>
    </g>
    <g id="ytick_9">
     <g id="line2d_35">
      <g>
       <use xlink:href="#mb9e15d45dd" x="60.468889" y="221.037742" style="stroke: #000000; stroke-width: 0.6"/>
      </g>
     </g>
    </g>
    <g id="ytick_10">
     <g id="line2d_36">
      <g>
       <use xlink:href="#mb9e15d45dd" x="60.468889" y="217.82193" style="stroke: #000000; stroke-width: 0.6"/>
      </g>
     </g>
    </g>
    <g id="ytick_11">
     <g id="line2d_37">
      <g>
       <use xlink:href="#mb9e15d45dd" x="60.468889" y="215.103001" style="stroke: #000000; stroke-width: 0.6"/>
      </g>
     </g>
    </g>
    <g id="ytick_12">
     <g id="line2d_38">
      <g>
       <use xlink:href="#mb9e15d45dd" x="60.468889" y="212.747757" style="stroke: #000000; stroke-width: 0.6"/>
      </g>
     </g>
    </g>
    <g id="ytick_13">
     <g id="line2d_39">
      <g>
       <use xlink:href="#mb9e15d45dd" x="60.468889" y="210.670285" style="stroke: #000000; stroke-width: 0.6"/>
      </g>
     </g>
    </g>
    <g id="ytick_14">
     <g id="line2d_40">
      <g>
       <use xlink:href="#mb9e15d45dd" x="60.468889" y="196.586103" style="stroke: #000000; stroke-width: 0.6"/>
      </g>
     </g>
    </g>
    <g id="ytick_15">
     <g id="line2d_41">
      <g>
       <use xlink:href="#mb9e15d45dd" x="60.468889" y="189.434457" style="stroke: #000000; stroke-width: 0.6"/>
      </g>
     </g>
    </g>
    <g id="ytick_16">
     <g id="line2d_42">
      <g>
       <use xlink:href="#mb9e15d45dd" x="60.468889" y="184.360283" style="stroke: #000000; stroke-width: 0.6"/>
      </g>
     </g>
    </g>
    <g id="ytick_17">
     <g id="line2d_43">
      <g>
       <use xlink:href="#mb9e15d45dd" x="60.468889" y="180.424449" style="stroke: #000000; stroke-width: 0.6"/>
      </g>
     </g>
    </g>
    <g id="ytick_18">
     <g id="line2d_44">
      <g>
       <use xlink:href="#mb9e15d45dd" x="60.468889" y="177.208637" style="stroke: #000000; stroke-width: 0.6"/>
      </g>
     </g>
    </g>
    <g id="ytick_19">
     <g id="line2d_45">
      <g>
       <use xlink:href="#mb9e15d45dd" x="60.468889" y="174.489708" style="stroke: #000000; stroke-width: 0.6"/>
      </g>
     </g>
    </g>
    <g id="ytick_20">
     <g id="line2d_46">
      <g>
       <use xlink:href="#mb9e15d45dd" x="60.468889" y="172.134464" style="stroke: #000000; stroke-width: 0.6"/>
      </g>
     </g>
    </g>
    <g id="ytick_21">
     <g id="line2d_47">
      <g>
       <use xlink:href="#mb9e15d45dd" x="60.468889" y="170.056992" style="stroke: #000000; stroke-width: 0.6"/>
      </g>
     </g>
    </g>
    <g id="ytick_22">
     <g id="line2d_48">
      <g>
       <use xlink:href="#mb9e15d45dd" x="60.468889" y="155.97281" style="stroke: #000000; stroke-width: 0.6"/>
      </g>
     </g>
    </g>
    <g id="ytick_23">
     <g id="line2d_49">
      <g>
       <use xlink:href="#mb9e15d45dd" x="60.468889" y="148.821164" style="stroke: #000000; stroke-width: 0.6"/>
      </g>
     </g>
    </g>
    <g id="ytick_24">
     <g id="line2d_50">
      <g>
       <use xlink:href="#mb9e15d45dd" x="60.468889" y="143.74699" style="stroke: #000000; stroke-width: 0.6"/>
      </g>
     </g>
    </g>
    <g id="ytick_25">
     <g id="line2d_51">
      <g>
       <use xlink:href="#mb9e15d45dd" x="60.468889" y="139.811156" style="stroke: #000000; stroke-width: 0.6"/>
      </g>
     </g>
    </g>
    <g id="ytick_26">
     <g id="line2d_52">
      <g>
       <use xlink:href="#mb9e15d45dd" x="60.468889" y="136.595344" style="stroke: #000000; stroke-width: 0.6"/>
      </g>
     </g>
    </g>
    <g id="ytick_27">
     <g id="line2d_53">
      <g>
       <use xlink:href="#mb9e15d45dd" x="60.468889" y="133.876415" style="stroke: #000000; stroke-width: 0.6"/>
      </g>
     </g>
    </g>
    <g id="ytick_28">
     <g id="line2d_54">
      <g>
       <use xlink:href="#mb9e15d45dd" x="60.468889" y="131.521171" style="stroke: #000000; stroke-width: 0.6"/>
      </g>
     </g>
    </g>
    <g id="ytick_29">
     <g id="line2d_55">
      <g>
       <use xlink:href="#mb9e15d45dd" x="60.468889" y="129.443699" style="stroke: #000000; stroke-width: 0.6"/>
      </g>
     </g>
    </g>
    <g id="ytick_30">
     <g id="line2d_56">
      <g>
       <use xlink:href="#mb9e15d45dd" x="60.468889" y="115.359517" style="stroke: #000000; stroke-width: 0.6"/>
      </g>
     </g>
    </g>
    <g id="ytick_31">
     <g id="line2d_57">
      <g>
       <use xlink:href="#mb9e15d45dd" x="60.468889" y="108.207871" style="stroke: #000000; stroke-width: 0.6"/>
      </g>
     </g>
    </g>
    <g id="ytick_32">
     <g id="line2d_58">
      <g>
       <use xlink:href="#mb9e15d45dd" x="60.468889" y="103.133697" style="stroke: #000000; stroke-width: 0.6"/>
      </g>
     </g>
    </g>
    <g id="ytick_33">
     <g id="line2d_59">
      <g>
       <use xlink:href="#mb9e15d45dd" x="60.468889" y="99.197863" style="stroke: #000000; stroke-width: 0.6"/>
      </g>
     </g>
    </g>
    <g id="ytick_34">
     <g id="line2d_60">
      <g>
       <use xlink:href="#mb9e15d45dd" x="60.468889" y="95.982051" style="stroke: #000000; stroke-width: 0.6"/>
      </g>
     </g>
    </g>
    <g id="ytick_35">
     <g id="line2d_61">
      <g>
       <use xlink:href="#mb9e15d45dd" x="60.468889" y="93.263122" style="stroke: #000000; stroke-width: 0.6"/>
      </g>
     </g>
    </g>
    <g id="ytick_36">
     <g id="line2d_62">
      <g>
       <use xlink:href="#mb9e15d45dd" x="60.468889" y="90.907878" style="stroke: #000000; stroke-width: 0.6"/>
      </g>
     </g>
    </g>
    <g id="ytick_37">
     <g id="line2d_63">
      <g>
       <use xlink:href="#mb9e15d45dd" x="60.468889" y="88.830406" style="stroke: #000000; stroke-width: 0.6"/>
      </g>
     </g>
    </g>
    <g id="ytick_38">
     <g id="line2d_64">
      <g>
       <use xlink:href="#mb9e15d45dd" x="60.468889" y="74.746224" style="stroke: #000000; stroke-width: 0.6"/>
      </g>
     </g>
    </g>
    <g id="ytick_39">
     <g id="line2d_65">
      <g>
       <use xlink:href="#mb9e15d45dd" x="60.468889" y="67.594578" style="stroke: #000000; stroke-width: 0.6"/>
      </g>
     </g>
    </g>
    <g id="ytick_40">
     <g id="line2d_66">
      <g>
       <use xlink:href="#mb9e15d45dd" x="60.468889" y="62.520404" style="stroke: #000000; stroke-width: 0.6"/>
      </g>
     </g>
    </g>
    <g id="ytick_41">
     <g id="line2d_67">
      <g>
       <use xlink:href="#mb9e15d45dd" x="60.468889" y="58.58457" style="stroke: #000000; stroke-width: 0.6"/>
      </g>
     </g>
    </g>
    <g id="ytick_42">
     <g id="line2d_68">
      <g>
       <use xlink:href="#mb9e15d45dd" x="60.468889" y="55.368759" style="stroke: #000000; stroke-width: 0.6"/>
      </g>
     </g>
    </g>
    <g id="ytick_43">
     <g id="line2d_69">
      <g>
       <use xlink:href="#mb9e15d45dd" x="60.468889" y="52.649829" style="stroke: #000000; stroke-width: 0.6"/>
      </g>
     </g>
    </g>
    <g id="ytick_44">
     <g id="line2d_70">
      <g>
       <use xlink:href="#mb9e15d45dd" x="60.468889" y="50.294585" style="stroke: #000000; stroke-width: 0.6"/>
      </g>
     </g>
    </g>
    <g id="ytick_45">
     <g id="line2d_71">
      <g>
       <use xlink:href="#mb9e15d45dd" x="60.468889" y="48.217113" style="stroke: #000000; stroke-width: 0.6"/>
      </g>
     </g>
    </g>
    <g id="ytick_46">
     <g id="line2d_72">
      <g>
       <use xlink:href="#mb9e15d45dd" x="60.468889" y="34.132931" style="stroke: #000000; stroke-width: 0.6"/>
      </g>
     </g>
    </g>
    <g id="ytick_47">
     <g id="line2d_73">
      <g>
       <use xlink:href="#mb9e15d45dd" x="60.468889" y="26.981285" style="stroke: #000000; stroke-width: 0.6"/>
      </g>
     </g>
    </g>
    <g id="ytick_48">
     <g id="line2d_74">
      <g>
       <use xlink:href="#mb9e15d45dd" x="60.468889" y="21.907111" style="stroke: #000000; stroke-width: 0.6"/>
      </g>
     </g>
    </g>
    <g id="ytick_49">
     <g id="line2d_75">
      <g>
       <use xlink:href="#mb9e15d45dd" x="60.468889" y="17.971277" style="stroke: #000000; stroke-width: 0.6"/>
      </g>
     </g>
    </g>
    <g id="ytick_50">
     <g id="line2d_76">
      <g>
       <use xlink:href="#mb9e15d45dd" x="60.468889" y="14.755466" style="stroke: #000000; stroke-width: 0.6"/>
      </g>
     </g>
    </g>
    <g id="ytick_51">
     <g id="line2d_77">
      <g>
       <use xlink:href="#mb9e15d45dd" x="60.468889" y="12.036536" style="stroke: #000000; stroke-width: 0.6"/>
      </g>
     </g>
    </g>
    <g id="text_10">
     <!-- e2 * dnde [TeV / (cm2 s)] -->
     <g transform="translate(19.489202 189.243688) rotate(-90) scale(0.1 -0.1)">
      <defs>
       <path id="DejaVuSans-2a" d="M 3009 3897 
L 1888 3291 
L 3009 2681 
L 2828 2375 
L 1778 3009 
L 1778 1831 
L 1422 1831 
L 1422 3009 
L 372 2375 
L 191 2681 
L 1313 3291 
L 191 3897 
L 372 4206 
L 1422 3572 
L 1422 4750 
L 1778 4750 
L 1778 3572 
L 2828 4206 
L 3009 3897 
z
" transform="scale(0.015625)"/>
       <path id="DejaVuSans-64" d="M 2906 2969 
L 2906 4863 
L 3481 4863 
L 3481 0 
L 2906 0 
L 2906 525 
Q 2725 213 2448 61 
Q 2172 -91 1784 -91 
Q 1150 -91 751 415 
Q 353 922 353 1747 
Q 353 2572 751 3078 
Q 1150 3584 1784 3584 
Q 2172 3584 2448 3432 
Q 2725 3281 2906 2969 
z
M 947 1747 
Q 947 1113 1208 752 
Q 1469 391 1925 391 
Q 2381 391 2643 752 
Q 2906 1113 2906 1747 
Q 2906 2381 2643 2742 
Q 2381 3103 1925 3103 
Q 1469 3103 1208 2742 
Q 947 2381 947 1747 
z
" transform="scale(0.015625)"/>
       <path id="DejaVuSans-2f" d="M 1625 4666 
L 2156 4666 
L 531 -594 
L 0 -594 
L 1625 4666 
z
" transform="scale(0.015625)"/>
       <path id="DejaVuSans-28" d="M 1984 4856 
Q 1566 4138 1362 3434 
Q 1159 2731 1159 2009 
Q 1159 1288 1364 580 
Q 1569 -128 1984 -844 
L 1484 -844 
Q 1016 -109 783 600 
Q 550 1309 550 2009 
Q 550 2706 781 3412 
Q 1013 4119 1484 4856 
L 1984 4856 
z
" transform="scale(0.015625)"/>
       <path id="DejaVuSans-63" d="M 3122 3366 
L 3122 2828 
Q 2878 2963 2633 3030 
Q 2388 3097 2138 3097 
Q 1578 3097 1268 2742 
Q 959 2388 959 1747 
Q 959 1106 1268 751 
Q 1578 397 2138 397 
Q 2388 397 2633 464 
Q 2878 531 3122 666 
L 3122 134 
Q 2881 22 2623 -34 
Q 2366 -91 2075 -91 
Q 1284 -91 818 406 
Q 353 903 353 1747 
Q 353 2603 823 3093 
Q 1294 3584 2113 3584 
Q 2378 3584 2631 3529 
Q 2884 3475 3122 3366 
z
" transform="scale(0.015625)"/>
       <path id="DejaVuSans-6d" d="M 3328 2828 
Q 3544 3216 3844 3400 
Q 4144 3584 4550 3584 
Q 5097 3584 5394 3201 
Q 5691 2819 5691 2113 
L 5691 0 
L 5113 0 
L 5113 2094 
Q 5113 2597 4934 2840 
Q 4756 3084 4391 3084 
Q 3944 3084 3684 2787 
Q 3425 2491 3425 1978 
L 3425 0 
L 2847 0 
L 2847 2094 
Q 2847 2600 2669 2842 
Q 2491 3084 2119 3084 
Q 1678 3084 1418 2786 
Q 1159 2488 1159 1978 
L 1159 0 
L 581 0 
L 581 3500 
L 1159 3500 
L 1159 2956 
Q 1356 3278 1631 3431 
Q 1906 3584 2284 3584 
Q 2666 3584 2933 3390 
Q 3200 3197 3328 2828 
z
" transform="scale(0.015625)"/>
       <path id="DejaVuSans-73" d="M 2834 3397 
L 2834 2853 
Q 2591 2978 2328 3040 
Q 2066 3103 1784 3103 
Q 1356 3103 1142 2972 
Q 928 2841 928 2578 
Q 928 2378 1081 2264 
Q 1234 2150 1697 2047 
L 1894 2003 
Q 2506 1872 2764 1633 
Q 3022 1394 3022 966 
Q 3022 478 2636 193 
Q 2250 -91 1575 -91 
Q 1294 -91 989 -36 
Q 684 19 347 128 
L 347 722 
Q 666 556 975 473 
Q 1284 391 1588 391 
Q 1994 391 2212 530 
Q 2431 669 2431 922 
Q 2431 1156 2273 1281 
Q 2116 1406 1581 1522 
L 1381 1569 
Q 847 1681 609 1914 
Q 372 2147 372 2553 
Q 372 3047 722 3315 
Q 1072 3584 1716 3584 
Q 2034 3584 2315 3537 
Q 2597 3491 2834 3397 
z
" transform="scale(0.015625)"/>
       <path id="DejaVuSans-29" d="M 513 4856 
L 1013 4856 
Q 1481 4119 1714 3412 
Q 1947 2706 1947 2009 
Q 1947 1309 1714 600 
Q 1481 -109 1013 -844 
L 513 -844 
Q 928 -128 1133 580 
Q 1338 1288 1338 2009 
Q 1338 2731 1133 3434 
Q 928 4138 513 4856 
z
" transform="scale(0.015625)"/>
      </defs>
      <use xlink:href="#DejaVuSans-65"/>
      <use xlink:href="#DejaVuSans-32" x="61.523438"/>
      <use xlink:href="#DejaVuSans-20" x="125.146484"/>
      <use xlink:href="#DejaVuSans-2a" x="156.933594"/>
      <use xlink:href="#DejaVuSans-20" x="206.933594"/>
      <use xlink:href="#DejaVuSans-64" x="238.720703"/>
      <use xlink:href="#DejaVuSans-6e" x="302.197266"/>
      <use xlink:href="#DejaVuSans-64" x="365.576172"/>
      <use xlink:href="#DejaVuSans-65" x="429.052734"/>
      <use xlink:href="#DejaVuSans-20" x="490.576172"/>
      <use xlink:href="#DejaVuSans-5b" x="522.363281"/>
      <use xlink:href="#DejaVuSans-54" x="561.376953"/>
      <use xlink:href="#DejaVuSans-65" x="605.460938"/>
      <use xlink:href="#DejaVuSans-56" x="666.984375"/>
      <use xlink:href="#DejaVuSans-20" x="735.392578"/>
      <use xlink:href="#DejaVuSans-2f" x="767.179688"/>
      <use xlink:href="#DejaVuSans-20" x="800.871094"/>
      <use xlink:href="#DejaVuSans-28" x="832.658203"/>
      <use xlink:href="#DejaVuSans-63" x="871.671875"/>
      <use xlink:href="#DejaVuSans-6d" x="926.652344"/>
      <use xlink:href="#DejaVuSans-32" x="1024.064453"/>
      <use xlink:href="#DejaVuSans-20" x="1087.6875"/>
      <use xlink:href="#DejaVuSans-73" x="1119.474609"/>
      <use xlink:href="#DejaVuSans-29" x="1171.574219"/>
      <use xlink:href="#DejaVuSans-5d" x="1210.587891"/>
     </g>
    </g>
   </g>
   <g id="line2d_78">
    <path d="M 78.477357 28.689729 
L 81.700555 28.751864 
L 84.923754 28.815854 
L 88.146952 28.881805 
L 91.37015 28.949827 
L 94.593348 29.020036 
L 97.816546 29.092556 
L 101.039745 29.167515 
L 104.262943 29.245051 
L 107.486141 29.32531 
L 110.709339 29.408443 
L 113.932538 29.494613 
L 117.155736 29.58399 
L 120.378934 29.676755 
L 123.602132 29.773098 
L 126.825331 29.87322 
L 130.048529 29.977333 
L 133.271727 30.085663 
L 136.494925 30.198445 
L 139.718123 30.31593 
L 142.941322 30.438383 
L 146.16452 30.566082 
L 149.387718 30.699323 
L 152.610916 30.838417 
L 155.834115 30.983694 
L 159.057313 31.1355 
L 162.280511 31.294202 
L 165.503709 31.460189 
L 168.726907 31.633869 
L 171.950106 31.815676 
L 175.173304 32.006066 
L 178.396502 32.205521 
L 181.6197 32.414551 
L 184.842899 32.633694 
L 188.066097 32.863519 
L 191.289295 33.104626 
L 194.512493 33.357649 
L 197.735691 33.623258 
L 200.95889 33.90216 
L 204.182088 34.195104 
L 207.405286 34.502876 
L 210.628484 34.826313 
L 213.851683 35.166293 
L 217.074881 35.523747 
L 220.298079 35.899657 
L 223.521277 36.295061 
L 226.744476 36.711053 
L 229.967674 37.148792 
L 233.190872 37.609499 
L 236.41407 38.094467 
L 239.637268 38.605058 
L 242.860467 39.142712 
L 246.083665 39.708952 
L 249.306863 40.305383 
L 252.530061 40.933702 
L 255.75326 41.595703 
L 258.976458 42.293279 
L 262.199656 43.028428 
L 265.422854 43.803263 
L 268.646052 44.620015 
L 271.869251 45.48104 
L 275.092449 46.388826 
L 278.315647 47.346002 
L 281.538845 48.355343 
L 284.762044 49.419783 
L 287.985242 50.542419 
L 291.20844 51.72652 
L 294.431638 52.975543 
L 297.654836 54.293136 
L 300.878035 55.683154 
L 304.101233 57.149667 
L 307.324431 58.696976 
L 310.547629 60.329622 
L 313.770828 62.052402 
L 316.994026 63.870382 
L 320.217224 65.788912 
L 323.440422 67.813646 
L 326.663621 69.950553 
L 329.886819 72.205937 
L 333.110017 74.586459 
L 336.333215 77.099152 
L 339.556413 79.751445 
L 342.779612 82.551186 
L 346.00281 85.506662 
L 349.226008 88.626627 
L 352.449206 91.920328 
L 355.672405 95.397528 
L 358.895603 99.068543 
L 362.118801 102.944268 
L 365.341999 107.036208 
L 368.565197 111.356516 
L 371.788396 115.918031 
L 375.011594 120.734308 
L 378.234792 125.819669 
L 381.45799 131.189239 
L 384.681189 136.858992 
L 387.904387 142.845802 
L 391.127585 149.167491 
L 394.350783 155.84288 
L 397.573981 162.891853 
" clip-path="url(#pac6d2dd220)" style="fill: none; stroke-dasharray: 1.5,2.475; stroke-dashoffset: 0; stroke: #000000; stroke-width: 1.5"/>
   </g>
   <g id="LineCollection_1">
    <path clip-path="url(#pac6d2dd220)" style="fill: none; stroke: #8b0000; stroke-width: 1.5"/>
    <path clip-path="url(#pac6d2dd220)" style="fill: none; stroke: #8b0000; stroke-width: 1.5"/>
    <path clip-path="url(#pac6d2dd220)" style="fill: none; stroke: #8b0000; stroke-width: 1.5"/>
    <path clip-path="url(#pac6d2dd220)" style="fill: none; stroke: #8b0000; stroke-width: 1.5"/>
    <path d="M 82.483309 27.924876 
L 82.483309 25.698312 
" clip-path="url(#pac6d2dd220)" style="fill: none; stroke: #8b0000; stroke-width: 1.5"/>
    <path d="M 99.447511 29.966873 
L 99.447511 27.869918 
" clip-path="url(#pac6d2dd220)" style="fill: none; stroke: #8b0000; stroke-width: 1.5"/>
    <path d="M 116.411711 30.845842 
L 116.411711 28.827733 
" clip-path="url(#pac6d2dd220)" style="fill: none; stroke: #8b0000; stroke-width: 1.5"/>
    <path d="M 133.375912 30.718569 
L 133.375912 28.740048 
" clip-path="url(#pac6d2dd220)" style="fill: none; stroke: #8b0000; stroke-width: 1.5"/>
    <path d="M 150.340115 32.962302 
L 150.340115 30.732841 
" clip-path="url(#pac6d2dd220)" style="fill: none; stroke: #8b0000; stroke-width: 1.5"/>
    <path d="M 167.304316 34.323648 
L 167.304316 31.923803 
" clip-path="url(#pac6d2dd220)" style="fill: none; stroke: #8b0000; stroke-width: 1.5"/>
    <path d="M 184.268515 34.222564 
L 184.268515 31.649169 
" clip-path="url(#pac6d2dd220)" style="fill: none; stroke: #8b0000; stroke-width: 1.5"/>
    <path d="M 201.232717 35.042536 
L 201.232717 32.20929 
" clip-path="url(#pac6d2dd220)" style="fill: none; stroke: #8b0000; stroke-width: 1.5"/>
    <path d="M 218.19692 35.952878 
L 218.19692 32.767672 
" clip-path="url(#pac6d2dd220)" style="fill: none; stroke: #8b0000; stroke-width: 1.5"/>
    <path d="M 235.16112 35.259896 
L 235.16112 31.750015 
" clip-path="url(#pac6d2dd220)" style="fill: none; stroke: #8b0000; stroke-width: 1.5"/>
    <path d="M 252.125319 41.074236 
L 252.125319 36.407592 
" clip-path="url(#pac6d2dd220)" style="fill: none; stroke: #8b0000; stroke-width: 1.5"/>
    <path d="M 269.089521 42.943177 
L 269.089521 37.48948 
" clip-path="url(#pac6d2dd220)" style="fill: none; stroke: #8b0000; stroke-width: 1.5"/>
    <path d="M 286.053724 48.279733 
L 286.053724 41.374003 
" clip-path="url(#pac6d2dd220)" style="fill: none; stroke: #8b0000; stroke-width: 1.5"/>
    <path d="M 303.017927 64.840097 
L 303.017927 53.286972 
" clip-path="url(#pac6d2dd220)" style="fill: none; stroke: #8b0000; stroke-width: 1.5"/>
    <path d="M 319.982128 101.927651 
L 319.982128 67.51634 
" clip-path="url(#pac6d2dd220)" style="fill: none; stroke: #8b0000; stroke-width: 1.5"/>
    <path clip-path="url(#pac6d2dd220)" style="fill: none; stroke: #8b0000; stroke-width: 1.5"/>
    <path d="M 353.910529 104.811789 
L 353.910529 68.06527 
" clip-path="url(#pac6d2dd220)" style="fill: none; stroke: #8b0000; stroke-width: 1.5"/>
    <path d="M 370.87473 289 
L 370.87473 88.651843 
" clip-path="url(#pac6d2dd220)" style="fill: none; stroke: #8b0000; stroke-width: 1.5"/>
    <path clip-path="url(#pac6d2dd220)" style="fill: none; stroke: #8b0000; stroke-width: 1.5"/>
    <path clip-path="url(#pac6d2dd220)" style="fill: none; stroke: #8b0000; stroke-width: 1.5"/>
   </g>
   <g id="LineCollection_2">
    <path clip-path="url(#pac6d2dd220)" style="fill: none; stroke: #006400; stroke-width: 1.5"/>
    <path clip-path="url(#pac6d2dd220)" style="fill: none; stroke: #006400; stroke-width: 1.5"/>
    <path clip-path="url(#pac6d2dd220)" style="fill: none; stroke: #006400; stroke-width: 1.5"/>
    <path clip-path="url(#pac6d2dd220)" style="fill: none; stroke: #006400; stroke-width: 1.5"/>
    <path d="M 76.865758 30.541737 
L 76.865758 27.004496 
" clip-path="url(#pac6d2dd220)" style="fill: none; stroke: #006400; stroke-width: 1.5"/>
    <path d="M 93.82996 33.691846 
L 93.82996 30.448851 
" clip-path="url(#pac6d2dd220)" style="fill: none; stroke: #006400; stroke-width: 1.5"/>
    <path d="M 110.79416 25.018167 
L 110.79416 21.342182 
" clip-path="url(#pac6d2dd220)" style="fill: none; stroke: #006400; stroke-width: 1.5"/>
    <path d="M 127.758361 28.261975 
L 127.758361 24.902246 
" clip-path="url(#pac6d2dd220)" style="fill: none; stroke: #006400; stroke-width: 1.5"/>
    <path d="M 144.722564 32.385711 
L 144.722564 28.908149 
" clip-path="url(#pac6d2dd220)" style="fill: none; stroke: #006400; stroke-width: 1.5"/>
    <path d="M 161.686765 36.554064 
L 161.686765 33.054267 
" clip-path="url(#pac6d2dd220)" style="fill: none; stroke: #006400; stroke-width: 1.5"/>
    <path d="M 178.650965 36.061035 
L 178.650965 32.295056 
" clip-path="url(#pac6d2dd220)" style="fill: none; stroke: #006400; stroke-width: 1.5"/>
    <path d="M 195.615166 37.762766 
L 195.615166 33.759337 
" clip-path="url(#pac6d2dd220)" style="fill: none; stroke: #006400; stroke-width: 1.5"/>
    <path d="M 212.579369 37.785168 
L 212.579369 33.343915 
" clip-path="url(#pac6d2dd220)" style="fill: none; stroke: #006400; stroke-width: 1.5"/>
    <path d="M 229.543569 38.231631 
L 229.543569 33.481891 
" clip-path="url(#pac6d2dd220)" style="fill: none; stroke: #006400; stroke-width: 1.5"/>
    <path d="M 246.507769 43.129751 
L 246.507769 37.264591 
" clip-path="url(#pac6d2dd220)" style="fill: none; stroke: #006400; stroke-width: 1.5"/>
    <path d="M 263.471971 45.569243 
L 263.471971 38.939554 
" clip-path="url(#pac6d2dd220)" style="fill: none; stroke: #006400; stroke-width: 1.5"/>
    <path d="M 280.436173 51.135619 
L 280.436173 43.134978 
" clip-path="url(#pac6d2dd220)" style="fill: none; stroke: #006400; stroke-width: 1.5"/>
    <path d="M 297.400376 64.16691 
L 297.400376 51.779294 
" clip-path="url(#pac6d2dd220)" style="fill: none; stroke: #006400; stroke-width: 1.5"/>
    <path d="M 314.364577 101.317467 
L 314.364577 66.454202 
" clip-path="url(#pac6d2dd220)" style="fill: none; stroke: #006400; stroke-width: 1.5"/>
    <path clip-path="url(#pac6d2dd220)" style="fill: none; stroke: #006400; stroke-width: 1.5"/>
    <path d="M 348.292978 103.118173 
L 348.292978 66.3929 
" clip-path="url(#pac6d2dd220)" style="fill: none; stroke: #006400; stroke-width: 1.5"/>
    <path d="M 365.257179 289 
L 365.257179 149.272247 
" clip-path="url(#pac6d2dd220)" style="fill: none; stroke: #006400; stroke-width: 1.5"/>
    <path clip-path="url(#pac6d2dd220)" style="fill: none; stroke: #006400; stroke-width: 1.5"/>
    <path clip-path="url(#pac6d2dd220)" style="fill: none; stroke: #006400; stroke-width: 1.5"/>
   </g>
   <g id="line2d_79">
    <defs>
     <path id="m5abb49fb0c" d="M 0 3 
C 0.795609 3 1.55874 2.683901 2.12132 2.12132 
C 2.683901 1.55874 3 0.795609 3 0 
C 3 -0.795609 2.683901 -1.55874 2.12132 -2.12132 
C 1.55874 -2.683901 0.795609 -3 0 -3 
C -0.795609 -3 -1.55874 -2.683901 -2.12132 -2.12132 
C -2.683901 -1.55874 -3 -0.795609 -3 0 
C -3 0.795609 -2.683901 1.55874 -2.12132 2.12132 
C -1.55874 2.683901 -0.795609 3 0 3 
z
" style="stroke: #8b0000"/>
    </defs>
    <g clip-path="url(#pac6d2dd220)">
     <use xlink:href="#m5abb49fb0c" x="82.483309" y="26.776483" style="fill: #8b0000; stroke: #8b0000"/>
     <use xlink:href="#m5abb49fb0c" x="99.447511" y="28.887251" style="fill: #8b0000; stroke: #8b0000"/>
     <use xlink:href="#m5abb49fb0c" x="116.411711" y="29.80794" style="fill: #8b0000; stroke: #8b0000"/>
     <use xlink:href="#m5abb49fb0c" x="133.375912" y="29.701581" style="fill: #8b0000; stroke: #8b0000"/>
     <use xlink:href="#m5abb49fb0c" x="150.340115" y="31.812369" style="fill: #8b0000; stroke: #8b0000"/>
     <use xlink:href="#m5abb49fb0c" x="167.304316" y="33.082941" style="fill: #8b0000; stroke: #8b0000"/>
     <use xlink:href="#m5abb49fb0c" x="184.268515" y="32.888976" style="fill: #8b0000; stroke: #8b0000"/>
     <use xlink:href="#m5abb49fb0c" x="201.232717" y="33.569085" style="fill: #8b0000; stroke: #8b0000"/>
     <use xlink:href="#m5abb49fb0c" x="218.19692" y="34.288472" style="fill: #8b0000; stroke: #8b0000"/>
     <use xlink:href="#m5abb49fb0c" x="235.16112" y="33.417793" style="fill: #8b0000; stroke: #8b0000"/>
     <use xlink:href="#m5abb49fb0c" x="252.125319" y="38.587026" style="fill: #8b0000; stroke: #8b0000"/>
     <use xlink:href="#m5abb49fb0c" x="269.089521" y="40.006378" style="fill: #8b0000; stroke: #8b0000"/>
     <use xlink:href="#m5abb49fb0c" x="286.053724" y="44.491036" style="fill: #8b0000; stroke: #8b0000"/>
     <use xlink:href="#m5abb49fb0c" x="303.017927" y="58.134051" style="fill: #8b0000; stroke: #8b0000"/>
     <use xlink:href="#m5abb49fb0c" x="319.982128" y="77.398028" style="fill: #8b0000; stroke: #8b0000"/>
     <use xlink:href="#m5abb49fb0c" x="328.723231" y="20737" style="fill: #8b0000; stroke: #8b0000"/>
     <use xlink:href="#m5abb49fb0c" x="345.169593" y="20737" style="fill: #8b0000; stroke: #8b0000"/>
     <use xlink:href="#m5abb49fb0c" x="353.910529" y="78.221277" style="fill: #8b0000; stroke: #8b0000"/>
     <use xlink:href="#m5abb49fb0c" x="362.651464" y="20737" style="fill: #8b0000; stroke: #8b0000"/>
    </g>
   </g>
   <g id="line2d_80">
    <defs>
     <path id="m1bbc396221" d="M 0 3 
C 0.795609 3 1.55874 2.683901 2.12132 2.12132 
C 2.683901 1.55874 3 0.795609 3 0 
C 3 -0.795609 2.683901 -1.55874 2.12132 -2.12132 
C 1.55874 -2.683901 0.795609 -3 0 -3 
C -0.795609 -3 -1.55874 -2.683901 -2.12132 -2.12132 
C -2.683901 -1.55874 -3 -0.795609 -3 0 
C -3 0.795609 -2.683901 1.55874 -2.12132 2.12132 
C -1.55874 2.683901 -0.795609 3 0 3 
z
" style="stroke: #006400"/>
    </defs>
    <g clip-path="url(#pac6d2dd220)">
     <use xlink:href="#m1bbc396221" x="76.865758" y="28.684593" style="fill: #006400; stroke: #006400"/>
     <use xlink:href="#m1bbc396221" x="93.82996" y="31.99592" style="fill: #006400; stroke: #006400"/>
     <use xlink:href="#m1bbc396221" x="110.79416" y="23.084582" style="fill: #006400; stroke: #006400"/>
     <use xlink:href="#m1bbc396221" x="127.758361" y="26.502236" style="fill: #006400; stroke: #006400"/>
     <use xlink:href="#m1bbc396221" x="144.722564" y="30.561363" style="fill: #006400; stroke: #006400"/>
     <use xlink:href="#m1bbc396221" x="161.686765" y="34.717503" style="fill: #006400; stroke: #006400"/>
     <use xlink:href="#m1bbc396221" x="178.650965" y="34.077725" style="fill: #006400; stroke: #006400"/>
     <use xlink:href="#m1bbc396221" x="195.615166" y="35.647709" style="fill: #006400; stroke: #006400"/>
     <use xlink:href="#m1bbc396221" x="212.579369" y="35.425122" style="fill: #006400; stroke: #006400"/>
     <use xlink:href="#m1bbc396221" x="229.543569" y="35.697361" style="fill: #006400; stroke: #006400"/>
     <use xlink:href="#m1bbc396221" x="246.507769" y="39.954495" style="fill: #006400; stroke: #006400"/>
     <use xlink:href="#m1bbc396221" x="263.471971" y="41.944725" style="fill: #006400; stroke: #006400"/>
     <use xlink:href="#m1bbc396221" x="280.436173" y="46.685499" style="fill: #006400; stroke: #006400"/>
     <use xlink:href="#m1bbc396221" x="297.400376" y="56.907235" style="fill: #006400; stroke: #006400"/>
     <use xlink:href="#m1bbc396221" x="314.364577" y="76.391508" style="fill: #006400; stroke: #006400"/>
     <use xlink:href="#m1bbc396221" x="323.105887" y="20737" style="fill: #006400; stroke: #006400"/>
     <use xlink:href="#m1bbc396221" x="339.551699" y="20737" style="fill: #006400; stroke: #006400"/>
     <use xlink:href="#m1bbc396221" x="348.292978" y="76.546553" style="fill: #006400; stroke: #006400"/>
     <use xlink:href="#m1bbc396221" x="357.034256" y="20737" style="fill: #006400; stroke: #006400"/>
    </g>
   </g>
   <g id="patch_3">
    <path d="M 60.468889 242.728 
L 60.468889 10.8 
" style="fill: none; stroke: #000000; stroke-width: 0.8; stroke-linejoin: miter; stroke-linecap: square"/>
   </g>
   <g id="patch_4">
    <path d="M 421.2 242.728 
L 421.2 10.8 
" style="fill: none; stroke: #000000; stroke-width: 0.8; stroke-linejoin: miter; stroke-linecap: square"/>
   </g>
   <g id="patch_5">
    <path d="M 60.468889 242.728 
L 421.2 242.728 
" style="fill: none; stroke: #000000; stroke-width: 0.8; stroke-linejoin: miter; stroke-linecap: square"/>
   </g>
   <g id="patch_6">
    <path d="M 60.468889 10.8 
L 421.2 10.8 
" style="fill: none; stroke: #000000; stroke-width: 0.8; stroke-linejoin: miter; stroke-linecap: square"/>
   </g>
   <g id="legend_1">
    <g id="patch_7">
     <path d="M 320.3 62.834375 
L 414.2 62.834375 
Q 416.2 62.834375 416.2 60.834375 
L 416.2 17.8 
Q 416.2 15.8 414.2 15.8 
L 320.3 15.8 
Q 318.3 15.8 318.3 17.8 
L 318.3 60.834375 
Q 318.3 62.834375 320.3 62.834375 
z
" style="fill: #ffffff; opacity: 0.8; stroke: #cccccc; stroke-linejoin: miter"/>
    </g>
    <g id="patch_8">
     <path d="M 322.3 27.398438 
L 342.3 27.398438 
L 342.3 20.398438 
L 322.3 20.398438 
z
" style="fill: #008000; fill-opacity: 0.5"/>
    </g>
    <g id="text_11">
     <!-- $1\sigma$ Nuisance -->
     <g transform="translate(350.3 27.398438) scale(0.1 -0.1)">
      <defs>
       <path id="DejaVuSans-Oblique-3c3" d="M 2219 3044 
Q 1744 3044 1422 2700 
Q 1081 2341 969 1747 
Q 844 1119 1044 756 
Q 1241 397 1706 397 
Q 2166 397 2503 759 
Q 2844 1122 2966 1747 
Q 3075 2319 2881 2700 
Q 2700 3044 2219 3044 
z
M 2309 3503 
L 4219 3500 
L 4106 2925 
L 3463 2925 
Q 3706 2438 3575 1747 
Q 3406 888 2884 400 
Q 2359 -91 1609 -91 
Q 856 -91 525 400 
Q 194 888 363 1747 
Q 528 2609 1050 3097 
Q 1484 3503 2309 3503 
z
" transform="scale(0.015625)"/>
       <path id="DejaVuSans-4e" d="M 628 4666 
L 1478 4666 
L 3547 763 
L 3547 4666 
L 4159 4666 
L 4159 0 
L 3309 0 
L 1241 3903 
L 1241 0 
L 628 0 
L 628 4666 
z
" transform="scale(0.015625)"/>
       <path id="DejaVuSans-75" d="M 544 1381 
L 544 3500 
L 1119 3500 
L 1119 1403 
Q 1119 906 1312 657 
Q 1506 409 1894 409 
Q 2359 409 2629 706 
Q 2900 1003 2900 1516 
L 2900 3500 
L 3475 3500 
L 3475 0 
L 2900 0 
L 2900 538 
Q 2691 219 2414 64 
Q 2138 -91 1772 -91 
Q 1169 -91 856 284 
Q 544 659 544 1381 
z
M 1991 3584 
L 1991 3584 
z
" transform="scale(0.015625)"/>
       <path id="DejaVuSans-69" d="M 603 3500 
L 1178 3500 
L 1178 0 
L 603 0 
L 603 3500 
z
M 603 4863 
L 1178 4863 
L 1178 4134 
L 603 4134 
L 603 4863 
z
" transform="scale(0.015625)"/>
       <path id="DejaVuSans-61" d="M 2194 1759 
Q 1497 1759 1228 1600 
Q 959 1441 959 1056 
Q 959 750 1161 570 
Q 1363 391 1709 391 
Q 2188 391 2477 730 
Q 2766 1069 2766 1631 
L 2766 1759 
L 2194 1759 
z
M 3341 1997 
L 3341 0 
L 2766 0 
L 2766 531 
Q 2569 213 2275 61 
Q 1981 -91 1556 -91 
Q 1019 -91 701 211 
Q 384 513 384 1019 
Q 384 1609 779 1909 
Q 1175 2209 1959 2209 
L 2766 2209 
L 2766 2266 
Q 2766 2663 2505 2880 
Q 2244 3097 1772 3097 
Q 1472 3097 1187 3025 
Q 903 2953 641 2809 
L 641 3341 
Q 956 3463 1253 3523 
Q 1550 3584 1831 3584 
Q 2591 3584 2966 3190 
Q 3341 2797 3341 1997 
z
" transform="scale(0.015625)"/>
      </defs>
      <use xlink:href="#DejaVuSans-31" transform="translate(0 0.015625)"/>
      <use xlink:href="#DejaVuSans-Oblique-3c3" transform="translate(63.623047 0.015625)"/>
      <use xlink:href="#DejaVuSans-20" transform="translate(127.001953 0.015625)"/>
      <use xlink:href="#DejaVuSans-4e" transform="translate(158.789062 0.015625)"/>
      <use xlink:href="#DejaVuSans-75" transform="translate(233.59375 0.015625)"/>
      <use xlink:href="#DejaVuSans-69" transform="translate(296.972656 0.015625)"/>
      <use xlink:href="#DejaVuSans-73" transform="translate(324.755859 0.015625)"/>
      <use xlink:href="#DejaVuSans-61" transform="translate(376.855469 0.015625)"/>
      <use xlink:href="#DejaVuSans-6e" transform="translate(438.134766 0.015625)"/>
      <use xlink:href="#DejaVuSans-63" transform="translate(501.513672 0.015625)"/>
      <use xlink:href="#DejaVuSans-65" transform="translate(556.494141 0.015625)"/>
     </g>
    </g>
    <g id="patch_9">
     <path d="M 322.3 42.076562 
L 342.3 42.076562 
L 342.3 35.076562 
L 322.3 35.076562 
z
" style="fill: #ff0000; fill-opacity: 0.6"/>
    </g>
    <g id="text_12">
     <!-- $1\sigma$ Standard -->
     <g transform="translate(350.3 42.076562) scale(0.1 -0.1)">
      <defs>
       <path id="DejaVuSans-53" d="M 3425 4513 
L 3425 3897 
Q 3066 4069 2747 4153 
Q 2428 4238 2131 4238 
Q 1616 4238 1336 4038 
Q 1056 3838 1056 3469 
Q 1056 3159 1242 3001 
Q 1428 2844 1947 2747 
L 2328 2669 
Q 3034 2534 3370 2195 
Q 3706 1856 3706 1288 
Q 3706 609 3251 259 
Q 2797 -91 1919 -91 
Q 1588 -91 1214 -16 
Q 841 59 441 206 
L 441 856 
Q 825 641 1194 531 
Q 1563 422 1919 422 
Q 2459 422 2753 634 
Q 3047 847 3047 1241 
Q 3047 1584 2836 1778 
Q 2625 1972 2144 2069 
L 1759 2144 
Q 1053 2284 737 2584 
Q 422 2884 422 3419 
Q 422 4038 858 4394 
Q 1294 4750 2059 4750 
Q 2388 4750 2728 4690 
Q 3069 4631 3425 4513 
z
" transform="scale(0.015625)"/>
       <path id="DejaVuSans-74" d="M 1172 4494 
L 1172 3500 
L 2356 3500 
L 2356 3053 
L 1172 3053 
L 1172 1153 
Q 1172 725 1289 603 
Q 1406 481 1766 481 
L 2356 481 
L 2356 0 
L 1766 0 
Q 1100 0 847 248 
Q 594 497 594 1153 
L 594 3053 
L 172 3053 
L 172 3500 
L 594 3500 
L 594 4494 
L 1172 4494 
z
" transform="scale(0.015625)"/>
      </defs>
      <use xlink:href="#DejaVuSans-31" transform="translate(0 0.015625)"/>
      <use xlink:href="#DejaVuSans-Oblique-3c3" transform="translate(63.623047 0.015625)"/>
      <use xlink:href="#DejaVuSans-20" transform="translate(127.001953 0.015625)"/>
      <use xlink:href="#DejaVuSans-53" transform="translate(158.789062 0.015625)"/>
      <use xlink:href="#DejaVuSans-74" transform="translate(222.265625 0.015625)"/>
      <use xlink:href="#DejaVuSans-61" transform="translate(261.474609 0.015625)"/>
      <use xlink:href="#DejaVuSans-6e" transform="translate(322.753906 0.015625)"/>
      <use xlink:href="#DejaVuSans-64" transform="translate(386.132812 0.015625)"/>
      <use xlink:href="#DejaVuSans-61" transform="translate(449.609375 0.015625)"/>
      <use xlink:href="#DejaVuSans-72" transform="translate(510.888672 0.015625)"/>
      <use xlink:href="#DejaVuSans-64" transform="translate(552.001953 0.015625)"/>
     </g>
    </g>
    <g id="line2d_81">
     <path d="M 322.3 53.254687 
L 332.3 53.254687 
L 342.3 53.254687 
" style="fill: none; stroke-dasharray: 1.5,2.475; stroke-dashoffset: 0; stroke: #000000; stroke-width: 1.5"/>
    </g>
    <g id="text_13">
     <!-- Input -->
     <g transform="translate(350.3 56.754687) scale(0.1 -0.1)">
      <defs>
       <path id="DejaVuSans-49" d="M 628 4666 
L 1259 4666 
L 1259 0 
L 628 0 
L 628 4666 
z
" transform="scale(0.015625)"/>
       <path id="DejaVuSans-70" d="M 1159 525 
L 1159 -1331 
L 581 -1331 
L 581 3500 
L 1159 3500 
L 1159 2969 
Q 1341 3281 1617 3432 
Q 1894 3584 2278 3584 
Q 2916 3584 3314 3078 
Q 3713 2572 3713 1747 
Q 3713 922 3314 415 
Q 2916 -91 2278 -91 
Q 1894 -91 1617 61 
Q 1341 213 1159 525 
z
M 3116 1747 
Q 3116 2381 2855 2742 
Q 2594 3103 2138 3103 
Q 1681 3103 1420 2742 
Q 1159 2381 1159 1747 
Q 1159 1113 1420 752 
Q 1681 391 2138 391 
Q 2594 391 2855 752 
Q 3116 1113 3116 1747 
z
" transform="scale(0.015625)"/>
      </defs>
      <use xlink:href="#DejaVuSans-49"/>
      <use xlink:href="#DejaVuSans-6e" x="29.492188"/>
      <use xlink:href="#DejaVuSans-70" x="92.871094"/>
      <use xlink:href="#DejaVuSans-75" x="156.347656"/>
      <use xlink:href="#DejaVuSans-74" x="219.726562"/>
     </g>
    </g>
   </g>
  </g>
 </g>
 <defs>
  <clipPath id="pac6d2dd220">
   <rect x="60.468889" y="10.8" width="360.731111" height="231.928"/>
  </clipPath>
 </defs>
</svg>
