<?xml version="1.0" encoding="utf-8" standalone="no"?>
<!DOCTYPE svg PUBLIC "-//W3C//DTD SVG 1.1//EN"
  "http://www.w3.org/Graphics/SVG/1.1/DTD/svg11.dtd">
<svg xmlns:xlink="http://www.w3.org/1999/xlink" width="432pt" height="288pt" viewBox="0 0 432 288" xmlns="http://www.w3.org/2000/svg" version="1.1">
 <metadata>
  <rdf:RDF xmlns:dc="http://purl.org/dc/elements/1.1/" xmlns:cc="http://creativecommons.org/ns#" xmlns:rdf="http://www.w3.org/1999/02/22-rdf-syntax-ns#">
   <cc:Work>
    <dc:type rdf:resource="http://purl.org/dc/dcmitype/StillImage"/>
    <dc:date>2023-03-22T13:49:26.755320</dc:date>
    <dc:format>image/svg+xml</dc:format>
    <dc:creator>
     <cc:Agent>
      <dc:title>Matplotlib v3.6.2, https://matplotlib.org/</dc:title>
     </cc:Agent>
    </dc:creator>
   </cc:Work>
  </rdf:RDF>
 </metadata>
 <defs>
  <style type="text/css">*{stroke-linejoin: round; stroke-linecap: butt}</style>
 </defs>
 <g id="figure_1">
  <g id="patch_1">
   <path d="M 0 288 
L 432 288 
L 432 0 
L 0 0 
z
" style="fill: #ffffff"/>
  </g>
  <g id="axes_1">
   <g id="patch_2">
    <path d="M 64.568389 242.728 
L 421.2 242.728 
L 421.2 10.8 
L 64.568389 10.8 
z
" style="fill: #ffffff"/>
   </g>
   <g id="PolyCollection_1">
    <path d="M 82.372201 21.342182 
L 82.372201 51.799242 
L 85.55877 53.246322 
L 88.745338 54.698148 
L 91.931907 56.154768 
L 95.118475 57.616231 
L 98.305044 59.082583 
L 101.491612 60.553866 
L 104.67818 62.030124 
L 107.864749 63.511396 
L 111.051317 64.997718 
L 114.237886 66.489125 
L 117.424454 67.985649 
L 120.611023 69.487319 
L 123.797591 70.994161 
L 126.98416 72.506197 
L 130.170728 74.023447 
L 133.357296 75.545927 
L 136.543865 77.07365 
L 139.730433 78.606625 
L 142.917002 80.144859 
L 146.10357 81.688354 
L 149.290139 83.237108 
L 152.476707 84.791118 
L 155.663276 86.350375 
L 158.849844 87.914867 
L 162.036412 89.48458 
L 165.222981 91.059495 
L 168.409549 92.639591 
L 171.596118 94.224844 
L 174.782686 95.815224 
L 177.969255 97.410703 
L 181.155823 99.011245 
L 184.342392 100.616816 
L 187.52896 102.227377 
L 190.715528 103.842887 
L 193.902097 105.463302 
L 197.088665 107.088577 
L 200.275234 108.718666 
L 203.461802 110.353521 
L 206.648371 111.993089 
L 209.834939 113.637322 
L 213.021508 115.286164 
L 216.208076 116.939564 
L 219.394645 118.597467 
L 222.581213 120.259816 
L 225.767781 121.926558 
L 228.95435 123.597635 
L 232.140918 125.272991 
L 235.327487 126.95257 
L 238.514055 128.636316 
L 241.700624 130.324173 
L 244.887192 132.016083 
L 248.073761 133.711993 
L 251.260329 135.411847 
L 254.446897 137.11559 
L 257.633466 138.823168 
L 260.820034 140.534529 
L 264.006603 142.24962 
L 267.193171 143.96839 
L 270.37974 145.690787 
L 273.566308 147.416763 
L 276.752877 149.14627 
L 279.939445 150.879258 
L 283.126013 152.615684 
L 286.312582 154.3555 
L 289.49915 156.098663 
L 292.685719 157.84513 
L 295.872287 159.59486 
L 299.058856 161.347812 
L 302.245424 163.103947 
L 305.431993 164.863227 
L 308.618561 166.625614 
L 311.805129 168.391074 
L 314.991698 170.159572 
L 318.178266 171.931075 
L 321.364835 173.705552 
L 324.551403 175.48297 
L 327.737972 177.263302 
L 330.92454 179.046519 
L 334.111109 180.832593 
L 337.297677 182.621499 
L 340.484245 184.413212 
L 343.670814 186.207708 
L 346.857382 188.004965 
L 350.043951 189.804962 
L 353.230519 191.607677 
L 356.417088 193.413093 
L 359.603656 195.22119 
L 362.790225 197.031951 
L 365.976793 198.845362 
L 369.163361 200.661405 
L 372.34993 202.480068 
L 375.536498 204.301336 
L 378.723067 206.125199 
L 381.909635 207.951644 
L 385.096204 209.780662 
L 388.282772 211.612243 
L 391.469341 213.446378 
L 394.655909 215.28306 
L 397.842477 217.122282 
L 397.842477 166.750999 
L 397.842477 166.750999 
L 394.655909 165.357302 
L 391.469341 163.963247 
L 388.282772 162.568816 
L 385.096204 161.173987 
L 381.909635 159.778742 
L 378.723067 158.383057 
L 375.536498 156.986911 
L 372.34993 155.590282 
L 369.163361 154.193146 
L 365.976793 152.795478 
L 362.790225 151.397254 
L 359.603656 149.998448 
L 356.417088 148.599033 
L 353.230519 147.198983 
L 350.043951 145.798268 
L 346.857382 144.39686 
L 343.670814 142.99473 
L 340.484245 141.591845 
L 337.297677 140.188175 
L 334.111109 138.783687 
L 330.92454 137.378347 
L 327.737972 135.972121 
L 324.551403 134.564973 
L 321.364835 133.156867 
L 318.178266 131.747765 
L 314.991698 130.337629 
L 311.805129 128.926419 
L 308.618561 127.514094 
L 305.431993 126.100613 
L 302.245424 124.685932 
L 299.058856 123.27001 
L 295.872287 121.852799 
L 292.685719 120.434255 
L 289.49915 119.01433 
L 286.312582 117.592977 
L 283.126013 116.170146 
L 279.939445 114.745788 
L 276.752877 113.31985 
L 273.566308 111.892282 
L 270.37974 110.46303 
L 267.193171 109.032041 
L 264.006603 107.599258 
L 260.820034 106.164628 
L 257.633466 104.728093 
L 254.446897 103.289596 
L 251.260329 101.849079 
L 248.073761 100.406485 
L 244.887192 98.961754 
L 241.700624 97.514827 
L 238.514055 96.065644 
L 235.327487 94.614145 
L 232.140918 93.160271 
L 228.95435 91.703961 
L 225.767781 90.245155 
L 222.581213 88.783794 
L 219.394645 87.319819 
L 216.208076 85.85317 
L 213.021508 84.383789 
L 209.834939 82.91162 
L 206.648371 81.436605 
L 203.461802 79.95869 
L 200.275234 78.47782 
L 197.088665 76.993944 
L 193.902097 75.507009 
L 190.715528 74.016968 
L 187.52896 72.523773 
L 184.342392 71.027379 
L 181.155823 69.527744 
L 177.969255 68.024827 
L 174.782686 66.518591 
L 171.596118 65.009001 
L 168.409549 63.496025 
L 165.222981 61.979636 
L 162.036412 60.459806 
L 158.849844 58.936514 
L 155.663276 57.40974 
L 152.476707 55.87947 
L 149.290139 54.345692 
L 146.10357 52.808396 
L 142.917002 51.267578 
L 139.730433 49.723238 
L 136.543865 48.175377 
L 133.357296 46.624002 
L 130.170728 45.069122 
L 126.98416 43.510752 
L 123.797591 41.948907 
L 120.611023 40.383608 
L 117.424454 38.814878 
L 114.237886 37.242746 
L 111.051317 35.667239 
L 107.864749 34.088392 
L 104.67818 32.50624 
L 101.491612 30.920821 
L 98.305044 29.332178 
L 95.118475 27.740353 
L 91.931907 26.145392 
L 88.745338 24.547343 
L 85.55877 22.946256 
L 82.372201 21.342182 
z
" clip-path="url(#pd999682cb5)" style="fill: #008000; fill-opacity: 0.5"/>
   </g>
   <g id="PolyCollection_2">
    <path d="M 82.372201 28.668711 
L 82.372201 41.887811 
L 85.55877 43.237074 
L 88.745338 44.591984 
L 91.931907 45.952913 
L 95.118475 47.320263 
L 98.305044 48.694459 
L 101.491612 50.075958 
L 104.67818 51.465239 
L 107.864749 52.862805 
L 111.051317 54.269178 
L 114.237886 55.684892 
L 117.424454 57.110487 
L 120.611023 58.546503 
L 123.797591 59.993462 
L 126.98416 61.451865 
L 130.170728 62.922171 
L 133.357296 64.404789 
L 136.543865 65.900064 
L 139.730433 67.408263 
L 142.917002 68.929566 
L 146.10357 70.464062 
L 149.290139 72.011741 
L 152.476707 73.572498 
L 155.663276 75.146135 
L 158.849844 76.73237 
L 162.036412 78.330845 
L 165.222981 79.941141 
L 168.409549 81.562789 
L 171.596118 83.195285 
L 174.782686 84.8381 
L 177.969255 86.490695 
L 181.155823 88.152531 
L 184.342392 89.823075 
L 187.52896 91.501808 
L 190.715528 93.188231 
L 193.902097 94.881869 
L 197.088665 96.582273 
L 200.275234 98.289019 
L 203.461802 100.001712 
L 206.648371 101.719987 
L 209.834939 103.443502 
L 213.021508 105.171943 
L 216.208076 106.905021 
L 219.394645 108.642469 
L 222.581213 110.384042 
L 225.767781 112.129518 
L 228.95435 113.878689 
L 232.140918 115.631369 
L 235.327487 117.387384 
L 238.514055 119.146578 
L 241.700624 120.908807 
L 244.887192 122.673939 
L 248.073761 124.441854 
L 251.260329 126.212441 
L 254.446897 127.9856 
L 257.633466 129.761239 
L 260.820034 131.539273 
L 264.006603 133.319626 
L 267.193171 135.102226 
L 270.37974 136.88701 
L 273.566308 138.673918 
L 276.752877 140.462896 
L 279.939445 142.253896 
L 283.126013 144.046872 
L 286.312582 145.841782 
L 289.49915 147.63859 
L 292.685719 149.437261 
L 295.872287 151.237763 
L 299.058856 153.040069 
L 302.245424 154.844152 
L 305.431993 156.64999 
L 308.618561 158.45756 
L 311.805129 160.266844 
L 314.991698 162.077825 
L 318.178266 163.890488 
L 321.364835 165.704817 
L 324.551403 167.520802 
L 327.737972 169.338432 
L 330.92454 171.157697 
L 334.111109 172.978589 
L 337.297677 174.801102 
L 340.484245 176.625229 
L 343.670814 178.450966 
L 346.857382 180.278309 
L 350.043951 182.107255 
L 353.230519 183.937802 
L 356.417088 185.76995 
L 359.603656 187.603698 
L 362.790225 189.439046 
L 365.976793 191.275996 
L 369.163361 193.11455 
L 372.34993 194.95471 
L 375.536498 196.79648 
L 378.723067 198.639862 
L 381.909635 200.484863 
L 385.096204 202.331486 
L 388.282772 204.179737 
L 391.469341 206.029622 
L 394.655909 207.881147 
L 397.842477 209.73432 
L 397.842477 169.382151 
L 397.842477 169.382151 
L 394.655909 168.03221 
L 391.469341 166.682602 
L 388.282772 165.333324 
L 385.096204 163.984372 
L 381.909635 162.635741 
L 378.723067 161.287426 
L 375.536498 159.939424 
L 372.34993 158.591728 
L 369.163361 157.244333 
L 365.976793 155.897233 
L 362.790225 154.550421 
L 359.603656 153.203891 
L 356.417088 151.857635 
L 353.230519 150.511645 
L 350.043951 149.165912 
L 346.857382 147.820426 
L 343.670814 146.475179 
L 340.484245 145.130159 
L 337.297677 143.785355 
L 334.111109 142.440754 
L 330.92454 141.096344 
L 327.737972 139.75211 
L 324.551403 138.408037 
L 321.364835 137.064109 
L 318.178266 135.720308 
L 314.991698 134.376615 
L 311.805129 133.033011 
L 308.618561 131.689473 
L 305.431993 130.345978 
L 302.245424 129.002501 
L 299.058856 127.659015 
L 295.872287 126.315491 
L 292.685719 124.971896 
L 289.49915 123.628198 
L 286.312582 122.28436 
L 283.126013 120.940342 
L 279.939445 119.596101 
L 276.752877 118.251592 
L 273.566308 116.906764 
L 270.37974 115.561563 
L 267.193171 114.215931 
L 264.006603 112.869805 
L 260.820034 111.523115 
L 257.633466 110.175788 
L 254.446897 108.827741 
L 251.260329 107.478886 
L 248.073761 106.129128 
L 244.887192 104.778363 
L 241.700624 103.426475 
L 238.514055 102.073343 
L 235.327487 100.71883 
L 232.140918 99.36279 
L 228.95435 98.005061 
L 225.767781 96.64547 
L 222.581213 95.283824 
L 219.394645 93.919916 
L 216.208076 92.553519 
L 213.021508 91.184386 
L 209.834939 89.812249 
L 206.648371 88.436814 
L 203.461802 87.057767 
L 200.275234 85.674763 
L 197.088665 84.287436 
L 193.902097 82.895387 
L 190.715528 81.498192 
L 187.52896 80.095401 
L 184.342392 78.686536 
L 181.155823 77.271096 
L 177.969255 75.848563 
L 174.782686 74.418401 
L 171.596118 72.980071 
L 168.409549 71.533032 
L 165.222981 70.076754 
L 162.036412 68.610734 
L 158.849844 67.134501 
L 155.663276 65.647635 
L 152.476707 64.149779 
L 149.290139 62.640649 
L 146.10357 61.120049 
L 142.917002 59.587871 
L 139.730433 58.044108 
L 136.543865 56.488847 
L 133.357296 54.922268 
L 130.170728 53.344641 
L 126.98416 51.756308 
L 123.797591 50.15768 
L 120.611023 48.549218 
L 117.424454 46.931421 
L 114.237886 45.304815 
L 111.051317 43.669938 
L 107.864749 42.027333 
L 104.67818 40.377534 
L 101.491612 38.721065 
L 98.305044 37.058431 
L 95.118475 35.390112 
L 91.931907 33.716565 
L 88.745338 32.038219 
L 85.55877 30.355476 
L 82.372201 28.668711 
z
" clip-path="url(#pd999682cb5)" style="fill: #ff0000; fill-opacity: 0.6"/>
   </g>
   <g id="matplotlib.axis_1">
    <g id="xtick_1">
     <g id="line2d_1">
      <defs>
       <path id="mf562311e10" d="M 0 0 
L 0 3.5 
" style="stroke: #000000; stroke-width: 0.8"/>
      </defs>
      <g>
       <use xlink:href="#mf562311e10" x="139.478862" y="242.728" style="stroke: #000000; stroke-width: 0.8"/>
      </g>
     </g>
     <g id="text_1">
      <!-- $\mathdefault{10^{0}}$ -->
      <g transform="translate(130.678862 257.326437) scale(0.1 -0.1)">
       <defs>
        <path id="DejaVuSans-31" d="M 794 531 
L 1825 531 
L 1825 4091 
L 703 3866 
L 703 4441 
L 1819 4666 
L 2450 4666 
L 2450 531 
L 3481 531 
L 3481 0 
L 794 0 
L 794 531 
z
" transform="scale(0.015625)"/>
        <path id="DejaVuSans-30" d="M 2034 4250 
Q 1547 4250 1301 3770 
Q 1056 3291 1056 2328 
Q 1056 1369 1301 889 
Q 1547 409 2034 409 
Q 2525 409 2770 889 
Q 3016 1369 3016 2328 
Q 3016 3291 2770 3770 
Q 2525 4250 2034 4250 
z
M 2034 4750 
Q 2819 4750 3233 4129 
Q 3647 3509 3647 2328 
Q 3647 1150 3233 529 
Q 2819 -91 2034 -91 
Q 1250 -91 836 529 
Q 422 1150 422 2328 
Q 422 3509 836 4129 
Q 1250 4750 2034 4750 
z
" transform="scale(0.015625)"/>
       </defs>
       <use xlink:href="#DejaVuSans-31" transform="translate(0 0.765625)"/>
       <use xlink:href="#DejaVuSans-30" transform="translate(63.623047 0.765625)"/>
       <use xlink:href="#DejaVuSans-30" transform="translate(128.203125 39.046875) scale(0.7)"/>
      </g>
     </g>
    </g>
    <g id="xtick_2">
     <g id="line2d_2">
      <g>
       <use xlink:href="#mf562311e10" x="273.650166" y="242.728" style="stroke: #000000; stroke-width: 0.8"/>
      </g>
     </g>
     <g id="text_2">
      <!-- $\mathdefault{10^{1}}$ -->
      <g transform="translate(264.850166 257.326437) scale(0.1 -0.1)">
       <use xlink:href="#DejaVuSans-31" transform="translate(0 0.684375)"/>
       <use xlink:href="#DejaVuSans-30" transform="translate(63.623047 0.684375)"/>
       <use xlink:href="#DejaVuSans-31" transform="translate(128.203125 38.965625) scale(0.7)"/>
      </g>
     </g>
    </g>
    <g id="xtick_3">
     <g id="line2d_3">
      <g>
       <use xlink:href="#mf562311e10" x="407.821469" y="242.728" style="stroke: #000000; stroke-width: 0.8"/>
      </g>
     </g>
     <g id="text_3">
      <!-- $\mathdefault{10^{2}}$ -->
      <g transform="translate(399.021469 257.326437) scale(0.1 -0.1)">
       <defs>
        <path id="DejaVuSans-32" d="M 1228 531 
L 3431 531 
L 3431 0 
L 469 0 
L 469 531 
Q 828 903 1448 1529 
Q 2069 2156 2228 2338 
Q 2531 2678 2651 2914 
Q 2772 3150 2772 3378 
Q 2772 3750 2511 3984 
Q 2250 4219 1831 4219 
Q 1534 4219 1204 4116 
Q 875 4013 500 3803 
L 500 4441 
Q 881 4594 1212 4672 
Q 1544 4750 1819 4750 
Q 2544 4750 2975 4387 
Q 3406 4025 3406 3419 
Q 3406 3131 3298 2873 
Q 3191 2616 2906 2266 
Q 2828 2175 2409 1742 
Q 1991 1309 1228 531 
z
" transform="scale(0.015625)"/>
       </defs>
       <use xlink:href="#DejaVuSans-31" transform="translate(0 0.765625)"/>
       <use xlink:href="#DejaVuSans-30" transform="translate(63.623047 0.765625)"/>
       <use xlink:href="#DejaVuSans-32" transform="translate(128.203125 39.046875) scale(0.7)"/>
      </g>
     </g>
    </g>
    <g id="xtick_4">
     <g id="line2d_4">
      <defs>
       <path id="ma48257e8ec" d="M 0 0 
L 0 2 
" style="stroke: #000000; stroke-width: 0.6"/>
      </defs>
      <g>
       <use xlink:href="#ma48257e8ec" x="69.323539" y="242.728" style="stroke: #000000; stroke-width: 0.6"/>
      </g>
     </g>
    </g>
    <g id="xtick_5">
     <g id="line2d_5">
      <g>
       <use xlink:href="#ma48257e8ec" x="86.086732" y="242.728" style="stroke: #000000; stroke-width: 0.6"/>
      </g>
     </g>
    </g>
    <g id="xtick_6">
     <g id="line2d_6">
      <g>
       <use xlink:href="#ma48257e8ec" x="99.089275" y="242.728" style="stroke: #000000; stroke-width: 0.6"/>
      </g>
     </g>
    </g>
    <g id="xtick_7">
     <g id="line2d_7">
      <g>
       <use xlink:href="#ma48257e8ec" x="109.713126" y="242.728" style="stroke: #000000; stroke-width: 0.6"/>
      </g>
     </g>
    </g>
    <g id="xtick_8">
     <g id="line2d_8">
      <g>
       <use xlink:href="#ma48257e8ec" x="118.695464" y="242.728" style="stroke: #000000; stroke-width: 0.6"/>
      </g>
     </g>
    </g>
    <g id="xtick_9">
     <g id="line2d_9">
      <g>
       <use xlink:href="#ma48257e8ec" x="126.476319" y="242.728" style="stroke: #000000; stroke-width: 0.6"/>
      </g>
     </g>
    </g>
    <g id="xtick_10">
     <g id="line2d_10">
      <g>
       <use xlink:href="#ma48257e8ec" x="133.33952" y="242.728" style="stroke: #000000; stroke-width: 0.6"/>
      </g>
     </g>
    </g>
    <g id="xtick_11">
     <g id="line2d_11">
      <g>
       <use xlink:href="#ma48257e8ec" x="179.868449" y="242.728" style="stroke: #000000; stroke-width: 0.6"/>
      </g>
     </g>
    </g>
    <g id="xtick_12">
     <g id="line2d_12">
      <g>
       <use xlink:href="#ma48257e8ec" x="203.494843" y="242.728" style="stroke: #000000; stroke-width: 0.6"/>
      </g>
     </g>
    </g>
    <g id="xtick_13">
     <g id="line2d_13">
      <g>
       <use xlink:href="#ma48257e8ec" x="220.258036" y="242.728" style="stroke: #000000; stroke-width: 0.6"/>
      </g>
     </g>
    </g>
    <g id="xtick_14">
     <g id="line2d_14">
      <g>
       <use xlink:href="#ma48257e8ec" x="233.260579" y="242.728" style="stroke: #000000; stroke-width: 0.6"/>
      </g>
     </g>
    </g>
    <g id="xtick_15">
     <g id="line2d_15">
      <g>
       <use xlink:href="#ma48257e8ec" x="243.88443" y="242.728" style="stroke: #000000; stroke-width: 0.6"/>
      </g>
     </g>
    </g>
    <g id="xtick_16">
     <g id="line2d_16">
      <g>
       <use xlink:href="#ma48257e8ec" x="252.866768" y="242.728" style="stroke: #000000; stroke-width: 0.6"/>
      </g>
     </g>
    </g>
    <g id="xtick_17">
     <g id="line2d_17">
      <g>
       <use xlink:href="#ma48257e8ec" x="260.647623" y="242.728" style="stroke: #000000; stroke-width: 0.6"/>
      </g>
     </g>
    </g>
    <g id="xtick_18">
     <g id="line2d_18">
      <g>
       <use xlink:href="#ma48257e8ec" x="267.510823" y="242.728" style="stroke: #000000; stroke-width: 0.6"/>
      </g>
     </g>
    </g>
    <g id="xtick_19">
     <g id="line2d_19">
      <g>
       <use xlink:href="#ma48257e8ec" x="314.039753" y="242.728" style="stroke: #000000; stroke-width: 0.6"/>
      </g>
     </g>
    </g>
    <g id="xtick_20">
     <g id="line2d_20">
      <g>
       <use xlink:href="#ma48257e8ec" x="337.666146" y="242.728" style="stroke: #000000; stroke-width: 0.6"/>
      </g>
     </g>
    </g>
    <g id="xtick_21">
     <g id="line2d_21">
      <g>
       <use xlink:href="#ma48257e8ec" x="354.42934" y="242.728" style="stroke: #000000; stroke-width: 0.6"/>
      </g>
     </g>
    </g>
    <g id="xtick_22">
     <g id="line2d_22">
      <g>
       <use xlink:href="#ma48257e8ec" x="367.431882" y="242.728" style="stroke: #000000; stroke-width: 0.6"/>
      </g>
     </g>
    </g>
    <g id="xtick_23">
     <g id="line2d_23">
      <g>
       <use xlink:href="#ma48257e8ec" x="378.055733" y="242.728" style="stroke: #000000; stroke-width: 0.6"/>
      </g>
     </g>
    </g>
    <g id="xtick_24">
     <g id="line2d_24">
      <g>
       <use xlink:href="#ma48257e8ec" x="387.038071" y="242.728" style="stroke: #000000; stroke-width: 0.6"/>
      </g>
     </g>
    </g>
    <g id="xtick_25">
     <g id="line2d_25">
      <g>
       <use xlink:href="#ma48257e8ec" x="394.818927" y="242.728" style="stroke: #000000; stroke-width: 0.6"/>
      </g>
     </g>
    </g>
    <g id="xtick_26">
     <g id="line2d_26">
      <g>
       <use xlink:href="#ma48257e8ec" x="401.682127" y="242.728" style="stroke: #000000; stroke-width: 0.6"/>
      </g>
     </g>
    </g>
    <g id="text_4">
     <!-- Energy [TeV] -->
     <g transform="translate(211.186538 271.004562) scale(0.1 -0.1)">
      <defs>
       <path id="DejaVuSans-45" d="M 628 4666 
L 3578 4666 
L 3578 4134 
L 1259 4134 
L 1259 2753 
L 3481 2753 
L 3481 2222 
L 1259 2222 
L 1259 531 
L 3634 531 
L 3634 0 
L 628 0 
L 628 4666 
z
" transform="scale(0.015625)"/>
       <path id="DejaVuSans-6e" d="M 3513 2113 
L 3513 0 
L 2938 0 
L 2938 2094 
Q 2938 2591 2744 2837 
Q 2550 3084 2163 3084 
Q 1697 3084 1428 2787 
Q 1159 2491 1159 1978 
L 1159 0 
L 581 0 
L 581 3500 
L 1159 3500 
L 1159 2956 
Q 1366 3272 1645 3428 
Q 1925 3584 2291 3584 
Q 2894 3584 3203 3211 
Q 3513 2838 3513 2113 
z
" transform="scale(0.015625)"/>
       <path id="DejaVuSans-65" d="M 3597 1894 
L 3597 1613 
L 953 1613 
Q 991 1019 1311 708 
Q 1631 397 2203 397 
Q 2534 397 2845 478 
Q 3156 559 3463 722 
L 3463 178 
Q 3153 47 2828 -22 
Q 2503 -91 2169 -91 
Q 1331 -91 842 396 
Q 353 884 353 1716 
Q 353 2575 817 3079 
Q 1281 3584 2069 3584 
Q 2775 3584 3186 3129 
Q 3597 2675 3597 1894 
z
M 3022 2063 
Q 3016 2534 2758 2815 
Q 2500 3097 2075 3097 
Q 1594 3097 1305 2825 
Q 1016 2553 972 2059 
L 3022 2063 
z
" transform="scale(0.015625)"/>
       <path id="DejaVuSans-72" d="M 2631 2963 
Q 2534 3019 2420 3045 
Q 2306 3072 2169 3072 
Q 1681 3072 1420 2755 
Q 1159 2438 1159 1844 
L 1159 0 
L 581 0 
L 581 3500 
L 1159 3500 
L 1159 2956 
Q 1341 3275 1631 3429 
Q 1922 3584 2338 3584 
Q 2397 3584 2469 3576 
Q 2541 3569 2628 3553 
L 2631 2963 
z
" transform="scale(0.015625)"/>
       <path id="DejaVuSans-67" d="M 2906 1791 
Q 2906 2416 2648 2759 
Q 2391 3103 1925 3103 
Q 1463 3103 1205 2759 
Q 947 2416 947 1791 
Q 947 1169 1205 825 
Q 1463 481 1925 481 
Q 2391 481 2648 825 
Q 2906 1169 2906 1791 
z
M 3481 434 
Q 3481 -459 3084 -895 
Q 2688 -1331 1869 -1331 
Q 1566 -1331 1297 -1286 
Q 1028 -1241 775 -1147 
L 775 -588 
Q 1028 -725 1275 -790 
Q 1522 -856 1778 -856 
Q 2344 -856 2625 -561 
Q 2906 -266 2906 331 
L 2906 616 
Q 2728 306 2450 153 
Q 2172 0 1784 0 
Q 1141 0 747 490 
Q 353 981 353 1791 
Q 353 2603 747 3093 
Q 1141 3584 1784 3584 
Q 2172 3584 2450 3431 
Q 2728 3278 2906 2969 
L 2906 3500 
L 3481 3500 
L 3481 434 
z
" transform="scale(0.015625)"/>
       <path id="DejaVuSans-79" d="M 2059 -325 
Q 1816 -950 1584 -1140 
Q 1353 -1331 966 -1331 
L 506 -1331 
L 506 -850 
L 844 -850 
Q 1081 -850 1212 -737 
Q 1344 -625 1503 -206 
L 1606 56 
L 191 3500 
L 800 3500 
L 1894 763 
L 2988 3500 
L 3597 3500 
L 2059 -325 
z
" transform="scale(0.015625)"/>
       <path id="DejaVuSans-20" transform="scale(0.015625)"/>
       <path id="DejaVuSans-5b" d="M 550 4863 
L 1875 4863 
L 1875 4416 
L 1125 4416 
L 1125 -397 
L 1875 -397 
L 1875 -844 
L 550 -844 
L 550 4863 
z
" transform="scale(0.015625)"/>
       <path id="DejaVuSans-54" d="M -19 4666 
L 3928 4666 
L 3928 4134 
L 2272 4134 
L 2272 0 
L 1638 0 
L 1638 4134 
L -19 4134 
L -19 4666 
z
" transform="scale(0.015625)"/>
       <path id="DejaVuSans-56" d="M 1831 0 
L 50 4666 
L 709 4666 
L 2188 738 
L 3669 4666 
L 4325 4666 
L 2547 0 
L 1831 0 
z
" transform="scale(0.015625)"/>
       <path id="DejaVuSans-5d" d="M 1947 4863 
L 1947 -844 
L 622 -844 
L 622 -397 
L 1369 -397 
L 1369 4416 
L 622 4416 
L 622 4863 
L 1947 4863 
z
" transform="scale(0.015625)"/>
      </defs>
      <use xlink:href="#DejaVuSans-45"/>
      <use xlink:href="#DejaVuSans-6e" x="63.183594"/>
      <use xlink:href="#DejaVuSans-65" x="126.5625"/>
      <use xlink:href="#DejaVuSans-72" x="188.085938"/>
      <use xlink:href="#DejaVuSans-67" x="227.449219"/>
      <use xlink:href="#DejaVuSans-79" x="290.925781"/>
      <use xlink:href="#DejaVuSans-20" x="350.105469"/>
      <use xlink:href="#DejaVuSans-5b" x="381.892578"/>
      <use xlink:href="#DejaVuSans-54" x="420.90625"/>
      <use xlink:href="#DejaVuSans-65" x="464.990234"/>
      <use xlink:href="#DejaVuSans-56" x="526.513672"/>
      <use xlink:href="#DejaVuSans-5d" x="594.921875"/>
     </g>
    </g>
   </g>
   <g id="matplotlib.axis_2">
    <g id="ytick_1">
     <g id="line2d_27">
      <defs>
       <path id="m926425c03b" d="M 0 0 
L -3.5 0 
" style="stroke: #000000; stroke-width: 0.8"/>
      </defs>
      <g>
       <use xlink:href="#m926425c03b" x="64.568389" y="195.01998" style="stroke: #000000; stroke-width: 0.8"/>
      </g>
     </g>
     <g id="text_5">
      <!-- $\mathdefault{10^{-13}}$ -->
      <g transform="translate(29.668389 198.819198) scale(0.1 -0.1)">
       <defs>
        <path id="DejaVuSans-2212" d="M 678 2272 
L 4684 2272 
L 4684 1741 
L 678 1741 
L 678 2272 
z
" transform="scale(0.015625)"/>
        <path id="DejaVuSans-33" d="M 2597 2516 
Q 3050 2419 3304 2112 
Q 3559 1806 3559 1356 
Q 3559 666 3084 287 
Q 2609 -91 1734 -91 
Q 1441 -91 1130 -33 
Q 819 25 488 141 
L 488 750 
Q 750 597 1062 519 
Q 1375 441 1716 441 
Q 2309 441 2620 675 
Q 2931 909 2931 1356 
Q 2931 1769 2642 2001 
Q 2353 2234 1838 2234 
L 1294 2234 
L 1294 2753 
L 1863 2753 
Q 2328 2753 2575 2939 
Q 2822 3125 2822 3475 
Q 2822 3834 2567 4026 
Q 2313 4219 1838 4219 
Q 1578 4219 1281 4162 
Q 984 4106 628 3988 
L 628 4550 
Q 988 4650 1302 4700 
Q 1616 4750 1894 4750 
Q 2613 4750 3031 4423 
Q 3450 4097 3450 3541 
Q 3450 3153 3228 2886 
Q 3006 2619 2597 2516 
z
" transform="scale(0.015625)"/>
       </defs>
       <use xlink:href="#DejaVuSans-31" transform="translate(0 0.765625)"/>
       <use xlink:href="#DejaVuSans-30" transform="translate(63.623047 0.765625)"/>
       <use xlink:href="#DejaVuSans-2212" transform="translate(128.203125 39.046875) scale(0.7)"/>
       <use xlink:href="#DejaVuSans-31" transform="translate(186.855469 39.046875) scale(0.7)"/>
       <use xlink:href="#DejaVuSans-33" transform="translate(231.391602 39.046875) scale(0.7)"/>
      </g>
     </g>
    </g>
    <g id="ytick_2">
     <g id="line2d_28">
      <g>
       <use xlink:href="#m926425c03b" x="64.568389" y="29.190428" style="stroke: #000000; stroke-width: 0.8"/>
      </g>
     </g>
     <g id="text_6">
      <!-- $\mathdefault{10^{-12}}$ -->
      <g transform="translate(29.668389 32.989647) scale(0.1 -0.1)">
       <use xlink:href="#DejaVuSans-31" transform="translate(0 0.765625)"/>
       <use xlink:href="#DejaVuSans-30" transform="translate(63.623047 0.765625)"/>
       <use xlink:href="#DejaVuSans-2212" transform="translate(128.203125 39.046875) scale(0.7)"/>
       <use xlink:href="#DejaVuSans-31" transform="translate(186.855469 39.046875) scale(0.7)"/>
       <use xlink:href="#DejaVuSans-32" transform="translate(231.391602 39.046875) scale(0.7)"/>
      </g>
     </g>
    </g>
    <g id="ytick_3">
     <g id="line2d_29">
      <defs>
       <path id="mcea5af8247" d="M 0 0 
L -2 0 
" style="stroke: #000000; stroke-width: 0.6"/>
      </defs>
      <g>
       <use xlink:href="#mcea5af8247" x="64.568389" y="231.809058" style="stroke: #000000; stroke-width: 0.6"/>
      </g>
     </g>
    </g>
    <g id="ytick_4">
     <g id="line2d_30">
      <g>
       <use xlink:href="#mcea5af8247" x="64.568389" y="220.707302" style="stroke: #000000; stroke-width: 0.6"/>
      </g>
     </g>
    </g>
    <g id="ytick_5">
     <g id="line2d_31">
      <g>
       <use xlink:href="#mcea5af8247" x="64.568389" y="211.090524" style="stroke: #000000; stroke-width: 0.6"/>
      </g>
     </g>
    </g>
    <g id="ytick_6">
     <g id="line2d_32">
      <g>
       <use xlink:href="#mcea5af8247" x="64.568389" y="202.607924" style="stroke: #000000; stroke-width: 0.6"/>
      </g>
     </g>
    </g>
    <g id="ytick_7">
     <g id="line2d_33">
      <g>
       <use xlink:href="#mcea5af8247" x="64.568389" y="145.10031" style="stroke: #000000; stroke-width: 0.6"/>
      </g>
     </g>
    </g>
    <g id="ytick_8">
     <g id="line2d_34">
      <g>
       <use xlink:href="#mcea5af8247" x="64.568389" y="115.899176" style="stroke: #000000; stroke-width: 0.6"/>
      </g>
     </g>
    </g>
    <g id="ytick_9">
     <g id="line2d_35">
      <g>
       <use xlink:href="#mcea5af8247" x="64.568389" y="95.180641" style="stroke: #000000; stroke-width: 0.6"/>
      </g>
     </g>
    </g>
    <g id="ytick_10">
     <g id="line2d_36">
      <g>
       <use xlink:href="#mcea5af8247" x="64.568389" y="79.110097" style="stroke: #000000; stroke-width: 0.6"/>
      </g>
     </g>
    </g>
    <g id="ytick_11">
     <g id="line2d_37">
      <g>
       <use xlink:href="#mcea5af8247" x="64.568389" y="65.979507" style="stroke: #000000; stroke-width: 0.6"/>
      </g>
     </g>
    </g>
    <g id="ytick_12">
     <g id="line2d_38">
      <g>
       <use xlink:href="#mcea5af8247" x="64.568389" y="54.877751" style="stroke: #000000; stroke-width: 0.6"/>
      </g>
     </g>
    </g>
    <g id="ytick_13">
     <g id="line2d_39">
      <g>
       <use xlink:href="#mcea5af8247" x="64.568389" y="45.260972" style="stroke: #000000; stroke-width: 0.6"/>
      </g>
     </g>
    </g>
    <g id="ytick_14">
     <g id="line2d_40">
      <g>
       <use xlink:href="#mcea5af8247" x="64.568389" y="36.778372" style="stroke: #000000; stroke-width: 0.6"/>
      </g>
     </g>
    </g>
    <g id="text_7">
     <!-- E$^2$ dN/dE [TeV cm$^{-2}$ s$^{-1}$] -->
     <g transform="translate(23.588702 188.014) rotate(-90) scale(0.1 -0.1)">
      <defs>
       <path id="DejaVuSans-64" d="M 2906 2969 
L 2906 4863 
L 3481 4863 
L 3481 0 
L 2906 0 
L 2906 525 
Q 2725 213 2448 61 
Q 2172 -91 1784 -91 
Q 1150 -91 751 415 
Q 353 922 353 1747 
Q 353 2572 751 3078 
Q 1150 3584 1784 3584 
Q 2172 3584 2448 3432 
Q 2725 3281 2906 2969 
z
M 947 1747 
Q 947 1113 1208 752 
Q 1469 391 1925 391 
Q 2381 391 2643 752 
Q 2906 1113 2906 1747 
Q 2906 2381 2643 2742 
Q 2381 3103 1925 3103 
Q 1469 3103 1208 2742 
Q 947 2381 947 1747 
z
" transform="scale(0.015625)"/>
       <path id="DejaVuSans-4e" d="M 628 4666 
L 1478 4666 
L 3547 763 
L 3547 4666 
L 4159 4666 
L 4159 0 
L 3309 0 
L 1241 3903 
L 1241 0 
L 628 0 
L 628 4666 
z
" transform="scale(0.015625)"/>
       <path id="DejaVuSans-2f" d="M 1625 4666 
L 2156 4666 
L 531 -594 
L 0 -594 
L 1625 4666 
z
" transform="scale(0.015625)"/>
       <path id="DejaVuSans-63" d="M 3122 3366 
L 3122 2828 
Q 2878 2963 2633 3030 
Q 2388 3097 2138 3097 
Q 1578 3097 1268 2742 
Q 959 2388 959 1747 
Q 959 1106 1268 751 
Q 1578 397 2138 397 
Q 2388 397 2633 464 
Q 2878 531 3122 666 
L 3122 134 
Q 2881 22 2623 -34 
Q 2366 -91 2075 -91 
Q 1284 -91 818 406 
Q 353 903 353 1747 
Q 353 2603 823 3093 
Q 1294 3584 2113 3584 
Q 2378 3584 2631 3529 
Q 2884 3475 3122 3366 
z
" transform="scale(0.015625)"/>
       <path id="DejaVuSans-6d" d="M 3328 2828 
Q 3544 3216 3844 3400 
Q 4144 3584 4550 3584 
Q 5097 3584 5394 3201 
Q 5691 2819 5691 2113 
L 5691 0 
L 5113 0 
L 5113 2094 
Q 5113 2597 4934 2840 
Q 4756 3084 4391 3084 
Q 3944 3084 3684 2787 
Q 3425 2491 3425 1978 
L 3425 0 
L 2847 0 
L 2847 2094 
Q 2847 2600 2669 2842 
Q 2491 3084 2119 3084 
Q 1678 3084 1418 2786 
Q 1159 2488 1159 1978 
L 1159 0 
L 581 0 
L 581 3500 
L 1159 3500 
L 1159 2956 
Q 1356 3278 1631 3431 
Q 1906 3584 2284 3584 
Q 2666 3584 2933 3390 
Q 3200 3197 3328 2828 
z
" transform="scale(0.015625)"/>
       <path id="DejaVuSans-73" d="M 2834 3397 
L 2834 2853 
Q 2591 2978 2328 3040 
Q 2066 3103 1784 3103 
Q 1356 3103 1142 2972 
Q 928 2841 928 2578 
Q 928 2378 1081 2264 
Q 1234 2150 1697 2047 
L 1894 2003 
Q 2506 1872 2764 1633 
Q 3022 1394 3022 966 
Q 3022 478 2636 193 
Q 2250 -91 1575 -91 
Q 1294 -91 989 -36 
Q 684 19 347 128 
L 347 722 
Q 666 556 975 473 
Q 1284 391 1588 391 
Q 1994 391 2212 530 
Q 2431 669 2431 922 
Q 2431 1156 2273 1281 
Q 2116 1406 1581 1522 
L 1381 1569 
Q 847 1681 609 1914 
Q 372 2147 372 2553 
Q 372 3047 722 3315 
Q 1072 3584 1716 3584 
Q 2034 3584 2315 3537 
Q 2597 3491 2834 3397 
z
" transform="scale(0.015625)"/>
      </defs>
      <use xlink:href="#DejaVuSans-45" transform="translate(0 0.765625)"/>
      <use xlink:href="#DejaVuSans-32" transform="translate(64.140625 39.046875) scale(0.7)"/>
      <use xlink:href="#DejaVuSans-20" transform="translate(111.411133 0.765625)"/>
      <use xlink:href="#DejaVuSans-64" transform="translate(143.198242 0.765625)"/>
      <use xlink:href="#DejaVuSans-4e" transform="translate(206.674805 0.765625)"/>
      <use xlink:href="#DejaVuSans-2f" transform="translate(281.479492 0.765625)"/>
      <use xlink:href="#DejaVuSans-64" transform="translate(315.170898 0.765625)"/>
      <use xlink:href="#DejaVuSans-45" transform="translate(378.647461 0.765625)"/>
      <use xlink:href="#DejaVuSans-20" transform="translate(441.831055 0.765625)"/>
      <use xlink:href="#DejaVuSans-5b" transform="translate(473.618164 0.765625)"/>
      <use xlink:href="#DejaVuSans-54" transform="translate(512.631836 0.765625)"/>
      <use xlink:href="#DejaVuSans-65" transform="translate(573.71582 0.765625)"/>
      <use xlink:href="#DejaVuSans-56" transform="translate(635.239258 0.765625)"/>
      <use xlink:href="#DejaVuSans-20" transform="translate(703.647461 0.765625)"/>
      <use xlink:href="#DejaVuSans-63" transform="translate(735.43457 0.765625)"/>
      <use xlink:href="#DejaVuSans-6d" transform="translate(790.415039 0.765625)"/>
      <use xlink:href="#DejaVuSans-2212" transform="translate(888.78418 39.046875) scale(0.7)"/>
      <use xlink:href="#DejaVuSans-32" transform="translate(947.436523 39.046875) scale(0.7)"/>
      <use xlink:href="#DejaVuSans-20" transform="translate(994.707031 0.765625)"/>
      <use xlink:href="#DejaVuSans-73" transform="translate(1026.494141 0.765625)"/>
      <use xlink:href="#DejaVuSans-2212" transform="translate(1079.550781 39.046875) scale(0.7)"/>
      <use xlink:href="#DejaVuSans-31" transform="translate(1138.203125 39.046875) scale(0.7)"/>
      <use xlink:href="#DejaVuSans-5d" transform="translate(1185.473633 0.765625)"/>
     </g>
    </g>
   </g>
   <g id="line2d_41">
    <path d="M 82.372201 34.975389 
L 85.55877 36.508651 
L 88.745338 38.041913 
L 91.931907 39.575174 
L 95.118475 41.108436 
L 98.305044 42.641697 
L 101.491612 44.174959 
L 104.67818 45.70822 
L 107.864749 47.241482 
L 111.051317 48.774743 
L 114.237886 50.308005 
L 117.424454 51.841266 
L 120.611023 53.374528 
L 123.797591 54.90779 
L 126.98416 56.441051 
L 130.170728 57.974313 
L 133.357296 59.507574 
L 136.543865 61.040836 
L 139.730433 62.574097 
L 142.917002 64.107359 
L 146.10357 65.64062 
L 149.290139 67.173882 
L 152.476707 68.707143 
L 155.663276 70.240405 
L 158.849844 71.773667 
L 162.036412 73.306928 
L 165.222981 74.84019 
L 168.409549 76.373451 
L 171.596118 77.906713 
L 174.782686 79.439974 
L 177.969255 80.973236 
L 181.155823 82.506497 
L 184.342392 84.039759 
L 187.52896 85.57302 
L 190.715528 87.106282 
L 193.902097 88.639544 
L 197.088665 90.172805 
L 200.275234 91.706067 
L 203.461802 93.239328 
L 206.648371 94.77259 
L 209.834939 96.305851 
L 213.021508 97.839113 
L 216.208076 99.372374 
L 219.394645 100.905636 
L 222.581213 102.438897 
L 225.767781 103.972159 
L 228.95435 105.505421 
L 232.140918 107.038682 
L 235.327487 108.571944 
L 238.514055 110.105205 
L 241.700624 111.638467 
L 244.887192 113.171728 
L 248.073761 114.70499 
L 251.260329 116.238251 
L 254.446897 117.771513 
L 257.633466 119.304774 
L 260.820034 120.838036 
L 264.006603 122.371298 
L 267.193171 123.904559 
L 270.37974 125.437821 
L 273.566308 126.971082 
L 276.752877 128.504344 
L 279.939445 130.037605 
L 283.126013 131.570867 
L 286.312582 133.104128 
L 289.49915 134.63739 
L 292.685719 136.170651 
L 295.872287 137.703913 
L 299.058856 139.237175 
L 302.245424 140.770436 
L 305.431993 142.303698 
L 308.618561 143.836959 
L 311.805129 145.370221 
L 314.991698 146.903482 
L 318.178266 148.436744 
L 321.364835 149.970005 
L 324.551403 151.503267 
L 327.737972 153.036529 
L 330.92454 154.56979 
L 334.111109 156.103052 
L 337.297677 157.636313 
L 340.484245 159.169575 
L 343.670814 160.702836 
L 346.857382 162.236098 
L 350.043951 163.769359 
L 353.230519 165.302621 
L 356.417088 166.835882 
L 359.603656 168.369144 
L 362.790225 169.902406 
L 365.976793 171.435667 
L 369.163361 172.968929 
L 372.34993 174.50219 
L 375.536498 176.035452 
L 378.723067 177.568713 
L 381.909635 179.101975 
L 385.096204 180.635236 
L 388.282772 182.168498 
L 391.469341 183.701759 
L 394.655909 185.235021 
L 397.842477 186.768283 
" clip-path="url(#pd999682cb5)" style="fill: none; stroke-dasharray: 1.5,2.475; stroke-dashoffset: 0; stroke: #000000; stroke-width: 1.5"/>
   </g>
   <g id="LineCollection_1">
    <path clip-path="url(#pd999682cb5)" style="fill: none; stroke: #8b0000; stroke-width: 1.5"/>
    <path clip-path="url(#pd999682cb5)" style="fill: none; stroke: #8b0000; stroke-width: 1.5"/>
    <path clip-path="url(#pd999682cb5)" style="fill: none; stroke: #8b0000; stroke-width: 1.5"/>
    <path clip-path="url(#pd999682cb5)" style="fill: none; stroke: #8b0000; stroke-width: 1.5"/>
    <path d="M 86.332628 80.031394 
L 86.332628 41.040255 
" clip-path="url(#pd999682cb5)" style="fill: none; stroke: #8b0000; stroke-width: 1.5"/>
    <path d="M 103.104041 54.534363 
L 103.104041 29.691526 
" clip-path="url(#pd999682cb5)" style="fill: none; stroke: #8b0000; stroke-width: 1.5"/>
    <path d="M 119.875453 96.231516 
L 119.875453 61.800366 
" clip-path="url(#pd999682cb5)" style="fill: none; stroke: #8b0000; stroke-width: 1.5"/>
    <path d="M 136.646866 74.406608 
L 136.646866 48.231977 
" clip-path="url(#pd999682cb5)" style="fill: none; stroke: #8b0000; stroke-width: 1.5"/>
    <path d="M 153.41828 55.144441 
L 153.41828 33.721216 
" clip-path="url(#pd999682cb5)" style="fill: none; stroke: #8b0000; stroke-width: 1.5"/>
    <path d="M 170.189693 68.537173 
L 170.189693 44.303363 
" clip-path="url(#pd999682cb5)" style="fill: none; stroke: #8b0000; stroke-width: 1.5"/>
    <path d="M 186.961104 96.902888 
L 186.961104 64.361956 
" clip-path="url(#pd999682cb5)" style="fill: none; stroke: #8b0000; stroke-width: 1.5"/>
    <path d="M 203.732518 77.720409 
L 203.732518 48.751691 
" clip-path="url(#pd999682cb5)" style="fill: none; stroke: #8b0000; stroke-width: 1.5"/>
    <path d="M 220.503932 154.857079 
L 220.503932 97.187911 
" clip-path="url(#pd999682cb5)" style="fill: none; stroke: #8b0000; stroke-width: 1.5"/>
    <path d="M 237.275344 95.736635 
L 237.275344 58.2525 
" clip-path="url(#pd999682cb5)" style="fill: none; stroke: #8b0000; stroke-width: 1.5"/>
    <path d="M 254.046755 185.307533 
L 254.046755 106.793897 
" clip-path="url(#pd999682cb5)" style="fill: none; stroke: #8b0000; stroke-width: 1.5"/>
    <path d="M 270.818169 141.817511 
L 270.818169 79.576101 
" clip-path="url(#pd999682cb5)" style="fill: none; stroke: #8b0000; stroke-width: 1.5"/>
    <path d="M 287.589583 271.846683 
L 287.589583 120.423433 
" clip-path="url(#pd999682cb5)" style="fill: none; stroke: #8b0000; stroke-width: 1.5"/>
    <path d="M 304.360998 289 
L 304.360998 149.733668 
" clip-path="url(#pd999682cb5)" style="fill: none; stroke: #8b0000; stroke-width: 1.5"/>
    <path d="M 321.13241 289 
L 321.13241 149.114174 
" clip-path="url(#pd999682cb5)" style="fill: none; stroke: #8b0000; stroke-width: 1.5"/>
    <path clip-path="url(#pd999682cb5)" style="fill: none; stroke: #8b0000; stroke-width: 1.5"/>
    <path d="M 354.675234 289 
L 354.675234 213.67172 
" clip-path="url(#pd999682cb5)" style="fill: none; stroke: #8b0000; stroke-width: 1.5"/>
    <path clip-path="url(#pd999682cb5)" style="fill: none; stroke: #8b0000; stroke-width: 1.5"/>
    <path d="M 388.218058 289 
L 388.218058 95.166054 
" clip-path="url(#pd999682cb5)" style="fill: none; stroke: #8b0000; stroke-width: 1.5"/>
    <path clip-path="url(#pd999682cb5)" style="fill: none; stroke: #8b0000; stroke-width: 1.5"/>
   </g>
   <g id="LineCollection_2">
    <path clip-path="url(#pd999682cb5)" style="fill: none; stroke: #006400; stroke-width: 1.5"/>
    <path clip-path="url(#pd999682cb5)" style="fill: none; stroke: #006400; stroke-width: 1.5"/>
    <path clip-path="url(#pd999682cb5)" style="fill: none; stroke: #006400; stroke-width: 1.5"/>
    <path clip-path="url(#pd999682cb5)" style="fill: none; stroke: #006400; stroke-width: 1.5"/>
    <path d="M 80.778917 96.721291 
L 80.778917 53.042659 
" clip-path="url(#pd999682cb5)" style="fill: none; stroke: #006400; stroke-width: 1.5"/>
    <path d="M 97.550331 62.390143 
L 97.550331 35.471063 
" clip-path="url(#pd999682cb5)" style="fill: none; stroke: #006400; stroke-width: 1.5"/>
    <path d="M 114.321743 82.875586 
L 114.321743 49.251613 
" clip-path="url(#pd999682cb5)" style="fill: none; stroke: #006400; stroke-width: 1.5"/>
    <path d="M 131.093155 69.392567 
L 131.093155 42.510562 
" clip-path="url(#pd999682cb5)" style="fill: none; stroke: #006400; stroke-width: 1.5"/>
    <path d="M 147.86457 47.690573 
L 147.86457 25.295871 
" clip-path="url(#pd999682cb5)" style="fill: none; stroke: #006400; stroke-width: 1.5"/>
    <path d="M 164.635983 66.718206 
L 164.635983 41.283545 
" clip-path="url(#pd999682cb5)" style="fill: none; stroke: #006400; stroke-width: 1.5"/>
    <path d="M 181.407394 98.965617 
L 181.407394 65.033542 
" clip-path="url(#pd999682cb5)" style="fill: none; stroke: #006400; stroke-width: 1.5"/>
    <path d="M 198.178807 81.846859 
L 198.178807 51.149769 
" clip-path="url(#pd999682cb5)" style="fill: none; stroke: #006400; stroke-width: 1.5"/>
    <path d="M 214.950222 164.003818 
L 214.950222 103.259538 
" clip-path="url(#pd999682cb5)" style="fill: none; stroke: #006400; stroke-width: 1.5"/>
    <path d="M 231.721634 109.266318 
L 231.721634 69.178777 
" clip-path="url(#pd999682cb5)" style="fill: none; stroke: #006400; stroke-width: 1.5"/>
    <path d="M 248.493045 196.581741 
L 248.493045 113.732928 
" clip-path="url(#pd999682cb5)" style="fill: none; stroke: #006400; stroke-width: 1.5"/>
    <path d="M 265.264458 154.698804 
L 265.264458 88.7636 
" clip-path="url(#pd999682cb5)" style="fill: none; stroke: #006400; stroke-width: 1.5"/>
    <path d="M 282.035873 289 
L 282.035873 133.137275 
" clip-path="url(#pd999682cb5)" style="fill: none; stroke: #006400; stroke-width: 1.5"/>
    <path d="M 298.807287 289 
L 298.807287 143.0323 
" clip-path="url(#pd999682cb5)" style="fill: none; stroke: #006400; stroke-width: 1.5"/>
    <path d="M 315.5787 289 
L 315.5787 142.989399 
" clip-path="url(#pd999682cb5)" style="fill: none; stroke: #006400; stroke-width: 1.5"/>
    <path clip-path="url(#pd999682cb5)" style="fill: none; stroke: #006400; stroke-width: 1.5"/>
    <path d="M 349.121524 289 
L 349.121524 206.318325 
" clip-path="url(#pd999682cb5)" style="fill: none; stroke: #006400; stroke-width: 1.5"/>
    <path clip-path="url(#pd999682cb5)" style="fill: none; stroke: #006400; stroke-width: 1.5"/>
    <path d="M 382.664348 289 
L 382.664348 87.394312 
" clip-path="url(#pd999682cb5)" style="fill: none; stroke: #006400; stroke-width: 1.5"/>
    <path clip-path="url(#pd999682cb5)" style="fill: none; stroke: #006400; stroke-width: 1.5"/>
   </g>
   <g id="line2d_42">
    <defs>
     <path id="mc17395af94" d="M 0 3 
C 0.795609 3 1.55874 2.683901 2.12132 2.12132 
C 2.683901 1.55874 3 0.795609 3 0 
C 3 -0.795609 2.683901 -1.55874 2.12132 -2.12132 
C 1.55874 -2.683901 0.795609 -3 0 -3 
C -0.795609 -3 -1.55874 -2.683901 -2.12132 -2.12132 
C -2.683901 -1.55874 -3 -0.795609 -3 0 
C -3 0.795609 -2.683901 1.55874 -2.12132 2.12132 
C -1.55874 2.683901 -0.795609 3 0 3 
z
" style="stroke: #8b0000"/>
    </defs>
    <g clip-path="url(#pd999682cb5)">
     <use xlink:href="#mc17395af94" x="86.332628" y="57.928702" style="fill: #8b0000; stroke: #8b0000"/>
     <use xlink:href="#mc17395af94" x="103.104041" y="41.047024" style="fill: #8b0000; stroke: #8b0000"/>
     <use xlink:href="#mc17395af94" x="119.875453" y="76.977616" style="fill: #8b0000; stroke: #8b0000"/>
     <use xlink:href="#mc17395af94" x="136.646866" y="60.136662" style="fill: #8b0000; stroke: #8b0000"/>
     <use xlink:href="#mc17395af94" x="153.41828" y="43.639161" style="fill: #8b0000; stroke: #8b0000"/>
     <use xlink:href="#mc17395af94" x="170.189693" y="55.405729" style="fill: #8b0000; stroke: #8b0000"/>
     <use xlink:href="#mc17395af94" x="186.961104" y="78.809939" style="fill: #8b0000; stroke: #8b0000"/>
     <use xlink:href="#mc17395af94" x="203.732518" y="61.789225" style="fill: #8b0000; stroke: #8b0000"/>
     <use xlink:href="#mc17395af94" x="220.503932" y="120.398095" style="fill: #8b0000; stroke: #8b0000"/>
     <use xlink:href="#mc17395af94" x="237.275344" y="74.582904" style="fill: #8b0000; stroke: #8b0000"/>
     <use xlink:href="#mc17395af94" x="254.046755" y="135.842759" style="fill: #8b0000; stroke: #8b0000"/>
     <use xlink:href="#mc17395af94" x="270.818169" y="104.172278" style="fill: #8b0000; stroke: #8b0000"/>
     <use xlink:href="#mc17395af94" x="287.589583" y="162.04353" style="fill: #8b0000; stroke: #8b0000"/>
     <use xlink:href="#mc17395af94" x="304.360998" y="222.465399" style="fill: #8b0000; stroke: #8b0000"/>
     <use xlink:href="#mc17395af94" x="321.13241" y="232.185818" style="fill: #8b0000; stroke: #8b0000"/>
     <use xlink:href="#mc17395af94" x="323.233986" y="20737" style="fill: #8b0000; stroke: #8b0000"/>
     <use xlink:href="#mc17395af94" x="386.109216" y="20737" style="fill: #8b0000; stroke: #8b0000"/>
     <use xlink:href="#mc17395af94" x="388.218058" y="151.080922" style="fill: #8b0000; stroke: #8b0000"/>
     <use xlink:href="#mc17395af94" x="390.326902" y="20737" style="fill: #8b0000; stroke: #8b0000"/>
    </g>
   </g>
   <g id="line2d_43">
    <defs>
     <path id="mddcc40b0a0" d="M 0 3 
C 0.795609 3 1.55874 2.683901 2.12132 2.12132 
C 2.683901 1.55874 3 0.795609 3 0 
C 3 -0.795609 2.683901 -1.55874 2.12132 -2.12132 
C 1.55874 -2.683901 0.795609 -3 0 -3 
C -0.795609 -3 -1.55874 -2.683901 -2.12132 -2.12132 
C -2.683901 -1.55874 -3 -0.795609 -3 0 
C -3 0.795609 -2.683901 1.55874 -2.12132 2.12132 
C -1.55874 2.683901 -0.795609 3 0 3 
z
" style="stroke: #006400"/>
    </defs>
    <g clip-path="url(#pd999682cb5)">
     <use xlink:href="#mddcc40b0a0" x="80.778917" y="71.620189" style="fill: #006400; stroke: #006400"/>
     <use xlink:href="#mddcc40b0a0" x="97.550331" y="47.680137" style="fill: #006400; stroke: #006400"/>
     <use xlink:href="#mddcc40b0a0" x="114.321743" y="64.118883" style="fill: #006400; stroke: #006400"/>
     <use xlink:href="#mddcc40b0a0" x="131.093155" y="54.70452" style="fill: #006400; stroke: #006400"/>
     <use xlink:href="#mddcc40b0a0" x="147.86457" y="35.626236" style="fill: #006400; stroke: #006400"/>
     <use xlink:href="#mddcc40b0a0" x="164.635983" y="52.883828" style="fill: #006400; stroke: #006400"/>
     <use xlink:href="#mddcc40b0a0" x="181.407394" y="80.019385" style="fill: #006400; stroke: #006400"/>
     <use xlink:href="#mddcc40b0a0" x="198.178807" y="64.875018" style="fill: #006400; stroke: #006400"/>
     <use xlink:href="#mddcc40b0a0" x="214.950222" y="127.408629" style="fill: #006400; stroke: #006400"/>
     <use xlink:href="#mddcc40b0a0" x="231.721634" y="86.468609" style="fill: #006400; stroke: #006400"/>
     <use xlink:href="#mddcc40b0a0" x="248.493045" y="143.848129" style="fill: #006400; stroke: #006400"/>
     <use xlink:href="#mddcc40b0a0" x="265.264458" y="114.435202" style="fill: #006400; stroke: #006400"/>
     <use xlink:href="#mddcc40b0a0" x="282.035873" y="177.232832" style="fill: #006400; stroke: #006400"/>
     <use xlink:href="#mddcc40b0a0" x="298.807287" y="213.270455" style="fill: #006400; stroke: #006400"/>
     <use xlink:href="#mddcc40b0a0" x="315.5787" y="223.287081" style="fill: #006400; stroke: #006400"/>
     <use xlink:href="#mddcc40b0a0" x="317.681073" y="20737" style="fill: #006400; stroke: #006400"/>
     <use xlink:href="#mddcc40b0a0" x="380.554787" y="20737" style="fill: #006400; stroke: #006400"/>
     <use xlink:href="#mddcc40b0a0" x="382.664348" y="143.066456" style="fill: #006400; stroke: #006400"/>
     <use xlink:href="#mddcc40b0a0" x="384.773909" y="20737" style="fill: #006400; stroke: #006400"/>
    </g>
   </g>
   <g id="patch_3">
    <path d="M 64.568389 242.728 
L 64.568389 10.8 
" style="fill: none; stroke: #000000; stroke-width: 0.8; stroke-linejoin: miter; stroke-linecap: square"/>
   </g>
   <g id="patch_4">
    <path d="M 421.2 242.728 
L 421.2 10.8 
" style="fill: none; stroke: #000000; stroke-width: 0.8; stroke-linejoin: miter; stroke-linecap: square"/>
   </g>
   <g id="patch_5">
    <path d="M 64.568389 242.728 
L 421.2 242.728 
" style="fill: none; stroke: #000000; stroke-width: 0.8; stroke-linejoin: miter; stroke-linecap: square"/>
   </g>
   <g id="patch_6">
    <path d="M 64.568389 10.8 
L 421.2 10.8 
" style="fill: none; stroke: #000000; stroke-width: 0.8; stroke-linejoin: miter; stroke-linecap: square"/>
   </g>
   <g id="legend_1">
    <g id="patch_7">
     <path d="M 320.3 62.834375 
L 414.2 62.834375 
Q 416.2 62.834375 416.2 60.834375 
L 416.2 17.8 
Q 416.2 15.8 414.2 15.8 
L 320.3 15.8 
Q 318.3 15.8 318.3 17.8 
L 318.3 60.834375 
Q 318.3 62.834375 320.3 62.834375 
z
" style="fill: #ffffff; opacity: 0.8; stroke: #cccccc; stroke-linejoin: miter"/>
    </g>
    <g id="patch_8">
     <path d="M 322.3 27.398438 
L 342.3 27.398438 
L 342.3 20.398438 
L 322.3 20.398438 
z
" style="fill: #008000; fill-opacity: 0.5"/>
    </g>
    <g id="text_8">
     <!-- $1\sigma$ Nuisance -->
     <g transform="translate(350.3 27.398438) scale(0.1 -0.1)">
      <defs>
       <path id="DejaVuSans-Oblique-3c3" d="M 2219 3044 
Q 1744 3044 1422 2700 
Q 1081 2341 969 1747 
Q 844 1119 1044 756 
Q 1241 397 1706 397 
Q 2166 397 2503 759 
Q 2844 1122 2966 1747 
Q 3075 2319 2881 2700 
Q 2700 3044 2219 3044 
z
M 2309 3503 
L 4219 3500 
L 4106 2925 
L 3463 2925 
Q 3706 2438 3575 1747 
Q 3406 888 2884 400 
Q 2359 -91 1609 -91 
Q 856 -91 525 400 
Q 194 888 363 1747 
Q 528 2609 1050 3097 
Q 1484 3503 2309 3503 
z
" transform="scale(0.015625)"/>
       <path id="DejaVuSans-75" d="M 544 1381 
L 544 3500 
L 1119 3500 
L 1119 1403 
Q 1119 906 1312 657 
Q 1506 409 1894 409 
Q 2359 409 2629 706 
Q 2900 1003 2900 1516 
L 2900 3500 
L 3475 3500 
L 3475 0 
L 2900 0 
L 2900 538 
Q 2691 219 2414 64 
Q 2138 -91 1772 -91 
Q 1169 -91 856 284 
Q 544 659 544 1381 
z
M 1991 3584 
L 1991 3584 
z
" transform="scale(0.015625)"/>
       <path id="DejaVuSans-69" d="M 603 3500 
L 1178 3500 
L 1178 0 
L 603 0 
L 603 3500 
z
M 603 4863 
L 1178 4863 
L 1178 4134 
L 603 4134 
L 603 4863 
z
" transform="scale(0.015625)"/>
       <path id="DejaVuSans-61" d="M 2194 1759 
Q 1497 1759 1228 1600 
Q 959 1441 959 1056 
Q 959 750 1161 570 
Q 1363 391 1709 391 
Q 2188 391 2477 730 
Q 2766 1069 2766 1631 
L 2766 1759 
L 2194 1759 
z
M 3341 1997 
L 3341 0 
L 2766 0 
L 2766 531 
Q 2569 213 2275 61 
Q 1981 -91 1556 -91 
Q 1019 -91 701 211 
Q 384 513 384 1019 
Q 384 1609 779 1909 
Q 1175 2209 1959 2209 
L 2766 2209 
L 2766 2266 
Q 2766 2663 2505 2880 
Q 2244 3097 1772 3097 
Q 1472 3097 1187 3025 
Q 903 2953 641 2809 
L 641 3341 
Q 956 3463 1253 3523 
Q 1550 3584 1831 3584 
Q 2591 3584 2966 3190 
Q 3341 2797 3341 1997 
z
" transform="scale(0.015625)"/>
      </defs>
      <use xlink:href="#DejaVuSans-31" transform="translate(0 0.015625)"/>
      <use xlink:href="#DejaVuSans-Oblique-3c3" transform="translate(63.623047 0.015625)"/>
      <use xlink:href="#DejaVuSans-20" transform="translate(127.001953 0.015625)"/>
      <use xlink:href="#DejaVuSans-4e" transform="translate(158.789062 0.015625)"/>
      <use xlink:href="#DejaVuSans-75" transform="translate(233.59375 0.015625)"/>
      <use xlink:href="#DejaVuSans-69" transform="translate(296.972656 0.015625)"/>
      <use xlink:href="#DejaVuSans-73" transform="translate(324.755859 0.015625)"/>
      <use xlink:href="#DejaVuSans-61" transform="translate(376.855469 0.015625)"/>
      <use xlink:href="#DejaVuSans-6e" transform="translate(438.134766 0.015625)"/>
      <use xlink:href="#DejaVuSans-63" transform="translate(501.513672 0.015625)"/>
      <use xlink:href="#DejaVuSans-65" transform="translate(556.494141 0.015625)"/>
     </g>
    </g>
    <g id="patch_9">
     <path d="M 322.3 42.076562 
L 342.3 42.076562 
L 342.3 35.076562 
L 322.3 35.076562 
z
" style="fill: #ff0000; fill-opacity: 0.6"/>
    </g>
    <g id="text_9">
     <!-- $1\sigma$ Standard -->
     <g transform="translate(350.3 42.076562) scale(0.1 -0.1)">
      <defs>
       <path id="DejaVuSans-53" d="M 3425 4513 
L 3425 3897 
Q 3066 4069 2747 4153 
Q 2428 4238 2131 4238 
Q 1616 4238 1336 4038 
Q 1056 3838 1056 3469 
Q 1056 3159 1242 3001 
Q 1428 2844 1947 2747 
L 2328 2669 
Q 3034 2534 3370 2195 
Q 3706 1856 3706 1288 
Q 3706 609 3251 259 
Q 2797 -91 1919 -91 
Q 1588 -91 1214 -16 
Q 841 59 441 206 
L 441 856 
Q 825 641 1194 531 
Q 1563 422 1919 422 
Q 2459 422 2753 634 
Q 3047 847 3047 1241 
Q 3047 1584 2836 1778 
Q 2625 1972 2144 2069 
L 1759 2144 
Q 1053 2284 737 2584 
Q 422 2884 422 3419 
Q 422 4038 858 4394 
Q 1294 4750 2059 4750 
Q 2388 4750 2728 4690 
Q 3069 4631 3425 4513 
z
" transform="scale(0.015625)"/>
       <path id="DejaVuSans-74" d="M 1172 4494 
L 1172 3500 
L 2356 3500 
L 2356 3053 
L 1172 3053 
L 1172 1153 
Q 1172 725 1289 603 
Q 1406 481 1766 481 
L 2356 481 
L 2356 0 
L 1766 0 
Q 1100 0 847 248 
Q 594 497 594 1153 
L 594 3053 
L 172 3053 
L 172 3500 
L 594 3500 
L 594 4494 
L 1172 4494 
z
" transform="scale(0.015625)"/>
      </defs>
      <use xlink:href="#DejaVuSans-31" transform="translate(0 0.015625)"/>
      <use xlink:href="#DejaVuSans-Oblique-3c3" transform="translate(63.623047 0.015625)"/>
      <use xlink:href="#DejaVuSans-20" transform="translate(127.001953 0.015625)"/>
      <use xlink:href="#DejaVuSans-53" transform="translate(158.789062 0.015625)"/>
      <use xlink:href="#DejaVuSans-74" transform="translate(222.265625 0.015625)"/>
      <use xlink:href="#DejaVuSans-61" transform="translate(261.474609 0.015625)"/>
      <use xlink:href="#DejaVuSans-6e" transform="translate(322.753906 0.015625)"/>
      <use xlink:href="#DejaVuSans-64" transform="translate(386.132812 0.015625)"/>
      <use xlink:href="#DejaVuSans-61" transform="translate(449.609375 0.015625)"/>
      <use xlink:href="#DejaVuSans-72" transform="translate(510.888672 0.015625)"/>
      <use xlink:href="#DejaVuSans-64" transform="translate(552.001953 0.015625)"/>
     </g>
    </g>
    <g id="line2d_44">
     <path d="M 322.3 53.254687 
L 332.3 53.254687 
L 342.3 53.254687 
" style="fill: none; stroke-dasharray: 1.5,2.475; stroke-dashoffset: 0; stroke: #000000; stroke-width: 1.5"/>
    </g>
    <g id="text_10">
     <!-- Input -->
     <g transform="translate(350.3 56.754687) scale(0.1 -0.1)">
      <defs>
       <path id="DejaVuSans-49" d="M 628 4666 
L 1259 4666 
L 1259 0 
L 628 0 
L 628 4666 
z
" transform="scale(0.015625)"/>
       <path id="DejaVuSans-70" d="M 1159 525 
L 1159 -1331 
L 581 -1331 
L 581 3500 
L 1159 3500 
L 1159 2969 
Q 1341 3281 1617 3432 
Q 1894 3584 2278 3584 
Q 2916 3584 3314 3078 
Q 3713 2572 3713 1747 
Q 3713 922 3314 415 
Q 2916 -91 2278 -91 
Q 1894 -91 1617 61 
Q 1341 213 1159 525 
z
M 3116 1747 
Q 3116 2381 2855 2742 
Q 2594 3103 2138 3103 
Q 1681 3103 1420 2742 
Q 1159 2381 1159 1747 
Q 1159 1113 1420 752 
Q 1681 391 2138 391 
Q 2594 391 2855 752 
Q 3116 1113 3116 1747 
z
" transform="scale(0.015625)"/>
      </defs>
      <use xlink:href="#DejaVuSans-49"/>
      <use xlink:href="#DejaVuSans-6e" x="29.492188"/>
      <use xlink:href="#DejaVuSans-70" x="92.871094"/>
      <use xlink:href="#DejaVuSans-75" x="156.347656"/>
      <use xlink:href="#DejaVuSans-74" x="219.726562"/>
     </g>
    </g>
   </g>
  </g>
 </g>
 <defs>
  <clipPath id="pd999682cb5">
   <rect x="64.568389" y="10.8" width="356.631611" height="231.928"/>
  </clipPath>
 </defs>
</svg>
