<?xml version="1.0" encoding="utf-8" standalone="no"?>
<!DOCTYPE svg PUBLIC "-//W3C//DTD SVG 1.1//EN"
  "http://www.w3.org/Graphics/SVG/1.1/DTD/svg11.dtd">
<svg xmlns:xlink="http://www.w3.org/1999/xlink" width="432pt" height="288pt" viewBox="0 0 432 288" xmlns="http://www.w3.org/2000/svg" version="1.1">
 <metadata>
  <rdf:RDF xmlns:dc="http://purl.org/dc/elements/1.1/" xmlns:cc="http://creativecommons.org/ns#" xmlns:rdf="http://www.w3.org/1999/02/22-rdf-syntax-ns#">
   <cc:Work>
    <dc:type rdf:resource="http://purl.org/dc/dcmitype/StillImage"/>
    <dc:date>2023-03-21T14:08:46.583005</dc:date>
    <dc:format>image/svg+xml</dc:format>
    <dc:creator>
     <cc:Agent>
      <dc:title>Matplotlib v3.6.2, https://matplotlib.org/</dc:title>
     </cc:Agent>
    </dc:creator>
   </cc:Work>
  </rdf:RDF>
 </metadata>
 <defs>
  <style type="text/css">*{stroke-linejoin: round; stroke-linecap: butt}</style>
 </defs>
 <g id="figure_1">
  <g id="patch_1">
   <path d="M 0 288 
L 432 288 
L 432 0 
L 0 0 
z
" style="fill: #ffffff"/>
  </g>
  <g id="axes_1">
   <g id="patch_2">
    <path d="M 64.467139 242.728 
L 421.2 242.728 
L 421.2 16.416 
L 64.467139 16.416 
z
" style="fill: #ffffff"/>
   </g>
   <g id="PolyCollection_1">
    <path d="M 82.876079 81.795092 
L 82.876079 103.552868 
L 87.371662 103.735754 
L 91.867245 103.926351 
L 96.362828 104.124986 
L 100.858411 104.332002 
L 105.353994 104.547761 
L 109.849577 104.772645 
L 114.34516 105.007055 
L 118.840743 105.251417 
L 123.336326 105.506176 
L 127.831909 105.771805 
L 132.327492 106.048802 
L 136.823075 106.337691 
L 141.318658 106.639029 
L 145.814241 106.953401 
L 150.309824 107.281425 
L 154.805407 107.623757 
L 159.30099 107.981086 
L 163.796573 108.354143 
L 168.292157 108.7437 
L 172.78774 109.150575 
L 177.283323 109.57563 
L 181.778906 110.01978 
L 186.274489 110.483992 
L 190.770072 110.969288 
L 195.265655 111.476754 
L 199.761238 112.007537 
L 204.256821 112.562851 
L 208.752404 113.143985 
L 213.247987 113.752303 
L 217.74357 114.389252 
L 222.239153 115.056366 
L 226.734736 115.75527 
L 231.230319 116.487691 
L 235.725902 117.25546 
L 240.221485 118.06052 
L 244.717068 118.904934 
L 249.212651 119.790896 
L 253.708234 120.720734 
L 258.203817 121.696925 
L 262.699401 122.722099 
L 267.194984 123.799058 
L 271.690567 124.930781 
L 276.18615 126.120441 
L 280.681733 127.371415 
L 285.177316 128.687302 
L 289.672899 130.071939 
L 294.168482 131.529418 
L 298.664065 133.064103 
L 303.159648 134.680653 
L 307.655231 136.384043 
L 312.150814 138.179585 
L 316.646397 140.072959 
L 321.14198 142.070235 
L 325.637563 144.177905 
L 330.133146 146.402911 
L 334.628729 148.752682 
L 339.124312 151.235164 
L 343.619895 153.858861 
L 348.115478 156.632868 
L 352.611061 159.566914 
L 357.106644 162.671402 
L 361.602228 165.957449 
L 366.097811 169.436927 
L 370.593394 173.12251 
L 375.088977 177.027714 
L 379.58456 181.166938 
L 384.080143 185.555518 
L 388.575726 190.209766 
L 393.071309 195.147024 
L 397.566892 200.385721 
L 402.062475 205.945439 
L 406.558058 211.846982 
L 411.053641 218.11247 
L 415.549224 224.765445 
L 420.044807 231.831 
L 424.54039 239.335934 
L 429.035973 247.308949 
L 433.531556 255.780876 
L 438.027139 264.784964 
L 442.522722 274.357224 
L 447.018305 284.536856 
L 451.513888 295.366784 
L 456.009472 306.894324 
L 460.505055 319.172046 
L 465.000638 332.258893 
L 469.496221 346.221674 
L 473.991804 361.137101 
L 478.487387 377.094639 
L 482.98297 394.200626 
L 487.478553 412.584405 
L 491.974136 432.407866 
L 496.469719 453.880957 
L 500.965302 477.288401 
L 505.460885 503.039074 
L 509.956468 531.766107 
L 514.452051 564.557082 
L 518.947634 603.591595 
L 523.443217 654.557452 
L 527.9388 745.950957 
L 527.9388 492.412642 
L 527.9388 492.412642 
L 523.443217 470.948684 
L 518.947634 450.659316 
L 514.452051 431.478805 
L 509.956468 413.34495 
L 505.460885 396.198893 
L 500.965302 379.984955 
L 496.469719 364.650465 
L 491.974136 350.145607 
L 487.478553 336.423276 
L 482.98297 323.43894 
L 478.487387 311.150508 
L 473.991804 299.51821 
L 469.496221 288.50448 
L 465.000638 278.073852 
L 460.505055 268.192857 
L 456.009472 258.829931 
L 451.513888 249.955326 
L 447.018305 241.54103 
L 442.522722 233.560686 
L 438.027139 225.989525 
L 433.531556 218.804291 
L 429.035973 211.983179 
L 424.54039 205.505765 
L 420.044807 199.352941 
L 415.549224 193.506851 
L 411.053641 187.950821 
L 406.558058 182.669288 
L 402.062475 177.647736 
L 397.566892 172.872612 
L 393.071309 168.331265 
L 388.575726 164.011863 
L 384.080143 159.903331 
L 379.58456 155.995275 
L 375.088977 152.277926 
L 370.593394 148.742072 
L 366.097811 145.379014 
L 361.602228 142.180509 
L 357.106644 139.138736 
L 352.611061 136.246256 
L 348.115478 133.495979 
L 343.619895 130.881145 
L 339.124312 128.395293 
L 334.628729 126.032248 
L 330.133146 123.786106 
L 325.637563 121.651215 
L 321.14198 119.622169 
L 316.646397 117.693793 
L 312.150814 115.861138 
L 307.655231 114.119469 
L 303.159648 112.464259 
L 298.664065 110.891181 
L 294.168482 109.396103 
L 289.672899 107.975077 
L 285.177316 106.624335 
L 280.681733 105.340282 
L 276.18615 104.11949 
L 271.690567 102.958691 
L 267.194984 101.854769 
L 262.699401 100.804759 
L 258.203817 99.805836 
L 253.708234 98.855312 
L 249.212651 97.950628 
L 244.717068 97.089351 
L 240.221485 96.269167 
L 235.725902 95.487875 
L 231.230319 94.743386 
L 226.734736 94.033712 
L 222.239153 93.356967 
L 217.74357 92.711357 
L 213.247987 92.095181 
L 208.752404 91.506823 
L 204.256821 90.94475 
L 199.761238 90.407505 
L 195.265655 89.893707 
L 190.770072 89.402048 
L 186.274489 88.931283 
L 181.778906 88.480235 
L 177.283323 88.047785 
L 172.78774 87.632875 
L 168.292157 87.2345 
L 163.796573 86.851708 
L 159.30099 86.483598 
L 154.805407 86.129315 
L 150.309824 85.78805 
L 145.814241 85.459035 
L 141.318658 85.141546 
L 136.823075 84.834893 
L 132.327492 84.538427 
L 127.831909 84.251532 
L 123.336326 83.973624 
L 118.840743 83.704153 
L 114.34516 83.442597 
L 109.849577 83.188462 
L 105.353994 82.941281 
L 100.858411 82.700615 
L 96.362828 82.466046 
L 91.867245 82.237181 
L 87.371662 82.013646 
L 82.876079 81.795092 
z
" clip-path="url(#p95c006ac43)" style="fill: #008000; fill-opacity: 0.5"/>
   </g>
   <g id="PolyCollection_2">
    <path d="M 82.876079 89.41589 
L 82.876079 94.014923 
L 87.371662 94.127508 
L 91.867245 94.249101 
L 96.362828 94.380285 
L 100.858411 94.521687 
L 105.353994 94.673976 
L 109.849577 94.837866 
L 114.34516 95.014113 
L 118.840743 95.203516 
L 123.336326 95.406908 
L 127.831909 95.625152 
L 132.327492 95.85913 
L 136.823075 96.109727 
L 141.318658 96.37782 
L 145.814241 96.664258 
L 150.309824 96.969848 
L 154.805407 97.295339 
L 159.30099 97.641417 
L 163.796573 98.008703 
L 168.292157 98.397757 
L 172.78774 98.809095 
L 177.283323 99.243207 
L 181.778906 99.700578 
L 186.274489 100.181715 
L 190.770072 100.687168 
L 195.265655 101.21755 
L 199.761238 101.77356 
L 204.256821 102.355988 
L 208.752404 102.965735 
L 213.247987 103.60382 
L 217.74357 104.271384 
L 222.239153 104.969703 
L 226.734736 105.700189 
L 231.230319 106.464399 
L 235.725902 107.26404 
L 240.221485 108.100979 
L 244.717068 108.97725 
L 249.212651 109.895064 
L 253.708234 110.856817 
L 258.203817 111.865107 
L 262.699401 112.922744 
L 267.194984 114.032765 
L 271.690567 115.198448 
L 276.18615 116.42333 
L 280.681733 117.711226 
L 285.177316 119.06624 
L 289.672899 120.492784 
L 294.168482 121.995597 
L 298.664065 123.579754 
L 303.159648 125.25068 
L 307.655231 127.014159 
L 312.150814 128.876343 
L 316.646397 130.843753 
L 321.14198 132.923283 
L 325.637563 135.122205 
L 330.133146 137.44817 
L 334.628729 139.909212 
L 339.124312 142.513758 
L 343.619895 145.270647 
L 348.115478 148.189143 
L 352.611061 151.27897 
L 357.106644 154.550342 
L 361.602228 158.014004 
L 366.097811 161.681281 
L 370.593394 165.564129 
L 375.088977 169.675193 
L 379.58456 174.027869 
L 384.080143 178.636374 
L 388.575726 183.515813 
L 393.071309 188.682268 
L 397.566892 194.152874 
L 402.062475 199.945922 
L 406.558058 206.080961 
L 411.053641 212.578917 
L 415.549224 219.462225 
L 420.044807 226.754985 
L 424.54039 234.483133 
L 429.035973 242.674651 
L 433.531556 251.359806 
L 438.027139 260.571442 
L 442.522722 270.345324 
L 447.018305 280.720576 
L 451.513888 291.740204 
L 456.009472 303.45178 
L 460.505055 315.908301 
L 465.000638 329.169335 
L 469.496221 343.302541 
L 473.991804 358.38576 
L 478.487387 374.509956 
L 482.98297 391.783477 
L 487.478553 410.338449 
L 491.974136 430.340751 
L 496.469719 452.006327 
L 500.965302 475.629466 
L 505.460885 501.635502 
L 509.956468 530.688783 
L 514.452051 563.944737 
L 518.947634 603.764568 
L 523.443217 656.545351 
L 527.9388 759.105879 
L 527.9388 492.305191 
L 527.9388 492.305191 
L 523.443217 470.904918 
L 518.947634 450.683575 
L 514.452051 431.575679 
L 509.956468 413.519291 
L 505.460885 396.455828 
L 500.965302 380.329892 
L 496.469719 365.089102 
L 491.974136 350.683939 
L 487.478553 337.067596 
L 482.98297 324.195835 
L 478.487387 312.026854 
L 473.991804 300.521157 
L 469.496221 289.641433 
L 465.000638 279.35244 
L 460.505055 269.620894 
L 456.009472 260.415366 
L 451.513888 251.706179 
L 447.018305 243.465317 
L 442.522722 235.666332 
L 438.027139 228.284259 
L 433.531556 221.295534 
L 429.035973 214.67792 
L 424.54039 208.41043 
L 420.044807 202.473257 
L 415.549224 196.847715 
L 411.053641 191.516168 
L 406.558058 186.461978 
L 402.062475 181.669448 
L 397.566892 177.12377 
L 393.071309 172.810979 
L 388.575726 168.717906 
L 384.080143 164.832137 
L 379.58456 161.141978 
L 375.088977 157.636417 
L 370.593394 154.305096 
L 366.097811 151.138279 
L 361.602228 148.126829 
L 357.106644 145.262184 
L 352.611061 142.536335 
L 348.115478 139.941802 
L 343.619895 137.471616 
L 339.124312 135.119297 
L 334.628729 132.878823 
L 330.133146 130.744608 
L 325.637563 128.71147 
L 321.14198 126.774598 
L 316.646397 124.929512 
L 312.150814 123.172031 
L 307.655231 121.498238 
L 303.159648 119.904438 
L 298.664065 118.387135 
L 294.168482 116.942995 
L 289.672899 115.568831 
L 285.177316 114.26158 
L 280.681733 113.018285 
L 276.18615 111.836088 
L 271.690567 110.712223 
L 267.194984 109.644003 
L 262.699401 108.628822 
L 258.203817 107.664151 
L 253.708234 106.747533 
L 249.212651 105.876583 
L 244.717068 105.048985 
L 240.221485 104.26249 
L 235.725902 103.514913 
L 231.230319 102.804129 
L 226.734736 102.128072 
L 222.239153 101.484727 
L 217.74357 100.872132 
L 213.247987 100.288368 
L 208.752404 99.731556 
L 204.256821 99.199857 
L 199.761238 98.691466 
L 195.265655 98.204614 
L 190.770072 97.737565 
L 186.274489 97.288623 
L 181.778906 96.856139 
L 177.283323 96.438519 
L 172.78774 96.034242 
L 168.292157 95.641874 
L 163.796573 95.260088 
L 159.30099 94.887679 
L 154.805407 94.52358 
L 150.309824 94.166871 
L 145.814241 93.816778 
L 141.318658 93.472671 
L 136.823075 93.134047 
L 132.327492 92.800519 
L 127.831909 92.47179 
L 123.336326 92.147639 
L 118.840743 91.827896 
L 114.34516 91.512429 
L 109.849577 91.201131 
L 105.353994 90.893909 
L 100.858411 90.590675 
L 96.362828 90.291345 
L 91.867245 89.995832 
L 87.371662 89.704045 
L 82.876079 89.41589 
z
" clip-path="url(#p95c006ac43)" style="fill: #ff0000; fill-opacity: 0.6"/>
   </g>
   <g id="matplotlib.axis_1">
    <g id="xtick_1">
     <g id="line2d_1">
      <defs>
       <path id="meb4c4ae6d5" d="M 0 0 
L 0 3.5 
" style="stroke: #000000; stroke-width: 0.8"/>
      </defs>
      <g>
       <use xlink:href="#meb4c4ae6d5" x="163.441659" y="242.728" style="stroke: #000000; stroke-width: 0.8"/>
      </g>
     </g>
     <g id="text_1">
      <!-- $\mathdefault{10^{0}}$ -->
      <g transform="translate(154.641659 257.326437) scale(0.1 -0.1)">
       <defs>
        <path id="DejaVuSans-31" d="M 794 531 
L 1825 531 
L 1825 4091 
L 703 3866 
L 703 4441 
L 1819 4666 
L 2450 4666 
L 2450 531 
L 3481 531 
L 3481 0 
L 794 0 
L 794 531 
z
" transform="scale(0.015625)"/>
        <path id="DejaVuSans-30" d="M 2034 4250 
Q 1547 4250 1301 3770 
Q 1056 3291 1056 2328 
Q 1056 1369 1301 889 
Q 1547 409 2034 409 
Q 2525 409 2770 889 
Q 3016 1369 3016 2328 
Q 3016 3291 2770 3770 
Q 2525 4250 2034 4250 
z
M 2034 4750 
Q 2819 4750 3233 4129 
Q 3647 3509 3647 2328 
Q 3647 1150 3233 529 
Q 2819 -91 2034 -91 
Q 1250 -91 836 529 
Q 422 1150 422 2328 
Q 422 3509 836 4129 
Q 1250 4750 2034 4750 
z
" transform="scale(0.015625)"/>
       </defs>
       <use xlink:href="#DejaVuSans-31" transform="translate(0 0.765625)"/>
       <use xlink:href="#DejaVuSans-30" transform="translate(63.623047 0.765625)"/>
       <use xlink:href="#DejaVuSans-30" transform="translate(128.203125 39.046875) scale(0.7)"/>
      </g>
     </g>
    </g>
    <g id="xtick_2">
     <g id="line2d_2">
      <g>
       <use xlink:href="#meb4c4ae6d5" x="352.729367" y="242.728" style="stroke: #000000; stroke-width: 0.8"/>
      </g>
     </g>
     <g id="text_2">
      <!-- $\mathdefault{10^{1}}$ -->
      <g transform="translate(343.929367 257.326437) scale(0.1 -0.1)">
       <use xlink:href="#DejaVuSans-31" transform="translate(0 0.684375)"/>
       <use xlink:href="#DejaVuSans-30" transform="translate(63.623047 0.684375)"/>
       <use xlink:href="#DejaVuSans-31" transform="translate(128.203125 38.965625) scale(0.7)"/>
      </g>
     </g>
    </g>
    <g id="xtick_3">
     <g id="line2d_3">
      <defs>
       <path id="m1e046ba4f5" d="M 0 0 
L 0 2 
" style="stroke: #000000; stroke-width: 0.6"/>
      </defs>
      <g>
       <use xlink:href="#m1e046ba4f5" x="64.467139" y="242.728" style="stroke: #000000; stroke-width: 0.6"/>
      </g>
     </g>
    </g>
    <g id="xtick_4">
     <g id="line2d_4">
      <g>
       <use xlink:href="#m1e046ba4f5" x="88.116506" y="242.728" style="stroke: #000000; stroke-width: 0.6"/>
      </g>
     </g>
    </g>
    <g id="xtick_5">
     <g id="line2d_5">
      <g>
       <use xlink:href="#m1e046ba4f5" x="106.460381" y="242.728" style="stroke: #000000; stroke-width: 0.6"/>
      </g>
     </g>
    </g>
    <g id="xtick_6">
     <g id="line2d_6">
      <g>
       <use xlink:href="#m1e046ba4f5" x="121.448417" y="242.728" style="stroke: #000000; stroke-width: 0.6"/>
      </g>
     </g>
    </g>
    <g id="xtick_7">
     <g id="line2d_7">
      <g>
       <use xlink:href="#m1e046ba4f5" x="134.120622" y="242.728" style="stroke: #000000; stroke-width: 0.6"/>
      </g>
     </g>
    </g>
    <g id="xtick_8">
     <g id="line2d_8">
      <g>
       <use xlink:href="#m1e046ba4f5" x="145.097784" y="242.728" style="stroke: #000000; stroke-width: 0.6"/>
      </g>
     </g>
    </g>
    <g id="xtick_9">
     <g id="line2d_9">
      <g>
       <use xlink:href="#m1e046ba4f5" x="154.780328" y="242.728" style="stroke: #000000; stroke-width: 0.6"/>
      </g>
     </g>
    </g>
    <g id="xtick_10">
     <g id="line2d_10">
      <g>
       <use xlink:href="#m1e046ba4f5" x="220.422937" y="242.728" style="stroke: #000000; stroke-width: 0.6"/>
      </g>
     </g>
    </g>
    <g id="xtick_11">
     <g id="line2d_11">
      <g>
       <use xlink:href="#m1e046ba4f5" x="253.754848" y="242.728" style="stroke: #000000; stroke-width: 0.6"/>
      </g>
     </g>
    </g>
    <g id="xtick_12">
     <g id="line2d_12">
      <g>
       <use xlink:href="#m1e046ba4f5" x="277.404215" y="242.728" style="stroke: #000000; stroke-width: 0.6"/>
      </g>
     </g>
    </g>
    <g id="xtick_13">
     <g id="line2d_13">
      <g>
       <use xlink:href="#m1e046ba4f5" x="295.748089" y="242.728" style="stroke: #000000; stroke-width: 0.6"/>
      </g>
     </g>
    </g>
    <g id="xtick_14">
     <g id="line2d_14">
      <g>
       <use xlink:href="#m1e046ba4f5" x="310.736126" y="242.728" style="stroke: #000000; stroke-width: 0.6"/>
      </g>
     </g>
    </g>
    <g id="xtick_15">
     <g id="line2d_15">
      <g>
       <use xlink:href="#m1e046ba4f5" x="323.40833" y="242.728" style="stroke: #000000; stroke-width: 0.6"/>
      </g>
     </g>
    </g>
    <g id="xtick_16">
     <g id="line2d_16">
      <g>
       <use xlink:href="#m1e046ba4f5" x="334.385493" y="242.728" style="stroke: #000000; stroke-width: 0.6"/>
      </g>
     </g>
    </g>
    <g id="xtick_17">
     <g id="line2d_17">
      <g>
       <use xlink:href="#m1e046ba4f5" x="344.068036" y="242.728" style="stroke: #000000; stroke-width: 0.6"/>
      </g>
     </g>
    </g>
    <g id="xtick_18">
     <g id="line2d_18">
      <g>
       <use xlink:href="#m1e046ba4f5" x="409.710645" y="242.728" style="stroke: #000000; stroke-width: 0.6"/>
      </g>
     </g>
    </g>
    <g id="text_3">
     <!-- Energy [TeV] -->
     <g transform="translate(211.135913 271.004562) scale(0.1 -0.1)">
      <defs>
       <path id="DejaVuSans-45" d="M 628 4666 
L 3578 4666 
L 3578 4134 
L 1259 4134 
L 1259 2753 
L 3481 2753 
L 3481 2222 
L 1259 2222 
L 1259 531 
L 3634 531 
L 3634 0 
L 628 0 
L 628 4666 
z
" transform="scale(0.015625)"/>
       <path id="DejaVuSans-6e" d="M 3513 2113 
L 3513 0 
L 2938 0 
L 2938 2094 
Q 2938 2591 2744 2837 
Q 2550 3084 2163 3084 
Q 1697 3084 1428 2787 
Q 1159 2491 1159 1978 
L 1159 0 
L 581 0 
L 581 3500 
L 1159 3500 
L 1159 2956 
Q 1366 3272 1645 3428 
Q 1925 3584 2291 3584 
Q 2894 3584 3203 3211 
Q 3513 2838 3513 2113 
z
" transform="scale(0.015625)"/>
       <path id="DejaVuSans-65" d="M 3597 1894 
L 3597 1613 
L 953 1613 
Q 991 1019 1311 708 
Q 1631 397 2203 397 
Q 2534 397 2845 478 
Q 3156 559 3463 722 
L 3463 178 
Q 3153 47 2828 -22 
Q 2503 -91 2169 -91 
Q 1331 -91 842 396 
Q 353 884 353 1716 
Q 353 2575 817 3079 
Q 1281 3584 2069 3584 
Q 2775 3584 3186 3129 
Q 3597 2675 3597 1894 
z
M 3022 2063 
Q 3016 2534 2758 2815 
Q 2500 3097 2075 3097 
Q 1594 3097 1305 2825 
Q 1016 2553 972 2059 
L 3022 2063 
z
" transform="scale(0.015625)"/>
       <path id="DejaVuSans-72" d="M 2631 2963 
Q 2534 3019 2420 3045 
Q 2306 3072 2169 3072 
Q 1681 3072 1420 2755 
Q 1159 2438 1159 1844 
L 1159 0 
L 581 0 
L 581 3500 
L 1159 3500 
L 1159 2956 
Q 1341 3275 1631 3429 
Q 1922 3584 2338 3584 
Q 2397 3584 2469 3576 
Q 2541 3569 2628 3553 
L 2631 2963 
z
" transform="scale(0.015625)"/>
       <path id="DejaVuSans-67" d="M 2906 1791 
Q 2906 2416 2648 2759 
Q 2391 3103 1925 3103 
Q 1463 3103 1205 2759 
Q 947 2416 947 1791 
Q 947 1169 1205 825 
Q 1463 481 1925 481 
Q 2391 481 2648 825 
Q 2906 1169 2906 1791 
z
M 3481 434 
Q 3481 -459 3084 -895 
Q 2688 -1331 1869 -1331 
Q 1566 -1331 1297 -1286 
Q 1028 -1241 775 -1147 
L 775 -588 
Q 1028 -725 1275 -790 
Q 1522 -856 1778 -856 
Q 2344 -856 2625 -561 
Q 2906 -266 2906 331 
L 2906 616 
Q 2728 306 2450 153 
Q 2172 0 1784 0 
Q 1141 0 747 490 
Q 353 981 353 1791 
Q 353 2603 747 3093 
Q 1141 3584 1784 3584 
Q 2172 3584 2450 3431 
Q 2728 3278 2906 2969 
L 2906 3500 
L 3481 3500 
L 3481 434 
z
" transform="scale(0.015625)"/>
       <path id="DejaVuSans-79" d="M 2059 -325 
Q 1816 -950 1584 -1140 
Q 1353 -1331 966 -1331 
L 506 -1331 
L 506 -850 
L 844 -850 
Q 1081 -850 1212 -737 
Q 1344 -625 1503 -206 
L 1606 56 
L 191 3500 
L 800 3500 
L 1894 763 
L 2988 3500 
L 3597 3500 
L 2059 -325 
z
" transform="scale(0.015625)"/>
       <path id="DejaVuSans-20" transform="scale(0.015625)"/>
       <path id="DejaVuSans-5b" d="M 550 4863 
L 1875 4863 
L 1875 4416 
L 1125 4416 
L 1125 -397 
L 1875 -397 
L 1875 -844 
L 550 -844 
L 550 4863 
z
" transform="scale(0.015625)"/>
       <path id="DejaVuSans-54" d="M -19 4666 
L 3928 4666 
L 3928 4134 
L 2272 4134 
L 2272 0 
L 1638 0 
L 1638 4134 
L -19 4134 
L -19 4666 
z
" transform="scale(0.015625)"/>
       <path id="DejaVuSans-56" d="M 1831 0 
L 50 4666 
L 709 4666 
L 2188 738 
L 3669 4666 
L 4325 4666 
L 2547 0 
L 1831 0 
z
" transform="scale(0.015625)"/>
       <path id="DejaVuSans-5d" d="M 1947 4863 
L 1947 -844 
L 622 -844 
L 622 -397 
L 1369 -397 
L 1369 4416 
L 622 4416 
L 622 4863 
L 1947 4863 
z
" transform="scale(0.015625)"/>
      </defs>
      <use xlink:href="#DejaVuSans-45"/>
      <use xlink:href="#DejaVuSans-6e" x="63.183594"/>
      <use xlink:href="#DejaVuSans-65" x="126.5625"/>
      <use xlink:href="#DejaVuSans-72" x="188.085938"/>
      <use xlink:href="#DejaVuSans-67" x="227.449219"/>
      <use xlink:href="#DejaVuSans-79" x="290.925781"/>
      <use xlink:href="#DejaVuSans-20" x="350.105469"/>
      <use xlink:href="#DejaVuSans-5b" x="381.892578"/>
      <use xlink:href="#DejaVuSans-54" x="420.90625"/>
      <use xlink:href="#DejaVuSans-65" x="464.990234"/>
      <use xlink:href="#DejaVuSans-56" x="526.513672"/>
      <use xlink:href="#DejaVuSans-5d" x="594.921875"/>
     </g>
    </g>
   </g>
   <g id="matplotlib.axis_2">
    <g id="ytick_1">
     <g id="line2d_19">
      <defs>
       <path id="me456f13039" d="M 0 0 
L -3.5 0 
" style="stroke: #000000; stroke-width: 0.8"/>
      </defs>
      <g>
       <use xlink:href="#me456f13039" x="64.467139" y="149.621412" style="stroke: #000000; stroke-width: 0.8"/>
      </g>
     </g>
     <g id="text_4">
      <!-- $\mathdefault{10^{-12}}$ -->
      <g transform="translate(29.567139 153.420631) scale(0.1 -0.1)">
       <defs>
        <path id="DejaVuSans-2212" d="M 678 2272 
L 4684 2272 
L 4684 1741 
L 678 1741 
L 678 2272 
z
" transform="scale(0.015625)"/>
        <path id="DejaVuSans-32" d="M 1228 531 
L 3431 531 
L 3431 0 
L 469 0 
L 469 531 
Q 828 903 1448 1529 
Q 2069 2156 2228 2338 
Q 2531 2678 2651 2914 
Q 2772 3150 2772 3378 
Q 2772 3750 2511 3984 
Q 2250 4219 1831 4219 
Q 1534 4219 1204 4116 
Q 875 4013 500 3803 
L 500 4441 
Q 881 4594 1212 4672 
Q 1544 4750 1819 4750 
Q 2544 4750 2975 4387 
Q 3406 4025 3406 3419 
Q 3406 3131 3298 2873 
Q 3191 2616 2906 2266 
Q 2828 2175 2409 1742 
Q 1991 1309 1228 531 
z
" transform="scale(0.015625)"/>
       </defs>
       <use xlink:href="#DejaVuSans-31" transform="translate(0 0.765625)"/>
       <use xlink:href="#DejaVuSans-30" transform="translate(63.623047 0.765625)"/>
       <use xlink:href="#DejaVuSans-2212" transform="translate(128.203125 39.046875) scale(0.7)"/>
       <use xlink:href="#DejaVuSans-31" transform="translate(186.855469 39.046875) scale(0.7)"/>
       <use xlink:href="#DejaVuSans-32" transform="translate(231.391602 39.046875) scale(0.7)"/>
      </g>
     </g>
    </g>
    <g id="ytick_2">
     <g id="line2d_20">
      <g>
       <use xlink:href="#me456f13039" x="64.467139" y="16.416" style="stroke: #000000; stroke-width: 0.8"/>
      </g>
     </g>
     <g id="text_5">
      <!-- $\mathdefault{10^{-11}}$ -->
      <g transform="translate(29.567139 20.215219) scale(0.1 -0.1)">
       <use xlink:href="#DejaVuSans-31" transform="translate(0 0.684375)"/>
       <use xlink:href="#DejaVuSans-30" transform="translate(63.623047 0.684375)"/>
       <use xlink:href="#DejaVuSans-2212" transform="translate(128.203125 38.965625) scale(0.7)"/>
       <use xlink:href="#DejaVuSans-31" transform="translate(186.855469 38.965625) scale(0.7)"/>
       <use xlink:href="#DejaVuSans-31" transform="translate(231.391602 38.965625) scale(0.7)"/>
      </g>
     </g>
    </g>
    <g id="ytick_3">
     <g id="line2d_21">
      <defs>
       <path id="m70783cdc1a" d="M 0 0 
L -2 0 
" style="stroke: #000000; stroke-width: 0.6"/>
      </defs>
      <g>
       <use xlink:href="#m70783cdc1a" x="64.467139" y="242.728" style="stroke: #000000; stroke-width: 0.6"/>
      </g>
     </g>
    </g>
    <g id="ytick_4">
     <g id="line2d_22">
      <g>
       <use xlink:href="#m70783cdc1a" x="64.467139" y="219.271691" style="stroke: #000000; stroke-width: 0.6"/>
      </g>
     </g>
    </g>
    <g id="ytick_5">
     <g id="line2d_23">
      <g>
       <use xlink:href="#m70783cdc1a" x="64.467139" y="202.629175" style="stroke: #000000; stroke-width: 0.6"/>
      </g>
     </g>
    </g>
    <g id="ytick_6">
     <g id="line2d_24">
      <g>
       <use xlink:href="#m70783cdc1a" x="64.467139" y="189.720237" style="stroke: #000000; stroke-width: 0.6"/>
      </g>
     </g>
    </g>
    <g id="ytick_7">
     <g id="line2d_25">
      <g>
       <use xlink:href="#m70783cdc1a" x="64.467139" y="179.172867" style="stroke: #000000; stroke-width: 0.6"/>
      </g>
     </g>
    </g>
    <g id="ytick_8">
     <g id="line2d_26">
      <g>
       <use xlink:href="#m70783cdc1a" x="64.467139" y="170.255192" style="stroke: #000000; stroke-width: 0.6"/>
      </g>
     </g>
    </g>
    <g id="ytick_9">
     <g id="line2d_27">
      <g>
       <use xlink:href="#m70783cdc1a" x="64.467139" y="162.530351" style="stroke: #000000; stroke-width: 0.6"/>
      </g>
     </g>
    </g>
    <g id="ytick_10">
     <g id="line2d_28">
      <g>
       <use xlink:href="#m70783cdc1a" x="64.467139" y="155.716558" style="stroke: #000000; stroke-width: 0.6"/>
      </g>
     </g>
    </g>
    <g id="ytick_11">
     <g id="line2d_29">
      <g>
       <use xlink:href="#m70783cdc1a" x="64.467139" y="109.522588" style="stroke: #000000; stroke-width: 0.6"/>
      </g>
     </g>
    </g>
    <g id="ytick_12">
     <g id="line2d_30">
      <g>
       <use xlink:href="#m70783cdc1a" x="64.467139" y="86.066279" style="stroke: #000000; stroke-width: 0.6"/>
      </g>
     </g>
    </g>
    <g id="ytick_13">
     <g id="line2d_31">
      <g>
       <use xlink:href="#m70783cdc1a" x="64.467139" y="69.423763" style="stroke: #000000; stroke-width: 0.6"/>
      </g>
     </g>
    </g>
    <g id="ytick_14">
     <g id="line2d_32">
      <g>
       <use xlink:href="#m70783cdc1a" x="64.467139" y="56.514825" style="stroke: #000000; stroke-width: 0.6"/>
      </g>
     </g>
    </g>
    <g id="ytick_15">
     <g id="line2d_33">
      <g>
       <use xlink:href="#m70783cdc1a" x="64.467139" y="45.967454" style="stroke: #000000; stroke-width: 0.6"/>
      </g>
     </g>
    </g>
    <g id="ytick_16">
     <g id="line2d_34">
      <g>
       <use xlink:href="#m70783cdc1a" x="64.467139" y="37.049779" style="stroke: #000000; stroke-width: 0.6"/>
      </g>
     </g>
    </g>
    <g id="ytick_17">
     <g id="line2d_35">
      <g>
       <use xlink:href="#m70783cdc1a" x="64.467139" y="29.324938" style="stroke: #000000; stroke-width: 0.6"/>
      </g>
     </g>
    </g>
    <g id="ytick_18">
     <g id="line2d_36">
      <g>
       <use xlink:href="#m70783cdc1a" x="64.467139" y="22.511145" style="stroke: #000000; stroke-width: 0.6"/>
      </g>
     </g>
    </g>
    <g id="text_6">
     <!-- E$^2$ dN/dE [TeV cm$^{-2}$ s$^{-1}$] -->
     <g transform="translate(23.487452 190.822) rotate(-90) scale(0.1 -0.1)">
      <defs>
       <path id="DejaVuSans-64" d="M 2906 2969 
L 2906 4863 
L 3481 4863 
L 3481 0 
L 2906 0 
L 2906 525 
Q 2725 213 2448 61 
Q 2172 -91 1784 -91 
Q 1150 -91 751 415 
Q 353 922 353 1747 
Q 353 2572 751 3078 
Q 1150 3584 1784 3584 
Q 2172 3584 2448 3432 
Q 2725 3281 2906 2969 
z
M 947 1747 
Q 947 1113 1208 752 
Q 1469 391 1925 391 
Q 2381 391 2643 752 
Q 2906 1113 2906 1747 
Q 2906 2381 2643 2742 
Q 2381 3103 1925 3103 
Q 1469 3103 1208 2742 
Q 947 2381 947 1747 
z
" transform="scale(0.015625)"/>
       <path id="DejaVuSans-4e" d="M 628 4666 
L 1478 4666 
L 3547 763 
L 3547 4666 
L 4159 4666 
L 4159 0 
L 3309 0 
L 1241 3903 
L 1241 0 
L 628 0 
L 628 4666 
z
" transform="scale(0.015625)"/>
       <path id="DejaVuSans-2f" d="M 1625 4666 
L 2156 4666 
L 531 -594 
L 0 -594 
L 1625 4666 
z
" transform="scale(0.015625)"/>
       <path id="DejaVuSans-63" d="M 3122 3366 
L 3122 2828 
Q 2878 2963 2633 3030 
Q 2388 3097 2138 3097 
Q 1578 3097 1268 2742 
Q 959 2388 959 1747 
Q 959 1106 1268 751 
Q 1578 397 2138 397 
Q 2388 397 2633 464 
Q 2878 531 3122 666 
L 3122 134 
Q 2881 22 2623 -34 
Q 2366 -91 2075 -91 
Q 1284 -91 818 406 
Q 353 903 353 1747 
Q 353 2603 823 3093 
Q 1294 3584 2113 3584 
Q 2378 3584 2631 3529 
Q 2884 3475 3122 3366 
z
" transform="scale(0.015625)"/>
       <path id="DejaVuSans-6d" d="M 3328 2828 
Q 3544 3216 3844 3400 
Q 4144 3584 4550 3584 
Q 5097 3584 5394 3201 
Q 5691 2819 5691 2113 
L 5691 0 
L 5113 0 
L 5113 2094 
Q 5113 2597 4934 2840 
Q 4756 3084 4391 3084 
Q 3944 3084 3684 2787 
Q 3425 2491 3425 1978 
L 3425 0 
L 2847 0 
L 2847 2094 
Q 2847 2600 2669 2842 
Q 2491 3084 2119 3084 
Q 1678 3084 1418 2786 
Q 1159 2488 1159 1978 
L 1159 0 
L 581 0 
L 581 3500 
L 1159 3500 
L 1159 2956 
Q 1356 3278 1631 3431 
Q 1906 3584 2284 3584 
Q 2666 3584 2933 3390 
Q 3200 3197 3328 2828 
z
" transform="scale(0.015625)"/>
       <path id="DejaVuSans-73" d="M 2834 3397 
L 2834 2853 
Q 2591 2978 2328 3040 
Q 2066 3103 1784 3103 
Q 1356 3103 1142 2972 
Q 928 2841 928 2578 
Q 928 2378 1081 2264 
Q 1234 2150 1697 2047 
L 1894 2003 
Q 2506 1872 2764 1633 
Q 3022 1394 3022 966 
Q 3022 478 2636 193 
Q 2250 -91 1575 -91 
Q 1294 -91 989 -36 
Q 684 19 347 128 
L 347 722 
Q 666 556 975 473 
Q 1284 391 1588 391 
Q 1994 391 2212 530 
Q 2431 669 2431 922 
Q 2431 1156 2273 1281 
Q 2116 1406 1581 1522 
L 1381 1569 
Q 847 1681 609 1914 
Q 372 2147 372 2553 
Q 372 3047 722 3315 
Q 1072 3584 1716 3584 
Q 2034 3584 2315 3537 
Q 2597 3491 2834 3397 
z
" transform="scale(0.015625)"/>
      </defs>
      <use xlink:href="#DejaVuSans-45" transform="translate(0 0.765625)"/>
      <use xlink:href="#DejaVuSans-32" transform="translate(64.140625 39.046875) scale(0.7)"/>
      <use xlink:href="#DejaVuSans-20" transform="translate(111.411133 0.765625)"/>
      <use xlink:href="#DejaVuSans-64" transform="translate(143.198242 0.765625)"/>
      <use xlink:href="#DejaVuSans-4e" transform="translate(206.674805 0.765625)"/>
      <use xlink:href="#DejaVuSans-2f" transform="translate(281.479492 0.765625)"/>
      <use xlink:href="#DejaVuSans-64" transform="translate(315.170898 0.765625)"/>
      <use xlink:href="#DejaVuSans-45" transform="translate(378.647461 0.765625)"/>
      <use xlink:href="#DejaVuSans-20" transform="translate(441.831055 0.765625)"/>
      <use xlink:href="#DejaVuSans-5b" transform="translate(473.618164 0.765625)"/>
      <use xlink:href="#DejaVuSans-54" transform="translate(512.631836 0.765625)"/>
      <use xlink:href="#DejaVuSans-65" transform="translate(573.71582 0.765625)"/>
      <use xlink:href="#DejaVuSans-56" transform="translate(635.239258 0.765625)"/>
      <use xlink:href="#DejaVuSans-20" transform="translate(703.647461 0.765625)"/>
      <use xlink:href="#DejaVuSans-63" transform="translate(735.43457 0.765625)"/>
      <use xlink:href="#DejaVuSans-6d" transform="translate(790.415039 0.765625)"/>
      <use xlink:href="#DejaVuSans-2212" transform="translate(888.78418 39.046875) scale(0.7)"/>
      <use xlink:href="#DejaVuSans-32" transform="translate(947.436523 39.046875) scale(0.7)"/>
      <use xlink:href="#DejaVuSans-20" transform="translate(994.707031 0.765625)"/>
      <use xlink:href="#DejaVuSans-73" transform="translate(1026.494141 0.765625)"/>
      <use xlink:href="#DejaVuSans-2212" transform="translate(1079.550781 39.046875) scale(0.7)"/>
      <use xlink:href="#DejaVuSans-31" transform="translate(1138.203125 39.046875) scale(0.7)"/>
      <use xlink:href="#DejaVuSans-5d" transform="translate(1185.473633 0.765625)"/>
     </g>
    </g>
   </g>
   <g id="line2d_37">
    <path d="M 82.876079 91.669716 
L 87.371662 91.873507 
L 91.867245 92.083386 
L 96.362828 92.299696 
L 100.858411 92.522798 
L 105.353994 92.753073 
L 109.849577 92.990925 
L 114.34516 93.23678 
L 118.840743 93.491088 
L 123.336326 93.754323 
L 127.831909 94.026988 
L 132.327492 94.309613 
L 136.823075 94.602756 
L 141.318658 94.907011 
L 145.814241 95.223001 
L 150.309824 95.551385 
L 154.805407 95.892861 
L 159.30099 96.248165 
L 163.796573 96.618073 
L 168.292157 97.003406 
L 172.78774 97.405033 
L 177.283323 97.823867 
L 181.778906 98.260878 
L 186.274489 98.717085 
L 190.770072 99.19357 
L 195.265655 99.69147 
L 199.761238 100.21199 
L 204.256821 100.756401 
L 208.752404 101.326047 
L 213.247987 101.922345 
L 217.74357 102.546795 
L 222.239153 103.200977 
L 226.734736 103.886564 
L 231.230319 104.60532 
L 235.725902 105.35911 
L 240.221485 106.149904 
L 244.717068 106.979781 
L 249.212651 107.850938 
L 253.708234 108.765696 
L 258.203817 109.726505 
L 262.699401 110.735953 
L 267.194984 111.796775 
L 271.690567 112.911858 
L 276.18615 114.084253 
L 280.681733 115.317181 
L 285.177316 116.614044 
L 289.672899 117.978436 
L 294.168482 119.414152 
L 298.664065 120.925203 
L 303.159648 122.515822 
L 307.655231 124.190482 
L 312.150814 125.953907 
L 316.646397 127.811086 
L 321.14198 129.767289 
L 325.637563 131.828082 
L 330.133146 133.999344 
L 334.628729 136.287285 
L 339.124312 138.698462 
L 343.619895 141.239804 
L 348.115478 143.918626 
L 352.611061 146.742656 
L 357.106644 149.720056 
L 361.602228 152.859447 
L 366.097811 156.169934 
L 370.593394 159.661135 
L 375.088977 163.343207 
L 379.58456 167.226879 
L 384.080143 171.323483 
L 388.575726 175.644988 
L 393.071309 180.204035 
L 397.566892 185.013976 
L 402.062475 190.088914 
L 406.558058 195.443744 
L 411.053641 201.094198 
L 415.549224 207.056895 
L 420.044807 213.349383 
L 424.54039 219.990202 
L 429.035973 226.99893 
L 433 233.52159 
" clip-path="url(#p95c006ac43)" style="fill: none; stroke-dasharray: 1.5,2.475; stroke-dashoffset: 0; stroke: #000000; stroke-width: 1.5"/>
   </g>
   <g id="LineCollection_1">
    <path clip-path="url(#p95c006ac43)" style="fill: none; stroke: #8b0000; stroke-width: 1.5"/>
    <path clip-path="url(#p95c006ac43)" style="fill: none; stroke: #8b0000; stroke-width: 1.5"/>
    <path clip-path="url(#p95c006ac43)" style="fill: none; stroke: #8b0000; stroke-width: 1.5"/>
    <path clip-path="url(#p95c006ac43)" style="fill: none; stroke: #8b0000; stroke-width: 1.5"/>
    <path d="M 88.463414 89.161113 
L 88.463414 81.858324 
" clip-path="url(#p95c006ac43)" style="fill: none; stroke: #8b0000; stroke-width: 1.5"/>
    <path d="M 112.124378 95.858554 
L 112.124378 88.980861 
" clip-path="url(#p95c006ac43)" style="fill: none; stroke: #8b0000; stroke-width: 1.5"/>
    <path d="M 135.78534 98.741438 
L 135.78534 92.122346 
" clip-path="url(#p95c006ac43)" style="fill: none; stroke: #8b0000; stroke-width: 1.5"/>
    <path d="M 159.446303 98.324001 
L 159.446303 91.834753 
" clip-path="url(#p95c006ac43)" style="fill: none; stroke: #8b0000; stroke-width: 1.5"/>
    <path d="M 183.107269 105.683103 
L 183.107269 98.370811 
" clip-path="url(#p95c006ac43)" style="fill: none; stroke: #8b0000; stroke-width: 1.5"/>
    <path d="M 206.768232 110.14811 
L 206.768232 102.276985 
" clip-path="url(#p95c006ac43)" style="fill: none; stroke: #8b0000; stroke-width: 1.5"/>
    <path d="M 230.429193 109.816571 
L 230.429193 101.376226 
" clip-path="url(#p95c006ac43)" style="fill: none; stroke: #8b0000; stroke-width: 1.5"/>
    <path d="M 254.090157 112.505953 
L 254.090157 103.213339 
" clip-path="url(#p95c006ac43)" style="fill: none; stroke: #8b0000; stroke-width: 1.5"/>
    <path d="M 277.751123 115.491737 
L 277.751123 105.044746 
" clip-path="url(#p95c006ac43)" style="fill: none; stroke: #8b0000; stroke-width: 1.5"/>
    <path d="M 301.412085 113.21886 
L 301.412085 101.706986 
" clip-path="url(#p95c006ac43)" style="fill: none; stroke: #8b0000; stroke-width: 1.5"/>
    <path d="M 325.073046 132.28901 
L 325.073046 116.983128 
" clip-path="url(#p95c006ac43)" style="fill: none; stroke: #8b0000; stroke-width: 1.5"/>
    <path d="M 348.734011 138.418853 
L 348.734011 120.531557 
" clip-path="url(#p95c006ac43)" style="fill: none; stroke: #8b0000; stroke-width: 1.5"/>
    <path d="M 372.394976 155.921942 
L 372.394976 133.272202 
" clip-path="url(#p95c006ac43)" style="fill: none; stroke: #8b0000; stroke-width: 1.5"/>
    <path d="M 396.055942 210.237414 
L 396.055942 172.344923 
" clip-path="url(#p95c006ac43)" style="fill: none; stroke: #8b0000; stroke-width: 1.5"/>
    <path d="M 419.716905 289 
L 419.716905 219.015083 
" clip-path="url(#p95c006ac43)" style="fill: none; stroke: #8b0000; stroke-width: 1.5"/>
    <path clip-path="url(#p95c006ac43)" style="fill: none; stroke: #8b0000; stroke-width: 1.5"/>
    <path clip-path="url(#p95c006ac43)" style="fill: none; stroke: #8b0000; stroke-width: 1.5"/>
    <path clip-path="url(#p95c006ac43)" style="fill: none; stroke: #8b0000; stroke-width: 1.5"/>
    <path clip-path="url(#p95c006ac43)" style="fill: none; stroke: #8b0000; stroke-width: 1.5"/>
    <path clip-path="url(#p95c006ac43)" style="fill: none; stroke: #8b0000; stroke-width: 1.5"/>
   </g>
   <g id="LineCollection_2">
    <path clip-path="url(#p95c006ac43)" style="fill: none; stroke: #006400; stroke-width: 1.5"/>
    <path clip-path="url(#p95c006ac43)" style="fill: none; stroke: #006400; stroke-width: 1.5"/>
    <path clip-path="url(#p95c006ac43)" style="fill: none; stroke: #006400; stroke-width: 1.5"/>
    <path clip-path="url(#p95c006ac43)" style="fill: none; stroke: #006400; stroke-width: 1.5"/>
    <path d="M 80.628287 97.74402 
L 80.628287 86.142409 
" clip-path="url(#p95c006ac43)" style="fill: none; stroke: #006400; stroke-width: 1.5"/>
    <path d="M 104.289251 108.075897 
L 104.289251 97.439368 
" clip-path="url(#p95c006ac43)" style="fill: none; stroke: #006400; stroke-width: 1.5"/>
    <path d="M 127.950214 79.62755 
L 127.950214 67.57088 
" clip-path="url(#p95c006ac43)" style="fill: none; stroke: #006400; stroke-width: 1.5"/>
    <path d="M 151.611177 90.266747 
L 151.611177 79.247349 
" clip-path="url(#p95c006ac43)" style="fill: none; stroke: #006400; stroke-width: 1.5"/>
    <path d="M 175.272142 103.791973 
L 175.272142 92.386101 
" clip-path="url(#p95c006ac43)" style="fill: none; stroke: #006400; stroke-width: 1.5"/>
    <path d="M 198.933106 117.463536 
L 198.933106 105.984735 
" clip-path="url(#p95c006ac43)" style="fill: none; stroke: #006400; stroke-width: 1.5"/>
    <path d="M 222.594067 115.846474 
L 222.594067 103.494638 
" clip-path="url(#p95c006ac43)" style="fill: none; stroke: #006400; stroke-width: 1.5"/>
    <path d="M 246.255031 121.427894 
L 246.255031 108.297257 
" clip-path="url(#p95c006ac43)" style="fill: none; stroke: #006400; stroke-width: 1.5"/>
    <path d="M 269.915997 121.501367 
L 269.915997 106.934737 
" clip-path="url(#p95c006ac43)" style="fill: none; stroke: #006400; stroke-width: 1.5"/>
    <path d="M 293.576958 122.9657 
L 293.576958 107.387277 
" clip-path="url(#p95c006ac43)" style="fill: none; stroke: #006400; stroke-width: 1.5"/>
    <path d="M 317.237919 139.030785 
L 317.237919 119.793957 
" clip-path="url(#p95c006ac43)" style="fill: none; stroke: #006400; stroke-width: 1.5"/>
    <path d="M 340.898884 147.03195 
L 340.898884 125.287578 
" clip-path="url(#p95c006ac43)" style="fill: none; stroke: #006400; stroke-width: 1.5"/>
    <path d="M 364.55985 165.288813 
L 364.55985 139.047929 
" clip-path="url(#p95c006ac43)" style="fill: none; stroke: #006400; stroke-width: 1.5"/>
    <path d="M 388.220815 208.029462 
L 388.220815 167.399971 
" clip-path="url(#p95c006ac43)" style="fill: none; stroke: #006400; stroke-width: 1.5"/>
    <path d="M 411.881778 289 
L 411.881778 215.531431 
" clip-path="url(#p95c006ac43)" style="fill: none; stroke: #006400; stroke-width: 1.5"/>
    <path clip-path="url(#p95c006ac43)" style="fill: none; stroke: #006400; stroke-width: 1.5"/>
    <path clip-path="url(#p95c006ac43)" style="fill: none; stroke: #006400; stroke-width: 1.5"/>
    <path clip-path="url(#p95c006ac43)" style="fill: none; stroke: #006400; stroke-width: 1.5"/>
    <path clip-path="url(#p95c006ac43)" style="fill: none; stroke: #006400; stroke-width: 1.5"/>
    <path clip-path="url(#p95c006ac43)" style="fill: none; stroke: #006400; stroke-width: 1.5"/>
   </g>
   <g id="line2d_38">
    <defs>
     <path id="m0858d951b2" d="M 0 3 
C 0.795609 3 1.55874 2.683901 2.12132 2.12132 
C 2.683901 1.55874 3 0.795609 3 0 
C 3 -0.795609 2.683901 -1.55874 2.12132 -2.12132 
C 1.55874 -2.683901 0.795609 -3 0 -3 
C -0.795609 -3 -1.55874 -2.683901 -2.12132 -2.12132 
C -2.683901 -1.55874 -3 -0.795609 -3 0 
C -3 0.795609 -2.683901 1.55874 -2.12132 2.12132 
C -1.55874 2.683901 -0.795609 3 0 3 
z
" style="stroke: #8b0000"/>
    </defs>
    <g clip-path="url(#p95c006ac43)">
     <use xlink:href="#m0858d951b2" x="88.463414" y="85.394561" style="fill: #8b0000; stroke: #8b0000"/>
     <use xlink:href="#m0858d951b2" x="112.124378" y="92.317559" style="fill: #8b0000; stroke: #8b0000"/>
     <use xlink:href="#m0858d951b2" x="135.78534" y="95.337276" style="fill: #8b0000; stroke: #8b0000"/>
     <use xlink:href="#m0858d951b2" x="159.446303" y="94.988435" style="fill: #8b0000; stroke: #8b0000"/>
     <use xlink:href="#m0858d951b2" x="183.107269" y="101.9115" style="fill: #8b0000; stroke: #8b0000"/>
     <use xlink:href="#m0858d951b2" x="206.768232" y="106.078782" style="fill: #8b0000; stroke: #8b0000"/>
     <use xlink:href="#m0858d951b2" x="230.429193" y="105.442605" style="fill: #8b0000; stroke: #8b0000"/>
     <use xlink:href="#m0858d951b2" x="254.090157" y="107.67326" style="fill: #8b0000; stroke: #8b0000"/>
     <use xlink:href="#m0858d951b2" x="277.751123" y="110.032738" style="fill: #8b0000; stroke: #8b0000"/>
     <use xlink:href="#m0858d951b2" x="301.412085" y="107.177045" style="fill: #8b0000; stroke: #8b0000"/>
     <use xlink:href="#m0858d951b2" x="325.073046" y="124.131341" style="fill: #8b0000; stroke: #8b0000"/>
     <use xlink:href="#m0858d951b2" x="348.734011" y="128.786599" style="fill: #8b0000; stroke: #8b0000"/>
     <use xlink:href="#m0858d951b2" x="372.394976" y="143.495595" style="fill: #8b0000; stroke: #8b0000"/>
     <use xlink:href="#m0858d951b2" x="396.055942" y="188.242606" style="fill: #8b0000; stroke: #8b0000"/>
     <use xlink:href="#m0858d951b2" x="419.716905" y="251.425513" style="fill: #8b0000; stroke: #8b0000"/>
     <use xlink:href="#m0858d951b2" x="423.402756" y="20737" style="fill: #8b0000; stroke: #8b0000"/>
     <use xlink:href="#m0858d951b2" x="463.353388" y="20737" style="fill: #8b0000; stroke: #8b0000"/>
     <use xlink:href="#m0858d951b2" x="467.038829" y="254.125646" style="fill: #8b0000; stroke: #8b0000"/>
     <use xlink:href="#m0858d951b2" x="470.724271" y="20737" style="fill: #8b0000; stroke: #8b0000"/>
    </g>
   </g>
   <g id="line2d_39">
    <defs>
     <path id="m0d30b65952" d="M 0 3 
C 0.795609 3 1.55874 2.683901 2.12132 2.12132 
C 2.683901 1.55874 3 0.795609 3 0 
C 3 -0.795609 2.683901 -1.55874 2.12132 -2.12132 
C 1.55874 -2.683901 0.795609 -3 0 -3 
C -0.795609 -3 -1.55874 -2.683901 -2.12132 -2.12132 
C -2.683901 -1.55874 -3 -0.795609 -3 0 
C -3 0.795609 -2.683901 1.55874 -2.12132 2.12132 
C -1.55874 2.683901 -0.795609 3 0 3 
z
" style="stroke: #006400"/>
    </defs>
    <g clip-path="url(#p95c006ac43)">
     <use xlink:href="#m0d30b65952" x="80.628287" y="91.65287" style="fill: #006400; stroke: #006400"/>
     <use xlink:href="#m0d30b65952" x="104.289251" y="102.513518" style="fill: #006400; stroke: #006400"/>
     <use xlink:href="#m0d30b65952" x="127.950214" y="73.285688" style="fill: #006400; stroke: #006400"/>
     <use xlink:href="#m0d30b65952" x="151.611177" y="84.495071" style="fill: #006400; stroke: #006400"/>
     <use xlink:href="#m0d30b65952" x="175.272142" y="97.808391" style="fill: #006400; stroke: #006400"/>
     <use xlink:href="#m0d30b65952" x="198.933106" y="111.439895" style="fill: #006400; stroke: #006400"/>
     <use xlink:href="#m0d30b65952" x="222.594067" y="109.34152" style="fill: #006400; stroke: #006400"/>
     <use xlink:href="#m0d30b65952" x="246.255031" y="114.49083" style="fill: #006400; stroke: #006400"/>
     <use xlink:href="#m0d30b65952" x="269.915997" y="113.760776" style="fill: #006400; stroke: #006400"/>
     <use xlink:href="#m0d30b65952" x="293.576958" y="114.65368" style="fill: #006400; stroke: #006400"/>
     <use xlink:href="#m0d30b65952" x="317.237919" y="128.616432" style="fill: #006400; stroke: #006400"/>
     <use xlink:href="#m0d30b65952" x="340.898884" y="135.144083" style="fill: #006400; stroke: #006400"/>
     <use xlink:href="#m0d30b65952" x="364.55985" y="150.693099" style="fill: #006400; stroke: #006400"/>
     <use xlink:href="#m0d30b65952" x="388.220815" y="184.218836" style="fill: #006400; stroke: #006400"/>
     <use xlink:href="#m0d30b65952" x="411.881778" y="248.124281" style="fill: #006400; stroke: #006400"/>
     <use xlink:href="#m0d30b65952" x="415.568131" y="20737" style="fill: #006400; stroke: #006400"/>
     <use xlink:href="#m0d30b65952" x="455.517427" y="20737" style="fill: #006400; stroke: #006400"/>
     <use xlink:href="#m0d30b65952" x="459.203703" y="248.632806" style="fill: #006400; stroke: #006400"/>
     <use xlink:href="#m0d30b65952" x="462.889978" y="20737" style="fill: #006400; stroke: #006400"/>
    </g>
   </g>
   <g id="patch_3">
    <path d="M 64.467139 242.728 
L 64.467139 16.416 
" style="fill: none; stroke: #000000; stroke-width: 0.8; stroke-linejoin: miter; stroke-linecap: square"/>
   </g>
   <g id="patch_4">
    <path d="M 421.2 242.728 
L 421.2 16.416 
" style="fill: none; stroke: #000000; stroke-width: 0.8; stroke-linejoin: miter; stroke-linecap: square"/>
   </g>
   <g id="patch_5">
    <path d="M 64.467139 242.728 
L 421.2 242.728 
" style="fill: none; stroke: #000000; stroke-width: 0.8; stroke-linejoin: miter; stroke-linecap: square"/>
   </g>
   <g id="patch_6">
    <path d="M 64.467139 16.416 
L 421.2 16.416 
" style="fill: none; stroke: #000000; stroke-width: 0.8; stroke-linejoin: miter; stroke-linecap: square"/>
   </g>
   <g id="legend_1">
    <g id="patch_7">
     <path d="M 320.3 68.450375 
L 414.2 68.450375 
Q 416.2 68.450375 416.2 66.450375 
L 416.2 23.416 
Q 416.2 21.416 414.2 21.416 
L 320.3 21.416 
Q 318.3 21.416 318.3 23.416 
L 318.3 66.450375 
Q 318.3 68.450375 320.3 68.450375 
z
" style="fill: #ffffff; opacity: 0.8; stroke: #cccccc; stroke-linejoin: miter"/>
    </g>
    <g id="patch_8">
     <path d="M 322.3 33.014438 
L 342.3 33.014438 
L 342.3 26.014438 
L 322.3 26.014438 
z
" style="fill: #008000; fill-opacity: 0.5"/>
    </g>
    <g id="text_7">
     <!-- $1\sigma$ Nuisance -->
     <g transform="translate(350.3 33.014438) scale(0.1 -0.1)">
      <defs>
       <path id="DejaVuSans-Oblique-3c3" d="M 2219 3044 
Q 1744 3044 1422 2700 
Q 1081 2341 969 1747 
Q 844 1119 1044 756 
Q 1241 397 1706 397 
Q 2166 397 2503 759 
Q 2844 1122 2966 1747 
Q 3075 2319 2881 2700 
Q 2700 3044 2219 3044 
z
M 2309 3503 
L 4219 3500 
L 4106 2925 
L 3463 2925 
Q 3706 2438 3575 1747 
Q 3406 888 2884 400 
Q 2359 -91 1609 -91 
Q 856 -91 525 400 
Q 194 888 363 1747 
Q 528 2609 1050 3097 
Q 1484 3503 2309 3503 
z
" transform="scale(0.015625)"/>
       <path id="DejaVuSans-75" d="M 544 1381 
L 544 3500 
L 1119 3500 
L 1119 1403 
Q 1119 906 1312 657 
Q 1506 409 1894 409 
Q 2359 409 2629 706 
Q 2900 1003 2900 1516 
L 2900 3500 
L 3475 3500 
L 3475 0 
L 2900 0 
L 2900 538 
Q 2691 219 2414 64 
Q 2138 -91 1772 -91 
Q 1169 -91 856 284 
Q 544 659 544 1381 
z
M 1991 3584 
L 1991 3584 
z
" transform="scale(0.015625)"/>
       <path id="DejaVuSans-69" d="M 603 3500 
L 1178 3500 
L 1178 0 
L 603 0 
L 603 3500 
z
M 603 4863 
L 1178 4863 
L 1178 4134 
L 603 4134 
L 603 4863 
z
" transform="scale(0.015625)"/>
       <path id="DejaVuSans-61" d="M 2194 1759 
Q 1497 1759 1228 1600 
Q 959 1441 959 1056 
Q 959 750 1161 570 
Q 1363 391 1709 391 
Q 2188 391 2477 730 
Q 2766 1069 2766 1631 
L 2766 1759 
L 2194 1759 
z
M 3341 1997 
L 3341 0 
L 2766 0 
L 2766 531 
Q 2569 213 2275 61 
Q 1981 -91 1556 -91 
Q 1019 -91 701 211 
Q 384 513 384 1019 
Q 384 1609 779 1909 
Q 1175 2209 1959 2209 
L 2766 2209 
L 2766 2266 
Q 2766 2663 2505 2880 
Q 2244 3097 1772 3097 
Q 1472 3097 1187 3025 
Q 903 2953 641 2809 
L 641 3341 
Q 956 3463 1253 3523 
Q 1550 3584 1831 3584 
Q 2591 3584 2966 3190 
Q 3341 2797 3341 1997 
z
" transform="scale(0.015625)"/>
      </defs>
      <use xlink:href="#DejaVuSans-31" transform="translate(0 0.015625)"/>
      <use xlink:href="#DejaVuSans-Oblique-3c3" transform="translate(63.623047 0.015625)"/>
      <use xlink:href="#DejaVuSans-20" transform="translate(127.001953 0.015625)"/>
      <use xlink:href="#DejaVuSans-4e" transform="translate(158.789062 0.015625)"/>
      <use xlink:href="#DejaVuSans-75" transform="translate(233.59375 0.015625)"/>
      <use xlink:href="#DejaVuSans-69" transform="translate(296.972656 0.015625)"/>
      <use xlink:href="#DejaVuSans-73" transform="translate(324.755859 0.015625)"/>
      <use xlink:href="#DejaVuSans-61" transform="translate(376.855469 0.015625)"/>
      <use xlink:href="#DejaVuSans-6e" transform="translate(438.134766 0.015625)"/>
      <use xlink:href="#DejaVuSans-63" transform="translate(501.513672 0.015625)"/>
      <use xlink:href="#DejaVuSans-65" transform="translate(556.494141 0.015625)"/>
     </g>
    </g>
    <g id="patch_9">
     <path d="M 322.3 47.692563 
L 342.3 47.692563 
L 342.3 40.692563 
L 322.3 40.692563 
z
" style="fill: #ff0000; fill-opacity: 0.6"/>
    </g>
    <g id="text_8">
     <!-- $1\sigma$ Standard -->
     <g transform="translate(350.3 47.692563) scale(0.1 -0.1)">
      <defs>
       <path id="DejaVuSans-53" d="M 3425 4513 
L 3425 3897 
Q 3066 4069 2747 4153 
Q 2428 4238 2131 4238 
Q 1616 4238 1336 4038 
Q 1056 3838 1056 3469 
Q 1056 3159 1242 3001 
Q 1428 2844 1947 2747 
L 2328 2669 
Q 3034 2534 3370 2195 
Q 3706 1856 3706 1288 
Q 3706 609 3251 259 
Q 2797 -91 1919 -91 
Q 1588 -91 1214 -16 
Q 841 59 441 206 
L 441 856 
Q 825 641 1194 531 
Q 1563 422 1919 422 
Q 2459 422 2753 634 
Q 3047 847 3047 1241 
Q 3047 1584 2836 1778 
Q 2625 1972 2144 2069 
L 1759 2144 
Q 1053 2284 737 2584 
Q 422 2884 422 3419 
Q 422 4038 858 4394 
Q 1294 4750 2059 4750 
Q 2388 4750 2728 4690 
Q 3069 4631 3425 4513 
z
" transform="scale(0.015625)"/>
       <path id="DejaVuSans-74" d="M 1172 4494 
L 1172 3500 
L 2356 3500 
L 2356 3053 
L 1172 3053 
L 1172 1153 
Q 1172 725 1289 603 
Q 1406 481 1766 481 
L 2356 481 
L 2356 0 
L 1766 0 
Q 1100 0 847 248 
Q 594 497 594 1153 
L 594 3053 
L 172 3053 
L 172 3500 
L 594 3500 
L 594 4494 
L 1172 4494 
z
" transform="scale(0.015625)"/>
      </defs>
      <use xlink:href="#DejaVuSans-31" transform="translate(0 0.015625)"/>
      <use xlink:href="#DejaVuSans-Oblique-3c3" transform="translate(63.623047 0.015625)"/>
      <use xlink:href="#DejaVuSans-20" transform="translate(127.001953 0.015625)"/>
      <use xlink:href="#DejaVuSans-53" transform="translate(158.789062 0.015625)"/>
      <use xlink:href="#DejaVuSans-74" transform="translate(222.265625 0.015625)"/>
      <use xlink:href="#DejaVuSans-61" transform="translate(261.474609 0.015625)"/>
      <use xlink:href="#DejaVuSans-6e" transform="translate(322.753906 0.015625)"/>
      <use xlink:href="#DejaVuSans-64" transform="translate(386.132812 0.015625)"/>
      <use xlink:href="#DejaVuSans-61" transform="translate(449.609375 0.015625)"/>
      <use xlink:href="#DejaVuSans-72" transform="translate(510.888672 0.015625)"/>
      <use xlink:href="#DejaVuSans-64" transform="translate(552.001953 0.015625)"/>
     </g>
    </g>
    <g id="line2d_40">
     <path d="M 322.3 58.870688 
L 332.3 58.870688 
L 342.3 58.870688 
" style="fill: none; stroke-dasharray: 1.5,2.475; stroke-dashoffset: 0; stroke: #000000; stroke-width: 1.5"/>
    </g>
    <g id="text_9">
     <!-- Input -->
     <g transform="translate(350.3 62.370688) scale(0.1 -0.1)">
      <defs>
       <path id="DejaVuSans-49" d="M 628 4666 
L 1259 4666 
L 1259 0 
L 628 0 
L 628 4666 
z
" transform="scale(0.015625)"/>
       <path id="DejaVuSans-70" d="M 1159 525 
L 1159 -1331 
L 581 -1331 
L 581 3500 
L 1159 3500 
L 1159 2969 
Q 1341 3281 1617 3432 
Q 1894 3584 2278 3584 
Q 2916 3584 3314 3078 
Q 3713 2572 3713 1747 
Q 3713 922 3314 415 
Q 2916 -91 2278 -91 
Q 1894 -91 1617 61 
Q 1341 213 1159 525 
z
M 3116 1747 
Q 3116 2381 2855 2742 
Q 2594 3103 2138 3103 
Q 1681 3103 1420 2742 
Q 1159 2381 1159 1747 
Q 1159 1113 1420 752 
Q 1681 391 2138 391 
Q 2594 391 2855 752 
Q 3116 1113 3116 1747 
z
" transform="scale(0.015625)"/>
      </defs>
      <use xlink:href="#DejaVuSans-49"/>
      <use xlink:href="#DejaVuSans-6e" x="29.492188"/>
      <use xlink:href="#DejaVuSans-70" x="92.871094"/>
      <use xlink:href="#DejaVuSans-75" x="156.347656"/>
      <use xlink:href="#DejaVuSans-74" x="219.726562"/>
     </g>
    </g>
   </g>
  </g>
 </g>
 <defs>
  <clipPath id="p95c006ac43">
   <rect x="64.467139" y="16.416" width="356.732861" height="226.312"/>
  </clipPath>
 </defs>
</svg>
