<?xml version="1.0" encoding="utf-8" standalone="no"?>
<!DOCTYPE svg PUBLIC "-//W3C//DTD SVG 1.1//EN"
  "http://www.w3.org/Graphics/SVG/1.1/DTD/svg11.dtd">
<svg xmlns:xlink="http://www.w3.org/1999/xlink" width="360pt" height="360pt" viewBox="0 0 360 360" xmlns="http://www.w3.org/2000/svg" version="1.1">
 <metadata>
  <rdf:RDF xmlns:dc="http://purl.org/dc/elements/1.1/" xmlns:cc="http://creativecommons.org/ns#" xmlns:rdf="http://www.w3.org/1999/02/22-rdf-syntax-ns#">
   <cc:Work>
    <dc:type rdf:resource="http://purl.org/dc/dcmitype/StillImage"/>
    <dc:date>2023-03-13T17:27:09.210050</dc:date>
    <dc:format>image/svg+xml</dc:format>
    <dc:creator>
     <cc:Agent>
      <dc:title>Matplotlib v3.6.2, https://matplotlib.org/</dc:title>
     </cc:Agent>
    </dc:creator>
   </cc:Work>
  </rdf:RDF>
 </metadata>
 <defs>
  <style type="text/css">*{stroke-linejoin: round; stroke-linecap: butt}</style>
 </defs>
 <g id="figure_1">
  <g id="patch_1">
   <path d="M 0 360 
L 360 360 
L 360 0 
L 0 0 
z
" style="fill: #ffffff"/>
  </g>
  <g id="axes_1">
   <g id="patch_2">
    <path d="M 60.468889 190.307295 
L 346.195822 190.307295 
L 346.195822 25.44 
L 60.468889 25.44 
z
" style="fill: #ffffff"/>
   </g>
   <g id="PolyCollection_1">
    <path d="M 74.755236 34.165991 
L 74.755236 35.017043 
L 77.352754 35.05219 
L 79.950271 35.089115 
L 82.547789 35.127936 
L 85.145306 35.168778 
L 87.742824 35.211775 
L 90.340341 35.257071 
L 92.937859 35.304818 
L 95.535376 35.355174 
L 98.132894 35.408306 
L 100.730412 35.464383 
L 103.327929 35.523579 
L 105.925447 35.586063 
L 108.522964 35.652002 
L 111.120482 35.721555 
L 113.717999 35.794867 
L 116.315517 35.872072 
L 118.913035 35.953289 
L 121.510552 36.038624 
L 124.10807 36.12817 
L 126.705587 36.222013 
L 129.303105 36.320239 
L 131.900622 36.422932 
L 134.49814 36.530187 
L 137.095658 36.642106 
L 139.693175 36.75881 
L 142.290693 36.880435 
L 144.88821 37.00714 
L 147.485728 37.139103 
L 150.083245 37.276529 
L 152.680763 37.419647 
L 155.27828 37.568709 
L 157.875798 37.723997 
L 160.473316 37.885822 
L 163.070833 38.054522 
L 165.668351 38.230467 
L 168.265868 38.41406 
L 170.863386 38.60574 
L 173.460903 38.805979 
L 176.058421 39.015294 
L 178.655939 39.234238 
L 181.253456 39.463414 
L 183.850974 39.70347 
L 186.448491 39.955107 
L 189.046009 40.219079 
L 191.643526 40.496201 
L 194.241044 40.787344 
L 196.838562 41.093449 
L 199.436079 41.415519 
L 202.033597 41.754627 
L 204.631114 42.111916 
L 207.228632 42.488601 
L 209.826149 42.885965 
L 212.423667 43.305367 
L 215.021184 43.748234 
L 217.618702 44.216066 
L 220.21622 44.710435 
L 222.813737 45.232992 
L 225.411255 45.78546 
L 228.008772 46.369651 
L 230.60629 46.987461 
L 233.203807 47.640884 
L 235.801325 48.33202 
L 238.398843 49.06308 
L 240.99636 49.836402 
L 243.593878 50.654459 
L 246.191395 51.519876 
L 248.788913 52.435436 
L 251.38643 53.404102 
L 253.983948 54.429029 
L 256.581466 55.513581 
L 259.178983 56.661351 
L 261.776501 57.876182 
L 264.374018 59.16219 
L 266.971536 60.523792 
L 269.569053 61.965733 
L 272.166571 63.493128 
L 274.764088 65.111497 
L 277.361606 66.826818 
L 279.959124 68.645586 
L 282.556641 70.574881 
L 285.154159 72.622462 
L 287.751676 74.79687 
L 290.349194 77.107577 
L 292.946711 79.565156 
L 295.544229 82.181529 
L 298.141747 84.970284 
L 300.739264 87.947119 
L 303.336782 91.13047 
L 305.934299 94.54243 
L 308.531817 98.210142 
L 311.129334 102.167987 
L 313.726852 106.461231 
L 316.32437 111.15243 
L 318.921887 116.333638 
L 321.519405 122.152156 
L 324.116922 128.873156 
L 326.71444 137.069354 
L 329.311957 148.476696 
L 331.909475 182.813327 
L 331.909475 114.035136 
L 331.909475 114.035136 
L 329.311957 109.843159 
L 326.71444 105.881575 
L 324.116922 102.137585 
L 321.519405 98.599081 
L 318.921887 95.254615 
L 316.32437 92.093356 
L 313.726852 89.105068 
L 311.129334 86.280069 
L 308.531817 83.609211 
L 305.934299 81.083846 
L 303.336782 78.695802 
L 300.739264 76.437359 
L 298.141747 74.301223 
L 295.544229 72.280506 
L 292.946711 70.368699 
L 290.349194 68.55966 
L 287.751676 66.847588 
L 285.154159 65.227005 
L 282.556641 63.692741 
L 279.959124 62.239917 
L 277.361606 60.863926 
L 274.764088 59.560422 
L 272.166571 58.325302 
L 269.569053 57.154694 
L 266.971536 56.044946 
L 264.374018 54.992609 
L 261.776501 53.994433 
L 259.178983 53.047347 
L 256.581466 52.148456 
L 253.983948 51.29503 
L 251.38643 50.484493 
L 248.788913 49.714415 
L 246.191395 48.982509 
L 243.593878 48.286617 
L 240.99636 47.624712 
L 238.398843 46.994884 
L 235.801325 46.395342 
L 233.203807 45.824405 
L 230.60629 45.280501 
L 228.008772 44.76216 
L 225.411255 44.268013 
L 222.813737 43.796786 
L 220.21622 43.347297 
L 217.618702 42.918449 
L 215.021184 42.509229 
L 212.423667 42.118695 
L 209.826149 41.745975 
L 207.228632 41.390257 
L 204.631114 41.050783 
L 202.033597 40.72684 
L 199.436079 40.417754 
L 196.838562 40.122886 
L 194.241044 39.841624 
L 191.643526 39.573383 
L 189.046009 39.317594 
L 186.448491 39.073712 
L 183.850974 38.841205 
L 181.253456 38.619557 
L 178.655939 38.408269 
L 176.058421 38.206853 
L 173.460903 38.014838 
L 170.863386 37.831762 
L 168.265868 37.65718 
L 165.668351 37.490659 
L 163.070833 37.331776 
L 160.473316 37.180122 
L 157.875798 37.035299 
L 155.27828 36.896918 
L 152.680763 36.764601 
L 150.083245 36.637978 
L 147.485728 36.516688 
L 144.88821 36.400375 
L 142.290693 36.288692 
L 139.693175 36.181297 
L 137.095658 36.077854 
L 134.49814 35.978031 
L 131.900622 35.881507 
L 129.303105 35.787967 
L 126.705587 35.697106 
L 124.10807 35.608638 
L 121.510552 35.522289 
L 118.913035 35.437811 
L 116.315517 35.35498 
L 113.717999 35.2736 
L 111.120482 35.193504 
L 108.522964 35.114557 
L 105.925447 35.036648 
L 103.327929 34.959696 
L 100.730412 34.883636 
L 98.132894 34.808423 
L 95.535376 34.734025 
L 92.937859 34.660416 
L 90.340341 34.587579 
L 87.742824 34.5155 
L 85.145306 34.444164 
L 82.547789 34.373558 
L 79.950271 34.303671 
L 77.352754 34.234487 
L 74.755236 34.165991 
z
" clip-path="url(#p67ebf57504)" style="fill: #ff0000; fill-opacity: 0.5"/>
   </g>
   <g id="PolyCollection_2">
    <path d="M 74.755236 32.933968 
L 74.755236 37.257506 
L 77.352754 37.290386 
L 79.950271 37.324767 
L 82.547789 37.360714 
L 85.145306 37.398293 
L 87.742824 37.437576 
L 90.340341 37.478636 
L 92.937859 37.521553 
L 95.535376 37.566409 
L 98.132894 37.613291 
L 100.730412 37.662292 
L 103.327929 37.71351 
L 105.925447 37.767046 
L 108.522964 37.82301 
L 111.120482 37.881516 
L 113.717999 37.942685 
L 116.315517 38.006645 
L 118.913035 38.073532 
L 121.510552 38.143488 
L 124.10807 38.216664 
L 126.705587 38.293221 
L 129.303105 38.373327 
L 131.900622 38.457161 
L 134.49814 38.544913 
L 137.095658 38.636782 
L 139.693175 38.732982 
L 142.290693 38.833737 
L 144.88821 38.939285 
L 147.485728 39.049878 
L 150.083245 39.165784 
L 152.680763 39.287284 
L 155.27828 39.414681 
L 157.875798 39.548293 
L 160.473316 39.688457 
L 163.070833 39.835533 
L 165.668351 39.9899 
L 168.265868 40.151964 
L 170.863386 40.322154 
L 173.460903 40.500926 
L 176.058421 40.688765 
L 178.655939 40.886188 
L 181.253456 41.093742 
L 183.850974 41.312012 
L 186.448491 41.541619 
L 189.046009 41.783226 
L 191.643526 42.037537 
L 194.241044 42.305306 
L 196.838562 42.587334 
L 199.436079 42.884477 
L 202.033597 43.197648 
L 204.631114 43.527823 
L 207.228632 43.876044 
L 209.826149 44.243425 
L 212.423667 44.631155 
L 215.021184 45.04051 
L 217.618702 45.472851 
L 220.21622 45.929635 
L 222.813737 46.412422 
L 225.411255 46.922881 
L 228.008772 47.462797 
L 230.60629 48.034081 
L 233.203807 48.638775 
L 235.801325 49.279062 
L 238.398843 49.957274 
L 240.99636 50.675901 
L 243.593878 51.437599 
L 246.191395 52.245198 
L 248.788913 53.101712 
L 251.38643 54.010349 
L 253.983948 54.974521 
L 256.581466 55.997852 
L 259.178983 57.084196 
L 261.776501 58.237649 
L 264.374018 59.462568 
L 266.971536 60.76359 
L 269.569053 62.145663 
L 272.166571 63.614071 
L 274.764088 65.174478 
L 277.361606 66.832975 
L 279.959124 68.596133 
L 282.556641 70.471079 
L 285.154159 72.465577 
L 287.751676 74.588146 
L 290.349194 76.848187 
L 292.946711 79.25617 
L 295.544229 81.823862 
L 298.141747 84.564639 
L 300.739264 87.493913 
L 303.336782 90.629735 
L 305.934299 93.993669 
L 308.531817 97.612108 
L 311.129334 101.51834 
L 313.726852 105.755942 
L 316.32437 110.384717 
L 318.921887 115.491856 
L 321.519405 121.215141 
L 324.116922 127.798151 
L 326.71444 135.75168 
L 329.311957 146.532022 
L 331.909475 170.733257 
L 331.909475 112.966368 
L 331.909475 112.966368 
L 329.311957 108.768865 
L 326.71444 104.801321 
L 324.116922 101.050864 
L 321.519405 97.505312 
L 318.921887 94.153138 
L 316.32437 90.983439 
L 313.726852 87.985898 
L 311.129334 85.150758 
L 308.531817 82.468793 
L 305.934299 79.931281 
L 303.336782 77.529978 
L 300.739264 75.257093 
L 298.141747 73.105268 
L 295.544229 71.067557 
L 292.946711 69.137404 
L 290.349194 67.308626 
L 287.751676 65.575398 
L 285.154159 63.932233 
L 282.556641 62.37397 
L 279.959124 60.895759 
L 277.361606 59.493047 
L 274.764088 58.161564 
L 272.166571 56.897313 
L 269.569053 55.696555 
L 266.971536 54.555795 
L 264.374018 53.471771 
L 261.776501 52.44144 
L 259.178983 51.46196 
L 256.581466 50.530683 
L 253.983948 49.645135 
L 251.38643 48.803002 
L 248.788913 48.002118 
L 246.191395 47.240454 
L 243.593878 46.516097 
L 240.99636 45.827248 
L 238.398843 45.172207 
L 235.801325 44.549361 
L 233.203807 43.957182 
L 230.60629 43.394216 
L 228.008772 42.859076 
L 225.411255 42.35044 
L 222.813737 41.867046 
L 220.21622 41.407686 
L 217.618702 40.971205 
L 215.021184 40.556498 
L 212.423667 40.162507 
L 209.826149 39.788221 
L 207.228632 39.432672 
L 204.631114 39.094933 
L 202.033597 38.774118 
L 199.436079 38.469383 
L 196.838562 38.179918 
L 194.241044 37.90495 
L 191.643526 37.643744 
L 189.046009 37.395595 
L 186.448491 37.159833 
L 183.850974 36.935819 
L 181.253456 36.722942 
L 178.655939 36.520624 
L 176.058421 36.328311 
L 173.460903 36.145477 
L 170.863386 35.971622 
L 168.265868 35.806269 
L 165.668351 35.648966 
L 163.070833 35.499283 
L 160.473316 35.35681 
L 157.875798 35.221159 
L 155.27828 35.09196 
L 152.680763 34.968863 
L 150.083245 34.851534 
L 147.485728 34.739659 
L 144.88821 34.632935 
L 142.290693 34.531079 
L 139.693175 34.433821 
L 137.095658 34.340903 
L 134.49814 34.252084 
L 131.900622 34.167131 
L 129.303105 34.085828 
L 126.705587 34.007965 
L 124.10807 33.933347 
L 121.510552 33.861787 
L 118.913035 33.79311 
L 116.315517 33.727146 
L 113.717999 33.663739 
L 111.120482 33.602738 
L 108.522964 33.544001 
L 105.925447 33.487393 
L 103.327929 33.432787 
L 100.730412 33.380062 
L 98.132894 33.329104 
L 95.535376 33.279805 
L 92.937859 33.232063 
L 90.340341 33.185781 
L 87.742824 33.140868 
L 85.145306 33.097237 
L 82.547789 33.054807 
L 79.950271 33.0135 
L 77.352754 32.973243 
L 74.755236 32.933968 
z
" clip-path="url(#p67ebf57504)" style="fill: #008000; fill-opacity: 0.5"/>
   </g>
   <g id="matplotlib.axis_1">
    <g id="xtick_1">
     <g id="line2d_1">
      <defs>
       <path id="m46981c2480" d="M 0 0 
L 0 3.5 
" style="stroke: #000000; stroke-width: 0.8"/>
      </defs>
      <g>
       <use xlink:href="#m46981c2480" x="121.305485" y="190.307295" style="stroke: #000000; stroke-width: 0.8"/>
      </g>
     </g>
    </g>
    <g id="xtick_2">
     <g id="line2d_2">
      <g>
       <use xlink:href="#m46981c2480" x="230.674646" y="190.307295" style="stroke: #000000; stroke-width: 0.8"/>
      </g>
     </g>
    </g>
    <g id="xtick_3">
     <g id="line2d_3">
      <g>
       <use xlink:href="#m46981c2480" x="340.043807" y="190.307295" style="stroke: #000000; stroke-width: 0.8"/>
      </g>
     </g>
    </g>
    <g id="xtick_4">
     <g id="line2d_4">
      <defs>
       <path id="m4f47d4dc7c" d="M 0 0 
L 0 2 
" style="stroke: #000000; stroke-width: 0.6"/>
      </defs>
      <g>
       <use xlink:href="#m4f47d4dc7c" x="64.118675" y="190.307295" style="stroke: #000000; stroke-width: 0.6"/>
      </g>
     </g>
    </g>
    <g id="xtick_5">
     <g id="line2d_5">
      <g>
       <use xlink:href="#m4f47d4dc7c" x="77.78312" y="190.307295" style="stroke: #000000; stroke-width: 0.6"/>
      </g>
     </g>
    </g>
    <g id="xtick_6">
     <g id="line2d_6">
      <g>
       <use xlink:href="#m4f47d4dc7c" x="88.382087" y="190.307295" style="stroke: #000000; stroke-width: 0.6"/>
      </g>
     </g>
    </g>
    <g id="xtick_7">
     <g id="line2d_7">
      <g>
       <use xlink:href="#m4f47d4dc7c" x="97.042073" y="190.307295" style="stroke: #000000; stroke-width: 0.6"/>
      </g>
     </g>
    </g>
    <g id="xtick_8">
     <g id="line2d_8">
      <g>
       <use xlink:href="#m4f47d4dc7c" x="104.363987" y="190.307295" style="stroke: #000000; stroke-width: 0.6"/>
      </g>
     </g>
    </g>
    <g id="xtick_9">
     <g id="line2d_9">
      <g>
       <use xlink:href="#m4f47d4dc7c" x="110.706518" y="190.307295" style="stroke: #000000; stroke-width: 0.6"/>
      </g>
     </g>
    </g>
    <g id="xtick_10">
     <g id="line2d_10">
      <g>
       <use xlink:href="#m4f47d4dc7c" x="116.301026" y="190.307295" style="stroke: #000000; stroke-width: 0.6"/>
      </g>
     </g>
    </g>
    <g id="xtick_11">
     <g id="line2d_11">
      <g>
       <use xlink:href="#m4f47d4dc7c" x="154.228883" y="190.307295" style="stroke: #000000; stroke-width: 0.6"/>
      </g>
     </g>
    </g>
    <g id="xtick_12">
     <g id="line2d_12">
      <g>
       <use xlink:href="#m4f47d4dc7c" x="173.487836" y="190.307295" style="stroke: #000000; stroke-width: 0.6"/>
      </g>
     </g>
    </g>
    <g id="xtick_13">
     <g id="line2d_13">
      <g>
       <use xlink:href="#m4f47d4dc7c" x="187.152281" y="190.307295" style="stroke: #000000; stroke-width: 0.6"/>
      </g>
     </g>
    </g>
    <g id="xtick_14">
     <g id="line2d_14">
      <g>
       <use xlink:href="#m4f47d4dc7c" x="197.751248" y="190.307295" style="stroke: #000000; stroke-width: 0.6"/>
      </g>
     </g>
    </g>
    <g id="xtick_15">
     <g id="line2d_15">
      <g>
       <use xlink:href="#m4f47d4dc7c" x="206.411234" y="190.307295" style="stroke: #000000; stroke-width: 0.6"/>
      </g>
     </g>
    </g>
    <g id="xtick_16">
     <g id="line2d_16">
      <g>
       <use xlink:href="#m4f47d4dc7c" x="213.733149" y="190.307295" style="stroke: #000000; stroke-width: 0.6"/>
      </g>
     </g>
    </g>
    <g id="xtick_17">
     <g id="line2d_17">
      <g>
       <use xlink:href="#m4f47d4dc7c" x="220.075679" y="190.307295" style="stroke: #000000; stroke-width: 0.6"/>
      </g>
     </g>
    </g>
    <g id="xtick_18">
     <g id="line2d_18">
      <g>
       <use xlink:href="#m4f47d4dc7c" x="225.670188" y="190.307295" style="stroke: #000000; stroke-width: 0.6"/>
      </g>
     </g>
    </g>
    <g id="xtick_19">
     <g id="line2d_19">
      <g>
       <use xlink:href="#m4f47d4dc7c" x="263.598044" y="190.307295" style="stroke: #000000; stroke-width: 0.6"/>
      </g>
     </g>
    </g>
    <g id="xtick_20">
     <g id="line2d_20">
      <g>
       <use xlink:href="#m4f47d4dc7c" x="282.856997" y="190.307295" style="stroke: #000000; stroke-width: 0.6"/>
      </g>
     </g>
    </g>
    <g id="xtick_21">
     <g id="line2d_21">
      <g>
       <use xlink:href="#m4f47d4dc7c" x="296.521442" y="190.307295" style="stroke: #000000; stroke-width: 0.6"/>
      </g>
     </g>
    </g>
    <g id="xtick_22">
     <g id="line2d_22">
      <g>
       <use xlink:href="#m4f47d4dc7c" x="307.120409" y="190.307295" style="stroke: #000000; stroke-width: 0.6"/>
      </g>
     </g>
    </g>
    <g id="xtick_23">
     <g id="line2d_23">
      <g>
       <use xlink:href="#m4f47d4dc7c" x="315.780396" y="190.307295" style="stroke: #000000; stroke-width: 0.6"/>
      </g>
     </g>
    </g>
    <g id="xtick_24">
     <g id="line2d_24">
      <g>
       <use xlink:href="#m4f47d4dc7c" x="323.10231" y="190.307295" style="stroke: #000000; stroke-width: 0.6"/>
      </g>
     </g>
    </g>
    <g id="xtick_25">
     <g id="line2d_25">
      <g>
       <use xlink:href="#m4f47d4dc7c" x="329.44484" y="190.307295" style="stroke: #000000; stroke-width: 0.6"/>
      </g>
     </g>
    </g>
    <g id="xtick_26">
     <g id="line2d_26">
      <g>
       <use xlink:href="#m4f47d4dc7c" x="335.039349" y="190.307295" style="stroke: #000000; stroke-width: 0.6"/>
      </g>
     </g>
    </g>
   </g>
   <g id="matplotlib.axis_2">
    <g id="ytick_1">
     <g id="line2d_27">
      <defs>
       <path id="m2315a49f5c" d="M 0 0 
L -3.5 0 
" style="stroke: #000000; stroke-width: 0.8"/>
      </defs>
      <g>
       <use xlink:href="#m2315a49f5c" x="60.468889" y="176.346385" style="stroke: #000000; stroke-width: 0.8"/>
      </g>
     </g>
     <g id="text_1">
      <!-- $\mathdefault{10^{-17}}$ -->
      <g transform="translate(25.568889 180.145604) scale(0.1 -0.1)">
       <defs>
        <path id="DejaVuSans-31" d="M 794 531 
L 1825 531 
L 1825 4091 
L 703 3866 
L 703 4441 
L 1819 4666 
L 2450 4666 
L 2450 531 
L 3481 531 
L 3481 0 
L 794 0 
L 794 531 
z
" transform="scale(0.015625)"/>
        <path id="DejaVuSans-30" d="M 2034 4250 
Q 1547 4250 1301 3770 
Q 1056 3291 1056 2328 
Q 1056 1369 1301 889 
Q 1547 409 2034 409 
Q 2525 409 2770 889 
Q 3016 1369 3016 2328 
Q 3016 3291 2770 3770 
Q 2525 4250 2034 4250 
z
M 2034 4750 
Q 2819 4750 3233 4129 
Q 3647 3509 3647 2328 
Q 3647 1150 3233 529 
Q 2819 -91 2034 -91 
Q 1250 -91 836 529 
Q 422 1150 422 2328 
Q 422 3509 836 4129 
Q 1250 4750 2034 4750 
z
" transform="scale(0.015625)"/>
        <path id="DejaVuSans-2212" d="M 678 2272 
L 4684 2272 
L 4684 1741 
L 678 1741 
L 678 2272 
z
" transform="scale(0.015625)"/>
        <path id="DejaVuSans-37" d="M 525 4666 
L 3525 4666 
L 3525 4397 
L 1831 0 
L 1172 0 
L 2766 4134 
L 525 4134 
L 525 4666 
z
" transform="scale(0.015625)"/>
       </defs>
       <use xlink:href="#DejaVuSans-31" transform="translate(0 0.684375)"/>
       <use xlink:href="#DejaVuSans-30" transform="translate(63.623047 0.684375)"/>
       <use xlink:href="#DejaVuSans-2212" transform="translate(128.203125 38.965625) scale(0.7)"/>
       <use xlink:href="#DejaVuSans-31" transform="translate(186.855469 38.965625) scale(0.7)"/>
       <use xlink:href="#DejaVuSans-37" transform="translate(231.391602 38.965625) scale(0.7)"/>
      </g>
     </g>
    </g>
    <g id="ytick_2">
     <g id="line2d_28">
      <g>
       <use xlink:href="#m2315a49f5c" x="60.468889" y="150.331694" style="stroke: #000000; stroke-width: 0.8"/>
      </g>
     </g>
     <g id="text_2">
      <!-- $\mathdefault{10^{-16}}$ -->
      <g transform="translate(25.568889 154.130913) scale(0.1 -0.1)">
       <defs>
        <path id="DejaVuSans-36" d="M 2113 2584 
Q 1688 2584 1439 2293 
Q 1191 2003 1191 1497 
Q 1191 994 1439 701 
Q 1688 409 2113 409 
Q 2538 409 2786 701 
Q 3034 994 3034 1497 
Q 3034 2003 2786 2293 
Q 2538 2584 2113 2584 
z
M 3366 4563 
L 3366 3988 
Q 3128 4100 2886 4159 
Q 2644 4219 2406 4219 
Q 1781 4219 1451 3797 
Q 1122 3375 1075 2522 
Q 1259 2794 1537 2939 
Q 1816 3084 2150 3084 
Q 2853 3084 3261 2657 
Q 3669 2231 3669 1497 
Q 3669 778 3244 343 
Q 2819 -91 2113 -91 
Q 1303 -91 875 529 
Q 447 1150 447 2328 
Q 447 3434 972 4092 
Q 1497 4750 2381 4750 
Q 2619 4750 2861 4703 
Q 3103 4656 3366 4563 
z
" transform="scale(0.015625)"/>
       </defs>
       <use xlink:href="#DejaVuSans-31" transform="translate(0 0.765625)"/>
       <use xlink:href="#DejaVuSans-30" transform="translate(63.623047 0.765625)"/>
       <use xlink:href="#DejaVuSans-2212" transform="translate(128.203125 39.046875) scale(0.7)"/>
       <use xlink:href="#DejaVuSans-31" transform="translate(186.855469 39.046875) scale(0.7)"/>
       <use xlink:href="#DejaVuSans-36" transform="translate(231.391602 39.046875) scale(0.7)"/>
      </g>
     </g>
    </g>
    <g id="ytick_3">
     <g id="line2d_29">
      <g>
       <use xlink:href="#m2315a49f5c" x="60.468889" y="124.317004" style="stroke: #000000; stroke-width: 0.8"/>
      </g>
     </g>
     <g id="text_3">
      <!-- $\mathdefault{10^{-15}}$ -->
      <g transform="translate(25.568889 128.116222) scale(0.1 -0.1)">
       <defs>
        <path id="DejaVuSans-35" d="M 691 4666 
L 3169 4666 
L 3169 4134 
L 1269 4134 
L 1269 2991 
Q 1406 3038 1543 3061 
Q 1681 3084 1819 3084 
Q 2600 3084 3056 2656 
Q 3513 2228 3513 1497 
Q 3513 744 3044 326 
Q 2575 -91 1722 -91 
Q 1428 -91 1123 -41 
Q 819 9 494 109 
L 494 744 
Q 775 591 1075 516 
Q 1375 441 1709 441 
Q 2250 441 2565 725 
Q 2881 1009 2881 1497 
Q 2881 1984 2565 2268 
Q 2250 2553 1709 2553 
Q 1456 2553 1204 2497 
Q 953 2441 691 2322 
L 691 4666 
z
" transform="scale(0.015625)"/>
       </defs>
       <use xlink:href="#DejaVuSans-31" transform="translate(0 0.684375)"/>
       <use xlink:href="#DejaVuSans-30" transform="translate(63.623047 0.684375)"/>
       <use xlink:href="#DejaVuSans-2212" transform="translate(128.203125 38.965625) scale(0.7)"/>
       <use xlink:href="#DejaVuSans-31" transform="translate(186.855469 38.965625) scale(0.7)"/>
       <use xlink:href="#DejaVuSans-35" transform="translate(231.391602 38.965625) scale(0.7)"/>
      </g>
     </g>
    </g>
    <g id="ytick_4">
     <g id="line2d_30">
      <g>
       <use xlink:href="#m2315a49f5c" x="60.468889" y="98.302313" style="stroke: #000000; stroke-width: 0.8"/>
      </g>
     </g>
     <g id="text_4">
      <!-- $\mathdefault{10^{-14}}$ -->
      <g transform="translate(25.568889 102.101531) scale(0.1 -0.1)">
       <defs>
        <path id="DejaVuSans-34" d="M 2419 4116 
L 825 1625 
L 2419 1625 
L 2419 4116 
z
M 2253 4666 
L 3047 4666 
L 3047 1625 
L 3713 1625 
L 3713 1100 
L 3047 1100 
L 3047 0 
L 2419 0 
L 2419 1100 
L 313 1100 
L 313 1709 
L 2253 4666 
z
" transform="scale(0.015625)"/>
       </defs>
       <use xlink:href="#DejaVuSans-31" transform="translate(0 0.684375)"/>
       <use xlink:href="#DejaVuSans-30" transform="translate(63.623047 0.684375)"/>
       <use xlink:href="#DejaVuSans-2212" transform="translate(128.203125 38.965625) scale(0.7)"/>
       <use xlink:href="#DejaVuSans-31" transform="translate(186.855469 38.965625) scale(0.7)"/>
       <use xlink:href="#DejaVuSans-34" transform="translate(231.391602 38.965625) scale(0.7)"/>
      </g>
     </g>
    </g>
    <g id="ytick_5">
     <g id="line2d_31">
      <g>
       <use xlink:href="#m2315a49f5c" x="60.468889" y="72.287622" style="stroke: #000000; stroke-width: 0.8"/>
      </g>
     </g>
     <g id="text_5">
      <!-- $\mathdefault{10^{-13}}$ -->
      <g transform="translate(25.568889 76.086841) scale(0.1 -0.1)">
       <defs>
        <path id="DejaVuSans-33" d="M 2597 2516 
Q 3050 2419 3304 2112 
Q 3559 1806 3559 1356 
Q 3559 666 3084 287 
Q 2609 -91 1734 -91 
Q 1441 -91 1130 -33 
Q 819 25 488 141 
L 488 750 
Q 750 597 1062 519 
Q 1375 441 1716 441 
Q 2309 441 2620 675 
Q 2931 909 2931 1356 
Q 2931 1769 2642 2001 
Q 2353 2234 1838 2234 
L 1294 2234 
L 1294 2753 
L 1863 2753 
Q 2328 2753 2575 2939 
Q 2822 3125 2822 3475 
Q 2822 3834 2567 4026 
Q 2313 4219 1838 4219 
Q 1578 4219 1281 4162 
Q 984 4106 628 3988 
L 628 4550 
Q 988 4650 1302 4700 
Q 1616 4750 1894 4750 
Q 2613 4750 3031 4423 
Q 3450 4097 3450 3541 
Q 3450 3153 3228 2886 
Q 3006 2619 2597 2516 
z
" transform="scale(0.015625)"/>
       </defs>
       <use xlink:href="#DejaVuSans-31" transform="translate(0 0.765625)"/>
       <use xlink:href="#DejaVuSans-30" transform="translate(63.623047 0.765625)"/>
       <use xlink:href="#DejaVuSans-2212" transform="translate(128.203125 39.046875) scale(0.7)"/>
       <use xlink:href="#DejaVuSans-31" transform="translate(186.855469 39.046875) scale(0.7)"/>
       <use xlink:href="#DejaVuSans-33" transform="translate(231.391602 39.046875) scale(0.7)"/>
      </g>
     </g>
    </g>
    <g id="ytick_6">
     <g id="line2d_32">
      <g>
       <use xlink:href="#m2315a49f5c" x="60.468889" y="46.272931" style="stroke: #000000; stroke-width: 0.8"/>
      </g>
     </g>
     <g id="text_6">
      <!-- $\mathdefault{10^{-12}}$ -->
      <g transform="translate(25.568889 50.07215) scale(0.1 -0.1)">
       <defs>
        <path id="DejaVuSans-32" d="M 1228 531 
L 3431 531 
L 3431 0 
L 469 0 
L 469 531 
Q 828 903 1448 1529 
Q 2069 2156 2228 2338 
Q 2531 2678 2651 2914 
Q 2772 3150 2772 3378 
Q 2772 3750 2511 3984 
Q 2250 4219 1831 4219 
Q 1534 4219 1204 4116 
Q 875 4013 500 3803 
L 500 4441 
Q 881 4594 1212 4672 
Q 1544 4750 1819 4750 
Q 2544 4750 2975 4387 
Q 3406 4025 3406 3419 
Q 3406 3131 3298 2873 
Q 3191 2616 2906 2266 
Q 2828 2175 2409 1742 
Q 1991 1309 1228 531 
z
" transform="scale(0.015625)"/>
       </defs>
       <use xlink:href="#DejaVuSans-31" transform="translate(0 0.765625)"/>
       <use xlink:href="#DejaVuSans-30" transform="translate(63.623047 0.765625)"/>
       <use xlink:href="#DejaVuSans-2212" transform="translate(128.203125 39.046875) scale(0.7)"/>
       <use xlink:href="#DejaVuSans-31" transform="translate(186.855469 39.046875) scale(0.7)"/>
       <use xlink:href="#DejaVuSans-32" transform="translate(231.391602 39.046875) scale(0.7)"/>
      </g>
     </g>
    </g>
    <g id="ytick_7">
     <g id="line2d_33">
      <defs>
       <path id="m3bfb7445ca" d="M 0 0 
L -2 0 
" style="stroke: #000000; stroke-width: 0.6"/>
      </defs>
      <g>
       <use xlink:href="#m3bfb7445ca" x="60.468889" y="189.948914" style="stroke: #000000; stroke-width: 0.6"/>
      </g>
     </g>
    </g>
    <g id="ytick_8">
     <g id="line2d_34">
      <g>
       <use xlink:href="#m3bfb7445ca" x="60.468889" y="186.698672" style="stroke: #000000; stroke-width: 0.6"/>
      </g>
     </g>
    </g>
    <g id="ytick_9">
     <g id="line2d_35">
      <g>
       <use xlink:href="#m3bfb7445ca" x="60.468889" y="184.177588" style="stroke: #000000; stroke-width: 0.6"/>
      </g>
     </g>
    </g>
    <g id="ytick_10">
     <g id="line2d_36">
      <g>
       <use xlink:href="#m3bfb7445ca" x="60.468889" y="182.117712" style="stroke: #000000; stroke-width: 0.6"/>
      </g>
     </g>
    </g>
    <g id="ytick_11">
     <g id="line2d_37">
      <g>
       <use xlink:href="#m3bfb7445ca" x="60.468889" y="180.376112" style="stroke: #000000; stroke-width: 0.6"/>
      </g>
     </g>
    </g>
    <g id="ytick_12">
     <g id="line2d_38">
      <g>
       <use xlink:href="#m3bfb7445ca" x="60.468889" y="178.867469" style="stroke: #000000; stroke-width: 0.6"/>
      </g>
     </g>
    </g>
    <g id="ytick_13">
     <g id="line2d_39">
      <g>
       <use xlink:href="#m3bfb7445ca" x="60.468889" y="177.536752" style="stroke: #000000; stroke-width: 0.6"/>
      </g>
     </g>
    </g>
    <g id="ytick_14">
     <g id="line2d_40">
      <g>
       <use xlink:href="#m3bfb7445ca" x="60.468889" y="168.515183" style="stroke: #000000; stroke-width: 0.6"/>
      </g>
     </g>
    </g>
    <g id="ytick_15">
     <g id="line2d_41">
      <g>
       <use xlink:href="#m3bfb7445ca" x="60.468889" y="163.934223" style="stroke: #000000; stroke-width: 0.6"/>
      </g>
     </g>
    </g>
    <g id="ytick_16">
     <g id="line2d_42">
      <g>
       <use xlink:href="#m3bfb7445ca" x="60.468889" y="160.683981" style="stroke: #000000; stroke-width: 0.6"/>
      </g>
     </g>
    </g>
    <g id="ytick_17">
     <g id="line2d_43">
      <g>
       <use xlink:href="#m3bfb7445ca" x="60.468889" y="158.162897" style="stroke: #000000; stroke-width: 0.6"/>
      </g>
     </g>
    </g>
    <g id="ytick_18">
     <g id="line2d_44">
      <g>
       <use xlink:href="#m3bfb7445ca" x="60.468889" y="156.103021" style="stroke: #000000; stroke-width: 0.6"/>
      </g>
     </g>
    </g>
    <g id="ytick_19">
     <g id="line2d_45">
      <g>
       <use xlink:href="#m3bfb7445ca" x="60.468889" y="154.361421" style="stroke: #000000; stroke-width: 0.6"/>
      </g>
     </g>
    </g>
    <g id="ytick_20">
     <g id="line2d_46">
      <g>
       <use xlink:href="#m3bfb7445ca" x="60.468889" y="152.852778" style="stroke: #000000; stroke-width: 0.6"/>
      </g>
     </g>
    </g>
    <g id="ytick_21">
     <g id="line2d_47">
      <g>
       <use xlink:href="#m3bfb7445ca" x="60.468889" y="151.522061" style="stroke: #000000; stroke-width: 0.6"/>
      </g>
     </g>
    </g>
    <g id="ytick_22">
     <g id="line2d_48">
      <g>
       <use xlink:href="#m3bfb7445ca" x="60.468889" y="142.500492" style="stroke: #000000; stroke-width: 0.6"/>
      </g>
     </g>
    </g>
    <g id="ytick_23">
     <g id="line2d_49">
      <g>
       <use xlink:href="#m3bfb7445ca" x="60.468889" y="137.919532" style="stroke: #000000; stroke-width: 0.6"/>
      </g>
     </g>
    </g>
    <g id="ytick_24">
     <g id="line2d_50">
      <g>
       <use xlink:href="#m3bfb7445ca" x="60.468889" y="134.66929" style="stroke: #000000; stroke-width: 0.6"/>
      </g>
     </g>
    </g>
    <g id="ytick_25">
     <g id="line2d_51">
      <g>
       <use xlink:href="#m3bfb7445ca" x="60.468889" y="132.148206" style="stroke: #000000; stroke-width: 0.6"/>
      </g>
     </g>
    </g>
    <g id="ytick_26">
     <g id="line2d_52">
      <g>
       <use xlink:href="#m3bfb7445ca" x="60.468889" y="130.08833" style="stroke: #000000; stroke-width: 0.6"/>
      </g>
     </g>
    </g>
    <g id="ytick_27">
     <g id="line2d_53">
      <g>
       <use xlink:href="#m3bfb7445ca" x="60.468889" y="128.34673" style="stroke: #000000; stroke-width: 0.6"/>
      </g>
     </g>
    </g>
    <g id="ytick_28">
     <g id="line2d_54">
      <g>
       <use xlink:href="#m3bfb7445ca" x="60.468889" y="126.838088" style="stroke: #000000; stroke-width: 0.6"/>
      </g>
     </g>
    </g>
    <g id="ytick_29">
     <g id="line2d_55">
      <g>
       <use xlink:href="#m3bfb7445ca" x="60.468889" y="125.507371" style="stroke: #000000; stroke-width: 0.6"/>
      </g>
     </g>
    </g>
    <g id="ytick_30">
     <g id="line2d_56">
      <g>
       <use xlink:href="#m3bfb7445ca" x="60.468889" y="116.485801" style="stroke: #000000; stroke-width: 0.6"/>
      </g>
     </g>
    </g>
    <g id="ytick_31">
     <g id="line2d_57">
      <g>
       <use xlink:href="#m3bfb7445ca" x="60.468889" y="111.904842" style="stroke: #000000; stroke-width: 0.6"/>
      </g>
     </g>
    </g>
    <g id="ytick_32">
     <g id="line2d_58">
      <g>
       <use xlink:href="#m3bfb7445ca" x="60.468889" y="108.654599" style="stroke: #000000; stroke-width: 0.6"/>
      </g>
     </g>
    </g>
    <g id="ytick_33">
     <g id="line2d_59">
      <g>
       <use xlink:href="#m3bfb7445ca" x="60.468889" y="106.133515" style="stroke: #000000; stroke-width: 0.6"/>
      </g>
     </g>
    </g>
    <g id="ytick_34">
     <g id="line2d_60">
      <g>
       <use xlink:href="#m3bfb7445ca" x="60.468889" y="104.073639" style="stroke: #000000; stroke-width: 0.6"/>
      </g>
     </g>
    </g>
    <g id="ytick_35">
     <g id="line2d_61">
      <g>
       <use xlink:href="#m3bfb7445ca" x="60.468889" y="102.332039" style="stroke: #000000; stroke-width: 0.6"/>
      </g>
     </g>
    </g>
    <g id="ytick_36">
     <g id="line2d_62">
      <g>
       <use xlink:href="#m3bfb7445ca" x="60.468889" y="100.823397" style="stroke: #000000; stroke-width: 0.6"/>
      </g>
     </g>
    </g>
    <g id="ytick_37">
     <g id="line2d_63">
      <g>
       <use xlink:href="#m3bfb7445ca" x="60.468889" y="99.49268" style="stroke: #000000; stroke-width: 0.6"/>
      </g>
     </g>
    </g>
    <g id="ytick_38">
     <g id="line2d_64">
      <g>
       <use xlink:href="#m3bfb7445ca" x="60.468889" y="90.47111" style="stroke: #000000; stroke-width: 0.6"/>
      </g>
     </g>
    </g>
    <g id="ytick_39">
     <g id="line2d_65">
      <g>
       <use xlink:href="#m3bfb7445ca" x="60.468889" y="85.890151" style="stroke: #000000; stroke-width: 0.6"/>
      </g>
     </g>
    </g>
    <g id="ytick_40">
     <g id="line2d_66">
      <g>
       <use xlink:href="#m3bfb7445ca" x="60.468889" y="82.639908" style="stroke: #000000; stroke-width: 0.6"/>
      </g>
     </g>
    </g>
    <g id="ytick_41">
     <g id="line2d_67">
      <g>
       <use xlink:href="#m3bfb7445ca" x="60.468889" y="80.118824" style="stroke: #000000; stroke-width: 0.6"/>
      </g>
     </g>
    </g>
    <g id="ytick_42">
     <g id="line2d_68">
      <g>
       <use xlink:href="#m3bfb7445ca" x="60.468889" y="78.058948" style="stroke: #000000; stroke-width: 0.6"/>
      </g>
     </g>
    </g>
    <g id="ytick_43">
     <g id="line2d_69">
      <g>
       <use xlink:href="#m3bfb7445ca" x="60.468889" y="76.317348" style="stroke: #000000; stroke-width: 0.6"/>
      </g>
     </g>
    </g>
    <g id="ytick_44">
     <g id="line2d_70">
      <g>
       <use xlink:href="#m3bfb7445ca" x="60.468889" y="74.808706" style="stroke: #000000; stroke-width: 0.6"/>
      </g>
     </g>
    </g>
    <g id="ytick_45">
     <g id="line2d_71">
      <g>
       <use xlink:href="#m3bfb7445ca" x="60.468889" y="73.477989" style="stroke: #000000; stroke-width: 0.6"/>
      </g>
     </g>
    </g>
    <g id="ytick_46">
     <g id="line2d_72">
      <g>
       <use xlink:href="#m3bfb7445ca" x="60.468889" y="64.45642" style="stroke: #000000; stroke-width: 0.6"/>
      </g>
     </g>
    </g>
    <g id="ytick_47">
     <g id="line2d_73">
      <g>
       <use xlink:href="#m3bfb7445ca" x="60.468889" y="59.87546" style="stroke: #000000; stroke-width: 0.6"/>
      </g>
     </g>
    </g>
    <g id="ytick_48">
     <g id="line2d_74">
      <g>
       <use xlink:href="#m3bfb7445ca" x="60.468889" y="56.625217" style="stroke: #000000; stroke-width: 0.6"/>
      </g>
     </g>
    </g>
    <g id="ytick_49">
     <g id="line2d_75">
      <g>
       <use xlink:href="#m3bfb7445ca" x="60.468889" y="54.104133" style="stroke: #000000; stroke-width: 0.6"/>
      </g>
     </g>
    </g>
    <g id="ytick_50">
     <g id="line2d_76">
      <g>
       <use xlink:href="#m3bfb7445ca" x="60.468889" y="52.044258" style="stroke: #000000; stroke-width: 0.6"/>
      </g>
     </g>
    </g>
    <g id="ytick_51">
     <g id="line2d_77">
      <g>
       <use xlink:href="#m3bfb7445ca" x="60.468889" y="50.302658" style="stroke: #000000; stroke-width: 0.6"/>
      </g>
     </g>
    </g>
    <g id="ytick_52">
     <g id="line2d_78">
      <g>
       <use xlink:href="#m3bfb7445ca" x="60.468889" y="48.794015" style="stroke: #000000; stroke-width: 0.6"/>
      </g>
     </g>
    </g>
    <g id="ytick_53">
     <g id="line2d_79">
      <g>
       <use xlink:href="#m3bfb7445ca" x="60.468889" y="47.463298" style="stroke: #000000; stroke-width: 0.6"/>
      </g>
     </g>
    </g>
    <g id="ytick_54">
     <g id="line2d_80">
      <g>
       <use xlink:href="#m3bfb7445ca" x="60.468889" y="38.441729" style="stroke: #000000; stroke-width: 0.6"/>
      </g>
     </g>
    </g>
    <g id="ytick_55">
     <g id="line2d_81">
      <g>
       <use xlink:href="#m3bfb7445ca" x="60.468889" y="33.860769" style="stroke: #000000; stroke-width: 0.6"/>
      </g>
     </g>
    </g>
    <g id="ytick_56">
     <g id="line2d_82">
      <g>
       <use xlink:href="#m3bfb7445ca" x="60.468889" y="30.610526" style="stroke: #000000; stroke-width: 0.6"/>
      </g>
     </g>
    </g>
    <g id="ytick_57">
     <g id="line2d_83">
      <g>
       <use xlink:href="#m3bfb7445ca" x="60.468889" y="28.089442" style="stroke: #000000; stroke-width: 0.6"/>
      </g>
     </g>
    </g>
    <g id="ytick_58">
     <g id="line2d_84">
      <g>
       <use xlink:href="#m3bfb7445ca" x="60.468889" y="26.029567" style="stroke: #000000; stroke-width: 0.6"/>
      </g>
     </g>
    </g>
    <g id="text_7">
     <!-- e2 * dnde [TeV / (cm2 s)] -->
     <g transform="translate(19.489202 170.353335) rotate(-90) scale(0.1 -0.1)">
      <defs>
       <path id="DejaVuSans-65" d="M 3597 1894 
L 3597 1613 
L 953 1613 
Q 991 1019 1311 708 
Q 1631 397 2203 397 
Q 2534 397 2845 478 
Q 3156 559 3463 722 
L 3463 178 
Q 3153 47 2828 -22 
Q 2503 -91 2169 -91 
Q 1331 -91 842 396 
Q 353 884 353 1716 
Q 353 2575 817 3079 
Q 1281 3584 2069 3584 
Q 2775 3584 3186 3129 
Q 3597 2675 3597 1894 
z
M 3022 2063 
Q 3016 2534 2758 2815 
Q 2500 3097 2075 3097 
Q 1594 3097 1305 2825 
Q 1016 2553 972 2059 
L 3022 2063 
z
" transform="scale(0.015625)"/>
       <path id="DejaVuSans-20" transform="scale(0.015625)"/>
       <path id="DejaVuSans-2a" d="M 3009 3897 
L 1888 3291 
L 3009 2681 
L 2828 2375 
L 1778 3009 
L 1778 1831 
L 1422 1831 
L 1422 3009 
L 372 2375 
L 191 2681 
L 1313 3291 
L 191 3897 
L 372 4206 
L 1422 3572 
L 1422 4750 
L 1778 4750 
L 1778 3572 
L 2828 4206 
L 3009 3897 
z
" transform="scale(0.015625)"/>
       <path id="DejaVuSans-64" d="M 2906 2969 
L 2906 4863 
L 3481 4863 
L 3481 0 
L 2906 0 
L 2906 525 
Q 2725 213 2448 61 
Q 2172 -91 1784 -91 
Q 1150 -91 751 415 
Q 353 922 353 1747 
Q 353 2572 751 3078 
Q 1150 3584 1784 3584 
Q 2172 3584 2448 3432 
Q 2725 3281 2906 2969 
z
M 947 1747 
Q 947 1113 1208 752 
Q 1469 391 1925 391 
Q 2381 391 2643 752 
Q 2906 1113 2906 1747 
Q 2906 2381 2643 2742 
Q 2381 3103 1925 3103 
Q 1469 3103 1208 2742 
Q 947 2381 947 1747 
z
" transform="scale(0.015625)"/>
       <path id="DejaVuSans-6e" d="M 3513 2113 
L 3513 0 
L 2938 0 
L 2938 2094 
Q 2938 2591 2744 2837 
Q 2550 3084 2163 3084 
Q 1697 3084 1428 2787 
Q 1159 2491 1159 1978 
L 1159 0 
L 581 0 
L 581 3500 
L 1159 3500 
L 1159 2956 
Q 1366 3272 1645 3428 
Q 1925 3584 2291 3584 
Q 2894 3584 3203 3211 
Q 3513 2838 3513 2113 
z
" transform="scale(0.015625)"/>
       <path id="DejaVuSans-5b" d="M 550 4863 
L 1875 4863 
L 1875 4416 
L 1125 4416 
L 1125 -397 
L 1875 -397 
L 1875 -844 
L 550 -844 
L 550 4863 
z
" transform="scale(0.015625)"/>
       <path id="DejaVuSans-54" d="M -19 4666 
L 3928 4666 
L 3928 4134 
L 2272 4134 
L 2272 0 
L 1638 0 
L 1638 4134 
L -19 4134 
L -19 4666 
z
" transform="scale(0.015625)"/>
       <path id="DejaVuSans-56" d="M 1831 0 
L 50 4666 
L 709 4666 
L 2188 738 
L 3669 4666 
L 4325 4666 
L 2547 0 
L 1831 0 
z
" transform="scale(0.015625)"/>
       <path id="DejaVuSans-2f" d="M 1625 4666 
L 2156 4666 
L 531 -594 
L 0 -594 
L 1625 4666 
z
" transform="scale(0.015625)"/>
       <path id="DejaVuSans-28" d="M 1984 4856 
Q 1566 4138 1362 3434 
Q 1159 2731 1159 2009 
Q 1159 1288 1364 580 
Q 1569 -128 1984 -844 
L 1484 -844 
Q 1016 -109 783 600 
Q 550 1309 550 2009 
Q 550 2706 781 3412 
Q 1013 4119 1484 4856 
L 1984 4856 
z
" transform="scale(0.015625)"/>
       <path id="DejaVuSans-63" d="M 3122 3366 
L 3122 2828 
Q 2878 2963 2633 3030 
Q 2388 3097 2138 3097 
Q 1578 3097 1268 2742 
Q 959 2388 959 1747 
Q 959 1106 1268 751 
Q 1578 397 2138 397 
Q 2388 397 2633 464 
Q 2878 531 3122 666 
L 3122 134 
Q 2881 22 2623 -34 
Q 2366 -91 2075 -91 
Q 1284 -91 818 406 
Q 353 903 353 1747 
Q 353 2603 823 3093 
Q 1294 3584 2113 3584 
Q 2378 3584 2631 3529 
Q 2884 3475 3122 3366 
z
" transform="scale(0.015625)"/>
       <path id="DejaVuSans-6d" d="M 3328 2828 
Q 3544 3216 3844 3400 
Q 4144 3584 4550 3584 
Q 5097 3584 5394 3201 
Q 5691 2819 5691 2113 
L 5691 0 
L 5113 0 
L 5113 2094 
Q 5113 2597 4934 2840 
Q 4756 3084 4391 3084 
Q 3944 3084 3684 2787 
Q 3425 2491 3425 1978 
L 3425 0 
L 2847 0 
L 2847 2094 
Q 2847 2600 2669 2842 
Q 2491 3084 2119 3084 
Q 1678 3084 1418 2786 
Q 1159 2488 1159 1978 
L 1159 0 
L 581 0 
L 581 3500 
L 1159 3500 
L 1159 2956 
Q 1356 3278 1631 3431 
Q 1906 3584 2284 3584 
Q 2666 3584 2933 3390 
Q 3200 3197 3328 2828 
z
" transform="scale(0.015625)"/>
       <path id="DejaVuSans-73" d="M 2834 3397 
L 2834 2853 
Q 2591 2978 2328 3040 
Q 2066 3103 1784 3103 
Q 1356 3103 1142 2972 
Q 928 2841 928 2578 
Q 928 2378 1081 2264 
Q 1234 2150 1697 2047 
L 1894 2003 
Q 2506 1872 2764 1633 
Q 3022 1394 3022 966 
Q 3022 478 2636 193 
Q 2250 -91 1575 -91 
Q 1294 -91 989 -36 
Q 684 19 347 128 
L 347 722 
Q 666 556 975 473 
Q 1284 391 1588 391 
Q 1994 391 2212 530 
Q 2431 669 2431 922 
Q 2431 1156 2273 1281 
Q 2116 1406 1581 1522 
L 1381 1569 
Q 847 1681 609 1914 
Q 372 2147 372 2553 
Q 372 3047 722 3315 
Q 1072 3584 1716 3584 
Q 2034 3584 2315 3537 
Q 2597 3491 2834 3397 
z
" transform="scale(0.015625)"/>
       <path id="DejaVuSans-29" d="M 513 4856 
L 1013 4856 
Q 1481 4119 1714 3412 
Q 1947 2706 1947 2009 
Q 1947 1309 1714 600 
Q 1481 -109 1013 -844 
L 513 -844 
Q 928 -128 1133 580 
Q 1338 1288 1338 2009 
Q 1338 2731 1133 3434 
Q 928 4138 513 4856 
z
" transform="scale(0.015625)"/>
       <path id="DejaVuSans-5d" d="M 1947 4863 
L 1947 -844 
L 622 -844 
L 622 -397 
L 1369 -397 
L 1369 4416 
L 622 4416 
L 622 4863 
L 1947 4863 
z
" transform="scale(0.015625)"/>
      </defs>
      <use xlink:href="#DejaVuSans-65"/>
      <use xlink:href="#DejaVuSans-32" x="61.523438"/>
      <use xlink:href="#DejaVuSans-20" x="125.146484"/>
      <use xlink:href="#DejaVuSans-2a" x="156.933594"/>
      <use xlink:href="#DejaVuSans-20" x="206.933594"/>
      <use xlink:href="#DejaVuSans-64" x="238.720703"/>
      <use xlink:href="#DejaVuSans-6e" x="302.197266"/>
      <use xlink:href="#DejaVuSans-64" x="365.576172"/>
      <use xlink:href="#DejaVuSans-65" x="429.052734"/>
      <use xlink:href="#DejaVuSans-20" x="490.576172"/>
      <use xlink:href="#DejaVuSans-5b" x="522.363281"/>
      <use xlink:href="#DejaVuSans-54" x="561.376953"/>
      <use xlink:href="#DejaVuSans-65" x="605.460938"/>
      <use xlink:href="#DejaVuSans-56" x="666.984375"/>
      <use xlink:href="#DejaVuSans-20" x="735.392578"/>
      <use xlink:href="#DejaVuSans-2f" x="767.179688"/>
      <use xlink:href="#DejaVuSans-20" x="800.871094"/>
      <use xlink:href="#DejaVuSans-28" x="832.658203"/>
      <use xlink:href="#DejaVuSans-63" x="871.671875"/>
      <use xlink:href="#DejaVuSans-6d" x="926.652344"/>
      <use xlink:href="#DejaVuSans-32" x="1024.064453"/>
      <use xlink:href="#DejaVuSans-20" x="1087.6875"/>
      <use xlink:href="#DejaVuSans-73" x="1119.474609"/>
      <use xlink:href="#DejaVuSans-29" x="1171.574219"/>
      <use xlink:href="#DejaVuSans-5d" x="1210.587891"/>
     </g>
    </g>
   </g>
   <g id="LineCollection_1">
    <path d="M 73.456477 35.928719 
L 73.456477 33.455467 
" clip-path="url(#p67ebf57504)" style="fill: none; stroke: #00008b; stroke-opacity: 0.7; stroke-width: 1.5"/>
    <path d="M 87.127623 36.217135 
L 87.127623 33.811862 
" clip-path="url(#p67ebf57504)" style="fill: none; stroke: #00008b; stroke-opacity: 0.7; stroke-width: 1.5"/>
    <path d="M 100.798767 36.575812 
L 100.798767 34.2071 
" clip-path="url(#p67ebf57504)" style="fill: none; stroke: #00008b; stroke-opacity: 0.7; stroke-width: 1.5"/>
    <path d="M 114.469912 37.022735 
L 114.469912 34.661914 
" clip-path="url(#p67ebf57504)" style="fill: none; stroke: #00008b; stroke-opacity: 0.7; stroke-width: 1.5"/>
    <path d="M 128.141058 37.581641 
L 128.141058 35.205031 
" clip-path="url(#p67ebf57504)" style="fill: none; stroke: #00008b; stroke-opacity: 0.7; stroke-width: 1.5"/>
    <path d="M 141.812204 38.284884 
L 141.812204 35.875183 
" clip-path="url(#p67ebf57504)" style="fill: none; stroke: #00008b; stroke-opacity: 0.7; stroke-width: 1.5"/>
    <path d="M 155.483347 39.177684 
L 155.483347 36.723464 
" clip-path="url(#p67ebf57504)" style="fill: none; stroke: #00008b; stroke-opacity: 0.7; stroke-width: 1.5"/>
    <path d="M 169.154493 40.324395 
L 169.154493 37.816022 
" clip-path="url(#p67ebf57504)" style="fill: none; stroke: #00008b; stroke-opacity: 0.7; stroke-width: 1.5"/>
    <path d="M 182.825639 41.817952 
L 182.825639 39.236749 
" clip-path="url(#p67ebf57504)" style="fill: none; stroke: #00008b; stroke-opacity: 0.7; stroke-width: 1.5"/>
    <path d="M 196.496783 43.794051 
L 196.496783 41.089522 
" clip-path="url(#p67ebf57504)" style="fill: none; stroke: #00008b; stroke-opacity: 0.7; stroke-width: 1.5"/>
    <path d="M 210.167927 46.450717 
L 210.167927 43.500854 
" clip-path="url(#p67ebf57504)" style="fill: none; stroke: #00008b; stroke-opacity: 0.7; stroke-width: 1.5"/>
    <path d="M 223.839073 50.069375 
L 223.839073 46.628941 
" clip-path="url(#p67ebf57504)" style="fill: none; stroke: #00008b; stroke-opacity: 0.7; stroke-width: 1.5"/>
    <path d="M 237.510219 55.031456 
L 237.510219 50.688514 
" clip-path="url(#p67ebf57504)" style="fill: none; stroke: #00008b; stroke-opacity: 0.7; stroke-width: 1.5"/>
    <path d="M 251.181365 61.843896 
L 251.181365 55.985714 
" clip-path="url(#p67ebf57504)" style="fill: none; stroke: #00008b; stroke-opacity: 0.7; stroke-width: 1.5"/>
    <path d="M 264.85251 71.219725 
L 264.85251 62.940816 
" clip-path="url(#p67ebf57504)" style="fill: none; stroke: #00008b; stroke-opacity: 0.7; stroke-width: 1.5"/>
    <path d="M 278.523654 84.326212 
L 278.523654 72.092552 
" clip-path="url(#p67ebf57504)" style="fill: none; stroke: #00008b; stroke-opacity: 0.7; stroke-width: 1.5"/>
    <path d="M 292.194799 103.945937 
L 292.194799 84.087979 
" clip-path="url(#p67ebf57504)" style="fill: none; stroke: #00008b; stroke-opacity: 0.7; stroke-width: 1.5"/>
    <path d="M 305.865944 361 
L 305.865944 99.647398 
" clip-path="url(#p67ebf57504)" style="fill: none; stroke: #00008b; stroke-opacity: 0.7; stroke-width: 1.5"/>
   </g>
   <g id="line2d_85">
    <path d="M 74.755236 34.583505 
L 77.352754 34.635942 
L 79.950271 34.689569 
L 82.547789 34.744452 
L 85.145306 34.800662 
L 87.742824 34.858274 
L 90.340341 34.917367 
L 92.937859 34.978023 
L 95.535376 35.040331 
L 98.132894 35.104384 
L 100.730412 35.170279 
L 103.327929 35.23812 
L 105.925447 35.308016 
L 108.522964 35.380084 
L 111.120482 35.454445 
L 113.717999 35.531227 
L 116.315517 35.610568 
L 118.913035 35.692611 
L 121.510552 35.777507 
L 124.10807 35.865418 
L 126.705587 35.956512 
L 129.303105 36.050969 
L 131.900622 36.148977 
L 134.49814 36.250736 
L 137.095658 36.356458 
L 139.693175 36.466364 
L 142.290693 36.58069 
L 144.88821 36.699685 
L 147.485728 36.82361 
L 150.083245 36.952743 
L 152.680763 37.087377 
L 155.27828 37.227821 
L 157.875798 37.374401 
L 160.473316 37.527463 
L 163.070833 37.687371 
L 165.668351 37.854509 
L 168.265868 38.029283 
L 170.863386 38.212124 
L 173.460903 38.403485 
L 176.058421 38.603844 
L 178.655939 38.813707 
L 181.253456 39.033609 
L 183.850974 39.264113 
L 186.448491 39.505817 
L 189.046009 39.759348 
L 191.643526 40.025372 
L 194.241044 40.304592 
L 196.838562 40.597748 
L 199.436079 40.905625 
L 202.033597 41.22905 
L 204.631114 41.568896 
L 207.228632 41.926087 
L 209.826149 42.301598 
L 212.423667 42.696458 
L 215.021184 43.111755 
L 217.618702 43.548638 
L 220.21622 44.00832 
L 222.813737 44.492083 
L 225.411255 45.00128 
L 228.008772 45.53734 
L 230.60629 46.101775 
L 233.203807 46.696178 
L 235.801325 47.322234 
L 238.398843 47.981723 
L 240.99636 48.676523 
L 243.593878 49.40862 
L 246.191395 50.18011 
L 248.788913 50.993206 
L 251.38643 51.850249 
L 253.983948 52.753708 
L 256.581466 53.706191 
L 259.178983 54.710455 
L 261.776501 55.769411 
L 264.374018 56.886132 
L 266.971536 58.063865 
L 269.569053 59.30604 
L 272.166571 60.616279 
L 274.764088 61.998408 
L 277.361606 63.456467 
L 279.959124 64.994726 
L 282.556641 66.617691 
L 285.154159 68.330124 
L 287.751676 70.137054 
L 290.349194 72.043792 
L 292.946711 74.055949 
L 295.544229 76.17945 
L 298.141747 78.420554 
L 300.739264 80.785872 
L 303.336782 83.282384 
L 305.934299 85.917466 
L 308.531817 88.698906 
L 311.129334 91.634932 
L 313.726852 94.734231 
L 316.32437 98.005982 
L 318.921887 101.459879 
L 321.519405 105.106159 
L 324.116922 108.955636 
L 326.71444 113.019731 
L 329.311957 117.310509 
L 331.909475 121.840711 
" clip-path="url(#p67ebf57504)" style="fill: none; stroke: #ff0000; stroke-width: 1.5; stroke-linecap: square"/>
   </g>
   <g id="line2d_86">
    <path d="M 74.755236 34.89017 
L 77.352754 34.926852 
L 79.950271 34.964725 
L 82.547789 35.003857 
L 85.145306 35.044318 
L 87.742824 35.086183 
L 90.340341 35.129532 
L 92.937859 35.174447 
L 95.535376 35.221017 
L 98.132894 35.269334 
L 100.730412 35.319496 
L 103.327929 35.371609 
L 105.925447 35.42578 
L 108.522964 35.482126 
L 111.120482 35.540769 
L 113.717999 35.601839 
L 116.315517 35.665471 
L 118.913035 35.731809 
L 121.510552 35.801006 
L 124.10807 35.873223 
L 126.705587 35.948629 
L 129.303105 36.027403 
L 131.900622 36.109734 
L 134.49814 36.195824 
L 137.095658 36.285882 
L 139.693175 36.380132 
L 142.290693 36.47881 
L 144.88821 36.582165 
L 147.485728 36.690458 
L 150.083245 36.803969 
L 152.680763 36.92299 
L 155.27828 37.047831 
L 157.875798 37.178819 
L 160.473316 37.3163 
L 163.070833 37.460638 
L 165.668351 37.612219 
L 168.265868 37.77145 
L 170.863386 37.938762 
L 173.460903 38.114607 
L 176.058421 38.299467 
L 178.655939 38.493848 
L 181.253456 38.698284 
L 183.850974 38.913342 
L 186.448491 39.139617 
L 189.046009 39.377742 
L 191.643526 39.628381 
L 194.241044 39.892238 
L 196.838562 40.170056 
L 199.436079 40.46262 
L 202.033597 40.770759 
L 204.631114 41.095347 
L 207.228632 41.437311 
L 209.826149 41.797626 
L 212.423667 42.177324 
L 215.021184 42.577495 
L 217.618702 42.999288 
L 220.21622 43.44392 
L 222.813737 43.912675 
L 225.411255 44.406908 
L 228.008772 44.928051 
L 230.60629 45.477617 
L 233.203807 46.057204 
L 235.801325 46.668498 
L 238.398843 47.313283 
L 240.99636 47.993441 
L 243.593878 48.71096 
L 246.191395 49.46794 
L 248.788913 50.2666 
L 251.38643 51.109281 
L 253.983948 51.998459 
L 256.581466 52.936746 
L 259.178983 53.926904 
L 261.776501 54.971848 
L 264.374018 56.074658 
L 266.971536 57.238585 
L 269.569053 58.467066 
L 272.166571 59.763729 
L 274.764088 61.132407 
L 277.361606 62.577146 
L 279.959124 64.102224 
L 282.556641 65.712155 
L 285.154159 67.411709 
L 287.751676 69.205923 
L 290.349194 71.100119 
L 292.946711 73.099916 
L 295.544229 75.211251 
L 298.141747 77.440392 
L 300.739264 79.793961 
L 303.336782 82.278953 
L 305.934299 84.902754 
L 308.531817 87.673168 
L 311.129334 90.598434 
L 313.726852 93.687258 
L 316.32437 96.948832 
L 318.921887 100.392867 
L 321.519405 104.029618 
L 324.116922 107.869919 
L 326.71444 111.92521 
L 329.311957 116.207577 
L 331.909475 120.729782 
" clip-path="url(#p67ebf57504)" style="fill: none; stroke: #008000; stroke-width: 1.5; stroke-linecap: square"/>
   </g>
   <g id="line2d_87">
    <path d="M 74.755236 34.583505 
L 77.352754 34.635942 
L 79.950271 34.689569 
L 82.547789 34.744452 
L 85.145306 34.800662 
L 87.742824 34.858274 
L 90.340341 34.917367 
L 92.937859 34.978023 
L 95.535376 35.040331 
L 98.132894 35.104384 
L 100.730412 35.170279 
L 103.327929 35.23812 
L 105.925447 35.308016 
L 108.522964 35.380084 
L 111.120482 35.454445 
L 113.717999 35.531227 
L 116.315517 35.610568 
L 118.913035 35.692611 
L 121.510552 35.777507 
L 124.10807 35.865418 
L 126.705587 35.956512 
L 129.303105 36.050969 
L 131.900622 36.148977 
L 134.49814 36.250736 
L 137.095658 36.356458 
L 139.693175 36.466364 
L 142.290693 36.58069 
L 144.88821 36.699685 
L 147.485728 36.82361 
L 150.083245 36.952743 
L 152.680763 37.087377 
L 155.27828 37.227821 
L 157.875798 37.374401 
L 160.473316 37.527463 
L 163.070833 37.687371 
L 165.668351 37.854509 
L 168.265868 38.029283 
L 170.863386 38.212124 
L 173.460903 38.403485 
L 176.058421 38.603844 
L 178.655939 38.813707 
L 181.253456 39.033609 
L 183.850974 39.264113 
L 186.448491 39.505817 
L 189.046009 39.759348 
L 191.643526 40.025372 
L 194.241044 40.304592 
L 196.838562 40.597748 
L 199.436079 40.905625 
L 202.033597 41.22905 
L 204.631114 41.568896 
L 207.228632 41.926087 
L 209.826149 42.301598 
L 212.423667 42.696458 
L 215.021184 43.111755 
L 217.618702 43.548638 
L 220.21622 44.00832 
L 222.813737 44.492083 
L 225.411255 45.00128 
L 228.008772 45.53734 
L 230.60629 46.101775 
L 233.203807 46.696178 
L 235.801325 47.322234 
L 238.398843 47.981723 
L 240.99636 48.676523 
L 243.593878 49.40862 
L 246.191395 50.18011 
L 248.788913 50.993206 
L 251.38643 51.850249 
L 253.983948 52.753708 
L 256.581466 53.706191 
L 259.178983 54.710455 
L 261.776501 55.769411 
L 264.374018 56.886132 
L 266.971536 58.063865 
L 269.569053 59.30604 
L 272.166571 60.616279 
L 274.764088 61.998408 
L 277.361606 63.456467 
L 279.959124 64.994726 
L 282.556641 66.617691 
L 285.154159 68.330124 
L 287.751676 70.137054 
L 290.349194 72.043792 
L 292.946711 74.055949 
L 295.544229 76.17945 
L 298.141747 78.420554 
L 300.739264 80.785872 
L 303.336782 83.282384 
L 305.934299 85.917466 
L 308.531817 88.698906 
L 311.129334 91.634932 
L 313.726852 94.734231 
L 316.32437 98.005982 
L 318.921887 101.459879 
L 321.519405 105.106159 
L 324.116922 108.955636 
L 326.71444 113.019731 
L 329.311957 117.310509 
L 331.909475 121.840711 
" clip-path="url(#p67ebf57504)" style="fill: none; stroke-dasharray: 1.5,2.475; stroke-dashoffset: 0; stroke: #000000; stroke-width: 1.5"/>
   </g>
   <g id="line2d_88">
    <path d="M 73.456477 34.62455 
L 87.127623 34.950611 
L 100.798767 35.329492 
L 114.469912 35.780772 
L 128.141058 36.330959 
L 141.812204 37.015911 
L 155.483347 37.884065 
L 169.154493 39.000738 
L 182.825639 40.453796 
L 196.496783 42.361052 
L 210.167927 44.879783 
L 223.839073 48.218702 
L 237.510219 52.65258 
L 251.181365 58.539291 
L 264.85251 66.338331 
L 278.523654 76.628621 
L 292.194799 90.121711 
L 305.865944 107.6646 
" clip-path="url(#p67ebf57504)" style="fill: none; stroke: #00008b; stroke-opacity: 0.7; stroke-width: 1.5; stroke-linecap: square"/>
   </g>
   <g id="patch_3">
    <path d="M 60.468889 190.307295 
L 60.468889 25.44 
" style="fill: none; stroke: #000000; stroke-width: 0.8; stroke-linejoin: miter; stroke-linecap: square"/>
   </g>
   <g id="patch_4">
    <path d="M 346.195822 190.307295 
L 346.195822 25.44 
" style="fill: none; stroke: #000000; stroke-width: 0.8; stroke-linejoin: miter; stroke-linecap: square"/>
   </g>
   <g id="patch_5">
    <path d="M 60.468889 190.307295 
L 346.195822 190.307295 
" style="fill: none; stroke: #000000; stroke-width: 0.8; stroke-linejoin: miter; stroke-linecap: square"/>
   </g>
   <g id="patch_6">
    <path d="M 60.468889 25.44 
L 346.195822 25.44 
" style="fill: none; stroke: #000000; stroke-width: 0.8; stroke-linejoin: miter; stroke-linecap: square"/>
   </g>
   <g id="text_8">
    <!-- N = 1000 (p = 5.2%) -->
    <g transform="translate(140.249855 19.44) scale(0.12 -0.12)">
     <defs>
      <path id="DejaVuSans-4e" d="M 628 4666 
L 1478 4666 
L 3547 763 
L 3547 4666 
L 4159 4666 
L 4159 0 
L 3309 0 
L 1241 3903 
L 1241 0 
L 628 0 
L 628 4666 
z
" transform="scale(0.015625)"/>
      <path id="DejaVuSans-3d" d="M 678 2906 
L 4684 2906 
L 4684 2381 
L 678 2381 
L 678 2906 
z
M 678 1631 
L 4684 1631 
L 4684 1100 
L 678 1100 
L 678 1631 
z
" transform="scale(0.015625)"/>
      <path id="DejaVuSans-70" d="M 1159 525 
L 1159 -1331 
L 581 -1331 
L 581 3500 
L 1159 3500 
L 1159 2969 
Q 1341 3281 1617 3432 
Q 1894 3584 2278 3584 
Q 2916 3584 3314 3078 
Q 3713 2572 3713 1747 
Q 3713 922 3314 415 
Q 2916 -91 2278 -91 
Q 1894 -91 1617 61 
Q 1341 213 1159 525 
z
M 3116 1747 
Q 3116 2381 2855 2742 
Q 2594 3103 2138 3103 
Q 1681 3103 1420 2742 
Q 1159 2381 1159 1747 
Q 1159 1113 1420 752 
Q 1681 391 2138 391 
Q 2594 391 2855 752 
Q 3116 1113 3116 1747 
z
" transform="scale(0.015625)"/>
      <path id="DejaVuSans-2e" d="M 684 794 
L 1344 794 
L 1344 0 
L 684 0 
L 684 794 
z
" transform="scale(0.015625)"/>
      <path id="DejaVuSans-25" d="M 4653 2053 
Q 4381 2053 4226 1822 
Q 4072 1591 4072 1178 
Q 4072 772 4226 539 
Q 4381 306 4653 306 
Q 4919 306 5073 539 
Q 5228 772 5228 1178 
Q 5228 1588 5073 1820 
Q 4919 2053 4653 2053 
z
M 4653 2450 
Q 5147 2450 5437 2106 
Q 5728 1763 5728 1178 
Q 5728 594 5436 251 
Q 5144 -91 4653 -91 
Q 4153 -91 3862 251 
Q 3572 594 3572 1178 
Q 3572 1766 3864 2108 
Q 4156 2450 4653 2450 
z
M 1428 4353 
Q 1159 4353 1004 4120 
Q 850 3888 850 3481 
Q 850 3069 1003 2837 
Q 1156 2606 1428 2606 
Q 1700 2606 1854 2837 
Q 2009 3069 2009 3481 
Q 2009 3884 1853 4118 
Q 1697 4353 1428 4353 
z
M 4250 4750 
L 4750 4750 
L 1831 -91 
L 1331 -91 
L 4250 4750 
z
M 1428 4750 
Q 1922 4750 2215 4408 
Q 2509 4066 2509 3481 
Q 2509 2891 2217 2550 
Q 1925 2209 1428 2209 
Q 931 2209 642 2551 
Q 353 2894 353 3481 
Q 353 4063 643 4406 
Q 934 4750 1428 4750 
z
" transform="scale(0.015625)"/>
     </defs>
     <use xlink:href="#DejaVuSans-4e"/>
     <use xlink:href="#DejaVuSans-20" x="74.804688"/>
     <use xlink:href="#DejaVuSans-3d" x="106.591797"/>
     <use xlink:href="#DejaVuSans-20" x="190.380859"/>
     <use xlink:href="#DejaVuSans-31" x="222.167969"/>
     <use xlink:href="#DejaVuSans-30" x="285.791016"/>
     <use xlink:href="#DejaVuSans-30" x="349.414062"/>
     <use xlink:href="#DejaVuSans-30" x="413.037109"/>
     <use xlink:href="#DejaVuSans-20" x="476.660156"/>
     <use xlink:href="#DejaVuSans-28" x="508.447266"/>
     <use xlink:href="#DejaVuSans-70" x="547.460938"/>
     <use xlink:href="#DejaVuSans-20" x="610.9375"/>
     <use xlink:href="#DejaVuSans-3d" x="642.724609"/>
     <use xlink:href="#DejaVuSans-20" x="726.513672"/>
     <use xlink:href="#DejaVuSans-35" x="758.300781"/>
     <use xlink:href="#DejaVuSans-2e" x="821.923828"/>
     <use xlink:href="#DejaVuSans-32" x="853.710938"/>
     <use xlink:href="#DejaVuSans-25" x="917.333984"/>
     <use xlink:href="#DejaVuSans-29" x="1012.353516"/>
    </g>
   </g>
   <g id="legend_1">
    <g id="patch_7">
     <path d="M 67.468889 185.307295 
L 168.503264 185.307295 
Q 170.503264 185.307295 170.503264 183.307295 
L 170.503264 125.594795 
Q 170.503264 123.594795 168.503264 123.594795 
L 67.468889 123.594795 
Q 65.468889 123.594795 65.468889 125.594795 
L 65.468889 183.307295 
Q 65.468889 185.307295 67.468889 185.307295 
z
" style="fill: #ffffff; opacity: 0.8; stroke: #cccccc; stroke-linejoin: miter"/>
    </g>
    <g id="patch_8">
     <path d="M 69.468889 135.193232 
L 89.468889 135.193232 
L 89.468889 128.193232 
L 69.468889 128.193232 
z
" style="fill: #ff0000; fill-opacity: 0.5"/>
    </g>
    <g id="text_9">
     <!-- $1\sigma$ Standard -->
     <g transform="translate(97.468889 135.193232) scale(0.1 -0.1)">
      <defs>
       <path id="DejaVuSans-Oblique-3c3" d="M 2219 3044 
Q 1744 3044 1422 2700 
Q 1081 2341 969 1747 
Q 844 1119 1044 756 
Q 1241 397 1706 397 
Q 2166 397 2503 759 
Q 2844 1122 2966 1747 
Q 3075 2319 2881 2700 
Q 2700 3044 2219 3044 
z
M 2309 3503 
L 4219 3500 
L 4106 2925 
L 3463 2925 
Q 3706 2438 3575 1747 
Q 3406 888 2884 400 
Q 2359 -91 1609 -91 
Q 856 -91 525 400 
Q 194 888 363 1747 
Q 528 2609 1050 3097 
Q 1484 3503 2309 3503 
z
" transform="scale(0.015625)"/>
       <path id="DejaVuSans-53" d="M 3425 4513 
L 3425 3897 
Q 3066 4069 2747 4153 
Q 2428 4238 2131 4238 
Q 1616 4238 1336 4038 
Q 1056 3838 1056 3469 
Q 1056 3159 1242 3001 
Q 1428 2844 1947 2747 
L 2328 2669 
Q 3034 2534 3370 2195 
Q 3706 1856 3706 1288 
Q 3706 609 3251 259 
Q 2797 -91 1919 -91 
Q 1588 -91 1214 -16 
Q 841 59 441 206 
L 441 856 
Q 825 641 1194 531 
Q 1563 422 1919 422 
Q 2459 422 2753 634 
Q 3047 847 3047 1241 
Q 3047 1584 2836 1778 
Q 2625 1972 2144 2069 
L 1759 2144 
Q 1053 2284 737 2584 
Q 422 2884 422 3419 
Q 422 4038 858 4394 
Q 1294 4750 2059 4750 
Q 2388 4750 2728 4690 
Q 3069 4631 3425 4513 
z
" transform="scale(0.015625)"/>
       <path id="DejaVuSans-74" d="M 1172 4494 
L 1172 3500 
L 2356 3500 
L 2356 3053 
L 1172 3053 
L 1172 1153 
Q 1172 725 1289 603 
Q 1406 481 1766 481 
L 2356 481 
L 2356 0 
L 1766 0 
Q 1100 0 847 248 
Q 594 497 594 1153 
L 594 3053 
L 172 3053 
L 172 3500 
L 594 3500 
L 594 4494 
L 1172 4494 
z
" transform="scale(0.015625)"/>
       <path id="DejaVuSans-61" d="M 2194 1759 
Q 1497 1759 1228 1600 
Q 959 1441 959 1056 
Q 959 750 1161 570 
Q 1363 391 1709 391 
Q 2188 391 2477 730 
Q 2766 1069 2766 1631 
L 2766 1759 
L 2194 1759 
z
M 3341 1997 
L 3341 0 
L 2766 0 
L 2766 531 
Q 2569 213 2275 61 
Q 1981 -91 1556 -91 
Q 1019 -91 701 211 
Q 384 513 384 1019 
Q 384 1609 779 1909 
Q 1175 2209 1959 2209 
L 2766 2209 
L 2766 2266 
Q 2766 2663 2505 2880 
Q 2244 3097 1772 3097 
Q 1472 3097 1187 3025 
Q 903 2953 641 2809 
L 641 3341 
Q 956 3463 1253 3523 
Q 1550 3584 1831 3584 
Q 2591 3584 2966 3190 
Q 3341 2797 3341 1997 
z
" transform="scale(0.015625)"/>
       <path id="DejaVuSans-72" d="M 2631 2963 
Q 2534 3019 2420 3045 
Q 2306 3072 2169 3072 
Q 1681 3072 1420 2755 
Q 1159 2438 1159 1844 
L 1159 0 
L 581 0 
L 581 3500 
L 1159 3500 
L 1159 2956 
Q 1341 3275 1631 3429 
Q 1922 3584 2338 3584 
Q 2397 3584 2469 3576 
Q 2541 3569 2628 3553 
L 2631 2963 
z
" transform="scale(0.015625)"/>
      </defs>
      <use xlink:href="#DejaVuSans-31" transform="translate(0 0.015625)"/>
      <use xlink:href="#DejaVuSans-Oblique-3c3" transform="translate(63.623047 0.015625)"/>
      <use xlink:href="#DejaVuSans-20" transform="translate(127.001953 0.015625)"/>
      <use xlink:href="#DejaVuSans-53" transform="translate(158.789062 0.015625)"/>
      <use xlink:href="#DejaVuSans-74" transform="translate(222.265625 0.015625)"/>
      <use xlink:href="#DejaVuSans-61" transform="translate(261.474609 0.015625)"/>
      <use xlink:href="#DejaVuSans-6e" transform="translate(322.753906 0.015625)"/>
      <use xlink:href="#DejaVuSans-64" transform="translate(386.132812 0.015625)"/>
      <use xlink:href="#DejaVuSans-61" transform="translate(449.609375 0.015625)"/>
      <use xlink:href="#DejaVuSans-72" transform="translate(510.888672 0.015625)"/>
      <use xlink:href="#DejaVuSans-64" transform="translate(552.001953 0.015625)"/>
     </g>
    </g>
    <g id="patch_9">
     <path d="M 69.468889 149.871357 
L 89.468889 149.871357 
L 89.468889 142.871357 
L 69.468889 142.871357 
z
" style="fill: #008000; fill-opacity: 0.5"/>
    </g>
    <g id="text_10">
     <!-- $1\sigma$ Nuisance -->
     <g transform="translate(97.468889 149.871357) scale(0.1 -0.1)">
      <defs>
       <path id="DejaVuSans-75" d="M 544 1381 
L 544 3500 
L 1119 3500 
L 1119 1403 
Q 1119 906 1312 657 
Q 1506 409 1894 409 
Q 2359 409 2629 706 
Q 2900 1003 2900 1516 
L 2900 3500 
L 3475 3500 
L 3475 0 
L 2900 0 
L 2900 538 
Q 2691 219 2414 64 
Q 2138 -91 1772 -91 
Q 1169 -91 856 284 
Q 544 659 544 1381 
z
M 1991 3584 
L 1991 3584 
z
" transform="scale(0.015625)"/>
       <path id="DejaVuSans-69" d="M 603 3500 
L 1178 3500 
L 1178 0 
L 603 0 
L 603 3500 
z
M 603 4863 
L 1178 4863 
L 1178 4134 
L 603 4134 
L 603 4863 
z
" transform="scale(0.015625)"/>
      </defs>
      <use xlink:href="#DejaVuSans-31" transform="translate(0 0.015625)"/>
      <use xlink:href="#DejaVuSans-Oblique-3c3" transform="translate(63.623047 0.015625)"/>
      <use xlink:href="#DejaVuSans-20" transform="translate(127.001953 0.015625)"/>
      <use xlink:href="#DejaVuSans-4e" transform="translate(158.789062 0.015625)"/>
      <use xlink:href="#DejaVuSans-75" transform="translate(233.59375 0.015625)"/>
      <use xlink:href="#DejaVuSans-69" transform="translate(296.972656 0.015625)"/>
      <use xlink:href="#DejaVuSans-73" transform="translate(324.755859 0.015625)"/>
      <use xlink:href="#DejaVuSans-61" transform="translate(376.855469 0.015625)"/>
      <use xlink:href="#DejaVuSans-6e" transform="translate(438.134766 0.015625)"/>
      <use xlink:href="#DejaVuSans-63" transform="translate(501.513672 0.015625)"/>
      <use xlink:href="#DejaVuSans-65" transform="translate(556.494141 0.015625)"/>
     </g>
    </g>
    <g id="line2d_89">
     <path d="M 69.468889 161.049482 
L 79.468889 161.049482 
L 89.468889 161.049482 
" style="fill: none; stroke-dasharray: 1.5,2.475; stroke-dashoffset: 0; stroke: #000000; stroke-width: 1.5"/>
    </g>
    <g id="text_11">
     <!-- Input -->
     <g transform="translate(97.468889 164.549482) scale(0.1 -0.1)">
      <defs>
       <path id="DejaVuSans-49" d="M 628 4666 
L 1259 4666 
L 1259 0 
L 628 0 
L 628 4666 
z
" transform="scale(0.015625)"/>
      </defs>
      <use xlink:href="#DejaVuSans-49"/>
      <use xlink:href="#DejaVuSans-6e" x="29.492188"/>
      <use xlink:href="#DejaVuSans-70" x="92.871094"/>
      <use xlink:href="#DejaVuSans-75" x="156.347656"/>
      <use xlink:href="#DejaVuSans-74" x="219.726562"/>
     </g>
    </g>
    <g id="LineCollection_2">
     <path d="M 79.468889 180.727607 
L 79.468889 170.727607 
" style="fill: none; stroke: #00008b; stroke-opacity: 0.7; stroke-width: 1.5"/>
    </g>
    <g id="line2d_90">
     <path d="M 69.468889 175.727607 
L 89.468889 175.727607 
" style="fill: none; stroke: #00008b; stroke-opacity: 0.7; stroke-width: 1.5; stroke-linecap: square"/>
    </g>
    <g id="line2d_91"/>
    <g id="text_12">
     <!-- Mean and Std -->
     <g transform="translate(97.468889 179.227607) scale(0.1 -0.1)">
      <defs>
       <path id="DejaVuSans-4d" d="M 628 4666 
L 1569 4666 
L 2759 1491 
L 3956 4666 
L 4897 4666 
L 4897 0 
L 4281 0 
L 4281 4097 
L 3078 897 
L 2444 897 
L 1241 4097 
L 1241 0 
L 628 0 
L 628 4666 
z
" transform="scale(0.015625)"/>
      </defs>
      <use xlink:href="#DejaVuSans-4d"/>
      <use xlink:href="#DejaVuSans-65" x="86.279297"/>
      <use xlink:href="#DejaVuSans-61" x="147.802734"/>
      <use xlink:href="#DejaVuSans-6e" x="209.082031"/>
      <use xlink:href="#DejaVuSans-20" x="272.460938"/>
      <use xlink:href="#DejaVuSans-61" x="304.248047"/>
      <use xlink:href="#DejaVuSans-6e" x="365.527344"/>
      <use xlink:href="#DejaVuSans-64" x="428.90625"/>
      <use xlink:href="#DejaVuSans-20" x="492.382812"/>
      <use xlink:href="#DejaVuSans-53" x="524.169922"/>
      <use xlink:href="#DejaVuSans-74" x="587.646484"/>
      <use xlink:href="#DejaVuSans-64" x="626.855469"/>
     </g>
    </g>
   </g>
  </g>
  <g id="axes_2">
   <g id="patch_10">
    <path d="M 60.468889 314.728 
L 346.195822 314.728 
L 346.195822 204.81647 
L 60.468889 204.81647 
z
" style="fill: #ffffff"/>
   </g>
   <g id="matplotlib.axis_3">
    <g id="xtick_27">
     <g id="line2d_92">
      <g>
       <use xlink:href="#m46981c2480" x="121.305485" y="314.728" style="stroke: #000000; stroke-width: 0.8"/>
      </g>
     </g>
     <g id="text_13">
      <!-- $\mathdefault{10^{0}}$ -->
      <g transform="translate(112.505485 329.326437) scale(0.1 -0.1)">
       <use xlink:href="#DejaVuSans-31" transform="translate(0 0.765625)"/>
       <use xlink:href="#DejaVuSans-30" transform="translate(63.623047 0.765625)"/>
       <use xlink:href="#DejaVuSans-30" transform="translate(128.203125 39.046875) scale(0.7)"/>
      </g>
     </g>
    </g>
    <g id="xtick_28">
     <g id="line2d_93">
      <g>
       <use xlink:href="#m46981c2480" x="230.674646" y="314.728" style="stroke: #000000; stroke-width: 0.8"/>
      </g>
     </g>
     <g id="text_14">
      <!-- $\mathdefault{10^{1}}$ -->
      <g transform="translate(221.874646 329.326437) scale(0.1 -0.1)">
       <use xlink:href="#DejaVuSans-31" transform="translate(0 0.684375)"/>
       <use xlink:href="#DejaVuSans-30" transform="translate(63.623047 0.684375)"/>
       <use xlink:href="#DejaVuSans-31" transform="translate(128.203125 38.965625) scale(0.7)"/>
      </g>
     </g>
    </g>
    <g id="xtick_29">
     <g id="line2d_94">
      <g>
       <use xlink:href="#m46981c2480" x="340.043807" y="314.728" style="stroke: #000000; stroke-width: 0.8"/>
      </g>
     </g>
     <g id="text_15">
      <!-- $\mathdefault{10^{2}}$ -->
      <g transform="translate(331.243807 329.326437) scale(0.1 -0.1)">
       <use xlink:href="#DejaVuSans-31" transform="translate(0 0.765625)"/>
       <use xlink:href="#DejaVuSans-30" transform="translate(63.623047 0.765625)"/>
       <use xlink:href="#DejaVuSans-32" transform="translate(128.203125 39.046875) scale(0.7)"/>
      </g>
     </g>
    </g>
    <g id="xtick_30">
     <g id="line2d_95">
      <g>
       <use xlink:href="#m4f47d4dc7c" x="64.118675" y="314.728" style="stroke: #000000; stroke-width: 0.6"/>
      </g>
     </g>
    </g>
    <g id="xtick_31">
     <g id="line2d_96">
      <g>
       <use xlink:href="#m4f47d4dc7c" x="77.78312" y="314.728" style="stroke: #000000; stroke-width: 0.6"/>
      </g>
     </g>
    </g>
    <g id="xtick_32">
     <g id="line2d_97">
      <g>
       <use xlink:href="#m4f47d4dc7c" x="88.382087" y="314.728" style="stroke: #000000; stroke-width: 0.6"/>
      </g>
     </g>
    </g>
    <g id="xtick_33">
     <g id="line2d_98">
      <g>
       <use xlink:href="#m4f47d4dc7c" x="97.042073" y="314.728" style="stroke: #000000; stroke-width: 0.6"/>
      </g>
     </g>
    </g>
    <g id="xtick_34">
     <g id="line2d_99">
      <g>
       <use xlink:href="#m4f47d4dc7c" x="104.363987" y="314.728" style="stroke: #000000; stroke-width: 0.6"/>
      </g>
     </g>
    </g>
    <g id="xtick_35">
     <g id="line2d_100">
      <g>
       <use xlink:href="#m4f47d4dc7c" x="110.706518" y="314.728" style="stroke: #000000; stroke-width: 0.6"/>
      </g>
     </g>
    </g>
    <g id="xtick_36">
     <g id="line2d_101">
      <g>
       <use xlink:href="#m4f47d4dc7c" x="116.301026" y="314.728" style="stroke: #000000; stroke-width: 0.6"/>
      </g>
     </g>
    </g>
    <g id="xtick_37">
     <g id="line2d_102">
      <g>
       <use xlink:href="#m4f47d4dc7c" x="154.228883" y="314.728" style="stroke: #000000; stroke-width: 0.6"/>
      </g>
     </g>
    </g>
    <g id="xtick_38">
     <g id="line2d_103">
      <g>
       <use xlink:href="#m4f47d4dc7c" x="173.487836" y="314.728" style="stroke: #000000; stroke-width: 0.6"/>
      </g>
     </g>
    </g>
    <g id="xtick_39">
     <g id="line2d_104">
      <g>
       <use xlink:href="#m4f47d4dc7c" x="187.152281" y="314.728" style="stroke: #000000; stroke-width: 0.6"/>
      </g>
     </g>
    </g>
    <g id="xtick_40">
     <g id="line2d_105">
      <g>
       <use xlink:href="#m4f47d4dc7c" x="197.751248" y="314.728" style="stroke: #000000; stroke-width: 0.6"/>
      </g>
     </g>
    </g>
    <g id="xtick_41">
     <g id="line2d_106">
      <g>
       <use xlink:href="#m4f47d4dc7c" x="206.411234" y="314.728" style="stroke: #000000; stroke-width: 0.6"/>
      </g>
     </g>
    </g>
    <g id="xtick_42">
     <g id="line2d_107">
      <g>
       <use xlink:href="#m4f47d4dc7c" x="213.733149" y="314.728" style="stroke: #000000; stroke-width: 0.6"/>
      </g>
     </g>
    </g>
    <g id="xtick_43">
     <g id="line2d_108">
      <g>
       <use xlink:href="#m4f47d4dc7c" x="220.075679" y="314.728" style="stroke: #000000; stroke-width: 0.6"/>
      </g>
     </g>
    </g>
    <g id="xtick_44">
     <g id="line2d_109">
      <g>
       <use xlink:href="#m4f47d4dc7c" x="225.670188" y="314.728" style="stroke: #000000; stroke-width: 0.6"/>
      </g>
     </g>
    </g>
    <g id="xtick_45">
     <g id="line2d_110">
      <g>
       <use xlink:href="#m4f47d4dc7c" x="263.598044" y="314.728" style="stroke: #000000; stroke-width: 0.6"/>
      </g>
     </g>
    </g>
    <g id="xtick_46">
     <g id="line2d_111">
      <g>
       <use xlink:href="#m4f47d4dc7c" x="282.856997" y="314.728" style="stroke: #000000; stroke-width: 0.6"/>
      </g>
     </g>
    </g>
    <g id="xtick_47">
     <g id="line2d_112">
      <g>
       <use xlink:href="#m4f47d4dc7c" x="296.521442" y="314.728" style="stroke: #000000; stroke-width: 0.6"/>
      </g>
     </g>
    </g>
    <g id="xtick_48">
     <g id="line2d_113">
      <g>
       <use xlink:href="#m4f47d4dc7c" x="307.120409" y="314.728" style="stroke: #000000; stroke-width: 0.6"/>
      </g>
     </g>
    </g>
    <g id="xtick_49">
     <g id="line2d_114">
      <g>
       <use xlink:href="#m4f47d4dc7c" x="315.780396" y="314.728" style="stroke: #000000; stroke-width: 0.6"/>
      </g>
     </g>
    </g>
    <g id="xtick_50">
     <g id="line2d_115">
      <g>
       <use xlink:href="#m4f47d4dc7c" x="323.10231" y="314.728" style="stroke: #000000; stroke-width: 0.6"/>
      </g>
     </g>
    </g>
    <g id="xtick_51">
     <g id="line2d_116">
      <g>
       <use xlink:href="#m4f47d4dc7c" x="329.44484" y="314.728" style="stroke: #000000; stroke-width: 0.6"/>
      </g>
     </g>
    </g>
    <g id="xtick_52">
     <g id="line2d_117">
      <g>
       <use xlink:href="#m4f47d4dc7c" x="335.039349" y="314.728" style="stroke: #000000; stroke-width: 0.6"/>
      </g>
     </g>
    </g>
    <g id="text_16">
     <!-- Energy [TeV] -->
     <g transform="translate(171.634699 343.004563) scale(0.1 -0.1)">
      <defs>
       <path id="DejaVuSans-45" d="M 628 4666 
L 3578 4666 
L 3578 4134 
L 1259 4134 
L 1259 2753 
L 3481 2753 
L 3481 2222 
L 1259 2222 
L 1259 531 
L 3634 531 
L 3634 0 
L 628 0 
L 628 4666 
z
" transform="scale(0.015625)"/>
       <path id="DejaVuSans-67" d="M 2906 1791 
Q 2906 2416 2648 2759 
Q 2391 3103 1925 3103 
Q 1463 3103 1205 2759 
Q 947 2416 947 1791 
Q 947 1169 1205 825 
Q 1463 481 1925 481 
Q 2391 481 2648 825 
Q 2906 1169 2906 1791 
z
M 3481 434 
Q 3481 -459 3084 -895 
Q 2688 -1331 1869 -1331 
Q 1566 -1331 1297 -1286 
Q 1028 -1241 775 -1147 
L 775 -588 
Q 1028 -725 1275 -790 
Q 1522 -856 1778 -856 
Q 2344 -856 2625 -561 
Q 2906 -266 2906 331 
L 2906 616 
Q 2728 306 2450 153 
Q 2172 0 1784 0 
Q 1141 0 747 490 
Q 353 981 353 1791 
Q 353 2603 747 3093 
Q 1141 3584 1784 3584 
Q 2172 3584 2450 3431 
Q 2728 3278 2906 2969 
L 2906 3500 
L 3481 3500 
L 3481 434 
z
" transform="scale(0.015625)"/>
       <path id="DejaVuSans-79" d="M 2059 -325 
Q 1816 -950 1584 -1140 
Q 1353 -1331 966 -1331 
L 506 -1331 
L 506 -850 
L 844 -850 
Q 1081 -850 1212 -737 
Q 1344 -625 1503 -206 
L 1606 56 
L 191 3500 
L 800 3500 
L 1894 763 
L 2988 3500 
L 3597 3500 
L 2059 -325 
z
" transform="scale(0.015625)"/>
      </defs>
      <use xlink:href="#DejaVuSans-45"/>
      <use xlink:href="#DejaVuSans-6e" x="63.183594"/>
      <use xlink:href="#DejaVuSans-65" x="126.5625"/>
      <use xlink:href="#DejaVuSans-72" x="188.085938"/>
      <use xlink:href="#DejaVuSans-67" x="227.449219"/>
      <use xlink:href="#DejaVuSans-79" x="290.925781"/>
      <use xlink:href="#DejaVuSans-20" x="350.105469"/>
      <use xlink:href="#DejaVuSans-5b" x="381.892578"/>
      <use xlink:href="#DejaVuSans-54" x="420.90625"/>
      <use xlink:href="#DejaVuSans-65" x="464.990234"/>
      <use xlink:href="#DejaVuSans-56" x="526.513672"/>
      <use xlink:href="#DejaVuSans-5d" x="594.921875"/>
     </g>
    </g>
   </g>
   <g id="matplotlib.axis_4">
    <g id="ytick_59">
     <g id="line2d_118">
      <g>
       <use xlink:href="#m2315a49f5c" x="60.468889" y="299.738296" style="stroke: #000000; stroke-width: 0.8"/>
      </g>
     </g>
     <g id="text_17">
      <!-- 0.2 -->
      <g transform="translate(37.565764 303.537515) scale(0.1 -0.1)">
       <use xlink:href="#DejaVuSans-30"/>
       <use xlink:href="#DejaVuSans-2e" x="63.623047"/>
       <use xlink:href="#DejaVuSans-32" x="95.410156"/>
      </g>
     </g>
    </g>
    <g id="ytick_60">
     <g id="line2d_119">
      <g>
       <use xlink:href="#m2315a49f5c" x="60.468889" y="277.030307" style="stroke: #000000; stroke-width: 0.8"/>
      </g>
     </g>
     <g id="text_18">
      <!-- 0.4 -->
      <g transform="translate(37.565764 280.829526) scale(0.1 -0.1)">
       <use xlink:href="#DejaVuSans-30"/>
       <use xlink:href="#DejaVuSans-2e" x="63.623047"/>
       <use xlink:href="#DejaVuSans-34" x="95.410156"/>
      </g>
     </g>
    </g>
    <g id="ytick_61">
     <g id="line2d_120">
      <g>
       <use xlink:href="#m2315a49f5c" x="60.468889" y="254.322318" style="stroke: #000000; stroke-width: 0.8"/>
      </g>
     </g>
     <g id="text_19">
      <!-- 0.6 -->
      <g transform="translate(37.565764 258.121537) scale(0.1 -0.1)">
       <use xlink:href="#DejaVuSans-30"/>
       <use xlink:href="#DejaVuSans-2e" x="63.623047"/>
       <use xlink:href="#DejaVuSans-36" x="95.410156"/>
      </g>
     </g>
    </g>
    <g id="ytick_62">
     <g id="line2d_121">
      <g>
       <use xlink:href="#m2315a49f5c" x="60.468889" y="231.614329" style="stroke: #000000; stroke-width: 0.8"/>
      </g>
     </g>
     <g id="text_20">
      <!-- 0.8 -->
      <g transform="translate(37.565764 235.413547) scale(0.1 -0.1)">
       <defs>
        <path id="DejaVuSans-38" d="M 2034 2216 
Q 1584 2216 1326 1975 
Q 1069 1734 1069 1313 
Q 1069 891 1326 650 
Q 1584 409 2034 409 
Q 2484 409 2743 651 
Q 3003 894 3003 1313 
Q 3003 1734 2745 1975 
Q 2488 2216 2034 2216 
z
M 1403 2484 
Q 997 2584 770 2862 
Q 544 3141 544 3541 
Q 544 4100 942 4425 
Q 1341 4750 2034 4750 
Q 2731 4750 3128 4425 
Q 3525 4100 3525 3541 
Q 3525 3141 3298 2862 
Q 3072 2584 2669 2484 
Q 3125 2378 3379 2068 
Q 3634 1759 3634 1313 
Q 3634 634 3220 271 
Q 2806 -91 2034 -91 
Q 1263 -91 848 271 
Q 434 634 434 1313 
Q 434 1759 690 2068 
Q 947 2378 1403 2484 
z
M 1172 3481 
Q 1172 3119 1398 2916 
Q 1625 2713 2034 2713 
Q 2441 2713 2670 2916 
Q 2900 3119 2900 3481 
Q 2900 3844 2670 4047 
Q 2441 4250 2034 4250 
Q 1625 4250 1398 4047 
Q 1172 3844 1172 3481 
z
" transform="scale(0.015625)"/>
       </defs>
       <use xlink:href="#DejaVuSans-30"/>
       <use xlink:href="#DejaVuSans-2e" x="63.623047"/>
       <use xlink:href="#DejaVuSans-38" x="95.410156"/>
      </g>
     </g>
    </g>
    <g id="ytick_63">
     <g id="line2d_122">
      <g>
       <use xlink:href="#m2315a49f5c" x="60.468889" y="208.90634" style="stroke: #000000; stroke-width: 0.8"/>
      </g>
     </g>
     <g id="text_21">
      <!-- 1.0 -->
      <g transform="translate(37.565764 212.705558) scale(0.1 -0.1)">
       <use xlink:href="#DejaVuSans-31"/>
       <use xlink:href="#DejaVuSans-2e" x="63.623047"/>
       <use xlink:href="#DejaVuSans-30" x="95.410156"/>
      </g>
     </g>
    </g>
    <g id="text_22">
     <!-- Coverage -->
     <g transform="translate(31.486077 283.729266) rotate(-90) scale(0.1 -0.1)">
      <defs>
       <path id="DejaVuSans-43" d="M 4122 4306 
L 4122 3641 
Q 3803 3938 3442 4084 
Q 3081 4231 2675 4231 
Q 1875 4231 1450 3742 
Q 1025 3253 1025 2328 
Q 1025 1406 1450 917 
Q 1875 428 2675 428 
Q 3081 428 3442 575 
Q 3803 722 4122 1019 
L 4122 359 
Q 3791 134 3420 21 
Q 3050 -91 2638 -91 
Q 1578 -91 968 557 
Q 359 1206 359 2328 
Q 359 3453 968 4101 
Q 1578 4750 2638 4750 
Q 3056 4750 3426 4639 
Q 3797 4528 4122 4306 
z
" transform="scale(0.015625)"/>
       <path id="DejaVuSans-6f" d="M 1959 3097 
Q 1497 3097 1228 2736 
Q 959 2375 959 1747 
Q 959 1119 1226 758 
Q 1494 397 1959 397 
Q 2419 397 2687 759 
Q 2956 1122 2956 1747 
Q 2956 2369 2687 2733 
Q 2419 3097 1959 3097 
z
M 1959 3584 
Q 2709 3584 3137 3096 
Q 3566 2609 3566 1747 
Q 3566 888 3137 398 
Q 2709 -91 1959 -91 
Q 1206 -91 779 398 
Q 353 888 353 1747 
Q 353 2609 779 3096 
Q 1206 3584 1959 3584 
z
" transform="scale(0.015625)"/>
       <path id="DejaVuSans-76" d="M 191 3500 
L 800 3500 
L 1894 563 
L 2988 3500 
L 3597 3500 
L 2284 0 
L 1503 0 
L 191 3500 
z
" transform="scale(0.015625)"/>
      </defs>
      <use xlink:href="#DejaVuSans-43"/>
      <use xlink:href="#DejaVuSans-6f" x="69.824219"/>
      <use xlink:href="#DejaVuSans-76" x="131.005859"/>
      <use xlink:href="#DejaVuSans-65" x="190.185547"/>
      <use xlink:href="#DejaVuSans-72" x="251.708984"/>
      <use xlink:href="#DejaVuSans-61" x="292.822266"/>
      <use xlink:href="#DejaVuSans-67" x="354.101562"/>
      <use xlink:href="#DejaVuSans-65" x="417.578125"/>
     </g>
    </g>
   </g>
   <g id="LineCollection_3">
    <path d="M 73.456477 296.902008 
L 73.456477 285.089433 
" clip-path="url(#p8076dc1336)" style="fill: none; stroke: #ff0000; stroke-width: 1.5"/>
    <path d="M 87.127623 302.465465 
L 87.127623 290.65289 
" clip-path="url(#p8076dc1336)" style="fill: none; stroke: #ff0000; stroke-width: 1.5"/>
    <path d="M 100.798767 305.531043 
L 100.798767 293.718468 
" clip-path="url(#p8076dc1336)" style="fill: none; stroke: #ff0000; stroke-width: 1.5"/>
    <path d="M 114.469912 309.732021 
L 114.469912 297.919446 
" clip-path="url(#p8076dc1336)" style="fill: none; stroke: #ff0000; stroke-width: 1.5"/>
    <path d="M 128.141058 308.937242 
L 128.141058 297.124667 
" clip-path="url(#p8076dc1336)" style="fill: none; stroke: #ff0000; stroke-width: 1.5"/>
    <path d="M 141.812204 306.666443 
L 141.812204 294.853868 
" clip-path="url(#p8076dc1336)" style="fill: none; stroke: #ff0000; stroke-width: 1.5"/>
    <path d="M 155.483347 302.919625 
L 155.483347 291.10705 
" clip-path="url(#p8076dc1336)" style="fill: none; stroke: #ff0000; stroke-width: 1.5"/>
    <path d="M 169.154493 300.194666 
L 169.154493 288.382091 
" clip-path="url(#p8076dc1336)" style="fill: none; stroke: #ff0000; stroke-width: 1.5"/>
    <path d="M 182.825639 297.583247 
L 182.825639 285.770672 
" clip-path="url(#p8076dc1336)" style="fill: none; stroke: #ff0000; stroke-width: 1.5"/>
    <path d="M 196.496783 293.836429 
L 196.496783 282.023854 
" clip-path="url(#p8076dc1336)" style="fill: none; stroke: #ff0000; stroke-width: 1.5"/>
    <path d="M 210.167927 291.56563 
L 210.167927 279.753055 
" clip-path="url(#p8076dc1336)" style="fill: none; stroke: #ff0000; stroke-width: 1.5"/>
    <path d="M 223.839073 286.115713 
L 223.839073 274.303138 
" clip-path="url(#p8076dc1336)" style="fill: none; stroke: #ff0000; stroke-width: 1.5"/>
    <path d="M 237.510219 278.167917 
L 237.510219 266.355342 
" clip-path="url(#p8076dc1336)" style="fill: none; stroke: #ff0000; stroke-width: 1.5"/>
    <path d="M 251.181365 267.381622 
L 251.181365 255.569047 
" clip-path="url(#p8076dc1336)" style="fill: none; stroke: #ff0000; stroke-width: 1.5"/>
    <path d="M 264.85251 264.316043 
L 264.85251 252.503468 
" clip-path="url(#p8076dc1336)" style="fill: none; stroke: #ff0000; stroke-width: 1.5"/>
    <path d="M 278.523654 261.136925 
L 278.523654 249.32435 
" clip-path="url(#p8076dc1336)" style="fill: none; stroke: #ff0000; stroke-width: 1.5"/>
    <path d="M 292.194799 259.206746 
L 292.194799 247.394171 
" clip-path="url(#p8076dc1336)" style="fill: none; stroke: #ff0000; stroke-width: 1.5"/>
    <path d="M 305.865944 255.800547 
L 305.865944 243.987972 
" clip-path="url(#p8076dc1336)" style="fill: none; stroke: #ff0000; stroke-width: 1.5"/>
    <path d="M 319.537088 250.01001 
L 319.537088 238.197435 
" clip-path="url(#p8076dc1336)" style="fill: none; stroke: #ff0000; stroke-width: 1.5"/>
    <path d="M 333.208234 243.651773 
L 333.208234 231.839198 
" clip-path="url(#p8076dc1336)" style="fill: none; stroke: #ff0000; stroke-width: 1.5"/>
   </g>
   <g id="LineCollection_4">
    <path d="M 73.456477 226.280162 
L 73.456477 214.467587 
" clip-path="url(#p8076dc1336)" style="fill: none; stroke: #008000; stroke-width: 1.5"/>
    <path d="M 87.127623 224.804142 
L 87.127623 212.991567 
" clip-path="url(#p8076dc1336)" style="fill: none; stroke: #008000; stroke-width: 1.5"/>
    <path d="M 100.798767 223.101043 
L 100.798767 211.288468 
" clip-path="url(#p8076dc1336)" style="fill: none; stroke: #008000; stroke-width: 1.5"/>
    <path d="M 114.469912 222.419804 
L 114.469912 210.607229 
" clip-path="url(#p8076dc1336)" style="fill: none; stroke: #008000; stroke-width: 1.5"/>
    <path d="M 128.141058 221.738564 
L 128.141058 209.925989 
" clip-path="url(#p8076dc1336)" style="fill: none; stroke: #008000; stroke-width: 1.5"/>
    <path d="M 141.812204 221.625024 
L 141.812204 209.812449 
" clip-path="url(#p8076dc1336)" style="fill: none; stroke: #008000; stroke-width: 1.5"/>
    <path d="M 155.483347 222.079184 
L 155.483347 210.266609 
" clip-path="url(#p8076dc1336)" style="fill: none; stroke: #008000; stroke-width: 1.5"/>
    <path d="M 169.154493 223.101043 
L 169.154493 211.288468 
" clip-path="url(#p8076dc1336)" style="fill: none; stroke: #008000; stroke-width: 1.5"/>
    <path d="M 182.825639 223.668743 
L 182.825639 211.856168 
" clip-path="url(#p8076dc1336)" style="fill: none; stroke: #008000; stroke-width: 1.5"/>
    <path d="M 196.496783 224.804142 
L 196.496783 212.991567 
" clip-path="url(#p8076dc1336)" style="fill: none; stroke: #008000; stroke-width: 1.5"/>
    <path d="M 210.167927 226.166622 
L 210.167927 214.354047 
" clip-path="url(#p8076dc1336)" style="fill: none; stroke: #008000; stroke-width: 1.5"/>
    <path d="M 223.839073 229.2322 
L 223.839073 217.419625 
" clip-path="url(#p8076dc1336)" style="fill: none; stroke: #008000; stroke-width: 1.5"/>
    <path d="M 237.510219 233.433178 
L 237.510219 221.620603 
" clip-path="url(#p8076dc1336)" style="fill: none; stroke: #008000; stroke-width: 1.5"/>
    <path d="M 251.181365 238.542476 
L 251.181365 226.729901 
" clip-path="url(#p8076dc1336)" style="fill: none; stroke: #008000; stroke-width: 1.5"/>
    <path d="M 264.85251 244.333013 
L 264.85251 232.520438 
" clip-path="url(#p8076dc1336)" style="fill: none; stroke: #008000; stroke-width: 1.5"/>
    <path d="M 278.523654 249.44231 
L 278.523654 237.629735 
" clip-path="url(#p8076dc1336)" style="fill: none; stroke: #008000; stroke-width: 1.5"/>
    <path d="M 292.194799 251.37249 
L 292.194799 239.559915 
" clip-path="url(#p8076dc1336)" style="fill: none; stroke: #008000; stroke-width: 1.5"/>
    <path d="M 305.865944 251.599569 
L 305.865944 239.786994 
" clip-path="url(#p8076dc1336)" style="fill: none; stroke: #008000; stroke-width: 1.5"/>
    <path d="M 319.537088 247.852751 
L 319.537088 236.040176 
" clip-path="url(#p8076dc1336)" style="fill: none; stroke: #008000; stroke-width: 1.5"/>
    <path d="M 333.208234 240.699735 
L 333.208234 228.88716 
" clip-path="url(#p8076dc1336)" style="fill: none; stroke: #008000; stroke-width: 1.5"/>
   </g>
   <g id="line2d_123">
    <path d="M 73.456477 245.239122 
L 87.127623 245.239122 
L 100.798767 245.239122 
L 114.469912 245.239122 
L 128.141058 245.239122 
L 141.812204 245.239122 
L 155.483347 245.239122 
L 169.154493 245.239122 
L 182.825639 245.239122 
L 196.496783 245.239122 
L 210.167927 245.239122 
L 223.839073 245.239122 
L 237.510219 245.239122 
L 251.181365 245.239122 
L 264.85251 245.239122 
L 278.523654 245.239122 
L 292.194799 245.239122 
L 305.865944 245.239122 
" clip-path="url(#p8076dc1336)" style="fill: none; stroke-dasharray: 1.5,2.475; stroke-dashoffset: 0; stroke: #000000; stroke-width: 1.5"/>
   </g>
   <g id="line2d_124">
    <path d="M 73.456477 290.99572 
L 87.127623 296.559177 
L 100.798767 299.624756 
L 114.469912 303.825734 
L 128.141058 303.030954 
L 141.812204 300.760155 
L 155.483347 297.013337 
L 169.154493 294.288378 
L 182.825639 291.67696 
L 196.496783 287.930142 
L 210.167927 285.659343 
L 223.839073 280.209425 
L 237.510219 272.261629 
L 251.181365 261.475334 
L 264.85251 258.409756 
L 278.523654 255.230637 
L 292.194799 253.300458 
L 305.865944 249.89426 
L 319.537088 244.103723 
L 333.208234 237.745486 
" clip-path="url(#p8076dc1336)" style="fill: none; stroke: #ff0000; stroke-width: 1.5; stroke-linecap: square"/>
   </g>
   <g id="line2d_125">
    <path d="M 73.456477 220.373874 
L 87.127623 218.897855 
L 100.798767 217.194756 
L 114.469912 216.513516 
L 128.141058 215.832276 
L 141.812204 215.718736 
L 155.483347 216.172896 
L 169.154493 217.194756 
L 182.825639 217.762455 
L 196.496783 218.897855 
L 210.167927 220.260334 
L 223.839073 223.325913 
L 237.510219 227.526891 
L 251.181365 232.636188 
L 264.85251 238.426725 
L 278.523654 243.536023 
L 292.194799 245.466202 
L 305.865944 245.693282 
L 319.537088 241.946464 
L 333.208234 234.793447 
" clip-path="url(#p8076dc1336)" style="fill: none; stroke: #008000; stroke-width: 1.5; stroke-linecap: square"/>
   </g>
   <g id="patch_11">
    <path d="M 60.468889 314.728 
L 60.468889 204.81647 
" style="fill: none; stroke: #000000; stroke-width: 0.8; stroke-linejoin: miter; stroke-linecap: square"/>
   </g>
   <g id="patch_12">
    <path d="M 346.195822 314.728 
L 346.195822 204.81647 
" style="fill: none; stroke: #000000; stroke-width: 0.8; stroke-linejoin: miter; stroke-linecap: square"/>
   </g>
   <g id="patch_13">
    <path d="M 60.468889 314.728 
L 346.195822 314.728 
" style="fill: none; stroke: #000000; stroke-width: 0.8; stroke-linejoin: miter; stroke-linecap: square"/>
   </g>
   <g id="patch_14">
    <path d="M 60.468889 204.81647 
L 346.195822 204.81647 
" style="fill: none; stroke: #000000; stroke-width: 0.8; stroke-linejoin: miter; stroke-linecap: square"/>
   </g>
   <g id="legend_2">
    <g id="patch_15">
     <path d="M 164.598947 309.728 
L 339.195822 309.728 
Q 341.195822 309.728 341.195822 307.728 
L 341.195822 279.37175 
Q 341.195822 277.37175 339.195822 277.37175 
L 164.598947 277.37175 
Q 162.598947 277.37175 162.598947 279.37175 
L 162.598947 307.728 
Q 162.598947 309.728 164.598947 309.728 
z
" style="fill: #ffffff; opacity: 0.8; stroke: #cccccc; stroke-linejoin: miter"/>
    </g>
    <g id="line2d_126">
     <path d="M 166.598947 285.470188 
L 176.598947 285.470188 
L 186.598947 285.470188 
" style="fill: none; stroke-dasharray: 1.5,2.475; stroke-dashoffset: 0; stroke: #000000; stroke-width: 1.5"/>
    </g>
    <g id="text_23">
     <!-- 68 % -->
     <g transform="translate(194.598947 288.970188) scale(0.1 -0.1)">
      <use xlink:href="#DejaVuSans-36"/>
      <use xlink:href="#DejaVuSans-38" x="63.623047"/>
      <use xlink:href="#DejaVuSans-20" x="127.246094"/>
      <use xlink:href="#DejaVuSans-25" x="159.033203"/>
     </g>
    </g>
    <g id="LineCollection_5">
     <path d="M 176.598947 305.148313 
L 176.598947 295.148313 
" style="fill: none; stroke: #ff0000; stroke-width: 1.5"/>
    </g>
    <g id="line2d_127">
     <path d="M 166.598947 300.148313 
L 186.598947 300.148313 
" style="fill: none; stroke: #ff0000; stroke-width: 1.5; stroke-linecap: square"/>
    </g>
    <g id="line2d_128"/>
    <g id="text_24">
     <!-- Standard  -->
     <g transform="translate(194.598947 303.648313) scale(0.1 -0.1)">
      <use xlink:href="#DejaVuSans-53"/>
      <use xlink:href="#DejaVuSans-74" x="63.476562"/>
      <use xlink:href="#DejaVuSans-61" x="102.685547"/>
      <use xlink:href="#DejaVuSans-6e" x="163.964844"/>
      <use xlink:href="#DejaVuSans-64" x="227.34375"/>
      <use xlink:href="#DejaVuSans-61" x="290.820312"/>
      <use xlink:href="#DejaVuSans-72" x="352.099609"/>
      <use xlink:href="#DejaVuSans-64" x="391.462891"/>
      <use xlink:href="#DejaVuSans-20" x="454.939453"/>
     </g>
    </g>
    <g id="LineCollection_6">
     <path d="M 273.272384 290.470188 
L 273.272384 280.470188 
" style="fill: none; stroke: #008000; stroke-width: 1.5"/>
    </g>
    <g id="line2d_129">
     <path d="M 263.272384 285.470188 
L 283.272384 285.470188 
" style="fill: none; stroke: #008000; stroke-width: 1.5; stroke-linecap: square"/>
    </g>
    <g id="line2d_130"/>
    <g id="text_25">
     <!-- Nuisance -->
     <g transform="translate(291.272384 288.970188) scale(0.1 -0.1)">
      <use xlink:href="#DejaVuSans-4e"/>
      <use xlink:href="#DejaVuSans-75" x="74.804688"/>
      <use xlink:href="#DejaVuSans-69" x="138.183594"/>
      <use xlink:href="#DejaVuSans-73" x="165.966797"/>
      <use xlink:href="#DejaVuSans-61" x="218.066406"/>
      <use xlink:href="#DejaVuSans-6e" x="279.345703"/>
      <use xlink:href="#DejaVuSans-63" x="342.724609"/>
      <use xlink:href="#DejaVuSans-65" x="397.705078"/>
     </g>
    </g>
   </g>
  </g>
 </g>
 <defs>
  <clipPath id="p67ebf57504">
   <rect x="60.468889" y="25.44" width="285.726932" height="164.867295"/>
  </clipPath>
  <clipPath id="p8076dc1336">
   <rect x="60.468889" y="204.81647" width="285.726932" height="109.91153"/>
  </clipPath>
 </defs>
</svg>
