<?xml version="1.0" encoding="utf-8" standalone="no"?>
<!DOCTYPE svg PUBLIC "-//W3C//DTD SVG 1.1//EN"
  "http://www.w3.org/Graphics/SVG/1.1/DTD/svg11.dtd">
<svg xmlns:xlink="http://www.w3.org/1999/xlink" width="360pt" height="360pt" viewBox="0 0 360 360" xmlns="http://www.w3.org/2000/svg" version="1.1">
 <metadata>
  <rdf:RDF xmlns:dc="http://purl.org/dc/elements/1.1/" xmlns:cc="http://creativecommons.org/ns#" xmlns:rdf="http://www.w3.org/1999/02/22-rdf-syntax-ns#">
   <cc:Work>
    <dc:type rdf:resource="http://purl.org/dc/dcmitype/StillImage"/>
    <dc:date>2023-03-15T12:10:09.000575</dc:date>
    <dc:format>image/svg+xml</dc:format>
    <dc:creator>
     <cc:Agent>
      <dc:title>Matplotlib v3.6.2, https://matplotlib.org/</dc:title>
     </cc:Agent>
    </dc:creator>
   </cc:Work>
  </rdf:RDF>
 </metadata>
 <defs>
  <style type="text/css">*{stroke-linejoin: round; stroke-linecap: butt}</style>
 </defs>
 <g id="figure_1">
  <g id="patch_1">
   <path d="M 0 360 
L 360 360 
L 360 0 
L 0 0 
z
" style="fill: #ffffff"/>
  </g>
  <g id="axes_1">
   <g id="patch_2">
    <path d="M 60.468889 189.852627 
L 348.49773 189.852627 
L 348.49773 25.44 
L 60.468889 25.44 
z
" style="fill: #ffffff"/>
   </g>
   <g id="PolyCollection_1">
    <path d="M 74.858754 34.595026 
L 74.858754 35.609921 
L 77.454043 35.634766 
L 80.049333 35.661598 
L 82.644622 35.690547 
L 85.239911 35.721751 
L 87.835201 35.755358 
L 90.43049 35.791524 
L 93.025779 35.830418 
L 95.621069 35.872214 
L 98.216358 35.917098 
L 100.811647 35.965259 
L 103.406937 36.016892 
L 106.002226 36.072193 
L 108.597515 36.131355 
L 111.192805 36.194565 
L 113.788094 36.262001 
L 116.383383 36.333829 
L 118.978673 36.4102 
L 121.573962 36.491251 
L 124.169251 36.577106 
L 126.764541 36.667878 
L 129.35983 36.763676 
L 131.955119 36.864607 
L 134.550408 36.970782 
L 137.145698 37.082323 
L 139.740987 37.199366 
L 142.336276 37.322063 
L 144.931566 37.450591 
L 147.526855 37.585147 
L 150.122144 37.725957 
L 152.717434 37.873272 
L 155.312723 38.027374 
L 157.908012 38.188575 
L 160.503302 38.357217 
L 163.098591 38.533679 
L 165.69388 38.718371 
L 168.28917 38.911743 
L 170.884459 39.114282 
L 173.479748 39.326517 
L 176.075038 39.549023 
L 178.670327 39.782417 
L 181.265616 40.027372 
L 183.860906 40.28461 
L 186.456195 40.554912 
L 189.051484 40.839119 
L 191.646774 41.138137 
L 194.242063 41.452941 
L 196.837352 41.784575 
L 199.432642 42.13416 
L 202.027931 42.502893 
L 204.62322 42.89205 
L 207.21851 43.302989 
L 209.813799 43.737148 
L 212.409088 44.19605 
L 215.004378 44.681299 
L 217.599667 45.194583 
L 220.194956 45.737675 
L 222.790246 46.312435 
L 225.385535 46.920813 
L 227.980824 47.564854 
L 230.576114 48.246704 
L 233.171403 48.968616 
L 235.766692 49.732962 
L 238.361981 50.542241 
L 240.957271 51.399091 
L 243.55256 52.306303 
L 246.147849 53.266833 
L 248.743139 54.283818 
L 251.338428 55.360591 
L 253.933717 56.500702 
L 256.529007 57.707932 
L 259.124296 58.986317 
L 261.719585 60.340171 
L 264.314875 61.774112 
L 266.910164 63.293091 
L 269.505453 64.902425 
L 272.100743 66.60784 
L 274.696032 68.415509 
L 277.291321 70.332111 
L 279.886611 72.364895 
L 282.4819 74.521754 
L 285.077189 76.811319 
L 287.672479 79.243084 
L 290.267768 81.827543 
L 292.863057 84.576395 
L 295.458347 87.502783 
L 298.053636 90.621638 
L 300.648925 93.950138 
L 303.244215 97.508356 
L 305.839504 101.320202 
L 308.434793 105.414833 
L 311.030083 109.828855 
L 313.625372 114.609921 
L 316.220661 119.822973 
L 318.815951 125.561873 
L 321.41124 131.973226 
L 324.006529 139.312006 
L 326.601819 148.099275 
L 329.197108 159.746711 
L 331.792397 182.379326 
L 331.792397 123.5029 
L 331.792397 123.5029 
L 329.197108 118.78038 
L 326.601819 114.318021 
L 324.006529 110.101373 
L 321.41124 106.116767 
L 318.815951 102.351276 
L 316.220661 98.792674 
L 313.625372 95.429402 
L 311.030083 92.250533 
L 308.434793 89.245737 
L 305.839504 86.405252 
L 303.244215 83.719854 
L 300.648925 81.180826 
L 298.053636 78.779936 
L 295.458347 76.509405 
L 292.863057 74.361889 
L 290.267768 72.330453 
L 287.672479 70.408547 
L 285.077189 68.58999 
L 282.4819 66.868943 
L 279.886611 65.239899 
L 277.291321 63.697657 
L 274.696032 62.237311 
L 272.100743 60.854228 
L 269.505453 59.544038 
L 266.910164 58.302618 
L 264.314875 57.126075 
L 261.719585 56.010738 
L 259.124296 54.953144 
L 256.529007 53.950023 
L 253.933717 52.998295 
L 251.338428 52.095053 
L 248.743139 51.237558 
L 246.147849 50.42323 
L 243.55256 49.649638 
L 240.957271 48.914496 
L 238.361981 48.215657 
L 235.766692 47.551103 
L 233.171403 46.918946 
L 230.576114 46.317417 
L 227.980824 45.744866 
L 225.385535 45.199757 
L 222.790246 44.680657 
L 220.194956 44.186239 
L 217.599667 43.715269 
L 215.004378 43.266605 
L 212.409088 42.839185 
L 209.813799 42.432019 
L 207.21851 42.044186 
L 204.62322 41.67482 
L 202.027931 41.323107 
L 199.432642 40.988275 
L 196.837352 40.669589 
L 194.242063 40.366344 
L 191.646774 40.077866 
L 189.051484 39.803501 
L 186.456195 39.542619 
L 183.860906 39.294609 
L 181.265616 39.058879 
L 178.670327 38.834853 
L 176.075038 38.621974 
L 173.479748 38.419698 
L 170.884459 38.227501 
L 168.28917 38.04487 
L 165.69388 37.87131 
L 163.098591 37.706338 
L 160.503302 37.549485 
L 157.908012 37.400295 
L 155.312723 37.258325 
L 152.717434 37.12314 
L 150.122144 36.994317 
L 147.526855 36.871443 
L 144.931566 36.75411 
L 142.336276 36.64192 
L 139.740987 36.534484 
L 137.145698 36.431417 
L 134.550408 36.332347 
L 131.955119 36.236908 
L 129.35983 36.144749 
L 126.764541 36.055535 
L 124.169251 35.968949 
L 121.573962 35.884698 
L 118.978673 35.802517 
L 116.383383 35.722169 
L 113.788094 35.643452 
L 111.192805 35.566195 
L 108.597515 35.490259 
L 106.002226 35.415533 
L 103.406937 35.341931 
L 100.811647 35.269389 
L 98.216358 35.197857 
L 95.621069 35.127297 
L 93.025779 35.057681 
L 90.43049 34.988985 
L 87.835201 34.921189 
L 85.239911 34.854273 
L 82.644622 34.788218 
L 80.049333 34.723005 
L 77.454043 34.658615 
L 74.858754 34.595026 
z
" clip-path="url(#p64ed9e2f4c)" style="fill: #ff0000; fill-opacity: 0.5"/>
   </g>
   <g id="PolyCollection_2">
    <path d="M 74.858754 32.913301 
L 74.858754 37.714713 
L 77.454043 37.755072 
L 80.049333 37.797132 
L 82.644622 37.840966 
L 85.239911 37.886649 
L 87.835201 37.934262 
L 90.43049 37.983888 
L 93.025779 38.035617 
L 95.621069 38.089542 
L 98.216358 38.145761 
L 100.811647 38.204379 
L 103.406937 38.265505 
L 106.002226 38.329256 
L 108.597515 38.395754 
L 111.192805 38.465128 
L 113.788094 38.537515 
L 116.383383 38.61306 
L 118.978673 38.691913 
L 121.573962 38.774238 
L 124.169251 38.860204 
L 126.764541 38.949991 
L 129.35983 39.043791 
L 131.955119 39.141804 
L 134.550408 39.244244 
L 137.145698 39.351337 
L 139.740987 39.463322 
L 142.336276 39.580453 
L 144.931566 39.702998 
L 147.526855 39.83124 
L 150.122144 39.965481 
L 152.717434 40.10604 
L 155.312723 40.253256 
L 157.908012 40.407487 
L 160.503302 40.569114 
L 163.098591 40.738542 
L 165.69388 40.916199 
L 168.28917 41.102541 
L 170.884459 41.298051 
L 173.479748 41.503244 
L 176.075038 41.718666 
L 178.670327 41.944897 
L 181.265616 42.182555 
L 183.860906 42.432299 
L 186.456195 42.694828 
L 189.051484 42.970888 
L 191.646774 43.261272 
L 194.242063 43.566828 
L 196.837352 43.888458 
L 199.432642 44.227126 
L 202.027931 44.583859 
L 204.62322 44.959755 
L 207.21851 45.355988 
L 209.813799 45.77381 
L 212.409088 46.21456 
L 215.004378 46.679671 
L 217.599667 47.170676 
L 220.194956 47.689214 
L 222.790246 48.237037 
L 225.385535 48.816023 
L 227.980824 49.428179 
L 230.576114 50.075652 
L 233.171403 50.760737 
L 235.766692 51.485887 
L 238.361981 52.253724 
L 240.957271 53.067042 
L 243.55256 53.928826 
L 246.147849 54.842252 
L 248.743139 55.810705 
L 251.338428 56.837784 
L 253.933717 57.927317 
L 256.529007 59.08337 
L 259.124296 60.310264 
L 261.719585 61.612592 
L 264.314875 62.995233 
L 266.910164 64.463382 
L 269.505453 66.022579 
L 272.100743 67.678735 
L 274.696032 69.438186 
L 277.291321 71.307734 
L 279.886611 73.294717 
L 282.4819 75.407082 
L 285.077189 77.65348 
L 287.672479 80.043381 
L 290.267768 82.587229 
L 292.863057 85.296624 
L 295.458347 88.184573 
L 298.053636 91.265819 
L 300.648925 94.557291 
L 303.244215 98.078732 
L 305.839504 101.853608 
L 308.434793 105.910461 
L 311.030083 110.285017 
L 313.625372 115.023606 
L 316.220661 120.18906 
L 318.815951 125.871607 
L 321.41124 132.210965 
L 324.006529 139.447136 
L 326.601819 148.061104 
L 329.197108 159.30803 
L 331.792397 179.476354 
L 331.792397 123.526612 
L 331.792397 123.526612 
L 329.197108 118.790038 
L 326.601819 114.312668 
L 324.006529 110.079996 
L 321.41124 106.078295 
L 318.815951 102.294577 
L 316.220661 98.716555 
L 313.625372 95.332606 
L 311.030083 92.131736 
L 308.434793 89.103551 
L 305.839504 86.238224 
L 303.244215 83.526466 
L 300.648925 80.9595 
L 298.053636 78.529038 
L 295.458347 76.227252 
L 292.863057 74.046756 
L 290.267768 71.980586 
L 287.672479 70.022177 
L 285.077189 68.165346 
L 282.4819 66.404278 
L 279.886611 64.733507 
L 277.291321 63.147901 
L 274.696032 61.642647 
L 272.100743 60.213239 
L 269.505453 58.855461 
L 266.910164 57.565371 
L 264.314875 56.33929 
L 261.719585 55.173784 
L 259.124296 54.065649 
L 256.529007 53.011896 
L 253.933717 52.009731 
L 251.338428 51.056544 
L 248.743139 50.149891 
L 246.147849 49.287478 
L 243.55256 48.467149 
L 240.957271 47.686872 
L 238.361981 46.944727 
L 235.766692 46.238895 
L 233.171403 45.567649 
L 230.576114 44.929349 
L 227.980824 44.32243 
L 225.385535 43.7454 
L 222.790246 43.196833 
L 220.194956 42.675366 
L 217.599667 42.179697 
L 215.004378 41.708579 
L 212.409088 41.260817 
L 209.813799 40.835272 
L 207.21851 40.430849 
L 204.62322 40.046505 
L 202.027931 39.681241 
L 199.432642 39.334101 
L 196.837352 39.004173 
L 194.242063 38.690587 
L 191.646774 38.392512 
L 189.051484 38.109152 
L 186.456195 37.839753 
L 183.860906 37.583593 
L 181.265616 37.339984 
L 178.670327 37.108273 
L 176.075038 36.887835 
L 173.479748 36.678077 
L 170.884459 36.478435 
L 168.28917 36.288372 
L 165.69388 36.107378 
L 163.098591 35.934966 
L 160.503302 35.770675 
L 157.908012 35.614067 
L 155.312723 35.464726 
L 152.717434 35.322256 
L 150.122144 35.18628 
L 147.526855 35.056444 
L 144.931566 34.932408 
L 142.336276 34.813851 
L 139.740987 34.700469 
L 137.145698 34.591971 
L 134.550408 34.488085 
L 131.955119 34.38855 
L 129.35983 34.293118 
L 126.764541 34.201558 
L 124.169251 34.113646 
L 121.573962 34.029173 
L 118.978673 33.947941 
L 116.383383 33.869759 
L 113.788094 33.79445 
L 111.192805 33.721844 
L 108.597515 33.651782 
L 106.002226 33.584111 
L 103.406937 33.518689 
L 100.811647 33.455378 
L 98.216358 33.39405 
L 95.621069 33.334585 
L 93.025779 33.276865 
L 90.43049 33.220784 
L 87.835201 33.166237 
L 85.239911 33.113128 
L 82.644622 33.061364 
L 80.049333 33.010859 
L 77.454043 32.961531 
L 74.858754 32.913301 
z
" clip-path="url(#p64ed9e2f4c)" style="fill: #008000; fill-opacity: 0.5"/>
   </g>
   <g id="matplotlib.axis_1">
    <g id="xtick_1">
     <g id="line2d_1">
      <defs>
       <path id="mdfcb6e90ac" d="M 0 0 
L 0 3.5 
" style="stroke: #000000; stroke-width: 0.8"/>
      </defs>
      <g>
       <use xlink:href="#mdfcb6e90ac" x="121.36907" y="189.852627" style="stroke: #000000; stroke-width: 0.8"/>
      </g>
     </g>
    </g>
    <g id="xtick_2">
     <g id="line2d_2">
      <g>
       <use xlink:href="#mdfcb6e90ac" x="230.644411" y="189.852627" style="stroke: #000000; stroke-width: 0.8"/>
      </g>
     </g>
    </g>
    <g id="xtick_3">
     <g id="line2d_3">
      <g>
       <use xlink:href="#mdfcb6e90ac" x="339.919752" y="189.852627" style="stroke: #000000; stroke-width: 0.8"/>
      </g>
     </g>
    </g>
    <g id="xtick_4">
     <g id="line2d_4">
      <defs>
       <path id="mb3ee32e005" d="M 0 0 
L 0 2 
" style="stroke: #000000; stroke-width: 0.6"/>
      </defs>
      <g>
       <use xlink:href="#mb3ee32e005" x="64.231317" y="189.852627" style="stroke: #000000; stroke-width: 0.6"/>
      </g>
     </g>
    </g>
    <g id="xtick_5">
     <g id="line2d_5">
      <g>
       <use xlink:href="#mb3ee32e005" x="77.88404" y="189.852627" style="stroke: #000000; stroke-width: 0.6"/>
      </g>
     </g>
    </g>
    <g id="xtick_6">
     <g id="line2d_6">
      <g>
       <use xlink:href="#mb3ee32e005" x="88.473915" y="189.852627" style="stroke: #000000; stroke-width: 0.6"/>
      </g>
     </g>
    </g>
    <g id="xtick_7">
     <g id="line2d_7">
      <g>
       <use xlink:href="#mb3ee32e005" x="97.126473" y="189.852627" style="stroke: #000000; stroke-width: 0.6"/>
      </g>
     </g>
    </g>
    <g id="xtick_8">
     <g id="line2d_8">
      <g>
       <use xlink:href="#mb3ee32e005" x="104.442106" y="189.852627" style="stroke: #000000; stroke-width: 0.6"/>
      </g>
     </g>
    </g>
    <g id="xtick_9">
     <g id="line2d_9">
      <g>
       <use xlink:href="#mb3ee32e005" x="110.779196" y="189.852627" style="stroke: #000000; stroke-width: 0.6"/>
      </g>
     </g>
    </g>
    <g id="xtick_10">
     <g id="line2d_10">
      <g>
       <use xlink:href="#mb3ee32e005" x="116.368905" y="189.852627" style="stroke: #000000; stroke-width: 0.6"/>
      </g>
     </g>
    </g>
    <g id="xtick_11">
     <g id="line2d_11">
      <g>
       <use xlink:href="#mb3ee32e005" x="154.264226" y="189.852627" style="stroke: #000000; stroke-width: 0.6"/>
      </g>
     </g>
    </g>
    <g id="xtick_12">
     <g id="line2d_12">
      <g>
       <use xlink:href="#mb3ee32e005" x="173.506658" y="189.852627" style="stroke: #000000; stroke-width: 0.6"/>
      </g>
     </g>
    </g>
    <g id="xtick_13">
     <g id="line2d_13">
      <g>
       <use xlink:href="#mb3ee32e005" x="187.159381" y="189.852627" style="stroke: #000000; stroke-width: 0.6"/>
      </g>
     </g>
    </g>
    <g id="xtick_14">
     <g id="line2d_14">
      <g>
       <use xlink:href="#mb3ee32e005" x="197.749256" y="189.852627" style="stroke: #000000; stroke-width: 0.6"/>
      </g>
     </g>
    </g>
    <g id="xtick_15">
     <g id="line2d_15">
      <g>
       <use xlink:href="#mb3ee32e005" x="206.401813" y="189.852627" style="stroke: #000000; stroke-width: 0.6"/>
      </g>
     </g>
    </g>
    <g id="xtick_16">
     <g id="line2d_16">
      <g>
       <use xlink:href="#mb3ee32e005" x="213.717447" y="189.852627" style="stroke: #000000; stroke-width: 0.6"/>
      </g>
     </g>
    </g>
    <g id="xtick_17">
     <g id="line2d_17">
      <g>
       <use xlink:href="#mb3ee32e005" x="220.054536" y="189.852627" style="stroke: #000000; stroke-width: 0.6"/>
      </g>
     </g>
    </g>
    <g id="xtick_18">
     <g id="line2d_18">
      <g>
       <use xlink:href="#mb3ee32e005" x="225.644246" y="189.852627" style="stroke: #000000; stroke-width: 0.6"/>
      </g>
     </g>
    </g>
    <g id="xtick_19">
     <g id="line2d_19">
      <g>
       <use xlink:href="#mb3ee32e005" x="263.539566" y="189.852627" style="stroke: #000000; stroke-width: 0.6"/>
      </g>
     </g>
    </g>
    <g id="xtick_20">
     <g id="line2d_20">
      <g>
       <use xlink:href="#mb3ee32e005" x="282.781999" y="189.852627" style="stroke: #000000; stroke-width: 0.6"/>
      </g>
     </g>
    </g>
    <g id="xtick_21">
     <g id="line2d_21">
      <g>
       <use xlink:href="#mb3ee32e005" x="296.434722" y="189.852627" style="stroke: #000000; stroke-width: 0.6"/>
      </g>
     </g>
    </g>
    <g id="xtick_22">
     <g id="line2d_22">
      <g>
       <use xlink:href="#mb3ee32e005" x="307.024596" y="189.852627" style="stroke: #000000; stroke-width: 0.6"/>
      </g>
     </g>
    </g>
    <g id="xtick_23">
     <g id="line2d_23">
      <g>
       <use xlink:href="#mb3ee32e005" x="315.677154" y="189.852627" style="stroke: #000000; stroke-width: 0.6"/>
      </g>
     </g>
    </g>
    <g id="xtick_24">
     <g id="line2d_24">
      <g>
       <use xlink:href="#mb3ee32e005" x="322.992787" y="189.852627" style="stroke: #000000; stroke-width: 0.6"/>
      </g>
     </g>
    </g>
    <g id="xtick_25">
     <g id="line2d_25">
      <g>
       <use xlink:href="#mb3ee32e005" x="329.329877" y="189.852627" style="stroke: #000000; stroke-width: 0.6"/>
      </g>
     </g>
    </g>
    <g id="xtick_26">
     <g id="line2d_26">
      <g>
       <use xlink:href="#mb3ee32e005" x="334.919586" y="189.852627" style="stroke: #000000; stroke-width: 0.6"/>
      </g>
     </g>
    </g>
   </g>
   <g id="matplotlib.axis_2">
    <g id="ytick_1">
     <g id="line2d_27">
      <defs>
       <path id="m82e905dc4a" d="M 0 0 
L -3.5 0 
" style="stroke: #000000; stroke-width: 0.8"/>
      </defs>
      <g>
       <use xlink:href="#m82e905dc4a" x="60.468889" y="165.461706" style="stroke: #000000; stroke-width: 0.8"/>
      </g>
     </g>
     <g id="text_1">
      <!-- $\mathdefault{10^{-16}}$ -->
      <g transform="translate(25.568889 169.260925) scale(0.1 -0.1)">
       <defs>
        <path id="DejaVuSans-31" d="M 794 531 
L 1825 531 
L 1825 4091 
L 703 3866 
L 703 4441 
L 1819 4666 
L 2450 4666 
L 2450 531 
L 3481 531 
L 3481 0 
L 794 0 
L 794 531 
z
" transform="scale(0.015625)"/>
        <path id="DejaVuSans-30" d="M 2034 4250 
Q 1547 4250 1301 3770 
Q 1056 3291 1056 2328 
Q 1056 1369 1301 889 
Q 1547 409 2034 409 
Q 2525 409 2770 889 
Q 3016 1369 3016 2328 
Q 3016 3291 2770 3770 
Q 2525 4250 2034 4250 
z
M 2034 4750 
Q 2819 4750 3233 4129 
Q 3647 3509 3647 2328 
Q 3647 1150 3233 529 
Q 2819 -91 2034 -91 
Q 1250 -91 836 529 
Q 422 1150 422 2328 
Q 422 3509 836 4129 
Q 1250 4750 2034 4750 
z
" transform="scale(0.015625)"/>
        <path id="DejaVuSans-2212" d="M 678 2272 
L 4684 2272 
L 4684 1741 
L 678 1741 
L 678 2272 
z
" transform="scale(0.015625)"/>
        <path id="DejaVuSans-36" d="M 2113 2584 
Q 1688 2584 1439 2293 
Q 1191 2003 1191 1497 
Q 1191 994 1439 701 
Q 1688 409 2113 409 
Q 2538 409 2786 701 
Q 3034 994 3034 1497 
Q 3034 2003 2786 2293 
Q 2538 2584 2113 2584 
z
M 3366 4563 
L 3366 3988 
Q 3128 4100 2886 4159 
Q 2644 4219 2406 4219 
Q 1781 4219 1451 3797 
Q 1122 3375 1075 2522 
Q 1259 2794 1537 2939 
Q 1816 3084 2150 3084 
Q 2853 3084 3261 2657 
Q 3669 2231 3669 1497 
Q 3669 778 3244 343 
Q 2819 -91 2113 -91 
Q 1303 -91 875 529 
Q 447 1150 447 2328 
Q 447 3434 972 4092 
Q 1497 4750 2381 4750 
Q 2619 4750 2861 4703 
Q 3103 4656 3366 4563 
z
" transform="scale(0.015625)"/>
       </defs>
       <use xlink:href="#DejaVuSans-31" transform="translate(0 0.765625)"/>
       <use xlink:href="#DejaVuSans-30" transform="translate(63.623047 0.765625)"/>
       <use xlink:href="#DejaVuSans-2212" transform="translate(128.203125 39.046875) scale(0.7)"/>
       <use xlink:href="#DejaVuSans-31" transform="translate(186.855469 39.046875) scale(0.7)"/>
       <use xlink:href="#DejaVuSans-36" transform="translate(231.391602 39.046875) scale(0.7)"/>
      </g>
     </g>
    </g>
    <g id="ytick_2">
     <g id="line2d_28">
      <g>
       <use xlink:href="#m82e905dc4a" x="60.468889" y="136.06651" style="stroke: #000000; stroke-width: 0.8"/>
      </g>
     </g>
     <g id="text_2">
      <!-- $\mathdefault{10^{-15}}$ -->
      <g transform="translate(25.568889 139.865729) scale(0.1 -0.1)">
       <defs>
        <path id="DejaVuSans-35" d="M 691 4666 
L 3169 4666 
L 3169 4134 
L 1269 4134 
L 1269 2991 
Q 1406 3038 1543 3061 
Q 1681 3084 1819 3084 
Q 2600 3084 3056 2656 
Q 3513 2228 3513 1497 
Q 3513 744 3044 326 
Q 2575 -91 1722 -91 
Q 1428 -91 1123 -41 
Q 819 9 494 109 
L 494 744 
Q 775 591 1075 516 
Q 1375 441 1709 441 
Q 2250 441 2565 725 
Q 2881 1009 2881 1497 
Q 2881 1984 2565 2268 
Q 2250 2553 1709 2553 
Q 1456 2553 1204 2497 
Q 953 2441 691 2322 
L 691 4666 
z
" transform="scale(0.015625)"/>
       </defs>
       <use xlink:href="#DejaVuSans-31" transform="translate(0 0.684375)"/>
       <use xlink:href="#DejaVuSans-30" transform="translate(63.623047 0.684375)"/>
       <use xlink:href="#DejaVuSans-2212" transform="translate(128.203125 38.965625) scale(0.7)"/>
       <use xlink:href="#DejaVuSans-31" transform="translate(186.855469 38.965625) scale(0.7)"/>
       <use xlink:href="#DejaVuSans-35" transform="translate(231.391602 38.965625) scale(0.7)"/>
      </g>
     </g>
    </g>
    <g id="ytick_3">
     <g id="line2d_29">
      <g>
       <use xlink:href="#m82e905dc4a" x="60.468889" y="106.671314" style="stroke: #000000; stroke-width: 0.8"/>
      </g>
     </g>
     <g id="text_3">
      <!-- $\mathdefault{10^{-14}}$ -->
      <g transform="translate(25.568889 110.470532) scale(0.1 -0.1)">
       <defs>
        <path id="DejaVuSans-34" d="M 2419 4116 
L 825 1625 
L 2419 1625 
L 2419 4116 
z
M 2253 4666 
L 3047 4666 
L 3047 1625 
L 3713 1625 
L 3713 1100 
L 3047 1100 
L 3047 0 
L 2419 0 
L 2419 1100 
L 313 1100 
L 313 1709 
L 2253 4666 
z
" transform="scale(0.015625)"/>
       </defs>
       <use xlink:href="#DejaVuSans-31" transform="translate(0 0.684375)"/>
       <use xlink:href="#DejaVuSans-30" transform="translate(63.623047 0.684375)"/>
       <use xlink:href="#DejaVuSans-2212" transform="translate(128.203125 38.965625) scale(0.7)"/>
       <use xlink:href="#DejaVuSans-31" transform="translate(186.855469 38.965625) scale(0.7)"/>
       <use xlink:href="#DejaVuSans-34" transform="translate(231.391602 38.965625) scale(0.7)"/>
      </g>
     </g>
    </g>
    <g id="ytick_4">
     <g id="line2d_30">
      <g>
       <use xlink:href="#m82e905dc4a" x="60.468889" y="77.276117" style="stroke: #000000; stroke-width: 0.8"/>
      </g>
     </g>
     <g id="text_4">
      <!-- $\mathdefault{10^{-13}}$ -->
      <g transform="translate(25.568889 81.075336) scale(0.1 -0.1)">
       <defs>
        <path id="DejaVuSans-33" d="M 2597 2516 
Q 3050 2419 3304 2112 
Q 3559 1806 3559 1356 
Q 3559 666 3084 287 
Q 2609 -91 1734 -91 
Q 1441 -91 1130 -33 
Q 819 25 488 141 
L 488 750 
Q 750 597 1062 519 
Q 1375 441 1716 441 
Q 2309 441 2620 675 
Q 2931 909 2931 1356 
Q 2931 1769 2642 2001 
Q 2353 2234 1838 2234 
L 1294 2234 
L 1294 2753 
L 1863 2753 
Q 2328 2753 2575 2939 
Q 2822 3125 2822 3475 
Q 2822 3834 2567 4026 
Q 2313 4219 1838 4219 
Q 1578 4219 1281 4162 
Q 984 4106 628 3988 
L 628 4550 
Q 988 4650 1302 4700 
Q 1616 4750 1894 4750 
Q 2613 4750 3031 4423 
Q 3450 4097 3450 3541 
Q 3450 3153 3228 2886 
Q 3006 2619 2597 2516 
z
" transform="scale(0.015625)"/>
       </defs>
       <use xlink:href="#DejaVuSans-31" transform="translate(0 0.765625)"/>
       <use xlink:href="#DejaVuSans-30" transform="translate(63.623047 0.765625)"/>
       <use xlink:href="#DejaVuSans-2212" transform="translate(128.203125 39.046875) scale(0.7)"/>
       <use xlink:href="#DejaVuSans-31" transform="translate(186.855469 39.046875) scale(0.7)"/>
       <use xlink:href="#DejaVuSans-33" transform="translate(231.391602 39.046875) scale(0.7)"/>
      </g>
     </g>
    </g>
    <g id="ytick_5">
     <g id="line2d_31">
      <g>
       <use xlink:href="#m82e905dc4a" x="60.468889" y="47.880921" style="stroke: #000000; stroke-width: 0.8"/>
      </g>
     </g>
     <g id="text_5">
      <!-- $\mathdefault{10^{-12}}$ -->
      <g transform="translate(25.568889 51.68014) scale(0.1 -0.1)">
       <defs>
        <path id="DejaVuSans-32" d="M 1228 531 
L 3431 531 
L 3431 0 
L 469 0 
L 469 531 
Q 828 903 1448 1529 
Q 2069 2156 2228 2338 
Q 2531 2678 2651 2914 
Q 2772 3150 2772 3378 
Q 2772 3750 2511 3984 
Q 2250 4219 1831 4219 
Q 1534 4219 1204 4116 
Q 875 4013 500 3803 
L 500 4441 
Q 881 4594 1212 4672 
Q 1544 4750 1819 4750 
Q 2544 4750 2975 4387 
Q 3406 4025 3406 3419 
Q 3406 3131 3298 2873 
Q 3191 2616 2906 2266 
Q 2828 2175 2409 1742 
Q 1991 1309 1228 531 
z
" transform="scale(0.015625)"/>
       </defs>
       <use xlink:href="#DejaVuSans-31" transform="translate(0 0.765625)"/>
       <use xlink:href="#DejaVuSans-30" transform="translate(63.623047 0.765625)"/>
       <use xlink:href="#DejaVuSans-2212" transform="translate(128.203125 39.046875) scale(0.7)"/>
       <use xlink:href="#DejaVuSans-31" transform="translate(186.855469 39.046875) scale(0.7)"/>
       <use xlink:href="#DejaVuSans-32" transform="translate(231.391602 39.046875) scale(0.7)"/>
      </g>
     </g>
    </g>
    <g id="ytick_6">
     <g id="line2d_32">
      <defs>
       <path id="mbec6640f5a" d="M 0 0 
L -2 0 
" style="stroke: #000000; stroke-width: 0.6"/>
      </defs>
      <g>
       <use xlink:href="#mbec6640f5a" x="60.468889" y="186.008066" style="stroke: #000000; stroke-width: 0.6"/>
      </g>
     </g>
    </g>
    <g id="ytick_7">
     <g id="line2d_33">
      <g>
       <use xlink:href="#mbec6640f5a" x="60.468889" y="180.831829" style="stroke: #000000; stroke-width: 0.6"/>
      </g>
     </g>
    </g>
    <g id="ytick_8">
     <g id="line2d_34">
      <g>
       <use xlink:href="#mbec6640f5a" x="60.468889" y="177.159231" style="stroke: #000000; stroke-width: 0.6"/>
      </g>
     </g>
    </g>
    <g id="ytick_9">
     <g id="line2d_35">
      <g>
       <use xlink:href="#mbec6640f5a" x="60.468889" y="174.310542" style="stroke: #000000; stroke-width: 0.6"/>
      </g>
     </g>
    </g>
    <g id="ytick_10">
     <g id="line2d_36">
      <g>
       <use xlink:href="#mbec6640f5a" x="60.468889" y="171.982993" style="stroke: #000000; stroke-width: 0.6"/>
      </g>
     </g>
    </g>
    <g id="ytick_11">
     <g id="line2d_37">
      <g>
       <use xlink:href="#mbec6640f5a" x="60.468889" y="170.015079" style="stroke: #000000; stroke-width: 0.6"/>
      </g>
     </g>
    </g>
    <g id="ytick_12">
     <g id="line2d_38">
      <g>
       <use xlink:href="#mbec6640f5a" x="60.468889" y="168.310395" style="stroke: #000000; stroke-width: 0.6"/>
      </g>
     </g>
    </g>
    <g id="ytick_13">
     <g id="line2d_39">
      <g>
       <use xlink:href="#mbec6640f5a" x="60.468889" y="166.806756" style="stroke: #000000; stroke-width: 0.6"/>
      </g>
     </g>
    </g>
    <g id="ytick_14">
     <g id="line2d_40">
      <g>
       <use xlink:href="#mbec6640f5a" x="60.468889" y="156.61287" style="stroke: #000000; stroke-width: 0.6"/>
      </g>
     </g>
    </g>
    <g id="ytick_15">
     <g id="line2d_41">
      <g>
       <use xlink:href="#mbec6640f5a" x="60.468889" y="151.436633" style="stroke: #000000; stroke-width: 0.6"/>
      </g>
     </g>
    </g>
    <g id="ytick_16">
     <g id="line2d_42">
      <g>
       <use xlink:href="#mbec6640f5a" x="60.468889" y="147.764034" style="stroke: #000000; stroke-width: 0.6"/>
      </g>
     </g>
    </g>
    <g id="ytick_17">
     <g id="line2d_43">
      <g>
       <use xlink:href="#mbec6640f5a" x="60.468889" y="144.915346" style="stroke: #000000; stroke-width: 0.6"/>
      </g>
     </g>
    </g>
    <g id="ytick_18">
     <g id="line2d_44">
      <g>
       <use xlink:href="#mbec6640f5a" x="60.468889" y="142.587797" style="stroke: #000000; stroke-width: 0.6"/>
      </g>
     </g>
    </g>
    <g id="ytick_19">
     <g id="line2d_45">
      <g>
       <use xlink:href="#mbec6640f5a" x="60.468889" y="140.619883" style="stroke: #000000; stroke-width: 0.6"/>
      </g>
     </g>
    </g>
    <g id="ytick_20">
     <g id="line2d_46">
      <g>
       <use xlink:href="#mbec6640f5a" x="60.468889" y="138.915199" style="stroke: #000000; stroke-width: 0.6"/>
      </g>
     </g>
    </g>
    <g id="ytick_21">
     <g id="line2d_47">
      <g>
       <use xlink:href="#mbec6640f5a" x="60.468889" y="137.41156" style="stroke: #000000; stroke-width: 0.6"/>
      </g>
     </g>
    </g>
    <g id="ytick_22">
     <g id="line2d_48">
      <g>
       <use xlink:href="#mbec6640f5a" x="60.468889" y="127.217674" style="stroke: #000000; stroke-width: 0.6"/>
      </g>
     </g>
    </g>
    <g id="ytick_23">
     <g id="line2d_49">
      <g>
       <use xlink:href="#mbec6640f5a" x="60.468889" y="122.041437" style="stroke: #000000; stroke-width: 0.6"/>
      </g>
     </g>
    </g>
    <g id="ytick_24">
     <g id="line2d_50">
      <g>
       <use xlink:href="#mbec6640f5a" x="60.468889" y="118.368838" style="stroke: #000000; stroke-width: 0.6"/>
      </g>
     </g>
    </g>
    <g id="ytick_25">
     <g id="line2d_51">
      <g>
       <use xlink:href="#mbec6640f5a" x="60.468889" y="115.520149" style="stroke: #000000; stroke-width: 0.6"/>
      </g>
     </g>
    </g>
    <g id="ytick_26">
     <g id="line2d_52">
      <g>
       <use xlink:href="#mbec6640f5a" x="60.468889" y="113.192601" style="stroke: #000000; stroke-width: 0.6"/>
      </g>
     </g>
    </g>
    <g id="ytick_27">
     <g id="line2d_53">
      <g>
       <use xlink:href="#mbec6640f5a" x="60.468889" y="111.224687" style="stroke: #000000; stroke-width: 0.6"/>
      </g>
     </g>
    </g>
    <g id="ytick_28">
     <g id="line2d_54">
      <g>
       <use xlink:href="#mbec6640f5a" x="60.468889" y="109.520002" style="stroke: #000000; stroke-width: 0.6"/>
      </g>
     </g>
    </g>
    <g id="ytick_29">
     <g id="line2d_55">
      <g>
       <use xlink:href="#mbec6640f5a" x="60.468889" y="108.016364" style="stroke: #000000; stroke-width: 0.6"/>
      </g>
     </g>
    </g>
    <g id="ytick_30">
     <g id="line2d_56">
      <g>
       <use xlink:href="#mbec6640f5a" x="60.468889" y="97.822478" style="stroke: #000000; stroke-width: 0.6"/>
      </g>
     </g>
    </g>
    <g id="ytick_31">
     <g id="line2d_57">
      <g>
       <use xlink:href="#mbec6640f5a" x="60.468889" y="92.646241" style="stroke: #000000; stroke-width: 0.6"/>
      </g>
     </g>
    </g>
    <g id="ytick_32">
     <g id="line2d_58">
      <g>
       <use xlink:href="#mbec6640f5a" x="60.468889" y="88.973642" style="stroke: #000000; stroke-width: 0.6"/>
      </g>
     </g>
    </g>
    <g id="ytick_33">
     <g id="line2d_59">
      <g>
       <use xlink:href="#mbec6640f5a" x="60.468889" y="86.124953" style="stroke: #000000; stroke-width: 0.6"/>
      </g>
     </g>
    </g>
    <g id="ytick_34">
     <g id="line2d_60">
      <g>
       <use xlink:href="#mbec6640f5a" x="60.468889" y="83.797405" style="stroke: #000000; stroke-width: 0.6"/>
      </g>
     </g>
    </g>
    <g id="ytick_35">
     <g id="line2d_61">
      <g>
       <use xlink:href="#mbec6640f5a" x="60.468889" y="81.829491" style="stroke: #000000; stroke-width: 0.6"/>
      </g>
     </g>
    </g>
    <g id="ytick_36">
     <g id="line2d_62">
      <g>
       <use xlink:href="#mbec6640f5a" x="60.468889" y="80.124806" style="stroke: #000000; stroke-width: 0.6"/>
      </g>
     </g>
    </g>
    <g id="ytick_37">
     <g id="line2d_63">
      <g>
       <use xlink:href="#mbec6640f5a" x="60.468889" y="78.621168" style="stroke: #000000; stroke-width: 0.6"/>
      </g>
     </g>
    </g>
    <g id="ytick_38">
     <g id="line2d_64">
      <g>
       <use xlink:href="#mbec6640f5a" x="60.468889" y="68.427282" style="stroke: #000000; stroke-width: 0.6"/>
      </g>
     </g>
    </g>
    <g id="ytick_39">
     <g id="line2d_65">
      <g>
       <use xlink:href="#mbec6640f5a" x="60.468889" y="63.251044" style="stroke: #000000; stroke-width: 0.6"/>
      </g>
     </g>
    </g>
    <g id="ytick_40">
     <g id="line2d_66">
      <g>
       <use xlink:href="#mbec6640f5a" x="60.468889" y="59.578446" style="stroke: #000000; stroke-width: 0.6"/>
      </g>
     </g>
    </g>
    <g id="ytick_41">
     <g id="line2d_67">
      <g>
       <use xlink:href="#mbec6640f5a" x="60.468889" y="56.729757" style="stroke: #000000; stroke-width: 0.6"/>
      </g>
     </g>
    </g>
    <g id="ytick_42">
     <g id="line2d_68">
      <g>
       <use xlink:href="#mbec6640f5a" x="60.468889" y="54.402209" style="stroke: #000000; stroke-width: 0.6"/>
      </g>
     </g>
    </g>
    <g id="ytick_43">
     <g id="line2d_69">
      <g>
       <use xlink:href="#mbec6640f5a" x="60.468889" y="52.434295" style="stroke: #000000; stroke-width: 0.6"/>
      </g>
     </g>
    </g>
    <g id="ytick_44">
     <g id="line2d_70">
      <g>
       <use xlink:href="#mbec6640f5a" x="60.468889" y="50.72961" style="stroke: #000000; stroke-width: 0.6"/>
      </g>
     </g>
    </g>
    <g id="ytick_45">
     <g id="line2d_71">
      <g>
       <use xlink:href="#mbec6640f5a" x="60.468889" y="49.225972" style="stroke: #000000; stroke-width: 0.6"/>
      </g>
     </g>
    </g>
    <g id="ytick_46">
     <g id="line2d_72">
      <g>
       <use xlink:href="#mbec6640f5a" x="60.468889" y="39.032085" style="stroke: #000000; stroke-width: 0.6"/>
      </g>
     </g>
    </g>
    <g id="ytick_47">
     <g id="line2d_73">
      <g>
       <use xlink:href="#mbec6640f5a" x="60.468889" y="33.855848" style="stroke: #000000; stroke-width: 0.6"/>
      </g>
     </g>
    </g>
    <g id="ytick_48">
     <g id="line2d_74">
      <g>
       <use xlink:href="#mbec6640f5a" x="60.468889" y="30.18325" style="stroke: #000000; stroke-width: 0.6"/>
      </g>
     </g>
    </g>
    <g id="ytick_49">
     <g id="line2d_75">
      <g>
       <use xlink:href="#mbec6640f5a" x="60.468889" y="27.334561" style="stroke: #000000; stroke-width: 0.6"/>
      </g>
     </g>
    </g>
    <g id="text_6">
     <!-- e2 * dnde [TeV / (cm2 s)] -->
     <g transform="translate(19.489202 170.126001) rotate(-90) scale(0.1 -0.1)">
      <defs>
       <path id="DejaVuSans-65" d="M 3597 1894 
L 3597 1613 
L 953 1613 
Q 991 1019 1311 708 
Q 1631 397 2203 397 
Q 2534 397 2845 478 
Q 3156 559 3463 722 
L 3463 178 
Q 3153 47 2828 -22 
Q 2503 -91 2169 -91 
Q 1331 -91 842 396 
Q 353 884 353 1716 
Q 353 2575 817 3079 
Q 1281 3584 2069 3584 
Q 2775 3584 3186 3129 
Q 3597 2675 3597 1894 
z
M 3022 2063 
Q 3016 2534 2758 2815 
Q 2500 3097 2075 3097 
Q 1594 3097 1305 2825 
Q 1016 2553 972 2059 
L 3022 2063 
z
" transform="scale(0.015625)"/>
       <path id="DejaVuSans-20" transform="scale(0.015625)"/>
       <path id="DejaVuSans-2a" d="M 3009 3897 
L 1888 3291 
L 3009 2681 
L 2828 2375 
L 1778 3009 
L 1778 1831 
L 1422 1831 
L 1422 3009 
L 372 2375 
L 191 2681 
L 1313 3291 
L 191 3897 
L 372 4206 
L 1422 3572 
L 1422 4750 
L 1778 4750 
L 1778 3572 
L 2828 4206 
L 3009 3897 
z
" transform="scale(0.015625)"/>
       <path id="DejaVuSans-64" d="M 2906 2969 
L 2906 4863 
L 3481 4863 
L 3481 0 
L 2906 0 
L 2906 525 
Q 2725 213 2448 61 
Q 2172 -91 1784 -91 
Q 1150 -91 751 415 
Q 353 922 353 1747 
Q 353 2572 751 3078 
Q 1150 3584 1784 3584 
Q 2172 3584 2448 3432 
Q 2725 3281 2906 2969 
z
M 947 1747 
Q 947 1113 1208 752 
Q 1469 391 1925 391 
Q 2381 391 2643 752 
Q 2906 1113 2906 1747 
Q 2906 2381 2643 2742 
Q 2381 3103 1925 3103 
Q 1469 3103 1208 2742 
Q 947 2381 947 1747 
z
" transform="scale(0.015625)"/>
       <path id="DejaVuSans-6e" d="M 3513 2113 
L 3513 0 
L 2938 0 
L 2938 2094 
Q 2938 2591 2744 2837 
Q 2550 3084 2163 3084 
Q 1697 3084 1428 2787 
Q 1159 2491 1159 1978 
L 1159 0 
L 581 0 
L 581 3500 
L 1159 3500 
L 1159 2956 
Q 1366 3272 1645 3428 
Q 1925 3584 2291 3584 
Q 2894 3584 3203 3211 
Q 3513 2838 3513 2113 
z
" transform="scale(0.015625)"/>
       <path id="DejaVuSans-5b" d="M 550 4863 
L 1875 4863 
L 1875 4416 
L 1125 4416 
L 1125 -397 
L 1875 -397 
L 1875 -844 
L 550 -844 
L 550 4863 
z
" transform="scale(0.015625)"/>
       <path id="DejaVuSans-54" d="M -19 4666 
L 3928 4666 
L 3928 4134 
L 2272 4134 
L 2272 0 
L 1638 0 
L 1638 4134 
L -19 4134 
L -19 4666 
z
" transform="scale(0.015625)"/>
       <path id="DejaVuSans-56" d="M 1831 0 
L 50 4666 
L 709 4666 
L 2188 738 
L 3669 4666 
L 4325 4666 
L 2547 0 
L 1831 0 
z
" transform="scale(0.015625)"/>
       <path id="DejaVuSans-2f" d="M 1625 4666 
L 2156 4666 
L 531 -594 
L 0 -594 
L 1625 4666 
z
" transform="scale(0.015625)"/>
       <path id="DejaVuSans-28" d="M 1984 4856 
Q 1566 4138 1362 3434 
Q 1159 2731 1159 2009 
Q 1159 1288 1364 580 
Q 1569 -128 1984 -844 
L 1484 -844 
Q 1016 -109 783 600 
Q 550 1309 550 2009 
Q 550 2706 781 3412 
Q 1013 4119 1484 4856 
L 1984 4856 
z
" transform="scale(0.015625)"/>
       <path id="DejaVuSans-63" d="M 3122 3366 
L 3122 2828 
Q 2878 2963 2633 3030 
Q 2388 3097 2138 3097 
Q 1578 3097 1268 2742 
Q 959 2388 959 1747 
Q 959 1106 1268 751 
Q 1578 397 2138 397 
Q 2388 397 2633 464 
Q 2878 531 3122 666 
L 3122 134 
Q 2881 22 2623 -34 
Q 2366 -91 2075 -91 
Q 1284 -91 818 406 
Q 353 903 353 1747 
Q 353 2603 823 3093 
Q 1294 3584 2113 3584 
Q 2378 3584 2631 3529 
Q 2884 3475 3122 3366 
z
" transform="scale(0.015625)"/>
       <path id="DejaVuSans-6d" d="M 3328 2828 
Q 3544 3216 3844 3400 
Q 4144 3584 4550 3584 
Q 5097 3584 5394 3201 
Q 5691 2819 5691 2113 
L 5691 0 
L 5113 0 
L 5113 2094 
Q 5113 2597 4934 2840 
Q 4756 3084 4391 3084 
Q 3944 3084 3684 2787 
Q 3425 2491 3425 1978 
L 3425 0 
L 2847 0 
L 2847 2094 
Q 2847 2600 2669 2842 
Q 2491 3084 2119 3084 
Q 1678 3084 1418 2786 
Q 1159 2488 1159 1978 
L 1159 0 
L 581 0 
L 581 3500 
L 1159 3500 
L 1159 2956 
Q 1356 3278 1631 3431 
Q 1906 3584 2284 3584 
Q 2666 3584 2933 3390 
Q 3200 3197 3328 2828 
z
" transform="scale(0.015625)"/>
       <path id="DejaVuSans-73" d="M 2834 3397 
L 2834 2853 
Q 2591 2978 2328 3040 
Q 2066 3103 1784 3103 
Q 1356 3103 1142 2972 
Q 928 2841 928 2578 
Q 928 2378 1081 2264 
Q 1234 2150 1697 2047 
L 1894 2003 
Q 2506 1872 2764 1633 
Q 3022 1394 3022 966 
Q 3022 478 2636 193 
Q 2250 -91 1575 -91 
Q 1294 -91 989 -36 
Q 684 19 347 128 
L 347 722 
Q 666 556 975 473 
Q 1284 391 1588 391 
Q 1994 391 2212 530 
Q 2431 669 2431 922 
Q 2431 1156 2273 1281 
Q 2116 1406 1581 1522 
L 1381 1569 
Q 847 1681 609 1914 
Q 372 2147 372 2553 
Q 372 3047 722 3315 
Q 1072 3584 1716 3584 
Q 2034 3584 2315 3537 
Q 2597 3491 2834 3397 
z
" transform="scale(0.015625)"/>
       <path id="DejaVuSans-29" d="M 513 4856 
L 1013 4856 
Q 1481 4119 1714 3412 
Q 1947 2706 1947 2009 
Q 1947 1309 1714 600 
Q 1481 -109 1013 -844 
L 513 -844 
Q 928 -128 1133 580 
Q 1338 1288 1338 2009 
Q 1338 2731 1133 3434 
Q 928 4138 513 4856 
z
" transform="scale(0.015625)"/>
       <path id="DejaVuSans-5d" d="M 1947 4863 
L 1947 -844 
L 622 -844 
L 622 -397 
L 1369 -397 
L 1369 4416 
L 622 4416 
L 622 4863 
L 1947 4863 
z
" transform="scale(0.015625)"/>
      </defs>
      <use xlink:href="#DejaVuSans-65"/>
      <use xlink:href="#DejaVuSans-32" x="61.523438"/>
      <use xlink:href="#DejaVuSans-20" x="125.146484"/>
      <use xlink:href="#DejaVuSans-2a" x="156.933594"/>
      <use xlink:href="#DejaVuSans-20" x="206.933594"/>
      <use xlink:href="#DejaVuSans-64" x="238.720703"/>
      <use xlink:href="#DejaVuSans-6e" x="302.197266"/>
      <use xlink:href="#DejaVuSans-64" x="365.576172"/>
      <use xlink:href="#DejaVuSans-65" x="429.052734"/>
      <use xlink:href="#DejaVuSans-20" x="490.576172"/>
      <use xlink:href="#DejaVuSans-5b" x="522.363281"/>
      <use xlink:href="#DejaVuSans-54" x="561.376953"/>
      <use xlink:href="#DejaVuSans-65" x="605.460938"/>
      <use xlink:href="#DejaVuSans-56" x="666.984375"/>
      <use xlink:href="#DejaVuSans-20" x="735.392578"/>
      <use xlink:href="#DejaVuSans-2f" x="767.179688"/>
      <use xlink:href="#DejaVuSans-20" x="800.871094"/>
      <use xlink:href="#DejaVuSans-28" x="832.658203"/>
      <use xlink:href="#DejaVuSans-63" x="871.671875"/>
      <use xlink:href="#DejaVuSans-6d" x="926.652344"/>
      <use xlink:href="#DejaVuSans-32" x="1024.064453"/>
      <use xlink:href="#DejaVuSans-20" x="1087.6875"/>
      <use xlink:href="#DejaVuSans-73" x="1119.474609"/>
      <use xlink:href="#DejaVuSans-29" x="1171.574219"/>
      <use xlink:href="#DejaVuSans-5d" x="1210.587891"/>
     </g>
    </g>
   </g>
   <g id="LineCollection_1">
    <path d="M 73.561109 36.19252 
L 73.561109 33.397879 
" clip-path="url(#p64ed9e2f4c)" style="fill: none; stroke: #00008b; stroke-opacity: 0.7; stroke-width: 1.5"/>
    <path d="M 87.220527 36.518414 
L 87.220527 33.800586 
" clip-path="url(#p64ed9e2f4c)" style="fill: none; stroke: #00008b; stroke-opacity: 0.7; stroke-width: 1.5"/>
    <path d="M 100.879944 36.9237 
L 100.879944 34.247183 
" clip-path="url(#p64ed9e2f4c)" style="fill: none; stroke: #00008b; stroke-opacity: 0.7; stroke-width: 1.5"/>
    <path d="M 114.539361 37.428699 
L 114.539361 34.761099 
" clip-path="url(#p64ed9e2f4c)" style="fill: none; stroke: #00008b; stroke-opacity: 0.7; stroke-width: 1.5"/>
    <path d="M 128.19878 38.060232 
L 128.19878 35.374792 
" clip-path="url(#p64ed9e2f4c)" style="fill: none; stroke: #00008b; stroke-opacity: 0.7; stroke-width: 1.5"/>
    <path d="M 141.858198 38.854859 
L 141.858198 36.132027 
" clip-path="url(#p64ed9e2f4c)" style="fill: none; stroke: #00008b; stroke-opacity: 0.7; stroke-width: 1.5"/>
    <path d="M 155.517614 39.863675 
L 155.517614 37.090539 
" clip-path="url(#p64ed9e2f4c)" style="fill: none; stroke: #00008b; stroke-opacity: 0.7; stroke-width: 1.5"/>
    <path d="M 169.177032 41.159397 
L 169.177032 38.32507 
" clip-path="url(#p64ed9e2f4c)" style="fill: none; stroke: #00008b; stroke-opacity: 0.7; stroke-width: 1.5"/>
    <path d="M 182.836451 42.847036 
L 182.836451 39.930415 
" clip-path="url(#p64ed9e2f4c)" style="fill: none; stroke: #00008b; stroke-opacity: 0.7; stroke-width: 1.5"/>
    <path d="M 196.495867 45.079921 
L 196.495867 42.023949 
" clip-path="url(#p64ed9e2f4c)" style="fill: none; stroke: #00008b; stroke-opacity: 0.7; stroke-width: 1.5"/>
    <path d="M 210.155283 48.08181 
L 210.155283 44.748624 
" clip-path="url(#p64ed9e2f4c)" style="fill: none; stroke: #00008b; stroke-opacity: 0.7; stroke-width: 1.5"/>
    <path d="M 223.814702 52.170698 
L 223.814702 48.283193 
" clip-path="url(#p64ed9e2f4c)" style="fill: none; stroke: #00008b; stroke-opacity: 0.7; stroke-width: 1.5"/>
    <path d="M 237.47412 57.777582 
L 237.47412 52.870291 
" clip-path="url(#p64ed9e2f4c)" style="fill: none; stroke: #00008b; stroke-opacity: 0.7; stroke-width: 1.5"/>
    <path d="M 251.133539 65.47527 
L 251.133539 58.855842 
" clip-path="url(#p64ed9e2f4c)" style="fill: none; stroke: #00008b; stroke-opacity: 0.7; stroke-width: 1.5"/>
    <path d="M 264.792956 76.069452 
L 264.792956 66.714731 
" clip-path="url(#p64ed9e2f4c)" style="fill: none; stroke: #00008b; stroke-opacity: 0.7; stroke-width: 1.5"/>
    <path d="M 278.452372 90.879074 
L 278.452372 77.055699 
" clip-path="url(#p64ed9e2f4c)" style="fill: none; stroke: #00008b; stroke-opacity: 0.7; stroke-width: 1.5"/>
    <path d="M 292.11179 113.048305 
L 292.11179 90.609884 
" clip-path="url(#p64ed9e2f4c)" style="fill: none; stroke: #00008b; stroke-opacity: 0.7; stroke-width: 1.5"/>
    <path d="M 305.771207 361 
L 305.771207 108.191187 
" clip-path="url(#p64ed9e2f4c)" style="fill: none; stroke: #00008b; stroke-opacity: 0.7; stroke-width: 1.5"/>
   </g>
   <g id="line2d_76">
    <path d="M 74.858754 35.092391 
L 77.454043 35.137362 
L 80.049333 35.183678 
L 82.644622 35.231412 
L 85.239911 35.280645 
L 87.835201 35.331461 
L 90.43049 35.383949 
L 93.025779 35.438204 
L 95.621069 35.494323 
L 98.216358 35.552413 
L 100.811647 35.612583 
L 103.406937 35.674952 
L 106.002226 35.739641 
L 108.597515 35.806783 
L 111.192805 35.876514 
L 113.788094 35.948981 
L 116.383383 36.024336 
L 118.978673 36.102743 
L 121.573962 36.184373 
L 124.169251 36.269406 
L 126.764541 36.358036 
L 129.35983 36.450462 
L 131.955119 36.5469 
L 134.550408 36.647574 
L 137.145698 36.752722 
L 139.740987 36.862597 
L 142.336276 36.977463 
L 144.931566 37.097601 
L 147.526855 37.223308 
L 150.122144 37.354897 
L 152.717434 37.492697 
L 155.312723 37.63706 
L 157.908012 37.788352 
L 160.503302 37.946964 
L 163.098591 38.113307 
L 165.69388 38.287816 
L 168.28917 38.47095 
L 170.884459 38.663193 
L 173.479748 38.865058 
L 176.075038 39.077085 
L 178.670327 39.299846 
L 181.265616 39.533943 
L 183.860906 39.780015 
L 186.456195 40.038734 
L 189.051484 40.310811 
L 191.646774 40.596997 
L 194.242063 40.898085 
L 196.837352 41.214913 
L 199.432642 41.548365 
L 202.027931 41.899376 
L 204.62322 42.268933 
L 207.21851 42.658078 
L 209.813799 43.067912 
L 212.409088 43.499599 
L 215.004378 43.954366 
L 217.599667 44.43351 
L 220.194956 44.938403 
L 222.790246 45.470492 
L 225.385535 46.031304 
L 227.980824 46.622455 
L 230.576114 47.24565 
L 233.171403 47.902689 
L 235.766692 48.595477 
L 238.361981 49.326021 
L 240.957271 50.096444 
L 243.55256 50.908988 
L 246.147849 51.76602 
L 248.743139 52.670041 
L 251.338428 53.623692 
L 253.933717 54.629762 
L 256.529007 55.691199 
L 259.124296 56.811115 
L 261.719585 57.992796 
L 264.314875 59.239714 
L 266.910164 60.555536 
L 269.505453 61.944135 
L 272.100743 63.409602 
L 274.696032 64.956258 
L 277.291321 66.588666 
L 279.886611 68.311646 
L 282.4819 70.13029 
L 285.077189 72.049974 
L 287.672479 74.076378 
L 290.267768 76.2155 
L 292.863057 78.473677 
L 295.458347 80.8576 
L 298.053636 83.374337 
L 300.648925 86.031354 
L 303.244215 88.836536 
L 305.839504 91.798211 
L 308.434793 94.925176 
L 311.030083 98.22672 
L 313.625372 101.712659 
L 316.220661 105.393355 
L 318.815951 109.279756 
L 321.41124 113.383425 
L 324.006529 117.716574 
L 326.601819 122.292102 
L 329.197108 127.123633 
L 331.792397 132.225557 
" clip-path="url(#p64ed9e2f4c)" style="fill: none; stroke: #ff0000; stroke-width: 1.5; stroke-linecap: square"/>
   </g>
   <g id="line2d_77">
    <path d="M 74.858754 35.089596 
L 77.454043 35.134621 
L 80.049333 35.18099 
L 82.644622 35.228777 
L 85.239911 35.278062 
L 87.835201 35.328931 
L 90.43049 35.381471 
L 93.025779 35.435778 
L 95.621069 35.491949 
L 98.216358 35.55009 
L 100.811647 35.610312 
L 103.406937 35.672731 
L 106.002226 35.737472 
L 108.597515 35.804664 
L 111.192805 35.874445 
L 113.788094 35.946962 
L 116.383383 36.022367 
L 118.978673 36.100823 
L 121.573962 36.182501 
L 124.169251 36.267583 
L 126.764541 36.356261 
L 129.35983 36.448735 
L 131.955119 36.545219 
L 134.550408 36.64594 
L 137.145698 36.751134 
L 139.740987 36.861054 
L 142.336276 36.975965 
L 144.931566 37.096147 
L 147.526855 37.221898 
L 150.122144 37.353529 
L 152.717434 37.491372 
L 155.312723 37.635775 
L 157.908012 37.787108 
L 160.503302 37.94576 
L 163.098591 38.112142 
L 165.69388 38.286688 
L 168.28917 38.469859 
L 170.884459 38.662137 
L 173.479748 38.864037 
L 176.075038 39.076097 
L 178.670327 39.29889 
L 181.265616 39.533018 
L 183.860906 39.779119 
L 186.456195 40.037865 
L 189.051484 40.309969 
L 191.646774 40.596179 
L 194.242063 40.89729 
L 196.837352 41.214138 
L 199.432642 41.547609 
L 202.027931 41.898637 
L 204.62322 42.268208 
L 207.21851 42.657365 
L 209.813799 43.067209 
L 212.409088 43.498902 
L 215.004378 43.953673 
L 217.599667 44.432819 
L 220.194956 44.93771 
L 222.790246 45.469794 
L 225.385535 46.030598 
L 227.980824 46.621736 
L 230.576114 47.244915 
L 233.171403 47.901935 
L 235.766692 48.594698 
L 238.361981 49.325213 
L 240.957271 50.095603 
L 243.55256 50.908108 
L 246.147849 51.765097 
L 248.743139 52.669068 
L 251.338428 53.622664 
L 253.933717 54.628673 
L 256.529007 55.690042 
L 259.124296 56.809882 
L 261.719585 57.99148 
L 264.314875 59.238308 
L 266.910164 60.554032 
L 269.505453 61.942524 
L 272.100743 63.407874 
L 274.696032 64.954404 
L 277.291321 66.586676 
L 279.886611 68.309509 
L 282.4819 70.127994 
L 285.077189 72.047507 
L 287.672479 74.073727 
L 290.267768 76.212653 
L 292.863057 78.470618 
L 295.458347 80.854315 
L 298.053636 83.37081 
L 300.648925 86.027569 
L 303.244215 88.832474 
L 305.839504 91.793854 
L 308.434793 94.920504 
L 311.030083 98.221713 
L 313.625372 101.707294 
L 316.220661 105.387609 
L 318.815951 109.273604 
L 321.41124 113.376842 
L 324.006529 117.709532 
L 326.601819 122.284573 
L 329.197108 127.115586 
L 331.792397 132.216959 
" clip-path="url(#p64ed9e2f4c)" style="fill: none; stroke: #008000; stroke-width: 1.5; stroke-linecap: square"/>
   </g>
   <g id="line2d_78">
    <path d="M 74.858754 35.092391 
L 77.454043 35.137362 
L 80.049333 35.183678 
L 82.644622 35.231412 
L 85.239911 35.280645 
L 87.835201 35.331461 
L 90.43049 35.383949 
L 93.025779 35.438204 
L 95.621069 35.494323 
L 98.216358 35.552413 
L 100.811647 35.612583 
L 103.406937 35.674952 
L 106.002226 35.739641 
L 108.597515 35.806783 
L 111.192805 35.876514 
L 113.788094 35.948981 
L 116.383383 36.024336 
L 118.978673 36.102743 
L 121.573962 36.184373 
L 124.169251 36.269406 
L 126.764541 36.358036 
L 129.35983 36.450462 
L 131.955119 36.5469 
L 134.550408 36.647574 
L 137.145698 36.752722 
L 139.740987 36.862597 
L 142.336276 36.977463 
L 144.931566 37.097601 
L 147.526855 37.223308 
L 150.122144 37.354897 
L 152.717434 37.492697 
L 155.312723 37.63706 
L 157.908012 37.788352 
L 160.503302 37.946964 
L 163.098591 38.113307 
L 165.69388 38.287816 
L 168.28917 38.47095 
L 170.884459 38.663193 
L 173.479748 38.865058 
L 176.075038 39.077085 
L 178.670327 39.299846 
L 181.265616 39.533943 
L 183.860906 39.780015 
L 186.456195 40.038734 
L 189.051484 40.310811 
L 191.646774 40.596997 
L 194.242063 40.898085 
L 196.837352 41.214913 
L 199.432642 41.548365 
L 202.027931 41.899376 
L 204.62322 42.268933 
L 207.21851 42.658078 
L 209.813799 43.067912 
L 212.409088 43.499599 
L 215.004378 43.954366 
L 217.599667 44.43351 
L 220.194956 44.938403 
L 222.790246 45.470492 
L 225.385535 46.031304 
L 227.980824 46.622455 
L 230.576114 47.24565 
L 233.171403 47.902689 
L 235.766692 48.595477 
L 238.361981 49.326021 
L 240.957271 50.096444 
L 243.55256 50.908988 
L 246.147849 51.76602 
L 248.743139 52.670041 
L 251.338428 53.623692 
L 253.933717 54.629762 
L 256.529007 55.691199 
L 259.124296 56.811115 
L 261.719585 57.992796 
L 264.314875 59.239714 
L 266.910164 60.555536 
L 269.505453 61.944135 
L 272.100743 63.409602 
L 274.696032 64.956258 
L 277.291321 66.588666 
L 279.886611 68.311646 
L 282.4819 70.13029 
L 285.077189 72.049974 
L 287.672479 74.076378 
L 290.267768 76.2155 
L 292.863057 78.473677 
L 295.458347 80.8576 
L 298.053636 83.374337 
L 300.648925 86.031354 
L 303.244215 88.836536 
L 305.839504 91.798211 
L 308.434793 94.925176 
L 311.030083 98.22672 
L 313.625372 101.712659 
L 316.220661 105.393355 
L 318.815951 109.279756 
L 321.41124 113.383425 
L 324.006529 117.716574 
L 326.601819 122.292102 
L 329.197108 127.123633 
L 331.792397 132.225557 
" clip-path="url(#p64ed9e2f4c)" style="fill: none; stroke-dasharray: 1.5,2.475; stroke-dashoffset: 0; stroke: #000000; stroke-width: 1.5"/>
   </g>
   <g id="line2d_79">
    <path d="M 73.561109 34.71888 
L 87.220527 35.087311 
L 100.879944 35.515426 
L 114.539361 36.025348 
L 128.19878 36.64703 
L 141.858198 37.420988 
L 155.517614 38.401955 
L 169.177032 39.663736 
L 182.836451 41.305613 
L 196.495867 43.46071 
L 210.155283 46.30674 
L 223.814702 50.079538 
L 237.47412 55.08958 
L 251.133539 61.741245 
L 264.792956 70.55374 
L 278.452372 82.181212 
L 292.11179 97.427676 
L 305.771207 117.250193 
" clip-path="url(#p64ed9e2f4c)" style="fill: none; stroke: #00008b; stroke-opacity: 0.7; stroke-width: 1.5; stroke-linecap: square"/>
   </g>
   <g id="patch_3">
    <path d="M 60.468889 189.852627 
L 60.468889 25.44 
" style="fill: none; stroke: #000000; stroke-width: 0.8; stroke-linejoin: miter; stroke-linecap: square"/>
   </g>
   <g id="patch_4">
    <path d="M 348.49773 189.852627 
L 348.49773 25.44 
" style="fill: none; stroke: #000000; stroke-width: 0.8; stroke-linejoin: miter; stroke-linecap: square"/>
   </g>
   <g id="patch_5">
    <path d="M 60.468889 189.852627 
L 348.49773 189.852627 
" style="fill: none; stroke: #000000; stroke-width: 0.8; stroke-linejoin: miter; stroke-linecap: square"/>
   </g>
   <g id="patch_6">
    <path d="M 60.468889 25.44 
L 348.49773 25.44 
" style="fill: none; stroke: #000000; stroke-width: 0.8; stroke-linejoin: miter; stroke-linecap: square"/>
   </g>
   <g id="text_7">
    <!-- N = 1000 (p = 5.2%) -->
    <g transform="translate(141.40081 19.44) scale(0.12 -0.12)">
     <defs>
      <path id="DejaVuSans-4e" d="M 628 4666 
L 1478 4666 
L 3547 763 
L 3547 4666 
L 4159 4666 
L 4159 0 
L 3309 0 
L 1241 3903 
L 1241 0 
L 628 0 
L 628 4666 
z
" transform="scale(0.015625)"/>
      <path id="DejaVuSans-3d" d="M 678 2906 
L 4684 2906 
L 4684 2381 
L 678 2381 
L 678 2906 
z
M 678 1631 
L 4684 1631 
L 4684 1100 
L 678 1100 
L 678 1631 
z
" transform="scale(0.015625)"/>
      <path id="DejaVuSans-70" d="M 1159 525 
L 1159 -1331 
L 581 -1331 
L 581 3500 
L 1159 3500 
L 1159 2969 
Q 1341 3281 1617 3432 
Q 1894 3584 2278 3584 
Q 2916 3584 3314 3078 
Q 3713 2572 3713 1747 
Q 3713 922 3314 415 
Q 2916 -91 2278 -91 
Q 1894 -91 1617 61 
Q 1341 213 1159 525 
z
M 3116 1747 
Q 3116 2381 2855 2742 
Q 2594 3103 2138 3103 
Q 1681 3103 1420 2742 
Q 1159 2381 1159 1747 
Q 1159 1113 1420 752 
Q 1681 391 2138 391 
Q 2594 391 2855 752 
Q 3116 1113 3116 1747 
z
" transform="scale(0.015625)"/>
      <path id="DejaVuSans-2e" d="M 684 794 
L 1344 794 
L 1344 0 
L 684 0 
L 684 794 
z
" transform="scale(0.015625)"/>
      <path id="DejaVuSans-25" d="M 4653 2053 
Q 4381 2053 4226 1822 
Q 4072 1591 4072 1178 
Q 4072 772 4226 539 
Q 4381 306 4653 306 
Q 4919 306 5073 539 
Q 5228 772 5228 1178 
Q 5228 1588 5073 1820 
Q 4919 2053 4653 2053 
z
M 4653 2450 
Q 5147 2450 5437 2106 
Q 5728 1763 5728 1178 
Q 5728 594 5436 251 
Q 5144 -91 4653 -91 
Q 4153 -91 3862 251 
Q 3572 594 3572 1178 
Q 3572 1766 3864 2108 
Q 4156 2450 4653 2450 
z
M 1428 4353 
Q 1159 4353 1004 4120 
Q 850 3888 850 3481 
Q 850 3069 1003 2837 
Q 1156 2606 1428 2606 
Q 1700 2606 1854 2837 
Q 2009 3069 2009 3481 
Q 2009 3884 1853 4118 
Q 1697 4353 1428 4353 
z
M 4250 4750 
L 4750 4750 
L 1831 -91 
L 1331 -91 
L 4250 4750 
z
M 1428 4750 
Q 1922 4750 2215 4408 
Q 2509 4066 2509 3481 
Q 2509 2891 2217 2550 
Q 1925 2209 1428 2209 
Q 931 2209 642 2551 
Q 353 2894 353 3481 
Q 353 4063 643 4406 
Q 934 4750 1428 4750 
z
" transform="scale(0.015625)"/>
     </defs>
     <use xlink:href="#DejaVuSans-4e"/>
     <use xlink:href="#DejaVuSans-20" x="74.804688"/>
     <use xlink:href="#DejaVuSans-3d" x="106.591797"/>
     <use xlink:href="#DejaVuSans-20" x="190.380859"/>
     <use xlink:href="#DejaVuSans-31" x="222.167969"/>
     <use xlink:href="#DejaVuSans-30" x="285.791016"/>
     <use xlink:href="#DejaVuSans-30" x="349.414062"/>
     <use xlink:href="#DejaVuSans-30" x="413.037109"/>
     <use xlink:href="#DejaVuSans-20" x="476.660156"/>
     <use xlink:href="#DejaVuSans-28" x="508.447266"/>
     <use xlink:href="#DejaVuSans-70" x="547.460938"/>
     <use xlink:href="#DejaVuSans-20" x="610.9375"/>
     <use xlink:href="#DejaVuSans-3d" x="642.724609"/>
     <use xlink:href="#DejaVuSans-20" x="726.513672"/>
     <use xlink:href="#DejaVuSans-35" x="758.300781"/>
     <use xlink:href="#DejaVuSans-2e" x="821.923828"/>
     <use xlink:href="#DejaVuSans-32" x="853.710938"/>
     <use xlink:href="#DejaVuSans-25" x="917.333984"/>
     <use xlink:href="#DejaVuSans-29" x="1012.353516"/>
    </g>
   </g>
   <g id="legend_1">
    <g id="patch_7">
     <path d="M 67.468889 184.852627 
L 168.503264 184.852627 
Q 170.503264 184.852627 170.503264 182.852627 
L 170.503264 125.140127 
Q 170.503264 123.140127 168.503264 123.140127 
L 67.468889 123.140127 
Q 65.468889 123.140127 65.468889 125.140127 
L 65.468889 182.852627 
Q 65.468889 184.852627 67.468889 184.852627 
z
" style="fill: #ffffff; opacity: 0.8; stroke: #cccccc; stroke-linejoin: miter"/>
    </g>
    <g id="patch_8">
     <path d="M 69.468889 134.738565 
L 89.468889 134.738565 
L 89.468889 127.738565 
L 69.468889 127.738565 
z
" style="fill: #ff0000; fill-opacity: 0.5"/>
    </g>
    <g id="text_8">
     <!-- $1\sigma$ Standard -->
     <g transform="translate(97.468889 134.738565) scale(0.1 -0.1)">
      <defs>
       <path id="DejaVuSans-Oblique-3c3" d="M 2219 3044 
Q 1744 3044 1422 2700 
Q 1081 2341 969 1747 
Q 844 1119 1044 756 
Q 1241 397 1706 397 
Q 2166 397 2503 759 
Q 2844 1122 2966 1747 
Q 3075 2319 2881 2700 
Q 2700 3044 2219 3044 
z
M 2309 3503 
L 4219 3500 
L 4106 2925 
L 3463 2925 
Q 3706 2438 3575 1747 
Q 3406 888 2884 400 
Q 2359 -91 1609 -91 
Q 856 -91 525 400 
Q 194 888 363 1747 
Q 528 2609 1050 3097 
Q 1484 3503 2309 3503 
z
" transform="scale(0.015625)"/>
       <path id="DejaVuSans-53" d="M 3425 4513 
L 3425 3897 
Q 3066 4069 2747 4153 
Q 2428 4238 2131 4238 
Q 1616 4238 1336 4038 
Q 1056 3838 1056 3469 
Q 1056 3159 1242 3001 
Q 1428 2844 1947 2747 
L 2328 2669 
Q 3034 2534 3370 2195 
Q 3706 1856 3706 1288 
Q 3706 609 3251 259 
Q 2797 -91 1919 -91 
Q 1588 -91 1214 -16 
Q 841 59 441 206 
L 441 856 
Q 825 641 1194 531 
Q 1563 422 1919 422 
Q 2459 422 2753 634 
Q 3047 847 3047 1241 
Q 3047 1584 2836 1778 
Q 2625 1972 2144 2069 
L 1759 2144 
Q 1053 2284 737 2584 
Q 422 2884 422 3419 
Q 422 4038 858 4394 
Q 1294 4750 2059 4750 
Q 2388 4750 2728 4690 
Q 3069 4631 3425 4513 
z
" transform="scale(0.015625)"/>
       <path id="DejaVuSans-74" d="M 1172 4494 
L 1172 3500 
L 2356 3500 
L 2356 3053 
L 1172 3053 
L 1172 1153 
Q 1172 725 1289 603 
Q 1406 481 1766 481 
L 2356 481 
L 2356 0 
L 1766 0 
Q 1100 0 847 248 
Q 594 497 594 1153 
L 594 3053 
L 172 3053 
L 172 3500 
L 594 3500 
L 594 4494 
L 1172 4494 
z
" transform="scale(0.015625)"/>
       <path id="DejaVuSans-61" d="M 2194 1759 
Q 1497 1759 1228 1600 
Q 959 1441 959 1056 
Q 959 750 1161 570 
Q 1363 391 1709 391 
Q 2188 391 2477 730 
Q 2766 1069 2766 1631 
L 2766 1759 
L 2194 1759 
z
M 3341 1997 
L 3341 0 
L 2766 0 
L 2766 531 
Q 2569 213 2275 61 
Q 1981 -91 1556 -91 
Q 1019 -91 701 211 
Q 384 513 384 1019 
Q 384 1609 779 1909 
Q 1175 2209 1959 2209 
L 2766 2209 
L 2766 2266 
Q 2766 2663 2505 2880 
Q 2244 3097 1772 3097 
Q 1472 3097 1187 3025 
Q 903 2953 641 2809 
L 641 3341 
Q 956 3463 1253 3523 
Q 1550 3584 1831 3584 
Q 2591 3584 2966 3190 
Q 3341 2797 3341 1997 
z
" transform="scale(0.015625)"/>
       <path id="DejaVuSans-72" d="M 2631 2963 
Q 2534 3019 2420 3045 
Q 2306 3072 2169 3072 
Q 1681 3072 1420 2755 
Q 1159 2438 1159 1844 
L 1159 0 
L 581 0 
L 581 3500 
L 1159 3500 
L 1159 2956 
Q 1341 3275 1631 3429 
Q 1922 3584 2338 3584 
Q 2397 3584 2469 3576 
Q 2541 3569 2628 3553 
L 2631 2963 
z
" transform="scale(0.015625)"/>
      </defs>
      <use xlink:href="#DejaVuSans-31" transform="translate(0 0.015625)"/>
      <use xlink:href="#DejaVuSans-Oblique-3c3" transform="translate(63.623047 0.015625)"/>
      <use xlink:href="#DejaVuSans-20" transform="translate(127.001953 0.015625)"/>
      <use xlink:href="#DejaVuSans-53" transform="translate(158.789062 0.015625)"/>
      <use xlink:href="#DejaVuSans-74" transform="translate(222.265625 0.015625)"/>
      <use xlink:href="#DejaVuSans-61" transform="translate(261.474609 0.015625)"/>
      <use xlink:href="#DejaVuSans-6e" transform="translate(322.753906 0.015625)"/>
      <use xlink:href="#DejaVuSans-64" transform="translate(386.132812 0.015625)"/>
      <use xlink:href="#DejaVuSans-61" transform="translate(449.609375 0.015625)"/>
      <use xlink:href="#DejaVuSans-72" transform="translate(510.888672 0.015625)"/>
      <use xlink:href="#DejaVuSans-64" transform="translate(552.001953 0.015625)"/>
     </g>
    </g>
    <g id="patch_9">
     <path d="M 69.468889 149.41669 
L 89.468889 149.41669 
L 89.468889 142.41669 
L 69.468889 142.41669 
z
" style="fill: #008000; fill-opacity: 0.5"/>
    </g>
    <g id="text_9">
     <!-- $1\sigma$ Nuisance -->
     <g transform="translate(97.468889 149.41669) scale(0.1 -0.1)">
      <defs>
       <path id="DejaVuSans-75" d="M 544 1381 
L 544 3500 
L 1119 3500 
L 1119 1403 
Q 1119 906 1312 657 
Q 1506 409 1894 409 
Q 2359 409 2629 706 
Q 2900 1003 2900 1516 
L 2900 3500 
L 3475 3500 
L 3475 0 
L 2900 0 
L 2900 538 
Q 2691 219 2414 64 
Q 2138 -91 1772 -91 
Q 1169 -91 856 284 
Q 544 659 544 1381 
z
M 1991 3584 
L 1991 3584 
z
" transform="scale(0.015625)"/>
       <path id="DejaVuSans-69" d="M 603 3500 
L 1178 3500 
L 1178 0 
L 603 0 
L 603 3500 
z
M 603 4863 
L 1178 4863 
L 1178 4134 
L 603 4134 
L 603 4863 
z
" transform="scale(0.015625)"/>
      </defs>
      <use xlink:href="#DejaVuSans-31" transform="translate(0 0.015625)"/>
      <use xlink:href="#DejaVuSans-Oblique-3c3" transform="translate(63.623047 0.015625)"/>
      <use xlink:href="#DejaVuSans-20" transform="translate(127.001953 0.015625)"/>
      <use xlink:href="#DejaVuSans-4e" transform="translate(158.789062 0.015625)"/>
      <use xlink:href="#DejaVuSans-75" transform="translate(233.59375 0.015625)"/>
      <use xlink:href="#DejaVuSans-69" transform="translate(296.972656 0.015625)"/>
      <use xlink:href="#DejaVuSans-73" transform="translate(324.755859 0.015625)"/>
      <use xlink:href="#DejaVuSans-61" transform="translate(376.855469 0.015625)"/>
      <use xlink:href="#DejaVuSans-6e" transform="translate(438.134766 0.015625)"/>
      <use xlink:href="#DejaVuSans-63" transform="translate(501.513672 0.015625)"/>
      <use xlink:href="#DejaVuSans-65" transform="translate(556.494141 0.015625)"/>
     </g>
    </g>
    <g id="line2d_80">
     <path d="M 69.468889 160.594815 
L 79.468889 160.594815 
L 89.468889 160.594815 
" style="fill: none; stroke-dasharray: 1.5,2.475; stroke-dashoffset: 0; stroke: #000000; stroke-width: 1.5"/>
    </g>
    <g id="text_10">
     <!-- Input -->
     <g transform="translate(97.468889 164.094815) scale(0.1 -0.1)">
      <defs>
       <path id="DejaVuSans-49" d="M 628 4666 
L 1259 4666 
L 1259 0 
L 628 0 
L 628 4666 
z
" transform="scale(0.015625)"/>
      </defs>
      <use xlink:href="#DejaVuSans-49"/>
      <use xlink:href="#DejaVuSans-6e" x="29.492188"/>
      <use xlink:href="#DejaVuSans-70" x="92.871094"/>
      <use xlink:href="#DejaVuSans-75" x="156.347656"/>
      <use xlink:href="#DejaVuSans-74" x="219.726562"/>
     </g>
    </g>
    <g id="LineCollection_2">
     <path d="M 79.468889 180.27294 
L 79.468889 170.27294 
" style="fill: none; stroke: #00008b; stroke-opacity: 0.7; stroke-width: 1.5"/>
    </g>
    <g id="line2d_81">
     <path d="M 69.468889 175.27294 
L 89.468889 175.27294 
" style="fill: none; stroke: #00008b; stroke-opacity: 0.7; stroke-width: 1.5; stroke-linecap: square"/>
    </g>
    <g id="line2d_82"/>
    <g id="text_11">
     <!-- Mean and Std -->
     <g transform="translate(97.468889 178.77294) scale(0.1 -0.1)">
      <defs>
       <path id="DejaVuSans-4d" d="M 628 4666 
L 1569 4666 
L 2759 1491 
L 3956 4666 
L 4897 4666 
L 4897 0 
L 4281 0 
L 4281 4097 
L 3078 897 
L 2444 897 
L 1241 4097 
L 1241 0 
L 628 0 
L 628 4666 
z
" transform="scale(0.015625)"/>
      </defs>
      <use xlink:href="#DejaVuSans-4d"/>
      <use xlink:href="#DejaVuSans-65" x="86.279297"/>
      <use xlink:href="#DejaVuSans-61" x="147.802734"/>
      <use xlink:href="#DejaVuSans-6e" x="209.082031"/>
      <use xlink:href="#DejaVuSans-20" x="272.460938"/>
      <use xlink:href="#DejaVuSans-61" x="304.248047"/>
      <use xlink:href="#DejaVuSans-6e" x="365.527344"/>
      <use xlink:href="#DejaVuSans-64" x="428.90625"/>
      <use xlink:href="#DejaVuSans-20" x="492.382812"/>
      <use xlink:href="#DejaVuSans-53" x="524.169922"/>
      <use xlink:href="#DejaVuSans-74" x="587.646484"/>
      <use xlink:href="#DejaVuSans-64" x="626.855469"/>
     </g>
    </g>
   </g>
  </g>
  <g id="axes_2">
   <g id="patch_10">
    <path d="M 60.468889 314.728 
L 348.49773 314.728 
L 348.49773 205.119582 
L 60.468889 205.119582 
z
" style="fill: #ffffff"/>
   </g>
   <g id="matplotlib.axis_3">
    <g id="xtick_27">
     <g id="line2d_83">
      <g>
       <use xlink:href="#mdfcb6e90ac" x="121.36907" y="314.728" style="stroke: #000000; stroke-width: 0.8"/>
      </g>
     </g>
     <g id="text_12">
      <!-- $\mathdefault{10^{0}}$ -->
      <g transform="translate(112.56907 329.326438) scale(0.1 -0.1)">
       <use xlink:href="#DejaVuSans-31" transform="translate(0 0.765625)"/>
       <use xlink:href="#DejaVuSans-30" transform="translate(63.623047 0.765625)"/>
       <use xlink:href="#DejaVuSans-30" transform="translate(128.203125 39.046875) scale(0.7)"/>
      </g>
     </g>
    </g>
    <g id="xtick_28">
     <g id="line2d_84">
      <g>
       <use xlink:href="#mdfcb6e90ac" x="230.644411" y="314.728" style="stroke: #000000; stroke-width: 0.8"/>
      </g>
     </g>
     <g id="text_13">
      <!-- $\mathdefault{10^{1}}$ -->
      <g transform="translate(221.844411 329.326438) scale(0.1 -0.1)">
       <use xlink:href="#DejaVuSans-31" transform="translate(0 0.684375)"/>
       <use xlink:href="#DejaVuSans-30" transform="translate(63.623047 0.684375)"/>
       <use xlink:href="#DejaVuSans-31" transform="translate(128.203125 38.965625) scale(0.7)"/>
      </g>
     </g>
    </g>
    <g id="xtick_29">
     <g id="line2d_85">
      <g>
       <use xlink:href="#mdfcb6e90ac" x="339.919752" y="314.728" style="stroke: #000000; stroke-width: 0.8"/>
      </g>
     </g>
     <g id="text_14">
      <!-- $\mathdefault{10^{2}}$ -->
      <g transform="translate(331.119752 329.326438) scale(0.1 -0.1)">
       <use xlink:href="#DejaVuSans-31" transform="translate(0 0.765625)"/>
       <use xlink:href="#DejaVuSans-30" transform="translate(63.623047 0.765625)"/>
       <use xlink:href="#DejaVuSans-32" transform="translate(128.203125 39.046875) scale(0.7)"/>
      </g>
     </g>
    </g>
    <g id="xtick_30">
     <g id="line2d_86">
      <g>
       <use xlink:href="#mb3ee32e005" x="64.231317" y="314.728" style="stroke: #000000; stroke-width: 0.6"/>
      </g>
     </g>
    </g>
    <g id="xtick_31">
     <g id="line2d_87">
      <g>
       <use xlink:href="#mb3ee32e005" x="77.88404" y="314.728" style="stroke: #000000; stroke-width: 0.6"/>
      </g>
     </g>
    </g>
    <g id="xtick_32">
     <g id="line2d_88">
      <g>
       <use xlink:href="#mb3ee32e005" x="88.473915" y="314.728" style="stroke: #000000; stroke-width: 0.6"/>
      </g>
     </g>
    </g>
    <g id="xtick_33">
     <g id="line2d_89">
      <g>
       <use xlink:href="#mb3ee32e005" x="97.126473" y="314.728" style="stroke: #000000; stroke-width: 0.6"/>
      </g>
     </g>
    </g>
    <g id="xtick_34">
     <g id="line2d_90">
      <g>
       <use xlink:href="#mb3ee32e005" x="104.442106" y="314.728" style="stroke: #000000; stroke-width: 0.6"/>
      </g>
     </g>
    </g>
    <g id="xtick_35">
     <g id="line2d_91">
      <g>
       <use xlink:href="#mb3ee32e005" x="110.779196" y="314.728" style="stroke: #000000; stroke-width: 0.6"/>
      </g>
     </g>
    </g>
    <g id="xtick_36">
     <g id="line2d_92">
      <g>
       <use xlink:href="#mb3ee32e005" x="116.368905" y="314.728" style="stroke: #000000; stroke-width: 0.6"/>
      </g>
     </g>
    </g>
    <g id="xtick_37">
     <g id="line2d_93">
      <g>
       <use xlink:href="#mb3ee32e005" x="154.264226" y="314.728" style="stroke: #000000; stroke-width: 0.6"/>
      </g>
     </g>
    </g>
    <g id="xtick_38">
     <g id="line2d_94">
      <g>
       <use xlink:href="#mb3ee32e005" x="173.506658" y="314.728" style="stroke: #000000; stroke-width: 0.6"/>
      </g>
     </g>
    </g>
    <g id="xtick_39">
     <g id="line2d_95">
      <g>
       <use xlink:href="#mb3ee32e005" x="187.159381" y="314.728" style="stroke: #000000; stroke-width: 0.6"/>
      </g>
     </g>
    </g>
    <g id="xtick_40">
     <g id="line2d_96">
      <g>
       <use xlink:href="#mb3ee32e005" x="197.749256" y="314.728" style="stroke: #000000; stroke-width: 0.6"/>
      </g>
     </g>
    </g>
    <g id="xtick_41">
     <g id="line2d_97">
      <g>
       <use xlink:href="#mb3ee32e005" x="206.401813" y="314.728" style="stroke: #000000; stroke-width: 0.6"/>
      </g>
     </g>
    </g>
    <g id="xtick_42">
     <g id="line2d_98">
      <g>
       <use xlink:href="#mb3ee32e005" x="213.717447" y="314.728" style="stroke: #000000; stroke-width: 0.6"/>
      </g>
     </g>
    </g>
    <g id="xtick_43">
     <g id="line2d_99">
      <g>
       <use xlink:href="#mb3ee32e005" x="220.054536" y="314.728" style="stroke: #000000; stroke-width: 0.6"/>
      </g>
     </g>
    </g>
    <g id="xtick_44">
     <g id="line2d_100">
      <g>
       <use xlink:href="#mb3ee32e005" x="225.644246" y="314.728" style="stroke: #000000; stroke-width: 0.6"/>
      </g>
     </g>
    </g>
    <g id="xtick_45">
     <g id="line2d_101">
      <g>
       <use xlink:href="#mb3ee32e005" x="263.539566" y="314.728" style="stroke: #000000; stroke-width: 0.6"/>
      </g>
     </g>
    </g>
    <g id="xtick_46">
     <g id="line2d_102">
      <g>
       <use xlink:href="#mb3ee32e005" x="282.781999" y="314.728" style="stroke: #000000; stroke-width: 0.6"/>
      </g>
     </g>
    </g>
    <g id="xtick_47">
     <g id="line2d_103">
      <g>
       <use xlink:href="#mb3ee32e005" x="296.434722" y="314.728" style="stroke: #000000; stroke-width: 0.6"/>
      </g>
     </g>
    </g>
    <g id="xtick_48">
     <g id="line2d_104">
      <g>
       <use xlink:href="#mb3ee32e005" x="307.024596" y="314.728" style="stroke: #000000; stroke-width: 0.6"/>
      </g>
     </g>
    </g>
    <g id="xtick_49">
     <g id="line2d_105">
      <g>
       <use xlink:href="#mb3ee32e005" x="315.677154" y="314.728" style="stroke: #000000; stroke-width: 0.6"/>
      </g>
     </g>
    </g>
    <g id="xtick_50">
     <g id="line2d_106">
      <g>
       <use xlink:href="#mb3ee32e005" x="322.992787" y="314.728" style="stroke: #000000; stroke-width: 0.6"/>
      </g>
     </g>
    </g>
    <g id="xtick_51">
     <g id="line2d_107">
      <g>
       <use xlink:href="#mb3ee32e005" x="329.329877" y="314.728" style="stroke: #000000; stroke-width: 0.6"/>
      </g>
     </g>
    </g>
    <g id="xtick_52">
     <g id="line2d_108">
      <g>
       <use xlink:href="#mb3ee32e005" x="334.919586" y="314.728" style="stroke: #000000; stroke-width: 0.6"/>
      </g>
     </g>
    </g>
    <g id="text_15">
     <!-- Energy [TeV] -->
     <g transform="translate(172.785653 343.004563) scale(0.1 -0.1)">
      <defs>
       <path id="DejaVuSans-45" d="M 628 4666 
L 3578 4666 
L 3578 4134 
L 1259 4134 
L 1259 2753 
L 3481 2753 
L 3481 2222 
L 1259 2222 
L 1259 531 
L 3634 531 
L 3634 0 
L 628 0 
L 628 4666 
z
" transform="scale(0.015625)"/>
       <path id="DejaVuSans-67" d="M 2906 1791 
Q 2906 2416 2648 2759 
Q 2391 3103 1925 3103 
Q 1463 3103 1205 2759 
Q 947 2416 947 1791 
Q 947 1169 1205 825 
Q 1463 481 1925 481 
Q 2391 481 2648 825 
Q 2906 1169 2906 1791 
z
M 3481 434 
Q 3481 -459 3084 -895 
Q 2688 -1331 1869 -1331 
Q 1566 -1331 1297 -1286 
Q 1028 -1241 775 -1147 
L 775 -588 
Q 1028 -725 1275 -790 
Q 1522 -856 1778 -856 
Q 2344 -856 2625 -561 
Q 2906 -266 2906 331 
L 2906 616 
Q 2728 306 2450 153 
Q 2172 0 1784 0 
Q 1141 0 747 490 
Q 353 981 353 1791 
Q 353 2603 747 3093 
Q 1141 3584 1784 3584 
Q 2172 3584 2450 3431 
Q 2728 3278 2906 2969 
L 2906 3500 
L 3481 3500 
L 3481 434 
z
" transform="scale(0.015625)"/>
       <path id="DejaVuSans-79" d="M 2059 -325 
Q 1816 -950 1584 -1140 
Q 1353 -1331 966 -1331 
L 506 -1331 
L 506 -850 
L 844 -850 
Q 1081 -850 1212 -737 
Q 1344 -625 1503 -206 
L 1606 56 
L 191 3500 
L 800 3500 
L 1894 763 
L 2988 3500 
L 3597 3500 
L 2059 -325 
z
" transform="scale(0.015625)"/>
      </defs>
      <use xlink:href="#DejaVuSans-45"/>
      <use xlink:href="#DejaVuSans-6e" x="63.183594"/>
      <use xlink:href="#DejaVuSans-65" x="126.5625"/>
      <use xlink:href="#DejaVuSans-72" x="188.085938"/>
      <use xlink:href="#DejaVuSans-67" x="227.449219"/>
      <use xlink:href="#DejaVuSans-79" x="290.925781"/>
      <use xlink:href="#DejaVuSans-20" x="350.105469"/>
      <use xlink:href="#DejaVuSans-5b" x="381.892578"/>
      <use xlink:href="#DejaVuSans-54" x="420.90625"/>
      <use xlink:href="#DejaVuSans-65" x="464.990234"/>
      <use xlink:href="#DejaVuSans-56" x="526.513672"/>
      <use xlink:href="#DejaVuSans-5d" x="594.921875"/>
     </g>
    </g>
   </g>
   <g id="matplotlib.axis_4">
    <g id="ytick_50">
     <g id="line2d_109">
      <g>
       <use xlink:href="#m82e905dc4a" x="60.468889" y="300.632996" style="stroke: #000000; stroke-width: 0.8"/>
      </g>
     </g>
     <g id="text_16">
      <!-- 0.2 -->
      <g transform="translate(37.565764 304.432214) scale(0.1 -0.1)">
       <use xlink:href="#DejaVuSans-30"/>
       <use xlink:href="#DejaVuSans-2e" x="63.623047"/>
       <use xlink:href="#DejaVuSans-32" x="95.410156"/>
      </g>
     </g>
    </g>
    <g id="ytick_51">
     <g id="line2d_110">
      <g>
       <use xlink:href="#m82e905dc4a" x="60.468889" y="277.56829" style="stroke: #000000; stroke-width: 0.8"/>
      </g>
     </g>
     <g id="text_17">
      <!-- 0.4 -->
      <g transform="translate(37.565764 281.367509) scale(0.1 -0.1)">
       <use xlink:href="#DejaVuSans-30"/>
       <use xlink:href="#DejaVuSans-2e" x="63.623047"/>
       <use xlink:href="#DejaVuSans-34" x="95.410156"/>
      </g>
     </g>
    </g>
    <g id="ytick_52">
     <g id="line2d_111">
      <g>
       <use xlink:href="#m82e905dc4a" x="60.468889" y="254.503585" style="stroke: #000000; stroke-width: 0.8"/>
      </g>
     </g>
     <g id="text_18">
      <!-- 0.6 -->
      <g transform="translate(37.565764 258.302804) scale(0.1 -0.1)">
       <use xlink:href="#DejaVuSans-30"/>
       <use xlink:href="#DejaVuSans-2e" x="63.623047"/>
       <use xlink:href="#DejaVuSans-36" x="95.410156"/>
      </g>
     </g>
    </g>
    <g id="ytick_53">
     <g id="line2d_112">
      <g>
       <use xlink:href="#m82e905dc4a" x="60.468889" y="231.43888" style="stroke: #000000; stroke-width: 0.8"/>
      </g>
     </g>
     <g id="text_19">
      <!-- 0.8 -->
      <g transform="translate(37.565764 235.238099) scale(0.1 -0.1)">
       <defs>
        <path id="DejaVuSans-38" d="M 2034 2216 
Q 1584 2216 1326 1975 
Q 1069 1734 1069 1313 
Q 1069 891 1326 650 
Q 1584 409 2034 409 
Q 2484 409 2743 651 
Q 3003 894 3003 1313 
Q 3003 1734 2745 1975 
Q 2488 2216 2034 2216 
z
M 1403 2484 
Q 997 2584 770 2862 
Q 544 3141 544 3541 
Q 544 4100 942 4425 
Q 1341 4750 2034 4750 
Q 2731 4750 3128 4425 
Q 3525 4100 3525 3541 
Q 3525 3141 3298 2862 
Q 3072 2584 2669 2484 
Q 3125 2378 3379 2068 
Q 3634 1759 3634 1313 
Q 3634 634 3220 271 
Q 2806 -91 2034 -91 
Q 1263 -91 848 271 
Q 434 634 434 1313 
Q 434 1759 690 2068 
Q 947 2378 1403 2484 
z
M 1172 3481 
Q 1172 3119 1398 2916 
Q 1625 2713 2034 2713 
Q 2441 2713 2670 2916 
Q 2900 3119 2900 3481 
Q 2900 3844 2670 4047 
Q 2441 4250 2034 4250 
Q 1625 4250 1398 4047 
Q 1172 3844 1172 3481 
z
" transform="scale(0.015625)"/>
       </defs>
       <use xlink:href="#DejaVuSans-30"/>
       <use xlink:href="#DejaVuSans-2e" x="63.623047"/>
       <use xlink:href="#DejaVuSans-38" x="95.410156"/>
      </g>
     </g>
    </g>
    <g id="ytick_54">
     <g id="line2d_113">
      <g>
       <use xlink:href="#m82e905dc4a" x="60.468889" y="208.374175" style="stroke: #000000; stroke-width: 0.8"/>
      </g>
     </g>
     <g id="text_20">
      <!-- 1.0 -->
      <g transform="translate(37.565764 212.173394) scale(0.1 -0.1)">
       <use xlink:href="#DejaVuSans-31"/>
       <use xlink:href="#DejaVuSans-2e" x="63.623047"/>
       <use xlink:href="#DejaVuSans-30" x="95.410156"/>
      </g>
     </g>
    </g>
    <g id="text_21">
     <!-- Coverage -->
     <g transform="translate(31.486077 283.880822) rotate(-90) scale(0.1 -0.1)">
      <defs>
       <path id="DejaVuSans-43" d="M 4122 4306 
L 4122 3641 
Q 3803 3938 3442 4084 
Q 3081 4231 2675 4231 
Q 1875 4231 1450 3742 
Q 1025 3253 1025 2328 
Q 1025 1406 1450 917 
Q 1875 428 2675 428 
Q 3081 428 3442 575 
Q 3803 722 4122 1019 
L 4122 359 
Q 3791 134 3420 21 
Q 3050 -91 2638 -91 
Q 1578 -91 968 557 
Q 359 1206 359 2328 
Q 359 3453 968 4101 
Q 1578 4750 2638 4750 
Q 3056 4750 3426 4639 
Q 3797 4528 4122 4306 
z
" transform="scale(0.015625)"/>
       <path id="DejaVuSans-6f" d="M 1959 3097 
Q 1497 3097 1228 2736 
Q 959 2375 959 1747 
Q 959 1119 1226 758 
Q 1494 397 1959 397 
Q 2419 397 2687 759 
Q 2956 1122 2956 1747 
Q 2956 2369 2687 2733 
Q 2419 3097 1959 3097 
z
M 1959 3584 
Q 2709 3584 3137 3096 
Q 3566 2609 3566 1747 
Q 3566 888 3137 398 
Q 2709 -91 1959 -91 
Q 1206 -91 779 398 
Q 353 888 353 1747 
Q 353 2609 779 3096 
Q 1206 3584 1959 3584 
z
" transform="scale(0.015625)"/>
       <path id="DejaVuSans-76" d="M 191 3500 
L 800 3500 
L 1894 563 
L 2988 3500 
L 3597 3500 
L 2284 0 
L 1503 0 
L 191 3500 
z
" transform="scale(0.015625)"/>
      </defs>
      <use xlink:href="#DejaVuSans-43"/>
      <use xlink:href="#DejaVuSans-6f" x="69.824219"/>
      <use xlink:href="#DejaVuSans-76" x="131.005859"/>
      <use xlink:href="#DejaVuSans-65" x="190.185547"/>
      <use xlink:href="#DejaVuSans-72" x="251.708984"/>
      <use xlink:href="#DejaVuSans-61" x="292.822266"/>
      <use xlink:href="#DejaVuSans-67" x="354.101562"/>
      <use xlink:href="#DejaVuSans-65" x="417.578125"/>
     </g>
    </g>
   </g>
   <g id="LineCollection_3">
    <path d="M 75.876577 297.175535 
L 75.876577 285.177398 
" clip-path="url(#pc4a1415985)" style="fill: none; stroke: #ff0000; stroke-width: 1.5"/>
    <path d="M 89.535995 300.865888 
L 89.535995 288.867751 
" clip-path="url(#pc4a1415985)" style="fill: none; stroke: #ff0000; stroke-width: 1.5"/>
    <path d="M 103.195412 304.902211 
L 103.195412 292.904074 
" clip-path="url(#pc4a1415985)" style="fill: none; stroke: #ff0000; stroke-width: 1.5"/>
    <path d="M 116.854829 308.13127 
L 116.854829 296.133133 
" clip-path="url(#pc4a1415985)" style="fill: none; stroke: #ff0000; stroke-width: 1.5"/>
    <path d="M 130.514248 309.745799 
L 130.514248 297.747662 
" clip-path="url(#pc4a1415985)" style="fill: none; stroke: #ff0000; stroke-width: 1.5"/>
    <path d="M 144.173666 307.669976 
L 144.173666 295.671839 
" clip-path="url(#pc4a1415985)" style="fill: none; stroke: #ff0000; stroke-width: 1.5"/>
    <path d="M 157.833082 303.172358 
L 157.833082 291.174221 
" clip-path="url(#pc4a1415985)" style="fill: none; stroke: #ff0000; stroke-width: 1.5"/>
    <path d="M 171.4925 300.865888 
L 171.4925 288.867751 
" clip-path="url(#pc4a1415985)" style="fill: none; stroke: #ff0000; stroke-width: 1.5"/>
    <path d="M 185.151919 297.290858 
L 185.151919 285.292722 
" clip-path="url(#pc4a1415985)" style="fill: none; stroke: #ff0000; stroke-width: 1.5"/>
    <path d="M 198.811335 295.330358 
L 198.811335 283.332222 
" clip-path="url(#pc4a1415985)" style="fill: none; stroke: #ff0000; stroke-width: 1.5"/>
    <path d="M 212.470751 292.793241 
L 212.470751 280.795104 
" clip-path="url(#pc4a1415985)" style="fill: none; stroke: #ff0000; stroke-width: 1.5"/>
    <path d="M 226.130169 286.681094 
L 226.130169 274.682957 
" clip-path="url(#pc4a1415985)" style="fill: none; stroke: #ff0000; stroke-width: 1.5"/>
    <path d="M 239.789588 277.801182 
L 239.789588 265.803046 
" clip-path="url(#pc4a1415985)" style="fill: none; stroke: #ff0000; stroke-width: 1.5"/>
    <path d="M 253.449007 271.573712 
L 253.449007 259.575575 
" clip-path="url(#pc4a1415985)" style="fill: none; stroke: #ff0000; stroke-width: 1.5"/>
    <path d="M 267.108424 264.769624 
L 267.108424 252.771487 
" clip-path="url(#pc4a1415985)" style="fill: none; stroke: #ff0000; stroke-width: 1.5"/>
    <path d="M 280.76784 261.194595 
L 280.76784 249.196458 
" clip-path="url(#pc4a1415985)" style="fill: none; stroke: #ff0000; stroke-width: 1.5"/>
    <path d="M 294.427258 258.888124 
L 294.427258 246.889987 
" clip-path="url(#pc4a1415985)" style="fill: none; stroke: #ff0000; stroke-width: 1.5"/>
    <path d="M 308.086675 255.313095 
L 308.086675 243.314958 
" clip-path="url(#pc4a1415985)" style="fill: none; stroke: #ff0000; stroke-width: 1.5"/>
    <path d="M 321.746091 250.008213 
L 321.746091 238.010076 
" clip-path="url(#pc4a1415985)" style="fill: none; stroke: #ff0000; stroke-width: 1.5"/>
    <path d="M 335.40551 241.358948 
L 335.40551 229.360811 
" clip-path="url(#pc4a1415985)" style="fill: none; stroke: #ff0000; stroke-width: 1.5"/>
   </g>
   <g id="LineCollection_4">
    <path d="M 73.561109 226.943508 
L 73.561109 214.945371 
" clip-path="url(#pc4a1415985)" style="fill: none; stroke: #008000; stroke-width: 1.5"/>
    <path d="M 87.220527 225.444302 
L 87.220527 213.446165 
" clip-path="url(#pc4a1415985)" style="fill: none; stroke: #008000; stroke-width: 1.5"/>
    <path d="M 100.879944 224.752361 
L 100.879944 212.754224 
" clip-path="url(#pc4a1415985)" style="fill: none; stroke: #008000; stroke-width: 1.5"/>
    <path d="M 114.539361 223.483802 
L 114.539361 211.485665 
" clip-path="url(#pc4a1415985)" style="fill: none; stroke: #008000; stroke-width: 1.5"/>
    <path d="M 128.19878 223.137831 
L 128.19878 211.139694 
" clip-path="url(#pc4a1415985)" style="fill: none; stroke: #008000; stroke-width: 1.5"/>
    <path d="M 141.858198 222.44589 
L 141.858198 210.447753 
" clip-path="url(#pc4a1415985)" style="fill: none; stroke: #008000; stroke-width: 1.5"/>
    <path d="M 155.517614 222.099919 
L 155.517614 210.101783 
" clip-path="url(#pc4a1415985)" style="fill: none; stroke: #008000; stroke-width: 1.5"/>
    <path d="M 169.177032 222.215243 
L 169.177032 210.217106 
" clip-path="url(#pc4a1415985)" style="fill: none; stroke: #008000; stroke-width: 1.5"/>
    <path d="M 182.836451 223.022508 
L 182.836451 211.024371 
" clip-path="url(#pc4a1415985)" style="fill: none; stroke: #008000; stroke-width: 1.5"/>
    <path d="M 196.495867 224.752361 
L 196.495867 212.754224 
" clip-path="url(#pc4a1415985)" style="fill: none; stroke: #008000; stroke-width: 1.5"/>
    <path d="M 210.155283 226.251566 
L 210.155283 214.25343 
" clip-path="url(#pc4a1415985)" style="fill: none; stroke: #008000; stroke-width: 1.5"/>
    <path d="M 223.814702 228.558037 
L 223.814702 216.5599 
" clip-path="url(#pc4a1415985)" style="fill: none; stroke: #008000; stroke-width: 1.5"/>
    <path d="M 237.47412 233.170978 
L 237.47412 221.172841 
" clip-path="url(#pc4a1415985)" style="fill: none; stroke: #008000; stroke-width: 1.5"/>
    <path d="M 251.133539 239.398448 
L 251.133539 227.400312 
" clip-path="url(#pc4a1415985)" style="fill: none; stroke: #008000; stroke-width: 1.5"/>
    <path d="M 264.792956 245.971889 
L 264.792956 233.973753 
" clip-path="url(#pc4a1415985)" style="fill: none; stroke: #008000; stroke-width: 1.5"/>
    <path d="M 278.452372 250.354183 
L 278.452372 238.356047 
" clip-path="url(#pc4a1415985)" style="fill: none; stroke: #008000; stroke-width: 1.5"/>
    <path d="M 292.11179 253.121948 
L 292.11179 241.123811 
" clip-path="url(#pc4a1415985)" style="fill: none; stroke: #008000; stroke-width: 1.5"/>
    <path d="M 305.771207 252.891301 
L 305.771207 240.893164 
" clip-path="url(#pc4a1415985)" style="fill: none; stroke: #008000; stroke-width: 1.5"/>
    <path d="M 319.430624 249.200948 
L 319.430624 237.202811 
" clip-path="url(#pc4a1415985)" style="fill: none; stroke: #008000; stroke-width: 1.5"/>
    <path d="M 333.090042 241.358948 
L 333.090042 229.360811 
" clip-path="url(#pc4a1415985)" style="fill: none; stroke: #008000; stroke-width: 1.5"/>
   </g>
   <g id="line2d_114">
    <path d="M 73.561109 245.277703 
L 87.220527 245.277703 
L 100.879944 245.277703 
L 114.539361 245.277703 
L 128.19878 245.277703 
L 141.858198 245.277703 
L 155.517614 245.277703 
L 169.177032 245.277703 
L 182.836451 245.277703 
L 196.495867 245.277703 
L 210.155283 245.277703 
L 223.814702 245.277703 
L 237.47412 245.277703 
L 251.133539 245.277703 
L 264.792956 245.277703 
L 278.452372 245.277703 
L 292.11179 245.277703 
L 305.771207 245.277703 
" clip-path="url(#pc4a1415985)" style="fill: none; stroke-dasharray: 1.5,2.475; stroke-dashoffset: 0; stroke: #000000; stroke-width: 1.5"/>
   </g>
   <g id="line2d_115">
    <path d="M 75.876577 291.176466 
L 89.535995 294.866819 
L 103.195412 298.903143 
L 116.854829 302.132201 
L 130.514248 303.746731 
L 144.173666 301.670907 
L 157.833082 297.17329 
L 171.4925 294.866819 
L 185.151919 291.29179 
L 198.811335 289.33129 
L 212.470751 286.794172 
L 226.130169 280.682026 
L 239.789588 271.802114 
L 253.449007 265.574644 
L 267.108424 258.770556 
L 280.76784 255.195526 
L 294.427258 252.889056 
L 308.086675 249.314027 
L 321.746091 244.009144 
L 335.40551 235.35988 
" clip-path="url(#pc4a1415985)" style="fill: none; stroke: #ff0000; stroke-width: 1.5; stroke-linecap: square"/>
   </g>
   <g id="line2d_116">
    <path d="M 73.561109 220.944439 
L 87.220527 219.445233 
L 100.879944 218.753292 
L 114.539361 217.484733 
L 128.19878 217.138763 
L 141.858198 216.446822 
L 155.517614 216.100851 
L 169.177032 216.216175 
L 182.836451 217.023439 
L 196.495867 218.753292 
L 210.155283 220.252498 
L 223.814702 222.558969 
L 237.47412 227.17191 
L 251.133539 233.39938 
L 264.792956 239.972821 
L 278.452372 244.355115 
L 292.11179 247.12288 
L 305.771207 246.892232 
L 319.430624 243.20188 
L 333.090042 235.35988 
" clip-path="url(#pc4a1415985)" style="fill: none; stroke: #008000; stroke-width: 1.5; stroke-linecap: square"/>
   </g>
   <g id="patch_11">
    <path d="M 60.468889 314.728 
L 60.468889 205.119582 
" style="fill: none; stroke: #000000; stroke-width: 0.8; stroke-linejoin: miter; stroke-linecap: square"/>
   </g>
   <g id="patch_12">
    <path d="M 348.49773 314.728 
L 348.49773 205.119582 
" style="fill: none; stroke: #000000; stroke-width: 0.8; stroke-linejoin: miter; stroke-linecap: square"/>
   </g>
   <g id="patch_13">
    <path d="M 60.468889 314.728 
L 348.49773 314.728 
" style="fill: none; stroke: #000000; stroke-width: 0.8; stroke-linejoin: miter; stroke-linecap: square"/>
   </g>
   <g id="patch_14">
    <path d="M 60.468889 205.119582 
L 348.49773 205.119582 
" style="fill: none; stroke: #000000; stroke-width: 0.8; stroke-linejoin: miter; stroke-linecap: square"/>
   </g>
   <g id="legend_2">
    <g id="patch_15">
     <path d="M 166.900855 309.728 
L 341.49773 309.728 
Q 343.49773 309.728 343.49773 307.728 
L 343.49773 279.37175 
Q 343.49773 277.37175 341.49773 277.37175 
L 166.900855 277.37175 
Q 164.900855 277.37175 164.900855 279.37175 
L 164.900855 307.728 
Q 164.900855 309.728 166.900855 309.728 
z
" style="fill: #ffffff; opacity: 0.8; stroke: #cccccc; stroke-linejoin: miter"/>
    </g>
    <g id="line2d_117">
     <path d="M 168.900855 285.470188 
L 178.900855 285.470188 
L 188.900855 285.470188 
" style="fill: none; stroke-dasharray: 1.5,2.475; stroke-dashoffset: 0; stroke: #000000; stroke-width: 1.5"/>
    </g>
    <g id="text_22">
     <!-- 68 % -->
     <g transform="translate(196.900855 288.970188) scale(0.1 -0.1)">
      <use xlink:href="#DejaVuSans-36"/>
      <use xlink:href="#DejaVuSans-38" x="63.623047"/>
      <use xlink:href="#DejaVuSans-20" x="127.246094"/>
      <use xlink:href="#DejaVuSans-25" x="159.033203"/>
     </g>
    </g>
    <g id="LineCollection_5">
     <path d="M 178.900855 305.148313 
L 178.900855 295.148313 
" style="fill: none; stroke: #ff0000; stroke-width: 1.5"/>
    </g>
    <g id="line2d_118">
     <path d="M 168.900855 300.148313 
L 188.900855 300.148313 
" style="fill: none; stroke: #ff0000; stroke-width: 1.5; stroke-linecap: square"/>
    </g>
    <g id="line2d_119"/>
    <g id="text_23">
     <!-- Standard  -->
     <g transform="translate(196.900855 303.648313) scale(0.1 -0.1)">
      <use xlink:href="#DejaVuSans-53"/>
      <use xlink:href="#DejaVuSans-74" x="63.476562"/>
      <use xlink:href="#DejaVuSans-61" x="102.685547"/>
      <use xlink:href="#DejaVuSans-6e" x="163.964844"/>
      <use xlink:href="#DejaVuSans-64" x="227.34375"/>
      <use xlink:href="#DejaVuSans-61" x="290.820312"/>
      <use xlink:href="#DejaVuSans-72" x="352.099609"/>
      <use xlink:href="#DejaVuSans-64" x="391.462891"/>
      <use xlink:href="#DejaVuSans-20" x="454.939453"/>
     </g>
    </g>
    <g id="LineCollection_6">
     <path d="M 275.574292 290.470188 
L 275.574292 280.470188 
" style="fill: none; stroke: #008000; stroke-width: 1.5"/>
    </g>
    <g id="line2d_120">
     <path d="M 265.574292 285.470188 
L 285.574292 285.470188 
" style="fill: none; stroke: #008000; stroke-width: 1.5; stroke-linecap: square"/>
    </g>
    <g id="line2d_121"/>
    <g id="text_24">
     <!-- Nuisance -->
     <g transform="translate(293.574292 288.970188) scale(0.1 -0.1)">
      <use xlink:href="#DejaVuSans-4e"/>
      <use xlink:href="#DejaVuSans-75" x="74.804688"/>
      <use xlink:href="#DejaVuSans-69" x="138.183594"/>
      <use xlink:href="#DejaVuSans-73" x="165.966797"/>
      <use xlink:href="#DejaVuSans-61" x="218.066406"/>
      <use xlink:href="#DejaVuSans-6e" x="279.345703"/>
      <use xlink:href="#DejaVuSans-63" x="342.724609"/>
      <use xlink:href="#DejaVuSans-65" x="397.705078"/>
     </g>
    </g>
   </g>
  </g>
 </g>
 <defs>
  <clipPath id="p64ed9e2f4c">
   <rect x="60.468889" y="25.44" width="288.02884" height="164.412627"/>
  </clipPath>
  <clipPath id="pc4a1415985">
   <rect x="60.468889" y="205.119582" width="288.02884" height="109.608418"/>
  </clipPath>
 </defs>
</svg>
