<?xml version="1.0" encoding="utf-8" standalone="no"?>
<!DOCTYPE svg PUBLIC "-//W3C//DTD SVG 1.1//EN"
  "http://www.w3.org/Graphics/SVG/1.1/DTD/svg11.dtd">
<svg xmlns:xlink="http://www.w3.org/1999/xlink" width="360pt" height="504pt" viewBox="0 0 360 504" xmlns="http://www.w3.org/2000/svg" version="1.1">
 <metadata>
  <rdf:RDF xmlns:dc="http://purl.org/dc/elements/1.1/" xmlns:cc="http://creativecommons.org/ns#" xmlns:rdf="http://www.w3.org/1999/02/22-rdf-syntax-ns#">
   <cc:Work>
    <dc:type rdf:resource="http://purl.org/dc/dcmitype/StillImage"/>
    <dc:date>2023-03-13T14:33:34.324723</dc:date>
    <dc:format>image/svg+xml</dc:format>
    <dc:creator>
     <cc:Agent>
      <dc:title>Matplotlib v3.6.2, https://matplotlib.org/</dc:title>
     </cc:Agent>
    </dc:creator>
   </cc:Work>
  </rdf:RDF>
 </metadata>
 <defs>
  <style type="text/css">*{stroke-linejoin: round; stroke-linecap: butt}</style>
 </defs>
 <g id="figure_1">
  <g id="patch_1">
   <path d="M 0 504 
L 360 504 
L 360 0 
L 0 0 
z
" style="fill: #ffffff"/>
  </g>
  <g id="axes_1">
   <g id="patch_2">
    <path d="M 36.97 89.442481 
L 253.158364 89.442481 
L 253.158364 10.8 
L 36.97 10.8 
z
" style="fill: #ffffff"/>
   </g>
   <g id="patch_3">
    <path d="M 61.745267 89.442481 
L 79.975086 89.442481 
L 79.975086 85.044501 
L 61.745267 85.044501 
z
" clip-path="url(#p95f951fb15)" style="fill: #4682b4"/>
   </g>
   <g id="patch_4">
    <path d="M 79.975086 89.442481 
L 98.204905 89.442481 
L 98.204905 75.075746 
L 79.975086 75.075746 
z
" clip-path="url(#p95f951fb15)" style="fill: #4682b4"/>
   </g>
   <g id="patch_5">
    <path d="M 98.204905 89.442481 
L 116.434723 89.442481 
L 116.434723 52.499448 
L 98.204905 52.499448 
z
" clip-path="url(#p95f951fb15)" style="fill: #4682b4"/>
   </g>
   <g id="patch_6">
    <path d="M 116.434723 89.442481 
L 134.664542 89.442481 
L 134.664542 37.546316 
L 116.434723 37.546316 
z
" clip-path="url(#p95f951fb15)" style="fill: #4682b4"/>
   </g>
   <g id="patch_7">
    <path d="M 134.664542 89.442481 
L 152.894361 89.442481 
L 152.894361 22.299985 
L 134.664542 22.299985 
z
" clip-path="url(#p95f951fb15)" style="fill: #4682b4"/>
   </g>
   <g id="patch_8">
    <path d="M 152.894361 89.442481 
L 171.12418 89.442481 
L 171.12418 34.027932 
L 152.894361 34.027932 
z
" clip-path="url(#p95f951fb15)" style="fill: #4682b4"/>
   </g>
   <g id="patch_9">
    <path d="M 171.12418 89.442481 
L 189.353999 89.442481 
L 189.353999 49.274263 
L 171.12418 49.274263 
z
" clip-path="url(#p95f951fb15)" style="fill: #4682b4"/>
   </g>
   <g id="patch_10">
    <path d="M 189.353999 89.442481 
L 207.583817 89.442481 
L 207.583817 73.316554 
L 189.353999 73.316554 
z
" clip-path="url(#p95f951fb15)" style="fill: #4682b4"/>
   </g>
   <g id="patch_11">
    <path d="M 207.583817 89.442481 
L 225.813636 89.442481 
L 225.813636 85.044501 
L 207.583817 85.044501 
z
" clip-path="url(#p95f951fb15)" style="fill: #4682b4"/>
   </g>
   <g id="patch_12">
    <path d="M 225.813636 89.442481 
L 244.043455 89.442481 
L 244.043455 87.39009 
L 225.813636 87.39009 
z
" clip-path="url(#p95f951fb15)" style="fill: #4682b4"/>
   </g>
   <g id="PolyCollection_1">
    <defs>
     <path id="m1b0f3fa77c" d="M 115.151341 -489.45512 
L 115.151341 -414.557519 
L 174.96913 -414.557519 
L 174.96913 -489.45512 
L 174.96913 -489.45512 
L 115.151341 -489.45512 
z
" style="stroke: #008000; stroke-opacity: 0.3"/>
    </defs>
    <g clip-path="url(#p95f951fb15)">
     <use xlink:href="#m1b0f3fa77c" x="0" y="504" style="fill: #008000; fill-opacity: 0.3; stroke: #008000; stroke-opacity: 0.3"/>
    </g>
   </g>
   <g id="PolyCollection_2">
    <defs>
     <path id="m16c18dda79" d="M 114.60364 -485.05714 
L 114.60364 -414.557519 
L 175.524725 -414.557519 
L 175.524725 -485.05714 
L 175.524725 -485.05714 
L 114.60364 -485.05714 
z
" style="stroke: #ff0000; stroke-opacity: 0.4"/>
    </defs>
    <g clip-path="url(#p95f951fb15)">
     <use xlink:href="#m16c18dda79" x="0" y="504" style="fill: #ff0000; fill-opacity: 0.4; stroke: #ff0000; stroke-opacity: 0.4"/>
    </g>
   </g>
   <g id="matplotlib.axis_1">
    <g id="xtick_1">
     <g id="line2d_1">
      <defs>
       <path id="m74564d831c" d="M 0 0 
L 0 3.5 
" style="stroke: #000000; stroke-width: 0.8"/>
      </defs>
      <g>
       <use xlink:href="#m74564d831c" x="66.835491" y="89.442481" style="stroke: #000000; stroke-width: 0.8"/>
      </g>
     </g>
     <g id="text_1">
      <!-- 0.996 -->
      <g transform="translate(52.521429 104.040919) scale(0.1 -0.1)">
       <defs>
        <path id="DejaVuSans-30" d="M 2034 4250 
Q 1547 4250 1301 3770 
Q 1056 3291 1056 2328 
Q 1056 1369 1301 889 
Q 1547 409 2034 409 
Q 2525 409 2770 889 
Q 3016 1369 3016 2328 
Q 3016 3291 2770 3770 
Q 2525 4250 2034 4250 
z
M 2034 4750 
Q 2819 4750 3233 4129 
Q 3647 3509 3647 2328 
Q 3647 1150 3233 529 
Q 2819 -91 2034 -91 
Q 1250 -91 836 529 
Q 422 1150 422 2328 
Q 422 3509 836 4129 
Q 1250 4750 2034 4750 
z
" transform="scale(0.015625)"/>
        <path id="DejaVuSans-2e" d="M 684 794 
L 1344 794 
L 1344 0 
L 684 0 
L 684 794 
z
" transform="scale(0.015625)"/>
        <path id="DejaVuSans-39" d="M 703 97 
L 703 672 
Q 941 559 1184 500 
Q 1428 441 1663 441 
Q 2288 441 2617 861 
Q 2947 1281 2994 2138 
Q 2813 1869 2534 1725 
Q 2256 1581 1919 1581 
Q 1219 1581 811 2004 
Q 403 2428 403 3163 
Q 403 3881 828 4315 
Q 1253 4750 1959 4750 
Q 2769 4750 3195 4129 
Q 3622 3509 3622 2328 
Q 3622 1225 3098 567 
Q 2575 -91 1691 -91 
Q 1453 -91 1209 -44 
Q 966 3 703 97 
z
M 1959 2075 
Q 2384 2075 2632 2365 
Q 2881 2656 2881 3163 
Q 2881 3666 2632 3958 
Q 2384 4250 1959 4250 
Q 1534 4250 1286 3958 
Q 1038 3666 1038 3163 
Q 1038 2656 1286 2365 
Q 1534 2075 1959 2075 
z
" transform="scale(0.015625)"/>
        <path id="DejaVuSans-36" d="M 2113 2584 
Q 1688 2584 1439 2293 
Q 1191 2003 1191 1497 
Q 1191 994 1439 701 
Q 1688 409 2113 409 
Q 2538 409 2786 701 
Q 3034 994 3034 1497 
Q 3034 2003 2786 2293 
Q 2538 2584 2113 2584 
z
M 3366 4563 
L 3366 3988 
Q 3128 4100 2886 4159 
Q 2644 4219 2406 4219 
Q 1781 4219 1451 3797 
Q 1122 3375 1075 2522 
Q 1259 2794 1537 2939 
Q 1816 3084 2150 3084 
Q 2853 3084 3261 2657 
Q 3669 2231 3669 1497 
Q 3669 778 3244 343 
Q 2819 -91 2113 -91 
Q 1303 -91 875 529 
Q 447 1150 447 2328 
Q 447 3434 972 4092 
Q 1497 4750 2381 4750 
Q 2619 4750 2861 4703 
Q 3103 4656 3366 4563 
z
" transform="scale(0.015625)"/>
       </defs>
       <use xlink:href="#DejaVuSans-30"/>
       <use xlink:href="#DejaVuSans-2e" x="63.623047"/>
       <use xlink:href="#DejaVuSans-39" x="95.410156"/>
       <use xlink:href="#DejaVuSans-39" x="159.033203"/>
       <use xlink:href="#DejaVuSans-36" x="222.65625"/>
      </g>
     </g>
    </g>
    <g id="xtick_2">
     <g id="line2d_2">
      <g>
       <use xlink:href="#m74564d831c" x="105.950433" y="89.442481" style="stroke: #000000; stroke-width: 0.8"/>
      </g>
     </g>
     <g id="text_2">
      <!-- 0.998 -->
      <g transform="translate(91.636371 104.040919) scale(0.1 -0.1)">
       <defs>
        <path id="DejaVuSans-38" d="M 2034 2216 
Q 1584 2216 1326 1975 
Q 1069 1734 1069 1313 
Q 1069 891 1326 650 
Q 1584 409 2034 409 
Q 2484 409 2743 651 
Q 3003 894 3003 1313 
Q 3003 1734 2745 1975 
Q 2488 2216 2034 2216 
z
M 1403 2484 
Q 997 2584 770 2862 
Q 544 3141 544 3541 
Q 544 4100 942 4425 
Q 1341 4750 2034 4750 
Q 2731 4750 3128 4425 
Q 3525 4100 3525 3541 
Q 3525 3141 3298 2862 
Q 3072 2584 2669 2484 
Q 3125 2378 3379 2068 
Q 3634 1759 3634 1313 
Q 3634 634 3220 271 
Q 2806 -91 2034 -91 
Q 1263 -91 848 271 
Q 434 634 434 1313 
Q 434 1759 690 2068 
Q 947 2378 1403 2484 
z
M 1172 3481 
Q 1172 3119 1398 2916 
Q 1625 2713 2034 2713 
Q 2441 2713 2670 2916 
Q 2900 3119 2900 3481 
Q 2900 3844 2670 4047 
Q 2441 4250 2034 4250 
Q 1625 4250 1398 4047 
Q 1172 3844 1172 3481 
z
" transform="scale(0.015625)"/>
       </defs>
       <use xlink:href="#DejaVuSans-30"/>
       <use xlink:href="#DejaVuSans-2e" x="63.623047"/>
       <use xlink:href="#DejaVuSans-39" x="95.410156"/>
       <use xlink:href="#DejaVuSans-39" x="159.033203"/>
       <use xlink:href="#DejaVuSans-38" x="222.65625"/>
      </g>
     </g>
    </g>
    <g id="xtick_3">
     <g id="line2d_3">
      <g>
       <use xlink:href="#m74564d831c" x="145.065375" y="89.442481" style="stroke: #000000; stroke-width: 0.8"/>
      </g>
     </g>
     <g id="text_3">
      <!-- 1.000 -->
      <g transform="translate(130.751313 104.040919) scale(0.1 -0.1)">
       <defs>
        <path id="DejaVuSans-31" d="M 794 531 
L 1825 531 
L 1825 4091 
L 703 3866 
L 703 4441 
L 1819 4666 
L 2450 4666 
L 2450 531 
L 3481 531 
L 3481 0 
L 794 0 
L 794 531 
z
" transform="scale(0.015625)"/>
       </defs>
       <use xlink:href="#DejaVuSans-31"/>
       <use xlink:href="#DejaVuSans-2e" x="63.623047"/>
       <use xlink:href="#DejaVuSans-30" x="95.410156"/>
       <use xlink:href="#DejaVuSans-30" x="159.033203"/>
       <use xlink:href="#DejaVuSans-30" x="222.65625"/>
      </g>
     </g>
    </g>
    <g id="xtick_4">
     <g id="line2d_4">
      <g>
       <use xlink:href="#m74564d831c" x="184.180317" y="89.442481" style="stroke: #000000; stroke-width: 0.8"/>
      </g>
     </g>
     <g id="text_4">
      <!-- 1.002 -->
      <g transform="translate(169.866255 104.040919) scale(0.1 -0.1)">
       <defs>
        <path id="DejaVuSans-32" d="M 1228 531 
L 3431 531 
L 3431 0 
L 469 0 
L 469 531 
Q 828 903 1448 1529 
Q 2069 2156 2228 2338 
Q 2531 2678 2651 2914 
Q 2772 3150 2772 3378 
Q 2772 3750 2511 3984 
Q 2250 4219 1831 4219 
Q 1534 4219 1204 4116 
Q 875 4013 500 3803 
L 500 4441 
Q 881 4594 1212 4672 
Q 1544 4750 1819 4750 
Q 2544 4750 2975 4387 
Q 3406 4025 3406 3419 
Q 3406 3131 3298 2873 
Q 3191 2616 2906 2266 
Q 2828 2175 2409 1742 
Q 1991 1309 1228 531 
z
" transform="scale(0.015625)"/>
       </defs>
       <use xlink:href="#DejaVuSans-31"/>
       <use xlink:href="#DejaVuSans-2e" x="63.623047"/>
       <use xlink:href="#DejaVuSans-30" x="95.410156"/>
       <use xlink:href="#DejaVuSans-30" x="159.033203"/>
       <use xlink:href="#DejaVuSans-32" x="222.65625"/>
      </g>
     </g>
    </g>
    <g id="xtick_5">
     <g id="line2d_5">
      <g>
       <use xlink:href="#m74564d831c" x="223.29526" y="89.442481" style="stroke: #000000; stroke-width: 0.8"/>
      </g>
     </g>
     <g id="text_5">
      <!-- 1.004 -->
      <g transform="translate(208.981197 104.040919) scale(0.1 -0.1)">
       <defs>
        <path id="DejaVuSans-34" d="M 2419 4116 
L 825 1625 
L 2419 1625 
L 2419 4116 
z
M 2253 4666 
L 3047 4666 
L 3047 1625 
L 3713 1625 
L 3713 1100 
L 3047 1100 
L 3047 0 
L 2419 0 
L 2419 1100 
L 313 1100 
L 313 1709 
L 2253 4666 
z
" transform="scale(0.015625)"/>
       </defs>
       <use xlink:href="#DejaVuSans-31"/>
       <use xlink:href="#DejaVuSans-2e" x="63.623047"/>
       <use xlink:href="#DejaVuSans-30" x="95.410156"/>
       <use xlink:href="#DejaVuSans-30" x="159.033203"/>
       <use xlink:href="#DejaVuSans-34" x="222.65625"/>
      </g>
     </g>
    </g>
    <g id="text_6">
     <!-- Best Fit BKG Norm -->
     <g transform="translate(99.140745 117.719044) scale(0.1 -0.1)">
      <defs>
       <path id="DejaVuSans-42" d="M 1259 2228 
L 1259 519 
L 2272 519 
Q 2781 519 3026 730 
Q 3272 941 3272 1375 
Q 3272 1813 3026 2020 
Q 2781 2228 2272 2228 
L 1259 2228 
z
M 1259 4147 
L 1259 2741 
L 2194 2741 
Q 2656 2741 2882 2914 
Q 3109 3088 3109 3444 
Q 3109 3797 2882 3972 
Q 2656 4147 2194 4147 
L 1259 4147 
z
M 628 4666 
L 2241 4666 
Q 2963 4666 3353 4366 
Q 3744 4066 3744 3513 
Q 3744 3084 3544 2831 
Q 3344 2578 2956 2516 
Q 3422 2416 3680 2098 
Q 3938 1781 3938 1306 
Q 3938 681 3513 340 
Q 3088 0 2303 0 
L 628 0 
L 628 4666 
z
" transform="scale(0.015625)"/>
       <path id="DejaVuSans-65" d="M 3597 1894 
L 3597 1613 
L 953 1613 
Q 991 1019 1311 708 
Q 1631 397 2203 397 
Q 2534 397 2845 478 
Q 3156 559 3463 722 
L 3463 178 
Q 3153 47 2828 -22 
Q 2503 -91 2169 -91 
Q 1331 -91 842 396 
Q 353 884 353 1716 
Q 353 2575 817 3079 
Q 1281 3584 2069 3584 
Q 2775 3584 3186 3129 
Q 3597 2675 3597 1894 
z
M 3022 2063 
Q 3016 2534 2758 2815 
Q 2500 3097 2075 3097 
Q 1594 3097 1305 2825 
Q 1016 2553 972 2059 
L 3022 2063 
z
" transform="scale(0.015625)"/>
       <path id="DejaVuSans-73" d="M 2834 3397 
L 2834 2853 
Q 2591 2978 2328 3040 
Q 2066 3103 1784 3103 
Q 1356 3103 1142 2972 
Q 928 2841 928 2578 
Q 928 2378 1081 2264 
Q 1234 2150 1697 2047 
L 1894 2003 
Q 2506 1872 2764 1633 
Q 3022 1394 3022 966 
Q 3022 478 2636 193 
Q 2250 -91 1575 -91 
Q 1294 -91 989 -36 
Q 684 19 347 128 
L 347 722 
Q 666 556 975 473 
Q 1284 391 1588 391 
Q 1994 391 2212 530 
Q 2431 669 2431 922 
Q 2431 1156 2273 1281 
Q 2116 1406 1581 1522 
L 1381 1569 
Q 847 1681 609 1914 
Q 372 2147 372 2553 
Q 372 3047 722 3315 
Q 1072 3584 1716 3584 
Q 2034 3584 2315 3537 
Q 2597 3491 2834 3397 
z
" transform="scale(0.015625)"/>
       <path id="DejaVuSans-74" d="M 1172 4494 
L 1172 3500 
L 2356 3500 
L 2356 3053 
L 1172 3053 
L 1172 1153 
Q 1172 725 1289 603 
Q 1406 481 1766 481 
L 2356 481 
L 2356 0 
L 1766 0 
Q 1100 0 847 248 
Q 594 497 594 1153 
L 594 3053 
L 172 3053 
L 172 3500 
L 594 3500 
L 594 4494 
L 1172 4494 
z
" transform="scale(0.015625)"/>
       <path id="DejaVuSans-20" transform="scale(0.015625)"/>
       <path id="DejaVuSans-46" d="M 628 4666 
L 3309 4666 
L 3309 4134 
L 1259 4134 
L 1259 2759 
L 3109 2759 
L 3109 2228 
L 1259 2228 
L 1259 0 
L 628 0 
L 628 4666 
z
" transform="scale(0.015625)"/>
       <path id="DejaVuSans-69" d="M 603 3500 
L 1178 3500 
L 1178 0 
L 603 0 
L 603 3500 
z
M 603 4863 
L 1178 4863 
L 1178 4134 
L 603 4134 
L 603 4863 
z
" transform="scale(0.015625)"/>
       <path id="DejaVuSans-4b" d="M 628 4666 
L 1259 4666 
L 1259 2694 
L 3353 4666 
L 4166 4666 
L 1850 2491 
L 4331 0 
L 3500 0 
L 1259 2247 
L 1259 0 
L 628 0 
L 628 4666 
z
" transform="scale(0.015625)"/>
       <path id="DejaVuSans-47" d="M 3809 666 
L 3809 1919 
L 2778 1919 
L 2778 2438 
L 4434 2438 
L 4434 434 
Q 4069 175 3628 42 
Q 3188 -91 2688 -91 
Q 1594 -91 976 548 
Q 359 1188 359 2328 
Q 359 3472 976 4111 
Q 1594 4750 2688 4750 
Q 3144 4750 3555 4637 
Q 3966 4525 4313 4306 
L 4313 3634 
Q 3963 3931 3569 4081 
Q 3175 4231 2741 4231 
Q 1884 4231 1454 3753 
Q 1025 3275 1025 2328 
Q 1025 1384 1454 906 
Q 1884 428 2741 428 
Q 3075 428 3337 486 
Q 3600 544 3809 666 
z
" transform="scale(0.015625)"/>
       <path id="DejaVuSans-4e" d="M 628 4666 
L 1478 4666 
L 3547 763 
L 3547 4666 
L 4159 4666 
L 4159 0 
L 3309 0 
L 1241 3903 
L 1241 0 
L 628 0 
L 628 4666 
z
" transform="scale(0.015625)"/>
       <path id="DejaVuSans-6f" d="M 1959 3097 
Q 1497 3097 1228 2736 
Q 959 2375 959 1747 
Q 959 1119 1226 758 
Q 1494 397 1959 397 
Q 2419 397 2687 759 
Q 2956 1122 2956 1747 
Q 2956 2369 2687 2733 
Q 2419 3097 1959 3097 
z
M 1959 3584 
Q 2709 3584 3137 3096 
Q 3566 2609 3566 1747 
Q 3566 888 3137 398 
Q 2709 -91 1959 -91 
Q 1206 -91 779 398 
Q 353 888 353 1747 
Q 353 2609 779 3096 
Q 1206 3584 1959 3584 
z
" transform="scale(0.015625)"/>
       <path id="DejaVuSans-72" d="M 2631 2963 
Q 2534 3019 2420 3045 
Q 2306 3072 2169 3072 
Q 1681 3072 1420 2755 
Q 1159 2438 1159 1844 
L 1159 0 
L 581 0 
L 581 3500 
L 1159 3500 
L 1159 2956 
Q 1341 3275 1631 3429 
Q 1922 3584 2338 3584 
Q 2397 3584 2469 3576 
Q 2541 3569 2628 3553 
L 2631 2963 
z
" transform="scale(0.015625)"/>
       <path id="DejaVuSans-6d" d="M 3328 2828 
Q 3544 3216 3844 3400 
Q 4144 3584 4550 3584 
Q 5097 3584 5394 3201 
Q 5691 2819 5691 2113 
L 5691 0 
L 5113 0 
L 5113 2094 
Q 5113 2597 4934 2840 
Q 4756 3084 4391 3084 
Q 3944 3084 3684 2787 
Q 3425 2491 3425 1978 
L 3425 0 
L 2847 0 
L 2847 2094 
Q 2847 2600 2669 2842 
Q 2491 3084 2119 3084 
Q 1678 3084 1418 2786 
Q 1159 2488 1159 1978 
L 1159 0 
L 581 0 
L 581 3500 
L 1159 3500 
L 1159 2956 
Q 1356 3278 1631 3431 
Q 1906 3584 2284 3584 
Q 2666 3584 2933 3390 
Q 3200 3197 3328 2828 
z
" transform="scale(0.015625)"/>
      </defs>
      <use xlink:href="#DejaVuSans-42"/>
      <use xlink:href="#DejaVuSans-65" x="68.603516"/>
      <use xlink:href="#DejaVuSans-73" x="130.126953"/>
      <use xlink:href="#DejaVuSans-74" x="182.226562"/>
      <use xlink:href="#DejaVuSans-20" x="221.435547"/>
      <use xlink:href="#DejaVuSans-46" x="253.222656"/>
      <use xlink:href="#DejaVuSans-69" x="303.492188"/>
      <use xlink:href="#DejaVuSans-74" x="331.275391"/>
      <use xlink:href="#DejaVuSans-20" x="370.484375"/>
      <use xlink:href="#DejaVuSans-42" x="402.271484"/>
      <use xlink:href="#DejaVuSans-4b" x="470.875"/>
      <use xlink:href="#DejaVuSans-47" x="536.451172"/>
      <use xlink:href="#DejaVuSans-20" x="613.941406"/>
      <use xlink:href="#DejaVuSans-4e" x="645.728516"/>
      <use xlink:href="#DejaVuSans-6f" x="720.533203"/>
      <use xlink:href="#DejaVuSans-72" x="781.714844"/>
      <use xlink:href="#DejaVuSans-6d" x="821.078125"/>
     </g>
    </g>
   </g>
   <g id="matplotlib.axis_2">
    <g id="ytick_1">
     <g id="line2d_6">
      <defs>
       <path id="ma8fc64b6ee" d="M 0 0 
L -3.5 0 
" style="stroke: #000000; stroke-width: 0.8"/>
      </defs>
      <g>
       <use xlink:href="#ma8fc64b6ee" x="36.97" y="89.442481" style="stroke: #000000; stroke-width: 0.8"/>
      </g>
     </g>
     <g id="text_7">
      <!-- 0 -->
      <g transform="translate(23.6075 93.2417) scale(0.1 -0.1)">
       <use xlink:href="#DejaVuSans-30"/>
      </g>
     </g>
    </g>
    <g id="ytick_2">
     <g id="line2d_7">
      <g>
       <use xlink:href="#ma8fc64b6ee" x="36.97" y="60.122614" style="stroke: #000000; stroke-width: 0.8"/>
      </g>
     </g>
     <g id="text_8">
      <!-- 100 -->
      <g transform="translate(10.8825 63.921833) scale(0.1 -0.1)">
       <use xlink:href="#DejaVuSans-31"/>
       <use xlink:href="#DejaVuSans-30" x="63.623047"/>
       <use xlink:href="#DejaVuSans-30" x="127.246094"/>
      </g>
     </g>
    </g>
    <g id="ytick_3">
     <g id="line2d_8">
      <g>
       <use xlink:href="#ma8fc64b6ee" x="36.97" y="30.802747" style="stroke: #000000; stroke-width: 0.8"/>
      </g>
     </g>
     <g id="text_9">
      <!-- 200 -->
      <g transform="translate(10.8825 34.601965) scale(0.1 -0.1)">
       <use xlink:href="#DejaVuSans-32"/>
       <use xlink:href="#DejaVuSans-30" x="63.623047"/>
       <use xlink:href="#DejaVuSans-30" x="127.246094"/>
      </g>
     </g>
    </g>
   </g>
   <g id="LineCollection_1">
    <path d="M 114.186934 74.782548 
L 176.480478 74.782548 
" clip-path="url(#p95f951fb15)" style="fill: none; stroke: #000080; stroke-width: 1.5"/>
   </g>
   <g id="LineCollection_2">
    <path d="M 145.060235 89.442481 
L 145.060235 14.54488 
" clip-path="url(#p95f951fb15)" style="fill: none; stroke-dasharray: 5.55,2.4; stroke-dashoffset: 0; stroke: #008000; stroke-width: 1.5"/>
   </g>
   <g id="LineCollection_3">
    <path d="M 145.064182 89.442481 
L 145.064182 18.94286 
" clip-path="url(#p95f951fb15)" style="fill: none; stroke: #ff0000; stroke-width: 1.5"/>
   </g>
   <g id="line2d_9">
    <defs>
     <path id="m17706e4b14" d="M 0 3 
C 0.795609 3 1.55874 2.683901 2.12132 2.12132 
C 2.683901 1.55874 3 0.795609 3 0 
C 3 -0.795609 2.683901 -1.55874 2.12132 -2.12132 
C 1.55874 -2.683901 0.795609 -3 0 -3 
C -0.795609 -3 -1.55874 -2.683901 -2.12132 -2.12132 
C -2.683901 -1.55874 -3 -0.795609 -3 0 
C -3 0.795609 -2.683901 1.55874 -2.12132 2.12132 
C -1.55874 2.683901 -0.795609 3 0 3 
z
" style="stroke: #000080"/>
    </defs>
    <g clip-path="url(#p95f951fb15)">
     <use xlink:href="#m17706e4b14" x="145.333706" y="74.782548" style="fill: #000080; stroke: #000080"/>
    </g>
   </g>
   <g id="patch_13">
    <path d="M 36.97 89.442481 
L 36.97 10.8 
" style="fill: none; stroke: #000000; stroke-width: 0.8; stroke-linejoin: miter; stroke-linecap: square"/>
   </g>
   <g id="patch_14">
    <path d="M 253.158364 89.442481 
L 253.158364 10.8 
" style="fill: none; stroke: #000000; stroke-width: 0.8; stroke-linejoin: miter; stroke-linecap: square"/>
   </g>
   <g id="patch_15">
    <path d="M 36.97 89.442481 
L 253.158364 89.442481 
" style="fill: none; stroke: #000000; stroke-width: 0.8; stroke-linejoin: miter; stroke-linecap: square"/>
   </g>
   <g id="patch_16">
    <path d="M 36.97 10.8 
L 253.158364 10.8 
" style="fill: none; stroke: #000000; stroke-width: 0.8; stroke-linejoin: miter; stroke-linecap: square"/>
   </g>
   <g id="legend_1">
    <g id="patch_17">
     <path d="M 260.158364 84.846397 
L 346.358364 84.846397 
Q 348.358364 84.846397 348.358364 82.846397 
L 348.358364 17.396084 
Q 348.358364 15.396084 346.358364 15.396084 
L 260.158364 15.396084 
Q 258.158364 15.396084 258.158364 17.396084 
L 258.158364 82.846397 
Q 258.158364 84.846397 260.158364 84.846397 
z
" style="fill: #ffffff; opacity: 0.8; stroke: #cccccc; stroke-linejoin: miter"/>
    </g>
    <g id="patch_18">
     <path d="M 262.158364 33.633272 
L 282.158364 33.633272 
L 282.158364 26.633272 
L 262.158364 26.633272 
z
" style="fill: #008000; fill-opacity: 0.3; stroke: #008000; stroke-opacity: 0.3; stroke-linejoin: miter"/>
    </g>
    <g id="text_10">
     <!-- Nuisance:  -->
     <g transform="translate(290.158364 26.994522) scale(0.1 -0.1)">
      <defs>
       <path id="DejaVuSans-75" d="M 544 1381 
L 544 3500 
L 1119 3500 
L 1119 1403 
Q 1119 906 1312 657 
Q 1506 409 1894 409 
Q 2359 409 2629 706 
Q 2900 1003 2900 1516 
L 2900 3500 
L 3475 3500 
L 3475 0 
L 2900 0 
L 2900 538 
Q 2691 219 2414 64 
Q 2138 -91 1772 -91 
Q 1169 -91 856 284 
Q 544 659 544 1381 
z
M 1991 3584 
L 1991 3584 
z
" transform="scale(0.015625)"/>
       <path id="DejaVuSans-61" d="M 2194 1759 
Q 1497 1759 1228 1600 
Q 959 1441 959 1056 
Q 959 750 1161 570 
Q 1363 391 1709 391 
Q 2188 391 2477 730 
Q 2766 1069 2766 1631 
L 2766 1759 
L 2194 1759 
z
M 3341 1997 
L 3341 0 
L 2766 0 
L 2766 531 
Q 2569 213 2275 61 
Q 1981 -91 1556 -91 
Q 1019 -91 701 211 
Q 384 513 384 1019 
Q 384 1609 779 1909 
Q 1175 2209 1959 2209 
L 2766 2209 
L 2766 2266 
Q 2766 2663 2505 2880 
Q 2244 3097 1772 3097 
Q 1472 3097 1187 3025 
Q 903 2953 641 2809 
L 641 3341 
Q 956 3463 1253 3523 
Q 1550 3584 1831 3584 
Q 2591 3584 2966 3190 
Q 3341 2797 3341 1997 
z
" transform="scale(0.015625)"/>
       <path id="DejaVuSans-6e" d="M 3513 2113 
L 3513 0 
L 2938 0 
L 2938 2094 
Q 2938 2591 2744 2837 
Q 2550 3084 2163 3084 
Q 1697 3084 1428 2787 
Q 1159 2491 1159 1978 
L 1159 0 
L 581 0 
L 581 3500 
L 1159 3500 
L 1159 2956 
Q 1366 3272 1645 3428 
Q 1925 3584 2291 3584 
Q 2894 3584 3203 3211 
Q 3513 2838 3513 2113 
z
" transform="scale(0.015625)"/>
       <path id="DejaVuSans-63" d="M 3122 3366 
L 3122 2828 
Q 2878 2963 2633 3030 
Q 2388 3097 2138 3097 
Q 1578 3097 1268 2742 
Q 959 2388 959 1747 
Q 959 1106 1268 751 
Q 1578 397 2138 397 
Q 2388 397 2633 464 
Q 2878 531 3122 666 
L 3122 134 
Q 2881 22 2623 -34 
Q 2366 -91 2075 -91 
Q 1284 -91 818 406 
Q 353 903 353 1747 
Q 353 2603 823 3093 
Q 1294 3584 2113 3584 
Q 2378 3584 2631 3529 
Q 2884 3475 3122 3366 
z
" transform="scale(0.015625)"/>
       <path id="DejaVuSans-3a" d="M 750 794 
L 1409 794 
L 1409 0 
L 750 0 
L 750 794 
z
M 750 3309 
L 1409 3309 
L 1409 2516 
L 750 2516 
L 750 3309 
z
" transform="scale(0.015625)"/>
      </defs>
      <use xlink:href="#DejaVuSans-4e"/>
      <use xlink:href="#DejaVuSans-75" x="74.804688"/>
      <use xlink:href="#DejaVuSans-69" x="138.183594"/>
      <use xlink:href="#DejaVuSans-73" x="165.966797"/>
      <use xlink:href="#DejaVuSans-61" x="218.066406"/>
      <use xlink:href="#DejaVuSans-6e" x="279.345703"/>
      <use xlink:href="#DejaVuSans-63" x="342.724609"/>
      <use xlink:href="#DejaVuSans-65" x="397.705078"/>
      <use xlink:href="#DejaVuSans-3a" x="459.228516"/>
      <use xlink:href="#DejaVuSans-20" x="492.919922"/>
     </g>
     <!--  1$\sigma$: 64.0% -->
     <g transform="translate(290.158364 38.192334) scale(0.1 -0.1)">
      <defs>
       <path id="DejaVuSans-Oblique-3c3" d="M 2219 3044 
Q 1744 3044 1422 2700 
Q 1081 2341 969 1747 
Q 844 1119 1044 756 
Q 1241 397 1706 397 
Q 2166 397 2503 759 
Q 2844 1122 2966 1747 
Q 3075 2319 2881 2700 
Q 2700 3044 2219 3044 
z
M 2309 3503 
L 4219 3500 
L 4106 2925 
L 3463 2925 
Q 3706 2438 3575 1747 
Q 3406 888 2884 400 
Q 2359 -91 1609 -91 
Q 856 -91 525 400 
Q 194 888 363 1747 
Q 528 2609 1050 3097 
Q 1484 3503 2309 3503 
z
" transform="scale(0.015625)"/>
       <path id="DejaVuSans-25" d="M 4653 2053 
Q 4381 2053 4226 1822 
Q 4072 1591 4072 1178 
Q 4072 772 4226 539 
Q 4381 306 4653 306 
Q 4919 306 5073 539 
Q 5228 772 5228 1178 
Q 5228 1588 5073 1820 
Q 4919 2053 4653 2053 
z
M 4653 2450 
Q 5147 2450 5437 2106 
Q 5728 1763 5728 1178 
Q 5728 594 5436 251 
Q 5144 -91 4653 -91 
Q 4153 -91 3862 251 
Q 3572 594 3572 1178 
Q 3572 1766 3864 2108 
Q 4156 2450 4653 2450 
z
M 1428 4353 
Q 1159 4353 1004 4120 
Q 850 3888 850 3481 
Q 850 3069 1003 2837 
Q 1156 2606 1428 2606 
Q 1700 2606 1854 2837 
Q 2009 3069 2009 3481 
Q 2009 3884 1853 4118 
Q 1697 4353 1428 4353 
z
M 4250 4750 
L 4750 4750 
L 1831 -91 
L 1331 -91 
L 4250 4750 
z
M 1428 4750 
Q 1922 4750 2215 4408 
Q 2509 4066 2509 3481 
Q 2509 2891 2217 2550 
Q 1925 2209 1428 2209 
Q 931 2209 642 2551 
Q 353 2894 353 3481 
Q 353 4063 643 4406 
Q 934 4750 1428 4750 
z
" transform="scale(0.015625)"/>
      </defs>
      <use xlink:href="#DejaVuSans-20" transform="translate(0 0.78125)"/>
      <use xlink:href="#DejaVuSans-31" transform="translate(31.787109 0.78125)"/>
      <use xlink:href="#DejaVuSans-Oblique-3c3" transform="translate(95.410156 0.78125)"/>
      <use xlink:href="#DejaVuSans-3a" transform="translate(158.789062 0.78125)"/>
      <use xlink:href="#DejaVuSans-20" transform="translate(192.480469 0.78125)"/>
      <use xlink:href="#DejaVuSans-36" transform="translate(224.267578 0.78125)"/>
      <use xlink:href="#DejaVuSans-34" transform="translate(287.890625 0.78125)"/>
      <use xlink:href="#DejaVuSans-2e" transform="translate(351.513672 0.78125)"/>
      <use xlink:href="#DejaVuSans-30" transform="translate(383.300781 0.78125)"/>
      <use xlink:href="#DejaVuSans-25" transform="translate(446.923828 0.78125)"/>
     </g>
    </g>
    <g id="patch_19">
     <path d="M 262.158364 59.509209 
L 282.158364 59.509209 
L 282.158364 52.509209 
L 262.158364 52.509209 
z
" style="fill: #ff0000; fill-opacity: 0.4; stroke: #ff0000; stroke-opacity: 0.4; stroke-linejoin: miter"/>
    </g>
    <g id="text_11">
     <!-- Standard:  -->
     <g transform="translate(290.158364 52.870459) scale(0.1 -0.1)">
      <defs>
       <path id="DejaVuSans-53" d="M 3425 4513 
L 3425 3897 
Q 3066 4069 2747 4153 
Q 2428 4238 2131 4238 
Q 1616 4238 1336 4038 
Q 1056 3838 1056 3469 
Q 1056 3159 1242 3001 
Q 1428 2844 1947 2747 
L 2328 2669 
Q 3034 2534 3370 2195 
Q 3706 1856 3706 1288 
Q 3706 609 3251 259 
Q 2797 -91 1919 -91 
Q 1588 -91 1214 -16 
Q 841 59 441 206 
L 441 856 
Q 825 641 1194 531 
Q 1563 422 1919 422 
Q 2459 422 2753 634 
Q 3047 847 3047 1241 
Q 3047 1584 2836 1778 
Q 2625 1972 2144 2069 
L 1759 2144 
Q 1053 2284 737 2584 
Q 422 2884 422 3419 
Q 422 4038 858 4394 
Q 1294 4750 2059 4750 
Q 2388 4750 2728 4690 
Q 3069 4631 3425 4513 
z
" transform="scale(0.015625)"/>
       <path id="DejaVuSans-64" d="M 2906 2969 
L 2906 4863 
L 3481 4863 
L 3481 0 
L 2906 0 
L 2906 525 
Q 2725 213 2448 61 
Q 2172 -91 1784 -91 
Q 1150 -91 751 415 
Q 353 922 353 1747 
Q 353 2572 751 3078 
Q 1150 3584 1784 3584 
Q 2172 3584 2448 3432 
Q 2725 3281 2906 2969 
z
M 947 1747 
Q 947 1113 1208 752 
Q 1469 391 1925 391 
Q 2381 391 2643 752 
Q 2906 1113 2906 1747 
Q 2906 2381 2643 2742 
Q 2381 3103 1925 3103 
Q 1469 3103 1208 2742 
Q 947 2381 947 1747 
z
" transform="scale(0.015625)"/>
      </defs>
      <use xlink:href="#DejaVuSans-53"/>
      <use xlink:href="#DejaVuSans-74" x="63.476562"/>
      <use xlink:href="#DejaVuSans-61" x="102.685547"/>
      <use xlink:href="#DejaVuSans-6e" x="163.964844"/>
      <use xlink:href="#DejaVuSans-64" x="227.34375"/>
      <use xlink:href="#DejaVuSans-61" x="290.820312"/>
      <use xlink:href="#DejaVuSans-72" x="352.099609"/>
      <use xlink:href="#DejaVuSans-64" x="391.462891"/>
      <use xlink:href="#DejaVuSans-3a" x="454.939453"/>
      <use xlink:href="#DejaVuSans-20" x="488.630859"/>
     </g>
     <!--  1$\sigma$: 64.9% -->
     <g transform="translate(290.158364 64.068272) scale(0.1 -0.1)">
      <use xlink:href="#DejaVuSans-20" transform="translate(0 0.78125)"/>
      <use xlink:href="#DejaVuSans-31" transform="translate(31.787109 0.78125)"/>
      <use xlink:href="#DejaVuSans-Oblique-3c3" transform="translate(95.410156 0.78125)"/>
      <use xlink:href="#DejaVuSans-3a" transform="translate(158.789062 0.78125)"/>
      <use xlink:href="#DejaVuSans-20" transform="translate(192.480469 0.78125)"/>
      <use xlink:href="#DejaVuSans-36" transform="translate(224.267578 0.78125)"/>
      <use xlink:href="#DejaVuSans-34" transform="translate(287.890625 0.78125)"/>
      <use xlink:href="#DejaVuSans-2e" transform="translate(351.513672 0.78125)"/>
      <use xlink:href="#DejaVuSans-39" transform="translate(383.300781 0.78125)"/>
      <use xlink:href="#DejaVuSans-25" transform="translate(446.923828 0.78125)"/>
     </g>
    </g>
    <g id="LineCollection_4">
     <path d="M 267.158364 75.246397 
L 277.158364 75.246397 
" style="fill: none; stroke: #000080; stroke-width: 1.5"/>
    </g>
    <g id="line2d_10"/>
    <g id="line2d_11">
     <g>
      <use xlink:href="#m17706e4b14" x="272.158364" y="75.246397" style="fill: #000080; stroke: #000080"/>
     </g>
    </g>
    <g id="text_12">
     <!-- $\mu$, $\sigma$ -->
     <g transform="translate(290.158364 78.746397) scale(0.1 -0.1)">
      <defs>
       <path id="DejaVuSans-Oblique-3bc" d="M -84 -1331 
L 856 3500 
L 1434 3500 
L 1009 1322 
Q 997 1256 987 1175 
Q 978 1094 978 1013 
Q 978 722 1161 565 
Q 1344 409 1684 409 
Q 2147 409 2431 671 
Q 2716 934 2816 1459 
L 3213 3500 
L 3788 3500 
L 3266 809 
Q 3253 750 3248 706 
Q 3244 663 3244 628 
Q 3244 531 3283 486 
Q 3322 441 3406 441 
Q 3438 441 3492 456 
Q 3547 472 3647 513 
L 3559 50 
Q 3422 -19 3297 -55 
Q 3172 -91 3053 -91 
Q 2847 -91 2730 40 
Q 2613 172 2613 403 
Q 2438 153 2195 31 
Q 1953 -91 1625 -91 
Q 1334 -91 1117 43 
Q 900 178 831 397 
L 494 -1331 
L -84 -1331 
z
" transform="scale(0.015625)"/>
       <path id="DejaVuSans-2c" d="M 750 794 
L 1409 794 
L 1409 256 
L 897 -744 
L 494 -744 
L 750 256 
L 750 794 
z
" transform="scale(0.015625)"/>
      </defs>
      <use xlink:href="#DejaVuSans-Oblique-3bc" transform="translate(0 0.265625)"/>
      <use xlink:href="#DejaVuSans-2c" transform="translate(63.623047 0.265625)"/>
      <use xlink:href="#DejaVuSans-20" transform="translate(95.410156 0.265625)"/>
      <use xlink:href="#DejaVuSans-Oblique-3c3" transform="translate(127.197266 0.265625)"/>
     </g>
    </g>
   </g>
  </g>
  <g id="axes_2">
   <g id="patch_20">
    <path d="M 36.97 213.641654 
L 253.158364 213.641654 
L 253.158364 134.999173 
L 36.97 134.999173 
z
" style="fill: #ffffff"/>
   </g>
   <g id="patch_21">
    <path d="M 87.052598 213.641654 
L 102.694443 213.641654 
L 102.694443 211.489424 
L 87.052598 211.489424 
z
" clip-path="url(#p04af853b2c)" style="fill: #4682b4"/>
   </g>
   <g id="patch_22">
    <path d="M 102.694443 213.641654 
L 118.336289 213.641654 
L 118.336289 194.988995 
L 102.694443 194.988995 
z
" clip-path="url(#p04af853b2c)" style="fill: #4682b4"/>
   </g>
   <g id="patch_23">
    <path d="M 118.336289 213.641654 
L 133.978134 213.641654 
L 133.978134 164.857776 
L 118.336289 164.857776 
z
" clip-path="url(#p04af853b2c)" style="fill: #4682b4"/>
   </g>
   <g id="patch_24">
    <path d="M 133.978134 213.641654 
L 149.619979 213.641654 
L 149.619979 145.726843 
L 133.978134 145.726843 
z
" clip-path="url(#p04af853b2c)" style="fill: #4682b4"/>
   </g>
   <g id="patch_25">
    <path d="M 149.619979 213.641654 
L 165.261825 213.641654 
L 165.261825 155.531446 
L 149.619979 155.531446 
z
" clip-path="url(#p04af853b2c)" style="fill: #4682b4"/>
   </g>
   <g id="patch_26">
    <path d="M 165.261825 213.641654 
L 180.90367 213.641654 
L 180.90367 186.858348 
L 165.261825 186.858348 
z
" clip-path="url(#p04af853b2c)" style="fill: #4682b4"/>
   </g>
   <g id="patch_27">
    <path d="M 180.90367 213.641654 
L 196.545515 213.641654 
L 196.545515 202.402231 
L 180.90367 202.402231 
z
" clip-path="url(#p04af853b2c)" style="fill: #4682b4"/>
   </g>
   <g id="patch_28">
    <path d="M 196.545515 213.641654 
L 212.18736 213.641654 
L 212.18736 211.250288 
L 196.545515 211.250288 
z
" clip-path="url(#p04af853b2c)" style="fill: #4682b4"/>
   </g>
   <g id="patch_29">
    <path d="M 212.18736 213.641654 
L 227.829206 213.641654 
L 227.829206 211.728561 
L 212.18736 211.728561 
z
" clip-path="url(#p04af853b2c)" style="fill: #4682b4"/>
   </g>
   <g id="patch_30">
    <path d="M 227.829206 213.641654 
L 243.471051 213.641654 
L 243.471051 212.685107 
L 227.829206 212.685107 
z
" clip-path="url(#p04af853b2c)" style="fill: #4682b4"/>
   </g>
   <g id="PolyCollection_3">
    <defs>
     <path id="m108b855264" d="M 49.724788 -365.255947 
L 49.724788 -290.358346 
L 240.451518 -290.358346 
L 240.451518 -365.255947 
L 240.451518 -365.255947 
L 49.724788 -365.255947 
z
" style="stroke: #008000; stroke-opacity: 0.3"/>
    </defs>
    <g clip-path="url(#p04af853b2c)">
     <use xlink:href="#m108b855264" x="0" y="504" style="fill: #008000; fill-opacity: 0.3; stroke: #008000; stroke-opacity: 0.3"/>
    </g>
   </g>
   <g id="PolyCollection_4">
    <defs>
     <path id="m63ed0f69b8" d="M 138.466053 -361.668897 
L 138.466053 -290.358346 
L 151.662311 -290.358346 
L 151.662311 -361.668897 
L 151.662311 -361.668897 
L 138.466053 -361.668897 
z
" style="stroke: #ff0000; stroke-opacity: 0.4"/>
    </defs>
    <g clip-path="url(#p04af853b2c)">
     <use xlink:href="#m63ed0f69b8" x="0" y="504" style="fill: #ff0000; fill-opacity: 0.4; stroke: #ff0000; stroke-opacity: 0.4"/>
    </g>
   </g>
   <g id="matplotlib.axis_3">
    <g id="xtick_6">
     <g id="line2d_12">
      <g>
       <use xlink:href="#m74564d831c" x="49.264472" y="213.641654" style="stroke: #000000; stroke-width: 0.8"/>
      </g>
     </g>
     <g id="text_13">
      <!-- 1.5 -->
      <g transform="translate(41.31291 228.240092) scale(0.1 -0.1)">
       <defs>
        <path id="DejaVuSans-35" d="M 691 4666 
L 3169 4666 
L 3169 4134 
L 1269 4134 
L 1269 2991 
Q 1406 3038 1543 3061 
Q 1681 3084 1819 3084 
Q 2600 3084 3056 2656 
Q 3513 2228 3513 1497 
Q 3513 744 3044 326 
Q 2575 -91 1722 -91 
Q 1428 -91 1123 -41 
Q 819 9 494 109 
L 494 744 
Q 775 591 1075 516 
Q 1375 441 1709 441 
Q 2250 441 2565 725 
Q 2881 1009 2881 1497 
Q 2881 1984 2565 2268 
Q 2250 2553 1709 2553 
Q 1456 2553 1204 2497 
Q 953 2441 691 2322 
L 691 4666 
z
" transform="scale(0.015625)"/>
       </defs>
       <use xlink:href="#DejaVuSans-31"/>
       <use xlink:href="#DejaVuSans-2e" x="63.623047"/>
       <use xlink:href="#DejaVuSans-35" x="95.410156"/>
      </g>
     </g>
    </g>
    <g id="xtick_7">
     <g id="line2d_13">
      <g>
       <use xlink:href="#m74564d831c" x="87.02076" y="213.641654" style="stroke: #000000; stroke-width: 0.8"/>
      </g>
     </g>
     <g id="text_14">
      <!-- 2.0 -->
      <g transform="translate(79.069197 228.240092) scale(0.1 -0.1)">
       <use xlink:href="#DejaVuSans-32"/>
       <use xlink:href="#DejaVuSans-2e" x="63.623047"/>
       <use xlink:href="#DejaVuSans-30" x="95.410156"/>
      </g>
     </g>
    </g>
    <g id="xtick_8">
     <g id="line2d_14">
      <g>
       <use xlink:href="#m74564d831c" x="124.777047" y="213.641654" style="stroke: #000000; stroke-width: 0.8"/>
      </g>
     </g>
     <g id="text_15">
      <!-- 2.5 -->
      <g transform="translate(116.825485 228.240092) scale(0.1 -0.1)">
       <use xlink:href="#DejaVuSans-32"/>
       <use xlink:href="#DejaVuSans-2e" x="63.623047"/>
       <use xlink:href="#DejaVuSans-35" x="95.410156"/>
      </g>
     </g>
    </g>
    <g id="xtick_9">
     <g id="line2d_15">
      <g>
       <use xlink:href="#m74564d831c" x="162.533335" y="213.641654" style="stroke: #000000; stroke-width: 0.8"/>
      </g>
     </g>
     <g id="text_16">
      <!-- 3.0 -->
      <g transform="translate(154.581772 228.240092) scale(0.1 -0.1)">
       <defs>
        <path id="DejaVuSans-33" d="M 2597 2516 
Q 3050 2419 3304 2112 
Q 3559 1806 3559 1356 
Q 3559 666 3084 287 
Q 2609 -91 1734 -91 
Q 1441 -91 1130 -33 
Q 819 25 488 141 
L 488 750 
Q 750 597 1062 519 
Q 1375 441 1716 441 
Q 2309 441 2620 675 
Q 2931 909 2931 1356 
Q 2931 1769 2642 2001 
Q 2353 2234 1838 2234 
L 1294 2234 
L 1294 2753 
L 1863 2753 
Q 2328 2753 2575 2939 
Q 2822 3125 2822 3475 
Q 2822 3834 2567 4026 
Q 2313 4219 1838 4219 
Q 1578 4219 1281 4162 
Q 984 4106 628 3988 
L 628 4550 
Q 988 4650 1302 4700 
Q 1616 4750 1894 4750 
Q 2613 4750 3031 4423 
Q 3450 4097 3450 3541 
Q 3450 3153 3228 2886 
Q 3006 2619 2597 2516 
z
" transform="scale(0.015625)"/>
       </defs>
       <use xlink:href="#DejaVuSans-33"/>
       <use xlink:href="#DejaVuSans-2e" x="63.623047"/>
       <use xlink:href="#DejaVuSans-30" x="95.410156"/>
      </g>
     </g>
    </g>
    <g id="xtick_10">
     <g id="line2d_16">
      <g>
       <use xlink:href="#m74564d831c" x="200.289622" y="213.641654" style="stroke: #000000; stroke-width: 0.8"/>
      </g>
     </g>
     <g id="text_17">
      <!-- 3.5 -->
      <g transform="translate(192.33806 228.240092) scale(0.1 -0.1)">
       <use xlink:href="#DejaVuSans-33"/>
       <use xlink:href="#DejaVuSans-2e" x="63.623047"/>
       <use xlink:href="#DejaVuSans-35" x="95.410156"/>
      </g>
     </g>
    </g>
    <g id="xtick_11">
     <g id="line2d_17">
      <g>
       <use xlink:href="#m74564d831c" x="238.04591" y="213.641654" style="stroke: #000000; stroke-width: 0.8"/>
      </g>
     </g>
     <g id="text_18">
      <!-- 4.0 -->
      <g transform="translate(230.094347 228.240092) scale(0.1 -0.1)">
       <use xlink:href="#DejaVuSans-34"/>
       <use xlink:href="#DejaVuSans-2e" x="63.623047"/>
       <use xlink:href="#DejaVuSans-30" x="95.410156"/>
      </g>
     </g>
    </g>
    <g id="text_19">
     <!-- Best Fit Amplitude -->
     <g transform="translate(99.329026 241.918217) scale(0.1 -0.1)">
      <defs>
       <path id="DejaVuSans-41" d="M 2188 4044 
L 1331 1722 
L 3047 1722 
L 2188 4044 
z
M 1831 4666 
L 2547 4666 
L 4325 0 
L 3669 0 
L 3244 1197 
L 1141 1197 
L 716 0 
L 50 0 
L 1831 4666 
z
" transform="scale(0.015625)"/>
       <path id="DejaVuSans-70" d="M 1159 525 
L 1159 -1331 
L 581 -1331 
L 581 3500 
L 1159 3500 
L 1159 2969 
Q 1341 3281 1617 3432 
Q 1894 3584 2278 3584 
Q 2916 3584 3314 3078 
Q 3713 2572 3713 1747 
Q 3713 922 3314 415 
Q 2916 -91 2278 -91 
Q 1894 -91 1617 61 
Q 1341 213 1159 525 
z
M 3116 1747 
Q 3116 2381 2855 2742 
Q 2594 3103 2138 3103 
Q 1681 3103 1420 2742 
Q 1159 2381 1159 1747 
Q 1159 1113 1420 752 
Q 1681 391 2138 391 
Q 2594 391 2855 752 
Q 3116 1113 3116 1747 
z
" transform="scale(0.015625)"/>
       <path id="DejaVuSans-6c" d="M 603 4863 
L 1178 4863 
L 1178 0 
L 603 0 
L 603 4863 
z
" transform="scale(0.015625)"/>
      </defs>
      <use xlink:href="#DejaVuSans-42"/>
      <use xlink:href="#DejaVuSans-65" x="68.603516"/>
      <use xlink:href="#DejaVuSans-73" x="130.126953"/>
      <use xlink:href="#DejaVuSans-74" x="182.226562"/>
      <use xlink:href="#DejaVuSans-20" x="221.435547"/>
      <use xlink:href="#DejaVuSans-46" x="253.222656"/>
      <use xlink:href="#DejaVuSans-69" x="303.492188"/>
      <use xlink:href="#DejaVuSans-74" x="331.275391"/>
      <use xlink:href="#DejaVuSans-20" x="370.484375"/>
      <use xlink:href="#DejaVuSans-41" x="402.271484"/>
      <use xlink:href="#DejaVuSans-6d" x="470.679688"/>
      <use xlink:href="#DejaVuSans-70" x="568.091797"/>
      <use xlink:href="#DejaVuSans-6c" x="631.568359"/>
      <use xlink:href="#DejaVuSans-69" x="659.351562"/>
      <use xlink:href="#DejaVuSans-74" x="687.134766"/>
      <use xlink:href="#DejaVuSans-75" x="726.34375"/>
      <use xlink:href="#DejaVuSans-64" x="789.722656"/>
      <use xlink:href="#DejaVuSans-65" x="853.199219"/>
     </g>
    </g>
    <g id="text_20">
     <!-- 1e−12 -->
     <g transform="translate(219.538052 240.918217) scale(0.1 -0.1)">
      <defs>
       <path id="DejaVuSans-2212" d="M 678 2272 
L 4684 2272 
L 4684 1741 
L 678 1741 
L 678 2272 
z
" transform="scale(0.015625)"/>
      </defs>
      <use xlink:href="#DejaVuSans-31"/>
      <use xlink:href="#DejaVuSans-65" x="63.623047"/>
      <use xlink:href="#DejaVuSans-2212" x="125.146484"/>
      <use xlink:href="#DejaVuSans-31" x="208.935547"/>
      <use xlink:href="#DejaVuSans-32" x="272.558594"/>
     </g>
    </g>
   </g>
   <g id="matplotlib.axis_4">
    <g id="ytick_4">
     <g id="line2d_18">
      <g>
       <use xlink:href="#ma8fc64b6ee" x="36.97" y="213.641654" style="stroke: #000000; stroke-width: 0.8"/>
      </g>
     </g>
     <g id="text_21">
      <!-- 0 -->
      <g transform="translate(23.6075 217.440873) scale(0.1 -0.1)">
       <use xlink:href="#DejaVuSans-30"/>
      </g>
     </g>
    </g>
    <g id="ytick_5">
     <g id="line2d_19">
      <g>
       <use xlink:href="#ma8fc64b6ee" x="36.97" y="165.814323" style="stroke: #000000; stroke-width: 0.8"/>
      </g>
     </g>
     <g id="text_22">
      <!-- 200 -->
      <g transform="translate(10.8825 169.613541) scale(0.1 -0.1)">
       <use xlink:href="#DejaVuSans-32"/>
       <use xlink:href="#DejaVuSans-30" x="63.623047"/>
       <use xlink:href="#DejaVuSans-30" x="127.246094"/>
      </g>
     </g>
    </g>
   </g>
   <g id="LineCollection_5">
    <path d="M 124.562838 201.684821 
L 169.130682 201.684821 
" clip-path="url(#p04af853b2c)" style="fill: none; stroke: #000080; stroke-width: 1.5"/>
   </g>
   <g id="LineCollection_6">
    <path d="M 145.088153 213.641654 
L 145.088153 138.744053 
" clip-path="url(#p04af853b2c)" style="fill: none; stroke-dasharray: 5.55,2.4; stroke-dashoffset: 0; stroke: #008000; stroke-width: 1.5"/>
   </g>
   <g id="LineCollection_7">
    <path d="M 145.064182 213.641654 
L 145.064182 142.331103 
" clip-path="url(#p04af853b2c)" style="fill: none; stroke: #ff0000; stroke-width: 1.5"/>
   </g>
   <g id="line2d_20">
    <g clip-path="url(#p04af853b2c)">
     <use xlink:href="#m17706e4b14" x="146.84676" y="201.684821" style="fill: #000080; stroke: #000080"/>
    </g>
   </g>
   <g id="patch_31">
    <path d="M 36.97 213.641654 
L 36.97 134.999173 
" style="fill: none; stroke: #000000; stroke-width: 0.8; stroke-linejoin: miter; stroke-linecap: square"/>
   </g>
   <g id="patch_32">
    <path d="M 253.158364 213.641654 
L 253.158364 134.999173 
" style="fill: none; stroke: #000000; stroke-width: 0.8; stroke-linejoin: miter; stroke-linecap: square"/>
   </g>
   <g id="patch_33">
    <path d="M 36.97 213.641654 
L 253.158364 213.641654 
" style="fill: none; stroke: #000000; stroke-width: 0.8; stroke-linejoin: miter; stroke-linecap: square"/>
   </g>
   <g id="patch_34">
    <path d="M 36.97 134.999173 
L 253.158364 134.999173 
" style="fill: none; stroke: #000000; stroke-width: 0.8; stroke-linejoin: miter; stroke-linecap: square"/>
   </g>
   <g id="legend_2">
    <g id="patch_35">
     <path d="M 260.158364 209.04557 
L 346.158364 209.04557 
Q 348.158364 209.04557 348.158364 207.04557 
L 348.158364 141.595257 
Q 348.158364 139.595257 346.158364 139.595257 
L 260.158364 139.595257 
Q 258.158364 139.595257 258.158364 141.595257 
L 258.158364 207.04557 
Q 258.158364 209.04557 260.158364 209.04557 
z
" style="fill: #ffffff; opacity: 0.8; stroke: #cccccc; stroke-linejoin: miter"/>
    </g>
    <g id="patch_36">
     <path d="M 262.158364 157.832445 
L 282.158364 157.832445 
L 282.158364 150.832445 
L 262.158364 150.832445 
z
" style="fill: #008000; fill-opacity: 0.3; stroke: #008000; stroke-opacity: 0.3; stroke-linejoin: miter"/>
    </g>
    <g id="text_23">
     <!-- Nuisance:  -->
     <g transform="translate(290.158364 151.193695) scale(0.1 -0.1)">
      <use xlink:href="#DejaVuSans-4e"/>
      <use xlink:href="#DejaVuSans-75" x="74.804688"/>
      <use xlink:href="#DejaVuSans-69" x="138.183594"/>
      <use xlink:href="#DejaVuSans-73" x="165.966797"/>
      <use xlink:href="#DejaVuSans-61" x="218.066406"/>
      <use xlink:href="#DejaVuSans-6e" x="279.345703"/>
      <use xlink:href="#DejaVuSans-63" x="342.724609"/>
      <use xlink:href="#DejaVuSans-65" x="397.705078"/>
      <use xlink:href="#DejaVuSans-3a" x="459.228516"/>
      <use xlink:href="#DejaVuSans-20" x="492.919922"/>
     </g>
     <!--  1$\sigma$: 99.8% -->
     <g transform="translate(290.158364 162.391507) scale(0.1 -0.1)">
      <use xlink:href="#DejaVuSans-20" transform="translate(0 0.78125)"/>
      <use xlink:href="#DejaVuSans-31" transform="translate(31.787109 0.78125)"/>
      <use xlink:href="#DejaVuSans-Oblique-3c3" transform="translate(95.410156 0.78125)"/>
      <use xlink:href="#DejaVuSans-3a" transform="translate(158.789062 0.78125)"/>
      <use xlink:href="#DejaVuSans-20" transform="translate(192.480469 0.78125)"/>
      <use xlink:href="#DejaVuSans-39" transform="translate(224.267578 0.78125)"/>
      <use xlink:href="#DejaVuSans-39" transform="translate(287.890625 0.78125)"/>
      <use xlink:href="#DejaVuSans-2e" transform="translate(351.513672 0.78125)"/>
      <use xlink:href="#DejaVuSans-38" transform="translate(380.675781 0.78125)"/>
      <use xlink:href="#DejaVuSans-25" transform="translate(444.298828 0.78125)"/>
     </g>
    </g>
    <g id="patch_37">
     <path d="M 262.158364 183.708382 
L 282.158364 183.708382 
L 282.158364 176.708382 
L 262.158364 176.708382 
z
" style="fill: #ff0000; fill-opacity: 0.4; stroke: #ff0000; stroke-opacity: 0.4; stroke-linejoin: miter"/>
    </g>
    <g id="text_24">
     <!-- Standard:  -->
     <g transform="translate(290.158364 177.069632) scale(0.1 -0.1)">
      <use xlink:href="#DejaVuSans-53"/>
      <use xlink:href="#DejaVuSans-74" x="63.476562"/>
      <use xlink:href="#DejaVuSans-61" x="102.685547"/>
      <use xlink:href="#DejaVuSans-6e" x="163.964844"/>
      <use xlink:href="#DejaVuSans-64" x="227.34375"/>
      <use xlink:href="#DejaVuSans-61" x="290.820312"/>
      <use xlink:href="#DejaVuSans-72" x="352.099609"/>
      <use xlink:href="#DejaVuSans-64" x="391.462891"/>
      <use xlink:href="#DejaVuSans-3a" x="454.939453"/>
      <use xlink:href="#DejaVuSans-20" x="488.630859"/>
     </g>
     <!--  1$\sigma$: 23.2% -->
     <g transform="translate(290.158364 188.267445) scale(0.1 -0.1)">
      <use xlink:href="#DejaVuSans-20" transform="translate(0 0.78125)"/>
      <use xlink:href="#DejaVuSans-31" transform="translate(31.787109 0.78125)"/>
      <use xlink:href="#DejaVuSans-Oblique-3c3" transform="translate(95.410156 0.78125)"/>
      <use xlink:href="#DejaVuSans-3a" transform="translate(158.789062 0.78125)"/>
      <use xlink:href="#DejaVuSans-20" transform="translate(192.480469 0.78125)"/>
      <use xlink:href="#DejaVuSans-32" transform="translate(224.267578 0.78125)"/>
      <use xlink:href="#DejaVuSans-33" transform="translate(287.890625 0.78125)"/>
      <use xlink:href="#DejaVuSans-2e" transform="translate(351.513672 0.78125)"/>
      <use xlink:href="#DejaVuSans-32" transform="translate(377.800781 0.78125)"/>
      <use xlink:href="#DejaVuSans-25" transform="translate(441.423828 0.78125)"/>
     </g>
    </g>
    <g id="LineCollection_8">
     <path d="M 267.158364 199.44557 
L 277.158364 199.44557 
" style="fill: none; stroke: #000080; stroke-width: 1.5"/>
    </g>
    <g id="line2d_21"/>
    <g id="line2d_22">
     <g>
      <use xlink:href="#m17706e4b14" x="272.158364" y="199.44557" style="fill: #000080; stroke: #000080"/>
     </g>
    </g>
    <g id="text_25">
     <!-- $\mu$, $\sigma$ -->
     <g transform="translate(290.158364 202.94557) scale(0.1 -0.1)">
      <use xlink:href="#DejaVuSans-Oblique-3bc" transform="translate(0 0.265625)"/>
      <use xlink:href="#DejaVuSans-2c" transform="translate(63.623047 0.265625)"/>
      <use xlink:href="#DejaVuSans-20" transform="translate(95.410156 0.265625)"/>
      <use xlink:href="#DejaVuSans-Oblique-3c3" transform="translate(127.197266 0.265625)"/>
     </g>
    </g>
   </g>
  </g>
  <g id="axes_3">
   <g id="patch_38">
    <path d="M 36.97 337.840827 
L 253.158364 337.840827 
L 253.158364 259.198346 
L 36.97 259.198346 
z
" style="fill: #ffffff"/>
   </g>
   <g id="patch_39">
    <path d="M 46.783976 337.840827 
L 66.411929 337.840827 
L 66.411929 336.013738 
L 46.783976 336.013738 
z
" clip-path="url(#pf7ca45a1be)" style="fill: #4682b4"/>
   </g>
   <g id="patch_40">
    <path d="M 66.411929 337.840827 
L 86.039882 337.840827 
L 86.039882 330.010445 
L 66.411929 330.010445 
z
" clip-path="url(#pf7ca45a1be)" style="fill: #4682b4"/>
   </g>
   <g id="patch_41">
    <path d="M 86.039882 337.840827 
L 105.667835 337.840827 
L 105.667835 322.963102 
L 86.039882 322.963102 
z
" clip-path="url(#pf7ca45a1be)" style="fill: #4682b4"/>
   </g>
   <g id="patch_42">
    <path d="M 105.667835 337.840827 
L 125.295788 337.840827 
L 125.295788 294.251702 
L 105.667835 294.251702 
z
" clip-path="url(#pf7ca45a1be)" style="fill: #4682b4"/>
   </g>
   <g id="patch_43">
    <path d="M 125.295788 337.840827 
L 144.923741 337.840827 
L 144.923741 278.329926 
L 125.295788 278.329926 
z
" clip-path="url(#pf7ca45a1be)" style="fill: #4682b4"/>
   </g>
   <g id="patch_44">
    <path d="M 144.923741 337.840827 
L 164.551694 337.840827 
L 164.551694 270.238532 
L 144.923741 270.238532 
z
" clip-path="url(#pf7ca45a1be)" style="fill: #4682b4"/>
   </g>
   <g id="patch_45">
    <path d="M 164.551694 337.840827 
L 184.179647 337.840827 
L 184.179647 294.773728 
L 164.551694 294.773728 
z
" clip-path="url(#pf7ca45a1be)" style="fill: #4682b4"/>
   </g>
   <g id="patch_46">
    <path d="M 184.179647 337.840827 
L 203.8076 337.840827 
L 203.8076 319.569936 
L 184.179647 319.569936 
z
" clip-path="url(#pf7ca45a1be)" style="fill: #4682b4"/>
   </g>
   <g id="patch_47">
    <path d="M 203.8076 337.840827 
L 223.435553 337.840827 
L 223.435553 334.447662 
L 203.8076 334.447662 
z
" clip-path="url(#pf7ca45a1be)" style="fill: #4682b4"/>
   </g>
   <g id="patch_48">
    <path d="M 223.435553 337.840827 
L 243.063505 337.840827 
L 243.063505 337.057789 
L 223.435553 337.057789 
z
" clip-path="url(#pf7ca45a1be)" style="fill: #4682b4"/>
   </g>
   <g id="PolyCollection_5">
    <defs>
     <path id="m050482414b" d="M 118.095157 -241.056774 
L 118.095157 -166.159173 
L 171.844096 -166.159173 
L 171.844096 -241.056774 
L 171.844096 -241.056774 
L 118.095157 -241.056774 
z
" style="stroke: #008000; stroke-opacity: 0.3"/>
    </defs>
    <g clip-path="url(#pf7ca45a1be)">
     <use xlink:href="#m050482414b" x="0" y="504" style="fill: #008000; fill-opacity: 0.3; stroke: #008000; stroke-opacity: 0.3"/>
    </g>
   </g>
   <g id="PolyCollection_6">
    <defs>
     <path id="m46c97cafd2" d="M 117.10053 -237.141583 
L 117.10053 -166.159173 
L 173.027834 -166.159173 
L 173.027834 -237.141583 
L 173.027834 -237.141583 
L 117.10053 -237.141583 
z
" style="stroke: #ff0000; stroke-opacity: 0.4"/>
    </defs>
    <g clip-path="url(#pf7ca45a1be)">
     <use xlink:href="#m46c97cafd2" x="0" y="504" style="fill: #ff0000; fill-opacity: 0.4; stroke: #ff0000; stroke-opacity: 0.4"/>
    </g>
   </g>
   <g id="matplotlib.axis_5">
    <g id="xtick_12">
     <g id="line2d_23">
      <g>
       <use xlink:href="#m74564d831c" x="47.399586" y="337.840827" style="stroke: #000000; stroke-width: 0.8"/>
      </g>
     </g>
     <g id="text_26">
      <!-- 1.90 -->
      <g transform="translate(36.266774 352.439265) scale(0.1 -0.1)">
       <use xlink:href="#DejaVuSans-31"/>
       <use xlink:href="#DejaVuSans-2e" x="63.623047"/>
       <use xlink:href="#DejaVuSans-39" x="95.410156"/>
       <use xlink:href="#DejaVuSans-30" x="159.033203"/>
      </g>
     </g>
    </g>
    <g id="xtick_13">
     <g id="line2d_24">
      <g>
       <use xlink:href="#m74564d831c" x="79.821263" y="337.840827" style="stroke: #000000; stroke-width: 0.8"/>
      </g>
     </g>
     <g id="text_27">
      <!-- 1.95 -->
      <g transform="translate(68.68845 352.439265) scale(0.1 -0.1)">
       <use xlink:href="#DejaVuSans-31"/>
       <use xlink:href="#DejaVuSans-2e" x="63.623047"/>
       <use xlink:href="#DejaVuSans-39" x="95.410156"/>
       <use xlink:href="#DejaVuSans-35" x="159.033203"/>
      </g>
     </g>
    </g>
    <g id="xtick_14">
     <g id="line2d_25">
      <g>
       <use xlink:href="#m74564d831c" x="112.242939" y="337.840827" style="stroke: #000000; stroke-width: 0.8"/>
      </g>
     </g>
     <g id="text_28">
      <!-- 2.00 -->
      <g transform="translate(101.110127 352.439265) scale(0.1 -0.1)">
       <use xlink:href="#DejaVuSans-32"/>
       <use xlink:href="#DejaVuSans-2e" x="63.623047"/>
       <use xlink:href="#DejaVuSans-30" x="95.410156"/>
       <use xlink:href="#DejaVuSans-30" x="159.033203"/>
      </g>
     </g>
    </g>
    <g id="xtick_15">
     <g id="line2d_26">
      <g>
       <use xlink:href="#m74564d831c" x="144.664615" y="337.840827" style="stroke: #000000; stroke-width: 0.8"/>
      </g>
     </g>
     <g id="text_29">
      <!-- 2.05 -->
      <g transform="translate(133.531803 352.439265) scale(0.1 -0.1)">
       <use xlink:href="#DejaVuSans-32"/>
       <use xlink:href="#DejaVuSans-2e" x="63.623047"/>
       <use xlink:href="#DejaVuSans-30" x="95.410156"/>
       <use xlink:href="#DejaVuSans-35" x="159.033203"/>
      </g>
     </g>
    </g>
    <g id="xtick_16">
     <g id="line2d_27">
      <g>
       <use xlink:href="#m74564d831c" x="177.086292" y="337.840827" style="stroke: #000000; stroke-width: 0.8"/>
      </g>
     </g>
     <g id="text_30">
      <!-- 2.10 -->
      <g transform="translate(165.953479 352.439265) scale(0.1 -0.1)">
       <use xlink:href="#DejaVuSans-32"/>
       <use xlink:href="#DejaVuSans-2e" x="63.623047"/>
       <use xlink:href="#DejaVuSans-31" x="95.410156"/>
       <use xlink:href="#DejaVuSans-30" x="159.033203"/>
      </g>
     </g>
    </g>
    <g id="xtick_17">
     <g id="line2d_28">
      <g>
       <use xlink:href="#m74564d831c" x="209.507968" y="337.840827" style="stroke: #000000; stroke-width: 0.8"/>
      </g>
     </g>
     <g id="text_31">
      <!-- 2.15 -->
      <g transform="translate(198.375156 352.439265) scale(0.1 -0.1)">
       <use xlink:href="#DejaVuSans-32"/>
       <use xlink:href="#DejaVuSans-2e" x="63.623047"/>
       <use xlink:href="#DejaVuSans-31" x="95.410156"/>
       <use xlink:href="#DejaVuSans-35" x="159.033203"/>
      </g>
     </g>
    </g>
    <g id="xtick_18">
     <g id="line2d_29">
      <g>
       <use xlink:href="#m74564d831c" x="241.929645" y="337.840827" style="stroke: #000000; stroke-width: 0.8"/>
      </g>
     </g>
     <g id="text_32">
      <!-- 2.20 -->
      <g transform="translate(230.796832 352.439265) scale(0.1 -0.1)">
       <use xlink:href="#DejaVuSans-32"/>
       <use xlink:href="#DejaVuSans-2e" x="63.623047"/>
       <use xlink:href="#DejaVuSans-32" x="95.410156"/>
       <use xlink:href="#DejaVuSans-30" x="159.033203"/>
      </g>
     </g>
    </g>
    <g id="text_33">
     <!-- Best Fit Index -->
     <g transform="translate(111.185276 366.11739) scale(0.1 -0.1)">
      <defs>
       <path id="DejaVuSans-49" d="M 628 4666 
L 1259 4666 
L 1259 0 
L 628 0 
L 628 4666 
z
" transform="scale(0.015625)"/>
       <path id="DejaVuSans-78" d="M 3513 3500 
L 2247 1797 
L 3578 0 
L 2900 0 
L 1881 1375 
L 863 0 
L 184 0 
L 1544 1831 
L 300 3500 
L 978 3500 
L 1906 2253 
L 2834 3500 
L 3513 3500 
z
" transform="scale(0.015625)"/>
      </defs>
      <use xlink:href="#DejaVuSans-42"/>
      <use xlink:href="#DejaVuSans-65" x="68.603516"/>
      <use xlink:href="#DejaVuSans-73" x="130.126953"/>
      <use xlink:href="#DejaVuSans-74" x="182.226562"/>
      <use xlink:href="#DejaVuSans-20" x="221.435547"/>
      <use xlink:href="#DejaVuSans-46" x="253.222656"/>
      <use xlink:href="#DejaVuSans-69" x="303.492188"/>
      <use xlink:href="#DejaVuSans-74" x="331.275391"/>
      <use xlink:href="#DejaVuSans-20" x="370.484375"/>
      <use xlink:href="#DejaVuSans-49" x="402.271484"/>
      <use xlink:href="#DejaVuSans-6e" x="431.763672"/>
      <use xlink:href="#DejaVuSans-64" x="495.142578"/>
      <use xlink:href="#DejaVuSans-65" x="558.619141"/>
      <use xlink:href="#DejaVuSans-78" x="618.392578"/>
     </g>
    </g>
   </g>
   <g id="matplotlib.axis_6">
    <g id="ytick_6">
     <g id="line2d_30">
      <g>
       <use xlink:href="#ma8fc64b6ee" x="36.97" y="337.840827" style="stroke: #000000; stroke-width: 0.8"/>
      </g>
     </g>
     <g id="text_34">
      <!-- 0 -->
      <g transform="translate(23.6075 341.640046) scale(0.1 -0.1)">
       <use xlink:href="#DejaVuSans-30"/>
      </g>
     </g>
    </g>
    <g id="ytick_7">
     <g id="line2d_31">
      <g>
       <use xlink:href="#ma8fc64b6ee" x="36.97" y="285.638282" style="stroke: #000000; stroke-width: 0.8"/>
      </g>
     </g>
     <g id="text_35">
      <!-- 200 -->
      <g transform="translate(10.8825 289.437501) scale(0.1 -0.1)">
       <use xlink:href="#DejaVuSans-32"/>
       <use xlink:href="#DejaVuSans-30" x="63.623047"/>
       <use xlink:href="#DejaVuSans-30" x="127.246094"/>
      </g>
     </g>
    </g>
   </g>
   <g id="LineCollection_9">
    <path d="M 114.390879 324.790191 
L 173.923328 324.790191 
" clip-path="url(#pf7ca45a1be)" style="fill: none; stroke: #000080; stroke-width: 1.5"/>
   </g>
   <g id="LineCollection_10">
    <path d="M 144.969627 337.840827 
L 144.969627 262.943226 
" clip-path="url(#pf7ca45a1be)" style="fill: none; stroke-dasharray: 5.55,2.4; stroke-dashoffset: 0; stroke: #008000; stroke-width: 1.5"/>
   </g>
   <g id="LineCollection_11">
    <path d="M 145.064182 337.840827 
L 145.064182 266.858417 
" clip-path="url(#pf7ca45a1be)" style="fill: none; stroke: #ff0000; stroke-width: 1.5"/>
   </g>
   <g id="line2d_32">
    <g clip-path="url(#pf7ca45a1be)">
     <use xlink:href="#m17706e4b14" x="144.157104" y="324.790191" style="fill: #000080; stroke: #000080"/>
    </g>
   </g>
   <g id="patch_49">
    <path d="M 36.97 337.840827 
L 36.97 259.198346 
" style="fill: none; stroke: #000000; stroke-width: 0.8; stroke-linejoin: miter; stroke-linecap: square"/>
   </g>
   <g id="patch_50">
    <path d="M 253.158364 337.840827 
L 253.158364 259.198346 
" style="fill: none; stroke: #000000; stroke-width: 0.8; stroke-linejoin: miter; stroke-linecap: square"/>
   </g>
   <g id="patch_51">
    <path d="M 36.97 337.840827 
L 253.158364 337.840827 
" style="fill: none; stroke: #000000; stroke-width: 0.8; stroke-linejoin: miter; stroke-linecap: square"/>
   </g>
   <g id="patch_52">
    <path d="M 36.97 259.198346 
L 253.158364 259.198346 
" style="fill: none; stroke: #000000; stroke-width: 0.8; stroke-linejoin: miter; stroke-linecap: square"/>
   </g>
   <g id="legend_3">
    <g id="patch_53">
     <path d="M 260.158364 333.244743 
L 346.358364 333.244743 
Q 348.358364 333.244743 348.358364 331.244743 
L 348.358364 265.79443 
Q 348.358364 263.79443 346.358364 263.79443 
L 260.158364 263.79443 
Q 258.158364 263.79443 258.158364 265.79443 
L 258.158364 331.244743 
Q 258.158364 333.244743 260.158364 333.244743 
z
" style="fill: #ffffff; opacity: 0.8; stroke: #cccccc; stroke-linejoin: miter"/>
    </g>
    <g id="patch_54">
     <path d="M 262.158364 282.031618 
L 282.158364 282.031618 
L 282.158364 275.031618 
L 262.158364 275.031618 
z
" style="fill: #008000; fill-opacity: 0.3; stroke: #008000; stroke-opacity: 0.3; stroke-linejoin: miter"/>
    </g>
    <g id="text_36">
     <!-- Nuisance:  -->
     <g transform="translate(290.158364 275.392868) scale(0.1 -0.1)">
      <use xlink:href="#DejaVuSans-4e"/>
      <use xlink:href="#DejaVuSans-75" x="74.804688"/>
      <use xlink:href="#DejaVuSans-69" x="138.183594"/>
      <use xlink:href="#DejaVuSans-73" x="165.966797"/>
      <use xlink:href="#DejaVuSans-61" x="218.066406"/>
      <use xlink:href="#DejaVuSans-6e" x="279.345703"/>
      <use xlink:href="#DejaVuSans-63" x="342.724609"/>
      <use xlink:href="#DejaVuSans-65" x="397.705078"/>
      <use xlink:href="#DejaVuSans-3a" x="459.228516"/>
      <use xlink:href="#DejaVuSans-20" x="492.919922"/>
     </g>
     <!--  1$\sigma$: 64.4% -->
     <g transform="translate(290.158364 286.59068) scale(0.1 -0.1)">
      <use xlink:href="#DejaVuSans-20" transform="translate(0 0.78125)"/>
      <use xlink:href="#DejaVuSans-31" transform="translate(31.787109 0.78125)"/>
      <use xlink:href="#DejaVuSans-Oblique-3c3" transform="translate(95.410156 0.78125)"/>
      <use xlink:href="#DejaVuSans-3a" transform="translate(158.789062 0.78125)"/>
      <use xlink:href="#DejaVuSans-20" transform="translate(192.480469 0.78125)"/>
      <use xlink:href="#DejaVuSans-36" transform="translate(224.267578 0.78125)"/>
      <use xlink:href="#DejaVuSans-34" transform="translate(287.890625 0.78125)"/>
      <use xlink:href="#DejaVuSans-2e" transform="translate(351.513672 0.78125)"/>
      <use xlink:href="#DejaVuSans-34" transform="translate(383.300781 0.78125)"/>
      <use xlink:href="#DejaVuSans-25" transform="translate(446.923828 0.78125)"/>
     </g>
    </g>
    <g id="patch_55">
     <path d="M 262.158364 307.907555 
L 282.158364 307.907555 
L 282.158364 300.907555 
L 262.158364 300.907555 
z
" style="fill: #ff0000; fill-opacity: 0.4; stroke: #ff0000; stroke-opacity: 0.4; stroke-linejoin: miter"/>
    </g>
    <g id="text_37">
     <!-- Standard:  -->
     <g transform="translate(290.158364 301.268805) scale(0.1 -0.1)">
      <use xlink:href="#DejaVuSans-53"/>
      <use xlink:href="#DejaVuSans-74" x="63.476562"/>
      <use xlink:href="#DejaVuSans-61" x="102.685547"/>
      <use xlink:href="#DejaVuSans-6e" x="163.964844"/>
      <use xlink:href="#DejaVuSans-64" x="227.34375"/>
      <use xlink:href="#DejaVuSans-61" x="290.820312"/>
      <use xlink:href="#DejaVuSans-72" x="352.099609"/>
      <use xlink:href="#DejaVuSans-64" x="391.462891"/>
      <use xlink:href="#DejaVuSans-3a" x="454.939453"/>
      <use xlink:href="#DejaVuSans-20" x="488.630859"/>
     </g>
     <!--  1$\sigma$: 66.3% -->
     <g transform="translate(290.158364 312.466618) scale(0.1 -0.1)">
      <use xlink:href="#DejaVuSans-20" transform="translate(0 0.78125)"/>
      <use xlink:href="#DejaVuSans-31" transform="translate(31.787109 0.78125)"/>
      <use xlink:href="#DejaVuSans-Oblique-3c3" transform="translate(95.410156 0.78125)"/>
      <use xlink:href="#DejaVuSans-3a" transform="translate(158.789062 0.78125)"/>
      <use xlink:href="#DejaVuSans-20" transform="translate(192.480469 0.78125)"/>
      <use xlink:href="#DejaVuSans-36" transform="translate(224.267578 0.78125)"/>
      <use xlink:href="#DejaVuSans-36" transform="translate(287.890625 0.78125)"/>
      <use xlink:href="#DejaVuSans-2e" transform="translate(351.513672 0.78125)"/>
      <use xlink:href="#DejaVuSans-33" transform="translate(383.300781 0.78125)"/>
      <use xlink:href="#DejaVuSans-25" transform="translate(446.923828 0.78125)"/>
     </g>
    </g>
    <g id="LineCollection_12">
     <path d="M 267.158364 323.644743 
L 277.158364 323.644743 
" style="fill: none; stroke: #000080; stroke-width: 1.5"/>
    </g>
    <g id="line2d_33"/>
    <g id="line2d_34">
     <g>
      <use xlink:href="#m17706e4b14" x="272.158364" y="323.644743" style="fill: #000080; stroke: #000080"/>
     </g>
    </g>
    <g id="text_38">
     <!-- $\mu$, $\sigma$ -->
     <g transform="translate(290.158364 327.144743) scale(0.1 -0.1)">
      <use xlink:href="#DejaVuSans-Oblique-3bc" transform="translate(0 0.265625)"/>
      <use xlink:href="#DejaVuSans-2c" transform="translate(63.623047 0.265625)"/>
      <use xlink:href="#DejaVuSans-20" transform="translate(95.410156 0.265625)"/>
      <use xlink:href="#DejaVuSans-Oblique-3c3" transform="translate(127.197266 0.265625)"/>
     </g>
    </g>
   </g>
  </g>
  <g id="axes_4">
   <g id="patch_56">
    <path d="M 36.97 462.04 
L 253.158364 462.04 
L 253.158364 383.397519 
L 36.97 383.397519 
z
" style="fill: #ffffff"/>
   </g>
   <g id="patch_57">
    <path d="M 67.263515 462.04 
L 84.967787 462.04 
L 84.967787 460.336814 
L 67.263515 460.336814 
z
" clip-path="url(#pd5488f115b)" style="fill: #4682b4"/>
   </g>
   <g id="patch_58">
    <path d="M 84.967787 462.04 
L 102.672058 462.04 
L 102.672058 450.685427 
L 84.967787 450.685427 
z
" clip-path="url(#pd5488f115b)" style="fill: #4682b4"/>
   </g>
   <g id="patch_59">
    <path d="M 102.672058 462.04 
L 120.376329 462.04 
L 120.376329 426.840824 
L 102.672058 426.840824 
z
" clip-path="url(#pd5488f115b)" style="fill: #4682b4"/>
   </g>
   <g id="patch_60">
    <path d="M 120.376329 462.04 
L 138.080601 462.04 
L 138.080601 396.467342 
L 120.376329 396.467342 
z
" clip-path="url(#pd5488f115b)" style="fill: #4682b4"/>
   </g>
   <g id="patch_61">
    <path d="M 138.080601 462.04 
L 155.784872 462.04 
L 155.784872 394.764156 
L 138.080601 394.764156 
z
" clip-path="url(#pd5488f115b)" style="fill: #4682b4"/>
   </g>
   <g id="patch_62">
    <path d="M 155.784872 462.04 
L 173.489143 462.04 
L 173.489143 412.931472 
L 155.784872 412.931472 
z
" clip-path="url(#pd5488f115b)" style="fill: #4682b4"/>
   </g>
   <g id="patch_63">
    <path d="M 173.489143 462.04 
L 191.193415 462.04 
L 191.193415 427.408553 
L 173.489143 427.408553 
z
" clip-path="url(#pd5488f115b)" style="fill: #4682b4"/>
   </g>
   <g id="patch_64">
    <path d="M 191.193415 462.04 
L 208.897686 462.04 
L 208.897686 450.117699 
L 191.193415 450.117699 
z
" clip-path="url(#pd5488f115b)" style="fill: #4682b4"/>
   </g>
   <g id="patch_65">
    <path d="M 208.897686 462.04 
L 226.601957 462.04 
L 226.601957 457.782035 
L 208.897686 457.782035 
z
" clip-path="url(#pd5488f115b)" style="fill: #4682b4"/>
   </g>
   <g id="patch_66">
    <path d="M 226.601957 462.04 
L 244.306229 462.04 
L 244.306229 459.485221 
L 226.601957 459.485221 
z
" clip-path="url(#pd5488f115b)" style="fill: #4682b4"/>
   </g>
   <g id="PolyCollection_7">
    <defs>
     <path id="m9be6a6f965" d="M 118.829904 -116.857601 
L 118.829904 -41.96 
L 171.556708 -41.96 
L 171.556708 -116.857601 
L 171.556708 -116.857601 
L 118.829904 -116.857601 
z
" style="stroke: #008000; stroke-opacity: 0.3"/>
    </defs>
    <g clip-path="url(#pd5488f115b)">
     <use xlink:href="#m9be6a6f965" x="0" y="504" style="fill: #008000; fill-opacity: 0.3; stroke: #008000; stroke-opacity: 0.3"/>
    </g>
   </g>
   <g id="PolyCollection_8">
    <defs>
     <path id="mcde3b6e716" d="M 115.897271 -112.599636 
L 115.897271 -41.96 
L 174.231094 -41.96 
L 174.231094 -112.599636 
L 174.231094 -112.599636 
L 115.897271 -112.599636 
z
" style="stroke: #ff0000; stroke-opacity: 0.4"/>
    </defs>
    <g clip-path="url(#pd5488f115b)">
     <use xlink:href="#mcde3b6e716" x="0" y="504" style="fill: #ff0000; fill-opacity: 0.4; stroke: #ff0000; stroke-opacity: 0.4"/>
    </g>
   </g>
   <g id="matplotlib.axis_7">
    <g id="xtick_19">
     <g id="line2d_35">
      <g>
       <use xlink:href="#m74564d831c" x="56.336266" y="462.04" style="stroke: #000000; stroke-width: 0.8"/>
      </g>
     </g>
     <g id="text_39">
      <!-- 0.04 -->
      <g transform="translate(45.203454 476.638438) scale(0.1 -0.1)">
       <use xlink:href="#DejaVuSans-30"/>
       <use xlink:href="#DejaVuSans-2e" x="63.623047"/>
       <use xlink:href="#DejaVuSans-30" x="95.410156"/>
       <use xlink:href="#DejaVuSans-34" x="159.033203"/>
      </g>
     </g>
    </g>
    <g id="xtick_20">
     <g id="line2d_36">
      <g>
       <use xlink:href="#m74564d831c" x="92.699105" y="462.04" style="stroke: #000000; stroke-width: 0.8"/>
      </g>
     </g>
     <g id="text_40">
      <!-- 0.06 -->
      <g transform="translate(81.566292 476.638438) scale(0.1 -0.1)">
       <use xlink:href="#DejaVuSans-30"/>
       <use xlink:href="#DejaVuSans-2e" x="63.623047"/>
       <use xlink:href="#DejaVuSans-30" x="95.410156"/>
       <use xlink:href="#DejaVuSans-36" x="159.033203"/>
      </g>
     </g>
    </g>
    <g id="xtick_21">
     <g id="line2d_37">
      <g>
       <use xlink:href="#m74564d831c" x="129.061943" y="462.04" style="stroke: #000000; stroke-width: 0.8"/>
      </g>
     </g>
     <g id="text_41">
      <!-- 0.08 -->
      <g transform="translate(117.92913 476.638438) scale(0.1 -0.1)">
       <use xlink:href="#DejaVuSans-30"/>
       <use xlink:href="#DejaVuSans-2e" x="63.623047"/>
       <use xlink:href="#DejaVuSans-30" x="95.410156"/>
       <use xlink:href="#DejaVuSans-38" x="159.033203"/>
      </g>
     </g>
    </g>
    <g id="xtick_22">
     <g id="line2d_38">
      <g>
       <use xlink:href="#m74564d831c" x="165.424781" y="462.04" style="stroke: #000000; stroke-width: 0.8"/>
      </g>
     </g>
     <g id="text_42">
      <!-- 0.10 -->
      <g transform="translate(154.291969 476.638438) scale(0.1 -0.1)">
       <use xlink:href="#DejaVuSans-30"/>
       <use xlink:href="#DejaVuSans-2e" x="63.623047"/>
       <use xlink:href="#DejaVuSans-31" x="95.410156"/>
       <use xlink:href="#DejaVuSans-30" x="159.033203"/>
      </g>
     </g>
    </g>
    <g id="xtick_23">
     <g id="line2d_39">
      <g>
       <use xlink:href="#m74564d831c" x="201.787619" y="462.04" style="stroke: #000000; stroke-width: 0.8"/>
      </g>
     </g>
     <g id="text_43">
      <!-- 0.12 -->
      <g transform="translate(190.654807 476.638438) scale(0.1 -0.1)">
       <use xlink:href="#DejaVuSans-30"/>
       <use xlink:href="#DejaVuSans-2e" x="63.623047"/>
       <use xlink:href="#DejaVuSans-31" x="95.410156"/>
       <use xlink:href="#DejaVuSans-32" x="159.033203"/>
      </g>
     </g>
    </g>
    <g id="xtick_24">
     <g id="line2d_40">
      <g>
       <use xlink:href="#m74564d831c" x="238.150458" y="462.04" style="stroke: #000000; stroke-width: 0.8"/>
      </g>
     </g>
     <g id="text_44">
      <!-- 0.14 -->
      <g transform="translate(227.017645 476.638438) scale(0.1 -0.1)">
       <use xlink:href="#DejaVuSans-30"/>
       <use xlink:href="#DejaVuSans-2e" x="63.623047"/>
       <use xlink:href="#DejaVuSans-31" x="95.410156"/>
       <use xlink:href="#DejaVuSans-34" x="159.033203"/>
      </g>
     </g>
    </g>
    <g id="text_45">
     <!-- Best Fit Lambda -->
     <g transform="translate(104.81887 490.316563) scale(0.1 -0.1)">
      <defs>
       <path id="DejaVuSans-4c" d="M 628 4666 
L 1259 4666 
L 1259 531 
L 3531 531 
L 3531 0 
L 628 0 
L 628 4666 
z
" transform="scale(0.015625)"/>
       <path id="DejaVuSans-62" d="M 3116 1747 
Q 3116 2381 2855 2742 
Q 2594 3103 2138 3103 
Q 1681 3103 1420 2742 
Q 1159 2381 1159 1747 
Q 1159 1113 1420 752 
Q 1681 391 2138 391 
Q 2594 391 2855 752 
Q 3116 1113 3116 1747 
z
M 1159 2969 
Q 1341 3281 1617 3432 
Q 1894 3584 2278 3584 
Q 2916 3584 3314 3078 
Q 3713 2572 3713 1747 
Q 3713 922 3314 415 
Q 2916 -91 2278 -91 
Q 1894 -91 1617 61 
Q 1341 213 1159 525 
L 1159 0 
L 581 0 
L 581 4863 
L 1159 4863 
L 1159 2969 
z
" transform="scale(0.015625)"/>
      </defs>
      <use xlink:href="#DejaVuSans-42"/>
      <use xlink:href="#DejaVuSans-65" x="68.603516"/>
      <use xlink:href="#DejaVuSans-73" x="130.126953"/>
      <use xlink:href="#DejaVuSans-74" x="182.226562"/>
      <use xlink:href="#DejaVuSans-20" x="221.435547"/>
      <use xlink:href="#DejaVuSans-46" x="253.222656"/>
      <use xlink:href="#DejaVuSans-69" x="303.492188"/>
      <use xlink:href="#DejaVuSans-74" x="331.275391"/>
      <use xlink:href="#DejaVuSans-20" x="370.484375"/>
      <use xlink:href="#DejaVuSans-4c" x="402.271484"/>
      <use xlink:href="#DejaVuSans-61" x="457.984375"/>
      <use xlink:href="#DejaVuSans-6d" x="519.263672"/>
      <use xlink:href="#DejaVuSans-62" x="616.675781"/>
      <use xlink:href="#DejaVuSans-64" x="680.152344"/>
      <use xlink:href="#DejaVuSans-61" x="743.628906"/>
     </g>
    </g>
   </g>
   <g id="matplotlib.axis_8">
    <g id="ytick_8">
     <g id="line2d_41">
      <g>
       <use xlink:href="#ma8fc64b6ee" x="36.97" y="462.04" style="stroke: #000000; stroke-width: 0.8"/>
      </g>
     </g>
     <g id="text_46">
      <!-- 0 -->
      <g transform="translate(23.6075 465.839219) scale(0.1 -0.1)">
       <use xlink:href="#DejaVuSans-30"/>
      </g>
     </g>
    </g>
    <g id="ytick_9">
     <g id="line2d_42">
      <g>
       <use xlink:href="#ma8fc64b6ee" x="36.97" y="433.653568" style="stroke: #000000; stroke-width: 0.8"/>
      </g>
     </g>
     <g id="text_47">
      <!-- 100 -->
      <g transform="translate(10.8825 437.452787) scale(0.1 -0.1)">
       <use xlink:href="#DejaVuSans-31"/>
       <use xlink:href="#DejaVuSans-30" x="63.623047"/>
       <use xlink:href="#DejaVuSans-30" x="127.246094"/>
      </g>
     </g>
    </g>
    <g id="ytick_10">
     <g id="line2d_43">
      <g>
       <use xlink:href="#ma8fc64b6ee" x="36.97" y="405.267136" style="stroke: #000000; stroke-width: 0.8"/>
      </g>
     </g>
     <g id="text_48">
      <!-- 200 -->
      <g transform="translate(10.8825 409.066355) scale(0.1 -0.1)">
       <use xlink:href="#DejaVuSans-32"/>
       <use xlink:href="#DejaVuSans-30" x="63.623047"/>
       <use xlink:href="#DejaVuSans-30" x="127.246094"/>
      </g>
     </g>
    </g>
   </g>
   <g id="LineCollection_13">
    <path d="M 118.643505 447.846784 
L 176.135711 447.846784 
" clip-path="url(#pd5488f115b)" style="fill: none; stroke: #000080; stroke-width: 1.5"/>
   </g>
   <g id="LineCollection_14">
    <path d="M 145.193306 462.04 
L 145.193306 387.142399 
" clip-path="url(#pd5488f115b)" style="fill: none; stroke-dasharray: 5.55,2.4; stroke-dashoffset: 0; stroke: #008000; stroke-width: 1.5"/>
   </g>
   <g id="LineCollection_15">
    <path d="M 145.064182 462.04 
L 145.064182 391.400364 
" clip-path="url(#pd5488f115b)" style="fill: none; stroke: #ff0000; stroke-width: 1.5"/>
   </g>
   <g id="line2d_44">
    <g clip-path="url(#pd5488f115b)">
     <use xlink:href="#m17706e4b14" x="147.389608" y="447.846784" style="fill: #000080; stroke: #000080"/>
    </g>
   </g>
   <g id="patch_67">
    <path d="M 36.97 462.04 
L 36.97 383.397519 
" style="fill: none; stroke: #000000; stroke-width: 0.8; stroke-linejoin: miter; stroke-linecap: square"/>
   </g>
   <g id="patch_68">
    <path d="M 253.158364 462.04 
L 253.158364 383.397519 
" style="fill: none; stroke: #000000; stroke-width: 0.8; stroke-linejoin: miter; stroke-linecap: square"/>
   </g>
   <g id="patch_69">
    <path d="M 36.97 462.04 
L 253.158364 462.04 
" style="fill: none; stroke: #000000; stroke-width: 0.8; stroke-linejoin: miter; stroke-linecap: square"/>
   </g>
   <g id="patch_70">
    <path d="M 36.97 383.397519 
L 253.158364 383.397519 
" style="fill: none; stroke: #000000; stroke-width: 0.8; stroke-linejoin: miter; stroke-linecap: square"/>
   </g>
   <g id="legend_4">
    <g id="patch_71">
     <path d="M 260.158364 457.443916 
L 346.358364 457.443916 
Q 348.358364 457.443916 348.358364 455.443916 
L 348.358364 389.993603 
Q 348.358364 387.993603 346.358364 387.993603 
L 260.158364 387.993603 
Q 258.158364 387.993603 258.158364 389.993603 
L 258.158364 455.443916 
Q 258.158364 457.443916 260.158364 457.443916 
z
" style="fill: #ffffff; opacity: 0.8; stroke: #cccccc; stroke-linejoin: miter"/>
    </g>
    <g id="patch_72">
     <path d="M 262.158364 406.230791 
L 282.158364 406.230791 
L 282.158364 399.230791 
L 262.158364 399.230791 
z
" style="fill: #008000; fill-opacity: 0.3; stroke: #008000; stroke-opacity: 0.3; stroke-linejoin: miter"/>
    </g>
    <g id="text_49">
     <!-- Nuisance:  -->
     <g transform="translate(290.158364 399.592041) scale(0.1 -0.1)">
      <use xlink:href="#DejaVuSans-4e"/>
      <use xlink:href="#DejaVuSans-75" x="74.804688"/>
      <use xlink:href="#DejaVuSans-69" x="138.183594"/>
      <use xlink:href="#DejaVuSans-73" x="165.966797"/>
      <use xlink:href="#DejaVuSans-61" x="218.066406"/>
      <use xlink:href="#DejaVuSans-6e" x="279.345703"/>
      <use xlink:href="#DejaVuSans-63" x="342.724609"/>
      <use xlink:href="#DejaVuSans-65" x="397.705078"/>
      <use xlink:href="#DejaVuSans-3a" x="459.228516"/>
      <use xlink:href="#DejaVuSans-20" x="492.919922"/>
     </g>
     <!--  1$\sigma$: 63.3% -->
     <g transform="translate(290.158364 410.789853) scale(0.1 -0.1)">
      <use xlink:href="#DejaVuSans-20" transform="translate(0 0.78125)"/>
      <use xlink:href="#DejaVuSans-31" transform="translate(31.787109 0.78125)"/>
      <use xlink:href="#DejaVuSans-Oblique-3c3" transform="translate(95.410156 0.78125)"/>
      <use xlink:href="#DejaVuSans-3a" transform="translate(158.789062 0.78125)"/>
      <use xlink:href="#DejaVuSans-20" transform="translate(192.480469 0.78125)"/>
      <use xlink:href="#DejaVuSans-36" transform="translate(224.267578 0.78125)"/>
      <use xlink:href="#DejaVuSans-33" transform="translate(287.890625 0.78125)"/>
      <use xlink:href="#DejaVuSans-2e" transform="translate(351.513672 0.78125)"/>
      <use xlink:href="#DejaVuSans-33" transform="translate(383.300781 0.78125)"/>
      <use xlink:href="#DejaVuSans-25" transform="translate(446.923828 0.78125)"/>
     </g>
    </g>
    <g id="patch_73">
     <path d="M 262.158364 432.106728 
L 282.158364 432.106728 
L 282.158364 425.106728 
L 262.158364 425.106728 
z
" style="fill: #ff0000; fill-opacity: 0.4; stroke: #ff0000; stroke-opacity: 0.4; stroke-linejoin: miter"/>
    </g>
    <g id="text_50">
     <!-- Standard:  -->
     <g transform="translate(290.158364 425.467978) scale(0.1 -0.1)">
      <use xlink:href="#DejaVuSans-53"/>
      <use xlink:href="#DejaVuSans-74" x="63.476562"/>
      <use xlink:href="#DejaVuSans-61" x="102.685547"/>
      <use xlink:href="#DejaVuSans-6e" x="163.964844"/>
      <use xlink:href="#DejaVuSans-64" x="227.34375"/>
      <use xlink:href="#DejaVuSans-61" x="290.820312"/>
      <use xlink:href="#DejaVuSans-72" x="352.099609"/>
      <use xlink:href="#DejaVuSans-64" x="391.462891"/>
      <use xlink:href="#DejaVuSans-3a" x="454.939453"/>
      <use xlink:href="#DejaVuSans-20" x="488.630859"/>
     </g>
     <!--  1$\sigma$: 68.4% -->
     <g transform="translate(290.158364 436.665791) scale(0.1 -0.1)">
      <use xlink:href="#DejaVuSans-20" transform="translate(0 0.78125)"/>
      <use xlink:href="#DejaVuSans-31" transform="translate(31.787109 0.78125)"/>
      <use xlink:href="#DejaVuSans-Oblique-3c3" transform="translate(95.410156 0.78125)"/>
      <use xlink:href="#DejaVuSans-3a" transform="translate(158.789062 0.78125)"/>
      <use xlink:href="#DejaVuSans-20" transform="translate(192.480469 0.78125)"/>
      <use xlink:href="#DejaVuSans-36" transform="translate(224.267578 0.78125)"/>
      <use xlink:href="#DejaVuSans-38" transform="translate(287.890625 0.78125)"/>
      <use xlink:href="#DejaVuSans-2e" transform="translate(351.513672 0.78125)"/>
      <use xlink:href="#DejaVuSans-34" transform="translate(383.300781 0.78125)"/>
      <use xlink:href="#DejaVuSans-25" transform="translate(446.923828 0.78125)"/>
     </g>
    </g>
    <g id="LineCollection_16">
     <path d="M 267.158364 447.843916 
L 277.158364 447.843916 
" style="fill: none; stroke: #000080; stroke-width: 1.5"/>
    </g>
    <g id="line2d_45"/>
    <g id="line2d_46">
     <g>
      <use xlink:href="#m17706e4b14" x="272.158364" y="447.843916" style="fill: #000080; stroke: #000080"/>
     </g>
    </g>
    <g id="text_51">
     <!-- $\mu$, $\sigma$ -->
     <g transform="translate(290.158364 451.343916) scale(0.1 -0.1)">
      <use xlink:href="#DejaVuSans-Oblique-3bc" transform="translate(0 0.265625)"/>
      <use xlink:href="#DejaVuSans-2c" transform="translate(63.623047 0.265625)"/>
      <use xlink:href="#DejaVuSans-20" transform="translate(95.410156 0.265625)"/>
      <use xlink:href="#DejaVuSans-Oblique-3c3" transform="translate(127.197266 0.265625)"/>
     </g>
    </g>
   </g>
  </g>
 </g>
 <defs>
  <clipPath id="p95f951fb15">
   <rect x="36.97" y="10.8" width="216.188364" height="78.642481"/>
  </clipPath>
  <clipPath id="p04af853b2c">
   <rect x="36.97" y="134.999173" width="216.188364" height="78.642481"/>
  </clipPath>
  <clipPath id="pf7ca45a1be">
   <rect x="36.97" y="259.198346" width="216.188364" height="78.642481"/>
  </clipPath>
  <clipPath id="pd5488f115b">
   <rect x="36.97" y="383.397519" width="216.188364" height="78.642481"/>
  </clipPath>
 </defs>
</svg>
