<?xml version="1.0" encoding="utf-8" standalone="no"?>
<!DOCTYPE svg PUBLIC "-//W3C//DTD SVG 1.1//EN"
  "http://www.w3.org/Graphics/SVG/1.1/DTD/svg11.dtd">
<svg xmlns:xlink="http://www.w3.org/1999/xlink" width="576pt" height="168pt" viewBox="0 0 576 168" xmlns="http://www.w3.org/2000/svg" version="1.1">
 <metadata>
  <rdf:RDF xmlns:dc="http://purl.org/dc/elements/1.1/" xmlns:cc="http://creativecommons.org/ns#" xmlns:rdf="http://www.w3.org/1999/02/22-rdf-syntax-ns#">
   <cc:Work>
    <dc:type rdf:resource="http://purl.org/dc/dcmitype/StillImage"/>
    <dc:date>2023-03-09T17:33:03.234908</dc:date>
    <dc:format>image/svg+xml</dc:format>
    <dc:creator>
     <cc:Agent>
      <dc:title>Matplotlib v3.6.2, https://matplotlib.org/</dc:title>
     </cc:Agent>
    </dc:creator>
   </cc:Work>
  </rdf:RDF>
 </metadata>
 <defs>
  <style type="text/css">*{stroke-linejoin: round; stroke-linecap: butt}</style>
 </defs>
 <g id="figure_1">
  <g id="patch_1">
   <path d="M 0 168 
L 576 168 
L 576 0 
L 0 0 
z
" style="fill: #ffffff"/>
  </g>
  <g id="axes_1">
   <g id="patch_2">
    <path d="M 24.19 126.04 
L 276.409605 126.04 
L 276.409605 25.44 
L 24.19 25.44 
z
" style="fill: #ffffff"/>
   </g>
   <g id="patch_3">
    <path d="M 61.250491 126.04 
L 68.080939 126.04 
L 68.080939 117.959679 
L 61.250491 117.959679 
z
" clip-path="url(#pd3897915d3)" style="fill: #4682b4"/>
   </g>
   <g id="patch_4">
    <path d="M 68.080939 126.04 
L 74.911387 126.04 
L 74.911387 122.577005 
L 68.080939 122.577005 
z
" clip-path="url(#pd3897915d3)" style="fill: #4682b4"/>
   </g>
   <g id="patch_5">
    <path d="M 74.911387 126.04 
L 81.741835 126.04 
L 81.741835 122.577005 
L 74.911387 122.577005 
z
" clip-path="url(#pd3897915d3)" style="fill: #4682b4"/>
   </g>
   <g id="patch_6">
    <path d="M 81.741835 126.04 
L 88.572283 126.04 
L 88.572283 115.651015 
L 81.741835 115.651015 
z
" clip-path="url(#pd3897915d3)" style="fill: #4682b4"/>
   </g>
   <g id="patch_7">
    <path d="M 88.572283 126.04 
L 95.402731 126.04 
L 95.402731 119.11401 
L 88.572283 119.11401 
z
" clip-path="url(#pd3897915d3)" style="fill: #4682b4"/>
   </g>
   <g id="patch_8">
    <path d="M 95.402731 126.04 
L 102.233179 126.04 
L 102.233179 106.416363 
L 95.402731 106.416363 
z
" clip-path="url(#pd3897915d3)" style="fill: #4682b4"/>
   </g>
   <g id="patch_9">
    <path d="M 102.233179 126.04 
L 109.063627 126.04 
L 109.063627 90.25572 
L 102.233179 90.25572 
z
" clip-path="url(#pd3897915d3)" style="fill: #4682b4"/>
   </g>
   <g id="patch_10">
    <path d="M 109.063627 126.04 
L 115.894075 126.04 
L 115.894075 93.718715 
L 109.063627 93.718715 
z
" clip-path="url(#pd3897915d3)" style="fill: #4682b4"/>
   </g>
   <g id="patch_11">
    <path d="M 115.894075 126.04 
L 122.724523 126.04 
L 122.724523 77.558072 
L 115.894075 77.558072 
z
" clip-path="url(#pd3897915d3)" style="fill: #4682b4"/>
   </g>
   <g id="patch_12">
    <path d="M 122.724523 126.04 
L 129.554971 126.04 
L 129.554971 53.317108 
L 122.724523 53.317108 
z
" clip-path="url(#pd3897915d3)" style="fill: #4682b4"/>
   </g>
   <g id="patch_13">
    <path d="M 129.554971 126.04 
L 136.385419 126.04 
L 136.385419 37.156466 
L 129.554971 37.156466 
z
" clip-path="url(#pd3897915d3)" style="fill: #4682b4"/>
   </g>
   <g id="patch_14">
    <path d="M 136.385419 126.04 
L 143.215867 126.04 
L 143.215867 44.082456 
L 136.385419 44.082456 
z
" clip-path="url(#pd3897915d3)" style="fill: #4682b4"/>
   </g>
   <g id="patch_15">
    <path d="M 143.215867 126.04 
L 150.046316 126.04 
L 150.046316 40.619461 
L 143.215867 40.619461 
z
" clip-path="url(#pd3897915d3)" style="fill: #4682b4"/>
   </g>
   <g id="patch_16">
    <path d="M 150.046316 126.04 
L 156.876764 126.04 
L 156.876764 34.847803 
L 150.046316 34.847803 
z
" clip-path="url(#pd3897915d3)" style="fill: #4682b4"/>
   </g>
   <g id="patch_17">
    <path d="M 156.876764 126.04 
L 163.707212 126.04 
L 163.707212 30.230476 
L 156.876764 30.230476 
z
" clip-path="url(#pd3897915d3)" style="fill: #4682b4"/>
   </g>
   <g id="patch_18">
    <path d="M 163.707212 126.04 
L 170.53766 126.04 
L 170.53766 47.54545 
L 163.707212 47.54545 
z
" clip-path="url(#pd3897915d3)" style="fill: #4682b4"/>
   </g>
   <g id="patch_19">
    <path d="M 170.53766 126.04 
L 177.368108 126.04 
L 177.368108 49.854114 
L 170.53766 49.854114 
z
" clip-path="url(#pd3897915d3)" style="fill: #4682b4"/>
   </g>
   <g id="patch_20">
    <path d="M 177.368108 126.04 
L 184.198556 126.04 
L 184.198556 72.940746 
L 177.368108 72.940746 
z
" clip-path="url(#pd3897915d3)" style="fill: #4682b4"/>
   </g>
   <g id="patch_21">
    <path d="M 184.198556 126.04 
L 191.029004 126.04 
L 191.029004 83.32973 
L 184.198556 83.32973 
z
" clip-path="url(#pd3897915d3)" style="fill: #4682b4"/>
   </g>
   <g id="patch_22">
    <path d="M 191.029004 126.04 
L 197.859452 126.04 
L 197.859452 94.873046 
L 191.029004 94.873046 
z
" clip-path="url(#pd3897915d3)" style="fill: #4682b4"/>
   </g>
   <g id="patch_23">
    <path d="M 197.859452 126.04 
L 204.6899 126.04 
L 204.6899 94.873046 
L 197.859452 94.873046 
z
" clip-path="url(#pd3897915d3)" style="fill: #4682b4"/>
   </g>
   <g id="patch_24">
    <path d="M 204.6899 126.04 
L 211.520348 126.04 
L 211.520348 111.033689 
L 204.6899 111.033689 
z
" clip-path="url(#pd3897915d3)" style="fill: #4682b4"/>
   </g>
   <g id="patch_25">
    <path d="M 211.520348 126.04 
L 218.350796 126.04 
L 218.350796 115.651015 
L 211.520348 115.651015 
z
" clip-path="url(#pd3897915d3)" style="fill: #4682b4"/>
   </g>
   <g id="patch_26">
    <path d="M 218.350796 126.04 
L 225.181244 126.04 
L 225.181244 119.11401 
L 218.350796 119.11401 
z
" clip-path="url(#pd3897915d3)" style="fill: #4682b4"/>
   </g>
   <g id="patch_27">
    <path d="M 225.181244 126.04 
L 232.011692 126.04 
L 232.011692 122.577005 
L 225.181244 122.577005 
z
" clip-path="url(#pd3897915d3)" style="fill: #4682b4"/>
   </g>
   <g id="patch_28">
    <path d="M 232.011692 126.04 
L 238.84214 126.04 
L 238.84214 123.731337 
L 232.011692 123.731337 
z
" clip-path="url(#pd3897915d3)" style="fill: #4682b4"/>
   </g>
   <g id="patch_29">
    <path d="M 238.84214 126.04 
L 245.672589 126.04 
L 245.672589 126.04 
L 238.84214 126.04 
z
" clip-path="url(#pd3897915d3)" style="fill: #4682b4"/>
   </g>
   <g id="patch_30">
    <path d="M 245.672589 126.04 
L 252.503037 126.04 
L 252.503037 124.885668 
L 245.672589 124.885668 
z
" clip-path="url(#pd3897915d3)" style="fill: #4682b4"/>
   </g>
   <g id="patch_31">
    <path d="M 252.503037 126.04 
L 259.333485 126.04 
L 259.333485 124.885668 
L 252.503037 124.885668 
z
" clip-path="url(#pd3897915d3)" style="fill: #4682b4"/>
   </g>
   <g id="patch_32">
    <path d="M 259.333485 126.04 
L 266.163933 126.04 
L 266.163933 124.885668 
L 259.333485 124.885668 
z
" clip-path="url(#pd3897915d3)" style="fill: #4682b4"/>
   </g>
   <g id="matplotlib.axis_1">
    <g id="xtick_1">
     <g id="line2d_1">
      <defs>
       <path id="m0d9886aeb5" d="M 0 0 
L 0 3.5 
" style="stroke: #000000; stroke-width: 0.8"/>
      </defs>
      <g>
       <use xlink:href="#m0d9886aeb5" x="26.643978" y="126.04" style="stroke: #000000; stroke-width: 0.8"/>
      </g>
     </g>
     <g id="text_1">
      <!-- −0.4 -->
      <g transform="translate(14.502571 140.638438) scale(0.1 -0.1)">
       <defs>
        <path id="DejaVuSans-2212" d="M 678 2272 
L 4684 2272 
L 4684 1741 
L 678 1741 
L 678 2272 
z
" transform="scale(0.015625)"/>
        <path id="DejaVuSans-30" d="M 2034 4250 
Q 1547 4250 1301 3770 
Q 1056 3291 1056 2328 
Q 1056 1369 1301 889 
Q 1547 409 2034 409 
Q 2525 409 2770 889 
Q 3016 1369 3016 2328 
Q 3016 3291 2770 3770 
Q 2525 4250 2034 4250 
z
M 2034 4750 
Q 2819 4750 3233 4129 
Q 3647 3509 3647 2328 
Q 3647 1150 3233 529 
Q 2819 -91 2034 -91 
Q 1250 -91 836 529 
Q 422 1150 422 2328 
Q 422 3509 836 4129 
Q 1250 4750 2034 4750 
z
" transform="scale(0.015625)"/>
        <path id="DejaVuSans-2e" d="M 684 794 
L 1344 794 
L 1344 0 
L 684 0 
L 684 794 
z
" transform="scale(0.015625)"/>
        <path id="DejaVuSans-34" d="M 2419 4116 
L 825 1625 
L 2419 1625 
L 2419 4116 
z
M 2253 4666 
L 3047 4666 
L 3047 1625 
L 3713 1625 
L 3713 1100 
L 3047 1100 
L 3047 0 
L 2419 0 
L 2419 1100 
L 313 1100 
L 313 1709 
L 2253 4666 
z
" transform="scale(0.015625)"/>
       </defs>
       <use xlink:href="#DejaVuSans-2212"/>
       <use xlink:href="#DejaVuSans-30" x="83.789062"/>
       <use xlink:href="#DejaVuSans-2e" x="147.412109"/>
       <use xlink:href="#DejaVuSans-34" x="179.199219"/>
      </g>
     </g>
    </g>
    <g id="xtick_2">
     <g id="line2d_2">
      <g>
       <use xlink:href="#m0d9886aeb5" x="88.47189" y="126.04" style="stroke: #000000; stroke-width: 0.8"/>
      </g>
     </g>
     <g id="text_2">
      <!-- −0.2 -->
      <g transform="translate(76.330484 140.638438) scale(0.1 -0.1)">
       <defs>
        <path id="DejaVuSans-32" d="M 1228 531 
L 3431 531 
L 3431 0 
L 469 0 
L 469 531 
Q 828 903 1448 1529 
Q 2069 2156 2228 2338 
Q 2531 2678 2651 2914 
Q 2772 3150 2772 3378 
Q 2772 3750 2511 3984 
Q 2250 4219 1831 4219 
Q 1534 4219 1204 4116 
Q 875 4013 500 3803 
L 500 4441 
Q 881 4594 1212 4672 
Q 1544 4750 1819 4750 
Q 2544 4750 2975 4387 
Q 3406 4025 3406 3419 
Q 3406 3131 3298 2873 
Q 3191 2616 2906 2266 
Q 2828 2175 2409 1742 
Q 1991 1309 1228 531 
z
" transform="scale(0.015625)"/>
       </defs>
       <use xlink:href="#DejaVuSans-2212"/>
       <use xlink:href="#DejaVuSans-30" x="83.789062"/>
       <use xlink:href="#DejaVuSans-2e" x="147.412109"/>
       <use xlink:href="#DejaVuSans-32" x="179.199219"/>
      </g>
     </g>
    </g>
    <g id="xtick_3">
     <g id="line2d_3">
      <g>
       <use xlink:href="#m0d9886aeb5" x="150.299802" y="126.04" style="stroke: #000000; stroke-width: 0.8"/>
      </g>
     </g>
     <g id="text_3">
      <!-- 0.0 -->
      <g transform="translate(142.34824 140.638438) scale(0.1 -0.1)">
       <use xlink:href="#DejaVuSans-30"/>
       <use xlink:href="#DejaVuSans-2e" x="63.623047"/>
       <use xlink:href="#DejaVuSans-30" x="95.410156"/>
      </g>
     </g>
    </g>
    <g id="xtick_4">
     <g id="line2d_4">
      <g>
       <use xlink:href="#m0d9886aeb5" x="212.127715" y="126.04" style="stroke: #000000; stroke-width: 0.8"/>
      </g>
     </g>
     <g id="text_4">
      <!-- 0.2 -->
      <g transform="translate(204.176152 140.638438) scale(0.1 -0.1)">
       <use xlink:href="#DejaVuSans-30"/>
       <use xlink:href="#DejaVuSans-2e" x="63.623047"/>
       <use xlink:href="#DejaVuSans-32" x="95.410156"/>
      </g>
     </g>
    </g>
    <g id="xtick_5">
     <g id="line2d_5">
      <g>
       <use xlink:href="#m0d9886aeb5" x="273.955627" y="126.04" style="stroke: #000000; stroke-width: 0.8"/>
      </g>
     </g>
     <g id="text_5">
      <!-- 0.4 -->
      <g transform="translate(266.004065 140.638438) scale(0.1 -0.1)">
       <use xlink:href="#DejaVuSans-30"/>
       <use xlink:href="#DejaVuSans-2e" x="63.623047"/>
       <use xlink:href="#DejaVuSans-34" x="95.410156"/>
      </g>
     </g>
    </g>
    <g id="text_6">
     <!-- Systematic on Amplitude [%] -->
     <g transform="translate(77.221677 154.316563) scale(0.1 -0.1)">
      <defs>
       <path id="DejaVuSans-53" d="M 3425 4513 
L 3425 3897 
Q 3066 4069 2747 4153 
Q 2428 4238 2131 4238 
Q 1616 4238 1336 4038 
Q 1056 3838 1056 3469 
Q 1056 3159 1242 3001 
Q 1428 2844 1947 2747 
L 2328 2669 
Q 3034 2534 3370 2195 
Q 3706 1856 3706 1288 
Q 3706 609 3251 259 
Q 2797 -91 1919 -91 
Q 1588 -91 1214 -16 
Q 841 59 441 206 
L 441 856 
Q 825 641 1194 531 
Q 1563 422 1919 422 
Q 2459 422 2753 634 
Q 3047 847 3047 1241 
Q 3047 1584 2836 1778 
Q 2625 1972 2144 2069 
L 1759 2144 
Q 1053 2284 737 2584 
Q 422 2884 422 3419 
Q 422 4038 858 4394 
Q 1294 4750 2059 4750 
Q 2388 4750 2728 4690 
Q 3069 4631 3425 4513 
z
" transform="scale(0.015625)"/>
       <path id="DejaVuSans-79" d="M 2059 -325 
Q 1816 -950 1584 -1140 
Q 1353 -1331 966 -1331 
L 506 -1331 
L 506 -850 
L 844 -850 
Q 1081 -850 1212 -737 
Q 1344 -625 1503 -206 
L 1606 56 
L 191 3500 
L 800 3500 
L 1894 763 
L 2988 3500 
L 3597 3500 
L 2059 -325 
z
" transform="scale(0.015625)"/>
       <path id="DejaVuSans-73" d="M 2834 3397 
L 2834 2853 
Q 2591 2978 2328 3040 
Q 2066 3103 1784 3103 
Q 1356 3103 1142 2972 
Q 928 2841 928 2578 
Q 928 2378 1081 2264 
Q 1234 2150 1697 2047 
L 1894 2003 
Q 2506 1872 2764 1633 
Q 3022 1394 3022 966 
Q 3022 478 2636 193 
Q 2250 -91 1575 -91 
Q 1294 -91 989 -36 
Q 684 19 347 128 
L 347 722 
Q 666 556 975 473 
Q 1284 391 1588 391 
Q 1994 391 2212 530 
Q 2431 669 2431 922 
Q 2431 1156 2273 1281 
Q 2116 1406 1581 1522 
L 1381 1569 
Q 847 1681 609 1914 
Q 372 2147 372 2553 
Q 372 3047 722 3315 
Q 1072 3584 1716 3584 
Q 2034 3584 2315 3537 
Q 2597 3491 2834 3397 
z
" transform="scale(0.015625)"/>
       <path id="DejaVuSans-74" d="M 1172 4494 
L 1172 3500 
L 2356 3500 
L 2356 3053 
L 1172 3053 
L 1172 1153 
Q 1172 725 1289 603 
Q 1406 481 1766 481 
L 2356 481 
L 2356 0 
L 1766 0 
Q 1100 0 847 248 
Q 594 497 594 1153 
L 594 3053 
L 172 3053 
L 172 3500 
L 594 3500 
L 594 4494 
L 1172 4494 
z
" transform="scale(0.015625)"/>
       <path id="DejaVuSans-65" d="M 3597 1894 
L 3597 1613 
L 953 1613 
Q 991 1019 1311 708 
Q 1631 397 2203 397 
Q 2534 397 2845 478 
Q 3156 559 3463 722 
L 3463 178 
Q 3153 47 2828 -22 
Q 2503 -91 2169 -91 
Q 1331 -91 842 396 
Q 353 884 353 1716 
Q 353 2575 817 3079 
Q 1281 3584 2069 3584 
Q 2775 3584 3186 3129 
Q 3597 2675 3597 1894 
z
M 3022 2063 
Q 3016 2534 2758 2815 
Q 2500 3097 2075 3097 
Q 1594 3097 1305 2825 
Q 1016 2553 972 2059 
L 3022 2063 
z
" transform="scale(0.015625)"/>
       <path id="DejaVuSans-6d" d="M 3328 2828 
Q 3544 3216 3844 3400 
Q 4144 3584 4550 3584 
Q 5097 3584 5394 3201 
Q 5691 2819 5691 2113 
L 5691 0 
L 5113 0 
L 5113 2094 
Q 5113 2597 4934 2840 
Q 4756 3084 4391 3084 
Q 3944 3084 3684 2787 
Q 3425 2491 3425 1978 
L 3425 0 
L 2847 0 
L 2847 2094 
Q 2847 2600 2669 2842 
Q 2491 3084 2119 3084 
Q 1678 3084 1418 2786 
Q 1159 2488 1159 1978 
L 1159 0 
L 581 0 
L 581 3500 
L 1159 3500 
L 1159 2956 
Q 1356 3278 1631 3431 
Q 1906 3584 2284 3584 
Q 2666 3584 2933 3390 
Q 3200 3197 3328 2828 
z
" transform="scale(0.015625)"/>
       <path id="DejaVuSans-61" d="M 2194 1759 
Q 1497 1759 1228 1600 
Q 959 1441 959 1056 
Q 959 750 1161 570 
Q 1363 391 1709 391 
Q 2188 391 2477 730 
Q 2766 1069 2766 1631 
L 2766 1759 
L 2194 1759 
z
M 3341 1997 
L 3341 0 
L 2766 0 
L 2766 531 
Q 2569 213 2275 61 
Q 1981 -91 1556 -91 
Q 1019 -91 701 211 
Q 384 513 384 1019 
Q 384 1609 779 1909 
Q 1175 2209 1959 2209 
L 2766 2209 
L 2766 2266 
Q 2766 2663 2505 2880 
Q 2244 3097 1772 3097 
Q 1472 3097 1187 3025 
Q 903 2953 641 2809 
L 641 3341 
Q 956 3463 1253 3523 
Q 1550 3584 1831 3584 
Q 2591 3584 2966 3190 
Q 3341 2797 3341 1997 
z
" transform="scale(0.015625)"/>
       <path id="DejaVuSans-69" d="M 603 3500 
L 1178 3500 
L 1178 0 
L 603 0 
L 603 3500 
z
M 603 4863 
L 1178 4863 
L 1178 4134 
L 603 4134 
L 603 4863 
z
" transform="scale(0.015625)"/>
       <path id="DejaVuSans-63" d="M 3122 3366 
L 3122 2828 
Q 2878 2963 2633 3030 
Q 2388 3097 2138 3097 
Q 1578 3097 1268 2742 
Q 959 2388 959 1747 
Q 959 1106 1268 751 
Q 1578 397 2138 397 
Q 2388 397 2633 464 
Q 2878 531 3122 666 
L 3122 134 
Q 2881 22 2623 -34 
Q 2366 -91 2075 -91 
Q 1284 -91 818 406 
Q 353 903 353 1747 
Q 353 2603 823 3093 
Q 1294 3584 2113 3584 
Q 2378 3584 2631 3529 
Q 2884 3475 3122 3366 
z
" transform="scale(0.015625)"/>
       <path id="DejaVuSans-20" transform="scale(0.015625)"/>
       <path id="DejaVuSans-6f" d="M 1959 3097 
Q 1497 3097 1228 2736 
Q 959 2375 959 1747 
Q 959 1119 1226 758 
Q 1494 397 1959 397 
Q 2419 397 2687 759 
Q 2956 1122 2956 1747 
Q 2956 2369 2687 2733 
Q 2419 3097 1959 3097 
z
M 1959 3584 
Q 2709 3584 3137 3096 
Q 3566 2609 3566 1747 
Q 3566 888 3137 398 
Q 2709 -91 1959 -91 
Q 1206 -91 779 398 
Q 353 888 353 1747 
Q 353 2609 779 3096 
Q 1206 3584 1959 3584 
z
" transform="scale(0.015625)"/>
       <path id="DejaVuSans-6e" d="M 3513 2113 
L 3513 0 
L 2938 0 
L 2938 2094 
Q 2938 2591 2744 2837 
Q 2550 3084 2163 3084 
Q 1697 3084 1428 2787 
Q 1159 2491 1159 1978 
L 1159 0 
L 581 0 
L 581 3500 
L 1159 3500 
L 1159 2956 
Q 1366 3272 1645 3428 
Q 1925 3584 2291 3584 
Q 2894 3584 3203 3211 
Q 3513 2838 3513 2113 
z
" transform="scale(0.015625)"/>
       <path id="DejaVuSans-41" d="M 2188 4044 
L 1331 1722 
L 3047 1722 
L 2188 4044 
z
M 1831 4666 
L 2547 4666 
L 4325 0 
L 3669 0 
L 3244 1197 
L 1141 1197 
L 716 0 
L 50 0 
L 1831 4666 
z
" transform="scale(0.015625)"/>
       <path id="DejaVuSans-70" d="M 1159 525 
L 1159 -1331 
L 581 -1331 
L 581 3500 
L 1159 3500 
L 1159 2969 
Q 1341 3281 1617 3432 
Q 1894 3584 2278 3584 
Q 2916 3584 3314 3078 
Q 3713 2572 3713 1747 
Q 3713 922 3314 415 
Q 2916 -91 2278 -91 
Q 1894 -91 1617 61 
Q 1341 213 1159 525 
z
M 3116 1747 
Q 3116 2381 2855 2742 
Q 2594 3103 2138 3103 
Q 1681 3103 1420 2742 
Q 1159 2381 1159 1747 
Q 1159 1113 1420 752 
Q 1681 391 2138 391 
Q 2594 391 2855 752 
Q 3116 1113 3116 1747 
z
" transform="scale(0.015625)"/>
       <path id="DejaVuSans-6c" d="M 603 4863 
L 1178 4863 
L 1178 0 
L 603 0 
L 603 4863 
z
" transform="scale(0.015625)"/>
       <path id="DejaVuSans-75" d="M 544 1381 
L 544 3500 
L 1119 3500 
L 1119 1403 
Q 1119 906 1312 657 
Q 1506 409 1894 409 
Q 2359 409 2629 706 
Q 2900 1003 2900 1516 
L 2900 3500 
L 3475 3500 
L 3475 0 
L 2900 0 
L 2900 538 
Q 2691 219 2414 64 
Q 2138 -91 1772 -91 
Q 1169 -91 856 284 
Q 544 659 544 1381 
z
M 1991 3584 
L 1991 3584 
z
" transform="scale(0.015625)"/>
       <path id="DejaVuSans-64" d="M 2906 2969 
L 2906 4863 
L 3481 4863 
L 3481 0 
L 2906 0 
L 2906 525 
Q 2725 213 2448 61 
Q 2172 -91 1784 -91 
Q 1150 -91 751 415 
Q 353 922 353 1747 
Q 353 2572 751 3078 
Q 1150 3584 1784 3584 
Q 2172 3584 2448 3432 
Q 2725 3281 2906 2969 
z
M 947 1747 
Q 947 1113 1208 752 
Q 1469 391 1925 391 
Q 2381 391 2643 752 
Q 2906 1113 2906 1747 
Q 2906 2381 2643 2742 
Q 2381 3103 1925 3103 
Q 1469 3103 1208 2742 
Q 947 2381 947 1747 
z
" transform="scale(0.015625)"/>
       <path id="DejaVuSans-5b" d="M 550 4863 
L 1875 4863 
L 1875 4416 
L 1125 4416 
L 1125 -397 
L 1875 -397 
L 1875 -844 
L 550 -844 
L 550 4863 
z
" transform="scale(0.015625)"/>
       <path id="DejaVuSans-25" d="M 4653 2053 
Q 4381 2053 4226 1822 
Q 4072 1591 4072 1178 
Q 4072 772 4226 539 
Q 4381 306 4653 306 
Q 4919 306 5073 539 
Q 5228 772 5228 1178 
Q 5228 1588 5073 1820 
Q 4919 2053 4653 2053 
z
M 4653 2450 
Q 5147 2450 5437 2106 
Q 5728 1763 5728 1178 
Q 5728 594 5436 251 
Q 5144 -91 4653 -91 
Q 4153 -91 3862 251 
Q 3572 594 3572 1178 
Q 3572 1766 3864 2108 
Q 4156 2450 4653 2450 
z
M 1428 4353 
Q 1159 4353 1004 4120 
Q 850 3888 850 3481 
Q 850 3069 1003 2837 
Q 1156 2606 1428 2606 
Q 1700 2606 1854 2837 
Q 2009 3069 2009 3481 
Q 2009 3884 1853 4118 
Q 1697 4353 1428 4353 
z
M 4250 4750 
L 4750 4750 
L 1831 -91 
L 1331 -91 
L 4250 4750 
z
M 1428 4750 
Q 1922 4750 2215 4408 
Q 2509 4066 2509 3481 
Q 2509 2891 2217 2550 
Q 1925 2209 1428 2209 
Q 931 2209 642 2551 
Q 353 2894 353 3481 
Q 353 4063 643 4406 
Q 934 4750 1428 4750 
z
" transform="scale(0.015625)"/>
       <path id="DejaVuSans-5d" d="M 1947 4863 
L 1947 -844 
L 622 -844 
L 622 -397 
L 1369 -397 
L 1369 4416 
L 622 4416 
L 622 4863 
L 1947 4863 
z
" transform="scale(0.015625)"/>
      </defs>
      <use xlink:href="#DejaVuSans-53"/>
      <use xlink:href="#DejaVuSans-79" x="63.476562"/>
      <use xlink:href="#DejaVuSans-73" x="122.65625"/>
      <use xlink:href="#DejaVuSans-74" x="174.755859"/>
      <use xlink:href="#DejaVuSans-65" x="213.964844"/>
      <use xlink:href="#DejaVuSans-6d" x="275.488281"/>
      <use xlink:href="#DejaVuSans-61" x="372.900391"/>
      <use xlink:href="#DejaVuSans-74" x="434.179688"/>
      <use xlink:href="#DejaVuSans-69" x="473.388672"/>
      <use xlink:href="#DejaVuSans-63" x="501.171875"/>
      <use xlink:href="#DejaVuSans-20" x="556.152344"/>
      <use xlink:href="#DejaVuSans-6f" x="587.939453"/>
      <use xlink:href="#DejaVuSans-6e" x="649.121094"/>
      <use xlink:href="#DejaVuSans-20" x="712.5"/>
      <use xlink:href="#DejaVuSans-41" x="744.287109"/>
      <use xlink:href="#DejaVuSans-6d" x="812.695312"/>
      <use xlink:href="#DejaVuSans-70" x="910.107422"/>
      <use xlink:href="#DejaVuSans-6c" x="973.583984"/>
      <use xlink:href="#DejaVuSans-69" x="1001.367188"/>
      <use xlink:href="#DejaVuSans-74" x="1029.150391"/>
      <use xlink:href="#DejaVuSans-75" x="1068.359375"/>
      <use xlink:href="#DejaVuSans-64" x="1131.738281"/>
      <use xlink:href="#DejaVuSans-65" x="1195.214844"/>
      <use xlink:href="#DejaVuSans-20" x="1256.738281"/>
      <use xlink:href="#DejaVuSans-5b" x="1288.525391"/>
      <use xlink:href="#DejaVuSans-25" x="1327.539062"/>
      <use xlink:href="#DejaVuSans-5d" x="1422.558594"/>
     </g>
    </g>
   </g>
   <g id="matplotlib.axis_2">
    <g id="ytick_1">
     <g id="line2d_6">
      <defs>
       <path id="m1571044886" d="M 0 0 
L -3.5 0 
" style="stroke: #000000; stroke-width: 0.8"/>
      </defs>
      <g>
       <use xlink:href="#m1571044886" x="24.19" y="126.04" style="stroke: #000000; stroke-width: 0.8"/>
      </g>
     </g>
     <g id="text_7">
      <!-- 0 -->
      <g transform="translate(10.8275 129.839219) scale(0.1 -0.1)">
       <use xlink:href="#DejaVuSans-30"/>
      </g>
     </g>
    </g>
    <g id="ytick_2">
     <g id="line2d_7">
      <g>
       <use xlink:href="#m1571044886" x="24.19" y="103.085507" style="stroke: #000000; stroke-width: 0.8"/>
      </g>
     </g>
     <g id="text_8">
      <!-- 1 -->
      <g transform="translate(10.8275 106.884726) scale(0.1 -0.1)">
       <defs>
        <path id="DejaVuSans-31" d="M 794 531 
L 1825 531 
L 1825 4091 
L 703 3866 
L 703 4441 
L 1819 4666 
L 2450 4666 
L 2450 531 
L 3481 531 
L 3481 0 
L 794 0 
L 794 531 
z
" transform="scale(0.015625)"/>
       </defs>
       <use xlink:href="#DejaVuSans-31"/>
      </g>
     </g>
    </g>
    <g id="ytick_3">
     <g id="line2d_8">
      <g>
       <use xlink:href="#m1571044886" x="24.19" y="80.131014" style="stroke: #000000; stroke-width: 0.8"/>
      </g>
     </g>
     <g id="text_9">
      <!-- 2 -->
      <g transform="translate(10.8275 83.930233) scale(0.1 -0.1)">
       <use xlink:href="#DejaVuSans-32"/>
      </g>
     </g>
    </g>
    <g id="ytick_4">
     <g id="line2d_9">
      <g>
       <use xlink:href="#m1571044886" x="24.19" y="57.176521" style="stroke: #000000; stroke-width: 0.8"/>
      </g>
     </g>
     <g id="text_10">
      <!-- 3 -->
      <g transform="translate(10.8275 60.97574) scale(0.1 -0.1)">
       <defs>
        <path id="DejaVuSans-33" d="M 2597 2516 
Q 3050 2419 3304 2112 
Q 3559 1806 3559 1356 
Q 3559 666 3084 287 
Q 2609 -91 1734 -91 
Q 1441 -91 1130 -33 
Q 819 25 488 141 
L 488 750 
Q 750 597 1062 519 
Q 1375 441 1716 441 
Q 2309 441 2620 675 
Q 2931 909 2931 1356 
Q 2931 1769 2642 2001 
Q 2353 2234 1838 2234 
L 1294 2234 
L 1294 2753 
L 1863 2753 
Q 2328 2753 2575 2939 
Q 2822 3125 2822 3475 
Q 2822 3834 2567 4026 
Q 2313 4219 1838 4219 
Q 1578 4219 1281 4162 
Q 984 4106 628 3988 
L 628 4550 
Q 988 4650 1302 4700 
Q 1616 4750 1894 4750 
Q 2613 4750 3031 4423 
Q 3450 4097 3450 3541 
Q 3450 3153 3228 2886 
Q 3006 2619 2597 2516 
z
" transform="scale(0.015625)"/>
       </defs>
       <use xlink:href="#DejaVuSans-33"/>
      </g>
     </g>
    </g>
    <g id="ytick_5">
     <g id="line2d_10">
      <g>
       <use xlink:href="#m1571044886" x="24.19" y="34.222028" style="stroke: #000000; stroke-width: 0.8"/>
      </g>
     </g>
     <g id="text_11">
      <!-- 4 -->
      <g transform="translate(10.8275 38.021247) scale(0.1 -0.1)">
       <use xlink:href="#DejaVuSans-34"/>
      </g>
     </g>
    </g>
   </g>
   <g id="line2d_11">
    <path d="M 61.250491 124.59463 
L 68.080939 123.374438 
L 74.911387 121.358373 
L 81.741835 118.209257 
L 88.572283 113.565957 
L 95.402731 107.116141 
L 102.233179 98.699256 
L 109.063627 88.420839 
L 115.894075 76.744639 
L 122.724523 64.52215 
L 129.554971 52.927032 
L 136.385419 43.286602 
L 143.215867 36.837829 
L 150.046316 34.467901 
L 156.876764 36.514021 
L 163.707212 42.684713 
L 170.53766 52.127927 
L 177.368108 63.624023 
L 184.198556 75.843397 
L 191.029004 87.59401 
L 197.859452 97.996906 
L 204.6899 106.559551 
L 211.520348 113.152456 
L 218.350796 117.920309 
L 225.181244 121.168003 
L 232.011692 123.255978 
L 238.84214 124.524916 
L 245.672589 125.254767 
L 252.503037 125.652422 
L 259.333485 125.857813 
L 266.163933 125.958441 
" clip-path="url(#pd3897915d3)" style="fill: none; stroke: #ff0000; stroke-width: 2; stroke-linecap: square"/>
   </g>
   <g id="patch_33">
    <path d="M 24.19 126.04 
L 24.19 25.44 
" style="fill: none; stroke: #000000; stroke-width: 0.8; stroke-linejoin: miter; stroke-linecap: square"/>
   </g>
   <g id="patch_34">
    <path d="M 276.409605 126.04 
L 276.409605 25.44 
" style="fill: none; stroke: #000000; stroke-width: 0.8; stroke-linejoin: miter; stroke-linecap: square"/>
   </g>
   <g id="patch_35">
    <path d="M 24.19 126.04 
L 276.409605 126.04 
" style="fill: none; stroke: #000000; stroke-width: 0.8; stroke-linejoin: miter; stroke-linecap: square"/>
   </g>
   <g id="patch_36">
    <path d="M 24.19 25.44 
L 276.409605 25.44 
" style="fill: none; stroke: #000000; stroke-width: 0.8; stroke-linejoin: miter; stroke-linecap: square"/>
   </g>
   <g id="legend_1">
    <g id="patch_37">
     <path d="M 172.509605 48.138438 
L 269.409605 48.138438 
Q 271.409605 48.138438 271.409605 46.138438 
L 271.409605 32.44 
Q 271.409605 30.44 269.409605 30.44 
L 172.509605 30.44 
Q 170.509605 30.44 170.509605 32.44 
L 170.509605 46.138438 
Q 170.509605 48.138438 172.509605 48.138438 
z
" style="fill: #ffffff; opacity: 0.8; stroke: #cccccc; stroke-linejoin: miter"/>
    </g>
    <g id="line2d_12">
     <path d="M 174.509605 38.538438 
L 184.509605 38.538438 
L 194.509605 38.538438 
" style="fill: none; stroke: #ff0000; stroke-width: 2; stroke-linecap: square"/>
    </g>
    <g id="text_12">
     <!-- $\mu = 0; \sigma = 0.1$ -->
     <g transform="translate(202.509605 42.038438) scale(0.1 -0.1)">
      <defs>
       <path id="DejaVuSans-Oblique-3bc" d="M -84 -1331 
L 856 3500 
L 1434 3500 
L 1009 1322 
Q 997 1256 987 1175 
Q 978 1094 978 1013 
Q 978 722 1161 565 
Q 1344 409 1684 409 
Q 2147 409 2431 671 
Q 2716 934 2816 1459 
L 3213 3500 
L 3788 3500 
L 3266 809 
Q 3253 750 3248 706 
Q 3244 663 3244 628 
Q 3244 531 3283 486 
Q 3322 441 3406 441 
Q 3438 441 3492 456 
Q 3547 472 3647 513 
L 3559 50 
Q 3422 -19 3297 -55 
Q 3172 -91 3053 -91 
Q 2847 -91 2730 40 
Q 2613 172 2613 403 
Q 2438 153 2195 31 
Q 1953 -91 1625 -91 
Q 1334 -91 1117 43 
Q 900 178 831 397 
L 494 -1331 
L -84 -1331 
z
" transform="scale(0.015625)"/>
       <path id="DejaVuSans-3d" d="M 678 2906 
L 4684 2906 
L 4684 2381 
L 678 2381 
L 678 2906 
z
M 678 1631 
L 4684 1631 
L 4684 1100 
L 678 1100 
L 678 1631 
z
" transform="scale(0.015625)"/>
       <path id="DejaVuSans-3b" d="M 750 3309 
L 1409 3309 
L 1409 2516 
L 750 2516 
L 750 3309 
z
M 750 794 
L 1409 794 
L 1409 256 
L 897 -744 
L 494 -744 
L 750 256 
L 750 794 
z
" transform="scale(0.015625)"/>
       <path id="DejaVuSans-Oblique-3c3" d="M 2219 3044 
Q 1744 3044 1422 2700 
Q 1081 2341 969 1747 
Q 844 1119 1044 756 
Q 1241 397 1706 397 
Q 2166 397 2503 759 
Q 2844 1122 2966 1747 
Q 3075 2319 2881 2700 
Q 2700 3044 2219 3044 
z
M 2309 3503 
L 4219 3500 
L 4106 2925 
L 3463 2925 
Q 3706 2438 3575 1747 
Q 3406 888 2884 400 
Q 2359 -91 1609 -91 
Q 856 -91 525 400 
Q 194 888 363 1747 
Q 528 2609 1050 3097 
Q 1484 3503 2309 3503 
z
" transform="scale(0.015625)"/>
      </defs>
      <use xlink:href="#DejaVuSans-Oblique-3bc" transform="translate(0 0.78125)"/>
      <use xlink:href="#DejaVuSans-3d" transform="translate(83.105469 0.78125)"/>
      <use xlink:href="#DejaVuSans-30" transform="translate(186.376953 0.78125)"/>
      <use xlink:href="#DejaVuSans-3b" transform="translate(250 0.78125)"/>
      <use xlink:href="#DejaVuSans-Oblique-3c3" transform="translate(303.173828 0.78125)"/>
      <use xlink:href="#DejaVuSans-3d" transform="translate(386.035156 0.78125)"/>
      <use xlink:href="#DejaVuSans-30" transform="translate(489.306641 0.78125)"/>
      <use xlink:href="#DejaVuSans-2e" transform="translate(552.929688 0.78125)"/>
      <use xlink:href="#DejaVuSans-31" transform="translate(584.716797 0.78125)"/>
     </g>
    </g>
   </g>
  </g>
  <g id="axes_2">
   <g id="patch_38">
    <path d="M 312.980395 126.04 
L 565.2 126.04 
L 565.2 25.44 
L 312.980395 25.44 
z
" style="fill: #ffffff"/>
   </g>
   <g id="patch_39">
    <path d="M 324.444923 126.04 
L 332.087941 126.04 
L 332.087941 120.051905 
L 324.444923 120.051905 
z
" clip-path="url(#pc96716da14)" style="fill: #4682b4"/>
   </g>
   <g id="patch_40">
    <path d="M 332.087941 126.04 
L 339.730959 126.04 
L 339.730959 124.842381 
L 332.087941 124.842381 
z
" clip-path="url(#pc96716da14)" style="fill: #4682b4"/>
   </g>
   <g id="patch_41">
    <path d="M 339.730959 126.04 
L 347.373978 126.04 
L 347.373978 114.06381 
L 339.730959 114.06381 
z
" clip-path="url(#pc96716da14)" style="fill: #4682b4"/>
   </g>
   <g id="patch_42">
    <path d="M 347.373978 126.04 
L 355.016996 126.04 
L 355.016996 118.854286 
L 347.373978 118.854286 
z
" clip-path="url(#pc96716da14)" style="fill: #4682b4"/>
   </g>
   <g id="patch_43">
    <path d="M 355.016996 126.04 
L 362.660014 126.04 
L 362.660014 111.668571 
L 355.016996 111.668571 
z
" clip-path="url(#pc96716da14)" style="fill: #4682b4"/>
   </g>
   <g id="patch_44">
    <path d="M 362.660014 126.04 
L 370.303033 126.04 
L 370.303033 108.075714 
L 362.660014 108.075714 
z
" clip-path="url(#pc96716da14)" style="fill: #4682b4"/>
   </g>
   <g id="patch_45">
    <path d="M 370.303033 126.04 
L 377.946051 126.04 
L 377.946051 98.494762 
L 370.303033 98.494762 
z
" clip-path="url(#pc96716da14)" style="fill: #4682b4"/>
   </g>
   <g id="patch_46">
    <path d="M 377.946051 126.04 
L 385.589069 126.04 
L 385.589069 87.71619 
L 377.946051 87.71619 
z
" clip-path="url(#pc96716da14)" style="fill: #4682b4"/>
   </g>
   <g id="patch_47">
    <path d="M 385.589069 126.04 
L 393.232088 126.04 
L 393.232088 72.147143 
L 385.589069 72.147143 
z
" clip-path="url(#pc96716da14)" style="fill: #4682b4"/>
   </g>
   <g id="patch_48">
    <path d="M 393.232088 126.04 
L 400.875106 126.04 
L 400.875106 69.751905 
L 393.232088 69.751905 
z
" clip-path="url(#pc96716da14)" style="fill: #4682b4"/>
   </g>
   <g id="patch_49">
    <path d="M 400.875106 126.04 
L 408.518124 126.04 
L 408.518124 55.380476 
L 400.875106 55.380476 
z
" clip-path="url(#pc96716da14)" style="fill: #4682b4"/>
   </g>
   <g id="patch_50">
    <path d="M 408.518124 126.04 
L 416.161143 126.04 
L 416.161143 57.775714 
L 408.518124 57.775714 
z
" clip-path="url(#pc96716da14)" style="fill: #4682b4"/>
   </g>
   <g id="patch_51">
    <path d="M 416.161143 126.04 
L 423.804161 126.04 
L 423.804161 46.997143 
L 416.161143 46.997143 
z
" clip-path="url(#pc96716da14)" style="fill: #4682b4"/>
   </g>
   <g id="patch_52">
    <path d="M 423.804161 126.04 
L 431.447179 126.04 
L 431.447179 30.230476 
L 423.804161 30.230476 
z
" clip-path="url(#pc96716da14)" style="fill: #4682b4"/>
   </g>
   <g id="patch_53">
    <path d="M 431.447179 126.04 
L 439.090198 126.04 
L 439.090198 41.009048 
L 431.447179 41.009048 
z
" clip-path="url(#pc96716da14)" style="fill: #4682b4"/>
   </g>
   <g id="patch_54">
    <path d="M 439.090198 126.04 
L 446.733216 126.04 
L 446.733216 55.380476 
L 439.090198 55.380476 
z
" clip-path="url(#pc96716da14)" style="fill: #4682b4"/>
   </g>
   <g id="patch_55">
    <path d="M 446.733216 126.04 
L 454.376234 126.04 
L 454.376234 44.601905 
L 446.733216 44.601905 
z
" clip-path="url(#pc96716da14)" style="fill: #4682b4"/>
   </g>
   <g id="patch_56">
    <path d="M 454.376234 126.04 
L 462.019253 126.04 
L 462.019253 51.787619 
L 454.376234 51.787619 
z
" clip-path="url(#pc96716da14)" style="fill: #4682b4"/>
   </g>
   <g id="patch_57">
    <path d="M 462.019253 126.04 
L 469.662271 126.04 
L 469.662271 74.542381 
L 462.019253 74.542381 
z
" clip-path="url(#pc96716da14)" style="fill: #4682b4"/>
   </g>
   <g id="patch_58">
    <path d="M 469.662271 126.04 
L 477.305289 126.04 
L 477.305289 79.332857 
L 469.662271 79.332857 
z
" clip-path="url(#pc96716da14)" style="fill: #4682b4"/>
   </g>
   <g id="patch_59">
    <path d="M 477.305289 126.04 
L 484.948308 126.04 
L 484.948308 92.506667 
L 477.305289 92.506667 
z
" clip-path="url(#pc96716da14)" style="fill: #4682b4"/>
   </g>
   <g id="patch_60">
    <path d="M 484.948308 126.04 
L 492.591326 126.04 
L 492.591326 96.099524 
L 484.948308 96.099524 
z
" clip-path="url(#pc96716da14)" style="fill: #4682b4"/>
   </g>
   <g id="patch_61">
    <path d="M 492.591326 126.04 
L 500.234344 126.04 
L 500.234344 110.470952 
L 492.591326 110.470952 
z
" clip-path="url(#pc96716da14)" style="fill: #4682b4"/>
   </g>
   <g id="patch_62">
    <path d="M 500.234344 126.04 
L 507.877363 126.04 
L 507.877363 106.878095 
L 500.234344 106.878095 
z
" clip-path="url(#pc96716da14)" style="fill: #4682b4"/>
   </g>
   <g id="patch_63">
    <path d="M 507.877363 126.04 
L 515.520381 126.04 
L 515.520381 115.261429 
L 507.877363 115.261429 
z
" clip-path="url(#pc96716da14)" style="fill: #4682b4"/>
   </g>
   <g id="patch_64">
    <path d="M 515.520381 126.04 
L 523.163399 126.04 
L 523.163399 122.447143 
L 515.520381 122.447143 
z
" clip-path="url(#pc96716da14)" style="fill: #4682b4"/>
   </g>
   <g id="patch_65">
    <path d="M 523.163399 126.04 
L 530.806418 126.04 
L 530.806418 123.644762 
L 523.163399 123.644762 
z
" clip-path="url(#pc96716da14)" style="fill: #4682b4"/>
   </g>
   <g id="patch_66">
    <path d="M 530.806418 126.04 
L 538.449436 126.04 
L 538.449436 126.04 
L 530.806418 126.04 
z
" clip-path="url(#pc96716da14)" style="fill: #4682b4"/>
   </g>
   <g id="patch_67">
    <path d="M 538.449436 126.04 
L 546.092454 126.04 
L 546.092454 124.842381 
L 538.449436 124.842381 
z
" clip-path="url(#pc96716da14)" style="fill: #4682b4"/>
   </g>
   <g id="patch_68">
    <path d="M 546.092454 126.04 
L 553.735473 126.04 
L 553.735473 122.447143 
L 546.092454 122.447143 
z
" clip-path="url(#pc96716da14)" style="fill: #4682b4"/>
   </g>
   <g id="matplotlib.axis_3">
    <g id="xtick_6">
     <g id="line2d_13">
      <g>
       <use xlink:href="#m0d9886aeb5" x="330.302808" y="126.04" style="stroke: #000000; stroke-width: 0.8"/>
      </g>
     </g>
     <g id="text_13">
      <!-- −0.04 -->
      <g transform="translate(314.980152 140.638438) scale(0.1 -0.1)">
       <use xlink:href="#DejaVuSans-2212"/>
       <use xlink:href="#DejaVuSans-30" x="83.789062"/>
       <use xlink:href="#DejaVuSans-2e" x="147.412109"/>
       <use xlink:href="#DejaVuSans-30" x="179.199219"/>
       <use xlink:href="#DejaVuSans-34" x="242.822266"/>
      </g>
     </g>
    </g>
    <g id="xtick_7">
     <g id="line2d_14">
      <g>
       <use xlink:href="#m0d9886aeb5" x="380.972302" y="126.04" style="stroke: #000000; stroke-width: 0.8"/>
      </g>
     </g>
     <g id="text_14">
      <!-- −0.02 -->
      <g transform="translate(365.649646 140.638438) scale(0.1 -0.1)">
       <use xlink:href="#DejaVuSans-2212"/>
       <use xlink:href="#DejaVuSans-30" x="83.789062"/>
       <use xlink:href="#DejaVuSans-2e" x="147.412109"/>
       <use xlink:href="#DejaVuSans-30" x="179.199219"/>
       <use xlink:href="#DejaVuSans-32" x="242.822266"/>
      </g>
     </g>
    </g>
    <g id="xtick_8">
     <g id="line2d_15">
      <g>
       <use xlink:href="#m0d9886aeb5" x="431.641796" y="126.04" style="stroke: #000000; stroke-width: 0.8"/>
      </g>
     </g>
     <g id="text_15">
      <!-- 0.00 -->
      <g transform="translate(420.508984 140.638438) scale(0.1 -0.1)">
       <use xlink:href="#DejaVuSans-30"/>
       <use xlink:href="#DejaVuSans-2e" x="63.623047"/>
       <use xlink:href="#DejaVuSans-30" x="95.410156"/>
       <use xlink:href="#DejaVuSans-30" x="159.033203"/>
      </g>
     </g>
    </g>
    <g id="xtick_9">
     <g id="line2d_16">
      <g>
       <use xlink:href="#m0d9886aeb5" x="482.31129" y="126.04" style="stroke: #000000; stroke-width: 0.8"/>
      </g>
     </g>
     <g id="text_16">
      <!-- 0.02 -->
      <g transform="translate(471.178478 140.638438) scale(0.1 -0.1)">
       <use xlink:href="#DejaVuSans-30"/>
       <use xlink:href="#DejaVuSans-2e" x="63.623047"/>
       <use xlink:href="#DejaVuSans-30" x="95.410156"/>
       <use xlink:href="#DejaVuSans-32" x="159.033203"/>
      </g>
     </g>
    </g>
    <g id="xtick_10">
     <g id="line2d_17">
      <g>
       <use xlink:href="#m0d9886aeb5" x="532.980785" y="126.04" style="stroke: #000000; stroke-width: 0.8"/>
      </g>
     </g>
     <g id="text_17">
      <!-- 0.04 -->
      <g transform="translate(521.847972 140.638438) scale(0.1 -0.1)">
       <use xlink:href="#DejaVuSans-30"/>
       <use xlink:href="#DejaVuSans-2e" x="63.623047"/>
       <use xlink:href="#DejaVuSans-30" x="95.410156"/>
       <use xlink:href="#DejaVuSans-34" x="159.033203"/>
      </g>
     </g>
    </g>
    <g id="text_18">
     <!-- Systematic on Index [%] -->
     <g transform="translate(377.868323 154.316563) scale(0.1 -0.1)">
      <defs>
       <path id="DejaVuSans-49" d="M 628 4666 
L 1259 4666 
L 1259 0 
L 628 0 
L 628 4666 
z
" transform="scale(0.015625)"/>
       <path id="DejaVuSans-78" d="M 3513 3500 
L 2247 1797 
L 3578 0 
L 2900 0 
L 1881 1375 
L 863 0 
L 184 0 
L 1544 1831 
L 300 3500 
L 978 3500 
L 1906 2253 
L 2834 3500 
L 3513 3500 
z
" transform="scale(0.015625)"/>
      </defs>
      <use xlink:href="#DejaVuSans-53"/>
      <use xlink:href="#DejaVuSans-79" x="63.476562"/>
      <use xlink:href="#DejaVuSans-73" x="122.65625"/>
      <use xlink:href="#DejaVuSans-74" x="174.755859"/>
      <use xlink:href="#DejaVuSans-65" x="213.964844"/>
      <use xlink:href="#DejaVuSans-6d" x="275.488281"/>
      <use xlink:href="#DejaVuSans-61" x="372.900391"/>
      <use xlink:href="#DejaVuSans-74" x="434.179688"/>
      <use xlink:href="#DejaVuSans-69" x="473.388672"/>
      <use xlink:href="#DejaVuSans-63" x="501.171875"/>
      <use xlink:href="#DejaVuSans-20" x="556.152344"/>
      <use xlink:href="#DejaVuSans-6f" x="587.939453"/>
      <use xlink:href="#DejaVuSans-6e" x="649.121094"/>
      <use xlink:href="#DejaVuSans-20" x="712.5"/>
      <use xlink:href="#DejaVuSans-49" x="744.287109"/>
      <use xlink:href="#DejaVuSans-6e" x="773.779297"/>
      <use xlink:href="#DejaVuSans-64" x="837.158203"/>
      <use xlink:href="#DejaVuSans-65" x="900.634766"/>
      <use xlink:href="#DejaVuSans-78" x="960.408203"/>
      <use xlink:href="#DejaVuSans-20" x="1019.587891"/>
      <use xlink:href="#DejaVuSans-5b" x="1051.375"/>
      <use xlink:href="#DejaVuSans-25" x="1090.388672"/>
      <use xlink:href="#DejaVuSans-5d" x="1185.408203"/>
     </g>
    </g>
   </g>
   <g id="matplotlib.axis_4">
    <g id="ytick_6">
     <g id="line2d_18">
      <g>
       <use xlink:href="#m1571044886" x="312.980395" y="126.04" style="stroke: #000000; stroke-width: 0.8"/>
      </g>
     </g>
     <g id="text_19">
      <!-- 0 -->
      <g transform="translate(299.617895 129.839219) scale(0.1 -0.1)">
       <use xlink:href="#DejaVuSans-30"/>
      </g>
     </g>
    </g>
    <g id="ytick_7">
     <g id="line2d_19">
      <g>
       <use xlink:href="#m1571044886" x="312.980395" y="93.52307" style="stroke: #000000; stroke-width: 0.8"/>
      </g>
     </g>
     <g id="text_20">
      <!-- 10 -->
      <g transform="translate(293.255395 97.322289) scale(0.1 -0.1)">
       <use xlink:href="#DejaVuSans-31"/>
       <use xlink:href="#DejaVuSans-30" x="63.623047"/>
      </g>
     </g>
    </g>
    <g id="ytick_8">
     <g id="line2d_20">
      <g>
       <use xlink:href="#m1571044886" x="312.980395" y="61.006141" style="stroke: #000000; stroke-width: 0.8"/>
      </g>
     </g>
     <g id="text_21">
      <!-- 20 -->
      <g transform="translate(293.255395 64.805359) scale(0.1 -0.1)">
       <use xlink:href="#DejaVuSans-32"/>
       <use xlink:href="#DejaVuSans-30" x="63.623047"/>
      </g>
     </g>
    </g>
    <g id="ytick_9">
     <g id="line2d_21">
      <g>
       <use xlink:href="#m1571044886" x="312.980395" y="28.489211" style="stroke: #000000; stroke-width: 0.8"/>
      </g>
     </g>
     <g id="text_22">
      <!-- 30 -->
      <g transform="translate(293.255395 32.28843) scale(0.1 -0.1)">
       <use xlink:href="#DejaVuSans-33"/>
       <use xlink:href="#DejaVuSans-30" x="63.623047"/>
      </g>
     </g>
    </g>
   </g>
   <g id="line2d_22">
    <path d="M 324.444923 124.421581 
L 332.087941 123.242996 
L 339.730959 121.397751 
L 347.373978 118.640598 
L 355.016996 114.713447 
L 362.660014 109.389322 
L 370.303033 102.532902 
L 377.946051 94.16875 
L 385.589069 84.541526 
L 393.232088 74.148272 
L 400.875106 63.724353 
L 408.518124 54.173078 
L 416.161143 46.443505 
L 423.804161 41.377359 
L 431.447179 39.558614 
L 439.090198 41.202777 
L 446.733216 46.114897 
L 454.376234 53.727573 
L 462.019253 63.20876 
L 469.662271 73.611034 
L 477.305289 84.02543 
L 484.948308 93.705845 
L 492.591326 102.142302 
L 500.234344 109.077745 
L 507.877363 114.477704 
L 515.520381 118.471017 
L 523.163399 121.281567 
L 530.806418 123.167081 
L 538.449436 124.374227 
L 546.092454 125.112442 
L 553.735473 125.54398 
" clip-path="url(#pc96716da14)" style="fill: none; stroke: #ff0000; stroke-width: 2; stroke-linecap: square"/>
   </g>
   <g id="patch_69">
    <path d="M 312.980395 126.04 
L 312.980395 25.44 
" style="fill: none; stroke: #000000; stroke-width: 0.8; stroke-linejoin: miter; stroke-linecap: square"/>
   </g>
   <g id="patch_70">
    <path d="M 565.2 126.04 
L 565.2 25.44 
" style="fill: none; stroke: #000000; stroke-width: 0.8; stroke-linejoin: miter; stroke-linecap: square"/>
   </g>
   <g id="patch_71">
    <path d="M 312.980395 126.04 
L 565.2 126.04 
" style="fill: none; stroke: #000000; stroke-width: 0.8; stroke-linejoin: miter; stroke-linecap: square"/>
   </g>
   <g id="patch_72">
    <path d="M 312.980395 25.44 
L 565.2 25.44 
" style="fill: none; stroke: #000000; stroke-width: 0.8; stroke-linejoin: miter; stroke-linecap: square"/>
   </g>
   <g id="text_23">
    <!-- N = 900 -->
    <g transform="translate(414.307385 19.44) scale(0.12 -0.12)">
     <defs>
      <path id="DejaVuSans-4e" d="M 628 4666 
L 1478 4666 
L 3547 763 
L 3547 4666 
L 4159 4666 
L 4159 0 
L 3309 0 
L 1241 3903 
L 1241 0 
L 628 0 
L 628 4666 
z
" transform="scale(0.015625)"/>
      <path id="DejaVuSans-39" d="M 703 97 
L 703 672 
Q 941 559 1184 500 
Q 1428 441 1663 441 
Q 2288 441 2617 861 
Q 2947 1281 2994 2138 
Q 2813 1869 2534 1725 
Q 2256 1581 1919 1581 
Q 1219 1581 811 2004 
Q 403 2428 403 3163 
Q 403 3881 828 4315 
Q 1253 4750 1959 4750 
Q 2769 4750 3195 4129 
Q 3622 3509 3622 2328 
Q 3622 1225 3098 567 
Q 2575 -91 1691 -91 
Q 1453 -91 1209 -44 
Q 966 3 703 97 
z
M 1959 2075 
Q 2384 2075 2632 2365 
Q 2881 2656 2881 3163 
Q 2881 3666 2632 3958 
Q 2384 4250 1959 4250 
Q 1534 4250 1286 3958 
Q 1038 3666 1038 3163 
Q 1038 2656 1286 2365 
Q 1534 2075 1959 2075 
z
" transform="scale(0.015625)"/>
     </defs>
     <use xlink:href="#DejaVuSans-4e"/>
     <use xlink:href="#DejaVuSans-20" x="74.804688"/>
     <use xlink:href="#DejaVuSans-3d" x="106.591797"/>
     <use xlink:href="#DejaVuSans-20" x="190.380859"/>
     <use xlink:href="#DejaVuSans-39" x="222.167969"/>
     <use xlink:href="#DejaVuSans-30" x="285.791016"/>
     <use xlink:href="#DejaVuSans-30" x="349.414062"/>
    </g>
   </g>
   <g id="legend_2">
    <g id="patch_73">
     <path d="M 448.6 48.138438 
L 558.2 48.138438 
Q 560.2 48.138438 560.2 46.138438 
L 560.2 32.44 
Q 560.2 30.44 558.2 30.44 
L 448.6 30.44 
Q 446.6 30.44 446.6 32.44 
L 446.6 46.138438 
Q 446.6 48.138438 448.6 48.138438 
z
" style="fill: #ffffff; opacity: 0.8; stroke: #cccccc; stroke-linejoin: miter"/>
    </g>
    <g id="line2d_23">
     <path d="M 450.6 38.538438 
L 460.6 38.538438 
L 470.6 38.538438 
" style="fill: none; stroke: #ff0000; stroke-width: 2; stroke-linecap: square"/>
    </g>
    <g id="text_24">
     <!-- $\mu = 0; \sigma = 0.015$ -->
     <g transform="translate(478.6 42.038438) scale(0.1 -0.1)">
      <defs>
       <path id="DejaVuSans-35" d="M 691 4666 
L 3169 4666 
L 3169 4134 
L 1269 4134 
L 1269 2991 
Q 1406 3038 1543 3061 
Q 1681 3084 1819 3084 
Q 2600 3084 3056 2656 
Q 3513 2228 3513 1497 
Q 3513 744 3044 326 
Q 2575 -91 1722 -91 
Q 1428 -91 1123 -41 
Q 819 9 494 109 
L 494 744 
Q 775 591 1075 516 
Q 1375 441 1709 441 
Q 2250 441 2565 725 
Q 2881 1009 2881 1497 
Q 2881 1984 2565 2268 
Q 2250 2553 1709 2553 
Q 1456 2553 1204 2497 
Q 953 2441 691 2322 
L 691 4666 
z
" transform="scale(0.015625)"/>
      </defs>
      <use xlink:href="#DejaVuSans-Oblique-3bc" transform="translate(0 0.78125)"/>
      <use xlink:href="#DejaVuSans-3d" transform="translate(83.105469 0.78125)"/>
      <use xlink:href="#DejaVuSans-30" transform="translate(186.376953 0.78125)"/>
      <use xlink:href="#DejaVuSans-3b" transform="translate(250 0.78125)"/>
      <use xlink:href="#DejaVuSans-Oblique-3c3" transform="translate(303.173828 0.78125)"/>
      <use xlink:href="#DejaVuSans-3d" transform="translate(386.035156 0.78125)"/>
      <use xlink:href="#DejaVuSans-30" transform="translate(489.306641 0.78125)"/>
      <use xlink:href="#DejaVuSans-2e" transform="translate(552.929688 0.78125)"/>
      <use xlink:href="#DejaVuSans-30" transform="translate(584.716797 0.78125)"/>
      <use xlink:href="#DejaVuSans-31" transform="translate(648.339844 0.78125)"/>
      <use xlink:href="#DejaVuSans-35" transform="translate(711.962891 0.78125)"/>
     </g>
    </g>
   </g>
  </g>
 </g>
 <defs>
  <clipPath id="pd3897915d3">
   <rect x="24.19" y="25.44" width="252.219605" height="100.6"/>
  </clipPath>
  <clipPath id="pc96716da14">
   <rect x="312.980395" y="25.44" width="252.219605" height="100.6"/>
  </clipPath>
 </defs>
</svg>
