<?xml version="1.0" encoding="utf-8" standalone="no"?>
<!DOCTYPE svg PUBLIC "-//W3C//DTD SVG 1.1//EN"
  "http://www.w3.org/Graphics/SVG/1.1/DTD/svg11.dtd">
<svg xmlns:xlink="http://www.w3.org/1999/xlink" width="432pt" height="288pt" viewBox="0 0 432 288" xmlns="http://www.w3.org/2000/svg" version="1.1">
 <metadata>
  <rdf:RDF xmlns:dc="http://purl.org/dc/elements/1.1/" xmlns:cc="http://creativecommons.org/ns#" xmlns:rdf="http://www.w3.org/1999/02/22-rdf-syntax-ns#">
   <cc:Work>
    <dc:type rdf:resource="http://purl.org/dc/dcmitype/StillImage"/>
    <dc:date>2023-03-17T15:54:02.099539</dc:date>
    <dc:format>image/svg+xml</dc:format>
    <dc:creator>
     <cc:Agent>
      <dc:title>Matplotlib v3.6.2, https://matplotlib.org/</dc:title>
     </cc:Agent>
    </dc:creator>
   </cc:Work>
  </rdf:RDF>
 </metadata>
 <defs>
  <style type="text/css">*{stroke-linejoin: round; stroke-linecap: butt}</style>
 </defs>
 <g id="figure_1">
  <g id="patch_1">
   <path d="M 0 288 
L 432 288 
L 432 0 
L 0 0 
z
" style="fill: #ffffff"/>
  </g>
  <g id="axes_1">
   <g id="patch_2">
    <path d="M 60.468889 242.728 
L 421.2 242.728 
L 421.2 25.44 
L 60.468889 25.44 
z
" style="fill: #ffffff"/>
   </g>
   <g id="PolyCollection_1">
    <path d="M 78.477357 39.379824 
L 78.477357 45.594856 
L 81.700555 45.647097 
L 84.923754 45.70154 
L 88.146952 45.758279 
L 91.37015 45.817413 
L 94.593348 45.879044 
L 97.816546 45.943281 
L 101.039745 46.010239 
L 104.262943 46.08004 
L 107.486141 46.152811 
L 110.709339 46.228687 
L 113.932538 46.307811 
L 117.155736 46.390331 
L 120.378934 46.476407 
L 123.602132 46.566206 
L 126.825331 46.659905 
L 130.048529 46.757691 
L 133.271727 46.859761 
L 136.494925 46.966323 
L 139.718123 47.077599 
L 142.941322 47.193821 
L 146.16452 47.315237 
L 149.387718 47.442107 
L 152.610916 47.574707 
L 155.834115 47.71333 
L 159.057313 47.858286 
L 162.280511 48.009902 
L 165.503709 48.168526 
L 168.726907 48.334525 
L 171.950106 48.508289 
L 175.173304 48.690231 
L 178.396502 48.88079 
L 181.6197 49.080429 
L 184.842899 49.289643 
L 188.066097 49.508953 
L 191.289295 49.738916 
L 194.512493 49.98012 
L 197.735691 50.233192 
L 200.95889 50.498797 
L 204.182088 50.777642 
L 207.405286 51.070479 
L 210.628484 51.378109 
L 213.851683 51.701382 
L 217.074881 52.041204 
L 220.298079 52.39854 
L 223.521277 52.774419 
L 226.744476 53.169936 
L 229.967674 53.586259 
L 233.190872 54.024637 
L 236.41407 54.486398 
L 239.637268 54.972966 
L 242.860467 55.485856 
L 246.083665 56.026692 
L 249.306863 56.597207 
L 252.530061 57.199255 
L 255.75326 57.83482 
L 258.976458 58.506024 
L 262.199656 59.215136 
L 265.422854 59.964586 
L 268.646052 60.756972 
L 271.869251 61.595072 
L 275.092449 62.481858 
L 278.315647 63.420505 
L 281.538845 64.414406 
L 284.762044 65.46718 
L 287.985242 66.582688 
L 291.20844 67.765043 
L 294.431638 69.018625 
L 297.654836 70.348095 
L 300.878035 71.758405 
L 304.101233 73.254821 
L 307.324431 74.842934 
L 310.547629 76.528689 
L 313.770828 78.318404 
L 316.994026 80.218803 
L 320.217224 82.237054 
L 323.440422 84.380812 
L 326.663621 86.658276 
L 329.886819 89.078252 
L 333.110017 91.650238 
L 336.333215 94.384521 
L 339.556413 97.292297 
L 342.779612 100.385828 
L 346.00281 103.678629 
L 349.226008 107.185717 
L 352.449206 110.923929 
L 355.672405 114.912349 
L 358.895603 119.172888 
L 362.118801 123.731103 
L 365.341999 128.617368 
L 368.565197 133.86863 
L 371.788396 139.531132 
L 375.011594 145.664845 
L 378.234792 152.351099 
L 381.45799 159.706689 
L 384.681189 167.912465 
L 387.904387 177.279092 
L 391.127585 188.429163 
L 394.350783 202.987381 
L 397.573981 229.093615 
L 397.573981 156.671286 
L 397.573981 156.671286 
L 394.350783 150.540181 
L 391.127585 144.744594 
L 387.904387 139.265749 
L 384.681189 134.085877 
L 381.45799 129.188166 
L 378.234792 124.556711 
L 375.011594 120.176468 
L 371.788396 116.033206 
L 368.565197 112.113471 
L 365.341999 108.404541 
L 362.118801 104.894393 
L 358.895603 101.571668 
L 355.672405 98.425635 
L 352.449206 95.446162 
L 349.226008 92.623691 
L 346.00281 89.949204 
L 342.779612 87.414204 
L 339.556413 85.01069 
L 336.333215 82.731133 
L 333.110017 80.568457 
L 329.886819 78.51602 
L 326.663621 76.567594 
L 323.440422 74.717343 
L 320.217224 72.959811 
L 316.994026 71.289895 
L 313.770828 69.702835 
L 310.547629 68.194184 
L 307.324431 66.759795 
L 304.101233 65.395798 
L 300.878035 64.098578 
L 297.654836 62.864756 
L 294.431638 61.691168 
L 291.20844 60.574846 
L 287.985242 59.512998 
L 284.762044 58.502994 
L 281.538845 57.542348 
L 278.315647 56.628706 
L 275.092449 55.759834 
L 271.869251 54.933607 
L 268.646052 54.148001 
L 265.422854 53.401082 
L 262.199656 52.691007 
L 258.976458 52.016012 
L 255.75326 51.374409 
L 252.530061 50.764585 
L 249.306863 50.184995 
L 246.083665 49.634162 
L 242.860467 49.11067 
L 239.637268 48.613168 
L 236.41407 48.140363 
L 233.190872 47.691019 
L 229.967674 47.263956 
L 226.744476 46.858044 
L 223.521277 46.47221 
L 220.298079 46.105425 
L 217.074881 45.75671 
L 213.851683 45.425131 
L 210.628484 45.1098 
L 207.405286 44.809868 
L 204.182088 44.524529 
L 200.95889 44.253016 
L 197.735691 43.994596 
L 194.512493 43.748575 
L 191.289295 43.514292 
L 188.066097 43.291119 
L 184.842899 43.078458 
L 181.6197 42.875743 
L 178.396502 42.682433 
L 175.173304 42.498016 
L 171.950106 42.322008 
L 168.726907 42.153946 
L 165.503709 41.993391 
L 162.280511 41.839929 
L 159.057313 41.693165 
L 155.834115 41.552724 
L 152.610916 41.418251 
L 149.387718 41.289411 
L 146.16452 41.165883 
L 142.941322 41.047366 
L 139.718123 40.933571 
L 136.494925 40.824228 
L 133.271727 40.719079 
L 130.048529 40.617879 
L 126.825331 40.520398 
L 123.602132 40.426416 
L 120.378934 40.335726 
L 117.155736 40.248132 
L 113.932538 40.163448 
L 110.709339 40.081497 
L 107.486141 40.002114 
L 104.262943 39.92514 
L 101.039745 39.850428 
L 97.816546 39.777835 
L 94.593348 39.707229 
L 91.37015 39.638483 
L 88.146952 39.571479 
L 84.923754 39.506105 
L 81.700555 39.442253 
L 78.477357 39.379824 
z
" clip-path="url(#pbb140c750d)" style="fill: #008000; fill-opacity: 0.5"/>
   </g>
   <g id="PolyCollection_2">
    <path d="M 78.477357 41.556678 
L 78.477357 42.870375 
L 81.700555 42.902535 
L 84.923754 42.937267 
L 88.146952 42.97474 
L 91.37015 43.015131 
L 94.593348 43.058632 
L 97.816546 43.105446 
L 101.039745 43.155791 
L 104.262943 43.209893 
L 107.486141 43.267991 
L 110.709339 43.330332 
L 113.932538 43.397167 
L 117.155736 43.468749 
L 120.378934 43.545329 
L 123.602132 43.627149 
L 126.825331 43.714439 
L 130.048529 43.807415 
L 133.271727 43.906271 
L 136.494925 44.011185 
L 139.718123 44.122317 
L 142.941322 44.239814 
L 146.16452 44.363816 
L 149.387718 44.494463 
L 152.610916 44.631898 
L 155.834115 44.776279 
L 159.057313 44.927781 
L 162.280511 45.086603 
L 165.503709 45.252971 
L 168.726907 45.427143 
L 171.950106 45.60941 
L 175.173304 45.800097 
L 178.396502 45.99957 
L 181.6197 46.208231 
L 184.842899 46.426524 
L 188.066097 46.654939 
L 191.289295 46.894008 
L 194.512493 47.144312 
L 197.735691 47.406482 
L 200.95889 47.681203 
L 204.182088 47.969218 
L 207.405286 48.271328 
L 210.628484 48.588402 
L 213.851683 48.921375 
L 217.074881 49.271258 
L 220.298079 49.639141 
L 223.521277 50.026196 
L 226.744476 50.433683 
L 229.967674 50.862957 
L 233.190872 51.315466 
L 236.41407 51.79276 
L 239.637268 52.296491 
L 242.860467 52.828418 
L 246.083665 53.390401 
L 249.306863 53.984412 
L 252.530061 54.612526 
L 255.75326 55.27693 
L 258.976458 55.979918 
L 262.199656 56.723897 
L 265.422854 57.511393 
L 268.646052 58.345051 
L 271.869251 59.22765 
L 275.092449 60.162105 
L 278.315647 61.151488 
L 281.538845 62.199033 
L 284.762044 63.308155 
L 287.985242 64.482466 
L 291.20844 65.725793 
L 294.431638 67.042196 
L 297.654836 68.435991 
L 300.878035 69.91177 
L 304.101233 71.47443 
L 307.324431 73.129193 
L 310.547629 74.881646 
L 313.770828 76.737764 
L 316.994026 78.703957 
L 320.217224 80.787108 
L 323.440422 82.994627 
L 326.663621 85.334505 
L 329.886819 87.815389 
L 333.110017 90.44666 
L 336.333215 93.238536 
L 339.556413 96.20219 
L 342.779612 99.349908 
L 346.00281 102.695278 
L 349.226008 106.25344 
L 352.449206 110.041408 
L 355.672405 114.078509 
L 358.895603 118.386977 
L 362.118801 122.992797 
L 365.341999 127.926918 
L 368.565197 133.22708 
L 371.788396 138.940668 
L 375.011594 145.129363 
L 378.234792 151.87723 
L 381.45799 159.305763 
L 384.681189 167.604731 
L 387.904387 177.104177 
L 391.127585 188.478573 
L 394.350783 203.555218 
L 397.573981 232.851273 
L 397.573981 156.640593 
L 397.573981 156.640593 
L 394.350783 150.52768 
L 391.127585 144.751524 
L 387.904387 139.293421 
L 384.681189 134.135677 
L 381.45799 129.261558 
L 378.234792 124.655241 
L 375.011594 120.301763 
L 371.788396 116.186979 
L 368.565197 112.297518 
L 365.341999 108.620745 
L 362.118801 105.144718 
L 358.895603 101.858156 
L 355.672405 98.750401 
L 352.449206 95.811387 
L 349.226008 93.031605 
L 346.00281 90.402078 
L 342.779612 87.914329 
L 339.556413 85.560356 
L 336.333215 83.332603 
L 333.110017 81.22394 
L 329.886819 79.227635 
L 326.663621 77.337337 
L 323.440422 75.54705 
L 320.217224 73.851118 
L 316.994026 72.244201 
L 313.770828 70.721264 
L 310.547629 69.277552 
L 307.324431 67.908583 
L 304.101233 66.610126 
L 300.878035 65.378192 
L 297.654836 64.20902 
L 294.431638 63.099064 
L 291.20844 62.044983 
L 287.985242 61.043632 
L 284.762044 60.092052 
L 281.538845 59.187461 
L 278.315647 58.327251 
L 275.092449 57.508976 
L 271.869251 56.730346 
L 268.646052 55.989227 
L 265.422854 55.283627 
L 262.199656 54.611695 
L 258.976458 53.971712 
L 255.75326 53.362081 
L 252.530061 52.781322 
L 249.306863 52.228061 
L 246.083665 51.701019 
L 242.860467 51.199001 
L 239.637268 50.720888 
L 236.41407 50.265625 
L 233.190872 49.832212 
L 229.967674 49.419699 
L 226.744476 49.027174 
L 223.521277 48.653762 
L 220.298079 48.298619 
L 217.074881 47.960929 
L 213.851683 47.6399 
L 210.628484 47.334767 
L 207.405286 47.044784 
L 204.182088 46.769229 
L 200.95889 46.507401 
L 197.735691 46.258617 
L 194.512493 46.022217 
L 191.289295 45.797557 
L 188.066097 45.584014 
L 184.842899 45.380981 
L 181.6197 45.187868 
L 178.396502 45.004099 
L 175.173304 44.829113 
L 171.950106 44.662363 
L 168.726907 44.503311 
L 165.503709 44.351434 
L 162.280511 44.206214 
L 159.057313 44.067146 
L 155.834115 43.933735 
L 152.610916 43.805496 
L 149.387718 43.681959 
L 146.16452 43.562667 
L 142.941322 43.447187 
L 139.718123 43.335108 
L 136.494925 43.226052 
L 133.271727 43.119675 
L 130.048529 43.015672 
L 126.825331 42.913779 
L 123.602132 42.813776 
L 120.378934 42.715483 
L 117.155736 42.618756 
L 113.932538 42.523485 
L 110.709339 42.429585 
L 107.486141 42.336992 
L 104.262943 42.245659 
L 101.039745 42.155547 
L 97.816546 42.066626 
L 94.593348 41.978869 
L 91.37015 41.892251 
L 88.146952 41.806748 
L 84.923754 41.722336 
L 81.700555 41.638988 
L 78.477357 41.556678 
z
" clip-path="url(#pbb140c750d)" style="fill: #ff0000; fill-opacity: 0.6"/>
   </g>
   <g id="matplotlib.axis_1">
    <g id="xtick_1">
     <g id="line2d_1">
      <defs>
       <path id="m03458ebd08" d="M 0 0 
L 0 3.5 
" style="stroke: #000000; stroke-width: 0.8"/>
      </defs>
      <g>
       <use xlink:href="#m03458ebd08" x="136.240462" y="242.728" style="stroke: #000000; stroke-width: 0.8"/>
      </g>
     </g>
     <g id="text_1">
      <!-- $\mathdefault{10^{0}}$ -->
      <g transform="translate(127.440462 257.326437) scale(0.1 -0.1)">
       <defs>
        <path id="DejaVuSans-31" d="M 794 531 
L 1825 531 
L 1825 4091 
L 703 3866 
L 703 4441 
L 1819 4666 
L 2450 4666 
L 2450 531 
L 3481 531 
L 3481 0 
L 794 0 
L 794 531 
z
" transform="scale(0.015625)"/>
        <path id="DejaVuSans-30" d="M 2034 4250 
Q 1547 4250 1301 3770 
Q 1056 3291 1056 2328 
Q 1056 1369 1301 889 
Q 1547 409 2034 409 
Q 2525 409 2770 889 
Q 3016 1369 3016 2328 
Q 3016 3291 2770 3770 
Q 2525 4250 2034 4250 
z
M 2034 4750 
Q 2819 4750 3233 4129 
Q 3647 3509 3647 2328 
Q 3647 1150 3233 529 
Q 2819 -91 2034 -91 
Q 1250 -91 836 529 
Q 422 1150 422 2328 
Q 422 3509 836 4129 
Q 1250 4750 2034 4750 
z
" transform="scale(0.015625)"/>
       </defs>
       <use xlink:href="#DejaVuSans-31" transform="translate(0 0.765625)"/>
       <use xlink:href="#DejaVuSans-30" transform="translate(63.623047 0.765625)"/>
       <use xlink:href="#DejaVuSans-30" transform="translate(128.203125 39.046875) scale(0.7)"/>
      </g>
     </g>
    </g>
    <g id="xtick_2">
     <g id="line2d_2">
      <g>
       <use xlink:href="#m03458ebd08" x="271.954072" y="242.728" style="stroke: #000000; stroke-width: 0.8"/>
      </g>
     </g>
     <g id="text_2">
      <!-- $\mathdefault{10^{1}}$ -->
      <g transform="translate(263.154072 257.326437) scale(0.1 -0.1)">
       <use xlink:href="#DejaVuSans-31" transform="translate(0 0.684375)"/>
       <use xlink:href="#DejaVuSans-30" transform="translate(63.623047 0.684375)"/>
       <use xlink:href="#DejaVuSans-31" transform="translate(128.203125 38.965625) scale(0.7)"/>
      </g>
     </g>
    </g>
    <g id="xtick_3">
     <g id="line2d_3">
      <g>
       <use xlink:href="#m03458ebd08" x="407.667682" y="242.728" style="stroke: #000000; stroke-width: 0.8"/>
      </g>
     </g>
     <g id="text_3">
      <!-- $\mathdefault{10^{2}}$ -->
      <g transform="translate(398.867682 257.326437) scale(0.1 -0.1)">
       <defs>
        <path id="DejaVuSans-32" d="M 1228 531 
L 3431 531 
L 3431 0 
L 469 0 
L 469 531 
Q 828 903 1448 1529 
Q 2069 2156 2228 2338 
Q 2531 2678 2651 2914 
Q 2772 3150 2772 3378 
Q 2772 3750 2511 3984 
Q 2250 4219 1831 4219 
Q 1534 4219 1204 4116 
Q 875 4013 500 3803 
L 500 4441 
Q 881 4594 1212 4672 
Q 1544 4750 1819 4750 
Q 2544 4750 2975 4387 
Q 3406 4025 3406 3419 
Q 3406 3131 3298 2873 
Q 3191 2616 2906 2266 
Q 2828 2175 2409 1742 
Q 1991 1309 1228 531 
z
" transform="scale(0.015625)"/>
       </defs>
       <use xlink:href="#DejaVuSans-31" transform="translate(0 0.765625)"/>
       <use xlink:href="#DejaVuSans-30" transform="translate(63.623047 0.765625)"/>
       <use xlink:href="#DejaVuSans-32" transform="translate(128.203125 39.046875) scale(0.7)"/>
      </g>
     </g>
    </g>
    <g id="xtick_4">
     <g id="line2d_4">
      <defs>
       <path id="m7ae42c31a1" d="M 0 0 
L 0 2 
" style="stroke: #000000; stroke-width: 0.6"/>
      </defs>
      <g>
       <use xlink:href="#m7ae42c31a1" x="65.2787" y="242.728" style="stroke: #000000; stroke-width: 0.6"/>
      </g>
     </g>
    </g>
    <g id="xtick_5">
     <g id="line2d_5">
      <g>
       <use xlink:href="#m7ae42c31a1" x="82.234587" y="242.728" style="stroke: #000000; stroke-width: 0.6"/>
      </g>
     </g>
    </g>
    <g id="xtick_6">
     <g id="line2d_6">
      <g>
       <use xlink:href="#m7ae42c31a1" x="95.386594" y="242.728" style="stroke: #000000; stroke-width: 0.6"/>
      </g>
     </g>
    </g>
    <g id="xtick_7">
     <g id="line2d_7">
      <g>
       <use xlink:href="#m7ae42c31a1" x="106.132567" y="242.728" style="stroke: #000000; stroke-width: 0.6"/>
      </g>
     </g>
    </g>
    <g id="xtick_8">
     <g id="line2d_8">
      <g>
       <use xlink:href="#m7ae42c31a1" x="115.218158" y="242.728" style="stroke: #000000; stroke-width: 0.6"/>
      </g>
     </g>
    </g>
    <g id="xtick_9">
     <g id="line2d_9">
      <g>
       <use xlink:href="#m7ae42c31a1" x="123.088454" y="242.728" style="stroke: #000000; stroke-width: 0.6"/>
      </g>
     </g>
    </g>
    <g id="xtick_10">
     <g id="line2d_10">
      <g>
       <use xlink:href="#m7ae42c31a1" x="130.030548" y="242.728" style="stroke: #000000; stroke-width: 0.6"/>
      </g>
     </g>
    </g>
    <g id="xtick_11">
     <g id="line2d_11">
      <g>
       <use xlink:href="#m7ae42c31a1" x="177.094329" y="242.728" style="stroke: #000000; stroke-width: 0.6"/>
      </g>
     </g>
    </g>
    <g id="xtick_12">
     <g id="line2d_12">
      <g>
       <use xlink:href="#m7ae42c31a1" x="200.99231" y="242.728" style="stroke: #000000; stroke-width: 0.6"/>
      </g>
     </g>
    </g>
    <g id="xtick_13">
     <g id="line2d_13">
      <g>
       <use xlink:href="#m7ae42c31a1" x="217.948197" y="242.728" style="stroke: #000000; stroke-width: 0.6"/>
      </g>
     </g>
    </g>
    <g id="xtick_14">
     <g id="line2d_14">
      <g>
       <use xlink:href="#m7ae42c31a1" x="231.100205" y="242.728" style="stroke: #000000; stroke-width: 0.6"/>
      </g>
     </g>
    </g>
    <g id="xtick_15">
     <g id="line2d_15">
      <g>
       <use xlink:href="#m7ae42c31a1" x="241.846177" y="242.728" style="stroke: #000000; stroke-width: 0.6"/>
      </g>
     </g>
    </g>
    <g id="xtick_16">
     <g id="line2d_16">
      <g>
       <use xlink:href="#m7ae42c31a1" x="250.931768" y="242.728" style="stroke: #000000; stroke-width: 0.6"/>
      </g>
     </g>
    </g>
    <g id="xtick_17">
     <g id="line2d_17">
      <g>
       <use xlink:href="#m7ae42c31a1" x="258.802064" y="242.728" style="stroke: #000000; stroke-width: 0.6"/>
      </g>
     </g>
    </g>
    <g id="xtick_18">
     <g id="line2d_18">
      <g>
       <use xlink:href="#m7ae42c31a1" x="265.744158" y="242.728" style="stroke: #000000; stroke-width: 0.6"/>
      </g>
     </g>
    </g>
    <g id="xtick_19">
     <g id="line2d_19">
      <g>
       <use xlink:href="#m7ae42c31a1" x="312.80794" y="242.728" style="stroke: #000000; stroke-width: 0.6"/>
      </g>
     </g>
    </g>
    <g id="xtick_20">
     <g id="line2d_20">
      <g>
       <use xlink:href="#m7ae42c31a1" x="336.70592" y="242.728" style="stroke: #000000; stroke-width: 0.6"/>
      </g>
     </g>
    </g>
    <g id="xtick_21">
     <g id="line2d_21">
      <g>
       <use xlink:href="#m7ae42c31a1" x="353.661807" y="242.728" style="stroke: #000000; stroke-width: 0.6"/>
      </g>
     </g>
    </g>
    <g id="xtick_22">
     <g id="line2d_22">
      <g>
       <use xlink:href="#m7ae42c31a1" x="366.813815" y="242.728" style="stroke: #000000; stroke-width: 0.6"/>
      </g>
     </g>
    </g>
    <g id="xtick_23">
     <g id="line2d_23">
      <g>
       <use xlink:href="#m7ae42c31a1" x="377.559788" y="242.728" style="stroke: #000000; stroke-width: 0.6"/>
      </g>
     </g>
    </g>
    <g id="xtick_24">
     <g id="line2d_24">
      <g>
       <use xlink:href="#m7ae42c31a1" x="386.645378" y="242.728" style="stroke: #000000; stroke-width: 0.6"/>
      </g>
     </g>
    </g>
    <g id="xtick_25">
     <g id="line2d_25">
      <g>
       <use xlink:href="#m7ae42c31a1" x="394.515675" y="242.728" style="stroke: #000000; stroke-width: 0.6"/>
      </g>
     </g>
    </g>
    <g id="xtick_26">
     <g id="line2d_26">
      <g>
       <use xlink:href="#m7ae42c31a1" x="401.457768" y="242.728" style="stroke: #000000; stroke-width: 0.6"/>
      </g>
     </g>
    </g>
    <g id="text_4">
     <!-- Energy [TeV] -->
     <g transform="translate(209.136788 271.004562) scale(0.1 -0.1)">
      <defs>
       <path id="DejaVuSans-45" d="M 628 4666 
L 3578 4666 
L 3578 4134 
L 1259 4134 
L 1259 2753 
L 3481 2753 
L 3481 2222 
L 1259 2222 
L 1259 531 
L 3634 531 
L 3634 0 
L 628 0 
L 628 4666 
z
" transform="scale(0.015625)"/>
       <path id="DejaVuSans-6e" d="M 3513 2113 
L 3513 0 
L 2938 0 
L 2938 2094 
Q 2938 2591 2744 2837 
Q 2550 3084 2163 3084 
Q 1697 3084 1428 2787 
Q 1159 2491 1159 1978 
L 1159 0 
L 581 0 
L 581 3500 
L 1159 3500 
L 1159 2956 
Q 1366 3272 1645 3428 
Q 1925 3584 2291 3584 
Q 2894 3584 3203 3211 
Q 3513 2838 3513 2113 
z
" transform="scale(0.015625)"/>
       <path id="DejaVuSans-65" d="M 3597 1894 
L 3597 1613 
L 953 1613 
Q 991 1019 1311 708 
Q 1631 397 2203 397 
Q 2534 397 2845 478 
Q 3156 559 3463 722 
L 3463 178 
Q 3153 47 2828 -22 
Q 2503 -91 2169 -91 
Q 1331 -91 842 396 
Q 353 884 353 1716 
Q 353 2575 817 3079 
Q 1281 3584 2069 3584 
Q 2775 3584 3186 3129 
Q 3597 2675 3597 1894 
z
M 3022 2063 
Q 3016 2534 2758 2815 
Q 2500 3097 2075 3097 
Q 1594 3097 1305 2825 
Q 1016 2553 972 2059 
L 3022 2063 
z
" transform="scale(0.015625)"/>
       <path id="DejaVuSans-72" d="M 2631 2963 
Q 2534 3019 2420 3045 
Q 2306 3072 2169 3072 
Q 1681 3072 1420 2755 
Q 1159 2438 1159 1844 
L 1159 0 
L 581 0 
L 581 3500 
L 1159 3500 
L 1159 2956 
Q 1341 3275 1631 3429 
Q 1922 3584 2338 3584 
Q 2397 3584 2469 3576 
Q 2541 3569 2628 3553 
L 2631 2963 
z
" transform="scale(0.015625)"/>
       <path id="DejaVuSans-67" d="M 2906 1791 
Q 2906 2416 2648 2759 
Q 2391 3103 1925 3103 
Q 1463 3103 1205 2759 
Q 947 2416 947 1791 
Q 947 1169 1205 825 
Q 1463 481 1925 481 
Q 2391 481 2648 825 
Q 2906 1169 2906 1791 
z
M 3481 434 
Q 3481 -459 3084 -895 
Q 2688 -1331 1869 -1331 
Q 1566 -1331 1297 -1286 
Q 1028 -1241 775 -1147 
L 775 -588 
Q 1028 -725 1275 -790 
Q 1522 -856 1778 -856 
Q 2344 -856 2625 -561 
Q 2906 -266 2906 331 
L 2906 616 
Q 2728 306 2450 153 
Q 2172 0 1784 0 
Q 1141 0 747 490 
Q 353 981 353 1791 
Q 353 2603 747 3093 
Q 1141 3584 1784 3584 
Q 2172 3584 2450 3431 
Q 2728 3278 2906 2969 
L 2906 3500 
L 3481 3500 
L 3481 434 
z
" transform="scale(0.015625)"/>
       <path id="DejaVuSans-79" d="M 2059 -325 
Q 1816 -950 1584 -1140 
Q 1353 -1331 966 -1331 
L 506 -1331 
L 506 -850 
L 844 -850 
Q 1081 -850 1212 -737 
Q 1344 -625 1503 -206 
L 1606 56 
L 191 3500 
L 800 3500 
L 1894 763 
L 2988 3500 
L 3597 3500 
L 2059 -325 
z
" transform="scale(0.015625)"/>
       <path id="DejaVuSans-20" transform="scale(0.015625)"/>
       <path id="DejaVuSans-5b" d="M 550 4863 
L 1875 4863 
L 1875 4416 
L 1125 4416 
L 1125 -397 
L 1875 -397 
L 1875 -844 
L 550 -844 
L 550 4863 
z
" transform="scale(0.015625)"/>
       <path id="DejaVuSans-54" d="M -19 4666 
L 3928 4666 
L 3928 4134 
L 2272 4134 
L 2272 0 
L 1638 0 
L 1638 4134 
L -19 4134 
L -19 4666 
z
" transform="scale(0.015625)"/>
       <path id="DejaVuSans-56" d="M 1831 0 
L 50 4666 
L 709 4666 
L 2188 738 
L 3669 4666 
L 4325 4666 
L 2547 0 
L 1831 0 
z
" transform="scale(0.015625)"/>
       <path id="DejaVuSans-5d" d="M 1947 4863 
L 1947 -844 
L 622 -844 
L 622 -397 
L 1369 -397 
L 1369 4416 
L 622 4416 
L 622 4863 
L 1947 4863 
z
" transform="scale(0.015625)"/>
      </defs>
      <use xlink:href="#DejaVuSans-45"/>
      <use xlink:href="#DejaVuSans-6e" x="63.183594"/>
      <use xlink:href="#DejaVuSans-65" x="126.5625"/>
      <use xlink:href="#DejaVuSans-72" x="188.085938"/>
      <use xlink:href="#DejaVuSans-67" x="227.449219"/>
      <use xlink:href="#DejaVuSans-79" x="290.925781"/>
      <use xlink:href="#DejaVuSans-20" x="350.105469"/>
      <use xlink:href="#DejaVuSans-5b" x="381.892578"/>
      <use xlink:href="#DejaVuSans-54" x="420.90625"/>
      <use xlink:href="#DejaVuSans-65" x="464.990234"/>
      <use xlink:href="#DejaVuSans-56" x="526.513672"/>
      <use xlink:href="#DejaVuSans-5d" x="594.921875"/>
     </g>
    </g>
   </g>
   <g id="matplotlib.axis_2">
    <g id="ytick_1">
     <g id="line2d_27">
      <defs>
       <path id="m36d8e64dd5" d="M 0 0 
L -3.5 0 
" style="stroke: #000000; stroke-width: 0.8"/>
      </defs>
      <g>
       <use xlink:href="#m36d8e64dd5" x="60.468889" y="210.952808" style="stroke: #000000; stroke-width: 0.8"/>
      </g>
     </g>
     <g id="text_5">
      <!-- $\mathdefault{10^{-16}}$ -->
      <g transform="translate(25.568889 214.752027) scale(0.1 -0.1)">
       <defs>
        <path id="DejaVuSans-2212" d="M 678 2272 
L 4684 2272 
L 4684 1741 
L 678 1741 
L 678 2272 
z
" transform="scale(0.015625)"/>
        <path id="DejaVuSans-36" d="M 2113 2584 
Q 1688 2584 1439 2293 
Q 1191 2003 1191 1497 
Q 1191 994 1439 701 
Q 1688 409 2113 409 
Q 2538 409 2786 701 
Q 3034 994 3034 1497 
Q 3034 2003 2786 2293 
Q 2538 2584 2113 2584 
z
M 3366 4563 
L 3366 3988 
Q 3128 4100 2886 4159 
Q 2644 4219 2406 4219 
Q 1781 4219 1451 3797 
Q 1122 3375 1075 2522 
Q 1259 2794 1537 2939 
Q 1816 3084 2150 3084 
Q 2853 3084 3261 2657 
Q 3669 2231 3669 1497 
Q 3669 778 3244 343 
Q 2819 -91 2113 -91 
Q 1303 -91 875 529 
Q 447 1150 447 2328 
Q 447 3434 972 4092 
Q 1497 4750 2381 4750 
Q 2619 4750 2861 4703 
Q 3103 4656 3366 4563 
z
" transform="scale(0.015625)"/>
       </defs>
       <use xlink:href="#DejaVuSans-31" transform="translate(0 0.765625)"/>
       <use xlink:href="#DejaVuSans-30" transform="translate(63.623047 0.765625)"/>
       <use xlink:href="#DejaVuSans-2212" transform="translate(128.203125 39.046875) scale(0.7)"/>
       <use xlink:href="#DejaVuSans-31" transform="translate(186.855469 39.046875) scale(0.7)"/>
       <use xlink:href="#DejaVuSans-36" transform="translate(231.391602 39.046875) scale(0.7)"/>
      </g>
     </g>
    </g>
    <g id="ytick_2">
     <g id="line2d_28">
      <g>
       <use xlink:href="#m36d8e64dd5" x="60.468889" y="172.90315" style="stroke: #000000; stroke-width: 0.8"/>
      </g>
     </g>
     <g id="text_6">
      <!-- $\mathdefault{10^{-15}}$ -->
      <g transform="translate(25.568889 176.702368) scale(0.1 -0.1)">
       <defs>
        <path id="DejaVuSans-35" d="M 691 4666 
L 3169 4666 
L 3169 4134 
L 1269 4134 
L 1269 2991 
Q 1406 3038 1543 3061 
Q 1681 3084 1819 3084 
Q 2600 3084 3056 2656 
Q 3513 2228 3513 1497 
Q 3513 744 3044 326 
Q 2575 -91 1722 -91 
Q 1428 -91 1123 -41 
Q 819 9 494 109 
L 494 744 
Q 775 591 1075 516 
Q 1375 441 1709 441 
Q 2250 441 2565 725 
Q 2881 1009 2881 1497 
Q 2881 1984 2565 2268 
Q 2250 2553 1709 2553 
Q 1456 2553 1204 2497 
Q 953 2441 691 2322 
L 691 4666 
z
" transform="scale(0.015625)"/>
       </defs>
       <use xlink:href="#DejaVuSans-31" transform="translate(0 0.684375)"/>
       <use xlink:href="#DejaVuSans-30" transform="translate(63.623047 0.684375)"/>
       <use xlink:href="#DejaVuSans-2212" transform="translate(128.203125 38.965625) scale(0.7)"/>
       <use xlink:href="#DejaVuSans-31" transform="translate(186.855469 38.965625) scale(0.7)"/>
       <use xlink:href="#DejaVuSans-35" transform="translate(231.391602 38.965625) scale(0.7)"/>
      </g>
     </g>
    </g>
    <g id="ytick_3">
     <g id="line2d_29">
      <g>
       <use xlink:href="#m36d8e64dd5" x="60.468889" y="134.853491" style="stroke: #000000; stroke-width: 0.8"/>
      </g>
     </g>
     <g id="text_7">
      <!-- $\mathdefault{10^{-14}}$ -->
      <g transform="translate(25.568889 138.65271) scale(0.1 -0.1)">
       <defs>
        <path id="DejaVuSans-34" d="M 2419 4116 
L 825 1625 
L 2419 1625 
L 2419 4116 
z
M 2253 4666 
L 3047 4666 
L 3047 1625 
L 3713 1625 
L 3713 1100 
L 3047 1100 
L 3047 0 
L 2419 0 
L 2419 1100 
L 313 1100 
L 313 1709 
L 2253 4666 
z
" transform="scale(0.015625)"/>
       </defs>
       <use xlink:href="#DejaVuSans-31" transform="translate(0 0.684375)"/>
       <use xlink:href="#DejaVuSans-30" transform="translate(63.623047 0.684375)"/>
       <use xlink:href="#DejaVuSans-2212" transform="translate(128.203125 38.965625) scale(0.7)"/>
       <use xlink:href="#DejaVuSans-31" transform="translate(186.855469 38.965625) scale(0.7)"/>
       <use xlink:href="#DejaVuSans-34" transform="translate(231.391602 38.965625) scale(0.7)"/>
      </g>
     </g>
    </g>
    <g id="ytick_4">
     <g id="line2d_30">
      <g>
       <use xlink:href="#m36d8e64dd5" x="60.468889" y="96.803832" style="stroke: #000000; stroke-width: 0.8"/>
      </g>
     </g>
     <g id="text_8">
      <!-- $\mathdefault{10^{-13}}$ -->
      <g transform="translate(25.568889 100.603051) scale(0.1 -0.1)">
       <defs>
        <path id="DejaVuSans-33" d="M 2597 2516 
Q 3050 2419 3304 2112 
Q 3559 1806 3559 1356 
Q 3559 666 3084 287 
Q 2609 -91 1734 -91 
Q 1441 -91 1130 -33 
Q 819 25 488 141 
L 488 750 
Q 750 597 1062 519 
Q 1375 441 1716 441 
Q 2309 441 2620 675 
Q 2931 909 2931 1356 
Q 2931 1769 2642 2001 
Q 2353 2234 1838 2234 
L 1294 2234 
L 1294 2753 
L 1863 2753 
Q 2328 2753 2575 2939 
Q 2822 3125 2822 3475 
Q 2822 3834 2567 4026 
Q 2313 4219 1838 4219 
Q 1578 4219 1281 4162 
Q 984 4106 628 3988 
L 628 4550 
Q 988 4650 1302 4700 
Q 1616 4750 1894 4750 
Q 2613 4750 3031 4423 
Q 3450 4097 3450 3541 
Q 3450 3153 3228 2886 
Q 3006 2619 2597 2516 
z
" transform="scale(0.015625)"/>
       </defs>
       <use xlink:href="#DejaVuSans-31" transform="translate(0 0.765625)"/>
       <use xlink:href="#DejaVuSans-30" transform="translate(63.623047 0.765625)"/>
       <use xlink:href="#DejaVuSans-2212" transform="translate(128.203125 39.046875) scale(0.7)"/>
       <use xlink:href="#DejaVuSans-31" transform="translate(186.855469 39.046875) scale(0.7)"/>
       <use xlink:href="#DejaVuSans-33" transform="translate(231.391602 39.046875) scale(0.7)"/>
      </g>
     </g>
    </g>
    <g id="ytick_5">
     <g id="line2d_31">
      <g>
       <use xlink:href="#m36d8e64dd5" x="60.468889" y="58.754174" style="stroke: #000000; stroke-width: 0.8"/>
      </g>
     </g>
     <g id="text_9">
      <!-- $\mathdefault{10^{-12}}$ -->
      <g transform="translate(25.568889 62.553393) scale(0.1 -0.1)">
       <use xlink:href="#DejaVuSans-31" transform="translate(0 0.765625)"/>
       <use xlink:href="#DejaVuSans-30" transform="translate(63.623047 0.765625)"/>
       <use xlink:href="#DejaVuSans-2212" transform="translate(128.203125 39.046875) scale(0.7)"/>
       <use xlink:href="#DejaVuSans-31" transform="translate(186.855469 39.046875) scale(0.7)"/>
       <use xlink:href="#DejaVuSans-32" transform="translate(231.391602 39.046875) scale(0.7)"/>
      </g>
     </g>
    </g>
    <g id="ytick_6">
     <g id="line2d_32">
      <defs>
       <path id="mc2ded2c6c4" d="M 0 0 
L -2 0 
" style="stroke: #000000; stroke-width: 0.6"/>
      </defs>
      <g>
       <use xlink:href="#mc2ded2c6c4" x="60.468889" y="237.548378" style="stroke: #000000; stroke-width: 0.6"/>
      </g>
     </g>
    </g>
    <g id="ytick_7">
     <g id="line2d_33">
      <g>
       <use xlink:href="#mc2ded2c6c4" x="60.468889" y="230.848166" style="stroke: #000000; stroke-width: 0.6"/>
      </g>
     </g>
    </g>
    <g id="ytick_8">
     <g id="line2d_34">
      <g>
       <use xlink:href="#mc2ded2c6c4" x="60.468889" y="226.094289" style="stroke: #000000; stroke-width: 0.6"/>
      </g>
     </g>
    </g>
    <g id="ytick_9">
     <g id="line2d_35">
      <g>
       <use xlink:href="#mc2ded2c6c4" x="60.468889" y="222.406897" style="stroke: #000000; stroke-width: 0.6"/>
      </g>
     </g>
    </g>
    <g id="ytick_10">
     <g id="line2d_36">
      <g>
       <use xlink:href="#mc2ded2c6c4" x="60.468889" y="219.394077" style="stroke: #000000; stroke-width: 0.6"/>
      </g>
     </g>
    </g>
    <g id="ytick_11">
     <g id="line2d_37">
      <g>
       <use xlink:href="#mc2ded2c6c4" x="60.468889" y="216.846775" style="stroke: #000000; stroke-width: 0.6"/>
      </g>
     </g>
    </g>
    <g id="ytick_12">
     <g id="line2d_38">
      <g>
       <use xlink:href="#mc2ded2c6c4" x="60.468889" y="214.640201" style="stroke: #000000; stroke-width: 0.6"/>
      </g>
     </g>
    </g>
    <g id="ytick_13">
     <g id="line2d_39">
      <g>
       <use xlink:href="#mc2ded2c6c4" x="60.468889" y="212.693865" style="stroke: #000000; stroke-width: 0.6"/>
      </g>
     </g>
    </g>
    <g id="ytick_14">
     <g id="line2d_40">
      <g>
       <use xlink:href="#mc2ded2c6c4" x="60.468889" y="199.498719" style="stroke: #000000; stroke-width: 0.6"/>
      </g>
     </g>
    </g>
    <g id="ytick_15">
     <g id="line2d_41">
      <g>
       <use xlink:href="#mc2ded2c6c4" x="60.468889" y="192.798507" style="stroke: #000000; stroke-width: 0.6"/>
      </g>
     </g>
    </g>
    <g id="ytick_16">
     <g id="line2d_42">
      <g>
       <use xlink:href="#mc2ded2c6c4" x="60.468889" y="188.044631" style="stroke: #000000; stroke-width: 0.6"/>
      </g>
     </g>
    </g>
    <g id="ytick_17">
     <g id="line2d_43">
      <g>
       <use xlink:href="#mc2ded2c6c4" x="60.468889" y="184.357238" style="stroke: #000000; stroke-width: 0.6"/>
      </g>
     </g>
    </g>
    <g id="ytick_18">
     <g id="line2d_44">
      <g>
       <use xlink:href="#mc2ded2c6c4" x="60.468889" y="181.344419" style="stroke: #000000; stroke-width: 0.6"/>
      </g>
     </g>
    </g>
    <g id="ytick_19">
     <g id="line2d_45">
      <g>
       <use xlink:href="#mc2ded2c6c4" x="60.468889" y="178.797116" style="stroke: #000000; stroke-width: 0.6"/>
      </g>
     </g>
    </g>
    <g id="ytick_20">
     <g id="line2d_46">
      <g>
       <use xlink:href="#mc2ded2c6c4" x="60.468889" y="176.590542" style="stroke: #000000; stroke-width: 0.6"/>
      </g>
     </g>
    </g>
    <g id="ytick_21">
     <g id="line2d_47">
      <g>
       <use xlink:href="#mc2ded2c6c4" x="60.468889" y="174.644206" style="stroke: #000000; stroke-width: 0.6"/>
      </g>
     </g>
    </g>
    <g id="ytick_22">
     <g id="line2d_48">
      <g>
       <use xlink:href="#mc2ded2c6c4" x="60.468889" y="161.449061" style="stroke: #000000; stroke-width: 0.6"/>
      </g>
     </g>
    </g>
    <g id="ytick_23">
     <g id="line2d_49">
      <g>
       <use xlink:href="#mc2ded2c6c4" x="60.468889" y="154.748849" style="stroke: #000000; stroke-width: 0.6"/>
      </g>
     </g>
    </g>
    <g id="ytick_24">
     <g id="line2d_50">
      <g>
       <use xlink:href="#mc2ded2c6c4" x="60.468889" y="149.994972" style="stroke: #000000; stroke-width: 0.6"/>
      </g>
     </g>
    </g>
    <g id="ytick_25">
     <g id="line2d_51">
      <g>
       <use xlink:href="#mc2ded2c6c4" x="60.468889" y="146.30758" style="stroke: #000000; stroke-width: 0.6"/>
      </g>
     </g>
    </g>
    <g id="ytick_26">
     <g id="line2d_52">
      <g>
       <use xlink:href="#mc2ded2c6c4" x="60.468889" y="143.29476" style="stroke: #000000; stroke-width: 0.6"/>
      </g>
     </g>
    </g>
    <g id="ytick_27">
     <g id="line2d_53">
      <g>
       <use xlink:href="#mc2ded2c6c4" x="60.468889" y="140.747458" style="stroke: #000000; stroke-width: 0.6"/>
      </g>
     </g>
    </g>
    <g id="ytick_28">
     <g id="line2d_54">
      <g>
       <use xlink:href="#mc2ded2c6c4" x="60.468889" y="138.540884" style="stroke: #000000; stroke-width: 0.6"/>
      </g>
     </g>
    </g>
    <g id="ytick_29">
     <g id="line2d_55">
      <g>
       <use xlink:href="#mc2ded2c6c4" x="60.468889" y="136.594548" style="stroke: #000000; stroke-width: 0.6"/>
      </g>
     </g>
    </g>
    <g id="ytick_30">
     <g id="line2d_56">
      <g>
       <use xlink:href="#mc2ded2c6c4" x="60.468889" y="123.399402" style="stroke: #000000; stroke-width: 0.6"/>
      </g>
     </g>
    </g>
    <g id="ytick_31">
     <g id="line2d_57">
      <g>
       <use xlink:href="#mc2ded2c6c4" x="60.468889" y="116.69919" style="stroke: #000000; stroke-width: 0.6"/>
      </g>
     </g>
    </g>
    <g id="ytick_32">
     <g id="line2d_58">
      <g>
       <use xlink:href="#mc2ded2c6c4" x="60.468889" y="111.945314" style="stroke: #000000; stroke-width: 0.6"/>
      </g>
     </g>
    </g>
    <g id="ytick_33">
     <g id="line2d_59">
      <g>
       <use xlink:href="#mc2ded2c6c4" x="60.468889" y="108.257921" style="stroke: #000000; stroke-width: 0.6"/>
      </g>
     </g>
    </g>
    <g id="ytick_34">
     <g id="line2d_60">
      <g>
       <use xlink:href="#mc2ded2c6c4" x="60.468889" y="105.245102" style="stroke: #000000; stroke-width: 0.6"/>
      </g>
     </g>
    </g>
    <g id="ytick_35">
     <g id="line2d_61">
      <g>
       <use xlink:href="#mc2ded2c6c4" x="60.468889" y="102.697799" style="stroke: #000000; stroke-width: 0.6"/>
      </g>
     </g>
    </g>
    <g id="ytick_36">
     <g id="line2d_62">
      <g>
       <use xlink:href="#mc2ded2c6c4" x="60.468889" y="100.491225" style="stroke: #000000; stroke-width: 0.6"/>
      </g>
     </g>
    </g>
    <g id="ytick_37">
     <g id="line2d_63">
      <g>
       <use xlink:href="#mc2ded2c6c4" x="60.468889" y="98.544889" style="stroke: #000000; stroke-width: 0.6"/>
      </g>
     </g>
    </g>
    <g id="ytick_38">
     <g id="line2d_64">
      <g>
       <use xlink:href="#mc2ded2c6c4" x="60.468889" y="85.349744" style="stroke: #000000; stroke-width: 0.6"/>
      </g>
     </g>
    </g>
    <g id="ytick_39">
     <g id="line2d_65">
      <g>
       <use xlink:href="#mc2ded2c6c4" x="60.468889" y="78.649532" style="stroke: #000000; stroke-width: 0.6"/>
      </g>
     </g>
    </g>
    <g id="ytick_40">
     <g id="line2d_66">
      <g>
       <use xlink:href="#mc2ded2c6c4" x="60.468889" y="73.895655" style="stroke: #000000; stroke-width: 0.6"/>
      </g>
     </g>
    </g>
    <g id="ytick_41">
     <g id="line2d_67">
      <g>
       <use xlink:href="#mc2ded2c6c4" x="60.468889" y="70.208262" style="stroke: #000000; stroke-width: 0.6"/>
      </g>
     </g>
    </g>
    <g id="ytick_42">
     <g id="line2d_68">
      <g>
       <use xlink:href="#mc2ded2c6c4" x="60.468889" y="67.195443" style="stroke: #000000; stroke-width: 0.6"/>
      </g>
     </g>
    </g>
    <g id="ytick_43">
     <g id="line2d_69">
      <g>
       <use xlink:href="#mc2ded2c6c4" x="60.468889" y="64.648141" style="stroke: #000000; stroke-width: 0.6"/>
      </g>
     </g>
    </g>
    <g id="ytick_44">
     <g id="line2d_70">
      <g>
       <use xlink:href="#mc2ded2c6c4" x="60.468889" y="62.441567" style="stroke: #000000; stroke-width: 0.6"/>
      </g>
     </g>
    </g>
    <g id="ytick_45">
     <g id="line2d_71">
      <g>
       <use xlink:href="#mc2ded2c6c4" x="60.468889" y="60.495231" style="stroke: #000000; stroke-width: 0.6"/>
      </g>
     </g>
    </g>
    <g id="ytick_46">
     <g id="line2d_72">
      <g>
       <use xlink:href="#mc2ded2c6c4" x="60.468889" y="47.300085" style="stroke: #000000; stroke-width: 0.6"/>
      </g>
     </g>
    </g>
    <g id="ytick_47">
     <g id="line2d_73">
      <g>
       <use xlink:href="#mc2ded2c6c4" x="60.468889" y="40.599873" style="stroke: #000000; stroke-width: 0.6"/>
      </g>
     </g>
    </g>
    <g id="ytick_48">
     <g id="line2d_74">
      <g>
       <use xlink:href="#mc2ded2c6c4" x="60.468889" y="35.845997" style="stroke: #000000; stroke-width: 0.6"/>
      </g>
     </g>
    </g>
    <g id="ytick_49">
     <g id="line2d_75">
      <g>
       <use xlink:href="#mc2ded2c6c4" x="60.468889" y="32.158604" style="stroke: #000000; stroke-width: 0.6"/>
      </g>
     </g>
    </g>
    <g id="ytick_50">
     <g id="line2d_76">
      <g>
       <use xlink:href="#mc2ded2c6c4" x="60.468889" y="29.145785" style="stroke: #000000; stroke-width: 0.6"/>
      </g>
     </g>
    </g>
    <g id="ytick_51">
     <g id="line2d_77">
      <g>
       <use xlink:href="#mc2ded2c6c4" x="60.468889" y="26.598482" style="stroke: #000000; stroke-width: 0.6"/>
      </g>
     </g>
    </g>
    <g id="text_10">
     <!-- e2 * dnde [TeV / (cm2 s)] -->
     <g transform="translate(19.489202 196.563688) rotate(-90) scale(0.1 -0.1)">
      <defs>
       <path id="DejaVuSans-2a" d="M 3009 3897 
L 1888 3291 
L 3009 2681 
L 2828 2375 
L 1778 3009 
L 1778 1831 
L 1422 1831 
L 1422 3009 
L 372 2375 
L 191 2681 
L 1313 3291 
L 191 3897 
L 372 4206 
L 1422 3572 
L 1422 4750 
L 1778 4750 
L 1778 3572 
L 2828 4206 
L 3009 3897 
z
" transform="scale(0.015625)"/>
       <path id="DejaVuSans-64" d="M 2906 2969 
L 2906 4863 
L 3481 4863 
L 3481 0 
L 2906 0 
L 2906 525 
Q 2725 213 2448 61 
Q 2172 -91 1784 -91 
Q 1150 -91 751 415 
Q 353 922 353 1747 
Q 353 2572 751 3078 
Q 1150 3584 1784 3584 
Q 2172 3584 2448 3432 
Q 2725 3281 2906 2969 
z
M 947 1747 
Q 947 1113 1208 752 
Q 1469 391 1925 391 
Q 2381 391 2643 752 
Q 2906 1113 2906 1747 
Q 2906 2381 2643 2742 
Q 2381 3103 1925 3103 
Q 1469 3103 1208 2742 
Q 947 2381 947 1747 
z
" transform="scale(0.015625)"/>
       <path id="DejaVuSans-2f" d="M 1625 4666 
L 2156 4666 
L 531 -594 
L 0 -594 
L 1625 4666 
z
" transform="scale(0.015625)"/>
       <path id="DejaVuSans-28" d="M 1984 4856 
Q 1566 4138 1362 3434 
Q 1159 2731 1159 2009 
Q 1159 1288 1364 580 
Q 1569 -128 1984 -844 
L 1484 -844 
Q 1016 -109 783 600 
Q 550 1309 550 2009 
Q 550 2706 781 3412 
Q 1013 4119 1484 4856 
L 1984 4856 
z
" transform="scale(0.015625)"/>
       <path id="DejaVuSans-63" d="M 3122 3366 
L 3122 2828 
Q 2878 2963 2633 3030 
Q 2388 3097 2138 3097 
Q 1578 3097 1268 2742 
Q 959 2388 959 1747 
Q 959 1106 1268 751 
Q 1578 397 2138 397 
Q 2388 397 2633 464 
Q 2878 531 3122 666 
L 3122 134 
Q 2881 22 2623 -34 
Q 2366 -91 2075 -91 
Q 1284 -91 818 406 
Q 353 903 353 1747 
Q 353 2603 823 3093 
Q 1294 3584 2113 3584 
Q 2378 3584 2631 3529 
Q 2884 3475 3122 3366 
z
" transform="scale(0.015625)"/>
       <path id="DejaVuSans-6d" d="M 3328 2828 
Q 3544 3216 3844 3400 
Q 4144 3584 4550 3584 
Q 5097 3584 5394 3201 
Q 5691 2819 5691 2113 
L 5691 0 
L 5113 0 
L 5113 2094 
Q 5113 2597 4934 2840 
Q 4756 3084 4391 3084 
Q 3944 3084 3684 2787 
Q 3425 2491 3425 1978 
L 3425 0 
L 2847 0 
L 2847 2094 
Q 2847 2600 2669 2842 
Q 2491 3084 2119 3084 
Q 1678 3084 1418 2786 
Q 1159 2488 1159 1978 
L 1159 0 
L 581 0 
L 581 3500 
L 1159 3500 
L 1159 2956 
Q 1356 3278 1631 3431 
Q 1906 3584 2284 3584 
Q 2666 3584 2933 3390 
Q 3200 3197 3328 2828 
z
" transform="scale(0.015625)"/>
       <path id="DejaVuSans-73" d="M 2834 3397 
L 2834 2853 
Q 2591 2978 2328 3040 
Q 2066 3103 1784 3103 
Q 1356 3103 1142 2972 
Q 928 2841 928 2578 
Q 928 2378 1081 2264 
Q 1234 2150 1697 2047 
L 1894 2003 
Q 2506 1872 2764 1633 
Q 3022 1394 3022 966 
Q 3022 478 2636 193 
Q 2250 -91 1575 -91 
Q 1294 -91 989 -36 
Q 684 19 347 128 
L 347 722 
Q 666 556 975 473 
Q 1284 391 1588 391 
Q 1994 391 2212 530 
Q 2431 669 2431 922 
Q 2431 1156 2273 1281 
Q 2116 1406 1581 1522 
L 1381 1569 
Q 847 1681 609 1914 
Q 372 2147 372 2553 
Q 372 3047 722 3315 
Q 1072 3584 1716 3584 
Q 2034 3584 2315 3537 
Q 2597 3491 2834 3397 
z
" transform="scale(0.015625)"/>
       <path id="DejaVuSans-29" d="M 513 4856 
L 1013 4856 
Q 1481 4119 1714 3412 
Q 1947 2706 1947 2009 
Q 1947 1309 1714 600 
Q 1481 -109 1013 -844 
L 513 -844 
Q 928 -128 1133 580 
Q 1338 1288 1338 2009 
Q 1338 2731 1133 3434 
Q 928 4138 513 4856 
z
" transform="scale(0.015625)"/>
      </defs>
      <use xlink:href="#DejaVuSans-65"/>
      <use xlink:href="#DejaVuSans-32" x="61.523438"/>
      <use xlink:href="#DejaVuSans-20" x="125.146484"/>
      <use xlink:href="#DejaVuSans-2a" x="156.933594"/>
      <use xlink:href="#DejaVuSans-20" x="206.933594"/>
      <use xlink:href="#DejaVuSans-64" x="238.720703"/>
      <use xlink:href="#DejaVuSans-6e" x="302.197266"/>
      <use xlink:href="#DejaVuSans-64" x="365.576172"/>
      <use xlink:href="#DejaVuSans-65" x="429.052734"/>
      <use xlink:href="#DejaVuSans-20" x="490.576172"/>
      <use xlink:href="#DejaVuSans-5b" x="522.363281"/>
      <use xlink:href="#DejaVuSans-54" x="561.376953"/>
      <use xlink:href="#DejaVuSans-65" x="605.460938"/>
      <use xlink:href="#DejaVuSans-56" x="666.984375"/>
      <use xlink:href="#DejaVuSans-20" x="735.392578"/>
      <use xlink:href="#DejaVuSans-2f" x="767.179688"/>
      <use xlink:href="#DejaVuSans-20" x="800.871094"/>
      <use xlink:href="#DejaVuSans-28" x="832.658203"/>
      <use xlink:href="#DejaVuSans-63" x="871.671875"/>
      <use xlink:href="#DejaVuSans-6d" x="926.652344"/>
      <use xlink:href="#DejaVuSans-32" x="1024.064453"/>
      <use xlink:href="#DejaVuSans-20" x="1087.6875"/>
      <use xlink:href="#DejaVuSans-73" x="1119.474609"/>
      <use xlink:href="#DejaVuSans-29" x="1171.574219"/>
      <use xlink:href="#DejaVuSans-5d" x="1210.587891"/>
     </g>
    </g>
   </g>
   <g id="line2d_78">
    <path d="M 78.477357 42.200475 
L 81.700555 42.258687 
L 84.923754 42.318639 
L 88.146952 42.380427 
L 91.37015 42.444155 
L 94.593348 42.509932 
L 97.816546 42.577874 
L 101.039745 42.648102 
L 104.262943 42.720744 
L 107.486141 42.795936 
L 110.709339 42.873822 
L 113.932538 42.954552 
L 117.155736 43.038288 
L 120.378934 43.125197 
L 123.602132 43.215458 
L 126.825331 43.30926 
L 130.048529 43.406802 
L 133.271727 43.508293 
L 136.494925 43.613956 
L 139.718123 43.724025 
L 142.941322 43.838748 
L 146.16452 43.958387 
L 149.387718 44.083217 
L 152.610916 44.213532 
L 155.834115 44.349638 
L 159.057313 44.491861 
L 162.280511 44.640546 
L 165.503709 44.796055 
L 168.726907 44.958772 
L 171.950106 45.129103 
L 175.173304 45.307475 
L 178.396502 45.494339 
L 181.6197 45.690175 
L 184.842899 45.895485 
L 188.066097 46.110803 
L 191.289295 46.33669 
L 194.512493 46.573742 
L 197.735691 46.822585 
L 200.95889 47.083882 
L 204.182088 47.358334 
L 207.405286 47.646679 
L 210.628484 47.949699 
L 213.851683 48.268219 
L 217.074881 48.603109 
L 220.298079 48.955291 
L 223.521277 49.325735 
L 226.744476 49.715469 
L 229.967674 50.125576 
L 233.190872 50.557202 
L 236.41407 51.011557 
L 239.637268 51.489918 
L 242.860467 51.993634 
L 246.083665 52.524131 
L 249.306863 53.082913 
L 252.530061 53.671572 
L 255.75326 54.291785 
L 258.976458 54.945327 
L 262.199656 55.634072 
L 265.422854 56.359997 
L 268.646052 57.125193 
L 271.869251 57.931867 
L 275.092449 58.782351 
L 278.315647 59.679107 
L 281.538845 60.624736 
L 284.762044 61.621985 
L 287.985242 62.673756 
L 291.20844 63.783114 
L 294.431638 64.953294 
L 297.654836 66.187717 
L 300.878035 67.489993 
L 304.101233 68.863935 
L 307.324431 70.313574 
L 310.547629 71.843162 
L 313.770828 73.457195 
L 316.994026 75.160418 
L 320.217224 76.957845 
L 323.440422 78.854772 
L 326.663621 80.85679 
L 329.886819 82.969808 
L 333.110017 85.200064 
L 336.333215 87.554148 
L 339.556413 90.039021 
L 342.779612 92.662033 
L 346.00281 95.430951 
L 349.226008 98.353974 
L 352.449206 101.439766 
L 355.672405 104.697475 
L 358.895603 108.136765 
L 362.118801 111.767842 
L 365.341999 115.601486 
L 368.565197 119.649084 
L 371.788396 123.922661 
L 375.011594 128.434921 
L 378.234792 133.199278 
L 381.45799 138.229905 
L 384.681189 143.541766 
L 387.904387 149.15067 
L 391.127585 155.073314 
L 394.350783 161.327333 
L 397.573981 167.931353 
" clip-path="url(#pbb140c750d)" style="fill: none; stroke-dasharray: 1.5,2.475; stroke-dashoffset: 0; stroke: #000000; stroke-width: 1.5"/>
   </g>
   <g id="LineCollection_1">
    <path clip-path="url(#pbb140c750d)" style="fill: none; stroke: #8b0000; stroke-width: 1.5"/>
    <path clip-path="url(#pbb140c750d)" style="fill: none; stroke: #8b0000; stroke-width: 1.5"/>
    <path clip-path="url(#pbb140c750d)" style="fill: none; stroke: #8b0000; stroke-width: 1.5"/>
    <path clip-path="url(#pbb140c750d)" style="fill: none; stroke: #8b0000; stroke-width: 1.5"/>
    <path d="M 82.483309 41.483902 
L 82.483309 39.397886 
" clip-path="url(#pbb140c750d)" style="fill: none; stroke: #8b0000; stroke-width: 1.5"/>
    <path d="M 99.447511 43.397002 
L 99.447511 41.432413 
" clip-path="url(#pbb140c750d)" style="fill: none; stroke: #8b0000; stroke-width: 1.5"/>
    <path d="M 116.411711 44.220488 
L 116.411711 42.329767 
" clip-path="url(#pbb140c750d)" style="fill: none; stroke: #8b0000; stroke-width: 1.5"/>
    <path d="M 133.375912 44.101248 
L 133.375912 42.247618 
" clip-path="url(#pbb140c750d)" style="fill: none; stroke: #8b0000; stroke-width: 1.5"/>
    <path d="M 150.340115 46.20335 
L 150.340115 44.114619 
" clip-path="url(#pbb140c750d)" style="fill: none; stroke: #8b0000; stroke-width: 1.5"/>
    <path d="M 167.304316 47.478764 
L 167.304316 45.230404 
" clip-path="url(#pbb140c750d)" style="fill: none; stroke: #8b0000; stroke-width: 1.5"/>
    <path d="M 184.268515 47.384061 
L 184.268515 44.973106 
" clip-path="url(#pbb140c750d)" style="fill: none; stroke: #8b0000; stroke-width: 1.5"/>
    <path d="M 201.232717 48.152273 
L 201.232717 45.497871 
" clip-path="url(#pbb140c750d)" style="fill: none; stroke: #8b0000; stroke-width: 1.5"/>
    <path d="M 218.19692 49.005152 
L 218.19692 46.021006 
" clip-path="url(#pbb140c750d)" style="fill: none; stroke: #8b0000; stroke-width: 1.5"/>
    <path d="M 235.16112 48.355913 
L 235.16112 45.067586 
" clip-path="url(#pbb140c750d)" style="fill: none; stroke: #8b0000; stroke-width: 1.5"/>
    <path d="M 252.125319 53.803234 
L 252.125319 49.431163 
" clip-path="url(#pbb140c750d)" style="fill: none; stroke: #8b0000; stroke-width: 1.5"/>
    <path d="M 269.089521 55.554202 
L 269.089521 50.444759 
" clip-path="url(#pbb140c750d)" style="fill: none; stroke: #8b0000; stroke-width: 1.5"/>
    <path d="M 286.053724 60.553898 
L 286.053724 54.084079 
" clip-path="url(#pbb140c750d)" style="fill: none; stroke: #8b0000; stroke-width: 1.5"/>
    <path d="M 303.017927 76.068922 
L 303.017927 65.245065 
" clip-path="url(#pbb140c750d)" style="fill: none; stroke: #8b0000; stroke-width: 1.5"/>
    <path d="M 319.982128 110.815396 
L 319.982128 78.576232 
" clip-path="url(#pbb140c750d)" style="fill: none; stroke: #8b0000; stroke-width: 1.5"/>
    <path clip-path="url(#pbb140c750d)" style="fill: none; stroke: #8b0000; stroke-width: 1.5"/>
    <path d="M 353.910529 113.51748 
L 353.910529 79.090512 
" clip-path="url(#pbb140c750d)" style="fill: none; stroke: #8b0000; stroke-width: 1.5"/>
    <path d="M 370.87473 289 
L 370.87473 98.377598 
" clip-path="url(#pbb140c750d)" style="fill: none; stroke: #8b0000; stroke-width: 1.5"/>
    <path clip-path="url(#pbb140c750d)" style="fill: none; stroke: #8b0000; stroke-width: 1.5"/>
    <path clip-path="url(#pbb140c750d)" style="fill: none; stroke: #8b0000; stroke-width: 1.5"/>
   </g>
   <g id="LineCollection_2">
    <path clip-path="url(#pbb140c750d)" style="fill: none; stroke: #006400; stroke-width: 1.5"/>
    <path clip-path="url(#pbb140c750d)" style="fill: none; stroke: #006400; stroke-width: 1.5"/>
    <path clip-path="url(#pbb140c750d)" style="fill: none; stroke: #006400; stroke-width: 1.5"/>
    <path clip-path="url(#pbb140c750d)" style="fill: none; stroke: #006400; stroke-width: 1.5"/>
    <path d="M 76.865758 43.935579 
L 76.865758 40.621619 
" clip-path="url(#pbb140c750d)" style="fill: none; stroke: #006400; stroke-width: 1.5"/>
    <path d="M 93.82996 46.886843 
L 93.82996 43.848556 
" clip-path="url(#pbb140c750d)" style="fill: none; stroke: #006400; stroke-width: 1.5"/>
    <path d="M 110.79416 38.760673 
L 110.79416 35.316727 
" clip-path="url(#pbb140c750d)" style="fill: none; stroke: #006400; stroke-width: 1.5"/>
    <path d="M 127.758361 41.799722 
L 127.758361 38.65207 
" clip-path="url(#pbb140c750d)" style="fill: none; stroke: #006400; stroke-width: 1.5"/>
    <path d="M 144.722564 45.663155 
L 144.722564 42.405108 
" clip-path="url(#pbb140c750d)" style="fill: none; stroke: #006400; stroke-width: 1.5"/>
    <path d="M 161.686765 49.568389 
L 161.686765 46.28951 
" clip-path="url(#pbb140c750d)" style="fill: none; stroke: #006400; stroke-width: 1.5"/>
    <path d="M 178.650965 49.106481 
L 178.650965 45.578223 
" clip-path="url(#pbb140c750d)" style="fill: none; stroke: #006400; stroke-width: 1.5"/>
    <path d="M 195.615166 50.700794 
L 195.615166 46.950074 
" clip-path="url(#pbb140c750d)" style="fill: none; stroke: #006400; stroke-width: 1.5"/>
    <path d="M 212.579369 50.721782 
L 212.579369 46.560875 
" clip-path="url(#pbb140c750d)" style="fill: none; stroke: #006400; stroke-width: 1.5"/>
    <path d="M 229.543569 51.140063 
L 229.543569 46.690141 
" clip-path="url(#pbb140c750d)" style="fill: none; stroke: #006400; stroke-width: 1.5"/>
    <path d="M 246.507769 55.728998 
L 246.507769 50.234066 
" clip-path="url(#pbb140c750d)" style="fill: none; stroke: #006400; stroke-width: 1.5"/>
    <path d="M 263.471971 58.014503 
L 263.471971 51.8033 
" clip-path="url(#pbb140c750d)" style="fill: none; stroke: #006400; stroke-width: 1.5"/>
    <path d="M 280.436173 63.229512 
L 280.436173 55.733896 
" clip-path="url(#pbb140c750d)" style="fill: none; stroke: #006400; stroke-width: 1.5"/>
    <path d="M 297.400376 75.438228 
L 297.400376 63.832557 
" clip-path="url(#pbb140c750d)" style="fill: none; stroke: #006400; stroke-width: 1.5"/>
    <path d="M 314.364577 110.24373 
L 314.364577 77.58114 
" clip-path="url(#pbb140c750d)" style="fill: none; stroke: #006400; stroke-width: 1.5"/>
    <path clip-path="url(#pbb140c750d)" style="fill: none; stroke: #006400; stroke-width: 1.5"/>
    <path d="M 348.292978 111.93077 
L 348.292978 77.523707 
" clip-path="url(#pbb140c750d)" style="fill: none; stroke: #006400; stroke-width: 1.5"/>
    <path d="M 365.257179 289 
L 365.257179 155.171458 
" clip-path="url(#pbb140c750d)" style="fill: none; stroke: #006400; stroke-width: 1.5"/>
    <path clip-path="url(#pbb140c750d)" style="fill: none; stroke: #006400; stroke-width: 1.5"/>
    <path clip-path="url(#pbb140c750d)" style="fill: none; stroke: #006400; stroke-width: 1.5"/>
   </g>
   <g id="LineCollection_3">
    <path clip-path="url(#pbb140c750d)" style="fill: none; stroke: #ffd700; stroke-opacity: 0.4; stroke-width: 1.5"/>
    <path clip-path="url(#pbb140c750d)" style="fill: none; stroke: #ffd700; stroke-opacity: 0.4; stroke-width: 1.5"/>
    <path clip-path="url(#pbb140c750d)" style="fill: none; stroke: #ffd700; stroke-opacity: 0.4; stroke-width: 1.5"/>
    <path clip-path="url(#pbb140c750d)" style="fill: none; stroke: #ffd700; stroke-opacity: 0.4; stroke-width: 1.5"/>
    <path d="M 76.865758 43.341139 
L 76.865758 41.084911 
" clip-path="url(#pbb140c750d)" style="fill: none; stroke: #ffd700; stroke-opacity: 0.4; stroke-width: 1.5"/>
    <path d="M 93.82996 43.503046 
L 93.82996 41.547433 
" clip-path="url(#pbb140c750d)" style="fill: none; stroke: #ffd700; stroke-opacity: 0.4; stroke-width: 1.5"/>
    <path d="M 110.79416 43.843431 
L 110.79416 41.965259 
" clip-path="url(#pbb140c750d)" style="fill: none; stroke: #ffd700; stroke-opacity: 0.4; stroke-width: 1.5"/>
    <path d="M 127.758361 44.302614 
L 127.758361 42.427474 
" clip-path="url(#pbb140c750d)" style="fill: none; stroke: #ffd700; stroke-opacity: 0.4; stroke-width: 1.5"/>
    <path d="M 144.722564 44.919415 
L 144.722564 42.949608 
" clip-path="url(#pbb140c750d)" style="fill: none; stroke: #ffd700; stroke-opacity: 0.4; stroke-width: 1.5"/>
    <path d="M 161.686765 45.690579 
L 161.686765 43.601705 
" clip-path="url(#pbb140c750d)" style="fill: none; stroke: #ffd700; stroke-opacity: 0.4; stroke-width: 1.5"/>
    <path d="M 178.650965 46.704266 
L 178.650965 44.395349 
" clip-path="url(#pbb140c750d)" style="fill: none; stroke: #ffd700; stroke-opacity: 0.4; stroke-width: 1.5"/>
    <path d="M 195.615166 48.007814 
L 195.615166 45.408446 
" clip-path="url(#pbb140c750d)" style="fill: none; stroke: #ffd700; stroke-opacity: 0.4; stroke-width: 1.5"/>
    <path d="M 212.579369 49.706944 
L 212.579369 46.70816 
" clip-path="url(#pbb140c750d)" style="fill: none; stroke: #ffd700; stroke-opacity: 0.4; stroke-width: 1.5"/>
    <path d="M 229.543569 51.962743 
L 229.543569 48.369919 
" clip-path="url(#pbb140c750d)" style="fill: none; stroke: #ffd700; stroke-opacity: 0.4; stroke-width: 1.5"/>
    <path d="M 246.507769 54.967077 
L 246.507769 50.519021 
" clip-path="url(#pbb140c750d)" style="fill: none; stroke: #ffd700; stroke-opacity: 0.4; stroke-width: 1.5"/>
    <path d="M 263.471971 58.89317 
L 263.471971 53.389349 
" clip-path="url(#pbb140c750d)" style="fill: none; stroke: #ffd700; stroke-opacity: 0.4; stroke-width: 1.5"/>
    <path d="M 280.436173 64.258027 
L 280.436173 57.095711 
" clip-path="url(#pbb140c750d)" style="fill: none; stroke: #ffd700; stroke-opacity: 0.4; stroke-width: 1.5"/>
    <path d="M 297.400376 71.760453 
L 297.400376 61.865426 
" clip-path="url(#pbb140c750d)" style="fill: none; stroke: #ffd700; stroke-opacity: 0.4; stroke-width: 1.5"/>
    <path d="M 314.364577 82.707503 
L 314.364577 67.984971 
" clip-path="url(#pbb140c750d)" style="fill: none; stroke: #ffd700; stroke-opacity: 0.4; stroke-width: 1.5"/>
    <path d="M 331.328777 102.254053 
L 331.328777 75.473237 
" clip-path="url(#pbb140c750d)" style="fill: none; stroke: #ffd700; stroke-opacity: 0.4; stroke-width: 1.5"/>
    <path d="M 348.292978 289 
L 348.292978 84.370579 
" clip-path="url(#pbb140c750d)" style="fill: none; stroke: #ffd700; stroke-opacity: 0.4; stroke-width: 1.5"/>
    <path d="M 365.257179 289 
L 365.257179 94.214646 
" clip-path="url(#pbb140c750d)" style="fill: none; stroke: #ffd700; stroke-opacity: 0.4; stroke-width: 1.5"/>
    <path d="M 382.221378 289 
L 382.221378 103.700321 
" clip-path="url(#pbb140c750d)" style="fill: none; stroke: #ffd700; stroke-opacity: 0.4; stroke-width: 1.5"/>
    <path d="M 399.185581 289 
L 399.185581 112.194264 
" clip-path="url(#pbb140c750d)" style="fill: none; stroke: #ffd700; stroke-opacity: 0.4; stroke-width: 1.5"/>
   </g>
   <g id="LineCollection_4">
    <path clip-path="url(#pbb140c750d)" style="fill: none; stroke: #4b0082; stroke-opacity: 0.4; stroke-width: 1.5"/>
    <path clip-path="url(#pbb140c750d)" style="fill: none; stroke: #4b0082; stroke-opacity: 0.4; stroke-width: 1.5"/>
    <path clip-path="url(#pbb140c750d)" style="fill: none; stroke: #4b0082; stroke-opacity: 0.4; stroke-width: 1.5"/>
    <path clip-path="url(#pbb140c750d)" style="fill: none; stroke: #4b0082; stroke-opacity: 0.4; stroke-width: 1.5"/>
    <path d="M 82.483309 44.023166 
L 82.483309 40.499863 
" clip-path="url(#pbb140c750d)" style="fill: none; stroke: #4b0082; stroke-opacity: 0.4; stroke-width: 1.5"/>
    <path d="M 99.447511 44.134079 
L 99.447511 41.009744 
" clip-path="url(#pbb140c750d)" style="fill: none; stroke: #4b0082; stroke-opacity: 0.4; stroke-width: 1.5"/>
    <path d="M 116.411711 44.451082 
L 116.411711 41.455303 
" clip-path="url(#pbb140c750d)" style="fill: none; stroke: #4b0082; stroke-opacity: 0.4; stroke-width: 1.5"/>
    <path d="M 133.375912 44.894667 
L 133.375912 41.910947 
" clip-path="url(#pbb140c750d)" style="fill: none; stroke: #4b0082; stroke-opacity: 0.4; stroke-width: 1.5"/>
    <path d="M 150.340115 45.525772 
L 150.340115 42.428133 
" clip-path="url(#pbb140c750d)" style="fill: none; stroke: #4b0082; stroke-opacity: 0.4; stroke-width: 1.5"/>
    <path d="M 167.304316 46.302072 
L 167.304316 43.078599 
" clip-path="url(#pbb140c750d)" style="fill: none; stroke: #4b0082; stroke-opacity: 0.4; stroke-width: 1.5"/>
    <path d="M 184.268515 47.337918 
L 184.268515 43.862817 
" clip-path="url(#pbb140c750d)" style="fill: none; stroke: #4b0082; stroke-opacity: 0.4; stroke-width: 1.5"/>
    <path d="M 201.232717 48.657342 
L 201.232717 44.866713 
" clip-path="url(#pbb140c750d)" style="fill: none; stroke: #4b0082; stroke-opacity: 0.4; stroke-width: 1.5"/>
    <path d="M 218.19692 50.368772 
L 218.19692 46.163068 
" clip-path="url(#pbb140c750d)" style="fill: none; stroke: #4b0082; stroke-opacity: 0.4; stroke-width: 1.5"/>
    <path d="M 235.16112 52.627194 
L 235.16112 47.851214 
" clip-path="url(#pbb140c750d)" style="fill: none; stroke: #4b0082; stroke-opacity: 0.4; stroke-width: 1.5"/>
    <path d="M 252.125319 55.620259 
L 252.125319 50.040598 
" clip-path="url(#pbb140c750d)" style="fill: none; stroke: #4b0082; stroke-opacity: 0.4; stroke-width: 1.5"/>
    <path d="M 269.089521 59.536409 
L 269.089521 52.957752 
" clip-path="url(#pbb140c750d)" style="fill: none; stroke: #4b0082; stroke-opacity: 0.4; stroke-width: 1.5"/>
    <path d="M 286.053724 64.877799 
L 286.053724 56.717133 
" clip-path="url(#pbb140c750d)" style="fill: none; stroke: #4b0082; stroke-opacity: 0.4; stroke-width: 1.5"/>
    <path d="M 303.017927 72.362624 
L 303.017927 61.55498 
" clip-path="url(#pbb140c750d)" style="fill: none; stroke: #4b0082; stroke-opacity: 0.4; stroke-width: 1.5"/>
    <path d="M 319.982128 83.338676 
L 319.982128 67.751166 
" clip-path="url(#pbb140c750d)" style="fill: none; stroke: #4b0082; stroke-opacity: 0.4; stroke-width: 1.5"/>
    <path d="M 336.946327 103.174795 
L 336.946327 75.310657 
" clip-path="url(#pbb140c750d)" style="fill: none; stroke: #4b0082; stroke-opacity: 0.4; stroke-width: 1.5"/>
    <path d="M 353.910529 289 
L 353.910529 84.286081 
" clip-path="url(#pbb140c750d)" style="fill: none; stroke: #4b0082; stroke-opacity: 0.4; stroke-width: 1.5"/>
    <path d="M 370.87473 289 
L 370.87473 94.178995 
" clip-path="url(#pbb140c750d)" style="fill: none; stroke: #4b0082; stroke-opacity: 0.4; stroke-width: 1.5"/>
    <path d="M 387.838929 289 
L 387.838929 103.760339 
" clip-path="url(#pbb140c750d)" style="fill: none; stroke: #4b0082; stroke-opacity: 0.4; stroke-width: 1.5"/>
    <path d="M 404.803131 289 
L 404.803131 112.268596 
" clip-path="url(#pbb140c750d)" style="fill: none; stroke: #4b0082; stroke-opacity: 0.4; stroke-width: 1.5"/>
   </g>
   <g id="line2d_79">
    <defs>
     <path id="m1d2b0dab29" d="M 0 3 
C 0.795609 3 1.55874 2.683901 2.12132 2.12132 
C 2.683901 1.55874 3 0.795609 3 0 
C 3 -0.795609 2.683901 -1.55874 2.12132 -2.12132 
C 1.55874 -2.683901 0.795609 -3 0 -3 
C -0.795609 -3 -1.55874 -2.683901 -2.12132 -2.12132 
C -2.683901 -1.55874 -3 -0.795609 -3 0 
C -3 0.795609 -2.683901 1.55874 -2.12132 2.12132 
C -1.55874 2.683901 -0.795609 3 0 3 
z
" style="stroke: #8b0000"/>
    </defs>
    <g clip-path="url(#pbb140c750d)">
     <use xlink:href="#m1d2b0dab29" x="82.483309" y="40.407999" style="fill: #8b0000; stroke: #8b0000"/>
     <use xlink:href="#m1d2b0dab29" x="99.447511" y="42.385529" style="fill: #8b0000; stroke: #8b0000"/>
     <use xlink:href="#m1d2b0dab29" x="116.411711" y="43.248101" style="fill: #8b0000; stroke: #8b0000"/>
     <use xlink:href="#m1d2b0dab29" x="133.375912" y="43.148456" style="fill: #8b0000; stroke: #8b0000"/>
     <use xlink:href="#m1d2b0dab29" x="150.340115" y="45.126005" style="fill: #8b0000; stroke: #8b0000"/>
     <use xlink:href="#m1d2b0dab29" x="167.304316" y="46.316374" style="fill: #8b0000; stroke: #8b0000"/>
     <use xlink:href="#m1d2b0dab29" x="184.268515" y="46.134653" style="fill: #8b0000; stroke: #8b0000"/>
     <use xlink:href="#m1d2b0dab29" x="201.232717" y="46.771831" style="fill: #8b0000; stroke: #8b0000"/>
     <use xlink:href="#m1d2b0dab29" x="218.19692" y="47.445808" style="fill: #8b0000; stroke: #8b0000"/>
     <use xlink:href="#m1d2b0dab29" x="235.16112" y="46.630089" style="fill: #8b0000; stroke: #8b0000"/>
     <use xlink:href="#m1d2b0dab29" x="252.125319" y="51.473024" style="fill: #8b0000; stroke: #8b0000"/>
     <use xlink:href="#m1d2b0dab29" x="269.089521" y="52.802783" style="fill: #8b0000; stroke: #8b0000"/>
     <use xlink:href="#m1d2b0dab29" x="286.053724" y="57.004356" style="fill: #8b0000; stroke: #8b0000"/>
     <use xlink:href="#m1d2b0dab29" x="303.017927" y="69.786182" style="fill: #8b0000; stroke: #8b0000"/>
     <use xlink:href="#m1d2b0dab29" x="319.982128" y="87.834158" style="fill: #8b0000; stroke: #8b0000"/>
     <use xlink:href="#m1d2b0dab29" x="329.307459" y="20737" style="fill: #8b0000; stroke: #8b0000"/>
     <use xlink:href="#m1d2b0dab29" x="344.585354" y="20737" style="fill: #8b0000; stroke: #8b0000"/>
     <use xlink:href="#m1d2b0dab29" x="353.910529" y="88.605441" style="fill: #8b0000; stroke: #8b0000"/>
     <use xlink:href="#m1d2b0dab29" x="363.235703" y="20737" style="fill: #8b0000; stroke: #8b0000"/>
    </g>
   </g>
   <g id="line2d_80">
    <defs>
     <path id="me1ba472f19" d="M 0 3 
C 0.795609 3 1.55874 2.683901 2.12132 2.12132 
C 2.683901 1.55874 3 0.795609 3 0 
C 3 -0.795609 2.683901 -1.55874 2.12132 -2.12132 
C 1.55874 -2.683901 0.795609 -3 0 -3 
C -0.795609 -3 -1.55874 -2.683901 -2.12132 -2.12132 
C -2.683901 -1.55874 -3 -0.795609 -3 0 
C -3 0.795609 -2.683901 1.55874 -2.12132 2.12132 
C -1.55874 2.683901 -0.795609 3 0 3 
z
" style="stroke: #006400"/>
    </defs>
    <g clip-path="url(#pbb140c750d)">
     <use xlink:href="#me1ba472f19" x="76.865758" y="42.195663" style="fill: #006400; stroke: #006400"/>
     <use xlink:href="#me1ba472f19" x="93.82996" y="45.297969" style="fill: #006400; stroke: #006400"/>
     <use xlink:href="#me1ba472f19" x="110.79416" y="36.949142" style="fill: #006400; stroke: #006400"/>
     <use xlink:href="#me1ba472f19" x="127.758361" y="40.151063" style="fill: #006400; stroke: #006400"/>
     <use xlink:href="#me1ba472f19" x="144.722564" y="43.953966" style="fill: #006400; stroke: #006400"/>
     <use xlink:href="#me1ba472f19" x="161.686765" y="47.847757" style="fill: #006400; stroke: #006400"/>
     <use xlink:href="#me1ba472f19" x="178.650965" y="47.248364" style="fill: #006400; stroke: #006400"/>
     <use xlink:href="#me1ba472f19" x="195.615166" y="48.719246" style="fill: #006400; stroke: #006400"/>
     <use xlink:href="#me1ba472f19" x="212.579369" y="48.510709" style="fill: #006400; stroke: #006400"/>
     <use xlink:href="#me1ba472f19" x="229.543569" y="48.765764" style="fill: #006400; stroke: #006400"/>
     <use xlink:href="#me1ba472f19" x="246.507769" y="52.754175" style="fill: #006400; stroke: #006400"/>
     <use xlink:href="#me1ba472f19" x="263.471971" y="54.618775" style="fill: #006400; stroke: #006400"/>
     <use xlink:href="#me1ba472f19" x="280.436173" y="59.060297" style="fill: #006400; stroke: #006400"/>
     <use xlink:href="#me1ba472f19" x="297.400376" y="68.636806" style="fill: #006400; stroke: #006400"/>
     <use xlink:href="#me1ba472f19" x="314.364577" y="86.891173" style="fill: #006400; stroke: #006400"/>
     <use xlink:href="#me1ba472f19" x="323.6901" y="20737" style="fill: #006400; stroke: #006400"/>
     <use xlink:href="#me1ba472f19" x="338.967484" y="20737" style="fill: #006400; stroke: #006400"/>
     <use xlink:href="#me1ba472f19" x="348.292978" y="87.036431" style="fill: #006400; stroke: #006400"/>
     <use xlink:href="#me1ba472f19" x="357.618472" y="20737" style="fill: #006400; stroke: #006400"/>
    </g>
   </g>
   <g id="line2d_81">
    <defs>
     <path id="mba54e9a810" d="M 0 3 
C 0.795609 3 1.55874 2.683901 2.12132 2.12132 
C 2.683901 1.55874 3 0.795609 3 0 
C 3 -0.795609 2.683901 -1.55874 2.12132 -2.12132 
C 1.55874 -2.683901 0.795609 -3 0 -3 
C -0.795609 -3 -1.55874 -2.683901 -2.12132 -2.12132 
C -2.683901 -1.55874 -3 -0.795609 -3 0 
C -3 0.795609 -2.683901 1.55874 -2.12132 2.12132 
C -1.55874 2.683901 -0.795609 3 0 3 
z
" style="stroke: #ffd700; stroke-opacity: 0.4"/>
    </defs>
    <g clip-path="url(#pbb140c750d)">
     <use xlink:href="#mba54e9a810" x="76.865758" y="42.174548" style="fill: #ffd700; fill-opacity: 0.4; stroke: #ffd700; stroke-opacity: 0.4"/>
     <use xlink:href="#mba54e9a810" x="93.82996" y="42.496327" style="fill: #ffd700; fill-opacity: 0.4; stroke: #ffd700; stroke-opacity: 0.4"/>
     <use xlink:href="#mba54e9a810" x="110.79416" y="42.877676" style="fill: #ffd700; fill-opacity: 0.4; stroke: #ffd700; stroke-opacity: 0.4"/>
     <use xlink:href="#mba54e9a810" x="127.758361" y="43.338461" style="fill: #ffd700; fill-opacity: 0.4; stroke: #ffd700; stroke-opacity: 0.4"/>
     <use xlink:href="#mba54e9a810" x="144.722564" y="43.905178" style="fill: #ffd700; fill-opacity: 0.4; stroke: #ffd700; stroke-opacity: 0.4"/>
     <use xlink:href="#mba54e9a810" x="161.686765" y="44.613157" style="fill: #ffd700; fill-opacity: 0.4; stroke: #ffd700; stroke-opacity: 0.4"/>
     <use xlink:href="#mba54e9a810" x="178.650965" y="45.509513" style="fill: #ffd700; fill-opacity: 0.4; stroke: #ffd700; stroke-opacity: 0.4"/>
     <use xlink:href="#mba54e9a810" x="195.615166" y="46.657072" style="fill: #ffd700; fill-opacity: 0.4; stroke: #ffd700; stroke-opacity: 0.4"/>
     <use xlink:href="#mba54e9a810" x="212.579369" y="48.139621" style="fill: #ffd700; fill-opacity: 0.4; stroke: #ffd700; stroke-opacity: 0.4"/>
     <use xlink:href="#mba54e9a810" x="229.543569" y="50.068878" style="fill: #ffd700; fill-opacity: 0.4; stroke: #ffd700; stroke-opacity: 0.4"/>
     <use xlink:href="#mba54e9a810" x="246.507769" y="52.593835" style="fill: #ffd700; fill-opacity: 0.4; stroke: #ffd700; stroke-opacity: 0.4"/>
     <use xlink:href="#mba54e9a810" x="263.471971" y="55.91317" style="fill: #ffd700; fill-opacity: 0.4; stroke: #ffd700; stroke-opacity: 0.4"/>
     <use xlink:href="#mba54e9a810" x="280.436173" y="60.291824" style="fill: #ffd700; fill-opacity: 0.4; stroke: #ffd700; stroke-opacity: 0.4"/>
     <use xlink:href="#mba54e9a810" x="297.400376" y="66.083104" style="fill: #ffd700; fill-opacity: 0.4; stroke: #ffd700; stroke-opacity: 0.4"/>
     <use xlink:href="#mba54e9a810" x="314.364577" y="73.75815" style="fill: #ffd700; fill-opacity: 0.4; stroke: #ffd700; stroke-opacity: 0.4"/>
     <use xlink:href="#mba54e9a810" x="331.328777" y="83.945237" style="fill: #ffd700; fill-opacity: 0.4; stroke: #ffd700; stroke-opacity: 0.4"/>
     <use xlink:href="#mba54e9a810" x="348.292978" y="97.482187" style="fill: #ffd700; fill-opacity: 0.4; stroke: #ffd700; stroke-opacity: 0.4"/>
     <use xlink:href="#mba54e9a810" x="365.257179" y="115.48625" style="fill: #ffd700; fill-opacity: 0.4; stroke: #ffd700; stroke-opacity: 0.4"/>
     <use xlink:href="#mba54e9a810" x="382.221378" y="139.447301" style="fill: #ffd700; fill-opacity: 0.4; stroke: #ffd700; stroke-opacity: 0.4"/>
     <use xlink:href="#mba54e9a810" x="399.185581" y="171.352228" style="fill: #ffd700; fill-opacity: 0.4; stroke: #ffd700; stroke-opacity: 0.4"/>
    </g>
   </g>
   <g id="line2d_82">
    <defs>
     <path id="mdfa0d2ffcb" d="M 0 3 
C 0.795609 3 1.55874 2.683901 2.12132 2.12132 
C 2.683901 1.55874 3 0.795609 3 0 
C 3 -0.795609 2.683901 -1.55874 2.12132 -2.12132 
C 1.55874 -2.683901 0.795609 -3 0 -3 
C -0.795609 -3 -1.55874 -2.683901 -2.12132 -2.12132 
C -2.683901 -1.55874 -3 -0.795609 -3 0 
C -3 0.795609 -2.683901 1.55874 -2.12132 2.12132 
C -1.55874 2.683901 -0.795609 3 0 3 
z
" style="stroke: #4b0082; stroke-opacity: 0.4"/>
    </defs>
    <g clip-path="url(#pbb140c750d)">
     <use xlink:href="#mdfa0d2ffcb" x="82.483309" y="42.16779" style="fill: #4b0082; fill-opacity: 0.4; stroke: #4b0082; stroke-opacity: 0.4"/>
     <use xlink:href="#mdfa0d2ffcb" x="99.447511" y="42.498182" style="fill: #4b0082; fill-opacity: 0.4; stroke: #4b0082; stroke-opacity: 0.4"/>
     <use xlink:href="#mdfa0d2ffcb" x="116.411711" y="42.885397" style="fill: #4b0082; fill-opacity: 0.4; stroke: #4b0082; stroke-opacity: 0.4"/>
     <use xlink:href="#mdfa0d2ffcb" x="133.375912" y="43.335555" style="fill: #4b0082; fill-opacity: 0.4; stroke: #4b0082; stroke-opacity: 0.4"/>
     <use xlink:href="#mdfa0d2ffcb" x="150.340115" y="43.904476" style="fill: #4b0082; fill-opacity: 0.4; stroke: #4b0082; stroke-opacity: 0.4"/>
     <use xlink:href="#mdfa0d2ffcb" x="167.304316" y="44.61186" style="fill: #4b0082; fill-opacity: 0.4; stroke: #4b0082; stroke-opacity: 0.4"/>
     <use xlink:href="#mdfa0d2ffcb" x="184.268515" y="45.509185" style="fill: #4b0082; fill-opacity: 0.4; stroke: #4b0082; stroke-opacity: 0.4"/>
     <use xlink:href="#mdfa0d2ffcb" x="201.232717" y="46.653573" style="fill: #4b0082; fill-opacity: 0.4; stroke: #4b0082; stroke-opacity: 0.4"/>
     <use xlink:href="#mdfa0d2ffcb" x="218.19692" y="48.132481" style="fill: #4b0082; fill-opacity: 0.4; stroke: #4b0082; stroke-opacity: 0.4"/>
     <use xlink:href="#mdfa0d2ffcb" x="235.16112" y="50.067257" style="fill: #4b0082; fill-opacity: 0.4; stroke: #4b0082; stroke-opacity: 0.4"/>
     <use xlink:href="#mdfa0d2ffcb" x="252.125319" y="52.596039" style="fill: #4b0082; fill-opacity: 0.4; stroke: #4b0082; stroke-opacity: 0.4"/>
     <use xlink:href="#mdfa0d2ffcb" x="269.089521" y="55.921842" style="fill: #4b0082; fill-opacity: 0.4; stroke: #4b0082; stroke-opacity: 0.4"/>
     <use xlink:href="#mdfa0d2ffcb" x="286.053724" y="60.298741" style="fill: #4b0082; fill-opacity: 0.4; stroke: #4b0082; stroke-opacity: 0.4"/>
     <use xlink:href="#mdfa0d2ffcb" x="303.017927" y="66.090553" style="fill: #4b0082; fill-opacity: 0.4; stroke: #4b0082; stroke-opacity: 0.4"/>
     <use xlink:href="#mdfa0d2ffcb" x="319.982128" y="73.771346" style="fill: #4b0082; fill-opacity: 0.4; stroke: #4b0082; stroke-opacity: 0.4"/>
     <use xlink:href="#mdfa0d2ffcb" x="336.946327" y="83.956706" style="fill: #4b0082; fill-opacity: 0.4; stroke: #4b0082; stroke-opacity: 0.4"/>
     <use xlink:href="#mdfa0d2ffcb" x="353.910529" y="97.508871" style="fill: #4b0082; fill-opacity: 0.4; stroke: #4b0082; stroke-opacity: 0.4"/>
     <use xlink:href="#mdfa0d2ffcb" x="370.87473" y="115.515866" style="fill: #4b0082; fill-opacity: 0.4; stroke: #4b0082; stroke-opacity: 0.4"/>
     <use xlink:href="#mdfa0d2ffcb" x="387.838929" y="139.551678" style="fill: #4b0082; fill-opacity: 0.4; stroke: #4b0082; stroke-opacity: 0.4"/>
     <use xlink:href="#mdfa0d2ffcb" x="404.803131" y="171.456362" style="fill: #4b0082; fill-opacity: 0.4; stroke: #4b0082; stroke-opacity: 0.4"/>
    </g>
   </g>
   <g id="patch_3">
    <path d="M 60.468889 242.728 
L 60.468889 25.44 
" style="fill: none; stroke: #000000; stroke-width: 0.8; stroke-linejoin: miter; stroke-linecap: square"/>
   </g>
   <g id="patch_4">
    <path d="M 421.2 242.728 
L 421.2 25.44 
" style="fill: none; stroke: #000000; stroke-width: 0.8; stroke-linejoin: miter; stroke-linecap: square"/>
   </g>
   <g id="patch_5">
    <path d="M 60.468889 242.728 
L 421.2 242.728 
" style="fill: none; stroke: #000000; stroke-width: 0.8; stroke-linejoin: miter; stroke-linecap: square"/>
   </g>
   <g id="patch_6">
    <path d="M 60.468889 25.44 
L 421.2 25.44 
" style="fill: none; stroke: #000000; stroke-width: 0.8; stroke-linejoin: miter; stroke-linecap: square"/>
   </g>
   <g id="text_11">
    <!-- N = 1000 -->
    <g transform="translate(212.234132 19.44) scale(0.12 -0.12)">
     <defs>
      <path id="DejaVuSans-4e" d="M 628 4666 
L 1478 4666 
L 3547 763 
L 3547 4666 
L 4159 4666 
L 4159 0 
L 3309 0 
L 1241 3903 
L 1241 0 
L 628 0 
L 628 4666 
z
" transform="scale(0.015625)"/>
      <path id="DejaVuSans-3d" d="M 678 2906 
L 4684 2906 
L 4684 2381 
L 678 2381 
L 678 2906 
z
M 678 1631 
L 4684 1631 
L 4684 1100 
L 678 1100 
L 678 1631 
z
" transform="scale(0.015625)"/>
     </defs>
     <use xlink:href="#DejaVuSans-4e"/>
     <use xlink:href="#DejaVuSans-20" x="74.804688"/>
     <use xlink:href="#DejaVuSans-3d" x="106.591797"/>
     <use xlink:href="#DejaVuSans-20" x="190.380859"/>
     <use xlink:href="#DejaVuSans-31" x="222.167969"/>
     <use xlink:href="#DejaVuSans-30" x="285.791016"/>
     <use xlink:href="#DejaVuSans-30" x="349.414062"/>
     <use xlink:href="#DejaVuSans-30" x="413.037109"/>
    </g>
   </g>
   <g id="legend_1">
    <g id="patch_7">
     <path d="M 67.468889 237.728 
L 248.742327 237.728 
Q 250.742327 237.728 250.742327 235.728 
L 250.742327 133.981125 
Q 250.742327 131.981125 248.742327 131.981125 
L 67.468889 131.981125 
Q 65.468889 131.981125 65.468889 133.981125 
L 65.468889 235.728 
Q 65.468889 237.728 67.468889 237.728 
z
" style="fill: #ffffff; opacity: 0.8; stroke: #cccccc; stroke-linejoin: miter"/>
    </g>
    <g id="patch_8">
     <path d="M 69.468889 143.579563 
L 89.468889 143.579563 
L 89.468889 136.579563 
L 69.468889 136.579563 
z
" style="fill: #008000; fill-opacity: 0.5"/>
    </g>
    <g id="text_12">
     <!-- $1\sigma$ Nuisance -->
     <g transform="translate(97.468889 143.579563) scale(0.1 -0.1)">
      <defs>
       <path id="DejaVuSans-Oblique-3c3" d="M 2219 3044 
Q 1744 3044 1422 2700 
Q 1081 2341 969 1747 
Q 844 1119 1044 756 
Q 1241 397 1706 397 
Q 2166 397 2503 759 
Q 2844 1122 2966 1747 
Q 3075 2319 2881 2700 
Q 2700 3044 2219 3044 
z
M 2309 3503 
L 4219 3500 
L 4106 2925 
L 3463 2925 
Q 3706 2438 3575 1747 
Q 3406 888 2884 400 
Q 2359 -91 1609 -91 
Q 856 -91 525 400 
Q 194 888 363 1747 
Q 528 2609 1050 3097 
Q 1484 3503 2309 3503 
z
" transform="scale(0.015625)"/>
       <path id="DejaVuSans-75" d="M 544 1381 
L 544 3500 
L 1119 3500 
L 1119 1403 
Q 1119 906 1312 657 
Q 1506 409 1894 409 
Q 2359 409 2629 706 
Q 2900 1003 2900 1516 
L 2900 3500 
L 3475 3500 
L 3475 0 
L 2900 0 
L 2900 538 
Q 2691 219 2414 64 
Q 2138 -91 1772 -91 
Q 1169 -91 856 284 
Q 544 659 544 1381 
z
M 1991 3584 
L 1991 3584 
z
" transform="scale(0.015625)"/>
       <path id="DejaVuSans-69" d="M 603 3500 
L 1178 3500 
L 1178 0 
L 603 0 
L 603 3500 
z
M 603 4863 
L 1178 4863 
L 1178 4134 
L 603 4134 
L 603 4863 
z
" transform="scale(0.015625)"/>
       <path id="DejaVuSans-61" d="M 2194 1759 
Q 1497 1759 1228 1600 
Q 959 1441 959 1056 
Q 959 750 1161 570 
Q 1363 391 1709 391 
Q 2188 391 2477 730 
Q 2766 1069 2766 1631 
L 2766 1759 
L 2194 1759 
z
M 3341 1997 
L 3341 0 
L 2766 0 
L 2766 531 
Q 2569 213 2275 61 
Q 1981 -91 1556 -91 
Q 1019 -91 701 211 
Q 384 513 384 1019 
Q 384 1609 779 1909 
Q 1175 2209 1959 2209 
L 2766 2209 
L 2766 2266 
Q 2766 2663 2505 2880 
Q 2244 3097 1772 3097 
Q 1472 3097 1187 3025 
Q 903 2953 641 2809 
L 641 3341 
Q 956 3463 1253 3523 
Q 1550 3584 1831 3584 
Q 2591 3584 2966 3190 
Q 3341 2797 3341 1997 
z
" transform="scale(0.015625)"/>
      </defs>
      <use xlink:href="#DejaVuSans-31" transform="translate(0 0.015625)"/>
      <use xlink:href="#DejaVuSans-Oblique-3c3" transform="translate(63.623047 0.015625)"/>
      <use xlink:href="#DejaVuSans-20" transform="translate(127.001953 0.015625)"/>
      <use xlink:href="#DejaVuSans-4e" transform="translate(158.789062 0.015625)"/>
      <use xlink:href="#DejaVuSans-75" transform="translate(233.59375 0.015625)"/>
      <use xlink:href="#DejaVuSans-69" transform="translate(296.972656 0.015625)"/>
      <use xlink:href="#DejaVuSans-73" transform="translate(324.755859 0.015625)"/>
      <use xlink:href="#DejaVuSans-61" transform="translate(376.855469 0.015625)"/>
      <use xlink:href="#DejaVuSans-6e" transform="translate(438.134766 0.015625)"/>
      <use xlink:href="#DejaVuSans-63" transform="translate(501.513672 0.015625)"/>
      <use xlink:href="#DejaVuSans-65" transform="translate(556.494141 0.015625)"/>
     </g>
    </g>
    <g id="patch_9">
     <path d="M 69.468889 158.257688 
L 89.468889 158.257688 
L 89.468889 151.257688 
L 69.468889 151.257688 
z
" style="fill: #ff0000; fill-opacity: 0.6"/>
    </g>
    <g id="text_13">
     <!-- $1\sigma$ Standard -->
     <g transform="translate(97.468889 158.257688) scale(0.1 -0.1)">
      <defs>
       <path id="DejaVuSans-53" d="M 3425 4513 
L 3425 3897 
Q 3066 4069 2747 4153 
Q 2428 4238 2131 4238 
Q 1616 4238 1336 4038 
Q 1056 3838 1056 3469 
Q 1056 3159 1242 3001 
Q 1428 2844 1947 2747 
L 2328 2669 
Q 3034 2534 3370 2195 
Q 3706 1856 3706 1288 
Q 3706 609 3251 259 
Q 2797 -91 1919 -91 
Q 1588 -91 1214 -16 
Q 841 59 441 206 
L 441 856 
Q 825 641 1194 531 
Q 1563 422 1919 422 
Q 2459 422 2753 634 
Q 3047 847 3047 1241 
Q 3047 1584 2836 1778 
Q 2625 1972 2144 2069 
L 1759 2144 
Q 1053 2284 737 2584 
Q 422 2884 422 3419 
Q 422 4038 858 4394 
Q 1294 4750 2059 4750 
Q 2388 4750 2728 4690 
Q 3069 4631 3425 4513 
z
" transform="scale(0.015625)"/>
       <path id="DejaVuSans-74" d="M 1172 4494 
L 1172 3500 
L 2356 3500 
L 2356 3053 
L 1172 3053 
L 1172 1153 
Q 1172 725 1289 603 
Q 1406 481 1766 481 
L 2356 481 
L 2356 0 
L 1766 0 
Q 1100 0 847 248 
Q 594 497 594 1153 
L 594 3053 
L 172 3053 
L 172 3500 
L 594 3500 
L 594 4494 
L 1172 4494 
z
" transform="scale(0.015625)"/>
      </defs>
      <use xlink:href="#DejaVuSans-31" transform="translate(0 0.015625)"/>
      <use xlink:href="#DejaVuSans-Oblique-3c3" transform="translate(63.623047 0.015625)"/>
      <use xlink:href="#DejaVuSans-20" transform="translate(127.001953 0.015625)"/>
      <use xlink:href="#DejaVuSans-53" transform="translate(158.789062 0.015625)"/>
      <use xlink:href="#DejaVuSans-74" transform="translate(222.265625 0.015625)"/>
      <use xlink:href="#DejaVuSans-61" transform="translate(261.474609 0.015625)"/>
      <use xlink:href="#DejaVuSans-6e" transform="translate(322.753906 0.015625)"/>
      <use xlink:href="#DejaVuSans-64" transform="translate(386.132812 0.015625)"/>
      <use xlink:href="#DejaVuSans-61" transform="translate(449.609375 0.015625)"/>
      <use xlink:href="#DejaVuSans-72" transform="translate(510.888672 0.015625)"/>
      <use xlink:href="#DejaVuSans-64" transform="translate(552.001953 0.015625)"/>
     </g>
    </g>
    <g id="line2d_83">
     <path d="M 69.468889 169.435812 
L 79.468889 169.435812 
L 89.468889 169.435812 
" style="fill: none; stroke-dasharray: 1.5,2.475; stroke-dashoffset: 0; stroke: #000000; stroke-width: 1.5"/>
    </g>
    <g id="text_14">
     <!-- Input -->
     <g transform="translate(97.468889 172.935812) scale(0.1 -0.1)">
      <defs>
       <path id="DejaVuSans-49" d="M 628 4666 
L 1259 4666 
L 1259 0 
L 628 0 
L 628 4666 
z
" transform="scale(0.015625)"/>
       <path id="DejaVuSans-70" d="M 1159 525 
L 1159 -1331 
L 581 -1331 
L 581 3500 
L 1159 3500 
L 1159 2969 
Q 1341 3281 1617 3432 
Q 1894 3584 2278 3584 
Q 2916 3584 3314 3078 
Q 3713 2572 3713 1747 
Q 3713 922 3314 415 
Q 2916 -91 2278 -91 
Q 1894 -91 1617 61 
Q 1341 213 1159 525 
z
M 3116 1747 
Q 3116 2381 2855 2742 
Q 2594 3103 2138 3103 
Q 1681 3103 1420 2742 
Q 1159 2381 1159 1747 
Q 1159 1113 1420 752 
Q 1681 391 2138 391 
Q 2594 391 2855 752 
Q 3116 1113 3116 1747 
z
" transform="scale(0.015625)"/>
      </defs>
      <use xlink:href="#DejaVuSans-49"/>
      <use xlink:href="#DejaVuSans-6e" x="29.492188"/>
      <use xlink:href="#DejaVuSans-70" x="92.871094"/>
      <use xlink:href="#DejaVuSans-75" x="156.347656"/>
      <use xlink:href="#DejaVuSans-74" x="219.726562"/>
     </g>
    </g>
    <g id="LineCollection_5">
     <path d="M 79.468889 189.113938 
L 79.468889 179.113938 
" style="fill: none; stroke: #8b0000; stroke-width: 1.5"/>
    </g>
    <g id="line2d_84"/>
    <g id="line2d_85">
     <g>
      <use xlink:href="#m1d2b0dab29" x="79.468889" y="184.113938" style="fill: #8b0000; stroke: #8b0000"/>
     </g>
    </g>
    <g id="text_15">
     <!-- Standard Fluxpoints -->
     <g transform="translate(97.468889 187.613938) scale(0.1 -0.1)">
      <defs>
       <path id="DejaVuSans-46" d="M 628 4666 
L 3309 4666 
L 3309 4134 
L 1259 4134 
L 1259 2759 
L 3109 2759 
L 3109 2228 
L 1259 2228 
L 1259 0 
L 628 0 
L 628 4666 
z
" transform="scale(0.015625)"/>
       <path id="DejaVuSans-6c" d="M 603 4863 
L 1178 4863 
L 1178 0 
L 603 0 
L 603 4863 
z
" transform="scale(0.015625)"/>
       <path id="DejaVuSans-78" d="M 3513 3500 
L 2247 1797 
L 3578 0 
L 2900 0 
L 1881 1375 
L 863 0 
L 184 0 
L 1544 1831 
L 300 3500 
L 978 3500 
L 1906 2253 
L 2834 3500 
L 3513 3500 
z
" transform="scale(0.015625)"/>
       <path id="DejaVuSans-6f" d="M 1959 3097 
Q 1497 3097 1228 2736 
Q 959 2375 959 1747 
Q 959 1119 1226 758 
Q 1494 397 1959 397 
Q 2419 397 2687 759 
Q 2956 1122 2956 1747 
Q 2956 2369 2687 2733 
Q 2419 3097 1959 3097 
z
M 1959 3584 
Q 2709 3584 3137 3096 
Q 3566 2609 3566 1747 
Q 3566 888 3137 398 
Q 2709 -91 1959 -91 
Q 1206 -91 779 398 
Q 353 888 353 1747 
Q 353 2609 779 3096 
Q 1206 3584 1959 3584 
z
" transform="scale(0.015625)"/>
      </defs>
      <use xlink:href="#DejaVuSans-53"/>
      <use xlink:href="#DejaVuSans-74" x="63.476562"/>
      <use xlink:href="#DejaVuSans-61" x="102.685547"/>
      <use xlink:href="#DejaVuSans-6e" x="163.964844"/>
      <use xlink:href="#DejaVuSans-64" x="227.34375"/>
      <use xlink:href="#DejaVuSans-61" x="290.820312"/>
      <use xlink:href="#DejaVuSans-72" x="352.099609"/>
      <use xlink:href="#DejaVuSans-64" x="391.462891"/>
      <use xlink:href="#DejaVuSans-20" x="454.939453"/>
      <use xlink:href="#DejaVuSans-46" x="486.726562"/>
      <use xlink:href="#DejaVuSans-6c" x="544.246094"/>
      <use xlink:href="#DejaVuSans-75" x="572.029297"/>
      <use xlink:href="#DejaVuSans-78" x="635.408203"/>
      <use xlink:href="#DejaVuSans-70" x="694.587891"/>
      <use xlink:href="#DejaVuSans-6f" x="758.064453"/>
      <use xlink:href="#DejaVuSans-69" x="819.246094"/>
      <use xlink:href="#DejaVuSans-6e" x="847.029297"/>
      <use xlink:href="#DejaVuSans-74" x="910.408203"/>
      <use xlink:href="#DejaVuSans-73" x="949.617188"/>
     </g>
    </g>
    <g id="LineCollection_6">
     <path d="M 79.468889 203.792063 
L 79.468889 193.792063 
" style="fill: none; stroke: #006400; stroke-width: 1.5"/>
    </g>
    <g id="line2d_86"/>
    <g id="line2d_87">
     <g>
      <use xlink:href="#me1ba472f19" x="79.468889" y="198.792063" style="fill: #006400; stroke: #006400"/>
     </g>
    </g>
    <g id="text_16">
     <!-- Standard Fluxpoints Nuisance -->
     <g transform="translate(97.468889 202.292063) scale(0.1 -0.1)">
      <use xlink:href="#DejaVuSans-53"/>
      <use xlink:href="#DejaVuSans-74" x="63.476562"/>
      <use xlink:href="#DejaVuSans-61" x="102.685547"/>
      <use xlink:href="#DejaVuSans-6e" x="163.964844"/>
      <use xlink:href="#DejaVuSans-64" x="227.34375"/>
      <use xlink:href="#DejaVuSans-61" x="290.820312"/>
      <use xlink:href="#DejaVuSans-72" x="352.099609"/>
      <use xlink:href="#DejaVuSans-64" x="391.462891"/>
      <use xlink:href="#DejaVuSans-20" x="454.939453"/>
      <use xlink:href="#DejaVuSans-46" x="486.726562"/>
      <use xlink:href="#DejaVuSans-6c" x="544.246094"/>
      <use xlink:href="#DejaVuSans-75" x="572.029297"/>
      <use xlink:href="#DejaVuSans-78" x="635.408203"/>
      <use xlink:href="#DejaVuSans-70" x="694.587891"/>
      <use xlink:href="#DejaVuSans-6f" x="758.064453"/>
      <use xlink:href="#DejaVuSans-69" x="819.246094"/>
      <use xlink:href="#DejaVuSans-6e" x="847.029297"/>
      <use xlink:href="#DejaVuSans-74" x="910.408203"/>
      <use xlink:href="#DejaVuSans-73" x="949.617188"/>
      <use xlink:href="#DejaVuSans-20" x="1001.716797"/>
      <use xlink:href="#DejaVuSans-4e" x="1033.503906"/>
      <use xlink:href="#DejaVuSans-75" x="1108.308594"/>
      <use xlink:href="#DejaVuSans-69" x="1171.6875"/>
      <use xlink:href="#DejaVuSans-73" x="1199.470703"/>
      <use xlink:href="#DejaVuSans-61" x="1251.570312"/>
      <use xlink:href="#DejaVuSans-6e" x="1312.849609"/>
      <use xlink:href="#DejaVuSans-63" x="1376.228516"/>
      <use xlink:href="#DejaVuSans-65" x="1431.208984"/>
     </g>
    </g>
    <g id="LineCollection_7">
     <path d="M 79.468889 218.470188 
L 79.468889 208.470188 
" style="fill: none; stroke: #ffd700; stroke-opacity: 0.4; stroke-width: 1.5"/>
    </g>
    <g id="line2d_88"/>
    <g id="line2d_89">
     <g>
      <use xlink:href="#mba54e9a810" x="79.468889" y="213.470188" style="fill: #ffd700; fill-opacity: 0.4; stroke: #ffd700; stroke-opacity: 0.4"/>
     </g>
    </g>
    <g id="text_17">
     <!-- Asimov Fluxpoints -->
     <g transform="translate(97.468889 216.970188) scale(0.1 -0.1)">
      <defs>
       <path id="DejaVuSans-41" d="M 2188 4044 
L 1331 1722 
L 3047 1722 
L 2188 4044 
z
M 1831 4666 
L 2547 4666 
L 4325 0 
L 3669 0 
L 3244 1197 
L 1141 1197 
L 716 0 
L 50 0 
L 1831 4666 
z
" transform="scale(0.015625)"/>
       <path id="DejaVuSans-76" d="M 191 3500 
L 800 3500 
L 1894 563 
L 2988 3500 
L 3597 3500 
L 2284 0 
L 1503 0 
L 191 3500 
z
" transform="scale(0.015625)"/>
      </defs>
      <use xlink:href="#DejaVuSans-41"/>
      <use xlink:href="#DejaVuSans-73" x="68.408203"/>
      <use xlink:href="#DejaVuSans-69" x="120.507812"/>
      <use xlink:href="#DejaVuSans-6d" x="148.291016"/>
      <use xlink:href="#DejaVuSans-6f" x="245.703125"/>
      <use xlink:href="#DejaVuSans-76" x="306.884766"/>
      <use xlink:href="#DejaVuSans-20" x="366.064453"/>
      <use xlink:href="#DejaVuSans-46" x="397.851562"/>
      <use xlink:href="#DejaVuSans-6c" x="455.371094"/>
      <use xlink:href="#DejaVuSans-75" x="483.154297"/>
      <use xlink:href="#DejaVuSans-78" x="546.533203"/>
      <use xlink:href="#DejaVuSans-70" x="605.712891"/>
      <use xlink:href="#DejaVuSans-6f" x="669.189453"/>
      <use xlink:href="#DejaVuSans-69" x="730.371094"/>
      <use xlink:href="#DejaVuSans-6e" x="758.154297"/>
      <use xlink:href="#DejaVuSans-74" x="821.533203"/>
      <use xlink:href="#DejaVuSans-73" x="860.742188"/>
     </g>
    </g>
    <g id="LineCollection_8">
     <path d="M 79.468889 233.148313 
L 79.468889 223.148313 
" style="fill: none; stroke: #4b0082; stroke-opacity: 0.4; stroke-width: 1.5"/>
    </g>
    <g id="line2d_90"/>
    <g id="line2d_91">
     <g>
      <use xlink:href="#mdfa0d2ffcb" x="79.468889" y="228.148313" style="fill: #4b0082; fill-opacity: 0.4; stroke: #4b0082; stroke-opacity: 0.4"/>
     </g>
    </g>
    <g id="text_18">
     <!-- Asimov Fluxpoints Nuisance -->
     <g transform="translate(97.468889 231.648313) scale(0.1 -0.1)">
      <use xlink:href="#DejaVuSans-41"/>
      <use xlink:href="#DejaVuSans-73" x="68.408203"/>
      <use xlink:href="#DejaVuSans-69" x="120.507812"/>
      <use xlink:href="#DejaVuSans-6d" x="148.291016"/>
      <use xlink:href="#DejaVuSans-6f" x="245.703125"/>
      <use xlink:href="#DejaVuSans-76" x="306.884766"/>
      <use xlink:href="#DejaVuSans-20" x="366.064453"/>
      <use xlink:href="#DejaVuSans-46" x="397.851562"/>
      <use xlink:href="#DejaVuSans-6c" x="455.371094"/>
      <use xlink:href="#DejaVuSans-75" x="483.154297"/>
      <use xlink:href="#DejaVuSans-78" x="546.533203"/>
      <use xlink:href="#DejaVuSans-70" x="605.712891"/>
      <use xlink:href="#DejaVuSans-6f" x="669.189453"/>
      <use xlink:href="#DejaVuSans-69" x="730.371094"/>
      <use xlink:href="#DejaVuSans-6e" x="758.154297"/>
      <use xlink:href="#DejaVuSans-74" x="821.533203"/>
      <use xlink:href="#DejaVuSans-73" x="860.742188"/>
      <use xlink:href="#DejaVuSans-20" x="912.841797"/>
      <use xlink:href="#DejaVuSans-4e" x="944.628906"/>
      <use xlink:href="#DejaVuSans-75" x="1019.433594"/>
      <use xlink:href="#DejaVuSans-69" x="1082.8125"/>
      <use xlink:href="#DejaVuSans-73" x="1110.595703"/>
      <use xlink:href="#DejaVuSans-61" x="1162.695312"/>
      <use xlink:href="#DejaVuSans-6e" x="1223.974609"/>
      <use xlink:href="#DejaVuSans-63" x="1287.353516"/>
      <use xlink:href="#DejaVuSans-65" x="1342.333984"/>
     </g>
    </g>
   </g>
  </g>
 </g>
 <defs>
  <clipPath id="pbb140c750d">
   <rect x="60.468889" y="25.44" width="360.731111" height="217.288"/>
  </clipPath>
 </defs>
</svg>
