<?xml version="1.0" encoding="utf-8" standalone="no"?>
<!DOCTYPE svg PUBLIC "-//W3C//DTD SVG 1.1//EN"
  "http://www.w3.org/Graphics/SVG/1.1/DTD/svg11.dtd">
<svg xmlns:xlink="http://www.w3.org/1999/xlink" width="360pt" height="360pt" viewBox="0 0 360 360" xmlns="http://www.w3.org/2000/svg" version="1.1">
 <metadata>
  <rdf:RDF xmlns:dc="http://purl.org/dc/elements/1.1/" xmlns:cc="http://creativecommons.org/ns#" xmlns:rdf="http://www.w3.org/1999/02/22-rdf-syntax-ns#">
   <cc:Work>
    <dc:type rdf:resource="http://purl.org/dc/dcmitype/StillImage"/>
    <dc:date>2023-03-17T16:01:51.732169</dc:date>
    <dc:format>image/svg+xml</dc:format>
    <dc:creator>
     <cc:Agent>
      <dc:title>Matplotlib v3.6.2, https://matplotlib.org/</dc:title>
     </cc:Agent>
    </dc:creator>
   </cc:Work>
  </rdf:RDF>
 </metadata>
 <defs>
  <style type="text/css">*{stroke-linejoin: round; stroke-linecap: butt}</style>
 </defs>
 <g id="figure_1">
  <g id="patch_1">
   <path d="M 0 360 
L 360 360 
L 360 0 
L 0 0 
z
" style="fill: #ffffff"/>
  </g>
  <g id="axes_1">
   <g id="patch_2">
    <path d="M 60.468889 190.4328 
L 349.2 190.4328 
L 349.2 25.44 
L 60.468889 25.44 
z
" style="fill: #ffffff"/>
   </g>
   <g id="PolyCollection_1">
    <path d="M 74.882963 36.024894 
L 74.882963 40.744141 
L 77.462828 40.783808 
L 80.042694 40.825149 
L 82.622559 40.868233 
L 85.202424 40.913134 
L 87.782289 40.959932 
L 90.362154 41.008709 
L 92.942019 41.059553 
L 95.521884 41.112555 
L 98.101749 41.167812 
L 100.681614 41.225426 
L 103.261479 41.285507 
L 105.841345 41.348167 
L 108.42121 41.413527 
L 111.001075 41.481714 
L 113.58094 41.552862 
L 116.160805 41.627113 
L 118.74067 41.704618 
L 121.320535 41.785534 
L 123.9004 41.870028 
L 126.480265 41.958279 
L 129.06013 42.050473 
L 131.639996 42.146809 
L 134.219861 42.247496 
L 136.799726 42.352757 
L 139.379591 42.462826 
L 141.959456 42.577952 
L 144.539321 42.6984 
L 147.119186 42.824447 
L 149.699051 42.956391 
L 152.278916 43.094545 
L 154.858781 43.239241 
L 157.438647 43.390833 
L 160.018512 43.549695 
L 162.598377 43.716223 
L 165.178242 43.89084 
L 167.758107 44.073993 
L 170.337972 44.266157 
L 172.917837 44.467839 
L 175.497702 44.679574 
L 178.077567 44.901933 
L 180.657432 45.135525 
L 183.237298 45.380995 
L 185.817163 45.639031 
L 188.397028 45.910367 
L 190.976893 46.195782 
L 193.556758 46.496109 
L 196.136623 46.812235 
L 198.716488 47.145107 
L 201.296353 47.495735 
L 203.876218 47.865199 
L 206.456083 48.254651 
L 209.035949 48.665323 
L 211.615814 49.098531 
L 214.195679 49.555683 
L 216.775544 50.038285 
L 219.355409 50.547948 
L 221.935274 51.086397 
L 224.515139 51.655475 
L 227.095004 52.257155 
L 229.674869 52.893548 
L 232.254735 53.566909 
L 234.8346 54.27965 
L 237.414465 55.034347 
L 239.99433 55.833747 
L 242.574195 56.680783 
L 245.15406 57.578578 
L 247.733925 58.530458 
L 250.31379 59.539961 
L 252.893655 60.610848 
L 255.47352 61.747118 
L 258.053386 62.953017 
L 260.633251 64.233058 
L 263.213116 65.592038 
L 265.792981 67.035063 
L 268.372846 68.567577 
L 270.952711 70.195392 
L 273.532576 71.924733 
L 276.112441 73.762288 
L 278.692306 75.715269 
L 281.272171 77.791485 
L 283.852037 79.99944 
L 286.431902 82.348444 
L 289.011767 84.848759 
L 291.591632 87.511789 
L 294.171497 90.350317 
L 296.751362 93.378834 
L 299.331227 96.613979 
L 301.911092 100.075158 
L 304.490957 103.785435 
L 307.070822 107.772863 
L 309.650688 112.072558 
L 312.230553 116.730057 
L 314.810418 121.807115 
L 317.390283 127.392417 
L 319.970148 133.623291 
L 322.550013 140.73563 
L 325.129878 149.202189 
L 327.709743 160.256647 
L 330.289608 180.079834 
L 330.289608 125.087552 
L 330.289608 125.087552 
L 327.709743 120.432034 
L 325.129878 116.031285 
L 322.550013 111.871046 
L 319.970148 107.937825 
L 317.390283 104.218858 
L 314.810418 100.702066 
L 312.230553 97.376026 
L 309.650688 94.229932 
L 307.070822 91.253568 
L 304.490957 88.437275 
L 301.911092 85.771923 
L 299.331227 83.248885 
L 296.751362 80.860015 
L 294.171497 78.597619 
L 291.591632 76.454438 
L 289.011767 74.423626 
L 286.431902 72.498731 
L 283.852037 70.673676 
L 281.272171 68.942745 
L 278.692306 67.300565 
L 276.112441 65.742093 
L 273.532576 64.262599 
L 270.952711 62.857652 
L 268.372846 61.523109 
L 265.792981 60.255096 
L 263.213116 59.049997 
L 260.633251 57.904437 
L 258.053386 56.815265 
L 255.47352 55.779544 
L 252.893655 54.794529 
L 250.31379 53.857654 
L 247.733925 52.966516 
L 245.15406 52.118862 
L 242.574195 51.312571 
L 239.99433 50.545647 
L 237.414465 49.816202 
L 234.8346 49.122449 
L 232.254735 48.46269 
L 229.674869 47.835313 
L 227.095004 47.23878 
L 224.515139 46.671625 
L 221.935274 46.132445 
L 219.355409 45.619902 
L 216.775544 45.132716 
L 214.195679 44.669659 
L 211.615814 44.229561 
L 209.035949 43.811297 
L 206.456083 43.413796 
L 203.876218 43.036029 
L 201.296353 42.677015 
L 198.716488 42.335816 
L 196.136623 42.011534 
L 193.556758 41.703315 
L 190.976893 41.41034 
L 188.397028 41.13183 
L 185.817163 40.867041 
L 183.237298 40.615264 
L 180.657432 40.375824 
L 178.077567 40.148078 
L 175.497702 39.931412 
L 172.917837 39.725244 
L 170.337972 39.529019 
L 167.758107 39.342208 
L 165.178242 39.164311 
L 162.598377 38.994849 
L 160.018512 38.83337 
L 157.438647 38.679442 
L 154.858781 38.532657 
L 152.278916 38.392625 
L 149.699051 38.258976 
L 147.119186 38.131362 
L 144.539321 38.009449 
L 141.959456 37.892921 
L 139.379591 37.781478 
L 136.799726 37.674838 
L 134.219861 37.572729 
L 131.639996 37.474897 
L 129.06013 37.381099 
L 126.480265 37.291105 
L 123.9004 37.204698 
L 121.320535 37.121671 
L 118.74067 37.041828 
L 116.160805 36.964984 
L 113.58094 36.890964 
L 111.001075 36.819601 
L 108.42121 36.750738 
L 105.841345 36.684225 
L 103.261479 36.619922 
L 100.681614 36.557694 
L 98.101749 36.497416 
L 95.521884 36.438968 
L 92.942019 36.382237 
L 90.362154 36.327115 
L 87.782289 36.273502 
L 85.202424 36.221302 
L 82.622559 36.170424 
L 80.042694 36.120783 
L 77.462828 36.072299 
L 74.882963 36.024894 
z
" clip-path="url(#pf894412885)" style="fill: #008000; fill-opacity: 0.5"/>
   </g>
   <g id="PolyCollection_2">
    <path d="M 74.882963 37.67784 
L 74.882963 38.675367 
L 77.462828 38.699787 
L 80.042694 38.72616 
L 82.622559 38.754614 
L 85.202424 38.785284 
L 87.782289 38.818315 
L 90.362154 38.853863 
L 92.942019 38.892091 
L 95.521884 38.933172 
L 98.101749 38.977288 
L 100.681614 39.024625 
L 103.261479 39.075374 
L 105.841345 39.129729 
L 108.42121 39.187878 
L 111.001075 39.250006 
L 113.58094 39.316288 
L 116.160805 39.386887 
L 118.74067 39.461951 
L 121.320535 39.541615 
L 123.9004 39.626001 
L 126.480265 39.71522 
L 129.06013 39.809378 
L 131.639996 39.908582 
L 134.219861 40.01294 
L 136.799726 40.122572 
L 139.379591 40.237612 
L 141.959456 40.35821 
L 144.539321 40.484538 
L 147.119186 40.616792 
L 149.699051 40.755192 
L 152.278916 40.899986 
L 154.858781 41.051451 
L 157.438647 41.209893 
L 160.018512 41.37565 
L 162.598377 41.549091 
L 165.178242 41.730623 
L 167.758107 41.920685 
L 170.337972 42.119758 
L 172.917837 42.328362 
L 175.497702 42.547059 
L 178.077567 42.77646 
L 180.657432 43.017223 
L 183.237298 43.270059 
L 185.817163 43.535735 
L 188.397028 43.815079 
L 190.976893 44.10898 
L 193.556758 44.418396 
L 196.136623 44.744356 
L 198.716488 45.087958 
L 201.296353 45.450381 
L 203.876218 45.832878 
L 206.456083 46.236785 
L 209.035949 46.663514 
L 211.615814 47.114563 
L 214.195679 47.591508 
L 216.775544 48.096008 
L 219.355409 48.629806 
L 221.935274 49.19473 
L 224.515139 49.792698 
L 227.095004 50.425717 
L 229.674869 51.095899 
L 232.254735 51.805457 
L 234.8346 52.556723 
L 237.414465 53.352152 
L 239.99433 54.194339 
L 242.574195 55.086026 
L 245.15406 56.030119 
L 247.733925 57.0297 
L 250.31379 58.088047 
L 252.893655 59.208647 
L 255.47352 60.395218 
L 258.053386 61.651726 
L 260.633251 62.982412 
L 263.213116 64.391814 
L 265.792981 65.884799 
L 268.372846 67.466593 
L 270.952711 69.142823 
L 273.532576 70.919557 
L 276.112441 72.803362 
L 278.692306 74.801359 
L 281.272171 76.921307 
L 283.852037 79.171692 
L 286.431902 81.561841 
L 289.011767 84.102074 
L 291.591632 86.803885 
L 294.171497 89.680194 
L 296.751362 92.745676 
L 299.331227 96.017216 
L 301.911092 99.514542 
L 304.490957 103.261157 
L 307.070822 107.285717 
L 309.650688 111.624202 
L 312.230553 116.323451 
L 314.810418 121.447293 
L 317.390283 127.087984 
L 319.970148 133.38962 
L 322.550013 140.602813 
L 325.129878 149.239706 
L 327.709743 160.687821 
L 330.289608 182.933127 
L 330.289608 125.064246 
L 330.289608 125.064246 
L 327.709743 120.422542 
L 325.129878 116.036547 
L 322.550013 111.892057 
L 319.970148 107.97564 
L 317.390283 104.274586 
L 314.810418 100.776882 
L 312.230553 97.471166 
L 309.650688 94.346696 
L 307.070822 91.393321 
L 304.490957 88.601445 
L 301.911092 85.962002 
L 299.331227 83.466424 
L 296.751362 81.106619 
L 294.171497 78.874944 
L 291.591632 76.764179 
L 289.011767 74.767506 
L 286.431902 72.87849 
L 283.852037 71.091052 
L 281.272171 69.399458 
L 278.692306 67.798291 
L 276.112441 66.282442 
L 273.532576 64.847086 
L 270.952711 63.487672 
L 268.372846 62.199903 
L 265.792981 60.979727 
L 263.213116 59.823318 
L 260.633251 58.727068 
L 258.053386 57.687572 
L 255.47352 56.701618 
L 252.893655 55.766176 
L 250.31379 54.878391 
L 247.733925 54.035571 
L 245.15406 53.235178 
L 242.574195 52.474824 
L 239.99433 51.752263 
L 237.414465 51.065383 
L 234.8346 50.412201 
L 232.254735 49.790862 
L 229.674869 49.199627 
L 227.095004 48.636875 
L 224.515139 48.101093 
L 221.935274 47.590877 
L 219.355409 47.10492 
L 216.775544 46.64201 
L 214.195679 46.201024 
L 211.615814 45.780917 
L 209.035949 45.38072 
L 206.456083 44.999523 
L 203.876218 44.636479 
L 201.296353 44.290785 
L 198.716488 43.961683 
L 196.136623 43.64845 
L 193.556758 43.350395 
L 190.976893 43.066853 
L 188.397028 42.797183 
L 185.817163 42.540765 
L 183.237298 42.297 
L 180.657432 42.065303 
L 178.077567 41.845111 
L 175.497702 41.635875 
L 172.917837 41.437061 
L 170.337972 41.248153 
L 167.758107 41.068647 
L 165.178242 40.898057 
L 162.598377 40.735908 
L 160.018512 40.58174 
L 157.438647 40.435103 
L 154.858781 40.295562 
L 152.278916 40.162691 
L 149.699051 40.036073 
L 147.119186 39.915301 
L 144.539321 39.799976 
L 141.959456 39.689706 
L 139.379591 39.584108 
L 136.799726 39.482806 
L 134.219861 39.38543 
L 131.639996 39.291625 
L 129.06013 39.201043 
L 126.480265 39.113356 
L 123.9004 39.028252 
L 121.320535 38.945442 
L 118.74067 38.864667 
L 116.160805 38.785695 
L 113.58094 38.708325 
L 111.001075 38.63239 
L 108.42121 38.557753 
L 105.841345 38.484306 
L 103.261479 38.411964 
L 100.681614 38.340663 
L 98.101749 38.270354 
L 95.521884 38.201002 
L 92.942019 38.132578 
L 90.362154 38.065058 
L 87.782289 37.998421 
L 85.202424 37.93265 
L 82.622559 37.867726 
L 80.042694 37.803629 
L 77.462828 37.740341 
L 74.882963 37.67784 
z
" clip-path="url(#pf894412885)" style="fill: #ff0000; fill-opacity: 0.6"/>
   </g>
   <g id="matplotlib.axis_1">
    <g id="xtick_1">
     <g id="line2d_1">
      <defs>
       <path id="mf2e88cc82c" d="M 0 0 
L 0 3.5 
" style="stroke: #000000; stroke-width: 0.8"/>
      </defs>
      <g>
       <use xlink:href="#mf2e88cc82c" x="121.116861" y="190.4328" style="stroke: #000000; stroke-width: 0.8"/>
      </g>
     </g>
    </g>
    <g id="xtick_2">
     <g id="line2d_2">
      <g>
       <use xlink:href="#mf2e88cc82c" x="229.742761" y="190.4328" style="stroke: #000000; stroke-width: 0.8"/>
      </g>
     </g>
    </g>
    <g id="xtick_3">
     <g id="line2d_3">
      <g>
       <use xlink:href="#mf2e88cc82c" x="338.368661" y="190.4328" style="stroke: #000000; stroke-width: 0.8"/>
      </g>
     </g>
    </g>
    <g id="xtick_4">
     <g id="line2d_4">
      <defs>
       <path id="m28f6f20eff" d="M 0 0 
L 0 2 
" style="stroke: #000000; stroke-width: 0.6"/>
      </defs>
      <g>
       <use xlink:href="#m28f6f20eff" x="64.318687" y="190.4328" style="stroke: #000000; stroke-width: 0.6"/>
      </g>
     </g>
    </g>
    <g id="xtick_5">
     <g id="line2d_5">
      <g>
       <use xlink:href="#m28f6f20eff" x="77.89027" y="190.4328" style="stroke: #000000; stroke-width: 0.6"/>
      </g>
     </g>
    </g>
    <g id="xtick_6">
     <g id="line2d_6">
      <g>
       <use xlink:href="#m28f6f20eff" x="88.417207" y="190.4328" style="stroke: #000000; stroke-width: 0.6"/>
      </g>
     </g>
    </g>
    <g id="xtick_7">
     <g id="line2d_7">
      <g>
       <use xlink:href="#m28f6f20eff" x="97.018341" y="190.4328" style="stroke: #000000; stroke-width: 0.6"/>
      </g>
     </g>
    </g>
    <g id="xtick_8">
     <g id="line2d_8">
      <g>
       <use xlink:href="#m28f6f20eff" x="104.290497" y="190.4328" style="stroke: #000000; stroke-width: 0.6"/>
      </g>
     </g>
    </g>
    <g id="xtick_9">
     <g id="line2d_9">
      <g>
       <use xlink:href="#m28f6f20eff" x="110.589924" y="190.4328" style="stroke: #000000; stroke-width: 0.6"/>
      </g>
     </g>
    </g>
    <g id="xtick_10">
     <g id="line2d_10">
      <g>
       <use xlink:href="#m28f6f20eff" x="116.146413" y="190.4328" style="stroke: #000000; stroke-width: 0.6"/>
      </g>
     </g>
    </g>
    <g id="xtick_11">
     <g id="line2d_11">
      <g>
       <use xlink:href="#m28f6f20eff" x="153.816515" y="190.4328" style="stroke: #000000; stroke-width: 0.6"/>
      </g>
     </g>
    </g>
    <g id="xtick_12">
     <g id="line2d_12">
      <g>
       <use xlink:href="#m28f6f20eff" x="172.944587" y="190.4328" style="stroke: #000000; stroke-width: 0.6"/>
      </g>
     </g>
    </g>
    <g id="xtick_13">
     <g id="line2d_13">
      <g>
       <use xlink:href="#m28f6f20eff" x="186.51617" y="190.4328" style="stroke: #000000; stroke-width: 0.6"/>
      </g>
     </g>
    </g>
    <g id="xtick_14">
     <g id="line2d_14">
      <g>
       <use xlink:href="#m28f6f20eff" x="197.043107" y="190.4328" style="stroke: #000000; stroke-width: 0.6"/>
      </g>
     </g>
    </g>
    <g id="xtick_15">
     <g id="line2d_15">
      <g>
       <use xlink:href="#m28f6f20eff" x="205.644241" y="190.4328" style="stroke: #000000; stroke-width: 0.6"/>
      </g>
     </g>
    </g>
    <g id="xtick_16">
     <g id="line2d_16">
      <g>
       <use xlink:href="#m28f6f20eff" x="212.916396" y="190.4328" style="stroke: #000000; stroke-width: 0.6"/>
      </g>
     </g>
    </g>
    <g id="xtick_17">
     <g id="line2d_17">
      <g>
       <use xlink:href="#m28f6f20eff" x="219.215824" y="190.4328" style="stroke: #000000; stroke-width: 0.6"/>
      </g>
     </g>
    </g>
    <g id="xtick_18">
     <g id="line2d_18">
      <g>
       <use xlink:href="#m28f6f20eff" x="224.772312" y="190.4328" style="stroke: #000000; stroke-width: 0.6"/>
      </g>
     </g>
    </g>
    <g id="xtick_19">
     <g id="line2d_19">
      <g>
       <use xlink:href="#m28f6f20eff" x="262.442415" y="190.4328" style="stroke: #000000; stroke-width: 0.6"/>
      </g>
     </g>
    </g>
    <g id="xtick_20">
     <g id="line2d_20">
      <g>
       <use xlink:href="#m28f6f20eff" x="281.570486" y="190.4328" style="stroke: #000000; stroke-width: 0.6"/>
      </g>
     </g>
    </g>
    <g id="xtick_21">
     <g id="line2d_21">
      <g>
       <use xlink:href="#m28f6f20eff" x="295.142069" y="190.4328" style="stroke: #000000; stroke-width: 0.6"/>
      </g>
     </g>
    </g>
    <g id="xtick_22">
     <g id="line2d_22">
      <g>
       <use xlink:href="#m28f6f20eff" x="305.669006" y="190.4328" style="stroke: #000000; stroke-width: 0.6"/>
      </g>
     </g>
    </g>
    <g id="xtick_23">
     <g id="line2d_23">
      <g>
       <use xlink:href="#m28f6f20eff" x="314.270141" y="190.4328" style="stroke: #000000; stroke-width: 0.6"/>
      </g>
     </g>
    </g>
    <g id="xtick_24">
     <g id="line2d_24">
      <g>
       <use xlink:href="#m28f6f20eff" x="321.542296" y="190.4328" style="stroke: #000000; stroke-width: 0.6"/>
      </g>
     </g>
    </g>
    <g id="xtick_25">
     <g id="line2d_25">
      <g>
       <use xlink:href="#m28f6f20eff" x="327.841723" y="190.4328" style="stroke: #000000; stroke-width: 0.6"/>
      </g>
     </g>
    </g>
    <g id="xtick_26">
     <g id="line2d_26">
      <g>
       <use xlink:href="#m28f6f20eff" x="333.398212" y="190.4328" style="stroke: #000000; stroke-width: 0.6"/>
      </g>
     </g>
    </g>
   </g>
   <g id="matplotlib.axis_2">
    <g id="ytick_1">
     <g id="line2d_27">
      <defs>
       <path id="m9603acb62d" d="M 0 0 
L -3.5 0 
" style="stroke: #000000; stroke-width: 0.8"/>
      </defs>
      <g>
       <use xlink:href="#m9603acb62d" x="60.468889" y="166.305016" style="stroke: #000000; stroke-width: 0.8"/>
      </g>
     </g>
     <g id="text_1">
      <!-- $\mathdefault{10^{-16}}$ -->
      <g transform="translate(25.568889 170.104235) scale(0.1 -0.1)">
       <defs>
        <path id="DejaVuSans-31" d="M 794 531 
L 1825 531 
L 1825 4091 
L 703 3866 
L 703 4441 
L 1819 4666 
L 2450 4666 
L 2450 531 
L 3481 531 
L 3481 0 
L 794 0 
L 794 531 
z
" transform="scale(0.015625)"/>
        <path id="DejaVuSans-30" d="M 2034 4250 
Q 1547 4250 1301 3770 
Q 1056 3291 1056 2328 
Q 1056 1369 1301 889 
Q 1547 409 2034 409 
Q 2525 409 2770 889 
Q 3016 1369 3016 2328 
Q 3016 3291 2770 3770 
Q 2525 4250 2034 4250 
z
M 2034 4750 
Q 2819 4750 3233 4129 
Q 3647 3509 3647 2328 
Q 3647 1150 3233 529 
Q 2819 -91 2034 -91 
Q 1250 -91 836 529 
Q 422 1150 422 2328 
Q 422 3509 836 4129 
Q 1250 4750 2034 4750 
z
" transform="scale(0.015625)"/>
        <path id="DejaVuSans-2212" d="M 678 2272 
L 4684 2272 
L 4684 1741 
L 678 1741 
L 678 2272 
z
" transform="scale(0.015625)"/>
        <path id="DejaVuSans-36" d="M 2113 2584 
Q 1688 2584 1439 2293 
Q 1191 2003 1191 1497 
Q 1191 994 1439 701 
Q 1688 409 2113 409 
Q 2538 409 2786 701 
Q 3034 994 3034 1497 
Q 3034 2003 2786 2293 
Q 2538 2584 2113 2584 
z
M 3366 4563 
L 3366 3988 
Q 3128 4100 2886 4159 
Q 2644 4219 2406 4219 
Q 1781 4219 1451 3797 
Q 1122 3375 1075 2522 
Q 1259 2794 1537 2939 
Q 1816 3084 2150 3084 
Q 2853 3084 3261 2657 
Q 3669 2231 3669 1497 
Q 3669 778 3244 343 
Q 2819 -91 2113 -91 
Q 1303 -91 875 529 
Q 447 1150 447 2328 
Q 447 3434 972 4092 
Q 1497 4750 2381 4750 
Q 2619 4750 2861 4703 
Q 3103 4656 3366 4563 
z
" transform="scale(0.015625)"/>
       </defs>
       <use xlink:href="#DejaVuSans-31" transform="translate(0 0.765625)"/>
       <use xlink:href="#DejaVuSans-30" transform="translate(63.623047 0.765625)"/>
       <use xlink:href="#DejaVuSans-2212" transform="translate(128.203125 39.046875) scale(0.7)"/>
       <use xlink:href="#DejaVuSans-31" transform="translate(186.855469 39.046875) scale(0.7)"/>
       <use xlink:href="#DejaVuSans-36" transform="translate(231.391602 39.046875) scale(0.7)"/>
      </g>
     </g>
    </g>
    <g id="ytick_2">
     <g id="line2d_28">
      <g>
       <use xlink:href="#m9603acb62d" x="60.468889" y="137.412856" style="stroke: #000000; stroke-width: 0.8"/>
      </g>
     </g>
     <g id="text_2">
      <!-- $\mathdefault{10^{-15}}$ -->
      <g transform="translate(25.568889 141.212075) scale(0.1 -0.1)">
       <defs>
        <path id="DejaVuSans-35" d="M 691 4666 
L 3169 4666 
L 3169 4134 
L 1269 4134 
L 1269 2991 
Q 1406 3038 1543 3061 
Q 1681 3084 1819 3084 
Q 2600 3084 3056 2656 
Q 3513 2228 3513 1497 
Q 3513 744 3044 326 
Q 2575 -91 1722 -91 
Q 1428 -91 1123 -41 
Q 819 9 494 109 
L 494 744 
Q 775 591 1075 516 
Q 1375 441 1709 441 
Q 2250 441 2565 725 
Q 2881 1009 2881 1497 
Q 2881 1984 2565 2268 
Q 2250 2553 1709 2553 
Q 1456 2553 1204 2497 
Q 953 2441 691 2322 
L 691 4666 
z
" transform="scale(0.015625)"/>
       </defs>
       <use xlink:href="#DejaVuSans-31" transform="translate(0 0.684375)"/>
       <use xlink:href="#DejaVuSans-30" transform="translate(63.623047 0.684375)"/>
       <use xlink:href="#DejaVuSans-2212" transform="translate(128.203125 38.965625) scale(0.7)"/>
       <use xlink:href="#DejaVuSans-31" transform="translate(186.855469 38.965625) scale(0.7)"/>
       <use xlink:href="#DejaVuSans-35" transform="translate(231.391602 38.965625) scale(0.7)"/>
      </g>
     </g>
    </g>
    <g id="ytick_3">
     <g id="line2d_29">
      <g>
       <use xlink:href="#m9603acb62d" x="60.468889" y="108.520696" style="stroke: #000000; stroke-width: 0.8"/>
      </g>
     </g>
     <g id="text_3">
      <!-- $\mathdefault{10^{-14}}$ -->
      <g transform="translate(25.568889 112.319915) scale(0.1 -0.1)">
       <defs>
        <path id="DejaVuSans-34" d="M 2419 4116 
L 825 1625 
L 2419 1625 
L 2419 4116 
z
M 2253 4666 
L 3047 4666 
L 3047 1625 
L 3713 1625 
L 3713 1100 
L 3047 1100 
L 3047 0 
L 2419 0 
L 2419 1100 
L 313 1100 
L 313 1709 
L 2253 4666 
z
" transform="scale(0.015625)"/>
       </defs>
       <use xlink:href="#DejaVuSans-31" transform="translate(0 0.684375)"/>
       <use xlink:href="#DejaVuSans-30" transform="translate(63.623047 0.684375)"/>
       <use xlink:href="#DejaVuSans-2212" transform="translate(128.203125 38.965625) scale(0.7)"/>
       <use xlink:href="#DejaVuSans-31" transform="translate(186.855469 38.965625) scale(0.7)"/>
       <use xlink:href="#DejaVuSans-34" transform="translate(231.391602 38.965625) scale(0.7)"/>
      </g>
     </g>
    </g>
    <g id="ytick_4">
     <g id="line2d_30">
      <g>
       <use xlink:href="#m9603acb62d" x="60.468889" y="79.628536" style="stroke: #000000; stroke-width: 0.8"/>
      </g>
     </g>
     <g id="text_4">
      <!-- $\mathdefault{10^{-13}}$ -->
      <g transform="translate(25.568889 83.427754) scale(0.1 -0.1)">
       <defs>
        <path id="DejaVuSans-33" d="M 2597 2516 
Q 3050 2419 3304 2112 
Q 3559 1806 3559 1356 
Q 3559 666 3084 287 
Q 2609 -91 1734 -91 
Q 1441 -91 1130 -33 
Q 819 25 488 141 
L 488 750 
Q 750 597 1062 519 
Q 1375 441 1716 441 
Q 2309 441 2620 675 
Q 2931 909 2931 1356 
Q 2931 1769 2642 2001 
Q 2353 2234 1838 2234 
L 1294 2234 
L 1294 2753 
L 1863 2753 
Q 2328 2753 2575 2939 
Q 2822 3125 2822 3475 
Q 2822 3834 2567 4026 
Q 2313 4219 1838 4219 
Q 1578 4219 1281 4162 
Q 984 4106 628 3988 
L 628 4550 
Q 988 4650 1302 4700 
Q 1616 4750 1894 4750 
Q 2613 4750 3031 4423 
Q 3450 4097 3450 3541 
Q 3450 3153 3228 2886 
Q 3006 2619 2597 2516 
z
" transform="scale(0.015625)"/>
       </defs>
       <use xlink:href="#DejaVuSans-31" transform="translate(0 0.765625)"/>
       <use xlink:href="#DejaVuSans-30" transform="translate(63.623047 0.765625)"/>
       <use xlink:href="#DejaVuSans-2212" transform="translate(128.203125 39.046875) scale(0.7)"/>
       <use xlink:href="#DejaVuSans-31" transform="translate(186.855469 39.046875) scale(0.7)"/>
       <use xlink:href="#DejaVuSans-33" transform="translate(231.391602 39.046875) scale(0.7)"/>
      </g>
     </g>
    </g>
    <g id="ytick_5">
     <g id="line2d_31">
      <g>
       <use xlink:href="#m9603acb62d" x="60.468889" y="50.736375" style="stroke: #000000; stroke-width: 0.8"/>
      </g>
     </g>
     <g id="text_5">
      <!-- $\mathdefault{10^{-12}}$ -->
      <g transform="translate(25.568889 54.535594) scale(0.1 -0.1)">
       <defs>
        <path id="DejaVuSans-32" d="M 1228 531 
L 3431 531 
L 3431 0 
L 469 0 
L 469 531 
Q 828 903 1448 1529 
Q 2069 2156 2228 2338 
Q 2531 2678 2651 2914 
Q 2772 3150 2772 3378 
Q 2772 3750 2511 3984 
Q 2250 4219 1831 4219 
Q 1534 4219 1204 4116 
Q 875 4013 500 3803 
L 500 4441 
Q 881 4594 1212 4672 
Q 1544 4750 1819 4750 
Q 2544 4750 2975 4387 
Q 3406 4025 3406 3419 
Q 3406 3131 3298 2873 
Q 3191 2616 2906 2266 
Q 2828 2175 2409 1742 
Q 1991 1309 1228 531 
z
" transform="scale(0.015625)"/>
       </defs>
       <use xlink:href="#DejaVuSans-31" transform="translate(0 0.765625)"/>
       <use xlink:href="#DejaVuSans-30" transform="translate(63.623047 0.765625)"/>
       <use xlink:href="#DejaVuSans-2212" transform="translate(128.203125 39.046875) scale(0.7)"/>
       <use xlink:href="#DejaVuSans-31" transform="translate(186.855469 39.046875) scale(0.7)"/>
       <use xlink:href="#DejaVuSans-32" transform="translate(231.391602 39.046875) scale(0.7)"/>
      </g>
     </g>
    </g>
    <g id="ytick_6">
     <g id="line2d_32">
      <defs>
       <path id="m473875ed5f" d="M 0 0 
L -2 0 
" style="stroke: #000000; stroke-width: 0.6"/>
      </defs>
      <g>
       <use xlink:href="#m473875ed5f" x="60.468889" y="186.499769" style="stroke: #000000; stroke-width: 0.6"/>
      </g>
     </g>
    </g>
    <g id="ytick_7">
     <g id="line2d_33">
      <g>
       <use xlink:href="#m473875ed5f" x="60.468889" y="181.412113" style="stroke: #000000; stroke-width: 0.6"/>
      </g>
     </g>
    </g>
    <g id="ytick_8">
     <g id="line2d_34">
      <g>
       <use xlink:href="#m473875ed5f" x="60.468889" y="177.802363" style="stroke: #000000; stroke-width: 0.6"/>
      </g>
     </g>
    </g>
    <g id="ytick_9">
     <g id="line2d_35">
      <g>
       <use xlink:href="#m473875ed5f" x="60.468889" y="175.002423" style="stroke: #000000; stroke-width: 0.6"/>
      </g>
     </g>
    </g>
    <g id="ytick_10">
     <g id="line2d_36">
      <g>
       <use xlink:href="#m473875ed5f" x="60.468889" y="172.714706" style="stroke: #000000; stroke-width: 0.6"/>
      </g>
     </g>
    </g>
    <g id="ytick_11">
     <g id="line2d_37">
      <g>
       <use xlink:href="#m473875ed5f" x="60.468889" y="170.780468" style="stroke: #000000; stroke-width: 0.6"/>
      </g>
     </g>
    </g>
    <g id="ytick_12">
     <g id="line2d_38">
      <g>
       <use xlink:href="#m473875ed5f" x="60.468889" y="169.104956" style="stroke: #000000; stroke-width: 0.6"/>
      </g>
     </g>
    </g>
    <g id="ytick_13">
     <g id="line2d_39">
      <g>
       <use xlink:href="#m473875ed5f" x="60.468889" y="167.627049" style="stroke: #000000; stroke-width: 0.6"/>
      </g>
     </g>
    </g>
    <g id="ytick_14">
     <g id="line2d_40">
      <g>
       <use xlink:href="#m473875ed5f" x="60.468889" y="157.607609" style="stroke: #000000; stroke-width: 0.6"/>
      </g>
     </g>
    </g>
    <g id="ytick_15">
     <g id="line2d_41">
      <g>
       <use xlink:href="#m473875ed5f" x="60.468889" y="152.519952" style="stroke: #000000; stroke-width: 0.6"/>
      </g>
     </g>
    </g>
    <g id="ytick_16">
     <g id="line2d_42">
      <g>
       <use xlink:href="#m473875ed5f" x="60.468889" y="148.910202" style="stroke: #000000; stroke-width: 0.6"/>
      </g>
     </g>
    </g>
    <g id="ytick_17">
     <g id="line2d_43">
      <g>
       <use xlink:href="#m473875ed5f" x="60.468889" y="146.110263" style="stroke: #000000; stroke-width: 0.6"/>
      </g>
     </g>
    </g>
    <g id="ytick_18">
     <g id="line2d_44">
      <g>
       <use xlink:href="#m473875ed5f" x="60.468889" y="143.822546" style="stroke: #000000; stroke-width: 0.6"/>
      </g>
     </g>
    </g>
    <g id="ytick_19">
     <g id="line2d_45">
      <g>
       <use xlink:href="#m473875ed5f" x="60.468889" y="141.888308" style="stroke: #000000; stroke-width: 0.6"/>
      </g>
     </g>
    </g>
    <g id="ytick_20">
     <g id="line2d_46">
      <g>
       <use xlink:href="#m473875ed5f" x="60.468889" y="140.212796" style="stroke: #000000; stroke-width: 0.6"/>
      </g>
     </g>
    </g>
    <g id="ytick_21">
     <g id="line2d_47">
      <g>
       <use xlink:href="#m473875ed5f" x="60.468889" y="138.734889" style="stroke: #000000; stroke-width: 0.6"/>
      </g>
     </g>
    </g>
    <g id="ytick_22">
     <g id="line2d_48">
      <g>
       <use xlink:href="#m473875ed5f" x="60.468889" y="128.715449" style="stroke: #000000; stroke-width: 0.6"/>
      </g>
     </g>
    </g>
    <g id="ytick_23">
     <g id="line2d_49">
      <g>
       <use xlink:href="#m473875ed5f" x="60.468889" y="123.627792" style="stroke: #000000; stroke-width: 0.6"/>
      </g>
     </g>
    </g>
    <g id="ytick_24">
     <g id="line2d_50">
      <g>
       <use xlink:href="#m473875ed5f" x="60.468889" y="120.018042" style="stroke: #000000; stroke-width: 0.6"/>
      </g>
     </g>
    </g>
    <g id="ytick_25">
     <g id="line2d_51">
      <g>
       <use xlink:href="#m473875ed5f" x="60.468889" y="117.218103" style="stroke: #000000; stroke-width: 0.6"/>
      </g>
     </g>
    </g>
    <g id="ytick_26">
     <g id="line2d_52">
      <g>
       <use xlink:href="#m473875ed5f" x="60.468889" y="114.930385" style="stroke: #000000; stroke-width: 0.6"/>
      </g>
     </g>
    </g>
    <g id="ytick_27">
     <g id="line2d_53">
      <g>
       <use xlink:href="#m473875ed5f" x="60.468889" y="112.996148" style="stroke: #000000; stroke-width: 0.6"/>
      </g>
     </g>
    </g>
    <g id="ytick_28">
     <g id="line2d_54">
      <g>
       <use xlink:href="#m473875ed5f" x="60.468889" y="111.320635" style="stroke: #000000; stroke-width: 0.6"/>
      </g>
     </g>
    </g>
    <g id="ytick_29">
     <g id="line2d_55">
      <g>
       <use xlink:href="#m473875ed5f" x="60.468889" y="109.842729" style="stroke: #000000; stroke-width: 0.6"/>
      </g>
     </g>
    </g>
    <g id="ytick_30">
     <g id="line2d_56">
      <g>
       <use xlink:href="#m473875ed5f" x="60.468889" y="99.823289" style="stroke: #000000; stroke-width: 0.6"/>
      </g>
     </g>
    </g>
    <g id="ytick_31">
     <g id="line2d_57">
      <g>
       <use xlink:href="#m473875ed5f" x="60.468889" y="94.735632" style="stroke: #000000; stroke-width: 0.6"/>
      </g>
     </g>
    </g>
    <g id="ytick_32">
     <g id="line2d_58">
      <g>
       <use xlink:href="#m473875ed5f" x="60.468889" y="91.125882" style="stroke: #000000; stroke-width: 0.6"/>
      </g>
     </g>
    </g>
    <g id="ytick_33">
     <g id="line2d_59">
      <g>
       <use xlink:href="#m473875ed5f" x="60.468889" y="88.325942" style="stroke: #000000; stroke-width: 0.6"/>
      </g>
     </g>
    </g>
    <g id="ytick_34">
     <g id="line2d_60">
      <g>
       <use xlink:href="#m473875ed5f" x="60.468889" y="86.038225" style="stroke: #000000; stroke-width: 0.6"/>
      </g>
     </g>
    </g>
    <g id="ytick_35">
     <g id="line2d_61">
      <g>
       <use xlink:href="#m473875ed5f" x="60.468889" y="84.103988" style="stroke: #000000; stroke-width: 0.6"/>
      </g>
     </g>
    </g>
    <g id="ytick_36">
     <g id="line2d_62">
      <g>
       <use xlink:href="#m473875ed5f" x="60.468889" y="82.428475" style="stroke: #000000; stroke-width: 0.6"/>
      </g>
     </g>
    </g>
    <g id="ytick_37">
     <g id="line2d_63">
      <g>
       <use xlink:href="#m473875ed5f" x="60.468889" y="80.950568" style="stroke: #000000; stroke-width: 0.6"/>
      </g>
     </g>
    </g>
    <g id="ytick_38">
     <g id="line2d_64">
      <g>
       <use xlink:href="#m473875ed5f" x="60.468889" y="70.931129" style="stroke: #000000; stroke-width: 0.6"/>
      </g>
     </g>
    </g>
    <g id="ytick_39">
     <g id="line2d_65">
      <g>
       <use xlink:href="#m473875ed5f" x="60.468889" y="65.843472" style="stroke: #000000; stroke-width: 0.6"/>
      </g>
     </g>
    </g>
    <g id="ytick_40">
     <g id="line2d_66">
      <g>
       <use xlink:href="#m473875ed5f" x="60.468889" y="62.233722" style="stroke: #000000; stroke-width: 0.6"/>
      </g>
     </g>
    </g>
    <g id="ytick_41">
     <g id="line2d_67">
      <g>
       <use xlink:href="#m473875ed5f" x="60.468889" y="59.433782" style="stroke: #000000; stroke-width: 0.6"/>
      </g>
     </g>
    </g>
    <g id="ytick_42">
     <g id="line2d_68">
      <g>
       <use xlink:href="#m473875ed5f" x="60.468889" y="57.146065" style="stroke: #000000; stroke-width: 0.6"/>
      </g>
     </g>
    </g>
    <g id="ytick_43">
     <g id="line2d_69">
      <g>
       <use xlink:href="#m473875ed5f" x="60.468889" y="55.211828" style="stroke: #000000; stroke-width: 0.6"/>
      </g>
     </g>
    </g>
    <g id="ytick_44">
     <g id="line2d_70">
      <g>
       <use xlink:href="#m473875ed5f" x="60.468889" y="53.536315" style="stroke: #000000; stroke-width: 0.6"/>
      </g>
     </g>
    </g>
    <g id="ytick_45">
     <g id="line2d_71">
      <g>
       <use xlink:href="#m473875ed5f" x="60.468889" y="52.058408" style="stroke: #000000; stroke-width: 0.6"/>
      </g>
     </g>
    </g>
    <g id="ytick_46">
     <g id="line2d_72">
      <g>
       <use xlink:href="#m473875ed5f" x="60.468889" y="42.038969" style="stroke: #000000; stroke-width: 0.6"/>
      </g>
     </g>
    </g>
    <g id="ytick_47">
     <g id="line2d_73">
      <g>
       <use xlink:href="#m473875ed5f" x="60.468889" y="36.951312" style="stroke: #000000; stroke-width: 0.6"/>
      </g>
     </g>
    </g>
    <g id="ytick_48">
     <g id="line2d_74">
      <g>
       <use xlink:href="#m473875ed5f" x="60.468889" y="33.341562" style="stroke: #000000; stroke-width: 0.6"/>
      </g>
     </g>
    </g>
    <g id="ytick_49">
     <g id="line2d_75">
      <g>
       <use xlink:href="#m473875ed5f" x="60.468889" y="30.541622" style="stroke: #000000; stroke-width: 0.6"/>
      </g>
     </g>
    </g>
    <g id="ytick_50">
     <g id="line2d_76">
      <g>
       <use xlink:href="#m473875ed5f" x="60.468889" y="28.253905" style="stroke: #000000; stroke-width: 0.6"/>
      </g>
     </g>
    </g>
    <g id="ytick_51">
     <g id="line2d_77">
      <g>
       <use xlink:href="#m473875ed5f" x="60.468889" y="26.319668" style="stroke: #000000; stroke-width: 0.6"/>
      </g>
     </g>
    </g>
    <g id="text_6">
     <!-- e2 * dnde [TeV / (cm2 s)] -->
     <g transform="translate(19.489202 170.416088) rotate(-90) scale(0.1 -0.1)">
      <defs>
       <path id="DejaVuSans-65" d="M 3597 1894 
L 3597 1613 
L 953 1613 
Q 991 1019 1311 708 
Q 1631 397 2203 397 
Q 2534 397 2845 478 
Q 3156 559 3463 722 
L 3463 178 
Q 3153 47 2828 -22 
Q 2503 -91 2169 -91 
Q 1331 -91 842 396 
Q 353 884 353 1716 
Q 353 2575 817 3079 
Q 1281 3584 2069 3584 
Q 2775 3584 3186 3129 
Q 3597 2675 3597 1894 
z
M 3022 2063 
Q 3016 2534 2758 2815 
Q 2500 3097 2075 3097 
Q 1594 3097 1305 2825 
Q 1016 2553 972 2059 
L 3022 2063 
z
" transform="scale(0.015625)"/>
       <path id="DejaVuSans-20" transform="scale(0.015625)"/>
       <path id="DejaVuSans-2a" d="M 3009 3897 
L 1888 3291 
L 3009 2681 
L 2828 2375 
L 1778 3009 
L 1778 1831 
L 1422 1831 
L 1422 3009 
L 372 2375 
L 191 2681 
L 1313 3291 
L 191 3897 
L 372 4206 
L 1422 3572 
L 1422 4750 
L 1778 4750 
L 1778 3572 
L 2828 4206 
L 3009 3897 
z
" transform="scale(0.015625)"/>
       <path id="DejaVuSans-64" d="M 2906 2969 
L 2906 4863 
L 3481 4863 
L 3481 0 
L 2906 0 
L 2906 525 
Q 2725 213 2448 61 
Q 2172 -91 1784 -91 
Q 1150 -91 751 415 
Q 353 922 353 1747 
Q 353 2572 751 3078 
Q 1150 3584 1784 3584 
Q 2172 3584 2448 3432 
Q 2725 3281 2906 2969 
z
M 947 1747 
Q 947 1113 1208 752 
Q 1469 391 1925 391 
Q 2381 391 2643 752 
Q 2906 1113 2906 1747 
Q 2906 2381 2643 2742 
Q 2381 3103 1925 3103 
Q 1469 3103 1208 2742 
Q 947 2381 947 1747 
z
" transform="scale(0.015625)"/>
       <path id="DejaVuSans-6e" d="M 3513 2113 
L 3513 0 
L 2938 0 
L 2938 2094 
Q 2938 2591 2744 2837 
Q 2550 3084 2163 3084 
Q 1697 3084 1428 2787 
Q 1159 2491 1159 1978 
L 1159 0 
L 581 0 
L 581 3500 
L 1159 3500 
L 1159 2956 
Q 1366 3272 1645 3428 
Q 1925 3584 2291 3584 
Q 2894 3584 3203 3211 
Q 3513 2838 3513 2113 
z
" transform="scale(0.015625)"/>
       <path id="DejaVuSans-5b" d="M 550 4863 
L 1875 4863 
L 1875 4416 
L 1125 4416 
L 1125 -397 
L 1875 -397 
L 1875 -844 
L 550 -844 
L 550 4863 
z
" transform="scale(0.015625)"/>
       <path id="DejaVuSans-54" d="M -19 4666 
L 3928 4666 
L 3928 4134 
L 2272 4134 
L 2272 0 
L 1638 0 
L 1638 4134 
L -19 4134 
L -19 4666 
z
" transform="scale(0.015625)"/>
       <path id="DejaVuSans-56" d="M 1831 0 
L 50 4666 
L 709 4666 
L 2188 738 
L 3669 4666 
L 4325 4666 
L 2547 0 
L 1831 0 
z
" transform="scale(0.015625)"/>
       <path id="DejaVuSans-2f" d="M 1625 4666 
L 2156 4666 
L 531 -594 
L 0 -594 
L 1625 4666 
z
" transform="scale(0.015625)"/>
       <path id="DejaVuSans-28" d="M 1984 4856 
Q 1566 4138 1362 3434 
Q 1159 2731 1159 2009 
Q 1159 1288 1364 580 
Q 1569 -128 1984 -844 
L 1484 -844 
Q 1016 -109 783 600 
Q 550 1309 550 2009 
Q 550 2706 781 3412 
Q 1013 4119 1484 4856 
L 1984 4856 
z
" transform="scale(0.015625)"/>
       <path id="DejaVuSans-63" d="M 3122 3366 
L 3122 2828 
Q 2878 2963 2633 3030 
Q 2388 3097 2138 3097 
Q 1578 3097 1268 2742 
Q 959 2388 959 1747 
Q 959 1106 1268 751 
Q 1578 397 2138 397 
Q 2388 397 2633 464 
Q 2878 531 3122 666 
L 3122 134 
Q 2881 22 2623 -34 
Q 2366 -91 2075 -91 
Q 1284 -91 818 406 
Q 353 903 353 1747 
Q 353 2603 823 3093 
Q 1294 3584 2113 3584 
Q 2378 3584 2631 3529 
Q 2884 3475 3122 3366 
z
" transform="scale(0.015625)"/>
       <path id="DejaVuSans-6d" d="M 3328 2828 
Q 3544 3216 3844 3400 
Q 4144 3584 4550 3584 
Q 5097 3584 5394 3201 
Q 5691 2819 5691 2113 
L 5691 0 
L 5113 0 
L 5113 2094 
Q 5113 2597 4934 2840 
Q 4756 3084 4391 3084 
Q 3944 3084 3684 2787 
Q 3425 2491 3425 1978 
L 3425 0 
L 2847 0 
L 2847 2094 
Q 2847 2600 2669 2842 
Q 2491 3084 2119 3084 
Q 1678 3084 1418 2786 
Q 1159 2488 1159 1978 
L 1159 0 
L 581 0 
L 581 3500 
L 1159 3500 
L 1159 2956 
Q 1356 3278 1631 3431 
Q 1906 3584 2284 3584 
Q 2666 3584 2933 3390 
Q 3200 3197 3328 2828 
z
" transform="scale(0.015625)"/>
       <path id="DejaVuSans-73" d="M 2834 3397 
L 2834 2853 
Q 2591 2978 2328 3040 
Q 2066 3103 1784 3103 
Q 1356 3103 1142 2972 
Q 928 2841 928 2578 
Q 928 2378 1081 2264 
Q 1234 2150 1697 2047 
L 1894 2003 
Q 2506 1872 2764 1633 
Q 3022 1394 3022 966 
Q 3022 478 2636 193 
Q 2250 -91 1575 -91 
Q 1294 -91 989 -36 
Q 684 19 347 128 
L 347 722 
Q 666 556 975 473 
Q 1284 391 1588 391 
Q 1994 391 2212 530 
Q 2431 669 2431 922 
Q 2431 1156 2273 1281 
Q 2116 1406 1581 1522 
L 1381 1569 
Q 847 1681 609 1914 
Q 372 2147 372 2553 
Q 372 3047 722 3315 
Q 1072 3584 1716 3584 
Q 2034 3584 2315 3537 
Q 2597 3491 2834 3397 
z
" transform="scale(0.015625)"/>
       <path id="DejaVuSans-29" d="M 513 4856 
L 1013 4856 
Q 1481 4119 1714 3412 
Q 1947 2706 1947 2009 
Q 1947 1309 1714 600 
Q 1481 -109 1013 -844 
L 513 -844 
Q 928 -128 1133 580 
Q 1338 1288 1338 2009 
Q 1338 2731 1133 3434 
Q 928 4138 513 4856 
z
" transform="scale(0.015625)"/>
       <path id="DejaVuSans-5d" d="M 1947 4863 
L 1947 -844 
L 622 -844 
L 622 -397 
L 1369 -397 
L 1369 4416 
L 622 4416 
L 622 4863 
L 1947 4863 
z
" transform="scale(0.015625)"/>
      </defs>
      <use xlink:href="#DejaVuSans-65"/>
      <use xlink:href="#DejaVuSans-32" x="61.523438"/>
      <use xlink:href="#DejaVuSans-20" x="125.146484"/>
      <use xlink:href="#DejaVuSans-2a" x="156.933594"/>
      <use xlink:href="#DejaVuSans-20" x="206.933594"/>
      <use xlink:href="#DejaVuSans-64" x="238.720703"/>
      <use xlink:href="#DejaVuSans-6e" x="302.197266"/>
      <use xlink:href="#DejaVuSans-64" x="365.576172"/>
      <use xlink:href="#DejaVuSans-65" x="429.052734"/>
      <use xlink:href="#DejaVuSans-20" x="490.576172"/>
      <use xlink:href="#DejaVuSans-5b" x="522.363281"/>
      <use xlink:href="#DejaVuSans-54" x="561.376953"/>
      <use xlink:href="#DejaVuSans-65" x="605.460938"/>
      <use xlink:href="#DejaVuSans-56" x="666.984375"/>
      <use xlink:href="#DejaVuSans-20" x="735.392578"/>
      <use xlink:href="#DejaVuSans-2f" x="767.179688"/>
      <use xlink:href="#DejaVuSans-20" x="800.871094"/>
      <use xlink:href="#DejaVuSans-28" x="832.658203"/>
      <use xlink:href="#DejaVuSans-63" x="871.671875"/>
      <use xlink:href="#DejaVuSans-6d" x="926.652344"/>
      <use xlink:href="#DejaVuSans-32" x="1024.064453"/>
      <use xlink:href="#DejaVuSans-20" x="1087.6875"/>
      <use xlink:href="#DejaVuSans-73" x="1119.474609"/>
      <use xlink:href="#DejaVuSans-29" x="1171.574219"/>
      <use xlink:href="#DejaVuSans-5d" x="1210.587891"/>
     </g>
    </g>
   </g>
   <g id="line2d_78">
    <path d="M 74.882963 38.166693 
L 77.462828 38.210895 
L 80.042694 38.256418 
L 82.622559 38.303336 
L 85.202424 38.351726 
L 87.782289 38.401673 
L 90.362154 38.453263 
L 92.942019 38.506588 
L 95.521884 38.561748 
L 98.101749 38.618843 
L 100.681614 38.677984 
L 103.261479 38.739285 
L 105.841345 38.802868 
L 108.42121 38.86886 
L 111.001075 38.937398 
L 113.58094 39.008625 
L 116.160805 39.082691 
L 118.74067 39.159756 
L 121.320535 39.239988 
L 123.9004 39.323567 
L 126.480265 39.410679 
L 129.06013 39.501524 
L 131.639996 39.596312 
L 134.219861 39.695263 
L 136.799726 39.798612 
L 139.379591 39.906606 
L 141.959456 40.019507 
L 144.539321 40.137589 
L 147.119186 40.261145 
L 149.699051 40.390481 
L 152.278916 40.525924 
L 154.858781 40.667816 
L 157.438647 40.816519 
L 160.018512 40.972417 
L 162.598377 41.135913 
L 165.178242 41.307436 
L 167.758107 41.487436 
L 170.337972 41.676389 
L 172.917837 41.874799 
L 175.497702 42.083198 
L 178.077567 42.302147 
L 180.657432 42.532238 
L 183.237298 42.774099 
L 185.817163 43.028391 
L 188.397028 43.295812 
L 190.976893 43.5771 
L 193.556758 43.873036 
L 196.136623 44.184442 
L 198.716488 44.512188 
L 201.296353 44.857192 
L 203.876218 45.220425 
L 206.456083 45.60291 
L 209.035949 46.005731 
L 211.615814 46.43003 
L 214.195679 46.877015 
L 216.775544 47.34796 
L 219.355409 47.844213 
L 221.935274 48.367195 
L 224.515139 48.91841 
L 227.095004 49.499445 
L 229.674869 50.111975 
L 232.254735 50.757771 
L 234.8346 51.438703 
L 237.414465 52.156745 
L 239.99433 52.913984 
L 242.574195 53.712623 
L 245.15406 54.554989 
L 247.733925 55.443539 
L 250.31379 56.380871 
L 252.893655 57.369725 
L 255.47352 58.412998 
L 258.053386 59.513748 
L 260.633251 60.675207 
L 263.213116 61.900787 
L 265.792981 63.194091 
L 268.372846 64.558928 
L 270.952711 65.999316 
L 273.532576 67.519505 
L 276.112441 69.123977 
L 278.692306 70.817473 
L 281.272171 72.604994 
L 283.852037 74.491827 
L 286.431902 76.483553 
L 289.011767 78.586069 
L 291.591632 80.805601 
L 294.171497 83.148728 
L 296.751362 85.622397 
L 299.331227 88.233945 
L 301.911092 90.991122 
L 304.490957 93.902115 
L 307.070822 96.975568 
L 309.650688 100.220614 
L 312.230553 103.646898 
L 314.810418 107.264606 
L 317.390283 111.0845 
L 319.970148 115.117944 
L 322.550013 119.37694 
L 325.129878 123.874168 
L 327.709743 128.623018 
L 330.289608 133.637633 
" clip-path="url(#pf894412885)" style="fill: none; stroke-dasharray: 1.5,2.475; stroke-dashoffset: 0; stroke: #000000; stroke-width: 1.5"/>
   </g>
   <g id="LineCollection_1">
    <path clip-path="url(#pf894412885)" style="fill: none; stroke: #006400; stroke-width: 1.5"/>
    <path clip-path="url(#pf894412885)" style="fill: none; stroke: #006400; stroke-width: 1.5"/>
    <path clip-path="url(#pf894412885)" style="fill: none; stroke: #006400; stroke-width: 1.5"/>
    <path clip-path="url(#pf894412885)" style="fill: none; stroke: #006400; stroke-width: 1.5"/>
    <path d="M 73.593031 39.484205 
L 73.593031 36.967824 
" clip-path="url(#pf894412885)" style="fill: none; stroke: #006400; stroke-width: 1.5"/>
    <path d="M 87.171269 41.725182 
L 87.171269 39.418127 
" clip-path="url(#pf894412885)" style="fill: none; stroke: #006400; stroke-width: 1.5"/>
    <path d="M 100.749505 35.554756 
L 100.749505 32.939673 
" clip-path="url(#pf894412885)" style="fill: none; stroke: #006400; stroke-width: 1.5"/>
    <path d="M 114.327742 37.86239 
L 114.327742 35.472291 
" clip-path="url(#pf894412885)" style="fill: none; stroke: #006400; stroke-width: 1.5"/>
    <path d="M 127.905981 40.796002 
L 127.905981 38.322077 
" clip-path="url(#pf894412885)" style="fill: none; stroke: #006400; stroke-width: 1.5"/>
    <path d="M 141.484219 43.761355 
L 141.484219 41.271611 
" clip-path="url(#pf894412885)" style="fill: none; stroke: #006400; stroke-width: 1.5"/>
    <path d="M 155.062455 43.410615 
L 155.062455 40.731511 
" clip-path="url(#pf894412885)" style="fill: none; stroke: #006400; stroke-width: 1.5"/>
    <path d="M 168.640692 44.621221 
L 168.640692 41.773195 
" clip-path="url(#pf894412885)" style="fill: none; stroke: #006400; stroke-width: 1.5"/>
    <path d="M 182.218931 44.637158 
L 182.218931 41.477666 
" clip-path="url(#pf894412885)" style="fill: none; stroke: #006400; stroke-width: 1.5"/>
    <path d="M 195.797168 44.95477 
L 195.797168 41.575821 
" clip-path="url(#pf894412885)" style="fill: none; stroke: #006400; stroke-width: 1.5"/>
    <path d="M 209.375404 48.439276 
L 209.375404 44.266821 
" clip-path="url(#pf894412885)" style="fill: none; stroke: #006400; stroke-width: 1.5"/>
    <path d="M 222.953642 50.174723 
L 222.953642 45.458384 
" clip-path="url(#pf894412885)" style="fill: none; stroke: #006400; stroke-width: 1.5"/>
    <path d="M 236.53188 54.134624 
L 236.53188 48.442994 
" clip-path="url(#pf894412885)" style="fill: none; stroke: #006400; stroke-width: 1.5"/>
    <path d="M 250.110119 63.40504 
L 250.110119 54.592532 
" clip-path="url(#pf894412885)" style="fill: none; stroke: #006400; stroke-width: 1.5"/>
    <path d="M 263.688356 89.833822 
L 263.688356 65.032212 
" clip-path="url(#pf894412885)" style="fill: none; stroke: #006400; stroke-width: 1.5"/>
    <path clip-path="url(#pf894412885)" style="fill: none; stroke: #006400; stroke-width: 1.5"/>
    <path d="M 290.844829 91.114838 
L 290.844829 64.988602 
" clip-path="url(#pf894412885)" style="fill: none; stroke: #006400; stroke-width: 1.5"/>
    <path d="M 304.423067 361 
L 304.423067 123.948691 
" clip-path="url(#pf894412885)" style="fill: none; stroke: #006400; stroke-width: 1.5"/>
    <path clip-path="url(#pf894412885)" style="fill: none; stroke: #006400; stroke-width: 1.5"/>
    <path clip-path="url(#pf894412885)" style="fill: none; stroke: #006400; stroke-width: 1.5"/>
   </g>
   <g id="LineCollection_2">
    <path clip-path="url(#pf894412885)" style="fill: none; stroke: #8b0000; stroke-width: 1.5"/>
    <path clip-path="url(#pf894412885)" style="fill: none; stroke: #8b0000; stroke-width: 1.5"/>
    <path clip-path="url(#pf894412885)" style="fill: none; stroke: #8b0000; stroke-width: 1.5"/>
    <path clip-path="url(#pf894412885)" style="fill: none; stroke: #8b0000; stroke-width: 1.5"/>
    <path d="M 75.894737 37.622579 
L 75.894737 36.038609 
" clip-path="url(#pf894412885)" style="fill: none; stroke: #8b0000; stroke-width: 1.5"/>
    <path d="M 89.472975 39.075249 
L 89.472975 37.583483 
" clip-path="url(#pf894412885)" style="fill: none; stroke: #8b0000; stroke-width: 1.5"/>
    <path d="M 103.051212 39.700545 
L 103.051212 38.264869 
" clip-path="url(#pf894412885)" style="fill: none; stroke: #8b0000; stroke-width: 1.5"/>
    <path d="M 116.629449 39.610003 
L 116.629449 38.20249 
" clip-path="url(#pf894412885)" style="fill: none; stroke: #8b0000; stroke-width: 1.5"/>
    <path d="M 130.207688 41.206187 
L 130.207688 39.620156 
" clip-path="url(#pf894412885)" style="fill: none; stroke: #8b0000; stroke-width: 1.5"/>
    <path d="M 143.785925 42.174644 
L 143.785925 40.467402 
" clip-path="url(#pf894412885)" style="fill: none; stroke: #8b0000; stroke-width: 1.5"/>
    <path d="M 157.364161 42.102733 
L 157.364161 40.272029 
" clip-path="url(#pf894412885)" style="fill: none; stroke: #8b0000; stroke-width: 1.5"/>
    <path d="M 170.942399 42.686059 
L 170.942399 40.670497 
" clip-path="url(#pf894412885)" style="fill: none; stroke: #8b0000; stroke-width: 1.5"/>
    <path d="M 184.520638 43.333673 
L 184.520638 41.067728 
" clip-path="url(#pf894412885)" style="fill: none; stroke: #8b0000; stroke-width: 1.5"/>
    <path d="M 198.098874 42.840688 
L 198.098874 40.34377 
" clip-path="url(#pf894412885)" style="fill: none; stroke: #8b0000; stroke-width: 1.5"/>
    <path d="M 211.67711 46.97699 
L 211.67711 43.657155 
" clip-path="url(#pf894412885)" style="fill: none; stroke: #8b0000; stroke-width: 1.5"/>
    <path d="M 225.255348 48.306548 
L 225.255348 44.426806 
" clip-path="url(#pf894412885)" style="fill: none; stroke: #8b0000; stroke-width: 1.5"/>
    <path d="M 238.833587 52.102956 
L 238.833587 47.190243 
" clip-path="url(#pf894412885)" style="fill: none; stroke: #8b0000; stroke-width: 1.5"/>
    <path d="M 252.411825 63.883944 
L 252.411825 55.665089 
" clip-path="url(#pf894412885)" style="fill: none; stroke: #8b0000; stroke-width: 1.5"/>
    <path d="M 265.990063 90.267904 
L 265.990063 65.787814 
" clip-path="url(#pf894412885)" style="fill: none; stroke: #8b0000; stroke-width: 1.5"/>
    <path clip-path="url(#pf894412885)" style="fill: none; stroke: #8b0000; stroke-width: 1.5"/>
    <path d="M 293.146536 92.319671 
L 293.146536 66.178321 
" clip-path="url(#pf894412885)" style="fill: none; stroke: #8b0000; stroke-width: 1.5"/>
    <path d="M 306.724773 361 
L 306.724773 80.823539 
" clip-path="url(#pf894412885)" style="fill: none; stroke: #8b0000; stroke-width: 1.5"/>
    <path clip-path="url(#pf894412885)" style="fill: none; stroke: #8b0000; stroke-width: 1.5"/>
    <path clip-path="url(#pf894412885)" style="fill: none; stroke: #8b0000; stroke-width: 1.5"/>
   </g>
   <g id="LineCollection_3">
    <path clip-path="url(#pf894412885)" style="fill: none; stroke: #1f77b4; stroke-width: 1.5"/>
    <path clip-path="url(#pf894412885)" style="fill: none; stroke: #1f77b4; stroke-width: 1.5"/>
    <path clip-path="url(#pf894412885)" style="fill: none; stroke: #1f77b4; stroke-width: 1.5"/>
    <path clip-path="url(#pf894412885)" style="fill: none; stroke: #1f77b4; stroke-width: 1.5"/>
    <path d="M 78.089348 39.837431 
L 78.089348 36.691275 
" clip-path="url(#pf894412885)" style="fill: none; stroke: #1f77b4; stroke-width: 1.5"/>
    <path d="M 91.667586 39.8609 
L 91.667586 37.006157 
" clip-path="url(#pf894412885)" style="fill: none; stroke: #1f77b4; stroke-width: 1.5"/>
    <path d="M 105.245823 40.187222 
L 105.245823 37.182597 
" clip-path="url(#pf894412885)" style="fill: none; stroke: #1f77b4; stroke-width: 1.5"/>
    <path d="M 118.82406 40.441615 
L 118.82406 37.552538 
" clip-path="url(#pf894412885)" style="fill: none; stroke: #1f77b4; stroke-width: 1.5"/>
    <path d="M 132.402299 40.992617 
L 132.402299 38.205758 
" clip-path="url(#pf894412885)" style="fill: none; stroke: #1f77b4; stroke-width: 1.5"/>
    <path d="M 145.980536 41.364212 
L 145.980536 38.61236 
" clip-path="url(#pf894412885)" style="fill: none; stroke: #1f77b4; stroke-width: 1.5"/>
    <path d="M 159.558772 42.002007 
L 159.558772 39.197713 
" clip-path="url(#pf894412885)" style="fill: none; stroke: #1f77b4; stroke-width: 1.5"/>
    <path d="M 173.13701 43.123974 
L 173.13701 40.27921 
" clip-path="url(#pf894412885)" style="fill: none; stroke: #1f77b4; stroke-width: 1.5"/>
    <path d="M 186.715249 44.302358 
L 186.715249 41.30006 
" clip-path="url(#pf894412885)" style="fill: none; stroke: #1f77b4; stroke-width: 1.5"/>
    <path d="M 200.293485 45.969934 
L 200.293485 42.196896 
" clip-path="url(#pf894412885)" style="fill: none; stroke: #1f77b4; stroke-width: 1.5"/>
    <path d="M 213.871721 48.388559 
L 213.871721 43.943925 
" clip-path="url(#pf894412885)" style="fill: none; stroke: #1f77b4; stroke-width: 1.5"/>
    <path d="M 227.449959 50.925985 
L 227.449959 46.415545 
" clip-path="url(#pf894412885)" style="fill: none; stroke: #1f77b4; stroke-width: 1.5"/>
    <path d="M 241.028198 54.939225 
L 241.028198 49.250247 
" clip-path="url(#pf894412885)" style="fill: none; stroke: #1f77b4; stroke-width: 1.5"/>
    <path d="M 254.606436 60.943441 
L 254.606436 52.762541 
" clip-path="url(#pf894412885)" style="fill: none; stroke: #1f77b4; stroke-width: 1.5"/>
    <path d="M 268.184674 70.331225 
L 268.184674 58.839052 
" clip-path="url(#pf894412885)" style="fill: none; stroke: #1f77b4; stroke-width: 1.5"/>
    <path d="M 281.76291 86.118034 
L 281.76291 63.388941 
" clip-path="url(#pf894412885)" style="fill: none; stroke: #1f77b4; stroke-width: 1.5"/>
    <path d="M 295.341147 361 
L 295.341147 67.66031 
" clip-path="url(#pf894412885)" style="fill: none; stroke: #1f77b4; stroke-width: 1.5"/>
    <path d="M 308.919384 361 
L 308.919384 65.276831 
" clip-path="url(#pf894412885)" style="fill: none; stroke: #1f77b4; stroke-width: 1.5"/>
    <path clip-path="url(#pf894412885)" style="fill: none; stroke: #1f77b4; stroke-width: 1.5"/>
    <path d="M 336.075859 361 
L 336.075859 42.732496 
" clip-path="url(#pf894412885)" style="fill: none; stroke: #1f77b4; stroke-width: 1.5"/>
   </g>
   <g id="line2d_79">
    <defs>
     <path id="m8baf3b5f1b" d="M -3 3 
L 3 -3 
M -3 -3 
L 3 3 
" style="stroke: #006400"/>
    </defs>
    <g clip-path="url(#pf894412885)">
     <use xlink:href="#m8baf3b5f1b" x="73.593031" y="38.163039" style="fill: #006400; stroke: #006400"/>
     <use xlink:href="#m8baf3b5f1b" x="87.171269" y="40.518706" style="fill: #006400; stroke: #006400"/>
     <use xlink:href="#m8baf3b5f1b" x="100.749505" y="34.179211" style="fill: #006400; stroke: #006400"/>
     <use xlink:href="#m8baf3b5f1b" x="114.327742" y="36.610518" style="fill: #006400; stroke: #006400"/>
     <use xlink:href="#m8baf3b5f1b" x="127.905981" y="39.498168" style="fill: #006400; stroke: #006400"/>
     <use xlink:href="#m8baf3b5f1b" x="141.484219" y="42.454831" style="fill: #006400; stroke: #006400"/>
     <use xlink:href="#m8baf3b5f1b" x="155.062455" y="41.999695" style="fill: #006400; stroke: #006400"/>
     <use xlink:href="#m8baf3b5f1b" x="168.640692" y="43.116577" style="fill: #006400; stroke: #006400"/>
     <use xlink:href="#m8baf3b5f1b" x="182.218931" y="42.958229" style="fill: #006400; stroke: #006400"/>
     <use xlink:href="#m8baf3b5f1b" x="195.797168" y="43.151899" style="fill: #006400; stroke: #006400"/>
     <use xlink:href="#m8baf3b5f1b" x="209.375404" y="46.18041" style="fill: #006400; stroke: #006400"/>
     <use xlink:href="#m8baf3b5f1b" x="222.953642" y="47.596253" style="fill: #006400; stroke: #006400"/>
     <use xlink:href="#m8baf3b5f1b" x="236.53188" y="50.968823" style="fill: #006400; stroke: #006400"/>
     <use xlink:href="#m8baf3b5f1b" x="250.110119" y="58.240532" style="fill: #006400; stroke: #006400"/>
     <use xlink:href="#m8baf3b5f1b" x="263.688356" y="72.101578" style="fill: #006400; stroke: #006400"/>
     <use xlink:href="#m8baf3b5f1b" x="275.993129" y="25921" style="fill: #006400; stroke: #006400"/>
     <use xlink:href="#m8baf3b5f1b" x="278.54006" y="25921" style="fill: #006400; stroke: #006400"/>
     <use xlink:href="#m8baf3b5f1b" x="290.844829" y="72.211877" style="fill: #006400; stroke: #006400"/>
     <use xlink:href="#m8baf3b5f1b" x="303.149599" y="25921" style="fill: #006400; stroke: #006400"/>
    </g>
   </g>
   <g id="line2d_80">
    <defs>
     <path id="m2410424786" d="M -3 3 
L 3 -3 
M -3 -3 
L 3 3 
" style="stroke: #8b0000"/>
    </defs>
    <g clip-path="url(#pf894412885)">
     <use xlink:href="#m2410424786" x="75.894737" y="36.805617" style="fill: #8b0000; stroke: #8b0000"/>
     <use xlink:href="#m2410424786" x="89.472975" y="38.30721" style="fill: #8b0000; stroke: #8b0000"/>
     <use xlink:href="#m2410424786" x="103.051212" y="38.962185" style="fill: #8b0000; stroke: #8b0000"/>
     <use xlink:href="#m2410424786" x="116.629449" y="38.886521" style="fill: #8b0000; stroke: #8b0000"/>
     <use xlink:href="#m2410424786" x="130.207688" y="40.388129" style="fill: #8b0000; stroke: #8b0000"/>
     <use xlink:href="#m2410424786" x="143.785925" y="41.29201" style="fill: #8b0000; stroke: #8b0000"/>
     <use xlink:href="#m2410424786" x="157.364161" y="41.154023" style="fill: #8b0000; stroke: #8b0000"/>
     <use xlink:href="#m2410424786" x="170.942399" y="41.637851" style="fill: #8b0000; stroke: #8b0000"/>
     <use xlink:href="#m2410424786" x="184.520638" y="42.14962" style="fill: #8b0000; stroke: #8b0000"/>
     <use xlink:href="#m2410424786" x="198.098874" y="41.530222" style="fill: #8b0000; stroke: #8b0000"/>
     <use xlink:href="#m2410424786" x="211.67711" y="45.207597" style="fill: #8b0000; stroke: #8b0000"/>
     <use xlink:href="#m2410424786" x="225.255348" y="46.217319" style="fill: #8b0000; stroke: #8b0000"/>
     <use xlink:href="#m2410424786" x="238.833587" y="49.40769" style="fill: #8b0000; stroke: #8b0000"/>
     <use xlink:href="#m2410424786" x="252.411825" y="59.113285" style="fill: #8b0000; stroke: #8b0000"/>
     <use xlink:href="#m2410424786" x="265.990063" y="72.817613" style="fill: #8b0000; stroke: #8b0000"/>
     <use xlink:href="#m2410424786" x="278.294804" y="25921" style="fill: #8b0000; stroke: #8b0000"/>
     <use xlink:href="#m2410424786" x="280.84182" y="25921" style="fill: #8b0000; stroke: #8b0000"/>
     <use xlink:href="#m2410424786" x="293.146536" y="73.40327" style="fill: #8b0000; stroke: #8b0000"/>
     <use xlink:href="#m2410424786" x="305.451252" y="25921" style="fill: #8b0000; stroke: #8b0000"/>
    </g>
   </g>
   <g id="line2d_81">
    <path d="M 78.089348 38.166003 
L 91.667586 38.352517 
L 105.245823 38.595189 
L 118.82406 38.914109 
L 132.402299 39.521975 
L 145.980536 39.912998 
L 159.558772 40.521681 
L 173.13701 41.621145 
L 186.715249 42.711627 
L 200.293485 43.94213 
L 213.871721 45.970466 
L 227.449959 48.469179 
L 241.028198 51.775046 
L 254.606436 56.197749 
L 268.184674 63.313026 
L 281.76291 70.187047 
L 295.341147 84.001703 
L 295.473061 361 
" clip-path="url(#pf894412885)" style="fill: none; stroke: #1f77b4; stroke-width: 1.5; stroke-linecap: square"/>
   </g>
   <g id="patch_3">
    <path d="M 60.468889 190.4328 
L 60.468889 25.44 
" style="fill: none; stroke: #000000; stroke-width: 0.8; stroke-linejoin: miter; stroke-linecap: square"/>
   </g>
   <g id="patch_4">
    <path d="M 349.2 190.4328 
L 349.2 25.44 
" style="fill: none; stroke: #000000; stroke-width: 0.8; stroke-linejoin: miter; stroke-linecap: square"/>
   </g>
   <g id="patch_5">
    <path d="M 60.468889 190.4328 
L 349.2 190.4328 
" style="fill: none; stroke: #000000; stroke-width: 0.8; stroke-linejoin: miter; stroke-linecap: square"/>
   </g>
   <g id="patch_6">
    <path d="M 60.468889 25.44 
L 349.2 25.44 
" style="fill: none; stroke: #000000; stroke-width: 0.8; stroke-linejoin: miter; stroke-linecap: square"/>
   </g>
   <g id="text_7">
    <!-- N = 100; (p=0.16) -->
    <g transform="translate(149.245382 19.44) scale(0.12 -0.12)">
     <defs>
      <path id="DejaVuSans-4e" d="M 628 4666 
L 1478 4666 
L 3547 763 
L 3547 4666 
L 4159 4666 
L 4159 0 
L 3309 0 
L 1241 3903 
L 1241 0 
L 628 0 
L 628 4666 
z
" transform="scale(0.015625)"/>
      <path id="DejaVuSans-3d" d="M 678 2906 
L 4684 2906 
L 4684 2381 
L 678 2381 
L 678 2906 
z
M 678 1631 
L 4684 1631 
L 4684 1100 
L 678 1100 
L 678 1631 
z
" transform="scale(0.015625)"/>
      <path id="DejaVuSans-3b" d="M 750 3309 
L 1409 3309 
L 1409 2516 
L 750 2516 
L 750 3309 
z
M 750 794 
L 1409 794 
L 1409 256 
L 897 -744 
L 494 -744 
L 750 256 
L 750 794 
z
" transform="scale(0.015625)"/>
      <path id="DejaVuSans-70" d="M 1159 525 
L 1159 -1331 
L 581 -1331 
L 581 3500 
L 1159 3500 
L 1159 2969 
Q 1341 3281 1617 3432 
Q 1894 3584 2278 3584 
Q 2916 3584 3314 3078 
Q 3713 2572 3713 1747 
Q 3713 922 3314 415 
Q 2916 -91 2278 -91 
Q 1894 -91 1617 61 
Q 1341 213 1159 525 
z
M 3116 1747 
Q 3116 2381 2855 2742 
Q 2594 3103 2138 3103 
Q 1681 3103 1420 2742 
Q 1159 2381 1159 1747 
Q 1159 1113 1420 752 
Q 1681 391 2138 391 
Q 2594 391 2855 752 
Q 3116 1113 3116 1747 
z
" transform="scale(0.015625)"/>
      <path id="DejaVuSans-2e" d="M 684 794 
L 1344 794 
L 1344 0 
L 684 0 
L 684 794 
z
" transform="scale(0.015625)"/>
     </defs>
     <use xlink:href="#DejaVuSans-4e"/>
     <use xlink:href="#DejaVuSans-20" x="74.804688"/>
     <use xlink:href="#DejaVuSans-3d" x="106.591797"/>
     <use xlink:href="#DejaVuSans-20" x="190.380859"/>
     <use xlink:href="#DejaVuSans-31" x="222.167969"/>
     <use xlink:href="#DejaVuSans-30" x="285.791016"/>
     <use xlink:href="#DejaVuSans-30" x="349.414062"/>
     <use xlink:href="#DejaVuSans-3b" x="413.037109"/>
     <use xlink:href="#DejaVuSans-20" x="446.728516"/>
     <use xlink:href="#DejaVuSans-28" x="478.515625"/>
     <use xlink:href="#DejaVuSans-70" x="517.529297"/>
     <use xlink:href="#DejaVuSans-3d" x="581.005859"/>
     <use xlink:href="#DejaVuSans-30" x="664.794922"/>
     <use xlink:href="#DejaVuSans-2e" x="728.417969"/>
     <use xlink:href="#DejaVuSans-31" x="760.205078"/>
     <use xlink:href="#DejaVuSans-36" x="823.828125"/>
     <use xlink:href="#DejaVuSans-29" x="887.451172"/>
    </g>
   </g>
   <g id="legend_1">
    <g id="patch_7">
     <path d="M 67.468889 185.4328 
L 200.068889 185.4328 
Q 202.068889 185.4328 202.068889 183.4328 
L 202.068889 125.699988 
Q 202.068889 123.699988 200.068889 123.699988 
L 67.468889 123.699988 
Q 65.468889 123.699988 65.468889 125.699988 
L 65.468889 183.4328 
Q 65.468889 185.4328 67.468889 185.4328 
z
" style="fill: #ffffff; opacity: 0.8; stroke: #cccccc; stroke-linejoin: miter"/>
    </g>
    <g id="line2d_82">
     <path d="M 69.468889 131.798425 
L 79.468889 131.798425 
L 89.468889 131.798425 
" style="fill: none; stroke-dasharray: 1.5,2.475; stroke-dashoffset: 0; stroke: #000000; stroke-width: 1.5"/>
    </g>
    <g id="text_8">
     <!-- Input -->
     <g transform="translate(97.468889 135.298425) scale(0.1 -0.1)">
      <defs>
       <path id="DejaVuSans-49" d="M 628 4666 
L 1259 4666 
L 1259 0 
L 628 0 
L 628 4666 
z
" transform="scale(0.015625)"/>
       <path id="DejaVuSans-75" d="M 544 1381 
L 544 3500 
L 1119 3500 
L 1119 1403 
Q 1119 906 1312 657 
Q 1506 409 1894 409 
Q 2359 409 2629 706 
Q 2900 1003 2900 1516 
L 2900 3500 
L 3475 3500 
L 3475 0 
L 2900 0 
L 2900 538 
Q 2691 219 2414 64 
Q 2138 -91 1772 -91 
Q 1169 -91 856 284 
Q 544 659 544 1381 
z
M 1991 3584 
L 1991 3584 
z
" transform="scale(0.015625)"/>
       <path id="DejaVuSans-74" d="M 1172 4494 
L 1172 3500 
L 2356 3500 
L 2356 3053 
L 1172 3053 
L 1172 1153 
Q 1172 725 1289 603 
Q 1406 481 1766 481 
L 2356 481 
L 2356 0 
L 1766 0 
Q 1100 0 847 248 
Q 594 497 594 1153 
L 594 3053 
L 172 3053 
L 172 3500 
L 594 3500 
L 594 4494 
L 1172 4494 
z
" transform="scale(0.015625)"/>
      </defs>
      <use xlink:href="#DejaVuSans-49"/>
      <use xlink:href="#DejaVuSans-6e" x="29.492188"/>
      <use xlink:href="#DejaVuSans-70" x="92.871094"/>
      <use xlink:href="#DejaVuSans-75" x="156.347656"/>
      <use xlink:href="#DejaVuSans-74" x="219.726562"/>
     </g>
    </g>
    <g id="LineCollection_4">
     <path d="M 79.468889 151.47655 
L 79.468889 141.47655 
" style="fill: none; stroke: #006400; stroke-width: 1.5"/>
    </g>
    <g id="line2d_83"/>
    <g id="line2d_84">
     <g>
      <use xlink:href="#m8baf3b5f1b" x="79.468889" y="146.47655" style="fill: #006400; stroke: #006400"/>
     </g>
    </g>
    <g id="text_9">
     <!-- Fluxpoints Nuisance -->
     <g transform="translate(97.468889 149.97655) scale(0.1 -0.1)">
      <defs>
       <path id="DejaVuSans-46" d="M 628 4666 
L 3309 4666 
L 3309 4134 
L 1259 4134 
L 1259 2759 
L 3109 2759 
L 3109 2228 
L 1259 2228 
L 1259 0 
L 628 0 
L 628 4666 
z
" transform="scale(0.015625)"/>
       <path id="DejaVuSans-6c" d="M 603 4863 
L 1178 4863 
L 1178 0 
L 603 0 
L 603 4863 
z
" transform="scale(0.015625)"/>
       <path id="DejaVuSans-78" d="M 3513 3500 
L 2247 1797 
L 3578 0 
L 2900 0 
L 1881 1375 
L 863 0 
L 184 0 
L 1544 1831 
L 300 3500 
L 978 3500 
L 1906 2253 
L 2834 3500 
L 3513 3500 
z
" transform="scale(0.015625)"/>
       <path id="DejaVuSans-6f" d="M 1959 3097 
Q 1497 3097 1228 2736 
Q 959 2375 959 1747 
Q 959 1119 1226 758 
Q 1494 397 1959 397 
Q 2419 397 2687 759 
Q 2956 1122 2956 1747 
Q 2956 2369 2687 2733 
Q 2419 3097 1959 3097 
z
M 1959 3584 
Q 2709 3584 3137 3096 
Q 3566 2609 3566 1747 
Q 3566 888 3137 398 
Q 2709 -91 1959 -91 
Q 1206 -91 779 398 
Q 353 888 353 1747 
Q 353 2609 779 3096 
Q 1206 3584 1959 3584 
z
" transform="scale(0.015625)"/>
       <path id="DejaVuSans-69" d="M 603 3500 
L 1178 3500 
L 1178 0 
L 603 0 
L 603 3500 
z
M 603 4863 
L 1178 4863 
L 1178 4134 
L 603 4134 
L 603 4863 
z
" transform="scale(0.015625)"/>
       <path id="DejaVuSans-61" d="M 2194 1759 
Q 1497 1759 1228 1600 
Q 959 1441 959 1056 
Q 959 750 1161 570 
Q 1363 391 1709 391 
Q 2188 391 2477 730 
Q 2766 1069 2766 1631 
L 2766 1759 
L 2194 1759 
z
M 3341 1997 
L 3341 0 
L 2766 0 
L 2766 531 
Q 2569 213 2275 61 
Q 1981 -91 1556 -91 
Q 1019 -91 701 211 
Q 384 513 384 1019 
Q 384 1609 779 1909 
Q 1175 2209 1959 2209 
L 2766 2209 
L 2766 2266 
Q 2766 2663 2505 2880 
Q 2244 3097 1772 3097 
Q 1472 3097 1187 3025 
Q 903 2953 641 2809 
L 641 3341 
Q 956 3463 1253 3523 
Q 1550 3584 1831 3584 
Q 2591 3584 2966 3190 
Q 3341 2797 3341 1997 
z
" transform="scale(0.015625)"/>
      </defs>
      <use xlink:href="#DejaVuSans-46"/>
      <use xlink:href="#DejaVuSans-6c" x="57.519531"/>
      <use xlink:href="#DejaVuSans-75" x="85.302734"/>
      <use xlink:href="#DejaVuSans-78" x="148.681641"/>
      <use xlink:href="#DejaVuSans-70" x="207.861328"/>
      <use xlink:href="#DejaVuSans-6f" x="271.337891"/>
      <use xlink:href="#DejaVuSans-69" x="332.519531"/>
      <use xlink:href="#DejaVuSans-6e" x="360.302734"/>
      <use xlink:href="#DejaVuSans-74" x="423.681641"/>
      <use xlink:href="#DejaVuSans-73" x="462.890625"/>
      <use xlink:href="#DejaVuSans-20" x="514.990234"/>
      <use xlink:href="#DejaVuSans-4e" x="546.777344"/>
      <use xlink:href="#DejaVuSans-75" x="621.582031"/>
      <use xlink:href="#DejaVuSans-69" x="684.960938"/>
      <use xlink:href="#DejaVuSans-73" x="712.744141"/>
      <use xlink:href="#DejaVuSans-61" x="764.84375"/>
      <use xlink:href="#DejaVuSans-6e" x="826.123047"/>
      <use xlink:href="#DejaVuSans-63" x="889.501953"/>
      <use xlink:href="#DejaVuSans-65" x="944.482422"/>
     </g>
    </g>
    <g id="LineCollection_5">
     <path d="M 79.468889 166.154675 
L 79.468889 156.154675 
" style="fill: none; stroke: #8b0000; stroke-width: 1.5"/>
    </g>
    <g id="line2d_85"/>
    <g id="line2d_86">
     <g>
      <use xlink:href="#m2410424786" x="79.468889" y="161.154675" style="fill: #8b0000; stroke: #8b0000"/>
     </g>
    </g>
    <g id="text_10">
     <!-- Fluxpoints Standard -->
     <g transform="translate(97.468889 164.654675) scale(0.1 -0.1)">
      <defs>
       <path id="DejaVuSans-53" d="M 3425 4513 
L 3425 3897 
Q 3066 4069 2747 4153 
Q 2428 4238 2131 4238 
Q 1616 4238 1336 4038 
Q 1056 3838 1056 3469 
Q 1056 3159 1242 3001 
Q 1428 2844 1947 2747 
L 2328 2669 
Q 3034 2534 3370 2195 
Q 3706 1856 3706 1288 
Q 3706 609 3251 259 
Q 2797 -91 1919 -91 
Q 1588 -91 1214 -16 
Q 841 59 441 206 
L 441 856 
Q 825 641 1194 531 
Q 1563 422 1919 422 
Q 2459 422 2753 634 
Q 3047 847 3047 1241 
Q 3047 1584 2836 1778 
Q 2625 1972 2144 2069 
L 1759 2144 
Q 1053 2284 737 2584 
Q 422 2884 422 3419 
Q 422 4038 858 4394 
Q 1294 4750 2059 4750 
Q 2388 4750 2728 4690 
Q 3069 4631 3425 4513 
z
" transform="scale(0.015625)"/>
       <path id="DejaVuSans-72" d="M 2631 2963 
Q 2534 3019 2420 3045 
Q 2306 3072 2169 3072 
Q 1681 3072 1420 2755 
Q 1159 2438 1159 1844 
L 1159 0 
L 581 0 
L 581 3500 
L 1159 3500 
L 1159 2956 
Q 1341 3275 1631 3429 
Q 1922 3584 2338 3584 
Q 2397 3584 2469 3576 
Q 2541 3569 2628 3553 
L 2631 2963 
z
" transform="scale(0.015625)"/>
      </defs>
      <use xlink:href="#DejaVuSans-46"/>
      <use xlink:href="#DejaVuSans-6c" x="57.519531"/>
      <use xlink:href="#DejaVuSans-75" x="85.302734"/>
      <use xlink:href="#DejaVuSans-78" x="148.681641"/>
      <use xlink:href="#DejaVuSans-70" x="207.861328"/>
      <use xlink:href="#DejaVuSans-6f" x="271.337891"/>
      <use xlink:href="#DejaVuSans-69" x="332.519531"/>
      <use xlink:href="#DejaVuSans-6e" x="360.302734"/>
      <use xlink:href="#DejaVuSans-74" x="423.681641"/>
      <use xlink:href="#DejaVuSans-73" x="462.890625"/>
      <use xlink:href="#DejaVuSans-20" x="514.990234"/>
      <use xlink:href="#DejaVuSans-53" x="546.777344"/>
      <use xlink:href="#DejaVuSans-74" x="610.253906"/>
      <use xlink:href="#DejaVuSans-61" x="649.462891"/>
      <use xlink:href="#DejaVuSans-6e" x="710.742188"/>
      <use xlink:href="#DejaVuSans-64" x="774.121094"/>
      <use xlink:href="#DejaVuSans-61" x="837.597656"/>
      <use xlink:href="#DejaVuSans-72" x="898.876953"/>
      <use xlink:href="#DejaVuSans-64" x="938.240234"/>
     </g>
    </g>
    <g id="LineCollection_6">
     <path d="M 79.468889 180.8328 
L 79.468889 170.8328 
" style="fill: none; stroke: #1f77b4; stroke-width: 1.5"/>
    </g>
    <g id="line2d_87">
     <path d="M 69.468889 175.8328 
L 89.468889 175.8328 
" style="fill: none; stroke: #1f77b4; stroke-width: 1.5; stroke-linecap: square"/>
    </g>
    <g id="line2d_88"/>
    <g id="text_11">
     <!-- $\mu$, $\sigma$ -->
     <g transform="translate(97.468889 179.3328) scale(0.1 -0.1)">
      <defs>
       <path id="DejaVuSans-Oblique-3bc" d="M -84 -1331 
L 856 3500 
L 1434 3500 
L 1009 1322 
Q 997 1256 987 1175 
Q 978 1094 978 1013 
Q 978 722 1161 565 
Q 1344 409 1684 409 
Q 2147 409 2431 671 
Q 2716 934 2816 1459 
L 3213 3500 
L 3788 3500 
L 3266 809 
Q 3253 750 3248 706 
Q 3244 663 3244 628 
Q 3244 531 3283 486 
Q 3322 441 3406 441 
Q 3438 441 3492 456 
Q 3547 472 3647 513 
L 3559 50 
Q 3422 -19 3297 -55 
Q 3172 -91 3053 -91 
Q 2847 -91 2730 40 
Q 2613 172 2613 403 
Q 2438 153 2195 31 
Q 1953 -91 1625 -91 
Q 1334 -91 1117 43 
Q 900 178 831 397 
L 494 -1331 
L -84 -1331 
z
" transform="scale(0.015625)"/>
       <path id="DejaVuSans-2c" d="M 750 794 
L 1409 794 
L 1409 256 
L 897 -744 
L 494 -744 
L 750 256 
L 750 794 
z
" transform="scale(0.015625)"/>
       <path id="DejaVuSans-Oblique-3c3" d="M 2219 3044 
Q 1744 3044 1422 2700 
Q 1081 2341 969 1747 
Q 844 1119 1044 756 
Q 1241 397 1706 397 
Q 2166 397 2503 759 
Q 2844 1122 2966 1747 
Q 3075 2319 2881 2700 
Q 2700 3044 2219 3044 
z
M 2309 3503 
L 4219 3500 
L 4106 2925 
L 3463 2925 
Q 3706 2438 3575 1747 
Q 3406 888 2884 400 
Q 2359 -91 1609 -91 
Q 856 -91 525 400 
Q 194 888 363 1747 
Q 528 2609 1050 3097 
Q 1484 3503 2309 3503 
z
" transform="scale(0.015625)"/>
      </defs>
      <use xlink:href="#DejaVuSans-Oblique-3bc" transform="translate(0 0.265625)"/>
      <use xlink:href="#DejaVuSans-2c" transform="translate(63.623047 0.265625)"/>
      <use xlink:href="#DejaVuSans-20" transform="translate(95.410156 0.265625)"/>
      <use xlink:href="#DejaVuSans-Oblique-3c3" transform="translate(127.197266 0.265625)"/>
     </g>
    </g>
   </g>
  </g>
  <g id="axes_2">
   <g id="patch_8">
    <path d="M 60.468889 314.728 
L 349.2 314.728 
L 349.2 204.7328 
L 60.468889 204.7328 
z
" style="fill: #ffffff"/>
   </g>
   <g id="matplotlib.axis_3">
    <g id="xtick_27">
     <g id="line2d_89">
      <g>
       <use xlink:href="#mf2e88cc82c" x="121.116861" y="314.728" style="stroke: #000000; stroke-width: 0.8"/>
      </g>
     </g>
     <g id="text_12">
      <!-- $\mathdefault{10^{0}}$ -->
      <g transform="translate(112.316861 329.326438) scale(0.1 -0.1)">
       <use xlink:href="#DejaVuSans-31" transform="translate(0 0.765625)"/>
       <use xlink:href="#DejaVuSans-30" transform="translate(63.623047 0.765625)"/>
       <use xlink:href="#DejaVuSans-30" transform="translate(128.203125 39.046875) scale(0.7)"/>
      </g>
     </g>
    </g>
    <g id="xtick_28">
     <g id="line2d_90">
      <g>
       <use xlink:href="#mf2e88cc82c" x="229.742761" y="314.728" style="stroke: #000000; stroke-width: 0.8"/>
      </g>
     </g>
     <g id="text_13">
      <!-- $\mathdefault{10^{1}}$ -->
      <g transform="translate(220.942761 329.326438) scale(0.1 -0.1)">
       <use xlink:href="#DejaVuSans-31" transform="translate(0 0.684375)"/>
       <use xlink:href="#DejaVuSans-30" transform="translate(63.623047 0.684375)"/>
       <use xlink:href="#DejaVuSans-31" transform="translate(128.203125 38.965625) scale(0.7)"/>
      </g>
     </g>
    </g>
    <g id="xtick_29">
     <g id="line2d_91">
      <g>
       <use xlink:href="#mf2e88cc82c" x="338.368661" y="314.728" style="stroke: #000000; stroke-width: 0.8"/>
      </g>
     </g>
     <g id="text_14">
      <!-- $\mathdefault{10^{2}}$ -->
      <g transform="translate(329.568661 329.326438) scale(0.1 -0.1)">
       <use xlink:href="#DejaVuSans-31" transform="translate(0 0.765625)"/>
       <use xlink:href="#DejaVuSans-30" transform="translate(63.623047 0.765625)"/>
       <use xlink:href="#DejaVuSans-32" transform="translate(128.203125 39.046875) scale(0.7)"/>
      </g>
     </g>
    </g>
    <g id="xtick_30">
     <g id="line2d_92">
      <g>
       <use xlink:href="#m28f6f20eff" x="64.318687" y="314.728" style="stroke: #000000; stroke-width: 0.6"/>
      </g>
     </g>
    </g>
    <g id="xtick_31">
     <g id="line2d_93">
      <g>
       <use xlink:href="#m28f6f20eff" x="77.89027" y="314.728" style="stroke: #000000; stroke-width: 0.6"/>
      </g>
     </g>
    </g>
    <g id="xtick_32">
     <g id="line2d_94">
      <g>
       <use xlink:href="#m28f6f20eff" x="88.417207" y="314.728" style="stroke: #000000; stroke-width: 0.6"/>
      </g>
     </g>
    </g>
    <g id="xtick_33">
     <g id="line2d_95">
      <g>
       <use xlink:href="#m28f6f20eff" x="97.018341" y="314.728" style="stroke: #000000; stroke-width: 0.6"/>
      </g>
     </g>
    </g>
    <g id="xtick_34">
     <g id="line2d_96">
      <g>
       <use xlink:href="#m28f6f20eff" x="104.290497" y="314.728" style="stroke: #000000; stroke-width: 0.6"/>
      </g>
     </g>
    </g>
    <g id="xtick_35">
     <g id="line2d_97">
      <g>
       <use xlink:href="#m28f6f20eff" x="110.589924" y="314.728" style="stroke: #000000; stroke-width: 0.6"/>
      </g>
     </g>
    </g>
    <g id="xtick_36">
     <g id="line2d_98">
      <g>
       <use xlink:href="#m28f6f20eff" x="116.146413" y="314.728" style="stroke: #000000; stroke-width: 0.6"/>
      </g>
     </g>
    </g>
    <g id="xtick_37">
     <g id="line2d_99">
      <g>
       <use xlink:href="#m28f6f20eff" x="153.816515" y="314.728" style="stroke: #000000; stroke-width: 0.6"/>
      </g>
     </g>
    </g>
    <g id="xtick_38">
     <g id="line2d_100">
      <g>
       <use xlink:href="#m28f6f20eff" x="172.944587" y="314.728" style="stroke: #000000; stroke-width: 0.6"/>
      </g>
     </g>
    </g>
    <g id="xtick_39">
     <g id="line2d_101">
      <g>
       <use xlink:href="#m28f6f20eff" x="186.51617" y="314.728" style="stroke: #000000; stroke-width: 0.6"/>
      </g>
     </g>
    </g>
    <g id="xtick_40">
     <g id="line2d_102">
      <g>
       <use xlink:href="#m28f6f20eff" x="197.043107" y="314.728" style="stroke: #000000; stroke-width: 0.6"/>
      </g>
     </g>
    </g>
    <g id="xtick_41">
     <g id="line2d_103">
      <g>
       <use xlink:href="#m28f6f20eff" x="205.644241" y="314.728" style="stroke: #000000; stroke-width: 0.6"/>
      </g>
     </g>
    </g>
    <g id="xtick_42">
     <g id="line2d_104">
      <g>
       <use xlink:href="#m28f6f20eff" x="212.916396" y="314.728" style="stroke: #000000; stroke-width: 0.6"/>
      </g>
     </g>
    </g>
    <g id="xtick_43">
     <g id="line2d_105">
      <g>
       <use xlink:href="#m28f6f20eff" x="219.215824" y="314.728" style="stroke: #000000; stroke-width: 0.6"/>
      </g>
     </g>
    </g>
    <g id="xtick_44">
     <g id="line2d_106">
      <g>
       <use xlink:href="#m28f6f20eff" x="224.772312" y="314.728" style="stroke: #000000; stroke-width: 0.6"/>
      </g>
     </g>
    </g>
    <g id="xtick_45">
     <g id="line2d_107">
      <g>
       <use xlink:href="#m28f6f20eff" x="262.442415" y="314.728" style="stroke: #000000; stroke-width: 0.6"/>
      </g>
     </g>
    </g>
    <g id="xtick_46">
     <g id="line2d_108">
      <g>
       <use xlink:href="#m28f6f20eff" x="281.570486" y="314.728" style="stroke: #000000; stroke-width: 0.6"/>
      </g>
     </g>
    </g>
    <g id="xtick_47">
     <g id="line2d_109">
      <g>
       <use xlink:href="#m28f6f20eff" x="295.142069" y="314.728" style="stroke: #000000; stroke-width: 0.6"/>
      </g>
     </g>
    </g>
    <g id="xtick_48">
     <g id="line2d_110">
      <g>
       <use xlink:href="#m28f6f20eff" x="305.669006" y="314.728" style="stroke: #000000; stroke-width: 0.6"/>
      </g>
     </g>
    </g>
    <g id="xtick_49">
     <g id="line2d_111">
      <g>
       <use xlink:href="#m28f6f20eff" x="314.270141" y="314.728" style="stroke: #000000; stroke-width: 0.6"/>
      </g>
     </g>
    </g>
    <g id="xtick_50">
     <g id="line2d_112">
      <g>
       <use xlink:href="#m28f6f20eff" x="321.542296" y="314.728" style="stroke: #000000; stroke-width: 0.6"/>
      </g>
     </g>
    </g>
    <g id="xtick_51">
     <g id="line2d_113">
      <g>
       <use xlink:href="#m28f6f20eff" x="327.841723" y="314.728" style="stroke: #000000; stroke-width: 0.6"/>
      </g>
     </g>
    </g>
    <g id="xtick_52">
     <g id="line2d_114">
      <g>
       <use xlink:href="#m28f6f20eff" x="333.398212" y="314.728" style="stroke: #000000; stroke-width: 0.6"/>
      </g>
     </g>
    </g>
    <g id="text_15">
     <!-- Energy [TeV] -->
     <g transform="translate(173.136788 343.004563) scale(0.1 -0.1)">
      <defs>
       <path id="DejaVuSans-45" d="M 628 4666 
L 3578 4666 
L 3578 4134 
L 1259 4134 
L 1259 2753 
L 3481 2753 
L 3481 2222 
L 1259 2222 
L 1259 531 
L 3634 531 
L 3634 0 
L 628 0 
L 628 4666 
z
" transform="scale(0.015625)"/>
       <path id="DejaVuSans-67" d="M 2906 1791 
Q 2906 2416 2648 2759 
Q 2391 3103 1925 3103 
Q 1463 3103 1205 2759 
Q 947 2416 947 1791 
Q 947 1169 1205 825 
Q 1463 481 1925 481 
Q 2391 481 2648 825 
Q 2906 1169 2906 1791 
z
M 3481 434 
Q 3481 -459 3084 -895 
Q 2688 -1331 1869 -1331 
Q 1566 -1331 1297 -1286 
Q 1028 -1241 775 -1147 
L 775 -588 
Q 1028 -725 1275 -790 
Q 1522 -856 1778 -856 
Q 2344 -856 2625 -561 
Q 2906 -266 2906 331 
L 2906 616 
Q 2728 306 2450 153 
Q 2172 0 1784 0 
Q 1141 0 747 490 
Q 353 981 353 1791 
Q 353 2603 747 3093 
Q 1141 3584 1784 3584 
Q 2172 3584 2450 3431 
Q 2728 3278 2906 2969 
L 2906 3500 
L 3481 3500 
L 3481 434 
z
" transform="scale(0.015625)"/>
       <path id="DejaVuSans-79" d="M 2059 -325 
Q 1816 -950 1584 -1140 
Q 1353 -1331 966 -1331 
L 506 -1331 
L 506 -850 
L 844 -850 
Q 1081 -850 1212 -737 
Q 1344 -625 1503 -206 
L 1606 56 
L 191 3500 
L 800 3500 
L 1894 763 
L 2988 3500 
L 3597 3500 
L 2059 -325 
z
" transform="scale(0.015625)"/>
      </defs>
      <use xlink:href="#DejaVuSans-45"/>
      <use xlink:href="#DejaVuSans-6e" x="63.183594"/>
      <use xlink:href="#DejaVuSans-65" x="126.5625"/>
      <use xlink:href="#DejaVuSans-72" x="188.085938"/>
      <use xlink:href="#DejaVuSans-67" x="227.449219"/>
      <use xlink:href="#DejaVuSans-79" x="290.925781"/>
      <use xlink:href="#DejaVuSans-20" x="350.105469"/>
      <use xlink:href="#DejaVuSans-5b" x="381.892578"/>
      <use xlink:href="#DejaVuSans-54" x="420.90625"/>
      <use xlink:href="#DejaVuSans-65" x="464.990234"/>
      <use xlink:href="#DejaVuSans-56" x="526.513672"/>
      <use xlink:href="#DejaVuSans-5d" x="594.921875"/>
     </g>
    </g>
   </g>
   <g id="matplotlib.axis_4">
    <g id="ytick_52">
     <g id="line2d_115">
      <g>
       <use xlink:href="#m9603acb62d" x="60.468889" y="294.416696" style="stroke: #000000; stroke-width: 0.8"/>
      </g>
     </g>
     <g id="text_16">
      <!-- 0.00 -->
      <g transform="translate(31.203264 298.215915) scale(0.1 -0.1)">
       <use xlink:href="#DejaVuSans-30"/>
       <use xlink:href="#DejaVuSans-2e" x="63.623047"/>
       <use xlink:href="#DejaVuSans-30" x="95.410156"/>
       <use xlink:href="#DejaVuSans-30" x="159.033203"/>
      </g>
     </g>
    </g>
    <g id="ytick_53">
     <g id="line2d_116">
      <g>
       <use xlink:href="#m9603acb62d" x="60.468889" y="269.64077" style="stroke: #000000; stroke-width: 0.8"/>
      </g>
     </g>
     <g id="text_17">
      <!-- 0.25 -->
      <g transform="translate(31.203264 273.439989) scale(0.1 -0.1)">
       <use xlink:href="#DejaVuSans-30"/>
       <use xlink:href="#DejaVuSans-2e" x="63.623047"/>
       <use xlink:href="#DejaVuSans-32" x="95.410156"/>
       <use xlink:href="#DejaVuSans-35" x="159.033203"/>
      </g>
     </g>
    </g>
    <g id="ytick_54">
     <g id="line2d_117">
      <g>
       <use xlink:href="#m9603acb62d" x="60.468889" y="244.864845" style="stroke: #000000; stroke-width: 0.8"/>
      </g>
     </g>
     <g id="text_18">
      <!-- 0.50 -->
      <g transform="translate(31.203264 248.664063) scale(0.1 -0.1)">
       <use xlink:href="#DejaVuSans-30"/>
       <use xlink:href="#DejaVuSans-2e" x="63.623047"/>
       <use xlink:href="#DejaVuSans-35" x="95.410156"/>
       <use xlink:href="#DejaVuSans-30" x="159.033203"/>
      </g>
     </g>
    </g>
    <g id="ytick_55">
     <g id="line2d_118">
      <g>
       <use xlink:href="#m9603acb62d" x="60.468889" y="220.088919" style="stroke: #000000; stroke-width: 0.8"/>
      </g>
     </g>
     <g id="text_19">
      <!-- 0.75 -->
      <g transform="translate(31.203264 223.888138) scale(0.1 -0.1)">
       <defs>
        <path id="DejaVuSans-37" d="M 525 4666 
L 3525 4666 
L 3525 4397 
L 1831 0 
L 1172 0 
L 2766 4134 
L 525 4134 
L 525 4666 
z
" transform="scale(0.015625)"/>
       </defs>
       <use xlink:href="#DejaVuSans-30"/>
       <use xlink:href="#DejaVuSans-2e" x="63.623047"/>
       <use xlink:href="#DejaVuSans-37" x="95.410156"/>
       <use xlink:href="#DejaVuSans-35" x="159.033203"/>
      </g>
     </g>
    </g>
    <g id="text_20">
     <!-- Coverage -->
     <g transform="translate(25.123577 283.687431) rotate(-90) scale(0.1 -0.1)">
      <defs>
       <path id="DejaVuSans-43" d="M 4122 4306 
L 4122 3641 
Q 3803 3938 3442 4084 
Q 3081 4231 2675 4231 
Q 1875 4231 1450 3742 
Q 1025 3253 1025 2328 
Q 1025 1406 1450 917 
Q 1875 428 2675 428 
Q 3081 428 3442 575 
Q 3803 722 4122 1019 
L 4122 359 
Q 3791 134 3420 21 
Q 3050 -91 2638 -91 
Q 1578 -91 968 557 
Q 359 1206 359 2328 
Q 359 3453 968 4101 
Q 1578 4750 2638 4750 
Q 3056 4750 3426 4639 
Q 3797 4528 4122 4306 
z
" transform="scale(0.015625)"/>
       <path id="DejaVuSans-76" d="M 191 3500 
L 800 3500 
L 1894 563 
L 2988 3500 
L 3597 3500 
L 2284 0 
L 1503 0 
L 191 3500 
z
" transform="scale(0.015625)"/>
      </defs>
      <use xlink:href="#DejaVuSans-43"/>
      <use xlink:href="#DejaVuSans-6f" x="69.824219"/>
      <use xlink:href="#DejaVuSans-76" x="131.005859"/>
      <use xlink:href="#DejaVuSans-65" x="190.185547"/>
      <use xlink:href="#DejaVuSans-72" x="251.708984"/>
      <use xlink:href="#DejaVuSans-61" x="292.822266"/>
      <use xlink:href="#DejaVuSans-67" x="354.101562"/>
      <use xlink:href="#DejaVuSans-65" x="417.578125"/>
     </g>
    </g>
   </g>
   <g id="LineCollection_7">
    <path d="M 75.894737 287.925404 
L 75.894737 255.320285 
" clip-path="url(#peb85ae5ee6)" style="fill: none; stroke: #ff0000; stroke-width: 1.5"/>
    <path d="M 89.472975 275.041922 
L 89.472975 242.436804 
" clip-path="url(#peb85ae5ee6)" style="fill: none; stroke: #ff0000; stroke-width: 1.5"/>
    <path d="M 103.051212 274.050885 
L 103.051212 241.445767 
" clip-path="url(#peb85ae5ee6)" style="fill: none; stroke: #ff0000; stroke-width: 1.5"/>
    <path d="M 116.629449 278.015033 
L 116.629449 245.409915 
" clip-path="url(#peb85ae5ee6)" style="fill: none; stroke: #ff0000; stroke-width: 1.5"/>
    <path d="M 130.207688 274.050885 
L 130.207688 241.445767 
" clip-path="url(#peb85ae5ee6)" style="fill: none; stroke: #ff0000; stroke-width: 1.5"/>
    <path d="M 143.785925 280.988144 
L 143.785925 248.383026 
" clip-path="url(#peb85ae5ee6)" style="fill: none; stroke: #ff0000; stroke-width: 1.5"/>
    <path d="M 157.364161 263.149478 
L 157.364161 230.544359 
" clip-path="url(#peb85ae5ee6)" style="fill: none; stroke: #ff0000; stroke-width: 1.5"/>
    <path d="M 170.942399 268.104663 
L 170.942399 235.499545 
" clip-path="url(#peb85ae5ee6)" style="fill: none; stroke: #ff0000; stroke-width: 1.5"/>
    <path d="M 184.520638 250.265996 
L 184.520638 217.660878 
" clip-path="url(#peb85ae5ee6)" style="fill: none; stroke: #ff0000; stroke-width: 1.5"/>
    <path d="M 198.098874 288.916441 
L 198.098874 256.311322 
" clip-path="url(#peb85ae5ee6)" style="fill: none; stroke: #ff0000; stroke-width: 1.5"/>
    <path d="M 211.67711 257.203256 
L 211.67711 224.598137 
" clip-path="url(#peb85ae5ee6)" style="fill: none; stroke: #ff0000; stroke-width: 1.5"/>
    <path d="M 225.255348 270.086737 
L 225.255348 237.481619 
" clip-path="url(#peb85ae5ee6)" style="fill: none; stroke: #ff0000; stroke-width: 1.5"/>
    <path d="M 238.833587 264.140515 
L 238.833587 231.535396 
" clip-path="url(#peb85ae5ee6)" style="fill: none; stroke: #ff0000; stroke-width: 1.5"/>
    <path d="M 252.411825 262.158441 
L 252.411825 229.553322 
" clip-path="url(#peb85ae5ee6)" style="fill: none; stroke: #ff0000; stroke-width: 1.5"/>
    <path d="M 265.990063 276.032959 
L 265.990063 243.427841 
" clip-path="url(#peb85ae5ee6)" style="fill: none; stroke: #ff0000; stroke-width: 1.5"/>
    <path d="M 279.568299 309.728218 
L 279.568299 277.1231 
" clip-path="url(#peb85ae5ee6)" style="fill: none; stroke: #ff0000; stroke-width: 1.5"/>
    <path d="M 293.146536 256.212219 
L 293.146536 223.6071 
" clip-path="url(#peb85ae5ee6)" style="fill: none; stroke: #ff0000; stroke-width: 1.5"/>
    <path d="M 306.724773 242.3377 
L 306.724773 209.732582 
" clip-path="url(#peb85ae5ee6)" style="fill: none; stroke: #ff0000; stroke-width: 1.5"/>
    <path d="M 320.303009 304.773033 
L 320.303009 272.167915 
" clip-path="url(#peb85ae5ee6)" style="fill: none; stroke: #ff0000; stroke-width: 1.5"/>
    <path d="M 333.881248 295.8537 
L 333.881248 263.248581 
" clip-path="url(#peb85ae5ee6)" style="fill: none; stroke: #ff0000; stroke-width: 1.5"/>
   </g>
   <g id="LineCollection_8">
    <path d="M 73.593031 260.176367 
L 73.593031 227.571248 
" clip-path="url(#peb85ae5ee6)" style="fill: none; stroke: #008000; stroke-width: 1.5"/>
    <path d="M 87.171269 288.916441 
L 87.171269 256.311322 
" clip-path="url(#peb85ae5ee6)" style="fill: none; stroke: #008000; stroke-width: 1.5"/>
    <path d="M 100.749505 307.746144 
L 100.749505 275.141026 
" clip-path="url(#peb85ae5ee6)" style="fill: none; stroke: #008000; stroke-width: 1.5"/>
    <path d="M 114.327742 286.934366 
L 114.327742 254.329248 
" clip-path="url(#peb85ae5ee6)" style="fill: none; stroke: #008000; stroke-width: 1.5"/>
    <path d="M 127.905981 247.292885 
L 127.905981 214.687767 
" clip-path="url(#peb85ae5ee6)" style="fill: none; stroke: #008000; stroke-width: 1.5"/>
    <path d="M 141.484219 290.898515 
L 141.484219 258.293396 
" clip-path="url(#peb85ae5ee6)" style="fill: none; stroke: #008000; stroke-width: 1.5"/>
    <path d="M 155.062455 265.131552 
L 155.062455 232.526434 
" clip-path="url(#peb85ae5ee6)" style="fill: none; stroke: #008000; stroke-width: 1.5"/>
    <path d="M 168.640692 266.122589 
L 168.640692 233.517471 
" clip-path="url(#peb85ae5ee6)" style="fill: none; stroke: #008000; stroke-width: 1.5"/>
    <path d="M 182.218931 248.283922 
L 182.218931 215.678804 
" clip-path="url(#peb85ae5ee6)" style="fill: none; stroke: #008000; stroke-width: 1.5"/>
    <path d="M 195.797168 257.203256 
L 195.797168 224.598137 
" clip-path="url(#peb85ae5ee6)" style="fill: none; stroke: #008000; stroke-width: 1.5"/>
    <path d="M 209.375404 246.301848 
L 209.375404 213.69673 
" clip-path="url(#peb85ae5ee6)" style="fill: none; stroke: #008000; stroke-width: 1.5"/>
    <path d="M 222.953642 244.319774 
L 222.953642 211.714656 
" clip-path="url(#peb85ae5ee6)" style="fill: none; stroke: #008000; stroke-width: 1.5"/>
    <path d="M 236.53188 243.328737 
L 236.53188 210.723619 
" clip-path="url(#peb85ae5ee6)" style="fill: none; stroke: #008000; stroke-width: 1.5"/>
    <path d="M 250.110119 255.221182 
L 250.110119 222.616063 
" clip-path="url(#peb85ae5ee6)" style="fill: none; stroke: #008000; stroke-width: 1.5"/>
    <path d="M 263.688356 269.0957 
L 263.688356 236.490582 
" clip-path="url(#peb85ae5ee6)" style="fill: none; stroke: #008000; stroke-width: 1.5"/>
    <path d="M 277.266592 309.728218 
L 277.266592 277.1231 
" clip-path="url(#peb85ae5ee6)" style="fill: none; stroke: #008000; stroke-width: 1.5"/>
    <path d="M 290.844829 253.239107 
L 290.844829 220.633989 
" clip-path="url(#peb85ae5ee6)" style="fill: none; stroke: #008000; stroke-width: 1.5"/>
    <path d="M 304.423067 284.952292 
L 304.423067 252.347174 
" clip-path="url(#peb85ae5ee6)" style="fill: none; stroke: #008000; stroke-width: 1.5"/>
    <path d="M 318.001303 301.799922 
L 318.001303 269.194804 
" clip-path="url(#peb85ae5ee6)" style="fill: none; stroke: #008000; stroke-width: 1.5"/>
    <path d="M 331.579541 303.781996 
L 331.579541 271.176878 
" clip-path="url(#peb85ae5ee6)" style="fill: none; stroke: #008000; stroke-width: 1.5"/>
   </g>
   <g id="line2d_119">
    <path d="M 73.593031 227.026178 
L 87.171269 227.026178 
L 100.749505 227.026178 
L 114.327742 227.026178 
L 127.905981 227.026178 
L 141.484219 227.026178 
L 155.062455 227.026178 
L 168.640692 227.026178 
L 182.218931 227.026178 
L 195.797168 227.026178 
L 209.375404 227.026178 
L 222.953642 227.026178 
L 236.53188 227.026178 
L 250.110119 227.026178 
L 263.688356 227.026178 
L 277.266592 227.026178 
L 290.844829 227.026178 
L 304.423067 227.026178 
L 318.001303 227.026178 
L 331.579541 227.026178 
" clip-path="url(#peb85ae5ee6)" style="fill: none; stroke-dasharray: 1.5,2.475; stroke-dashoffset: 0; stroke: #008000; stroke-width: 1.5"/>
   </g>
   <g id="line2d_120">
    <path d="M 75.894737 271.622844 
L 89.472975 258.739363 
L 103.051212 257.748326 
L 116.629449 261.712474 
L 130.207688 257.748326 
L 143.785925 264.685585 
L 157.364161 246.846919 
L 170.942399 251.802104 
L 184.520638 233.963437 
L 198.098874 272.613881 
L 211.67711 240.900696 
L 225.255348 253.784178 
L 238.833587 247.837956 
L 252.411825 245.855882 
L 265.990063 259.7304 
L 279.568299 293.425659 
L 293.146536 239.909659 
L 306.724773 226.035141 
L 320.303009 288.470474 
L 333.881248 279.551141 
" clip-path="url(#peb85ae5ee6)" style="fill: none; stroke: #ff0000; stroke-width: 1.5; stroke-linecap: square"/>
   </g>
   <g id="line2d_121">
    <path d="M 73.593031 243.873808 
L 87.171269 272.613881 
L 100.749505 291.443585 
L 114.327742 270.631807 
L 127.905981 230.990326 
L 141.484219 274.595955 
L 155.062455 248.828993 
L 168.640692 249.82003 
L 182.218931 231.981363 
L 195.797168 240.900696 
L 209.375404 229.999289 
L 222.953642 228.017215 
L 236.53188 227.026178 
L 250.110119 238.918622 
L 263.688356 252.793141 
L 277.266592 293.425659 
L 290.844829 236.936548 
L 304.423067 268.649733 
L 318.001303 285.497363 
L 331.579541 287.479437 
" clip-path="url(#peb85ae5ee6)" style="fill: none; stroke: #008000; stroke-width: 1.5; stroke-linecap: square"/>
   </g>
   <g id="patch_9">
    <path d="M 60.468889 314.728 
L 60.468889 204.7328 
" style="fill: none; stroke: #000000; stroke-width: 0.8; stroke-linejoin: miter; stroke-linecap: square"/>
   </g>
   <g id="patch_10">
    <path d="M 349.2 314.728 
L 349.2 204.7328 
" style="fill: none; stroke: #000000; stroke-width: 0.8; stroke-linejoin: miter; stroke-linecap: square"/>
   </g>
   <g id="patch_11">
    <path d="M 60.468889 314.728 
L 349.2 314.728 
" style="fill: none; stroke: #000000; stroke-width: 0.8; stroke-linejoin: miter; stroke-linecap: square"/>
   </g>
   <g id="patch_12">
    <path d="M 60.468889 204.7328 
L 349.2 204.7328 
" style="fill: none; stroke: #000000; stroke-width: 0.8; stroke-linejoin: miter; stroke-linecap: square"/>
   </g>
   <g id="legend_2">
    <g id="patch_13">
     <path d="M 164.497726 309.728 
L 245.171163 309.728 
Q 247.171163 309.728 247.171163 307.728 
L 247.171163 264.693625 
Q 247.171163 262.693625 245.171163 262.693625 
L 164.497726 262.693625 
Q 162.497726 262.693625 162.497726 264.693625 
L 162.497726 307.728 
Q 162.497726 309.728 164.497726 309.728 
z
" style="fill: #ffffff; opacity: 0.8; stroke: #cccccc; stroke-linejoin: miter"/>
    </g>
    <g id="line2d_122">
     <path d="M 166.497726 270.792063 
L 176.497726 270.792063 
L 186.497726 270.792063 
" style="fill: none; stroke-dasharray: 1.5,2.475; stroke-dashoffset: 0; stroke: #008000; stroke-width: 1.5"/>
    </g>
    <g id="text_21">
     <!-- 68 % -->
     <g transform="translate(194.497726 274.292063) scale(0.1 -0.1)">
      <defs>
       <path id="DejaVuSans-38" d="M 2034 2216 
Q 1584 2216 1326 1975 
Q 1069 1734 1069 1313 
Q 1069 891 1326 650 
Q 1584 409 2034 409 
Q 2484 409 2743 651 
Q 3003 894 3003 1313 
Q 3003 1734 2745 1975 
Q 2488 2216 2034 2216 
z
M 1403 2484 
Q 997 2584 770 2862 
Q 544 3141 544 3541 
Q 544 4100 942 4425 
Q 1341 4750 2034 4750 
Q 2731 4750 3128 4425 
Q 3525 4100 3525 3541 
Q 3525 3141 3298 2862 
Q 3072 2584 2669 2484 
Q 3125 2378 3379 2068 
Q 3634 1759 3634 1313 
Q 3634 634 3220 271 
Q 2806 -91 2034 -91 
Q 1263 -91 848 271 
Q 434 634 434 1313 
Q 434 1759 690 2068 
Q 947 2378 1403 2484 
z
M 1172 3481 
Q 1172 3119 1398 2916 
Q 1625 2713 2034 2713 
Q 2441 2713 2670 2916 
Q 2900 3119 2900 3481 
Q 2900 3844 2670 4047 
Q 2441 4250 2034 4250 
Q 1625 4250 1398 4047 
Q 1172 3844 1172 3481 
z
" transform="scale(0.015625)"/>
       <path id="DejaVuSans-25" d="M 4653 2053 
Q 4381 2053 4226 1822 
Q 4072 1591 4072 1178 
Q 4072 772 4226 539 
Q 4381 306 4653 306 
Q 4919 306 5073 539 
Q 5228 772 5228 1178 
Q 5228 1588 5073 1820 
Q 4919 2053 4653 2053 
z
M 4653 2450 
Q 5147 2450 5437 2106 
Q 5728 1763 5728 1178 
Q 5728 594 5436 251 
Q 5144 -91 4653 -91 
Q 4153 -91 3862 251 
Q 3572 594 3572 1178 
Q 3572 1766 3864 2108 
Q 4156 2450 4653 2450 
z
M 1428 4353 
Q 1159 4353 1004 4120 
Q 850 3888 850 3481 
Q 850 3069 1003 2837 
Q 1156 2606 1428 2606 
Q 1700 2606 1854 2837 
Q 2009 3069 2009 3481 
Q 2009 3884 1853 4118 
Q 1697 4353 1428 4353 
z
M 4250 4750 
L 4750 4750 
L 1831 -91 
L 1331 -91 
L 4250 4750 
z
M 1428 4750 
Q 1922 4750 2215 4408 
Q 2509 4066 2509 3481 
Q 2509 2891 2217 2550 
Q 1925 2209 1428 2209 
Q 931 2209 642 2551 
Q 353 2894 353 3481 
Q 353 4063 643 4406 
Q 934 4750 1428 4750 
z
" transform="scale(0.015625)"/>
      </defs>
      <use xlink:href="#DejaVuSans-36"/>
      <use xlink:href="#DejaVuSans-38" x="63.623047"/>
      <use xlink:href="#DejaVuSans-20" x="127.246094"/>
      <use xlink:href="#DejaVuSans-25" x="159.033203"/>
     </g>
    </g>
    <g id="LineCollection_9">
     <path d="M 176.497726 290.470188 
L 176.497726 280.470188 
" style="fill: none; stroke: #ff0000; stroke-width: 1.5"/>
    </g>
    <g id="line2d_123">
     <path d="M 166.497726 285.470188 
L 186.497726 285.470188 
" style="fill: none; stroke: #ff0000; stroke-width: 1.5; stroke-linecap: square"/>
    </g>
    <g id="line2d_124"/>
    <g id="text_22">
     <!-- Standard  -->
     <g transform="translate(194.497726 288.970188) scale(0.1 -0.1)">
      <use xlink:href="#DejaVuSans-53"/>
      <use xlink:href="#DejaVuSans-74" x="63.476562"/>
      <use xlink:href="#DejaVuSans-61" x="102.685547"/>
      <use xlink:href="#DejaVuSans-6e" x="163.964844"/>
      <use xlink:href="#DejaVuSans-64" x="227.34375"/>
      <use xlink:href="#DejaVuSans-61" x="290.820312"/>
      <use xlink:href="#DejaVuSans-72" x="352.099609"/>
      <use xlink:href="#DejaVuSans-64" x="391.462891"/>
      <use xlink:href="#DejaVuSans-20" x="454.939453"/>
     </g>
    </g>
    <g id="LineCollection_10">
     <path d="M 176.497726 305.148313 
L 176.497726 295.148313 
" style="fill: none; stroke: #008000; stroke-width: 1.5"/>
    </g>
    <g id="line2d_125">
     <path d="M 166.497726 300.148313 
L 186.497726 300.148313 
" style="fill: none; stroke: #008000; stroke-width: 1.5; stroke-linecap: square"/>
    </g>
    <g id="line2d_126"/>
    <g id="text_23">
     <!-- Nuisance -->
     <g transform="translate(194.497726 303.648313) scale(0.1 -0.1)">
      <use xlink:href="#DejaVuSans-4e"/>
      <use xlink:href="#DejaVuSans-75" x="74.804688"/>
      <use xlink:href="#DejaVuSans-69" x="138.183594"/>
      <use xlink:href="#DejaVuSans-73" x="165.966797"/>
      <use xlink:href="#DejaVuSans-61" x="218.066406"/>
      <use xlink:href="#DejaVuSans-6e" x="279.345703"/>
      <use xlink:href="#DejaVuSans-63" x="342.724609"/>
      <use xlink:href="#DejaVuSans-65" x="397.705078"/>
     </g>
    </g>
   </g>
  </g>
 </g>
 <defs>
  <clipPath id="pf894412885">
   <rect x="60.468889" y="25.44" width="288.731111" height="164.9928"/>
  </clipPath>
  <clipPath id="peb85ae5ee6">
   <rect x="60.468889" y="204.7328" width="288.731111" height="109.9952"/>
  </clipPath>
 </defs>
</svg>
