<?xml version="1.0" encoding="utf-8" standalone="no"?>
<!DOCTYPE svg PUBLIC "-//W3C//DTD SVG 1.1//EN"
  "http://www.w3.org/Graphics/SVG/1.1/DTD/svg11.dtd">
<svg xmlns:xlink="http://www.w3.org/1999/xlink" width="360pt" height="360pt" viewBox="0 0 360 360" xmlns="http://www.w3.org/2000/svg" version="1.1">
 <metadata>
  <rdf:RDF xmlns:dc="http://purl.org/dc/elements/1.1/" xmlns:cc="http://creativecommons.org/ns#" xmlns:rdf="http://www.w3.org/1999/02/22-rdf-syntax-ns#">
   <cc:Work>
    <dc:type rdf:resource="http://purl.org/dc/dcmitype/StillImage"/>
    <dc:date>2023-03-21T12:55:46.456997</dc:date>
    <dc:format>image/svg+xml</dc:format>
    <dc:creator>
     <cc:Agent>
      <dc:title>Matplotlib v3.6.2, https://matplotlib.org/</dc:title>
     </cc:Agent>
    </dc:creator>
   </cc:Work>
  </rdf:RDF>
 </metadata>
 <defs>
  <style type="text/css">*{stroke-linejoin: round; stroke-linecap: butt}</style>
 </defs>
 <g id="figure_1">
  <g id="patch_1">
   <path d="M 0 360 
L 360 360 
L 360 0 
L 0 0 
z
" style="fill: #ffffff"/>
  </g>
  <g id="axes_1">
   <g id="patch_2">
    <path d="M 60.468889 188.340851 
L 349.2 188.340851 
L 349.2 25.44 
L 60.468889 25.44 
z
" style="fill: #ffffff"/>
   </g>
   <g id="PolyCollection_1">
    <path d="M 74.882963 35.890688 
L 74.882963 40.550099 
L 77.462828 40.589264 
L 80.042694 40.63008 
L 82.622559 40.672618 
L 85.202424 40.71695 
L 87.782289 40.763155 
L 90.362154 40.811313 
L 92.942019 40.861512 
L 95.521884 40.913842 
L 98.101749 40.968398 
L 100.681614 41.025283 
L 103.261479 41.084601 
L 105.841345 41.146467 
L 108.42121 41.210998 
L 111.001075 41.27832 
L 113.58094 41.348567 
L 116.160805 41.421877 
L 118.74067 41.498398 
L 121.320535 41.578288 
L 123.9004 41.661712 
L 126.480265 41.748843 
L 129.06013 41.839869 
L 131.639996 41.934983 
L 134.219861 42.034394 
L 136.799726 42.13832 
L 139.379591 42.246993 
L 141.959456 42.36066 
L 144.539321 42.47958 
L 147.119186 42.604029 
L 149.699051 42.7343 
L 152.278916 42.870702 
L 154.858781 43.013564 
L 157.438647 43.163234 
L 160.018512 43.320081 
L 162.598377 43.484498 
L 165.178242 43.656901 
L 167.758107 43.837732 
L 170.337972 44.02746 
L 172.917837 44.226584 
L 175.497702 44.435635 
L 178.077567 44.655175 
L 180.657432 44.885805 
L 183.237298 45.128162 
L 185.817163 45.382927 
L 188.397028 45.650822 
L 190.976893 45.932618 
L 193.556758 46.229137 
L 196.136623 46.541255 
L 198.716488 46.869907 
L 201.296353 47.21609 
L 203.876218 47.580869 
L 206.456083 47.965383 
L 209.035949 48.370848 
L 211.615814 48.798563 
L 214.195679 49.249919 
L 216.775544 49.726402 
L 219.355409 50.229604 
L 221.935274 50.761226 
L 224.515139 51.323088 
L 227.095004 51.91714 
L 229.674869 52.545463 
L 232.254735 53.210287 
L 234.8346 53.913991 
L 237.414465 54.659119 
L 239.99433 55.448384 
L 242.574195 56.28468 
L 245.15406 57.171092 
L 247.733925 58.110903 
L 250.31379 59.107606 
L 252.893655 60.164916 
L 255.47352 61.286779 
L 258.053386 62.477388 
L 260.633251 63.741199 
L 263.213116 65.082949 
L 265.792981 66.507678 
L 268.372846 68.020761 
L 270.952711 69.627937 
L 273.532576 71.335352 
L 276.112441 73.149609 
L 278.692306 75.077827 
L 281.272171 77.127719 
L 283.852037 79.307679 
L 286.431902 81.6269 
L 289.011767 84.095514 
L 291.591632 86.724778 
L 294.171497 89.527317 
L 296.751362 92.517435 
L 299.331227 95.711562 
L 301.911092 99.128857 
L 304.490957 102.79209 
L 307.070822 106.728962 
L 309.650688 110.974141 
L 312.230553 115.572587 
L 314.810418 120.585273 
L 317.390283 126.099759 
L 319.970148 132.251631 
L 322.550013 139.273793 
L 325.129878 147.633004 
L 327.709743 158.547302 
L 330.289608 178.11915 
L 330.289608 123.824117 
L 330.289608 123.824117 
L 327.709743 119.227627 
L 325.129878 114.882675 
L 322.550013 110.775184 
L 319.970148 106.891832 
L 317.390283 103.220018 
L 314.810418 99.747816 
L 312.230553 96.463946 
L 309.650688 93.357742 
L 307.070822 90.419116 
L 304.490957 87.63853 
L 301.911092 85.006972 
L 299.331227 82.515925 
L 296.751362 80.157343 
L 294.171497 77.923632 
L 291.591632 75.807625 
L 289.011767 73.802561 
L 286.431902 71.902072 
L 283.852037 70.100157 
L 281.272171 68.391172 
L 278.692306 66.769814 
L 276.112441 65.231102 
L 273.532576 63.770366 
L 270.952711 62.383233 
L 268.372846 61.06561 
L 265.792981 59.813674 
L 263.213116 58.623855 
L 260.633251 57.492819 
L 258.053386 56.417457 
L 255.47352 55.394868 
L 252.893655 54.422342 
L 250.31379 53.497346 
L 247.733925 52.617507 
L 245.15406 51.7806 
L 242.574195 50.984532 
L 239.99433 50.227332 
L 237.414465 49.507136 
L 234.8346 48.822178 
L 232.254735 48.170785 
L 229.674869 47.551362 
L 227.095004 46.962393 
L 224.515139 46.402428 
L 221.935274 45.870085 
L 219.355409 45.364041 
L 216.775544 44.883031 
L 214.195679 44.425846 
L 211.615814 43.991327 
L 209.035949 43.578367 
L 206.456083 43.185905 
L 203.876218 42.812928 
L 201.296353 42.458466 
L 198.716488 42.121593 
L 196.136623 41.801423 
L 193.556758 41.497112 
L 190.976893 41.207851 
L 188.397028 40.932872 
L 185.817163 40.671441 
L 183.237298 40.422856 
L 180.657432 40.186452 
L 178.077567 39.961594 
L 175.497702 39.747675 
L 172.917837 39.544121 
L 170.337972 39.350384 
L 167.758107 39.165942 
L 165.178242 38.9903 
L 162.598377 38.822987 
L 160.018512 38.663555 
L 157.438647 38.511579 
L 154.858781 38.366655 
L 152.278916 38.228398 
L 149.699051 38.096444 
L 147.119186 37.970448 
L 144.539321 37.85008 
L 141.959456 37.73503 
L 139.379591 37.625 
L 136.799726 37.519712 
L 134.219861 37.418898 
L 131.639996 37.322306 
L 129.06013 37.229697 
L 126.480265 37.140845 
L 123.9004 37.055533 
L 121.320535 36.973559 
L 118.74067 36.894728 
L 116.160805 36.818859 
L 113.58094 36.745777 
L 111.001075 36.675319 
L 108.42121 36.607329 
L 105.841345 36.541659 
L 103.261479 36.478171 
L 100.681614 36.416733 
L 98.101749 36.357219 
L 95.521884 36.299512 
L 92.942019 36.2435 
L 90.362154 36.189077 
L 87.782289 36.136144 
L 85.202424 36.084605 
L 82.622559 36.034372 
L 80.042694 35.985361 
L 77.462828 35.937491 
L 74.882963 35.890688 
z
" clip-path="url(#p9d4e841072)" style="fill: #008000; fill-opacity: 0.5"/>
   </g>
   <g id="PolyCollection_2">
    <path d="M 74.882963 37.522676 
L 74.882963 38.507555 
L 77.462828 38.531665 
L 80.042694 38.557704 
L 82.622559 38.585797 
L 85.202424 38.616079 
L 87.782289 38.648691 
L 90.362154 38.683788 
L 92.942019 38.721531 
L 95.521884 38.762092 
L 98.101749 38.805648 
L 100.681614 38.852385 
L 103.261479 38.902491 
L 105.841345 38.956156 
L 108.42121 39.013568 
L 111.001075 39.074909 
L 113.58094 39.14035 
L 116.160805 39.210054 
L 118.74067 39.284166 
L 121.320535 39.36282 
L 123.9004 39.446136 
L 126.480265 39.534224 
L 129.06013 39.627188 
L 131.639996 39.725134 
L 134.219861 39.828169 
L 136.799726 39.936411 
L 139.379591 40.049992 
L 141.959456 40.169061 
L 144.539321 40.293788 
L 147.119186 40.424365 
L 149.699051 40.56101 
L 152.278916 40.703969 
L 154.858781 40.853513 
L 157.438647 41.009946 
L 160.018512 41.173601 
L 162.598377 41.344844 
L 165.178242 41.524073 
L 167.758107 41.711726 
L 170.337972 41.908275 
L 172.917837 42.114234 
L 175.497702 42.330159 
L 178.077567 42.556651 
L 180.657432 42.794361 
L 183.237298 43.043991 
L 185.817163 43.306298 
L 188.397028 43.5821 
L 190.976893 43.872275 
L 193.556758 44.177769 
L 196.136623 44.499595 
L 198.716488 44.838841 
L 201.296353 45.196669 
L 203.876218 45.574316 
L 206.456083 45.973101 
L 209.035949 46.394421 
L 211.615814 46.83975 
L 214.195679 47.310648 
L 216.775544 47.808752 
L 219.355409 48.335782 
L 221.935274 48.893543 
L 224.515139 49.483929 
L 227.095004 50.108923 
L 229.674869 50.770607 
L 232.254735 51.471168 
L 234.8346 52.212909 
L 237.414465 52.998253 
L 239.99433 53.829762 
L 242.574195 54.710143 
L 245.15406 55.642266 
L 247.733925 56.629173 
L 250.31379 57.674102 
L 252.893655 58.780494 
L 255.47352 59.95202 
L 258.053386 61.192597 
L 260.633251 62.50641 
L 263.213116 63.897943 
L 265.792981 65.371998 
L 268.372846 66.933737 
L 270.952711 68.588713 
L 273.532576 70.342921 
L 276.112441 72.20284 
L 278.692306 74.175504 
L 281.272171 76.268574 
L 283.852037 78.490426 
L 286.431902 80.850271 
L 289.011767 83.358296 
L 291.591632 86.02585 
L 294.171497 88.86569 
L 296.751362 91.892305 
L 299.331227 95.122365 
L 301.911092 98.575349 
L 304.490957 102.27446 
L 307.070822 106.247993 
L 309.650688 110.53147 
L 312.230553 115.171136 
L 314.810418 120.230013 
L 317.390283 125.799186 
L 319.970148 132.020923 
L 322.550013 139.14266 
L 325.129878 147.670046 
L 327.709743 158.97301 
L 330.289608 180.936267 
L 330.289608 123.801107 
L 330.289608 123.801107 
L 327.709743 119.218255 
L 325.129878 114.88787 
L 322.550013 110.795929 
L 319.970148 106.929168 
L 317.390283 103.27504 
L 314.810418 99.821683 
L 312.230553 96.55788 
L 309.650688 93.473026 
L 307.070822 90.557096 
L 304.490957 87.800619 
L 301.911092 85.194641 
L 299.331227 82.730705 
L 296.751362 80.400821 
L 294.171497 78.197441 
L 291.591632 76.113438 
L 289.011767 74.142081 
L 286.431902 72.277015 
L 283.852037 70.512241 
L 281.272171 68.842095 
L 278.692306 67.261229 
L 276.112441 65.764599 
L 273.532576 64.347442 
L 270.952711 63.005264 
L 268.372846 61.733823 
L 265.792981 60.529118 
L 263.213116 59.387371 
L 260.633251 58.30502 
L 258.053386 57.278704 
L 255.47352 56.305251 
L 252.893655 55.38167 
L 250.31379 54.505141 
L 247.733925 53.673007 
L 245.15406 52.882762 
L 242.574195 52.132049 
L 239.99433 51.418649 
L 237.414465 50.740478 
L 234.8346 50.095578 
L 232.254735 49.482117 
L 229.674869 48.898378 
L 227.095004 48.342761 
L 224.515139 47.813773 
L 221.935274 47.310025 
L 219.355409 46.830229 
L 216.775544 46.373189 
L 214.195679 45.937794 
L 211.615814 45.523014 
L 209.035949 45.127891 
L 206.456083 44.751528 
L 203.876218 44.393086 
L 201.296353 44.051775 
L 198.716488 43.726846 
L 196.136623 43.417584 
L 193.556758 43.123308 
L 190.976893 42.843361 
L 188.397028 42.577111 
L 185.817163 42.323944 
L 183.237298 42.083269 
L 180.657432 41.854511 
L 178.077567 41.637111 
L 175.497702 41.430527 
L 172.917837 41.234234 
L 170.337972 41.047721 
L 167.758107 40.870491 
L 165.178242 40.702064 
L 162.598377 40.541971 
L 160.018512 40.389757 
L 157.438647 40.24498 
L 154.858781 40.107208 
L 152.278916 39.976021 
L 149.699051 39.851009 
L 147.119186 39.731768 
L 144.539321 39.617905 
L 141.959456 39.509034 
L 139.379591 39.404775 
L 136.799726 39.304756 
L 134.219861 39.208616 
L 131.639996 39.116 
L 129.06013 39.026567 
L 126.480265 38.939991 
L 123.9004 38.855966 
L 121.320535 38.774207 
L 118.74067 38.694455 
L 116.160805 38.616484 
L 113.58094 38.540095 
L 111.001075 38.465123 
L 108.42121 38.391433 
L 105.841345 38.318917 
L 103.261479 38.247492 
L 100.681614 38.177095 
L 98.101749 38.107678 
L 95.521884 38.039205 
L 92.942019 37.971648 
L 90.362154 37.904984 
L 87.782289 37.839193 
L 85.202424 37.774255 
L 82.622559 37.710154 
L 80.042694 37.64687 
L 77.462828 37.584384 
L 74.882963 37.522676 
z
" clip-path="url(#p9d4e841072)" style="fill: #ff0000; fill-opacity: 0.6"/>
   </g>
   <g id="matplotlib.axis_1">
    <g id="xtick_1">
     <g id="line2d_1">
      <defs>
       <path id="mb3831cb2ba" d="M 0 0 
L 0 3.5 
" style="stroke: #000000; stroke-width: 0.8"/>
      </defs>
      <g>
       <use xlink:href="#mb3831cb2ba" x="121.116861" y="188.340851" style="stroke: #000000; stroke-width: 0.8"/>
      </g>
     </g>
    </g>
    <g id="xtick_2">
     <g id="line2d_2">
      <g>
       <use xlink:href="#mb3831cb2ba" x="229.742761" y="188.340851" style="stroke: #000000; stroke-width: 0.8"/>
      </g>
     </g>
    </g>
    <g id="xtick_3">
     <g id="line2d_3">
      <g>
       <use xlink:href="#mb3831cb2ba" x="338.368661" y="188.340851" style="stroke: #000000; stroke-width: 0.8"/>
      </g>
     </g>
    </g>
    <g id="xtick_4">
     <g id="line2d_4">
      <defs>
       <path id="m3f43b28f28" d="M 0 0 
L 0 2 
" style="stroke: #000000; stroke-width: 0.6"/>
      </defs>
      <g>
       <use xlink:href="#m3f43b28f28" x="64.318687" y="188.340851" style="stroke: #000000; stroke-width: 0.6"/>
      </g>
     </g>
    </g>
    <g id="xtick_5">
     <g id="line2d_5">
      <g>
       <use xlink:href="#m3f43b28f28" x="77.89027" y="188.340851" style="stroke: #000000; stroke-width: 0.6"/>
      </g>
     </g>
    </g>
    <g id="xtick_6">
     <g id="line2d_6">
      <g>
       <use xlink:href="#m3f43b28f28" x="88.417207" y="188.340851" style="stroke: #000000; stroke-width: 0.6"/>
      </g>
     </g>
    </g>
    <g id="xtick_7">
     <g id="line2d_7">
      <g>
       <use xlink:href="#m3f43b28f28" x="97.018341" y="188.340851" style="stroke: #000000; stroke-width: 0.6"/>
      </g>
     </g>
    </g>
    <g id="xtick_8">
     <g id="line2d_8">
      <g>
       <use xlink:href="#m3f43b28f28" x="104.290497" y="188.340851" style="stroke: #000000; stroke-width: 0.6"/>
      </g>
     </g>
    </g>
    <g id="xtick_9">
     <g id="line2d_9">
      <g>
       <use xlink:href="#m3f43b28f28" x="110.589924" y="188.340851" style="stroke: #000000; stroke-width: 0.6"/>
      </g>
     </g>
    </g>
    <g id="xtick_10">
     <g id="line2d_10">
      <g>
       <use xlink:href="#m3f43b28f28" x="116.146413" y="188.340851" style="stroke: #000000; stroke-width: 0.6"/>
      </g>
     </g>
    </g>
    <g id="xtick_11">
     <g id="line2d_11">
      <g>
       <use xlink:href="#m3f43b28f28" x="153.816515" y="188.340851" style="stroke: #000000; stroke-width: 0.6"/>
      </g>
     </g>
    </g>
    <g id="xtick_12">
     <g id="line2d_12">
      <g>
       <use xlink:href="#m3f43b28f28" x="172.944587" y="188.340851" style="stroke: #000000; stroke-width: 0.6"/>
      </g>
     </g>
    </g>
    <g id="xtick_13">
     <g id="line2d_13">
      <g>
       <use xlink:href="#m3f43b28f28" x="186.51617" y="188.340851" style="stroke: #000000; stroke-width: 0.6"/>
      </g>
     </g>
    </g>
    <g id="xtick_14">
     <g id="line2d_14">
      <g>
       <use xlink:href="#m3f43b28f28" x="197.043107" y="188.340851" style="stroke: #000000; stroke-width: 0.6"/>
      </g>
     </g>
    </g>
    <g id="xtick_15">
     <g id="line2d_15">
      <g>
       <use xlink:href="#m3f43b28f28" x="205.644241" y="188.340851" style="stroke: #000000; stroke-width: 0.6"/>
      </g>
     </g>
    </g>
    <g id="xtick_16">
     <g id="line2d_16">
      <g>
       <use xlink:href="#m3f43b28f28" x="212.916396" y="188.340851" style="stroke: #000000; stroke-width: 0.6"/>
      </g>
     </g>
    </g>
    <g id="xtick_17">
     <g id="line2d_17">
      <g>
       <use xlink:href="#m3f43b28f28" x="219.215824" y="188.340851" style="stroke: #000000; stroke-width: 0.6"/>
      </g>
     </g>
    </g>
    <g id="xtick_18">
     <g id="line2d_18">
      <g>
       <use xlink:href="#m3f43b28f28" x="224.772312" y="188.340851" style="stroke: #000000; stroke-width: 0.6"/>
      </g>
     </g>
    </g>
    <g id="xtick_19">
     <g id="line2d_19">
      <g>
       <use xlink:href="#m3f43b28f28" x="262.442415" y="188.340851" style="stroke: #000000; stroke-width: 0.6"/>
      </g>
     </g>
    </g>
    <g id="xtick_20">
     <g id="line2d_20">
      <g>
       <use xlink:href="#m3f43b28f28" x="281.570486" y="188.340851" style="stroke: #000000; stroke-width: 0.6"/>
      </g>
     </g>
    </g>
    <g id="xtick_21">
     <g id="line2d_21">
      <g>
       <use xlink:href="#m3f43b28f28" x="295.142069" y="188.340851" style="stroke: #000000; stroke-width: 0.6"/>
      </g>
     </g>
    </g>
    <g id="xtick_22">
     <g id="line2d_22">
      <g>
       <use xlink:href="#m3f43b28f28" x="305.669006" y="188.340851" style="stroke: #000000; stroke-width: 0.6"/>
      </g>
     </g>
    </g>
    <g id="xtick_23">
     <g id="line2d_23">
      <g>
       <use xlink:href="#m3f43b28f28" x="314.270141" y="188.340851" style="stroke: #000000; stroke-width: 0.6"/>
      </g>
     </g>
    </g>
    <g id="xtick_24">
     <g id="line2d_24">
      <g>
       <use xlink:href="#m3f43b28f28" x="321.542296" y="188.340851" style="stroke: #000000; stroke-width: 0.6"/>
      </g>
     </g>
    </g>
    <g id="xtick_25">
     <g id="line2d_25">
      <g>
       <use xlink:href="#m3f43b28f28" x="327.841723" y="188.340851" style="stroke: #000000; stroke-width: 0.6"/>
      </g>
     </g>
    </g>
    <g id="xtick_26">
     <g id="line2d_26">
      <g>
       <use xlink:href="#m3f43b28f28" x="333.398212" y="188.340851" style="stroke: #000000; stroke-width: 0.6"/>
      </g>
     </g>
    </g>
   </g>
   <g id="matplotlib.axis_2">
    <g id="ytick_1">
     <g id="line2d_27">
      <defs>
       <path id="m4a6a013363" d="M 0 0 
L -3.5 0 
" style="stroke: #000000; stroke-width: 0.8"/>
      </defs>
      <g>
       <use xlink:href="#m4a6a013363" x="60.468889" y="164.518984" style="stroke: #000000; stroke-width: 0.8"/>
      </g>
     </g>
     <g id="text_1">
      <!-- $\mathdefault{10^{-16}}$ -->
      <g transform="translate(25.568889 168.318203) scale(0.1 -0.1)">
       <defs>
        <path id="DejaVuSans-31" d="M 794 531 
L 1825 531 
L 1825 4091 
L 703 3866 
L 703 4441 
L 1819 4666 
L 2450 4666 
L 2450 531 
L 3481 531 
L 3481 0 
L 794 0 
L 794 531 
z
" transform="scale(0.015625)"/>
        <path id="DejaVuSans-30" d="M 2034 4250 
Q 1547 4250 1301 3770 
Q 1056 3291 1056 2328 
Q 1056 1369 1301 889 
Q 1547 409 2034 409 
Q 2525 409 2770 889 
Q 3016 1369 3016 2328 
Q 3016 3291 2770 3770 
Q 2525 4250 2034 4250 
z
M 2034 4750 
Q 2819 4750 3233 4129 
Q 3647 3509 3647 2328 
Q 3647 1150 3233 529 
Q 2819 -91 2034 -91 
Q 1250 -91 836 529 
Q 422 1150 422 2328 
Q 422 3509 836 4129 
Q 1250 4750 2034 4750 
z
" transform="scale(0.015625)"/>
        <path id="DejaVuSans-2212" d="M 678 2272 
L 4684 2272 
L 4684 1741 
L 678 1741 
L 678 2272 
z
" transform="scale(0.015625)"/>
        <path id="DejaVuSans-36" d="M 2113 2584 
Q 1688 2584 1439 2293 
Q 1191 2003 1191 1497 
Q 1191 994 1439 701 
Q 1688 409 2113 409 
Q 2538 409 2786 701 
Q 3034 994 3034 1497 
Q 3034 2003 2786 2293 
Q 2538 2584 2113 2584 
z
M 3366 4563 
L 3366 3988 
Q 3128 4100 2886 4159 
Q 2644 4219 2406 4219 
Q 1781 4219 1451 3797 
Q 1122 3375 1075 2522 
Q 1259 2794 1537 2939 
Q 1816 3084 2150 3084 
Q 2853 3084 3261 2657 
Q 3669 2231 3669 1497 
Q 3669 778 3244 343 
Q 2819 -91 2113 -91 
Q 1303 -91 875 529 
Q 447 1150 447 2328 
Q 447 3434 972 4092 
Q 1497 4750 2381 4750 
Q 2619 4750 2861 4703 
Q 3103 4656 3366 4563 
z
" transform="scale(0.015625)"/>
       </defs>
       <use xlink:href="#DejaVuSans-31" transform="translate(0 0.765625)"/>
       <use xlink:href="#DejaVuSans-30" transform="translate(63.623047 0.765625)"/>
       <use xlink:href="#DejaVuSans-2212" transform="translate(128.203125 39.046875) scale(0.7)"/>
       <use xlink:href="#DejaVuSans-31" transform="translate(186.855469 39.046875) scale(0.7)"/>
       <use xlink:href="#DejaVuSans-36" transform="translate(231.391602 39.046875) scale(0.7)"/>
      </g>
     </g>
    </g>
    <g id="ytick_2">
     <g id="line2d_28">
      <g>
       <use xlink:href="#m4a6a013363" x="60.468889" y="135.993149" style="stroke: #000000; stroke-width: 0.8"/>
      </g>
     </g>
     <g id="text_2">
      <!-- $\mathdefault{10^{-15}}$ -->
      <g transform="translate(25.568889 139.792367) scale(0.1 -0.1)">
       <defs>
        <path id="DejaVuSans-35" d="M 691 4666 
L 3169 4666 
L 3169 4134 
L 1269 4134 
L 1269 2991 
Q 1406 3038 1543 3061 
Q 1681 3084 1819 3084 
Q 2600 3084 3056 2656 
Q 3513 2228 3513 1497 
Q 3513 744 3044 326 
Q 2575 -91 1722 -91 
Q 1428 -91 1123 -41 
Q 819 9 494 109 
L 494 744 
Q 775 591 1075 516 
Q 1375 441 1709 441 
Q 2250 441 2565 725 
Q 2881 1009 2881 1497 
Q 2881 1984 2565 2268 
Q 2250 2553 1709 2553 
Q 1456 2553 1204 2497 
Q 953 2441 691 2322 
L 691 4666 
z
" transform="scale(0.015625)"/>
       </defs>
       <use xlink:href="#DejaVuSans-31" transform="translate(0 0.684375)"/>
       <use xlink:href="#DejaVuSans-30" transform="translate(63.623047 0.684375)"/>
       <use xlink:href="#DejaVuSans-2212" transform="translate(128.203125 38.965625) scale(0.7)"/>
       <use xlink:href="#DejaVuSans-31" transform="translate(186.855469 38.965625) scale(0.7)"/>
       <use xlink:href="#DejaVuSans-35" transform="translate(231.391602 38.965625) scale(0.7)"/>
      </g>
     </g>
    </g>
    <g id="ytick_3">
     <g id="line2d_29">
      <g>
       <use xlink:href="#m4a6a013363" x="60.468889" y="107.467313" style="stroke: #000000; stroke-width: 0.8"/>
      </g>
     </g>
     <g id="text_3">
      <!-- $\mathdefault{10^{-14}}$ -->
      <g transform="translate(25.568889 111.266532) scale(0.1 -0.1)">
       <defs>
        <path id="DejaVuSans-34" d="M 2419 4116 
L 825 1625 
L 2419 1625 
L 2419 4116 
z
M 2253 4666 
L 3047 4666 
L 3047 1625 
L 3713 1625 
L 3713 1100 
L 3047 1100 
L 3047 0 
L 2419 0 
L 2419 1100 
L 313 1100 
L 313 1709 
L 2253 4666 
z
" transform="scale(0.015625)"/>
       </defs>
       <use xlink:href="#DejaVuSans-31" transform="translate(0 0.684375)"/>
       <use xlink:href="#DejaVuSans-30" transform="translate(63.623047 0.684375)"/>
       <use xlink:href="#DejaVuSans-2212" transform="translate(128.203125 38.965625) scale(0.7)"/>
       <use xlink:href="#DejaVuSans-31" transform="translate(186.855469 38.965625) scale(0.7)"/>
       <use xlink:href="#DejaVuSans-34" transform="translate(231.391602 38.965625) scale(0.7)"/>
      </g>
     </g>
    </g>
    <g id="ytick_4">
     <g id="line2d_30">
      <g>
       <use xlink:href="#m4a6a013363" x="60.468889" y="78.941477" style="stroke: #000000; stroke-width: 0.8"/>
      </g>
     </g>
     <g id="text_4">
      <!-- $\mathdefault{10^{-13}}$ -->
      <g transform="translate(25.568889 82.740696) scale(0.1 -0.1)">
       <defs>
        <path id="DejaVuSans-33" d="M 2597 2516 
Q 3050 2419 3304 2112 
Q 3559 1806 3559 1356 
Q 3559 666 3084 287 
Q 2609 -91 1734 -91 
Q 1441 -91 1130 -33 
Q 819 25 488 141 
L 488 750 
Q 750 597 1062 519 
Q 1375 441 1716 441 
Q 2309 441 2620 675 
Q 2931 909 2931 1356 
Q 2931 1769 2642 2001 
Q 2353 2234 1838 2234 
L 1294 2234 
L 1294 2753 
L 1863 2753 
Q 2328 2753 2575 2939 
Q 2822 3125 2822 3475 
Q 2822 3834 2567 4026 
Q 2313 4219 1838 4219 
Q 1578 4219 1281 4162 
Q 984 4106 628 3988 
L 628 4550 
Q 988 4650 1302 4700 
Q 1616 4750 1894 4750 
Q 2613 4750 3031 4423 
Q 3450 4097 3450 3541 
Q 3450 3153 3228 2886 
Q 3006 2619 2597 2516 
z
" transform="scale(0.015625)"/>
       </defs>
       <use xlink:href="#DejaVuSans-31" transform="translate(0 0.765625)"/>
       <use xlink:href="#DejaVuSans-30" transform="translate(63.623047 0.765625)"/>
       <use xlink:href="#DejaVuSans-2212" transform="translate(128.203125 39.046875) scale(0.7)"/>
       <use xlink:href="#DejaVuSans-31" transform="translate(186.855469 39.046875) scale(0.7)"/>
       <use xlink:href="#DejaVuSans-33" transform="translate(231.391602 39.046875) scale(0.7)"/>
      </g>
     </g>
    </g>
    <g id="ytick_5">
     <g id="line2d_31">
      <g>
       <use xlink:href="#m4a6a013363" x="60.468889" y="50.415642" style="stroke: #000000; stroke-width: 0.8"/>
      </g>
     </g>
     <g id="text_5">
      <!-- $\mathdefault{10^{-12}}$ -->
      <g transform="translate(25.568889 54.214861) scale(0.1 -0.1)">
       <defs>
        <path id="DejaVuSans-32" d="M 1228 531 
L 3431 531 
L 3431 0 
L 469 0 
L 469 531 
Q 828 903 1448 1529 
Q 2069 2156 2228 2338 
Q 2531 2678 2651 2914 
Q 2772 3150 2772 3378 
Q 2772 3750 2511 3984 
Q 2250 4219 1831 4219 
Q 1534 4219 1204 4116 
Q 875 4013 500 3803 
L 500 4441 
Q 881 4594 1212 4672 
Q 1544 4750 1819 4750 
Q 2544 4750 2975 4387 
Q 3406 4025 3406 3419 
Q 3406 3131 3298 2873 
Q 3191 2616 2906 2266 
Q 2828 2175 2409 1742 
Q 1991 1309 1228 531 
z
" transform="scale(0.015625)"/>
       </defs>
       <use xlink:href="#DejaVuSans-31" transform="translate(0 0.765625)"/>
       <use xlink:href="#DejaVuSans-30" transform="translate(63.623047 0.765625)"/>
       <use xlink:href="#DejaVuSans-2212" transform="translate(128.203125 39.046875) scale(0.7)"/>
       <use xlink:href="#DejaVuSans-31" transform="translate(186.855469 39.046875) scale(0.7)"/>
       <use xlink:href="#DejaVuSans-32" transform="translate(231.391602 39.046875) scale(0.7)"/>
      </g>
     </g>
    </g>
    <g id="ytick_6">
     <g id="line2d_32">
      <defs>
       <path id="mf1312cb1c7" d="M 0 0 
L -2 0 
" style="stroke: #000000; stroke-width: 0.6"/>
      </defs>
      <g>
       <use xlink:href="#mf1312cb1c7" x="60.468889" y="184.457687" style="stroke: #000000; stroke-width: 0.6"/>
      </g>
     </g>
    </g>
    <g id="ytick_7">
     <g id="line2d_33">
      <g>
       <use xlink:href="#mf1312cb1c7" x="60.468889" y="179.434537" style="stroke: #000000; stroke-width: 0.6"/>
      </g>
     </g>
    </g>
    <g id="ytick_8">
     <g id="line2d_34">
      <g>
       <use xlink:href="#mf1312cb1c7" x="60.468889" y="175.870555" style="stroke: #000000; stroke-width: 0.6"/>
      </g>
     </g>
    </g>
    <g id="ytick_9">
     <g id="line2d_35">
      <g>
       <use xlink:href="#mf1312cb1c7" x="60.468889" y="173.106116" style="stroke: #000000; stroke-width: 0.6"/>
      </g>
     </g>
    </g>
    <g id="ytick_10">
     <g id="line2d_36">
      <g>
       <use xlink:href="#mf1312cb1c7" x="60.468889" y="170.847405" style="stroke: #000000; stroke-width: 0.6"/>
      </g>
     </g>
    </g>
    <g id="ytick_11">
     <g id="line2d_37">
      <g>
       <use xlink:href="#mf1312cb1c7" x="60.468889" y="168.937692" style="stroke: #000000; stroke-width: 0.6"/>
      </g>
     </g>
    </g>
    <g id="ytick_12">
     <g id="line2d_38">
      <g>
       <use xlink:href="#mf1312cb1c7" x="60.468889" y="167.283423" style="stroke: #000000; stroke-width: 0.6"/>
      </g>
     </g>
    </g>
    <g id="ytick_13">
     <g id="line2d_39">
      <g>
       <use xlink:href="#mf1312cb1c7" x="60.468889" y="165.824255" style="stroke: #000000; stroke-width: 0.6"/>
      </g>
     </g>
    </g>
    <g id="ytick_14">
     <g id="line2d_40">
      <g>
       <use xlink:href="#mf1312cb1c7" x="60.468889" y="155.931852" style="stroke: #000000; stroke-width: 0.6"/>
      </g>
     </g>
    </g>
    <g id="ytick_15">
     <g id="line2d_41">
      <g>
       <use xlink:href="#mf1312cb1c7" x="60.468889" y="150.908702" style="stroke: #000000; stroke-width: 0.6"/>
      </g>
     </g>
    </g>
    <g id="ytick_16">
     <g id="line2d_42">
      <g>
       <use xlink:href="#mf1312cb1c7" x="60.468889" y="147.34472" style="stroke: #000000; stroke-width: 0.6"/>
      </g>
     </g>
    </g>
    <g id="ytick_17">
     <g id="line2d_43">
      <g>
       <use xlink:href="#mf1312cb1c7" x="60.468889" y="144.580281" style="stroke: #000000; stroke-width: 0.6"/>
      </g>
     </g>
    </g>
    <g id="ytick_18">
     <g id="line2d_44">
      <g>
       <use xlink:href="#mf1312cb1c7" x="60.468889" y="142.321569" style="stroke: #000000; stroke-width: 0.6"/>
      </g>
     </g>
    </g>
    <g id="ytick_19">
     <g id="line2d_45">
      <g>
       <use xlink:href="#mf1312cb1c7" x="60.468889" y="140.411856" style="stroke: #000000; stroke-width: 0.6"/>
      </g>
     </g>
    </g>
    <g id="ytick_20">
     <g id="line2d_46">
      <g>
       <use xlink:href="#mf1312cb1c7" x="60.468889" y="138.757588" style="stroke: #000000; stroke-width: 0.6"/>
      </g>
     </g>
    </g>
    <g id="ytick_21">
     <g id="line2d_47">
      <g>
       <use xlink:href="#mf1312cb1c7" x="60.468889" y="137.298419" style="stroke: #000000; stroke-width: 0.6"/>
      </g>
     </g>
    </g>
    <g id="ytick_22">
     <g id="line2d_48">
      <g>
       <use xlink:href="#mf1312cb1c7" x="60.468889" y="127.406016" style="stroke: #000000; stroke-width: 0.6"/>
      </g>
     </g>
    </g>
    <g id="ytick_23">
     <g id="line2d_49">
      <g>
       <use xlink:href="#mf1312cb1c7" x="60.468889" y="122.382866" style="stroke: #000000; stroke-width: 0.6"/>
      </g>
     </g>
    </g>
    <g id="ytick_24">
     <g id="line2d_50">
      <g>
       <use xlink:href="#mf1312cb1c7" x="60.468889" y="118.818884" style="stroke: #000000; stroke-width: 0.6"/>
      </g>
     </g>
    </g>
    <g id="ytick_25">
     <g id="line2d_51">
      <g>
       <use xlink:href="#mf1312cb1c7" x="60.468889" y="116.054445" style="stroke: #000000; stroke-width: 0.6"/>
      </g>
     </g>
    </g>
    <g id="ytick_26">
     <g id="line2d_52">
      <g>
       <use xlink:href="#mf1312cb1c7" x="60.468889" y="113.795734" style="stroke: #000000; stroke-width: 0.6"/>
      </g>
     </g>
    </g>
    <g id="ytick_27">
     <g id="line2d_53">
      <g>
       <use xlink:href="#mf1312cb1c7" x="60.468889" y="111.886021" style="stroke: #000000; stroke-width: 0.6"/>
      </g>
     </g>
    </g>
    <g id="ytick_28">
     <g id="line2d_54">
      <g>
       <use xlink:href="#mf1312cb1c7" x="60.468889" y="110.231752" style="stroke: #000000; stroke-width: 0.6"/>
      </g>
     </g>
    </g>
    <g id="ytick_29">
     <g id="line2d_55">
      <g>
       <use xlink:href="#mf1312cb1c7" x="60.468889" y="108.772584" style="stroke: #000000; stroke-width: 0.6"/>
      </g>
     </g>
    </g>
    <g id="ytick_30">
     <g id="line2d_56">
      <g>
       <use xlink:href="#mf1312cb1c7" x="60.468889" y="98.880181" style="stroke: #000000; stroke-width: 0.6"/>
      </g>
     </g>
    </g>
    <g id="ytick_31">
     <g id="line2d_57">
      <g>
       <use xlink:href="#mf1312cb1c7" x="60.468889" y="93.857031" style="stroke: #000000; stroke-width: 0.6"/>
      </g>
     </g>
    </g>
    <g id="ytick_32">
     <g id="line2d_58">
      <g>
       <use xlink:href="#mf1312cb1c7" x="60.468889" y="90.293049" style="stroke: #000000; stroke-width: 0.6"/>
      </g>
     </g>
    </g>
    <g id="ytick_33">
     <g id="line2d_59">
      <g>
       <use xlink:href="#mf1312cb1c7" x="60.468889" y="87.52861" style="stroke: #000000; stroke-width: 0.6"/>
      </g>
     </g>
    </g>
    <g id="ytick_34">
     <g id="line2d_60">
      <g>
       <use xlink:href="#mf1312cb1c7" x="60.468889" y="85.269898" style="stroke: #000000; stroke-width: 0.6"/>
      </g>
     </g>
    </g>
    <g id="ytick_35">
     <g id="line2d_61">
      <g>
       <use xlink:href="#mf1312cb1c7" x="60.468889" y="83.360185" style="stroke: #000000; stroke-width: 0.6"/>
      </g>
     </g>
    </g>
    <g id="ytick_36">
     <g id="line2d_62">
      <g>
       <use xlink:href="#mf1312cb1c7" x="60.468889" y="81.705917" style="stroke: #000000; stroke-width: 0.6"/>
      </g>
     </g>
    </g>
    <g id="ytick_37">
     <g id="line2d_63">
      <g>
       <use xlink:href="#mf1312cb1c7" x="60.468889" y="80.246748" style="stroke: #000000; stroke-width: 0.6"/>
      </g>
     </g>
    </g>
    <g id="ytick_38">
     <g id="line2d_64">
      <g>
       <use xlink:href="#mf1312cb1c7" x="60.468889" y="70.354345" style="stroke: #000000; stroke-width: 0.6"/>
      </g>
     </g>
    </g>
    <g id="ytick_39">
     <g id="line2d_65">
      <g>
       <use xlink:href="#mf1312cb1c7" x="60.468889" y="65.331195" style="stroke: #000000; stroke-width: 0.6"/>
      </g>
     </g>
    </g>
    <g id="ytick_40">
     <g id="line2d_66">
      <g>
       <use xlink:href="#mf1312cb1c7" x="60.468889" y="61.767213" style="stroke: #000000; stroke-width: 0.6"/>
      </g>
     </g>
    </g>
    <g id="ytick_41">
     <g id="line2d_67">
      <g>
       <use xlink:href="#mf1312cb1c7" x="60.468889" y="59.002774" style="stroke: #000000; stroke-width: 0.6"/>
      </g>
     </g>
    </g>
    <g id="ytick_42">
     <g id="line2d_68">
      <g>
       <use xlink:href="#mf1312cb1c7" x="60.468889" y="56.744063" style="stroke: #000000; stroke-width: 0.6"/>
      </g>
     </g>
    </g>
    <g id="ytick_43">
     <g id="line2d_69">
      <g>
       <use xlink:href="#mf1312cb1c7" x="60.468889" y="54.83435" style="stroke: #000000; stroke-width: 0.6"/>
      </g>
     </g>
    </g>
    <g id="ytick_44">
     <g id="line2d_70">
      <g>
       <use xlink:href="#mf1312cb1c7" x="60.468889" y="53.180081" style="stroke: #000000; stroke-width: 0.6"/>
      </g>
     </g>
    </g>
    <g id="ytick_45">
     <g id="line2d_71">
      <g>
       <use xlink:href="#mf1312cb1c7" x="60.468889" y="51.720913" style="stroke: #000000; stroke-width: 0.6"/>
      </g>
     </g>
    </g>
    <g id="ytick_46">
     <g id="line2d_72">
      <g>
       <use xlink:href="#mf1312cb1c7" x="60.468889" y="41.82851" style="stroke: #000000; stroke-width: 0.6"/>
      </g>
     </g>
    </g>
    <g id="ytick_47">
     <g id="line2d_73">
      <g>
       <use xlink:href="#mf1312cb1c7" x="60.468889" y="36.805359" style="stroke: #000000; stroke-width: 0.6"/>
      </g>
     </g>
    </g>
    <g id="ytick_48">
     <g id="line2d_74">
      <g>
       <use xlink:href="#mf1312cb1c7" x="60.468889" y="33.241378" style="stroke: #000000; stroke-width: 0.6"/>
      </g>
     </g>
    </g>
    <g id="ytick_49">
     <g id="line2d_75">
      <g>
       <use xlink:href="#mf1312cb1c7" x="60.468889" y="30.476939" style="stroke: #000000; stroke-width: 0.6"/>
      </g>
     </g>
    </g>
    <g id="ytick_50">
     <g id="line2d_76">
      <g>
       <use xlink:href="#mf1312cb1c7" x="60.468889" y="28.218227" style="stroke: #000000; stroke-width: 0.6"/>
      </g>
     </g>
    </g>
    <g id="ytick_51">
     <g id="line2d_77">
      <g>
       <use xlink:href="#mf1312cb1c7" x="60.468889" y="26.308514" style="stroke: #000000; stroke-width: 0.6"/>
      </g>
     </g>
    </g>
    <g id="text_6">
     <!-- e2 * dnde [TeV / (cm2 s)] -->
     <g transform="translate(19.489202 169.370113) rotate(-90) scale(0.1 -0.1)">
      <defs>
       <path id="DejaVuSans-65" d="M 3597 1894 
L 3597 1613 
L 953 1613 
Q 991 1019 1311 708 
Q 1631 397 2203 397 
Q 2534 397 2845 478 
Q 3156 559 3463 722 
L 3463 178 
Q 3153 47 2828 -22 
Q 2503 -91 2169 -91 
Q 1331 -91 842 396 
Q 353 884 353 1716 
Q 353 2575 817 3079 
Q 1281 3584 2069 3584 
Q 2775 3584 3186 3129 
Q 3597 2675 3597 1894 
z
M 3022 2063 
Q 3016 2534 2758 2815 
Q 2500 3097 2075 3097 
Q 1594 3097 1305 2825 
Q 1016 2553 972 2059 
L 3022 2063 
z
" transform="scale(0.015625)"/>
       <path id="DejaVuSans-20" transform="scale(0.015625)"/>
       <path id="DejaVuSans-2a" d="M 3009 3897 
L 1888 3291 
L 3009 2681 
L 2828 2375 
L 1778 3009 
L 1778 1831 
L 1422 1831 
L 1422 3009 
L 372 2375 
L 191 2681 
L 1313 3291 
L 191 3897 
L 372 4206 
L 1422 3572 
L 1422 4750 
L 1778 4750 
L 1778 3572 
L 2828 4206 
L 3009 3897 
z
" transform="scale(0.015625)"/>
       <path id="DejaVuSans-64" d="M 2906 2969 
L 2906 4863 
L 3481 4863 
L 3481 0 
L 2906 0 
L 2906 525 
Q 2725 213 2448 61 
Q 2172 -91 1784 -91 
Q 1150 -91 751 415 
Q 353 922 353 1747 
Q 353 2572 751 3078 
Q 1150 3584 1784 3584 
Q 2172 3584 2448 3432 
Q 2725 3281 2906 2969 
z
M 947 1747 
Q 947 1113 1208 752 
Q 1469 391 1925 391 
Q 2381 391 2643 752 
Q 2906 1113 2906 1747 
Q 2906 2381 2643 2742 
Q 2381 3103 1925 3103 
Q 1469 3103 1208 2742 
Q 947 2381 947 1747 
z
" transform="scale(0.015625)"/>
       <path id="DejaVuSans-6e" d="M 3513 2113 
L 3513 0 
L 2938 0 
L 2938 2094 
Q 2938 2591 2744 2837 
Q 2550 3084 2163 3084 
Q 1697 3084 1428 2787 
Q 1159 2491 1159 1978 
L 1159 0 
L 581 0 
L 581 3500 
L 1159 3500 
L 1159 2956 
Q 1366 3272 1645 3428 
Q 1925 3584 2291 3584 
Q 2894 3584 3203 3211 
Q 3513 2838 3513 2113 
z
" transform="scale(0.015625)"/>
       <path id="DejaVuSans-5b" d="M 550 4863 
L 1875 4863 
L 1875 4416 
L 1125 4416 
L 1125 -397 
L 1875 -397 
L 1875 -844 
L 550 -844 
L 550 4863 
z
" transform="scale(0.015625)"/>
       <path id="DejaVuSans-54" d="M -19 4666 
L 3928 4666 
L 3928 4134 
L 2272 4134 
L 2272 0 
L 1638 0 
L 1638 4134 
L -19 4134 
L -19 4666 
z
" transform="scale(0.015625)"/>
       <path id="DejaVuSans-56" d="M 1831 0 
L 50 4666 
L 709 4666 
L 2188 738 
L 3669 4666 
L 4325 4666 
L 2547 0 
L 1831 0 
z
" transform="scale(0.015625)"/>
       <path id="DejaVuSans-2f" d="M 1625 4666 
L 2156 4666 
L 531 -594 
L 0 -594 
L 1625 4666 
z
" transform="scale(0.015625)"/>
       <path id="DejaVuSans-28" d="M 1984 4856 
Q 1566 4138 1362 3434 
Q 1159 2731 1159 2009 
Q 1159 1288 1364 580 
Q 1569 -128 1984 -844 
L 1484 -844 
Q 1016 -109 783 600 
Q 550 1309 550 2009 
Q 550 2706 781 3412 
Q 1013 4119 1484 4856 
L 1984 4856 
z
" transform="scale(0.015625)"/>
       <path id="DejaVuSans-63" d="M 3122 3366 
L 3122 2828 
Q 2878 2963 2633 3030 
Q 2388 3097 2138 3097 
Q 1578 3097 1268 2742 
Q 959 2388 959 1747 
Q 959 1106 1268 751 
Q 1578 397 2138 397 
Q 2388 397 2633 464 
Q 2878 531 3122 666 
L 3122 134 
Q 2881 22 2623 -34 
Q 2366 -91 2075 -91 
Q 1284 -91 818 406 
Q 353 903 353 1747 
Q 353 2603 823 3093 
Q 1294 3584 2113 3584 
Q 2378 3584 2631 3529 
Q 2884 3475 3122 3366 
z
" transform="scale(0.015625)"/>
       <path id="DejaVuSans-6d" d="M 3328 2828 
Q 3544 3216 3844 3400 
Q 4144 3584 4550 3584 
Q 5097 3584 5394 3201 
Q 5691 2819 5691 2113 
L 5691 0 
L 5113 0 
L 5113 2094 
Q 5113 2597 4934 2840 
Q 4756 3084 4391 3084 
Q 3944 3084 3684 2787 
Q 3425 2491 3425 1978 
L 3425 0 
L 2847 0 
L 2847 2094 
Q 2847 2600 2669 2842 
Q 2491 3084 2119 3084 
Q 1678 3084 1418 2786 
Q 1159 2488 1159 1978 
L 1159 0 
L 581 0 
L 581 3500 
L 1159 3500 
L 1159 2956 
Q 1356 3278 1631 3431 
Q 1906 3584 2284 3584 
Q 2666 3584 2933 3390 
Q 3200 3197 3328 2828 
z
" transform="scale(0.015625)"/>
       <path id="DejaVuSans-73" d="M 2834 3397 
L 2834 2853 
Q 2591 2978 2328 3040 
Q 2066 3103 1784 3103 
Q 1356 3103 1142 2972 
Q 928 2841 928 2578 
Q 928 2378 1081 2264 
Q 1234 2150 1697 2047 
L 1894 2003 
Q 2506 1872 2764 1633 
Q 3022 1394 3022 966 
Q 3022 478 2636 193 
Q 2250 -91 1575 -91 
Q 1294 -91 989 -36 
Q 684 19 347 128 
L 347 722 
Q 666 556 975 473 
Q 1284 391 1588 391 
Q 1994 391 2212 530 
Q 2431 669 2431 922 
Q 2431 1156 2273 1281 
Q 2116 1406 1581 1522 
L 1381 1569 
Q 847 1681 609 1914 
Q 372 2147 372 2553 
Q 372 3047 722 3315 
Q 1072 3584 1716 3584 
Q 2034 3584 2315 3537 
Q 2597 3491 2834 3397 
z
" transform="scale(0.015625)"/>
       <path id="DejaVuSans-29" d="M 513 4856 
L 1013 4856 
Q 1481 4119 1714 3412 
Q 1947 2706 1947 2009 
Q 1947 1309 1714 600 
Q 1481 -109 1013 -844 
L 513 -844 
Q 928 -128 1133 580 
Q 1338 1288 1338 2009 
Q 1338 2731 1133 3434 
Q 928 4138 513 4856 
z
" transform="scale(0.015625)"/>
       <path id="DejaVuSans-5d" d="M 1947 4863 
L 1947 -844 
L 622 -844 
L 622 -397 
L 1369 -397 
L 1369 4416 
L 622 4416 
L 622 4863 
L 1947 4863 
z
" transform="scale(0.015625)"/>
      </defs>
      <use xlink:href="#DejaVuSans-65"/>
      <use xlink:href="#DejaVuSans-32" x="61.523438"/>
      <use xlink:href="#DejaVuSans-20" x="125.146484"/>
      <use xlink:href="#DejaVuSans-2a" x="156.933594"/>
      <use xlink:href="#DejaVuSans-20" x="206.933594"/>
      <use xlink:href="#DejaVuSans-64" x="238.720703"/>
      <use xlink:href="#DejaVuSans-6e" x="302.197266"/>
      <use xlink:href="#DejaVuSans-64" x="365.576172"/>
      <use xlink:href="#DejaVuSans-65" x="429.052734"/>
      <use xlink:href="#DejaVuSans-20" x="490.576172"/>
      <use xlink:href="#DejaVuSans-5b" x="522.363281"/>
      <use xlink:href="#DejaVuSans-54" x="561.376953"/>
      <use xlink:href="#DejaVuSans-65" x="605.460938"/>
      <use xlink:href="#DejaVuSans-56" x="666.984375"/>
      <use xlink:href="#DejaVuSans-20" x="735.392578"/>
      <use xlink:href="#DejaVuSans-2f" x="767.179688"/>
      <use xlink:href="#DejaVuSans-20" x="800.871094"/>
      <use xlink:href="#DejaVuSans-28" x="832.658203"/>
      <use xlink:href="#DejaVuSans-63" x="871.671875"/>
      <use xlink:href="#DejaVuSans-6d" x="926.652344"/>
      <use xlink:href="#DejaVuSans-32" x="1024.064453"/>
      <use xlink:href="#DejaVuSans-20" x="1087.6875"/>
      <use xlink:href="#DejaVuSans-73" x="1119.474609"/>
      <use xlink:href="#DejaVuSans-29" x="1171.574219"/>
      <use xlink:href="#DejaVuSans-5d" x="1210.587891"/>
     </g>
    </g>
   </g>
   <g id="line2d_78">
    <path d="M 74.882963 38.005331 
L 77.462828 38.048973 
L 80.042694 38.093918 
L 82.622559 38.140241 
L 85.202424 38.188018 
L 87.782289 38.237331 
L 90.362154 38.288267 
L 92.942019 38.340917 
L 95.521884 38.395377 
L 98.101749 38.451748 
L 100.681614 38.510139 
L 103.261479 38.570663 
L 105.841345 38.633439 
L 108.42121 38.698595 
L 111.001075 38.766264 
L 113.58094 38.836588 
L 116.160805 38.909714 
L 118.74067 38.985802 
L 121.320535 39.065018 
L 123.9004 39.147537 
L 126.480265 39.233545 
L 129.06013 39.323238 
L 131.639996 39.416823 
L 134.219861 39.51452 
L 136.799726 39.616559 
L 139.379591 39.723183 
L 141.959456 39.834652 
L 144.539321 39.951238 
L 147.119186 40.073227 
L 149.699051 40.200924 
L 152.278916 40.334649 
L 154.858781 40.474742 
L 157.438647 40.62156 
L 160.018512 40.775481 
L 162.598377 40.936904 
L 165.178242 41.106252 
L 167.758107 41.28397 
L 170.337972 41.470527 
L 172.917837 41.666422 
L 175.497702 41.872178 
L 178.077567 42.088351 
L 180.657432 42.315525 
L 183.237298 42.554319 
L 185.817163 42.805387 
L 188.397028 43.069417 
L 190.976893 43.34714 
L 193.556758 43.639323 
L 196.136623 43.946781 
L 198.716488 44.270371 
L 201.296353 44.611001 
L 203.876218 44.969628 
L 206.456083 45.347264 
L 209.035949 45.744977 
L 211.615814 46.163897 
L 214.195679 46.605214 
L 216.775544 47.070188 
L 219.355409 47.560149 
L 221.935274 48.076501 
L 224.515139 48.620727 
L 227.095004 49.194395 
L 229.674869 49.799158 
L 232.254735 50.436766 
L 234.8346 51.109064 
L 237.414465 51.818003 
L 239.99433 52.565641 
L 242.574195 53.354154 
L 245.15406 54.185839 
L 247.733925 55.063123 
L 250.31379 55.98857 
L 252.893655 56.964887 
L 255.47352 57.994932 
L 258.053386 59.081726 
L 260.633251 60.228459 
L 263.213116 61.438499 
L 265.792981 62.715406 
L 268.372846 64.062937 
L 270.952711 65.485064 
L 273.532576 66.985977 
L 276.112441 68.570107 
L 278.692306 70.24213 
L 281.272171 72.006987 
L 283.852037 73.869897 
L 286.431902 75.83637 
L 289.011767 77.912228 
L 291.591632 80.103619 
L 294.171497 82.417038 
L 296.751362 84.859343 
L 299.331227 87.437779 
L 301.911092 90.159998 
L 304.490957 93.034081 
L 307.070822 96.068566 
L 309.650688 99.272468 
L 312.230553 102.65531 
L 314.810418 106.22715 
L 317.390283 109.998611 
L 319.970148 113.980914 
L 322.550013 118.185911 
L 325.129878 122.626118 
L 327.709743 127.314757 
L 330.289608 132.265792 
" clip-path="url(#p9d4e841072)" style="fill: none; stroke-dasharray: 1.5,2.475; stroke-dashoffset: 0; stroke: #000000; stroke-width: 1.5"/>
   </g>
   <g id="LineCollection_1">
    <path clip-path="url(#p9d4e841072)" style="fill: none; stroke: #006400; stroke-width: 1.5"/>
    <path clip-path="url(#p9d4e841072)" style="fill: none; stroke: #006400; stroke-width: 1.5"/>
    <path clip-path="url(#p9d4e841072)" style="fill: none; stroke: #006400; stroke-width: 1.5"/>
    <path clip-path="url(#p9d4e841072)" style="fill: none; stroke: #006400; stroke-width: 1.5"/>
    <path d="M 73.593031 39.306139 
L 73.593031 36.821663 
" clip-path="url(#p9d4e841072)" style="fill: none; stroke: #006400; stroke-width: 1.5"/>
    <path d="M 87.171269 41.518702 
L 87.171269 39.240898 
" clip-path="url(#p9d4e841072)" style="fill: none; stroke: #006400; stroke-width: 1.5"/>
    <path d="M 100.749505 35.426511 
L 100.749505 32.844584 
" clip-path="url(#p9d4e841072)" style="fill: none; stroke: #006400; stroke-width: 1.5"/>
    <path d="M 114.327742 37.704887 
L 114.327742 35.345091 
" clip-path="url(#p9d4e841072)" style="fill: none; stroke: #006400; stroke-width: 1.5"/>
    <path d="M 127.905981 40.601303 
L 127.905981 38.158744 
" clip-path="url(#p9d4e841072)" style="fill: none; stroke: #006400; stroke-width: 1.5"/>
    <path d="M 141.484219 43.529058 
L 141.484219 41.070881 
" clip-path="url(#p9d4e841072)" style="fill: none; stroke: #006400; stroke-width: 1.5"/>
    <path d="M 155.062455 43.182765 
L 155.062455 40.537629 
" clip-path="url(#p9d4e841072)" style="fill: none; stroke: #006400; stroke-width: 1.5"/>
    <path d="M 168.640692 44.378022 
L 168.640692 41.566106 
" clip-path="url(#p9d4e841072)" style="fill: none; stroke: #006400; stroke-width: 1.5"/>
    <path d="M 182.218931 44.393756 
L 182.218931 41.274324 
" clip-path="url(#p9d4e841072)" style="fill: none; stroke: #006400; stroke-width: 1.5"/>
    <path d="M 195.797168 44.707342 
L 195.797168 41.371235 
" clip-path="url(#p9d4e841072)" style="fill: none; stroke: #006400; stroke-width: 1.5"/>
    <path d="M 209.375404 48.147667 
L 209.375404 44.028115 
" clip-path="url(#p9d4e841072)" style="fill: none; stroke: #006400; stroke-width: 1.5"/>
    <path d="M 222.953642 49.861111 
L 222.953642 45.20457 
" clip-path="url(#p9d4e841072)" style="fill: none; stroke: #006400; stroke-width: 1.5"/>
    <path d="M 236.53188 53.770804 
L 236.53188 48.151339 
" clip-path="url(#p9d4e841072)" style="fill: none; stroke: #006400; stroke-width: 1.5"/>
    <path d="M 250.110119 62.92368 
L 250.110119 54.222906 
" clip-path="url(#p9d4e841072)" style="fill: none; stroke: #006400; stroke-width: 1.5"/>
    <path d="M 263.688356 89.017371 
L 263.688356 64.530221 
" clip-path="url(#p9d4e841072)" style="fill: none; stroke: #006400; stroke-width: 1.5"/>
    <path clip-path="url(#p9d4e841072)" style="fill: none; stroke: #006400; stroke-width: 1.5"/>
    <path d="M 290.844829 90.282145 
L 290.844829 64.487164 
" clip-path="url(#p9d4e841072)" style="fill: none; stroke: #006400; stroke-width: 1.5"/>
    <path d="M 304.423067 361 
L 304.423067 122.699696 
" clip-path="url(#p9d4e841072)" style="fill: none; stroke: #006400; stroke-width: 1.5"/>
    <path clip-path="url(#p9d4e841072)" style="fill: none; stroke: #006400; stroke-width: 1.5"/>
    <path clip-path="url(#p9d4e841072)" style="fill: none; stroke: #006400; stroke-width: 1.5"/>
   </g>
   <g id="LineCollection_2">
    <path clip-path="url(#p9d4e841072)" style="fill: none; stroke: #8b0000; stroke-width: 1.5"/>
    <path clip-path="url(#p9d4e841072)" style="fill: none; stroke: #8b0000; stroke-width: 1.5"/>
    <path clip-path="url(#p9d4e841072)" style="fill: none; stroke: #8b0000; stroke-width: 1.5"/>
    <path clip-path="url(#p9d4e841072)" style="fill: none; stroke: #8b0000; stroke-width: 1.5"/>
    <path d="M 75.894737 37.468116 
L 75.894737 35.904229 
" clip-path="url(#p9d4e841072)" style="fill: none; stroke: #8b0000; stroke-width: 1.5"/>
    <path d="M 89.472975 38.902368 
L 89.472975 37.429515 
" clip-path="url(#p9d4e841072)" style="fill: none; stroke: #8b0000; stroke-width: 1.5"/>
    <path d="M 103.051212 39.519735 
L 103.051212 38.102262 
" clip-path="url(#p9d4e841072)" style="fill: none; stroke: #8b0000; stroke-width: 1.5"/>
    <path d="M 116.629449 39.430341 
L 116.629449 38.040674 
" clip-path="url(#p9d4e841072)" style="fill: none; stroke: #8b0000; stroke-width: 1.5"/>
    <path d="M 130.207688 41.006287 
L 130.207688 39.440365 
" clip-path="url(#p9d4e841072)" style="fill: none; stroke: #8b0000; stroke-width: 1.5"/>
    <path d="M 143.785925 41.962465 
L 143.785925 40.27687 
" clip-path="url(#p9d4e841072)" style="fill: none; stroke: #8b0000; stroke-width: 1.5"/>
    <path d="M 157.364161 41.891466 
L 157.364161 40.083973 
" clip-path="url(#p9d4e841072)" style="fill: none; stroke: #8b0000; stroke-width: 1.5"/>
    <path d="M 170.942399 42.467395 
L 170.942399 40.477389 
" clip-path="url(#p9d4e841072)" style="fill: none; stroke: #8b0000; stroke-width: 1.5"/>
    <path d="M 184.520638 43.106798 
L 184.520638 40.869583 
" clip-path="url(#p9d4e841072)" style="fill: none; stroke: #8b0000; stroke-width: 1.5"/>
    <path d="M 198.098874 42.620064 
L 198.098874 40.154805 
" clip-path="url(#p9d4e841072)" style="fill: none; stroke: #8b0000; stroke-width: 1.5"/>
    <path d="M 211.67711 46.703921 
L 211.67711 43.426179 
" clip-path="url(#p9d4e841072)" style="fill: none; stroke: #8b0000; stroke-width: 1.5"/>
    <path d="M 225.255348 48.016622 
L 225.255348 44.186072 
" clip-path="url(#p9d4e841072)" style="fill: none; stroke: #8b0000; stroke-width: 1.5"/>
    <path d="M 238.833587 51.764896 
L 238.833587 46.914471 
" clip-path="url(#p9d4e841072)" style="fill: none; stroke: #8b0000; stroke-width: 1.5"/>
    <path d="M 252.411825 63.396512 
L 252.411825 55.281864 
" clip-path="url(#p9d4e841072)" style="fill: none; stroke: #8b0000; stroke-width: 1.5"/>
    <path d="M 265.990063 89.445949 
L 265.990063 65.276243 
" clip-path="url(#p9d4e841072)" style="fill: none; stroke: #8b0000; stroke-width: 1.5"/>
    <path clip-path="url(#p9d4e841072)" style="fill: none; stroke: #8b0000; stroke-width: 1.5"/>
    <path d="M 293.146536 91.471702 
L 293.146536 65.661798 
" clip-path="url(#p9d4e841072)" style="fill: none; stroke: #8b0000; stroke-width: 1.5"/>
    <path d="M 306.724773 361 
L 306.724773 80.12133 
" clip-path="url(#p9d4e841072)" style="fill: none; stroke: #8b0000; stroke-width: 1.5"/>
    <path clip-path="url(#p9d4e841072)" style="fill: none; stroke: #8b0000; stroke-width: 1.5"/>
    <path clip-path="url(#p9d4e841072)" style="fill: none; stroke: #8b0000; stroke-width: 1.5"/>
   </g>
   <g id="LineCollection_3">
    <path clip-path="url(#p9d4e841072)" style="fill: none; stroke: #1f77b4; stroke-width: 1.5"/>
    <path clip-path="url(#p9d4e841072)" style="fill: none; stroke: #1f77b4; stroke-width: 1.5"/>
    <path clip-path="url(#p9d4e841072)" style="fill: none; stroke: #1f77b4; stroke-width: 1.5"/>
    <path clip-path="url(#p9d4e841072)" style="fill: none; stroke: #1f77b4; stroke-width: 1.5"/>
    <path d="M 78.089348 39.419821 
L 78.089348 36.463705 
" clip-path="url(#p9d4e841072)" style="fill: none; stroke: #1f77b4; stroke-width: 1.5"/>
    <path d="M 91.667586 39.655722 
L 91.667586 36.817038 
" clip-path="url(#p9d4e841072)" style="fill: none; stroke: #1f77b4; stroke-width: 1.5"/>
    <path d="M 105.245823 39.984372 
L 105.245823 37.07217 
" clip-path="url(#p9d4e841072)" style="fill: none; stroke: #1f77b4; stroke-width: 1.5"/>
    <path d="M 118.82406 40.269208 
L 118.82406 37.461788 
" clip-path="url(#p9d4e841072)" style="fill: none; stroke: #1f77b4; stroke-width: 1.5"/>
    <path d="M 132.402299 40.744588 
L 132.402299 37.929213 
" clip-path="url(#p9d4e841072)" style="fill: none; stroke: #1f77b4; stroke-width: 1.5"/>
    <path d="M 145.980536 41.170216 
L 145.980536 38.330196 
" clip-path="url(#p9d4e841072)" style="fill: none; stroke: #1f77b4; stroke-width: 1.5"/>
    <path d="M 159.558772 41.978978 
L 159.558772 38.926747 
" clip-path="url(#p9d4e841072)" style="fill: none; stroke: #1f77b4; stroke-width: 1.5"/>
    <path d="M 173.13701 42.912985 
L 173.13701 39.811362 
" clip-path="url(#p9d4e841072)" style="fill: none; stroke: #1f77b4; stroke-width: 1.5"/>
    <path d="M 186.715249 44.040715 
L 186.715249 40.99165 
" clip-path="url(#p9d4e841072)" style="fill: none; stroke: #1f77b4; stroke-width: 1.5"/>
    <path d="M 200.293485 45.828477 
L 200.293485 42.019339 
" clip-path="url(#p9d4e841072)" style="fill: none; stroke: #1f77b4; stroke-width: 1.5"/>
    <path d="M 213.871721 47.951644 
L 213.871721 43.695791 
" clip-path="url(#p9d4e841072)" style="fill: none; stroke: #1f77b4; stroke-width: 1.5"/>
    <path d="M 227.449959 50.834788 
L 227.449959 46.002577 
" clip-path="url(#p9d4e841072)" style="fill: none; stroke: #1f77b4; stroke-width: 1.5"/>
    <path d="M 241.028198 55.10598 
L 241.028198 48.839144 
" clip-path="url(#p9d4e841072)" style="fill: none; stroke: #1f77b4; stroke-width: 1.5"/>
    <path d="M 254.606436 60.488765 
L 254.606436 52.364324 
" clip-path="url(#p9d4e841072)" style="fill: none; stroke: #1f77b4; stroke-width: 1.5"/>
    <path d="M 268.184674 69.836392 
L 268.184674 56.985316 
" clip-path="url(#p9d4e841072)" style="fill: none; stroke: #1f77b4; stroke-width: 1.5"/>
    <path d="M 281.76291 87.79763 
L 281.76291 62.471295 
" clip-path="url(#p9d4e841072)" style="fill: none; stroke: #1f77b4; stroke-width: 1.5"/>
    <path clip-path="url(#p9d4e841072)" style="fill: none; stroke: #1f77b4; stroke-width: 1.5"/>
    <path d="M 308.919384 361 
L 308.919384 60.940653 
" clip-path="url(#p9d4e841072)" style="fill: none; stroke: #1f77b4; stroke-width: 1.5"/>
    <path clip-path="url(#p9d4e841072)" style="fill: none; stroke: #1f77b4; stroke-width: 1.5"/>
    <path d="M 336.075859 361 
L 336.075859 37.871773 
" clip-path="url(#p9d4e841072)" style="fill: none; stroke: #1f77b4; stroke-width: 1.5"/>
   </g>
   <g id="line2d_79">
    <defs>
     <path id="m113b0a08b3" d="M -3 3 
L 3 -3 
M -3 -3 
L 3 3 
" style="stroke: #006400"/>
    </defs>
    <g clip-path="url(#p9d4e841072)">
     <use xlink:href="#m113b0a08b3" x="73.593031" y="38.001724" style="fill: #006400; stroke: #006400"/>
     <use xlink:href="#m113b0a08b3" x="87.171269" y="40.327523" style="fill: #006400; stroke: #006400"/>
     <use xlink:href="#m113b0a08b3" x="100.749505" y="34.068406" style="fill: #006400; stroke: #006400"/>
     <use xlink:href="#m113b0a08b3" x="114.327742" y="36.468886" style="fill: #006400; stroke: #006400"/>
     <use xlink:href="#m113b0a08b3" x="127.905981" y="39.319924" style="fill: #006400; stroke: #006400"/>
     <use xlink:href="#m113b0a08b3" x="141.484219" y="42.2391" style="fill: #006400; stroke: #006400"/>
     <use xlink:href="#m113b0a08b3" x="155.062455" y="41.789734" style="fill: #006400; stroke: #006400"/>
     <use xlink:href="#m113b0a08b3" x="168.640692" y="42.892455" style="fill: #006400; stroke: #006400"/>
     <use xlink:href="#m113b0a08b3" x="182.218931" y="42.736115" style="fill: #006400; stroke: #006400"/>
     <use xlink:href="#m113b0a08b3" x="195.797168" y="42.927329" style="fill: #006400; stroke: #006400"/>
     <use xlink:href="#m113b0a08b3" x="209.375404" y="45.917442" style="fill: #006400; stroke: #006400"/>
     <use xlink:href="#m113b0a08b3" x="222.953642" y="47.315333" style="fill: #006400; stroke: #006400"/>
     <use xlink:href="#m113b0a08b3" x="236.53188" y="50.645143" style="fill: #006400; stroke: #006400"/>
     <use xlink:href="#m113b0a08b3" x="250.110119" y="57.824653" style="fill: #006400; stroke: #006400"/>
     <use xlink:href="#m113b0a08b3" x="263.688356" y="71.509955" style="fill: #006400; stroke: #006400"/>
     <use xlink:href="#m113b0a08b3" x="276.151431" y="25921" style="fill: #006400; stroke: #006400"/>
     <use xlink:href="#m113b0a08b3" x="278.381758" y="25921" style="fill: #006400; stroke: #006400"/>
     <use xlink:href="#m113b0a08b3" x="290.844829" y="71.618855" style="fill: #006400; stroke: #006400"/>
     <use xlink:href="#m113b0a08b3" x="303.307901" y="25921" style="fill: #006400; stroke: #006400"/>
    </g>
   </g>
   <g id="line2d_80">
    <defs>
     <path id="mf53a00a18b" d="M -3 3 
L 3 -3 
M -3 -3 
L 3 3 
" style="stroke: #8b0000"/>
    </defs>
    <g clip-path="url(#p9d4e841072)">
     <use xlink:href="#mf53a00a18b" x="75.894737" y="36.661512" style="fill: #8b0000; stroke: #8b0000"/>
     <use xlink:href="#mf53a00a18b" x="89.472975" y="38.144066" style="fill: #8b0000; stroke: #8b0000"/>
     <use xlink:href="#mf53a00a18b" x="103.051212" y="38.790736" style="fill: #8b0000; stroke: #8b0000"/>
     <use xlink:href="#mf53a00a18b" x="116.629449" y="38.716032" style="fill: #8b0000; stroke: #8b0000"/>
     <use xlink:href="#mf53a00a18b" x="130.207688" y="40.198601" style="fill: #8b0000; stroke: #8b0000"/>
     <use xlink:href="#mf53a00a18b" x="143.785925" y="41.091021" style="fill: #8b0000; stroke: #8b0000"/>
     <use xlink:href="#mf53a00a18b" x="157.364161" y="40.954785" style="fill: #8b0000; stroke: #8b0000"/>
     <use xlink:href="#mf53a00a18b" x="170.942399" y="41.432478" style="fill: #8b0000; stroke: #8b0000"/>
     <use xlink:href="#mf53a00a18b" x="184.520638" y="41.937758" style="fill: #8b0000; stroke: #8b0000"/>
     <use xlink:href="#mf53a00a18b" x="198.098874" y="41.326214" style="fill: #8b0000; stroke: #8b0000"/>
     <use xlink:href="#mf53a00a18b" x="211.67711" y="44.956963" style="fill: #8b0000; stroke: #8b0000"/>
     <use xlink:href="#mf53a00a18b" x="225.255348" y="45.953883" style="fill: #8b0000; stroke: #8b0000"/>
     <use xlink:href="#mf53a00a18b" x="238.833587" y="49.103803" style="fill: #8b0000; stroke: #8b0000"/>
     <use xlink:href="#mf53a00a18b" x="252.411825" y="58.68634" style="fill: #8b0000; stroke: #8b0000"/>
     <use xlink:href="#mf53a00a18b" x="265.990063" y="72.216911" style="fill: #8b0000; stroke: #8b0000"/>
     <use xlink:href="#mf53a00a18b" x="278.453109" y="25921" style="fill: #8b0000; stroke: #8b0000"/>
     <use xlink:href="#mf53a00a18b" x="280.683511" y="25921" style="fill: #8b0000; stroke: #8b0000"/>
     <use xlink:href="#mf53a00a18b" x="293.146536" y="72.795142" style="fill: #8b0000; stroke: #8b0000"/>
     <use xlink:href="#mf53a00a18b" x="305.609561" y="25921" style="fill: #8b0000; stroke: #8b0000"/>
    </g>
   </g>
   <g id="line2d_81">
    <path d="M 78.089348 37.853799 
L 91.667586 38.155251 
L 105.245823 38.442895 
L 118.82406 38.786143 
L 132.402299 39.257096 
L 145.980536 39.669001 
L 159.558772 40.3591 
L 173.13701 41.26536 
L 186.715249 42.422615 
L 200.293485 43.778081 
L 213.871721 45.641858 
L 227.449959 48.184559 
L 241.028198 51.580453 
L 254.606436 55.772148 
L 268.184674 61.814258 
L 281.76291 69.550157 
" clip-path="url(#p9d4e841072)" style="fill: none; stroke: #1f77b4; stroke-width: 1.5; stroke-linecap: square"/>
   </g>
   <g id="patch_3">
    <path d="M 60.468889 188.340851 
L 60.468889 25.44 
" style="fill: none; stroke: #000000; stroke-width: 0.8; stroke-linejoin: miter; stroke-linecap: square"/>
   </g>
   <g id="patch_4">
    <path d="M 349.2 188.340851 
L 349.2 25.44 
" style="fill: none; stroke: #000000; stroke-width: 0.8; stroke-linejoin: miter; stroke-linecap: square"/>
   </g>
   <g id="patch_5">
    <path d="M 60.468889 188.340851 
L 349.2 188.340851 
" style="fill: none; stroke: #000000; stroke-width: 0.8; stroke-linejoin: miter; stroke-linecap: square"/>
   </g>
   <g id="patch_6">
    <path d="M 60.468889 25.44 
L 349.2 25.44 
" style="fill: none; stroke: #000000; stroke-width: 0.8; stroke-linejoin: miter; stroke-linecap: square"/>
   </g>
   <g id="text_7">
    <!-- N = 400; (p=0.082) -->
    <g transform="translate(145.427882 19.44) scale(0.12 -0.12)">
     <defs>
      <path id="DejaVuSans-4e" d="M 628 4666 
L 1478 4666 
L 3547 763 
L 3547 4666 
L 4159 4666 
L 4159 0 
L 3309 0 
L 1241 3903 
L 1241 0 
L 628 0 
L 628 4666 
z
" transform="scale(0.015625)"/>
      <path id="DejaVuSans-3d" d="M 678 2906 
L 4684 2906 
L 4684 2381 
L 678 2381 
L 678 2906 
z
M 678 1631 
L 4684 1631 
L 4684 1100 
L 678 1100 
L 678 1631 
z
" transform="scale(0.015625)"/>
      <path id="DejaVuSans-3b" d="M 750 3309 
L 1409 3309 
L 1409 2516 
L 750 2516 
L 750 3309 
z
M 750 794 
L 1409 794 
L 1409 256 
L 897 -744 
L 494 -744 
L 750 256 
L 750 794 
z
" transform="scale(0.015625)"/>
      <path id="DejaVuSans-70" d="M 1159 525 
L 1159 -1331 
L 581 -1331 
L 581 3500 
L 1159 3500 
L 1159 2969 
Q 1341 3281 1617 3432 
Q 1894 3584 2278 3584 
Q 2916 3584 3314 3078 
Q 3713 2572 3713 1747 
Q 3713 922 3314 415 
Q 2916 -91 2278 -91 
Q 1894 -91 1617 61 
Q 1341 213 1159 525 
z
M 3116 1747 
Q 3116 2381 2855 2742 
Q 2594 3103 2138 3103 
Q 1681 3103 1420 2742 
Q 1159 2381 1159 1747 
Q 1159 1113 1420 752 
Q 1681 391 2138 391 
Q 2594 391 2855 752 
Q 3116 1113 3116 1747 
z
" transform="scale(0.015625)"/>
      <path id="DejaVuSans-2e" d="M 684 794 
L 1344 794 
L 1344 0 
L 684 0 
L 684 794 
z
" transform="scale(0.015625)"/>
      <path id="DejaVuSans-38" d="M 2034 2216 
Q 1584 2216 1326 1975 
Q 1069 1734 1069 1313 
Q 1069 891 1326 650 
Q 1584 409 2034 409 
Q 2484 409 2743 651 
Q 3003 894 3003 1313 
Q 3003 1734 2745 1975 
Q 2488 2216 2034 2216 
z
M 1403 2484 
Q 997 2584 770 2862 
Q 544 3141 544 3541 
Q 544 4100 942 4425 
Q 1341 4750 2034 4750 
Q 2731 4750 3128 4425 
Q 3525 4100 3525 3541 
Q 3525 3141 3298 2862 
Q 3072 2584 2669 2484 
Q 3125 2378 3379 2068 
Q 3634 1759 3634 1313 
Q 3634 634 3220 271 
Q 2806 -91 2034 -91 
Q 1263 -91 848 271 
Q 434 634 434 1313 
Q 434 1759 690 2068 
Q 947 2378 1403 2484 
z
M 1172 3481 
Q 1172 3119 1398 2916 
Q 1625 2713 2034 2713 
Q 2441 2713 2670 2916 
Q 2900 3119 2900 3481 
Q 2900 3844 2670 4047 
Q 2441 4250 2034 4250 
Q 1625 4250 1398 4047 
Q 1172 3844 1172 3481 
z
" transform="scale(0.015625)"/>
     </defs>
     <use xlink:href="#DejaVuSans-4e"/>
     <use xlink:href="#DejaVuSans-20" x="74.804688"/>
     <use xlink:href="#DejaVuSans-3d" x="106.591797"/>
     <use xlink:href="#DejaVuSans-20" x="190.380859"/>
     <use xlink:href="#DejaVuSans-34" x="222.167969"/>
     <use xlink:href="#DejaVuSans-30" x="285.791016"/>
     <use xlink:href="#DejaVuSans-30" x="349.414062"/>
     <use xlink:href="#DejaVuSans-3b" x="413.037109"/>
     <use xlink:href="#DejaVuSans-20" x="446.728516"/>
     <use xlink:href="#DejaVuSans-28" x="478.515625"/>
     <use xlink:href="#DejaVuSans-70" x="517.529297"/>
     <use xlink:href="#DejaVuSans-3d" x="581.005859"/>
     <use xlink:href="#DejaVuSans-30" x="664.794922"/>
     <use xlink:href="#DejaVuSans-2e" x="728.417969"/>
     <use xlink:href="#DejaVuSans-30" x="760.205078"/>
     <use xlink:href="#DejaVuSans-38" x="823.828125"/>
     <use xlink:href="#DejaVuSans-32" x="887.451172"/>
     <use xlink:href="#DejaVuSans-29" x="951.074219"/>
    </g>
   </g>
   <g id="legend_1">
    <g id="patch_7">
     <path d="M 67.468889 183.340851 
L 200.068889 183.340851 
Q 202.068889 183.340851 202.068889 181.340851 
L 202.068889 123.608038 
Q 202.068889 121.608038 200.068889 121.608038 
L 67.468889 121.608038 
Q 65.468889 121.608038 65.468889 123.608038 
L 65.468889 181.340851 
Q 65.468889 183.340851 67.468889 183.340851 
z
" style="fill: #ffffff; opacity: 0.8; stroke: #cccccc; stroke-linejoin: miter"/>
    </g>
    <g id="line2d_82">
     <path d="M 69.468889 129.706476 
L 79.468889 129.706476 
L 89.468889 129.706476 
" style="fill: none; stroke-dasharray: 1.5,2.475; stroke-dashoffset: 0; stroke: #000000; stroke-width: 1.5"/>
    </g>
    <g id="text_8">
     <!-- Input -->
     <g transform="translate(97.468889 133.206476) scale(0.1 -0.1)">
      <defs>
       <path id="DejaVuSans-49" d="M 628 4666 
L 1259 4666 
L 1259 0 
L 628 0 
L 628 4666 
z
" transform="scale(0.015625)"/>
       <path id="DejaVuSans-75" d="M 544 1381 
L 544 3500 
L 1119 3500 
L 1119 1403 
Q 1119 906 1312 657 
Q 1506 409 1894 409 
Q 2359 409 2629 706 
Q 2900 1003 2900 1516 
L 2900 3500 
L 3475 3500 
L 3475 0 
L 2900 0 
L 2900 538 
Q 2691 219 2414 64 
Q 2138 -91 1772 -91 
Q 1169 -91 856 284 
Q 544 659 544 1381 
z
M 1991 3584 
L 1991 3584 
z
" transform="scale(0.015625)"/>
       <path id="DejaVuSans-74" d="M 1172 4494 
L 1172 3500 
L 2356 3500 
L 2356 3053 
L 1172 3053 
L 1172 1153 
Q 1172 725 1289 603 
Q 1406 481 1766 481 
L 2356 481 
L 2356 0 
L 1766 0 
Q 1100 0 847 248 
Q 594 497 594 1153 
L 594 3053 
L 172 3053 
L 172 3500 
L 594 3500 
L 594 4494 
L 1172 4494 
z
" transform="scale(0.015625)"/>
      </defs>
      <use xlink:href="#DejaVuSans-49"/>
      <use xlink:href="#DejaVuSans-6e" x="29.492188"/>
      <use xlink:href="#DejaVuSans-70" x="92.871094"/>
      <use xlink:href="#DejaVuSans-75" x="156.347656"/>
      <use xlink:href="#DejaVuSans-74" x="219.726562"/>
     </g>
    </g>
    <g id="LineCollection_4">
     <path d="M 79.468889 149.384601 
L 79.468889 139.384601 
" style="fill: none; stroke: #006400; stroke-width: 1.5"/>
    </g>
    <g id="line2d_83"/>
    <g id="line2d_84">
     <g>
      <use xlink:href="#m113b0a08b3" x="79.468889" y="144.384601" style="fill: #006400; stroke: #006400"/>
     </g>
    </g>
    <g id="text_9">
     <!-- Fluxpoints Nuisance -->
     <g transform="translate(97.468889 147.884601) scale(0.1 -0.1)">
      <defs>
       <path id="DejaVuSans-46" d="M 628 4666 
L 3309 4666 
L 3309 4134 
L 1259 4134 
L 1259 2759 
L 3109 2759 
L 3109 2228 
L 1259 2228 
L 1259 0 
L 628 0 
L 628 4666 
z
" transform="scale(0.015625)"/>
       <path id="DejaVuSans-6c" d="M 603 4863 
L 1178 4863 
L 1178 0 
L 603 0 
L 603 4863 
z
" transform="scale(0.015625)"/>
       <path id="DejaVuSans-78" d="M 3513 3500 
L 2247 1797 
L 3578 0 
L 2900 0 
L 1881 1375 
L 863 0 
L 184 0 
L 1544 1831 
L 300 3500 
L 978 3500 
L 1906 2253 
L 2834 3500 
L 3513 3500 
z
" transform="scale(0.015625)"/>
       <path id="DejaVuSans-6f" d="M 1959 3097 
Q 1497 3097 1228 2736 
Q 959 2375 959 1747 
Q 959 1119 1226 758 
Q 1494 397 1959 397 
Q 2419 397 2687 759 
Q 2956 1122 2956 1747 
Q 2956 2369 2687 2733 
Q 2419 3097 1959 3097 
z
M 1959 3584 
Q 2709 3584 3137 3096 
Q 3566 2609 3566 1747 
Q 3566 888 3137 398 
Q 2709 -91 1959 -91 
Q 1206 -91 779 398 
Q 353 888 353 1747 
Q 353 2609 779 3096 
Q 1206 3584 1959 3584 
z
" transform="scale(0.015625)"/>
       <path id="DejaVuSans-69" d="M 603 3500 
L 1178 3500 
L 1178 0 
L 603 0 
L 603 3500 
z
M 603 4863 
L 1178 4863 
L 1178 4134 
L 603 4134 
L 603 4863 
z
" transform="scale(0.015625)"/>
       <path id="DejaVuSans-61" d="M 2194 1759 
Q 1497 1759 1228 1600 
Q 959 1441 959 1056 
Q 959 750 1161 570 
Q 1363 391 1709 391 
Q 2188 391 2477 730 
Q 2766 1069 2766 1631 
L 2766 1759 
L 2194 1759 
z
M 3341 1997 
L 3341 0 
L 2766 0 
L 2766 531 
Q 2569 213 2275 61 
Q 1981 -91 1556 -91 
Q 1019 -91 701 211 
Q 384 513 384 1019 
Q 384 1609 779 1909 
Q 1175 2209 1959 2209 
L 2766 2209 
L 2766 2266 
Q 2766 2663 2505 2880 
Q 2244 3097 1772 3097 
Q 1472 3097 1187 3025 
Q 903 2953 641 2809 
L 641 3341 
Q 956 3463 1253 3523 
Q 1550 3584 1831 3584 
Q 2591 3584 2966 3190 
Q 3341 2797 3341 1997 
z
" transform="scale(0.015625)"/>
      </defs>
      <use xlink:href="#DejaVuSans-46"/>
      <use xlink:href="#DejaVuSans-6c" x="57.519531"/>
      <use xlink:href="#DejaVuSans-75" x="85.302734"/>
      <use xlink:href="#DejaVuSans-78" x="148.681641"/>
      <use xlink:href="#DejaVuSans-70" x="207.861328"/>
      <use xlink:href="#DejaVuSans-6f" x="271.337891"/>
      <use xlink:href="#DejaVuSans-69" x="332.519531"/>
      <use xlink:href="#DejaVuSans-6e" x="360.302734"/>
      <use xlink:href="#DejaVuSans-74" x="423.681641"/>
      <use xlink:href="#DejaVuSans-73" x="462.890625"/>
      <use xlink:href="#DejaVuSans-20" x="514.990234"/>
      <use xlink:href="#DejaVuSans-4e" x="546.777344"/>
      <use xlink:href="#DejaVuSans-75" x="621.582031"/>
      <use xlink:href="#DejaVuSans-69" x="684.960938"/>
      <use xlink:href="#DejaVuSans-73" x="712.744141"/>
      <use xlink:href="#DejaVuSans-61" x="764.84375"/>
      <use xlink:href="#DejaVuSans-6e" x="826.123047"/>
      <use xlink:href="#DejaVuSans-63" x="889.501953"/>
      <use xlink:href="#DejaVuSans-65" x="944.482422"/>
     </g>
    </g>
    <g id="LineCollection_5">
     <path d="M 79.468889 164.062726 
L 79.468889 154.062726 
" style="fill: none; stroke: #8b0000; stroke-width: 1.5"/>
    </g>
    <g id="line2d_85"/>
    <g id="line2d_86">
     <g>
      <use xlink:href="#mf53a00a18b" x="79.468889" y="159.062726" style="fill: #8b0000; stroke: #8b0000"/>
     </g>
    </g>
    <g id="text_10">
     <!-- Fluxpoints Standard -->
     <g transform="translate(97.468889 162.562726) scale(0.1 -0.1)">
      <defs>
       <path id="DejaVuSans-53" d="M 3425 4513 
L 3425 3897 
Q 3066 4069 2747 4153 
Q 2428 4238 2131 4238 
Q 1616 4238 1336 4038 
Q 1056 3838 1056 3469 
Q 1056 3159 1242 3001 
Q 1428 2844 1947 2747 
L 2328 2669 
Q 3034 2534 3370 2195 
Q 3706 1856 3706 1288 
Q 3706 609 3251 259 
Q 2797 -91 1919 -91 
Q 1588 -91 1214 -16 
Q 841 59 441 206 
L 441 856 
Q 825 641 1194 531 
Q 1563 422 1919 422 
Q 2459 422 2753 634 
Q 3047 847 3047 1241 
Q 3047 1584 2836 1778 
Q 2625 1972 2144 2069 
L 1759 2144 
Q 1053 2284 737 2584 
Q 422 2884 422 3419 
Q 422 4038 858 4394 
Q 1294 4750 2059 4750 
Q 2388 4750 2728 4690 
Q 3069 4631 3425 4513 
z
" transform="scale(0.015625)"/>
       <path id="DejaVuSans-72" d="M 2631 2963 
Q 2534 3019 2420 3045 
Q 2306 3072 2169 3072 
Q 1681 3072 1420 2755 
Q 1159 2438 1159 1844 
L 1159 0 
L 581 0 
L 581 3500 
L 1159 3500 
L 1159 2956 
Q 1341 3275 1631 3429 
Q 1922 3584 2338 3584 
Q 2397 3584 2469 3576 
Q 2541 3569 2628 3553 
L 2631 2963 
z
" transform="scale(0.015625)"/>
      </defs>
      <use xlink:href="#DejaVuSans-46"/>
      <use xlink:href="#DejaVuSans-6c" x="57.519531"/>
      <use xlink:href="#DejaVuSans-75" x="85.302734"/>
      <use xlink:href="#DejaVuSans-78" x="148.681641"/>
      <use xlink:href="#DejaVuSans-70" x="207.861328"/>
      <use xlink:href="#DejaVuSans-6f" x="271.337891"/>
      <use xlink:href="#DejaVuSans-69" x="332.519531"/>
      <use xlink:href="#DejaVuSans-6e" x="360.302734"/>
      <use xlink:href="#DejaVuSans-74" x="423.681641"/>
      <use xlink:href="#DejaVuSans-73" x="462.890625"/>
      <use xlink:href="#DejaVuSans-20" x="514.990234"/>
      <use xlink:href="#DejaVuSans-53" x="546.777344"/>
      <use xlink:href="#DejaVuSans-74" x="610.253906"/>
      <use xlink:href="#DejaVuSans-61" x="649.462891"/>
      <use xlink:href="#DejaVuSans-6e" x="710.742188"/>
      <use xlink:href="#DejaVuSans-64" x="774.121094"/>
      <use xlink:href="#DejaVuSans-61" x="837.597656"/>
      <use xlink:href="#DejaVuSans-72" x="898.876953"/>
      <use xlink:href="#DejaVuSans-64" x="938.240234"/>
     </g>
    </g>
    <g id="LineCollection_6">
     <path d="M 79.468889 178.740851 
L 79.468889 168.740851 
" style="fill: none; stroke: #1f77b4; stroke-width: 1.5"/>
    </g>
    <g id="line2d_87">
     <path d="M 69.468889 173.740851 
L 89.468889 173.740851 
" style="fill: none; stroke: #1f77b4; stroke-width: 1.5; stroke-linecap: square"/>
    </g>
    <g id="line2d_88"/>
    <g id="text_11">
     <!-- $\mu$, $\sigma$ -->
     <g transform="translate(97.468889 177.240851) scale(0.1 -0.1)">
      <defs>
       <path id="DejaVuSans-Oblique-3bc" d="M -84 -1331 
L 856 3500 
L 1434 3500 
L 1009 1322 
Q 997 1256 987 1175 
Q 978 1094 978 1013 
Q 978 722 1161 565 
Q 1344 409 1684 409 
Q 2147 409 2431 671 
Q 2716 934 2816 1459 
L 3213 3500 
L 3788 3500 
L 3266 809 
Q 3253 750 3248 706 
Q 3244 663 3244 628 
Q 3244 531 3283 486 
Q 3322 441 3406 441 
Q 3438 441 3492 456 
Q 3547 472 3647 513 
L 3559 50 
Q 3422 -19 3297 -55 
Q 3172 -91 3053 -91 
Q 2847 -91 2730 40 
Q 2613 172 2613 403 
Q 2438 153 2195 31 
Q 1953 -91 1625 -91 
Q 1334 -91 1117 43 
Q 900 178 831 397 
L 494 -1331 
L -84 -1331 
z
" transform="scale(0.015625)"/>
       <path id="DejaVuSans-2c" d="M 750 794 
L 1409 794 
L 1409 256 
L 897 -744 
L 494 -744 
L 750 256 
L 750 794 
z
" transform="scale(0.015625)"/>
       <path id="DejaVuSans-Oblique-3c3" d="M 2219 3044 
Q 1744 3044 1422 2700 
Q 1081 2341 969 1747 
Q 844 1119 1044 756 
Q 1241 397 1706 397 
Q 2166 397 2503 759 
Q 2844 1122 2966 1747 
Q 3075 2319 2881 2700 
Q 2700 3044 2219 3044 
z
M 2309 3503 
L 4219 3500 
L 4106 2925 
L 3463 2925 
Q 3706 2438 3575 1747 
Q 3406 888 2884 400 
Q 2359 -91 1609 -91 
Q 856 -91 525 400 
Q 194 888 363 1747 
Q 528 2609 1050 3097 
Q 1484 3503 2309 3503 
z
" transform="scale(0.015625)"/>
      </defs>
      <use xlink:href="#DejaVuSans-Oblique-3bc" transform="translate(0 0.265625)"/>
      <use xlink:href="#DejaVuSans-2c" transform="translate(63.623047 0.265625)"/>
      <use xlink:href="#DejaVuSans-20" transform="translate(95.410156 0.265625)"/>
      <use xlink:href="#DejaVuSans-Oblique-3c3" transform="translate(127.197266 0.265625)"/>
     </g>
    </g>
   </g>
  </g>
  <g id="axes_2">
   <g id="patch_8">
    <path d="M 60.468889 314.728 
L 349.2 314.728 
L 349.2 206.127433 
L 60.468889 206.127433 
z
" style="fill: #ffffff"/>
   </g>
   <g id="matplotlib.axis_3">
    <g id="xtick_27">
     <g id="line2d_89">
      <g>
       <use xlink:href="#mb3831cb2ba" x="121.116861" y="314.728" style="stroke: #000000; stroke-width: 0.8"/>
      </g>
     </g>
     <g id="text_12">
      <!-- $\mathdefault{10^{0}}$ -->
      <g transform="translate(112.316861 329.326437) scale(0.1 -0.1)">
       <use xlink:href="#DejaVuSans-31" transform="translate(0 0.765625)"/>
       <use xlink:href="#DejaVuSans-30" transform="translate(63.623047 0.765625)"/>
       <use xlink:href="#DejaVuSans-30" transform="translate(128.203125 39.046875) scale(0.7)"/>
      </g>
     </g>
    </g>
    <g id="xtick_28">
     <g id="line2d_90">
      <g>
       <use xlink:href="#mb3831cb2ba" x="229.742761" y="314.728" style="stroke: #000000; stroke-width: 0.8"/>
      </g>
     </g>
     <g id="text_13">
      <!-- $\mathdefault{10^{1}}$ -->
      <g transform="translate(220.942761 329.326437) scale(0.1 -0.1)">
       <use xlink:href="#DejaVuSans-31" transform="translate(0 0.684375)"/>
       <use xlink:href="#DejaVuSans-30" transform="translate(63.623047 0.684375)"/>
       <use xlink:href="#DejaVuSans-31" transform="translate(128.203125 38.965625) scale(0.7)"/>
      </g>
     </g>
    </g>
    <g id="xtick_29">
     <g id="line2d_91">
      <g>
       <use xlink:href="#mb3831cb2ba" x="338.368661" y="314.728" style="stroke: #000000; stroke-width: 0.8"/>
      </g>
     </g>
     <g id="text_14">
      <!-- $\mathdefault{10^{2}}$ -->
      <g transform="translate(329.568661 329.326437) scale(0.1 -0.1)">
       <use xlink:href="#DejaVuSans-31" transform="translate(0 0.765625)"/>
       <use xlink:href="#DejaVuSans-30" transform="translate(63.623047 0.765625)"/>
       <use xlink:href="#DejaVuSans-32" transform="translate(128.203125 39.046875) scale(0.7)"/>
      </g>
     </g>
    </g>
    <g id="xtick_30">
     <g id="line2d_92">
      <g>
       <use xlink:href="#m3f43b28f28" x="64.318687" y="314.728" style="stroke: #000000; stroke-width: 0.6"/>
      </g>
     </g>
    </g>
    <g id="xtick_31">
     <g id="line2d_93">
      <g>
       <use xlink:href="#m3f43b28f28" x="77.89027" y="314.728" style="stroke: #000000; stroke-width: 0.6"/>
      </g>
     </g>
    </g>
    <g id="xtick_32">
     <g id="line2d_94">
      <g>
       <use xlink:href="#m3f43b28f28" x="88.417207" y="314.728" style="stroke: #000000; stroke-width: 0.6"/>
      </g>
     </g>
    </g>
    <g id="xtick_33">
     <g id="line2d_95">
      <g>
       <use xlink:href="#m3f43b28f28" x="97.018341" y="314.728" style="stroke: #000000; stroke-width: 0.6"/>
      </g>
     </g>
    </g>
    <g id="xtick_34">
     <g id="line2d_96">
      <g>
       <use xlink:href="#m3f43b28f28" x="104.290497" y="314.728" style="stroke: #000000; stroke-width: 0.6"/>
      </g>
     </g>
    </g>
    <g id="xtick_35">
     <g id="line2d_97">
      <g>
       <use xlink:href="#m3f43b28f28" x="110.589924" y="314.728" style="stroke: #000000; stroke-width: 0.6"/>
      </g>
     </g>
    </g>
    <g id="xtick_36">
     <g id="line2d_98">
      <g>
       <use xlink:href="#m3f43b28f28" x="116.146413" y="314.728" style="stroke: #000000; stroke-width: 0.6"/>
      </g>
     </g>
    </g>
    <g id="xtick_37">
     <g id="line2d_99">
      <g>
       <use xlink:href="#m3f43b28f28" x="153.816515" y="314.728" style="stroke: #000000; stroke-width: 0.6"/>
      </g>
     </g>
    </g>
    <g id="xtick_38">
     <g id="line2d_100">
      <g>
       <use xlink:href="#m3f43b28f28" x="172.944587" y="314.728" style="stroke: #000000; stroke-width: 0.6"/>
      </g>
     </g>
    </g>
    <g id="xtick_39">
     <g id="line2d_101">
      <g>
       <use xlink:href="#m3f43b28f28" x="186.51617" y="314.728" style="stroke: #000000; stroke-width: 0.6"/>
      </g>
     </g>
    </g>
    <g id="xtick_40">
     <g id="line2d_102">
      <g>
       <use xlink:href="#m3f43b28f28" x="197.043107" y="314.728" style="stroke: #000000; stroke-width: 0.6"/>
      </g>
     </g>
    </g>
    <g id="xtick_41">
     <g id="line2d_103">
      <g>
       <use xlink:href="#m3f43b28f28" x="205.644241" y="314.728" style="stroke: #000000; stroke-width: 0.6"/>
      </g>
     </g>
    </g>
    <g id="xtick_42">
     <g id="line2d_104">
      <g>
       <use xlink:href="#m3f43b28f28" x="212.916396" y="314.728" style="stroke: #000000; stroke-width: 0.6"/>
      </g>
     </g>
    </g>
    <g id="xtick_43">
     <g id="line2d_105">
      <g>
       <use xlink:href="#m3f43b28f28" x="219.215824" y="314.728" style="stroke: #000000; stroke-width: 0.6"/>
      </g>
     </g>
    </g>
    <g id="xtick_44">
     <g id="line2d_106">
      <g>
       <use xlink:href="#m3f43b28f28" x="224.772312" y="314.728" style="stroke: #000000; stroke-width: 0.6"/>
      </g>
     </g>
    </g>
    <g id="xtick_45">
     <g id="line2d_107">
      <g>
       <use xlink:href="#m3f43b28f28" x="262.442415" y="314.728" style="stroke: #000000; stroke-width: 0.6"/>
      </g>
     </g>
    </g>
    <g id="xtick_46">
     <g id="line2d_108">
      <g>
       <use xlink:href="#m3f43b28f28" x="281.570486" y="314.728" style="stroke: #000000; stroke-width: 0.6"/>
      </g>
     </g>
    </g>
    <g id="xtick_47">
     <g id="line2d_109">
      <g>
       <use xlink:href="#m3f43b28f28" x="295.142069" y="314.728" style="stroke: #000000; stroke-width: 0.6"/>
      </g>
     </g>
    </g>
    <g id="xtick_48">
     <g id="line2d_110">
      <g>
       <use xlink:href="#m3f43b28f28" x="305.669006" y="314.728" style="stroke: #000000; stroke-width: 0.6"/>
      </g>
     </g>
    </g>
    <g id="xtick_49">
     <g id="line2d_111">
      <g>
       <use xlink:href="#m3f43b28f28" x="314.270141" y="314.728" style="stroke: #000000; stroke-width: 0.6"/>
      </g>
     </g>
    </g>
    <g id="xtick_50">
     <g id="line2d_112">
      <g>
       <use xlink:href="#m3f43b28f28" x="321.542296" y="314.728" style="stroke: #000000; stroke-width: 0.6"/>
      </g>
     </g>
    </g>
    <g id="xtick_51">
     <g id="line2d_113">
      <g>
       <use xlink:href="#m3f43b28f28" x="327.841723" y="314.728" style="stroke: #000000; stroke-width: 0.6"/>
      </g>
     </g>
    </g>
    <g id="xtick_52">
     <g id="line2d_114">
      <g>
       <use xlink:href="#m3f43b28f28" x="333.398212" y="314.728" style="stroke: #000000; stroke-width: 0.6"/>
      </g>
     </g>
    </g>
    <g id="text_15">
     <!-- Energy [TeV] -->
     <g transform="translate(173.136788 343.004563) scale(0.1 -0.1)">
      <defs>
       <path id="DejaVuSans-45" d="M 628 4666 
L 3578 4666 
L 3578 4134 
L 1259 4134 
L 1259 2753 
L 3481 2753 
L 3481 2222 
L 1259 2222 
L 1259 531 
L 3634 531 
L 3634 0 
L 628 0 
L 628 4666 
z
" transform="scale(0.015625)"/>
       <path id="DejaVuSans-67" d="M 2906 1791 
Q 2906 2416 2648 2759 
Q 2391 3103 1925 3103 
Q 1463 3103 1205 2759 
Q 947 2416 947 1791 
Q 947 1169 1205 825 
Q 1463 481 1925 481 
Q 2391 481 2648 825 
Q 2906 1169 2906 1791 
z
M 3481 434 
Q 3481 -459 3084 -895 
Q 2688 -1331 1869 -1331 
Q 1566 -1331 1297 -1286 
Q 1028 -1241 775 -1147 
L 775 -588 
Q 1028 -725 1275 -790 
Q 1522 -856 1778 -856 
Q 2344 -856 2625 -561 
Q 2906 -266 2906 331 
L 2906 616 
Q 2728 306 2450 153 
Q 2172 0 1784 0 
Q 1141 0 747 490 
Q 353 981 353 1791 
Q 353 2603 747 3093 
Q 1141 3584 1784 3584 
Q 2172 3584 2450 3431 
Q 2728 3278 2906 2969 
L 2906 3500 
L 3481 3500 
L 3481 434 
z
" transform="scale(0.015625)"/>
       <path id="DejaVuSans-79" d="M 2059 -325 
Q 1816 -950 1584 -1140 
Q 1353 -1331 966 -1331 
L 506 -1331 
L 506 -850 
L 844 -850 
Q 1081 -850 1212 -737 
Q 1344 -625 1503 -206 
L 1606 56 
L 191 3500 
L 800 3500 
L 1894 763 
L 2988 3500 
L 3597 3500 
L 2059 -325 
z
" transform="scale(0.015625)"/>
      </defs>
      <use xlink:href="#DejaVuSans-45"/>
      <use xlink:href="#DejaVuSans-6e" x="63.183594"/>
      <use xlink:href="#DejaVuSans-65" x="126.5625"/>
      <use xlink:href="#DejaVuSans-72" x="188.085938"/>
      <use xlink:href="#DejaVuSans-67" x="227.449219"/>
      <use xlink:href="#DejaVuSans-79" x="290.925781"/>
      <use xlink:href="#DejaVuSans-20" x="350.105469"/>
      <use xlink:href="#DejaVuSans-5b" x="381.892578"/>
      <use xlink:href="#DejaVuSans-54" x="420.90625"/>
      <use xlink:href="#DejaVuSans-65" x="464.990234"/>
      <use xlink:href="#DejaVuSans-56" x="526.513672"/>
      <use xlink:href="#DejaVuSans-5d" x="594.921875"/>
     </g>
    </g>
   </g>
   <g id="matplotlib.axis_4">
    <g id="ytick_52">
     <g id="line2d_115">
      <g>
       <use xlink:href="#m4a6a013363" x="60.468889" y="300.440612" style="stroke: #000000; stroke-width: 0.8"/>
      </g>
     </g>
     <g id="text_16">
      <!-- 0.0 -->
      <g transform="translate(37.565764 304.23983) scale(0.1 -0.1)">
       <use xlink:href="#DejaVuSans-30"/>
       <use xlink:href="#DejaVuSans-2e" x="63.623047"/>
       <use xlink:href="#DejaVuSans-30" x="95.410156"/>
      </g>
     </g>
    </g>
    <g id="ytick_53">
     <g id="line2d_116">
      <g>
       <use xlink:href="#m4a6a013363" x="60.468889" y="276.989831" style="stroke: #000000; stroke-width: 0.8"/>
      </g>
     </g>
     <g id="text_17">
      <!-- 0.2 -->
      <g transform="translate(37.565764 280.789049) scale(0.1 -0.1)">
       <use xlink:href="#DejaVuSans-30"/>
       <use xlink:href="#DejaVuSans-2e" x="63.623047"/>
       <use xlink:href="#DejaVuSans-32" x="95.410156"/>
      </g>
     </g>
    </g>
    <g id="ytick_54">
     <g id="line2d_117">
      <g>
       <use xlink:href="#m4a6a013363" x="60.468889" y="253.539049" style="stroke: #000000; stroke-width: 0.8"/>
      </g>
     </g>
     <g id="text_18">
      <!-- 0.4 -->
      <g transform="translate(37.565764 257.338268) scale(0.1 -0.1)">
       <use xlink:href="#DejaVuSans-30"/>
       <use xlink:href="#DejaVuSans-2e" x="63.623047"/>
       <use xlink:href="#DejaVuSans-34" x="95.410156"/>
      </g>
     </g>
    </g>
    <g id="ytick_55">
     <g id="line2d_118">
      <g>
       <use xlink:href="#m4a6a013363" x="60.468889" y="230.088268" style="stroke: #000000; stroke-width: 0.8"/>
      </g>
     </g>
     <g id="text_19">
      <!-- 0.6 -->
      <g transform="translate(37.565764 233.887487) scale(0.1 -0.1)">
       <use xlink:href="#DejaVuSans-30"/>
       <use xlink:href="#DejaVuSans-2e" x="63.623047"/>
       <use xlink:href="#DejaVuSans-36" x="95.410156"/>
      </g>
     </g>
    </g>
    <g id="ytick_56">
     <g id="line2d_119">
      <g>
       <use xlink:href="#m4a6a013363" x="60.468889" y="206.637487" style="stroke: #000000; stroke-width: 0.8"/>
      </g>
     </g>
     <g id="text_20">
      <!-- 0.8 -->
      <g transform="translate(37.565764 210.436706) scale(0.1 -0.1)">
       <use xlink:href="#DejaVuSans-30"/>
       <use xlink:href="#DejaVuSans-2e" x="63.623047"/>
       <use xlink:href="#DejaVuSans-38" x="95.410156"/>
      </g>
     </g>
    </g>
    <g id="text_21">
     <!-- Coverage -->
     <g transform="translate(31.486077 284.384748) rotate(-90) scale(0.1 -0.1)">
      <defs>
       <path id="DejaVuSans-43" d="M 4122 4306 
L 4122 3641 
Q 3803 3938 3442 4084 
Q 3081 4231 2675 4231 
Q 1875 4231 1450 3742 
Q 1025 3253 1025 2328 
Q 1025 1406 1450 917 
Q 1875 428 2675 428 
Q 3081 428 3442 575 
Q 3803 722 4122 1019 
L 4122 359 
Q 3791 134 3420 21 
Q 3050 -91 2638 -91 
Q 1578 -91 968 557 
Q 359 1206 359 2328 
Q 359 3453 968 4101 
Q 1578 4750 2638 4750 
Q 3056 4750 3426 4639 
Q 3797 4528 4122 4306 
z
" transform="scale(0.015625)"/>
       <path id="DejaVuSans-76" d="M 191 3500 
L 800 3500 
L 1894 563 
L 2988 3500 
L 3597 3500 
L 2284 0 
L 1503 0 
L 191 3500 
z
" transform="scale(0.015625)"/>
      </defs>
      <use xlink:href="#DejaVuSans-43"/>
      <use xlink:href="#DejaVuSans-6f" x="69.824219"/>
      <use xlink:href="#DejaVuSans-76" x="131.005859"/>
      <use xlink:href="#DejaVuSans-65" x="190.185547"/>
      <use xlink:href="#DejaVuSans-72" x="251.708984"/>
      <use xlink:href="#DejaVuSans-61" x="292.822266"/>
      <use xlink:href="#DejaVuSans-67" x="354.101562"/>
      <use xlink:href="#DejaVuSans-65" x="417.578125"/>
     </g>
    </g>
   </g>
   <g id="LineCollection_7">
    <path d="M 75.894737 277.546787 
L 75.894737 258.258519 
" clip-path="url(#pa5c5f272b6)" style="fill: none; stroke: #ff0000; stroke-width: 1.5"/>
    <path d="M 89.472975 264.355722 
L 89.472975 245.067455 
" clip-path="url(#pa5c5f272b6)" style="fill: none; stroke: #ff0000; stroke-width: 1.5"/>
    <path d="M 103.051212 266.993935 
L 103.051212 247.705668 
" clip-path="url(#pa5c5f272b6)" style="fill: none; stroke: #ff0000; stroke-width: 1.5"/>
    <path d="M 116.629449 266.993935 
L 116.629449 247.705668 
" clip-path="url(#pa5c5f272b6)" style="fill: none; stroke: #ff0000; stroke-width: 1.5"/>
    <path d="M 130.207688 268.166474 
L 130.207688 248.878207 
" clip-path="url(#pa5c5f272b6)" style="fill: none; stroke: #ff0000; stroke-width: 1.5"/>
    <path d="M 143.785925 276.081113 
L 143.785925 256.792845 
" clip-path="url(#pa5c5f272b6)" style="fill: none; stroke: #ff0000; stroke-width: 1.5"/>
    <path d="M 157.364161 257.906757 
L 157.364161 238.61849 
" clip-path="url(#pa5c5f272b6)" style="fill: none; stroke: #ff0000; stroke-width: 1.5"/>
    <path d="M 170.942399 252.337197 
L 170.942399 233.048929 
" clip-path="url(#pa5c5f272b6)" style="fill: none; stroke: #ff0000; stroke-width: 1.5"/>
    <path d="M 184.520638 248.81958 
L 184.520638 229.531312 
" clip-path="url(#pa5c5f272b6)" style="fill: none; stroke: #ff0000; stroke-width: 1.5"/>
    <path d="M 198.098874 284.582021 
L 198.098874 265.293753 
" clip-path="url(#pa5c5f272b6)" style="fill: none; stroke: #ff0000; stroke-width: 1.5"/>
    <path d="M 211.67711 246.181367 
L 211.67711 226.893099 
" clip-path="url(#pa5c5f272b6)" style="fill: none; stroke: #ff0000; stroke-width: 1.5"/>
    <path d="M 225.255348 261.424375 
L 225.255348 242.136107 
" clip-path="url(#pa5c5f272b6)" style="fill: none; stroke: #ff0000; stroke-width: 1.5"/>
    <path d="M 238.833587 258.199892 
L 238.833587 238.911625 
" clip-path="url(#pa5c5f272b6)" style="fill: none; stroke: #ff0000; stroke-width: 1.5"/>
    <path d="M 252.411825 249.992119 
L 252.411825 230.703851 
" clip-path="url(#pa5c5f272b6)" style="fill: none; stroke: #ff0000; stroke-width: 1.5"/>
    <path d="M 265.990063 271.977226 
L 265.990063 252.688959 
" clip-path="url(#pa5c5f272b6)" style="fill: none; stroke: #ff0000; stroke-width: 1.5"/>
    <path d="M 279.568299 309.791611 
L 279.568299 290.503343 
" clip-path="url(#pa5c5f272b6)" style="fill: none; stroke: #ff0000; stroke-width: 1.5"/>
    <path d="M 293.146536 243.836289 
L 293.146536 224.548021 
" clip-path="url(#pa5c5f272b6)" style="fill: none; stroke: #ff0000; stroke-width: 1.5"/>
    <path d="M 306.724773 235.628515 
L 306.724773 216.340248 
" clip-path="url(#pa5c5f272b6)" style="fill: none; stroke: #ff0000; stroke-width: 1.5"/>
    <path d="M 320.303009 298.945624 
L 320.303009 279.657357 
" clip-path="url(#pa5c5f272b6)" style="fill: none; stroke: #ff0000; stroke-width: 1.5"/>
    <path d="M 333.881248 291.617255 
L 333.881248 272.328988 
" clip-path="url(#pa5c5f272b6)" style="fill: none; stroke: #ff0000; stroke-width: 1.5"/>
   </g>
   <g id="LineCollection_8">
    <path d="M 73.593031 239.439267 
L 73.593031 220.151 
" clip-path="url(#pa5c5f272b6)" style="fill: none; stroke: #008000; stroke-width: 1.5"/>
    <path d="M 87.171269 281.650673 
L 87.171269 262.362406 
" clip-path="url(#pa5c5f272b6)" style="fill: none; stroke: #008000; stroke-width: 1.5"/>
    <path d="M 100.749505 308.032802 
L 100.749505 288.744535 
" clip-path="url(#pa5c5f272b6)" style="fill: none; stroke: #008000; stroke-width: 1.5"/>
    <path d="M 114.327742 286.340829 
L 114.327742 267.052562 
" clip-path="url(#pa5c5f272b6)" style="fill: none; stroke: #008000; stroke-width: 1.5"/>
    <path d="M 127.905981 235.335381 
L 127.905981 216.047113 
" clip-path="url(#pa5c5f272b6)" style="fill: none; stroke: #008000; stroke-width: 1.5"/>
    <path d="M 141.484219 290.444716 
L 141.484219 271.156449 
" clip-path="url(#pa5c5f272b6)" style="fill: none; stroke: #008000; stroke-width: 1.5"/>
    <path d="M 155.062455 258.199892 
L 155.062455 238.911625 
" clip-path="url(#pa5c5f272b6)" style="fill: none; stroke: #008000; stroke-width: 1.5"/>
    <path d="M 168.640692 259.079296 
L 168.640692 239.791029 
" clip-path="url(#pa5c5f272b6)" style="fill: none; stroke: #008000; stroke-width: 1.5"/>
    <path d="M 182.218931 233.869707 
L 182.218931 214.581439 
" clip-path="url(#pa5c5f272b6)" style="fill: none; stroke: #008000; stroke-width: 1.5"/>
    <path d="M 195.797168 241.784345 
L 195.797168 222.496078 
" clip-path="url(#pa5c5f272b6)" style="fill: none; stroke: #008000; stroke-width: 1.5"/>
    <path d="M 209.375404 230.35209 
L 209.375404 211.063822 
" clip-path="url(#pa5c5f272b6)" style="fill: none; stroke: #008000; stroke-width: 1.5"/>
    <path d="M 222.953642 233.869707 
L 222.953642 214.581439 
" clip-path="url(#pa5c5f272b6)" style="fill: none; stroke: #008000; stroke-width: 1.5"/>
    <path d="M 236.53188 236.801054 
L 236.53188 217.512787 
" clip-path="url(#pa5c5f272b6)" style="fill: none; stroke: #008000; stroke-width: 1.5"/>
    <path d="M 250.110119 239.732402 
L 250.110119 220.444135 
" clip-path="url(#pa5c5f272b6)" style="fill: none; stroke: #008000; stroke-width: 1.5"/>
    <path d="M 263.688356 266.993935 
L 263.688356 247.705668 
" clip-path="url(#pa5c5f272b6)" style="fill: none; stroke: #008000; stroke-width: 1.5"/>
    <path d="M 277.266592 309.498476 
L 277.266592 290.210208 
" clip-path="url(#pa5c5f272b6)" style="fill: none; stroke: #008000; stroke-width: 1.5"/>
    <path d="M 290.844829 242.956884 
L 290.844829 223.668617 
" clip-path="url(#pa5c5f272b6)" style="fill: none; stroke: #008000; stroke-width: 1.5"/>
    <path d="M 304.423067 284.875156 
L 304.423067 265.586888 
" clip-path="url(#pa5c5f272b6)" style="fill: none; stroke: #008000; stroke-width: 1.5"/>
    <path d="M 318.001303 296.600546 
L 318.001303 277.312279 
" clip-path="url(#pa5c5f272b6)" style="fill: none; stroke: #008000; stroke-width: 1.5"/>
    <path d="M 331.579541 301.290702 
L 331.579541 282.002435 
" clip-path="url(#pa5c5f272b6)" style="fill: none; stroke: #008000; stroke-width: 1.5"/>
   </g>
   <g id="line2d_120">
    <path d="M 73.593031 220.707956 
L 87.171269 220.707956 
L 100.749505 220.707956 
L 114.327742 220.707956 
L 127.905981 220.707956 
L 141.484219 220.707956 
L 155.062455 220.707956 
L 168.640692 220.707956 
L 182.218931 220.707956 
L 195.797168 220.707956 
L 209.375404 220.707956 
L 222.953642 220.707956 
L 236.53188 220.707956 
L 250.110119 220.707956 
L 263.688356 220.707956 
L 277.266592 220.707956 
L 290.844829 220.707956 
L 304.423067 220.707956 
L 318.001303 220.707956 
L 331.579541 220.707956 
" clip-path="url(#pa5c5f272b6)" style="fill: none; stroke-dasharray: 1.5,2.475; stroke-dashoffset: 0; stroke: #008000; stroke-width: 1.5"/>
   </g>
   <g id="line2d_121">
    <path d="M 75.894737 267.902653 
L 89.472975 254.711588 
L 103.051212 257.349801 
L 116.629449 257.349801 
L 130.207688 258.52234 
L 143.785925 266.436979 
L 157.364161 248.262624 
L 170.942399 242.693063 
L 184.520638 239.175446 
L 198.098874 274.937887 
L 211.67711 236.537233 
L 225.255348 251.780241 
L 238.833587 248.555758 
L 252.411825 240.347985 
L 265.990063 262.333092 
L 279.568299 300.147477 
L 293.146536 234.192155 
L 306.724773 225.984382 
L 320.303009 289.301491 
L 333.881248 281.973121 
" clip-path="url(#pa5c5f272b6)" style="fill: none; stroke: #ff0000; stroke-width: 1.5; stroke-linecap: square"/>
   </g>
   <g id="line2d_122">
    <path d="M 73.593031 229.795134 
L 87.171269 272.00654 
L 100.749505 298.388668 
L 114.327742 276.696696 
L 127.905981 225.691247 
L 141.484219 280.800582 
L 155.062455 248.555758 
L 168.640692 249.435163 
L 182.218931 224.225573 
L 195.797168 232.140212 
L 209.375404 220.707956 
L 222.953642 224.225573 
L 236.53188 227.156921 
L 250.110119 230.088268 
L 263.688356 257.349801 
L 277.266592 299.854342 
L 290.844829 233.312751 
L 304.423067 275.231022 
L 318.001303 286.956412 
L 331.579541 291.646569 
" clip-path="url(#pa5c5f272b6)" style="fill: none; stroke: #008000; stroke-width: 1.5; stroke-linecap: square"/>
   </g>
   <g id="patch_9">
    <path d="M 60.468889 314.728 
L 60.468889 206.127433 
" style="fill: none; stroke: #000000; stroke-width: 0.8; stroke-linejoin: miter; stroke-linecap: square"/>
   </g>
   <g id="patch_10">
    <path d="M 349.2 314.728 
L 349.2 206.127433 
" style="fill: none; stroke: #000000; stroke-width: 0.8; stroke-linejoin: miter; stroke-linecap: square"/>
   </g>
   <g id="patch_11">
    <path d="M 60.468889 314.728 
L 349.2 314.728 
" style="fill: none; stroke: #000000; stroke-width: 0.8; stroke-linejoin: miter; stroke-linecap: square"/>
   </g>
   <g id="patch_12">
    <path d="M 60.468889 206.127433 
L 349.2 206.127433 
" style="fill: none; stroke: #000000; stroke-width: 0.8; stroke-linejoin: miter; stroke-linecap: square"/>
   </g>
   <g id="legend_2">
    <g id="patch_13">
     <path d="M 164.497726 309.728 
L 245.171163 309.728 
Q 247.171163 309.728 247.171163 307.728 
L 247.171163 264.693625 
Q 247.171163 262.693625 245.171163 262.693625 
L 164.497726 262.693625 
Q 162.497726 262.693625 162.497726 264.693625 
L 162.497726 307.728 
Q 162.497726 309.728 164.497726 309.728 
z
" style="fill: #ffffff; opacity: 0.8; stroke: #cccccc; stroke-linejoin: miter"/>
    </g>
    <g id="line2d_123">
     <path d="M 166.497726 270.792063 
L 176.497726 270.792063 
L 186.497726 270.792063 
" style="fill: none; stroke-dasharray: 1.5,2.475; stroke-dashoffset: 0; stroke: #008000; stroke-width: 1.5"/>
    </g>
    <g id="text_22">
     <!-- 68 % -->
     <g transform="translate(194.497726 274.292063) scale(0.1 -0.1)">
      <defs>
       <path id="DejaVuSans-25" d="M 4653 2053 
Q 4381 2053 4226 1822 
Q 4072 1591 4072 1178 
Q 4072 772 4226 539 
Q 4381 306 4653 306 
Q 4919 306 5073 539 
Q 5228 772 5228 1178 
Q 5228 1588 5073 1820 
Q 4919 2053 4653 2053 
z
M 4653 2450 
Q 5147 2450 5437 2106 
Q 5728 1763 5728 1178 
Q 5728 594 5436 251 
Q 5144 -91 4653 -91 
Q 4153 -91 3862 251 
Q 3572 594 3572 1178 
Q 3572 1766 3864 2108 
Q 4156 2450 4653 2450 
z
M 1428 4353 
Q 1159 4353 1004 4120 
Q 850 3888 850 3481 
Q 850 3069 1003 2837 
Q 1156 2606 1428 2606 
Q 1700 2606 1854 2837 
Q 2009 3069 2009 3481 
Q 2009 3884 1853 4118 
Q 1697 4353 1428 4353 
z
M 4250 4750 
L 4750 4750 
L 1831 -91 
L 1331 -91 
L 4250 4750 
z
M 1428 4750 
Q 1922 4750 2215 4408 
Q 2509 4066 2509 3481 
Q 2509 2891 2217 2550 
Q 1925 2209 1428 2209 
Q 931 2209 642 2551 
Q 353 2894 353 3481 
Q 353 4063 643 4406 
Q 934 4750 1428 4750 
z
" transform="scale(0.015625)"/>
      </defs>
      <use xlink:href="#DejaVuSans-36"/>
      <use xlink:href="#DejaVuSans-38" x="63.623047"/>
      <use xlink:href="#DejaVuSans-20" x="127.246094"/>
      <use xlink:href="#DejaVuSans-25" x="159.033203"/>
     </g>
    </g>
    <g id="LineCollection_9">
     <path d="M 176.497726 290.470188 
L 176.497726 280.470188 
" style="fill: none; stroke: #ff0000; stroke-width: 1.5"/>
    </g>
    <g id="line2d_124">
     <path d="M 166.497726 285.470188 
L 186.497726 285.470188 
" style="fill: none; stroke: #ff0000; stroke-width: 1.5; stroke-linecap: square"/>
    </g>
    <g id="line2d_125"/>
    <g id="text_23">
     <!-- Standard  -->
     <g transform="translate(194.497726 288.970188) scale(0.1 -0.1)">
      <use xlink:href="#DejaVuSans-53"/>
      <use xlink:href="#DejaVuSans-74" x="63.476562"/>
      <use xlink:href="#DejaVuSans-61" x="102.685547"/>
      <use xlink:href="#DejaVuSans-6e" x="163.964844"/>
      <use xlink:href="#DejaVuSans-64" x="227.34375"/>
      <use xlink:href="#DejaVuSans-61" x="290.820312"/>
      <use xlink:href="#DejaVuSans-72" x="352.099609"/>
      <use xlink:href="#DejaVuSans-64" x="391.462891"/>
      <use xlink:href="#DejaVuSans-20" x="454.939453"/>
     </g>
    </g>
    <g id="LineCollection_10">
     <path d="M 176.497726 305.148313 
L 176.497726 295.148313 
" style="fill: none; stroke: #008000; stroke-width: 1.5"/>
    </g>
    <g id="line2d_126">
     <path d="M 166.497726 300.148313 
L 186.497726 300.148313 
" style="fill: none; stroke: #008000; stroke-width: 1.5; stroke-linecap: square"/>
    </g>
    <g id="line2d_127"/>
    <g id="text_24">
     <!-- Nuisance -->
     <g transform="translate(194.497726 303.648313) scale(0.1 -0.1)">
      <use xlink:href="#DejaVuSans-4e"/>
      <use xlink:href="#DejaVuSans-75" x="74.804688"/>
      <use xlink:href="#DejaVuSans-69" x="138.183594"/>
      <use xlink:href="#DejaVuSans-73" x="165.966797"/>
      <use xlink:href="#DejaVuSans-61" x="218.066406"/>
      <use xlink:href="#DejaVuSans-6e" x="279.345703"/>
      <use xlink:href="#DejaVuSans-63" x="342.724609"/>
      <use xlink:href="#DejaVuSans-65" x="397.705078"/>
     </g>
    </g>
   </g>
  </g>
 </g>
 <defs>
  <clipPath id="p9d4e841072">
   <rect x="60.468889" y="25.44" width="288.731111" height="162.900851"/>
  </clipPath>
  <clipPath id="pa5c5f272b6">
   <rect x="60.468889" y="206.127433" width="288.731111" height="108.600567"/>
  </clipPath>
 </defs>
</svg>
