<?xml version="1.0" encoding="utf-8" standalone="no"?>
<!DOCTYPE svg PUBLIC "-//W3C//DTD SVG 1.1//EN"
  "http://www.w3.org/Graphics/SVG/1.1/DTD/svg11.dtd">
<svg xmlns:xlink="http://www.w3.org/1999/xlink" width="360pt" height="360pt" viewBox="0 0 360 360" xmlns="http://www.w3.org/2000/svg" version="1.1">
 <metadata>
  <rdf:RDF xmlns:dc="http://purl.org/dc/elements/1.1/" xmlns:cc="http://creativecommons.org/ns#" xmlns:rdf="http://www.w3.org/1999/02/22-rdf-syntax-ns#">
   <cc:Work>
    <dc:type rdf:resource="http://purl.org/dc/dcmitype/StillImage"/>
    <dc:date>2023-03-09T17:30:54.870039</dc:date>
    <dc:format>image/svg+xml</dc:format>
    <dc:creator>
     <cc:Agent>
      <dc:title>Matplotlib v3.6.2, https://matplotlib.org/</dc:title>
     </cc:Agent>
    </dc:creator>
   </cc:Work>
  </rdf:RDF>
 </metadata>
 <defs>
  <style type="text/css">*{stroke-linejoin: round; stroke-linecap: butt}</style>
 </defs>
 <g id="figure_1">
  <g id="patch_1">
   <path d="M 0 360 
L 360 360 
L 360 0 
L 0 0 
z
" style="fill: #ffffff"/>
  </g>
  <g id="axes_1">
   <g id="patch_2">
    <path d="M 60.468889 190.4328 
L 349.2 190.4328 
L 349.2 25.44 
L 60.468889 25.44 
z
" style="fill: #ffffff"/>
   </g>
   <g id="PolyCollection_1">
    <path d="M 74.882963 32.939673 
L 74.882963 46.54734 
L 77.462828 46.618256 
L 80.042694 46.690802 
L 82.622559 46.765052 
L 85.202424 46.841085 
L 87.782289 46.918983 
L 90.362154 46.998834 
L 92.942019 47.08073 
L 95.521884 47.164768 
L 98.101749 47.251051 
L 100.681614 47.339687 
L 103.261479 47.430792 
L 105.841345 47.524487 
L 108.42121 47.6209 
L 111.001075 47.720167 
L 113.58094 47.82243 
L 116.160805 47.927841 
L 118.74067 48.03656 
L 121.320535 48.148756 
L 123.9004 48.264607 
L 126.480265 48.384303 
L 129.06013 48.508045 
L 131.639996 48.636042 
L 134.219861 48.768519 
L 136.799726 48.905713 
L 139.379591 49.047874 
L 141.959456 49.195268 
L 144.539321 49.348174 
L 147.119186 49.50689 
L 149.699051 49.67173 
L 152.278916 49.843029 
L 154.858781 50.021137 
L 157.438647 50.206431 
L 160.018512 50.399306 
L 162.598377 50.600182 
L 165.178242 50.809505 
L 167.758107 51.027748 
L 170.337972 51.255412 
L 172.917837 51.493029 
L 175.497702 51.741165 
L 178.077567 52.000419 
L 180.657432 52.271429 
L 183.237298 52.554873 
L 185.817163 52.851469 
L 188.397028 53.161985 
L 190.976893 53.487235 
L 193.556758 53.828087 
L 196.136623 54.185463 
L 198.716488 54.560348 
L 201.296353 54.95379 
L 203.876218 55.366908 
L 206.456083 55.800894 
L 209.035949 56.257022 
L 211.615814 56.736653 
L 214.195679 57.241239 
L 216.775544 57.772336 
L 219.355409 58.331605 
L 221.935274 58.920828 
L 224.515139 59.541912 
L 227.095004 60.1969 
L 229.674869 60.887988 
L 232.254735 61.617527 
L 234.8346 62.388047 
L 237.414465 63.202266 
L 239.99433 64.063106 
L 242.574195 64.973713 
L 245.15406 65.937476 
L 247.733925 66.958044 
L 250.31379 68.039356 
L 252.893655 69.185657 
L 255.47352 70.401534 
L 258.053386 71.691936 
L 260.633251 73.062217 
L 263.213116 74.518159 
L 265.792981 76.066023 
L 268.372846 77.712584 
L 270.952711 79.46518 
L 273.532576 81.331776 
L 276.112441 83.32102 
L 278.692306 85.44233 
L 281.272171 87.705988 
L 283.852037 90.123265 
L 286.431902 92.706584 
L 289.011767 95.469729 
L 291.591632 98.428139 
L 294.171497 101.599298 
L 296.751362 105.003297 
L 299.331227 108.663637 
L 301.911092 112.608414 
L 304.490957 116.872132 
L 307.070822 121.498581 
L 309.650688 126.545646 
L 312.230553 132.093833 
L 314.810418 138.262667 
L 317.390283 145.245679 
L 319.970148 153.397081 
L 322.550013 163.502141 
L 325.129878 178.075813 
L 327.709743 32169.141483 
L 330.289608 32169.141483 
L 330.289608 137.074736 
L 330.289608 137.074736 
L 327.709743 131.806291 
L 325.129878 126.820834 
L 322.550013 122.102013 
L 319.970148 117.634361 
L 317.390283 113.403254 
L 314.810418 109.394886 
L 312.230553 105.596232 
L 309.650688 101.995024 
L 307.070822 98.579727 
L 304.490957 95.339511 
L 301.911092 92.264232 
L 299.331227 89.3444 
L 296.751362 86.571162 
L 294.171497 83.936268 
L 291.591632 81.432044 
L 289.011767 79.051359 
L 286.431902 76.787587 
L 283.852037 74.634576 
L 281.272171 72.586603 
L 278.692306 70.638341 
L 276.112441 68.784817 
L 273.532576 67.02138 
L 270.952711 65.343663 
L 268.372846 63.747557 
L 265.792981 62.22918 
L 263.213116 60.784857 
L 260.633251 59.411095 
L 258.053386 58.104571 
L 255.47352 56.862117 
L 252.893655 55.680705 
L 250.31379 54.55744 
L 247.733925 53.489555 
L 245.15406 52.474398 
L 242.574195 51.509433 
L 239.99433 50.59223 
L 237.414465 49.720466 
L 234.8346 48.891914 
L 232.254735 48.10445 
L 229.674869 47.356038 
L 227.095004 46.644737 
L 224.515139 45.968691 
L 221.935274 45.326129 
L 219.355409 44.715361 
L 216.775544 44.134777 
L 214.195679 43.582841 
L 211.615814 43.058091 
L 209.035949 42.559134 
L 206.456083 42.084644 
L 203.876218 41.63336 
L 201.296353 41.204083 
L 198.716488 40.795671 
L 196.136623 40.40704 
L 193.556758 40.037159 
L 190.976893 39.68505 
L 188.397028 39.349783 
L 185.817163 39.030475 
L 183.237298 38.726287 
L 180.657432 38.436424 
L 178.077567 38.160131 
L 175.497702 37.896691 
L 172.917837 37.645424 
L 170.337972 37.405685 
L 167.758107 37.176863 
L 165.178242 36.958378 
L 162.598377 36.74968 
L 160.018512 36.550246 
L 157.438647 36.359583 
L 154.858781 36.177222 
L 152.278916 36.002718 
L 149.699051 35.835651 
L 147.119186 35.675621 
L 144.539321 35.52225 
L 141.959456 35.375179 
L 139.379591 35.23407 
L 136.799726 35.098599 
L 134.219861 34.968463 
L 131.639996 34.843371 
L 129.06013 34.723052 
L 126.480265 34.607244 
L 123.9004 34.495703 
L 121.320535 34.388196 
L 118.74067 34.284502 
L 116.160805 34.184414 
L 113.58094 34.087732 
L 111.001075 33.99427 
L 108.42121 33.903851 
L 105.841345 33.816306 
L 103.261479 33.731476 
L 100.681614 33.649211 
L 98.101749 33.569368 
L 95.521884 33.491811 
L 92.942019 33.416414 
L 90.362154 33.343055 
L 87.782289 33.271618 
L 85.202424 33.201996 
L 82.622559 33.134085 
L 80.042694 33.067788 
L 77.462828 33.003013 
L 74.882963 32.939673 
z
" clip-path="url(#p3bf6927e9c)" style="fill: #008000; fill-opacity: 0.5"/>
   </g>
   <g id="PolyCollection_2">
    <path d="M 74.882963 37.643585 
L 74.882963 38.702222 
L 77.462828 38.743723 
L 80.042694 38.787575 
L 82.622559 38.833941 
L 85.202424 38.882998 
L 87.782289 38.934936 
L 90.362154 38.989961 
L 92.942019 39.048288 
L 95.521884 39.110147 
L 98.101749 39.175772 
L 100.681614 39.245405 
L 103.261479 39.319281 
L 105.841345 39.397628 
L 108.42121 39.480655 
L 111.001075 39.568548 
L 113.58094 39.661461 
L 116.160805 39.759518 
L 118.74067 39.862811 
L 121.320535 39.971406 
L 123.9004 40.085351 
L 126.480265 40.204686 
L 129.06013 40.329451 
L 131.639996 40.459697 
L 134.219861 40.59549 
L 136.799726 40.736922 
L 139.379591 40.884108 
L 141.959456 41.037194 
L 144.539321 41.196358 
L 147.119186 41.361809 
L 149.699051 41.533789 
L 152.278916 41.712573 
L 154.858781 41.898474 
L 157.438647 42.091838 
L 160.018512 42.293048 
L 162.598377 42.502528 
L 165.178242 42.720743 
L 167.758107 42.948202 
L 170.337972 43.185461 
L 172.917837 43.433128 
L 175.497702 43.691867 
L 178.077567 43.962403 
L 180.657432 44.245525 
L 183.237298 44.542096 
L 185.817163 44.853057 
L 188.397028 45.179431 
L 190.976893 45.52233 
L 193.556758 45.882963 
L 196.136623 46.262633 
L 198.716488 46.662741 
L 201.296353 47.084789 
L 203.876218 47.530369 
L 206.456083 48.001167 
L 209.035949 48.498949 
L 211.615814 49.025558 
L 214.195679 49.582909 
L 216.775544 50.172985 
L 219.355409 50.797839 
L 221.935274 51.459597 
L 224.515139 52.160468 
L 227.095004 52.902754 
L 229.674869 53.688866 
L 232.254735 54.521336 
L 234.8346 55.402839 
L 237.414465 56.336206 
L 239.99433 57.324443 
L 242.574195 58.370753 
L 245.15406 59.478548 
L 247.733925 60.651478 
L 250.31379 61.893444 
L 252.893655 63.208633 
L 255.47352 64.601532 
L 258.053386 66.076972 
L 260.633251 67.640151 
L 263.213116 69.296681 
L 265.792981 71.052632 
L 268.372846 72.914593 
L 270.952711 74.889729 
L 273.532576 76.985874 
L 276.112441 79.211621 
L 278.692306 81.576455 
L 281.272171 84.090904 
L 283.852037 86.766748 
L 286.431902 89.617285 
L 289.011767 92.657691 
L 291.591632 95.905508 
L 294.171497 99.381341 
L 296.751362 103.109859 
L 299.331227 107.121289 
L 301.911092 111.453754 
L 304.490957 116.157067 
L 307.070822 121.29929 
L 309.650688 126.978855 
L 312.230553 133.349182 
L 314.810418 140.675387 
L 317.390283 149.49172 
L 319.970148 161.200938 
L 322.550013 182.933127 
L 325.129878 32169.141483 
L 327.709743 32169.141483 
L 330.289608 32169.141483 
L 330.289608 136.239814 
L 330.289608 136.239814 
L 327.709743 131.040032 
L 325.129878 126.128373 
L 322.550013 121.488783 
L 319.970148 117.106074 
L 317.390283 112.965871 
L 314.810418 109.054582 
L 312.230553 105.359347 
L 309.650688 101.868006 
L 307.070822 98.569064 
L 304.490957 95.451651 
L 301.911092 92.505496 
L 299.331227 89.720892 
L 296.751362 87.088666 
L 294.171497 84.600157 
L 291.591632 82.24718 
L 289.011767 80.022011 
L 286.431902 77.917352 
L 283.852037 75.926319 
L 281.272171 74.042411 
L 278.692306 72.259495 
L 276.112441 70.571781 
L 273.532576 68.973808 
L 270.952711 67.460425 
L 268.372846 66.02677 
L 265.792981 64.668256 
L 263.213116 63.380559 
L 260.633251 62.159595 
L 258.053386 61.001515 
L 255.47352 59.902685 
L 252.893655 58.859676 
L 250.31379 57.869253 
L 247.733925 56.928362 
L 245.15406 56.03412 
L 242.574195 55.18381 
L 239.99433 54.374865 
L 237.414465 53.604866 
L 234.8346 52.871535 
L 232.254735 52.17273 
L 229.674869 51.506439 
L 227.095004 50.87078 
L 224.515139 50.264001 
L 221.935274 49.684473 
L 219.355409 49.130699 
L 216.775544 48.601305 
L 214.195679 48.095042 
L 211.615814 47.610782 
L 209.035949 47.147506 
L 206.456083 46.704301 
L 203.876218 46.280341 
L 201.296353 45.874874 
L 198.716488 45.487208 
L 196.136623 45.116693 
L 193.556758 44.762712 
L 190.976893 44.424667 
L 188.397028 44.101973 
L 185.817163 43.794055 
L 183.237298 43.500339 
L 180.657432 43.220259 
L 178.077567 42.953249 
L 175.497702 42.698751 
L 172.917837 42.456212 
L 170.337972 42.225087 
L 167.758107 42.004838 
L 165.178242 41.794939 
L 162.598377 41.594874 
L 160.018512 41.404136 
L 157.438647 41.222232 
L 154.858781 41.048675 
L 152.278916 40.882994 
L 149.699051 40.724722 
L 147.119186 40.573402 
L 144.539321 40.428584 
L 141.959456 40.289823 
L 139.379591 40.156677 
L 136.799726 40.028709 
L 134.219861 39.905483 
L 131.639996 39.786563 
L 129.06013 39.671519 
L 126.480265 39.559924 
L 123.9004 39.451362 
L 121.320535 39.345432 
L 118.74067 39.241754 
L 116.160805 39.139981 
L 113.58094 39.039804 
L 111.001075 38.940961 
L 108.42121 38.843239 
L 105.841345 38.746475 
L 103.261479 38.650554 
L 100.681614 38.5554 
L 98.101749 38.460971 
L 95.521884 38.367248 
L 92.942019 38.27423 
L 90.362154 38.181922 
L 87.782289 38.090338 
L 85.202424 37.999488 
L 82.622559 37.909383 
L 80.042694 37.82003 
L 77.462828 37.731431 
L 74.882963 37.643585 
z
" clip-path="url(#p3bf6927e9c)" style="fill: #ff0000; fill-opacity: 0.6"/>
   </g>
   <g id="matplotlib.axis_1">
    <g id="xtick_1">
     <g id="line2d_1">
      <defs>
       <path id="m04a46174e7" d="M 0 0 
L 0 3.5 
" style="stroke: #000000; stroke-width: 0.8"/>
      </defs>
      <g>
       <use xlink:href="#m04a46174e7" x="121.116861" y="190.4328" style="stroke: #000000; stroke-width: 0.8"/>
      </g>
     </g>
    </g>
    <g id="xtick_2">
     <g id="line2d_2">
      <g>
       <use xlink:href="#m04a46174e7" x="229.742761" y="190.4328" style="stroke: #000000; stroke-width: 0.8"/>
      </g>
     </g>
    </g>
    <g id="xtick_3">
     <g id="line2d_3">
      <g>
       <use xlink:href="#m04a46174e7" x="338.368661" y="190.4328" style="stroke: #000000; stroke-width: 0.8"/>
      </g>
     </g>
    </g>
    <g id="xtick_4">
     <g id="line2d_4">
      <defs>
       <path id="m158a30900a" d="M 0 0 
L 0 2 
" style="stroke: #000000; stroke-width: 0.6"/>
      </defs>
      <g>
       <use xlink:href="#m158a30900a" x="64.318687" y="190.4328" style="stroke: #000000; stroke-width: 0.6"/>
      </g>
     </g>
    </g>
    <g id="xtick_5">
     <g id="line2d_5">
      <g>
       <use xlink:href="#m158a30900a" x="77.89027" y="190.4328" style="stroke: #000000; stroke-width: 0.6"/>
      </g>
     </g>
    </g>
    <g id="xtick_6">
     <g id="line2d_6">
      <g>
       <use xlink:href="#m158a30900a" x="88.417207" y="190.4328" style="stroke: #000000; stroke-width: 0.6"/>
      </g>
     </g>
    </g>
    <g id="xtick_7">
     <g id="line2d_7">
      <g>
       <use xlink:href="#m158a30900a" x="97.018341" y="190.4328" style="stroke: #000000; stroke-width: 0.6"/>
      </g>
     </g>
    </g>
    <g id="xtick_8">
     <g id="line2d_8">
      <g>
       <use xlink:href="#m158a30900a" x="104.290497" y="190.4328" style="stroke: #000000; stroke-width: 0.6"/>
      </g>
     </g>
    </g>
    <g id="xtick_9">
     <g id="line2d_9">
      <g>
       <use xlink:href="#m158a30900a" x="110.589924" y="190.4328" style="stroke: #000000; stroke-width: 0.6"/>
      </g>
     </g>
    </g>
    <g id="xtick_10">
     <g id="line2d_10">
      <g>
       <use xlink:href="#m158a30900a" x="116.146413" y="190.4328" style="stroke: #000000; stroke-width: 0.6"/>
      </g>
     </g>
    </g>
    <g id="xtick_11">
     <g id="line2d_11">
      <g>
       <use xlink:href="#m158a30900a" x="153.816515" y="190.4328" style="stroke: #000000; stroke-width: 0.6"/>
      </g>
     </g>
    </g>
    <g id="xtick_12">
     <g id="line2d_12">
      <g>
       <use xlink:href="#m158a30900a" x="172.944587" y="190.4328" style="stroke: #000000; stroke-width: 0.6"/>
      </g>
     </g>
    </g>
    <g id="xtick_13">
     <g id="line2d_13">
      <g>
       <use xlink:href="#m158a30900a" x="186.51617" y="190.4328" style="stroke: #000000; stroke-width: 0.6"/>
      </g>
     </g>
    </g>
    <g id="xtick_14">
     <g id="line2d_14">
      <g>
       <use xlink:href="#m158a30900a" x="197.043107" y="190.4328" style="stroke: #000000; stroke-width: 0.6"/>
      </g>
     </g>
    </g>
    <g id="xtick_15">
     <g id="line2d_15">
      <g>
       <use xlink:href="#m158a30900a" x="205.644241" y="190.4328" style="stroke: #000000; stroke-width: 0.6"/>
      </g>
     </g>
    </g>
    <g id="xtick_16">
     <g id="line2d_16">
      <g>
       <use xlink:href="#m158a30900a" x="212.916396" y="190.4328" style="stroke: #000000; stroke-width: 0.6"/>
      </g>
     </g>
    </g>
    <g id="xtick_17">
     <g id="line2d_17">
      <g>
       <use xlink:href="#m158a30900a" x="219.215824" y="190.4328" style="stroke: #000000; stroke-width: 0.6"/>
      </g>
     </g>
    </g>
    <g id="xtick_18">
     <g id="line2d_18">
      <g>
       <use xlink:href="#m158a30900a" x="224.772312" y="190.4328" style="stroke: #000000; stroke-width: 0.6"/>
      </g>
     </g>
    </g>
    <g id="xtick_19">
     <g id="line2d_19">
      <g>
       <use xlink:href="#m158a30900a" x="262.442415" y="190.4328" style="stroke: #000000; stroke-width: 0.6"/>
      </g>
     </g>
    </g>
    <g id="xtick_20">
     <g id="line2d_20">
      <g>
       <use xlink:href="#m158a30900a" x="281.570486" y="190.4328" style="stroke: #000000; stroke-width: 0.6"/>
      </g>
     </g>
    </g>
    <g id="xtick_21">
     <g id="line2d_21">
      <g>
       <use xlink:href="#m158a30900a" x="295.142069" y="190.4328" style="stroke: #000000; stroke-width: 0.6"/>
      </g>
     </g>
    </g>
    <g id="xtick_22">
     <g id="line2d_22">
      <g>
       <use xlink:href="#m158a30900a" x="305.669006" y="190.4328" style="stroke: #000000; stroke-width: 0.6"/>
      </g>
     </g>
    </g>
    <g id="xtick_23">
     <g id="line2d_23">
      <g>
       <use xlink:href="#m158a30900a" x="314.270141" y="190.4328" style="stroke: #000000; stroke-width: 0.6"/>
      </g>
     </g>
    </g>
    <g id="xtick_24">
     <g id="line2d_24">
      <g>
       <use xlink:href="#m158a30900a" x="321.542296" y="190.4328" style="stroke: #000000; stroke-width: 0.6"/>
      </g>
     </g>
    </g>
    <g id="xtick_25">
     <g id="line2d_25">
      <g>
       <use xlink:href="#m158a30900a" x="327.841723" y="190.4328" style="stroke: #000000; stroke-width: 0.6"/>
      </g>
     </g>
    </g>
    <g id="xtick_26">
     <g id="line2d_26">
      <g>
       <use xlink:href="#m158a30900a" x="333.398212" y="190.4328" style="stroke: #000000; stroke-width: 0.6"/>
      </g>
     </g>
    </g>
   </g>
   <g id="matplotlib.axis_2">
    <g id="ytick_1">
     <g id="line2d_27">
      <defs>
       <path id="me46a3312ef" d="M 0 0 
L -3.5 0 
" style="stroke: #000000; stroke-width: 0.8"/>
      </defs>
      <g>
       <use xlink:href="#me46a3312ef" x="60.468889" y="182.795206" style="stroke: #000000; stroke-width: 0.8"/>
      </g>
     </g>
     <g id="text_1">
      <!-- $\mathdefault{10^{-16}}$ -->
      <g transform="translate(25.568889 186.594425) scale(0.1 -0.1)">
       <defs>
        <path id="DejaVuSans-31" d="M 794 531 
L 1825 531 
L 1825 4091 
L 703 3866 
L 703 4441 
L 1819 4666 
L 2450 4666 
L 2450 531 
L 3481 531 
L 3481 0 
L 794 0 
L 794 531 
z
" transform="scale(0.015625)"/>
        <path id="DejaVuSans-30" d="M 2034 4250 
Q 1547 4250 1301 3770 
Q 1056 3291 1056 2328 
Q 1056 1369 1301 889 
Q 1547 409 2034 409 
Q 2525 409 2770 889 
Q 3016 1369 3016 2328 
Q 3016 3291 2770 3770 
Q 2525 4250 2034 4250 
z
M 2034 4750 
Q 2819 4750 3233 4129 
Q 3647 3509 3647 2328 
Q 3647 1150 3233 529 
Q 2819 -91 2034 -91 
Q 1250 -91 836 529 
Q 422 1150 422 2328 
Q 422 3509 836 4129 
Q 1250 4750 2034 4750 
z
" transform="scale(0.015625)"/>
        <path id="DejaVuSans-2212" d="M 678 2272 
L 4684 2272 
L 4684 1741 
L 678 1741 
L 678 2272 
z
" transform="scale(0.015625)"/>
        <path id="DejaVuSans-36" d="M 2113 2584 
Q 1688 2584 1439 2293 
Q 1191 2003 1191 1497 
Q 1191 994 1439 701 
Q 1688 409 2113 409 
Q 2538 409 2786 701 
Q 3034 994 3034 1497 
Q 3034 2003 2786 2293 
Q 2538 2584 2113 2584 
z
M 3366 4563 
L 3366 3988 
Q 3128 4100 2886 4159 
Q 2644 4219 2406 4219 
Q 1781 4219 1451 3797 
Q 1122 3375 1075 2522 
Q 1259 2794 1537 2939 
Q 1816 3084 2150 3084 
Q 2853 3084 3261 2657 
Q 3669 2231 3669 1497 
Q 3669 778 3244 343 
Q 2819 -91 2113 -91 
Q 1303 -91 875 529 
Q 447 1150 447 2328 
Q 447 3434 972 4092 
Q 1497 4750 2381 4750 
Q 2619 4750 2861 4703 
Q 3103 4656 3366 4563 
z
" transform="scale(0.015625)"/>
       </defs>
       <use xlink:href="#DejaVuSans-31" transform="translate(0 0.765625)"/>
       <use xlink:href="#DejaVuSans-30" transform="translate(63.623047 0.765625)"/>
       <use xlink:href="#DejaVuSans-2212" transform="translate(128.203125 39.046875) scale(0.7)"/>
       <use xlink:href="#DejaVuSans-31" transform="translate(186.855469 39.046875) scale(0.7)"/>
       <use xlink:href="#DejaVuSans-36" transform="translate(231.391602 39.046875) scale(0.7)"/>
      </g>
     </g>
    </g>
    <g id="ytick_2">
     <g id="line2d_28">
      <g>
       <use xlink:href="#me46a3312ef" x="60.468889" y="150.288756" style="stroke: #000000; stroke-width: 0.8"/>
      </g>
     </g>
     <g id="text_2">
      <!-- $\mathdefault{10^{-15}}$ -->
      <g transform="translate(25.568889 154.087975) scale(0.1 -0.1)">
       <defs>
        <path id="DejaVuSans-35" d="M 691 4666 
L 3169 4666 
L 3169 4134 
L 1269 4134 
L 1269 2991 
Q 1406 3038 1543 3061 
Q 1681 3084 1819 3084 
Q 2600 3084 3056 2656 
Q 3513 2228 3513 1497 
Q 3513 744 3044 326 
Q 2575 -91 1722 -91 
Q 1428 -91 1123 -41 
Q 819 9 494 109 
L 494 744 
Q 775 591 1075 516 
Q 1375 441 1709 441 
Q 2250 441 2565 725 
Q 2881 1009 2881 1497 
Q 2881 1984 2565 2268 
Q 2250 2553 1709 2553 
Q 1456 2553 1204 2497 
Q 953 2441 691 2322 
L 691 4666 
z
" transform="scale(0.015625)"/>
       </defs>
       <use xlink:href="#DejaVuSans-31" transform="translate(0 0.684375)"/>
       <use xlink:href="#DejaVuSans-30" transform="translate(63.623047 0.684375)"/>
       <use xlink:href="#DejaVuSans-2212" transform="translate(128.203125 38.965625) scale(0.7)"/>
       <use xlink:href="#DejaVuSans-31" transform="translate(186.855469 38.965625) scale(0.7)"/>
       <use xlink:href="#DejaVuSans-35" transform="translate(231.391602 38.965625) scale(0.7)"/>
      </g>
     </g>
    </g>
    <g id="ytick_3">
     <g id="line2d_29">
      <g>
       <use xlink:href="#me46a3312ef" x="60.468889" y="117.782307" style="stroke: #000000; stroke-width: 0.8"/>
      </g>
     </g>
     <g id="text_3">
      <!-- $\mathdefault{10^{-14}}$ -->
      <g transform="translate(25.568889 121.581526) scale(0.1 -0.1)">
       <defs>
        <path id="DejaVuSans-34" d="M 2419 4116 
L 825 1625 
L 2419 1625 
L 2419 4116 
z
M 2253 4666 
L 3047 4666 
L 3047 1625 
L 3713 1625 
L 3713 1100 
L 3047 1100 
L 3047 0 
L 2419 0 
L 2419 1100 
L 313 1100 
L 313 1709 
L 2253 4666 
z
" transform="scale(0.015625)"/>
       </defs>
       <use xlink:href="#DejaVuSans-31" transform="translate(0 0.684375)"/>
       <use xlink:href="#DejaVuSans-30" transform="translate(63.623047 0.684375)"/>
       <use xlink:href="#DejaVuSans-2212" transform="translate(128.203125 38.965625) scale(0.7)"/>
       <use xlink:href="#DejaVuSans-31" transform="translate(186.855469 38.965625) scale(0.7)"/>
       <use xlink:href="#DejaVuSans-34" transform="translate(231.391602 38.965625) scale(0.7)"/>
      </g>
     </g>
    </g>
    <g id="ytick_4">
     <g id="line2d_30">
      <g>
       <use xlink:href="#me46a3312ef" x="60.468889" y="85.275857" style="stroke: #000000; stroke-width: 0.8"/>
      </g>
     </g>
     <g id="text_4">
      <!-- $\mathdefault{10^{-13}}$ -->
      <g transform="translate(25.568889 89.075076) scale(0.1 -0.1)">
       <defs>
        <path id="DejaVuSans-33" d="M 2597 2516 
Q 3050 2419 3304 2112 
Q 3559 1806 3559 1356 
Q 3559 666 3084 287 
Q 2609 -91 1734 -91 
Q 1441 -91 1130 -33 
Q 819 25 488 141 
L 488 750 
Q 750 597 1062 519 
Q 1375 441 1716 441 
Q 2309 441 2620 675 
Q 2931 909 2931 1356 
Q 2931 1769 2642 2001 
Q 2353 2234 1838 2234 
L 1294 2234 
L 1294 2753 
L 1863 2753 
Q 2328 2753 2575 2939 
Q 2822 3125 2822 3475 
Q 2822 3834 2567 4026 
Q 2313 4219 1838 4219 
Q 1578 4219 1281 4162 
Q 984 4106 628 3988 
L 628 4550 
Q 988 4650 1302 4700 
Q 1616 4750 1894 4750 
Q 2613 4750 3031 4423 
Q 3450 4097 3450 3541 
Q 3450 3153 3228 2886 
Q 3006 2619 2597 2516 
z
" transform="scale(0.015625)"/>
       </defs>
       <use xlink:href="#DejaVuSans-31" transform="translate(0 0.765625)"/>
       <use xlink:href="#DejaVuSans-30" transform="translate(63.623047 0.765625)"/>
       <use xlink:href="#DejaVuSans-2212" transform="translate(128.203125 39.046875) scale(0.7)"/>
       <use xlink:href="#DejaVuSans-31" transform="translate(186.855469 39.046875) scale(0.7)"/>
       <use xlink:href="#DejaVuSans-33" transform="translate(231.391602 39.046875) scale(0.7)"/>
      </g>
     </g>
    </g>
    <g id="ytick_5">
     <g id="line2d_31">
      <g>
       <use xlink:href="#me46a3312ef" x="60.468889" y="52.769408" style="stroke: #000000; stroke-width: 0.8"/>
      </g>
     </g>
     <g id="text_5">
      <!-- $\mathdefault{10^{-12}}$ -->
      <g transform="translate(25.568889 56.568627) scale(0.1 -0.1)">
       <defs>
        <path id="DejaVuSans-32" d="M 1228 531 
L 3431 531 
L 3431 0 
L 469 0 
L 469 531 
Q 828 903 1448 1529 
Q 2069 2156 2228 2338 
Q 2531 2678 2651 2914 
Q 2772 3150 2772 3378 
Q 2772 3750 2511 3984 
Q 2250 4219 1831 4219 
Q 1534 4219 1204 4116 
Q 875 4013 500 3803 
L 500 4441 
Q 881 4594 1212 4672 
Q 1544 4750 1819 4750 
Q 2544 4750 2975 4387 
Q 3406 4025 3406 3419 
Q 3406 3131 3298 2873 
Q 3191 2616 2906 2266 
Q 2828 2175 2409 1742 
Q 1991 1309 1228 531 
z
" transform="scale(0.015625)"/>
       </defs>
       <use xlink:href="#DejaVuSans-31" transform="translate(0 0.765625)"/>
       <use xlink:href="#DejaVuSans-30" transform="translate(63.623047 0.765625)"/>
       <use xlink:href="#DejaVuSans-2212" transform="translate(128.203125 39.046875) scale(0.7)"/>
       <use xlink:href="#DejaVuSans-31" transform="translate(186.855469 39.046875) scale(0.7)"/>
       <use xlink:href="#DejaVuSans-32" transform="translate(231.391602 39.046875) scale(0.7)"/>
      </g>
     </g>
    </g>
    <g id="ytick_6">
     <g id="line2d_32">
      <defs>
       <path id="m7b0ff903b6" d="M 0 0 
L -2 0 
" style="stroke: #000000; stroke-width: 0.6"/>
      </defs>
      <g>
       <use xlink:href="#m7b0ff903b6" x="60.468889" y="190.006721" style="stroke: #000000; stroke-width: 0.6"/>
      </g>
     </g>
    </g>
    <g id="ytick_7">
     <g id="line2d_33">
      <g>
       <use xlink:href="#m7b0ff903b6" x="60.468889" y="187.830519" style="stroke: #000000; stroke-width: 0.6"/>
      </g>
     </g>
    </g>
    <g id="ytick_8">
     <g id="line2d_34">
      <g>
       <use xlink:href="#m7b0ff903b6" x="60.468889" y="185.945406" style="stroke: #000000; stroke-width: 0.6"/>
      </g>
     </g>
    </g>
    <g id="ytick_9">
     <g id="line2d_35">
      <g>
       <use xlink:href="#m7b0ff903b6" x="60.468889" y="184.282619" style="stroke: #000000; stroke-width: 0.6"/>
      </g>
     </g>
    </g>
    <g id="ytick_10">
     <g id="line2d_36">
      <g>
       <use xlink:href="#m7b0ff903b6" x="60.468889" y="173.009789" style="stroke: #000000; stroke-width: 0.6"/>
      </g>
     </g>
    </g>
    <g id="ytick_11">
     <g id="line2d_37">
      <g>
       <use xlink:href="#m7b0ff903b6" x="60.468889" y="167.285688" style="stroke: #000000; stroke-width: 0.6"/>
      </g>
     </g>
    </g>
    <g id="ytick_12">
     <g id="line2d_38">
      <g>
       <use xlink:href="#m7b0ff903b6" x="60.468889" y="163.224373" style="stroke: #000000; stroke-width: 0.6"/>
      </g>
     </g>
    </g>
    <g id="ytick_13">
     <g id="line2d_39">
      <g>
       <use xlink:href="#m7b0ff903b6" x="60.468889" y="160.074173" style="stroke: #000000; stroke-width: 0.6"/>
      </g>
     </g>
    </g>
    <g id="ytick_14">
     <g id="line2d_40">
      <g>
       <use xlink:href="#m7b0ff903b6" x="60.468889" y="157.500271" style="stroke: #000000; stroke-width: 0.6"/>
      </g>
     </g>
    </g>
    <g id="ytick_15">
     <g id="line2d_41">
      <g>
       <use xlink:href="#m7b0ff903b6" x="60.468889" y="155.324069" style="stroke: #000000; stroke-width: 0.6"/>
      </g>
     </g>
    </g>
    <g id="ytick_16">
     <g id="line2d_42">
      <g>
       <use xlink:href="#m7b0ff903b6" x="60.468889" y="153.438957" style="stroke: #000000; stroke-width: 0.6"/>
      </g>
     </g>
    </g>
    <g id="ytick_17">
     <g id="line2d_43">
      <g>
       <use xlink:href="#m7b0ff903b6" x="60.468889" y="151.77617" style="stroke: #000000; stroke-width: 0.6"/>
      </g>
     </g>
    </g>
    <g id="ytick_18">
     <g id="line2d_44">
      <g>
       <use xlink:href="#m7b0ff903b6" x="60.468889" y="140.50334" style="stroke: #000000; stroke-width: 0.6"/>
      </g>
     </g>
    </g>
    <g id="ytick_19">
     <g id="line2d_45">
      <g>
       <use xlink:href="#m7b0ff903b6" x="60.468889" y="134.779238" style="stroke: #000000; stroke-width: 0.6"/>
      </g>
     </g>
    </g>
    <g id="ytick_20">
     <g id="line2d_46">
      <g>
       <use xlink:href="#m7b0ff903b6" x="60.468889" y="130.717924" style="stroke: #000000; stroke-width: 0.6"/>
      </g>
     </g>
    </g>
    <g id="ytick_21">
     <g id="line2d_47">
      <g>
       <use xlink:href="#m7b0ff903b6" x="60.468889" y="127.567723" style="stroke: #000000; stroke-width: 0.6"/>
      </g>
     </g>
    </g>
    <g id="ytick_22">
     <g id="line2d_48">
      <g>
       <use xlink:href="#m7b0ff903b6" x="60.468889" y="124.993822" style="stroke: #000000; stroke-width: 0.6"/>
      </g>
     </g>
    </g>
    <g id="ytick_23">
     <g id="line2d_49">
      <g>
       <use xlink:href="#m7b0ff903b6" x="60.468889" y="122.81762" style="stroke: #000000; stroke-width: 0.6"/>
      </g>
     </g>
    </g>
    <g id="ytick_24">
     <g id="line2d_50">
      <g>
       <use xlink:href="#m7b0ff903b6" x="60.468889" y="120.932507" style="stroke: #000000; stroke-width: 0.6"/>
      </g>
     </g>
    </g>
    <g id="ytick_25">
     <g id="line2d_51">
      <g>
       <use xlink:href="#m7b0ff903b6" x="60.468889" y="119.26972" style="stroke: #000000; stroke-width: 0.6"/>
      </g>
     </g>
    </g>
    <g id="ytick_26">
     <g id="line2d_52">
      <g>
       <use xlink:href="#m7b0ff903b6" x="60.468889" y="107.996891" style="stroke: #000000; stroke-width: 0.6"/>
      </g>
     </g>
    </g>
    <g id="ytick_27">
     <g id="line2d_53">
      <g>
       <use xlink:href="#m7b0ff903b6" x="60.468889" y="102.272789" style="stroke: #000000; stroke-width: 0.6"/>
      </g>
     </g>
    </g>
    <g id="ytick_28">
     <g id="line2d_54">
      <g>
       <use xlink:href="#m7b0ff903b6" x="60.468889" y="98.211474" style="stroke: #000000; stroke-width: 0.6"/>
      </g>
     </g>
    </g>
    <g id="ytick_29">
     <g id="line2d_55">
      <g>
       <use xlink:href="#m7b0ff903b6" x="60.468889" y="95.061274" style="stroke: #000000; stroke-width: 0.6"/>
      </g>
     </g>
    </g>
    <g id="ytick_30">
     <g id="line2d_56">
      <g>
       <use xlink:href="#m7b0ff903b6" x="60.468889" y="92.487373" style="stroke: #000000; stroke-width: 0.6"/>
      </g>
     </g>
    </g>
    <g id="ytick_31">
     <g id="line2d_57">
      <g>
       <use xlink:href="#m7b0ff903b6" x="60.468889" y="90.31117" style="stroke: #000000; stroke-width: 0.6"/>
      </g>
     </g>
    </g>
    <g id="ytick_32">
     <g id="line2d_58">
      <g>
       <use xlink:href="#m7b0ff903b6" x="60.468889" y="88.426058" style="stroke: #000000; stroke-width: 0.6"/>
      </g>
     </g>
    </g>
    <g id="ytick_33">
     <g id="line2d_59">
      <g>
       <use xlink:href="#m7b0ff903b6" x="60.468889" y="86.763271" style="stroke: #000000; stroke-width: 0.6"/>
      </g>
     </g>
    </g>
    <g id="ytick_34">
     <g id="line2d_60">
      <g>
       <use xlink:href="#m7b0ff903b6" x="60.468889" y="75.490441" style="stroke: #000000; stroke-width: 0.6"/>
      </g>
     </g>
    </g>
    <g id="ytick_35">
     <g id="line2d_61">
      <g>
       <use xlink:href="#m7b0ff903b6" x="60.468889" y="69.766339" style="stroke: #000000; stroke-width: 0.6"/>
      </g>
     </g>
    </g>
    <g id="ytick_36">
     <g id="line2d_62">
      <g>
       <use xlink:href="#m7b0ff903b6" x="60.468889" y="65.705025" style="stroke: #000000; stroke-width: 0.6"/>
      </g>
     </g>
    </g>
    <g id="ytick_37">
     <g id="line2d_63">
      <g>
       <use xlink:href="#m7b0ff903b6" x="60.468889" y="62.554824" style="stroke: #000000; stroke-width: 0.6"/>
      </g>
     </g>
    </g>
    <g id="ytick_38">
     <g id="line2d_64">
      <g>
       <use xlink:href="#m7b0ff903b6" x="60.468889" y="59.980923" style="stroke: #000000; stroke-width: 0.6"/>
      </g>
     </g>
    </g>
    <g id="ytick_39">
     <g id="line2d_65">
      <g>
       <use xlink:href="#m7b0ff903b6" x="60.468889" y="57.804721" style="stroke: #000000; stroke-width: 0.6"/>
      </g>
     </g>
    </g>
    <g id="ytick_40">
     <g id="line2d_66">
      <g>
       <use xlink:href="#m7b0ff903b6" x="60.468889" y="55.919608" style="stroke: #000000; stroke-width: 0.6"/>
      </g>
     </g>
    </g>
    <g id="ytick_41">
     <g id="line2d_67">
      <g>
       <use xlink:href="#m7b0ff903b6" x="60.468889" y="54.256821" style="stroke: #000000; stroke-width: 0.6"/>
      </g>
     </g>
    </g>
    <g id="ytick_42">
     <g id="line2d_68">
      <g>
       <use xlink:href="#m7b0ff903b6" x="60.468889" y="42.983992" style="stroke: #000000; stroke-width: 0.6"/>
      </g>
     </g>
    </g>
    <g id="ytick_43">
     <g id="line2d_69">
      <g>
       <use xlink:href="#m7b0ff903b6" x="60.468889" y="37.25989" style="stroke: #000000; stroke-width: 0.6"/>
      </g>
     </g>
    </g>
    <g id="ytick_44">
     <g id="line2d_70">
      <g>
       <use xlink:href="#m7b0ff903b6" x="60.468889" y="33.198575" style="stroke: #000000; stroke-width: 0.6"/>
      </g>
     </g>
    </g>
    <g id="ytick_45">
     <g id="line2d_71">
      <g>
       <use xlink:href="#m7b0ff903b6" x="60.468889" y="30.048375" style="stroke: #000000; stroke-width: 0.6"/>
      </g>
     </g>
    </g>
    <g id="ytick_46">
     <g id="line2d_72">
      <g>
       <use xlink:href="#m7b0ff903b6" x="60.468889" y="27.474474" style="stroke: #000000; stroke-width: 0.6"/>
      </g>
     </g>
    </g>
    <g id="text_6">
     <!-- e2 * dnde [TeV / (cm2 s)] -->
     <g transform="translate(19.489202 170.416088) rotate(-90) scale(0.1 -0.1)">
      <defs>
       <path id="DejaVuSans-65" d="M 3597 1894 
L 3597 1613 
L 953 1613 
Q 991 1019 1311 708 
Q 1631 397 2203 397 
Q 2534 397 2845 478 
Q 3156 559 3463 722 
L 3463 178 
Q 3153 47 2828 -22 
Q 2503 -91 2169 -91 
Q 1331 -91 842 396 
Q 353 884 353 1716 
Q 353 2575 817 3079 
Q 1281 3584 2069 3584 
Q 2775 3584 3186 3129 
Q 3597 2675 3597 1894 
z
M 3022 2063 
Q 3016 2534 2758 2815 
Q 2500 3097 2075 3097 
Q 1594 3097 1305 2825 
Q 1016 2553 972 2059 
L 3022 2063 
z
" transform="scale(0.015625)"/>
       <path id="DejaVuSans-20" transform="scale(0.015625)"/>
       <path id="DejaVuSans-2a" d="M 3009 3897 
L 1888 3291 
L 3009 2681 
L 2828 2375 
L 1778 3009 
L 1778 1831 
L 1422 1831 
L 1422 3009 
L 372 2375 
L 191 2681 
L 1313 3291 
L 191 3897 
L 372 4206 
L 1422 3572 
L 1422 4750 
L 1778 4750 
L 1778 3572 
L 2828 4206 
L 3009 3897 
z
" transform="scale(0.015625)"/>
       <path id="DejaVuSans-64" d="M 2906 2969 
L 2906 4863 
L 3481 4863 
L 3481 0 
L 2906 0 
L 2906 525 
Q 2725 213 2448 61 
Q 2172 -91 1784 -91 
Q 1150 -91 751 415 
Q 353 922 353 1747 
Q 353 2572 751 3078 
Q 1150 3584 1784 3584 
Q 2172 3584 2448 3432 
Q 2725 3281 2906 2969 
z
M 947 1747 
Q 947 1113 1208 752 
Q 1469 391 1925 391 
Q 2381 391 2643 752 
Q 2906 1113 2906 1747 
Q 2906 2381 2643 2742 
Q 2381 3103 1925 3103 
Q 1469 3103 1208 2742 
Q 947 2381 947 1747 
z
" transform="scale(0.015625)"/>
       <path id="DejaVuSans-6e" d="M 3513 2113 
L 3513 0 
L 2938 0 
L 2938 2094 
Q 2938 2591 2744 2837 
Q 2550 3084 2163 3084 
Q 1697 3084 1428 2787 
Q 1159 2491 1159 1978 
L 1159 0 
L 581 0 
L 581 3500 
L 1159 3500 
L 1159 2956 
Q 1366 3272 1645 3428 
Q 1925 3584 2291 3584 
Q 2894 3584 3203 3211 
Q 3513 2838 3513 2113 
z
" transform="scale(0.015625)"/>
       <path id="DejaVuSans-5b" d="M 550 4863 
L 1875 4863 
L 1875 4416 
L 1125 4416 
L 1125 -397 
L 1875 -397 
L 1875 -844 
L 550 -844 
L 550 4863 
z
" transform="scale(0.015625)"/>
       <path id="DejaVuSans-54" d="M -19 4666 
L 3928 4666 
L 3928 4134 
L 2272 4134 
L 2272 0 
L 1638 0 
L 1638 4134 
L -19 4134 
L -19 4666 
z
" transform="scale(0.015625)"/>
       <path id="DejaVuSans-56" d="M 1831 0 
L 50 4666 
L 709 4666 
L 2188 738 
L 3669 4666 
L 4325 4666 
L 2547 0 
L 1831 0 
z
" transform="scale(0.015625)"/>
       <path id="DejaVuSans-2f" d="M 1625 4666 
L 2156 4666 
L 531 -594 
L 0 -594 
L 1625 4666 
z
" transform="scale(0.015625)"/>
       <path id="DejaVuSans-28" d="M 1984 4856 
Q 1566 4138 1362 3434 
Q 1159 2731 1159 2009 
Q 1159 1288 1364 580 
Q 1569 -128 1984 -844 
L 1484 -844 
Q 1016 -109 783 600 
Q 550 1309 550 2009 
Q 550 2706 781 3412 
Q 1013 4119 1484 4856 
L 1984 4856 
z
" transform="scale(0.015625)"/>
       <path id="DejaVuSans-63" d="M 3122 3366 
L 3122 2828 
Q 2878 2963 2633 3030 
Q 2388 3097 2138 3097 
Q 1578 3097 1268 2742 
Q 959 2388 959 1747 
Q 959 1106 1268 751 
Q 1578 397 2138 397 
Q 2388 397 2633 464 
Q 2878 531 3122 666 
L 3122 134 
Q 2881 22 2623 -34 
Q 2366 -91 2075 -91 
Q 1284 -91 818 406 
Q 353 903 353 1747 
Q 353 2603 823 3093 
Q 1294 3584 2113 3584 
Q 2378 3584 2631 3529 
Q 2884 3475 3122 3366 
z
" transform="scale(0.015625)"/>
       <path id="DejaVuSans-6d" d="M 3328 2828 
Q 3544 3216 3844 3400 
Q 4144 3584 4550 3584 
Q 5097 3584 5394 3201 
Q 5691 2819 5691 2113 
L 5691 0 
L 5113 0 
L 5113 2094 
Q 5113 2597 4934 2840 
Q 4756 3084 4391 3084 
Q 3944 3084 3684 2787 
Q 3425 2491 3425 1978 
L 3425 0 
L 2847 0 
L 2847 2094 
Q 2847 2600 2669 2842 
Q 2491 3084 2119 3084 
Q 1678 3084 1418 2786 
Q 1159 2488 1159 1978 
L 1159 0 
L 581 0 
L 581 3500 
L 1159 3500 
L 1159 2956 
Q 1356 3278 1631 3431 
Q 1906 3584 2284 3584 
Q 2666 3584 2933 3390 
Q 3200 3197 3328 2828 
z
" transform="scale(0.015625)"/>
       <path id="DejaVuSans-73" d="M 2834 3397 
L 2834 2853 
Q 2591 2978 2328 3040 
Q 2066 3103 1784 3103 
Q 1356 3103 1142 2972 
Q 928 2841 928 2578 
Q 928 2378 1081 2264 
Q 1234 2150 1697 2047 
L 1894 2003 
Q 2506 1872 2764 1633 
Q 3022 1394 3022 966 
Q 3022 478 2636 193 
Q 2250 -91 1575 -91 
Q 1294 -91 989 -36 
Q 684 19 347 128 
L 347 722 
Q 666 556 975 473 
Q 1284 391 1588 391 
Q 1994 391 2212 530 
Q 2431 669 2431 922 
Q 2431 1156 2273 1281 
Q 2116 1406 1581 1522 
L 1381 1569 
Q 847 1681 609 1914 
Q 372 2147 372 2553 
Q 372 3047 722 3315 
Q 1072 3584 1716 3584 
Q 2034 3584 2315 3537 
Q 2597 3491 2834 3397 
z
" transform="scale(0.015625)"/>
       <path id="DejaVuSans-29" d="M 513 4856 
L 1013 4856 
Q 1481 4119 1714 3412 
Q 1947 2706 1947 2009 
Q 1947 1309 1714 600 
Q 1481 -109 1013 -844 
L 513 -844 
Q 928 -128 1133 580 
Q 1338 1288 1338 2009 
Q 1338 2731 1133 3434 
Q 928 4138 513 4856 
z
" transform="scale(0.015625)"/>
       <path id="DejaVuSans-5d" d="M 1947 4863 
L 1947 -844 
L 622 -844 
L 622 -397 
L 1369 -397 
L 1369 4416 
L 622 4416 
L 622 4863 
L 1947 4863 
z
" transform="scale(0.015625)"/>
      </defs>
      <use xlink:href="#DejaVuSans-65"/>
      <use xlink:href="#DejaVuSans-32" x="61.523438"/>
      <use xlink:href="#DejaVuSans-20" x="125.146484"/>
      <use xlink:href="#DejaVuSans-2a" x="156.933594"/>
      <use xlink:href="#DejaVuSans-20" x="206.933594"/>
      <use xlink:href="#DejaVuSans-64" x="238.720703"/>
      <use xlink:href="#DejaVuSans-6e" x="302.197266"/>
      <use xlink:href="#DejaVuSans-64" x="365.576172"/>
      <use xlink:href="#DejaVuSans-65" x="429.052734"/>
      <use xlink:href="#DejaVuSans-20" x="490.576172"/>
      <use xlink:href="#DejaVuSans-5b" x="522.363281"/>
      <use xlink:href="#DejaVuSans-54" x="561.376953"/>
      <use xlink:href="#DejaVuSans-65" x="605.460938"/>
      <use xlink:href="#DejaVuSans-56" x="666.984375"/>
      <use xlink:href="#DejaVuSans-20" x="735.392578"/>
      <use xlink:href="#DejaVuSans-2f" x="767.179688"/>
      <use xlink:href="#DejaVuSans-20" x="800.871094"/>
      <use xlink:href="#DejaVuSans-28" x="832.658203"/>
      <use xlink:href="#DejaVuSans-63" x="871.671875"/>
      <use xlink:href="#DejaVuSans-6d" x="926.652344"/>
      <use xlink:href="#DejaVuSans-32" x="1024.064453"/>
      <use xlink:href="#DejaVuSans-20" x="1087.6875"/>
      <use xlink:href="#DejaVuSans-73" x="1119.474609"/>
      <use xlink:href="#DejaVuSans-29" x="1171.574219"/>
      <use xlink:href="#DejaVuSans-5d" x="1210.587891"/>
     </g>
    </g>
   </g>
   <g id="line2d_73">
    <path d="M 74.882963 38.162982 
L 77.462828 38.228505 
L 80.042694 38.295515 
L 82.622559 38.364094 
L 85.202424 38.434332 
L 87.782289 38.506322 
L 90.362154 38.580161 
L 92.942019 38.655954 
L 95.521884 38.733811 
L 98.101749 38.813848 
L 100.681614 38.896187 
L 103.261479 38.980958 
L 105.841345 39.068298 
L 108.42121 39.15835 
L 111.001075 39.251267 
L 113.58094 39.347211 
L 116.160805 39.446351 
L 118.74067 39.548867 
L 121.320535 39.654949 
L 123.9004 39.764798 
L 126.480265 39.878624 
L 129.06013 39.996652 
L 131.639996 40.119118 
L 134.219861 40.246271 
L 136.799726 40.378375 
L 139.379591 40.515708 
L 141.959456 40.658563 
L 144.539321 40.807252 
L 147.119186 40.962102 
L 149.699051 41.12346 
L 152.278916 41.291691 
L 154.858781 41.467182 
L 157.438647 41.65034 
L 160.018512 41.841597 
L 162.598377 42.041408 
L 165.178242 42.250253 
L 167.758107 42.468642 
L 170.337972 42.697109 
L 172.917837 42.936222 
L 175.497702 43.186578 
L 178.077567 43.448811 
L 180.657432 43.723586 
L 183.237298 44.011611 
L 185.817163 44.313628 
L 188.397028 44.630425 
L 190.976893 44.962833 
L 193.556758 45.311728 
L 196.136623 45.678039 
L 198.716488 46.062742 
L 201.296353 46.466874 
L 203.876218 46.891524 
L 206.456083 47.337848 
L 209.035949 47.807062 
L 211.615814 48.300455 
L 214.195679 48.819384 
L 216.775544 49.365285 
L 219.355409 49.939674 
L 221.935274 50.544153 
L 224.515139 51.180413 
L 227.095004 51.85024 
L 229.674869 52.555521 
L 232.254735 53.298249 
L 234.8346 54.080529 
L 237.414465 54.904583 
L 239.99433 55.772761 
L 242.574195 56.687542 
L 245.15406 57.651545 
L 247.733925 58.667538 
L 250.31379 59.738443 
L 252.893655 60.867346 
L 255.47352 62.057508 
L 258.053386 63.312371 
L 260.633251 64.635573 
L 263.213116 66.030955 
L 265.792981 67.502573 
L 268.372846 69.054714 
L 270.952711 70.691903 
L 273.532576 72.418921 
L 276.112441 74.240817 
L 278.692306 76.162924 
L 281.272171 78.190875 
L 283.852037 80.330619 
L 286.431902 82.58844 
L 289.011767 84.970975 
L 291.591632 87.485234 
L 294.171497 90.138622 
L 296.751362 92.938959 
L 299.331227 95.894504 
L 301.911092 99.013981 
L 304.490957 102.306606 
L 307.070822 105.782111 
L 309.650688 109.450775 
L 312.230553 113.323455 
L 314.810418 117.41162 
L 317.390283 121.727382 
L 319.970148 126.283533 
L 322.550013 131.093585 
L 325.129878 136.171811 
L 327.709743 141.533284 
L 330.289608 147.193926 
" clip-path="url(#p3bf6927e9c)" style="fill: none; stroke-dasharray: 1.5,2.475; stroke-dashoffset: 0; stroke: #000000; stroke-width: 1.5"/>
   </g>
   <g id="LineCollection_1">
    <path clip-path="url(#p3bf6927e9c)" style="fill: none; stroke: #006400; stroke-width: 1.5"/>
    <path clip-path="url(#p3bf6927e9c)" style="fill: none; stroke: #006400; stroke-width: 1.5"/>
    <path clip-path="url(#p3bf6927e9c)" style="fill: none; stroke: #006400; stroke-width: 1.5"/>
    <path clip-path="url(#p3bf6927e9c)" style="fill: none; stroke: #006400; stroke-width: 1.5"/>
    <path d="M 73.593031 39.791276 
L 73.593031 36.644371 
" clip-path="url(#p3bf6927e9c)" style="fill: none; stroke: #006400; stroke-width: 1.5"/>
    <path d="M 87.171269 40.024393 
L 87.171269 37.109074 
" clip-path="url(#p3bf6927e9c)" style="fill: none; stroke: #006400; stroke-width: 1.5"/>
    <path d="M 100.749505 40.397643 
L 100.749505 37.546939 
" clip-path="url(#p3bf6927e9c)" style="fill: none; stroke: #006400; stroke-width: 1.5"/>
    <path d="M 114.327742 40.874065 
L 114.327742 38.013921 
" clip-path="url(#p3bf6927e9c)" style="fill: none; stroke: #006400; stroke-width: 1.5"/>
    <path d="M 127.905981 41.496603 
L 127.905981 38.544185 
" clip-path="url(#p3bf6927e9c)" style="fill: none; stroke: #006400; stroke-width: 1.5"/>
    <path d="M 141.484219 42.238801 
L 141.484219 39.18747 
" clip-path="url(#p3bf6927e9c)" style="fill: none; stroke: #006400; stroke-width: 1.5"/>
    <path d="M 155.062455 43.190182 
L 155.062455 39.957264 
" clip-path="url(#p3bf6927e9c)" style="fill: none; stroke: #006400; stroke-width: 1.5"/>
    <path d="M 168.640692 44.379022 
L 168.640692 40.919897 
" clip-path="url(#p3bf6927e9c)" style="fill: none; stroke: #006400; stroke-width: 1.5"/>
    <path d="M 182.218931 45.897976 
L 182.218931 42.138659 
" clip-path="url(#p3bf6927e9c)" style="fill: none; stroke: #006400; stroke-width: 1.5"/>
    <path d="M 195.797168 47.876309 
L 195.797168 43.688377 
" clip-path="url(#p3bf6927e9c)" style="fill: none; stroke: #006400; stroke-width: 1.5"/>
    <path d="M 209.375404 50.484524 
L 209.375404 45.669596 
" clip-path="url(#p3bf6927e9c)" style="fill: none; stroke: #006400; stroke-width: 1.5"/>
    <path d="M 222.953642 53.888131 
L 222.953642 48.266297 
" clip-path="url(#p3bf6927e9c)" style="fill: none; stroke: #006400; stroke-width: 1.5"/>
    <path d="M 236.53188 58.51068 
L 236.53188 51.580002 
" clip-path="url(#p3bf6927e9c)" style="fill: none; stroke: #006400; stroke-width: 1.5"/>
    <path d="M 250.110119 64.966496 
L 250.110119 55.810335 
" clip-path="url(#p3bf6927e9c)" style="fill: none; stroke: #006400; stroke-width: 1.5"/>
    <path d="M 263.688356 74.386064 
L 263.688356 61.203331 
" clip-path="url(#p3bf6927e9c)" style="fill: none; stroke: #006400; stroke-width: 1.5"/>
    <path d="M 277.266592 91.192127 
L 277.266592 67.773395 
" clip-path="url(#p3bf6927e9c)" style="fill: none; stroke: #006400; stroke-width: 1.5"/>
    <path d="M 290.844829 361 
L 290.844829 75.604781 
" clip-path="url(#p3bf6927e9c)" style="fill: none; stroke: #006400; stroke-width: 1.5"/>
    <path d="M 304.423067 361 
L 304.423067 84.333495 
" clip-path="url(#p3bf6927e9c)" style="fill: none; stroke: #006400; stroke-width: 1.5"/>
    <path d="M 318.001303 361 
L 318.001303 92.939602 
" clip-path="url(#p3bf6927e9c)" style="fill: none; stroke: #006400; stroke-width: 1.5"/>
    <path d="M 331.579541 361 
L 331.579541 100.201341 
" clip-path="url(#p3bf6927e9c)" style="fill: none; stroke: #006400; stroke-width: 1.5"/>
   </g>
   <g id="LineCollection_2">
    <path clip-path="url(#p3bf6927e9c)" style="fill: none; stroke: #8b0000; stroke-width: 1.5"/>
    <path clip-path="url(#p3bf6927e9c)" style="fill: none; stroke: #8b0000; stroke-width: 1.5"/>
    <path clip-path="url(#p3bf6927e9c)" style="fill: none; stroke: #8b0000; stroke-width: 1.5"/>
    <path clip-path="url(#p3bf6927e9c)" style="fill: none; stroke: #8b0000; stroke-width: 1.5"/>
    <path d="M 75.894737 39.038447 
L 75.894737 37.277912 
" clip-path="url(#p3bf6927e9c)" style="fill: none; stroke: #8b0000; stroke-width: 1.5"/>
    <path d="M 89.472975 39.283879 
L 89.472975 37.736676 
" clip-path="url(#p3bf6927e9c)" style="fill: none; stroke: #8b0000; stroke-width: 1.5"/>
    <path d="M 103.051212 39.670412 
L 103.051212 38.1664 
" clip-path="url(#p3bf6927e9c)" style="fill: none; stroke: #8b0000; stroke-width: 1.5"/>
    <path d="M 116.629449 40.154659 
L 116.629449 38.637224 
" clip-path="url(#p3bf6927e9c)" style="fill: none; stroke: #8b0000; stroke-width: 1.5"/>
    <path d="M 130.207688 40.770666 
L 130.207688 39.161752 
" clip-path="url(#p3bf6927e9c)" style="fill: none; stroke: #8b0000; stroke-width: 1.5"/>
    <path d="M 143.785925 41.51761 
L 143.785925 39.798308 
" clip-path="url(#p3bf6927e9c)" style="fill: none; stroke: #8b0000; stroke-width: 1.5"/>
    <path d="M 157.364161 42.471034 
L 157.364161 40.556509 
" clip-path="url(#p3bf6927e9c)" style="fill: none; stroke: #8b0000; stroke-width: 1.5"/>
    <path d="M 170.942399 43.672056 
L 170.942399 41.50246 
" clip-path="url(#p3bf6927e9c)" style="fill: none; stroke: #8b0000; stroke-width: 1.5"/>
    <path d="M 184.520638 45.21195 
L 184.520638 42.692816 
" clip-path="url(#p3bf6927e9c)" style="fill: none; stroke: #8b0000; stroke-width: 1.5"/>
    <path d="M 198.098874 47.225207 
L 198.098874 44.194716 
" clip-path="url(#p3bf6927e9c)" style="fill: none; stroke: #8b0000; stroke-width: 1.5"/>
    <path d="M 211.67711 49.877274 
L 211.67711 46.113934 
" clip-path="url(#p3bf6927e9c)" style="fill: none; stroke: #8b0000; stroke-width: 1.5"/>
    <path d="M 225.255348 53.320942 
L 225.255348 48.646993 
" clip-path="url(#p3bf6927e9c)" style="fill: none; stroke: #8b0000; stroke-width: 1.5"/>
    <path d="M 238.833587 57.996408 
L 238.833587 51.893697 
" clip-path="url(#p3bf6927e9c)" style="fill: none; stroke: #8b0000; stroke-width: 1.5"/>
    <path d="M 252.411825 64.498702 
L 252.411825 56.050458 
" clip-path="url(#p3bf6927e9c)" style="fill: none; stroke: #8b0000; stroke-width: 1.5"/>
    <path d="M 265.990063 73.929516 
L 265.990063 61.3691 
" clip-path="url(#p3bf6927e9c)" style="fill: none; stroke: #8b0000; stroke-width: 1.5"/>
    <path d="M 279.568299 90.597853 
L 279.568299 67.876406 
" clip-path="url(#p3bf6927e9c)" style="fill: none; stroke: #8b0000; stroke-width: 1.5"/>
    <path d="M 293.146536 361 
L 293.146536 75.643065 
" clip-path="url(#p3bf6927e9c)" style="fill: none; stroke: #8b0000; stroke-width: 1.5"/>
    <path d="M 306.724773 361 
L 306.724773 84.337757 
" clip-path="url(#p3bf6927e9c)" style="fill: none; stroke: #8b0000; stroke-width: 1.5"/>
    <path d="M 320.303009 361 
L 320.303009 92.880681 
" clip-path="url(#p3bf6927e9c)" style="fill: none; stroke: #8b0000; stroke-width: 1.5"/>
    <path d="M 333.881248 361 
L 333.881248 100.125678 
" clip-path="url(#p3bf6927e9c)" style="fill: none; stroke: #8b0000; stroke-width: 1.5"/>
   </g>
   <g id="LineCollection_3">
    <path clip-path="url(#p3bf6927e9c)" style="fill: none; stroke: #1f77b4; stroke-width: 1.5"/>
    <path clip-path="url(#p3bf6927e9c)" style="fill: none; stroke: #1f77b4; stroke-width: 1.5"/>
    <path clip-path="url(#p3bf6927e9c)" style="fill: none; stroke: #1f77b4; stroke-width: 1.5"/>
    <path clip-path="url(#p3bf6927e9c)" style="fill: none; stroke: #1f77b4; stroke-width: 1.5"/>
    <path d="M 78.089348 39.900289 
L 78.089348 36.417911 
" clip-path="url(#p3bf6927e9c)" style="fill: none; stroke: #1f77b4; stroke-width: 1.5"/>
    <path d="M 91.667586 40.16811 
L 91.667586 36.803449 
" clip-path="url(#p3bf6927e9c)" style="fill: none; stroke: #1f77b4; stroke-width: 1.5"/>
    <path d="M 105.245823 40.556934 
L 105.245823 37.276442 
" clip-path="url(#p3bf6927e9c)" style="fill: none; stroke: #1f77b4; stroke-width: 1.5"/>
    <path d="M 118.82406 41.009663 
L 118.82406 37.731322 
" clip-path="url(#p3bf6927e9c)" style="fill: none; stroke: #1f77b4; stroke-width: 1.5"/>
    <path d="M 132.402299 41.630709 
L 132.402299 38.302003 
" clip-path="url(#p3bf6927e9c)" style="fill: none; stroke: #1f77b4; stroke-width: 1.5"/>
    <path d="M 145.980536 42.375312 
L 145.980536 38.983325 
" clip-path="url(#p3bf6927e9c)" style="fill: none; stroke: #1f77b4; stroke-width: 1.5"/>
    <path d="M 159.558772 43.281432 
L 159.558772 39.754318 
" clip-path="url(#p3bf6927e9c)" style="fill: none; stroke: #1f77b4; stroke-width: 1.5"/>
    <path d="M 173.13701 44.410499 
L 173.13701 40.790568 
" clip-path="url(#p3bf6927e9c)" style="fill: none; stroke: #1f77b4; stroke-width: 1.5"/>
    <path d="M 186.715249 45.847614 
L 186.715249 42.038207 
" clip-path="url(#p3bf6927e9c)" style="fill: none; stroke: #1f77b4; stroke-width: 1.5"/>
    <path d="M 200.293485 47.946357 
L 200.293485 43.580544 
" clip-path="url(#p3bf6927e9c)" style="fill: none; stroke: #1f77b4; stroke-width: 1.5"/>
    <path d="M 213.871721 50.471585 
L 213.871721 45.404436 
" clip-path="url(#p3bf6927e9c)" style="fill: none; stroke: #1f77b4; stroke-width: 1.5"/>
    <path d="M 227.449959 53.758247 
L 227.449959 48.159472 
" clip-path="url(#p3bf6927e9c)" style="fill: none; stroke: #1f77b4; stroke-width: 1.5"/>
    <path d="M 241.028198 58.540871 
L 241.028198 51.310727 
" clip-path="url(#p3bf6927e9c)" style="fill: none; stroke: #1f77b4; stroke-width: 1.5"/>
    <path d="M 254.606436 65.163359 
L 254.606436 55.842472 
" clip-path="url(#p3bf6927e9c)" style="fill: none; stroke: #1f77b4; stroke-width: 1.5"/>
    <path d="M 268.184674 74.260991 
L 268.184674 61.090475 
" clip-path="url(#p3bf6927e9c)" style="fill: none; stroke: #1f77b4; stroke-width: 1.5"/>
    <path d="M 281.76291 94.459462 
L 281.76291 67.591976 
" clip-path="url(#p3bf6927e9c)" style="fill: none; stroke: #1f77b4; stroke-width: 1.5"/>
    <path clip-path="url(#p3bf6927e9c)" style="fill: none; stroke: #1f77b4; stroke-width: 1.5"/>
    <path clip-path="url(#p3bf6927e9c)" style="fill: none; stroke: #1f77b4; stroke-width: 1.5"/>
    <path d="M 322.49762 361 
L 322.49762 57.511614 
" clip-path="url(#p3bf6927e9c)" style="fill: none; stroke: #1f77b4; stroke-width: 1.5"/>
    <path d="M 336.075859 361 
L 336.075859 43.497415 
" clip-path="url(#p3bf6927e9c)" style="fill: none; stroke: #1f77b4; stroke-width: 1.5"/>
   </g>
   <g id="line2d_74">
    <defs>
     <path id="m9fe6f3ff18" d="M -3 3 
L 3 -3 
M -3 -3 
L 3 3 
" style="stroke: #006400"/>
    </defs>
    <g clip-path="url(#p3bf6927e9c)">
     <use xlink:href="#m9fe6f3ff18" x="73.593031" y="38.13032" style="fill: #006400; stroke: #006400"/>
     <use xlink:href="#m9fe6f3ff18" x="87.171269" y="38.491613" style="fill: #006400; stroke: #006400"/>
     <use xlink:href="#m9fe6f3ff18" x="100.749505" y="38.900458" style="fill: #006400; stroke: #006400"/>
     <use xlink:href="#m9fe6f3ff18" x="114.327742" y="39.371684" style="fill: #006400; stroke: #006400"/>
     <use xlink:href="#m9fe6f3ff18" x="127.905981" y="39.943353" style="fill: #006400; stroke: #006400"/>
     <use xlink:href="#m9fe6f3ff18" x="141.484219" y="40.630856" style="fill: #006400; stroke: #006400"/>
     <use xlink:href="#m9fe6f3ff18" x="155.062455" y="41.481381" style="fill: #006400; stroke: #006400"/>
     <use xlink:href="#m9fe6f3ff18" x="168.640692" y="42.543776" style="fill: #006400; stroke: #006400"/>
     <use xlink:href="#m9fe6f3ff18" x="182.218931" y="43.893552" style="fill: #006400; stroke: #006400"/>
     <use xlink:href="#m9fe6f3ff18" x="195.797168" y="45.627615" style="fill: #006400; stroke: #006400"/>
     <use xlink:href="#m9fe6f3ff18" x="209.375404" y="47.872772" style="fill: #006400; stroke: #006400"/>
     <use xlink:href="#m9fe6f3ff18" x="222.953642" y="50.799202" style="fill: #006400; stroke: #006400"/>
     <use xlink:href="#m9fe6f3ff18" x="236.53188" y="54.624233" style="fill: #006400; stroke: #006400"/>
     <use xlink:href="#m9fe6f3ff18" x="250.110119" y="59.658766" style="fill: #006400; stroke: #006400"/>
     <use xlink:href="#m9fe6f3ff18" x="263.688356" y="66.308808" style="fill: #006400; stroke: #006400"/>
     <use xlink:href="#m9fe6f3ff18" x="277.266592" y="75.098825" style="fill: #006400; stroke: #006400"/>
     <use xlink:href="#m9fe6f3ff18" x="290.844829" y="86.768981" style="fill: #006400; stroke: #006400"/>
     <use xlink:href="#m9fe6f3ff18" x="304.423067" y="102.244459" style="fill: #006400; stroke: #006400"/>
     <use xlink:href="#m9fe6f3ff18" x="318.001303" y="122.83915" style="fill: #006400; stroke: #006400"/>
     <use xlink:href="#m9fe6f3ff18" x="331.579541" y="150.217674" style="fill: #006400; stroke: #006400"/>
    </g>
   </g>
   <g id="line2d_75">
    <defs>
     <path id="m7e9f14b12d" d="M -3 3 
L 3 -3 
M -3 -3 
L 3 3 
" style="stroke: #8b0000"/>
    </defs>
    <g clip-path="url(#p3bf6927e9c)">
     <use xlink:href="#m7e9f14b12d" x="75.894737" y="38.130754" style="fill: #8b0000; stroke: #8b0000"/>
     <use xlink:href="#m7e9f14b12d" x="89.472975" y="38.489092" style="fill: #8b0000; stroke: #8b0000"/>
     <use xlink:href="#m7e9f14b12d" x="103.051212" y="38.898386" style="fill: #8b0000; stroke: #8b0000"/>
     <use xlink:href="#m7e9f14b12d" x="116.629449" y="39.375563" style="fill: #8b0000; stroke: #8b0000"/>
     <use xlink:href="#m7e9f14b12d" x="130.207688" y="39.943301" style="fill: #8b0000; stroke: #8b0000"/>
     <use xlink:href="#m7e9f14b12d" x="143.785925" y="40.631802" style="fill: #8b0000; stroke: #8b0000"/>
     <use xlink:href="#m7e9f14b12d" x="157.364161" y="41.481342" style="fill: #8b0000; stroke: #8b0000"/>
     <use xlink:href="#m7e9f14b12d" x="170.942399" y="42.54562" style="fill: #8b0000; stroke: #8b0000"/>
     <use xlink:href="#m7e9f14b12d" x="184.520638" y="43.896268" style="fill: #8b0000; stroke: #8b0000"/>
     <use xlink:href="#m7e9f14b12d" x="198.098874" y="45.6288" style="fill: #8b0000; stroke: #8b0000"/>
     <use xlink:href="#m7e9f14b12d" x="211.67711" y="47.870572" style="fill: #8b0000; stroke: #8b0000"/>
     <use xlink:href="#m7e9f14b12d" x="225.255348" y="50.791415" style="fill: #8b0000; stroke: #8b0000"/>
     <use xlink:href="#m7e9f14b12d" x="238.833587" y="54.617826" style="fill: #8b0000; stroke: #8b0000"/>
     <use xlink:href="#m7e9f14b12d" x="252.411825" y="59.651832" style="fill: #8b0000; stroke: #8b0000"/>
     <use xlink:href="#m7e9f14b12d" x="265.990063" y="66.296191" style="fill: #8b0000; stroke: #8b0000"/>
     <use xlink:href="#m7e9f14b12d" x="279.568299" y="75.08799" style="fill: #8b0000; stroke: #8b0000"/>
     <use xlink:href="#m7e9f14b12d" x="293.146536" y="86.74345" style="fill: #8b0000; stroke: #8b0000"/>
     <use xlink:href="#m7e9f14b12d" x="306.724773" y="102.217659" style="fill: #8b0000; stroke: #8b0000"/>
     <use xlink:href="#m7e9f14b12d" x="320.303009" y="122.784252" style="fill: #8b0000; stroke: #8b0000"/>
     <use xlink:href="#m7e9f14b12d" x="333.881248" y="150.141654" style="fill: #8b0000; stroke: #8b0000"/>
    </g>
   </g>
   <g id="line2d_76">
    <path d="M 78.089348 38.051995 
L 91.667586 38.385776 
L 105.245823 38.821615 
L 118.82406 39.275544 
L 132.402299 39.868474 
L 145.980536 40.577688 
L 159.558772 41.408008 
L 173.13701 42.484823 
L 186.715249 43.814808 
L 200.293485 45.595352 
L 213.871721 47.711877 
L 227.449959 50.683109 
L 241.028198 54.46791 
L 254.606436 59.747239 
L 268.184674 66.192504 
L 281.76291 75.415397 
" clip-path="url(#p3bf6927e9c)" style="fill: none; stroke: #1f77b4; stroke-width: 1.5; stroke-linecap: square"/>
   </g>
   <g id="patch_3">
    <path d="M 60.468889 190.4328 
L 60.468889 25.44 
" style="fill: none; stroke: #000000; stroke-width: 0.8; stroke-linejoin: miter; stroke-linecap: square"/>
   </g>
   <g id="patch_4">
    <path d="M 349.2 190.4328 
L 349.2 25.44 
" style="fill: none; stroke: #000000; stroke-width: 0.8; stroke-linejoin: miter; stroke-linecap: square"/>
   </g>
   <g id="patch_5">
    <path d="M 60.468889 190.4328 
L 349.2 190.4328 
" style="fill: none; stroke: #000000; stroke-width: 0.8; stroke-linejoin: miter; stroke-linecap: square"/>
   </g>
   <g id="patch_6">
    <path d="M 60.468889 25.44 
L 349.2 25.44 
" style="fill: none; stroke: #000000; stroke-width: 0.8; stroke-linejoin: miter; stroke-linecap: square"/>
   </g>
   <g id="text_7">
    <!-- N = 900; (p=0.055) -->
    <g transform="translate(145.427882 19.44) scale(0.12 -0.12)">
     <defs>
      <path id="DejaVuSans-4e" d="M 628 4666 
L 1478 4666 
L 3547 763 
L 3547 4666 
L 4159 4666 
L 4159 0 
L 3309 0 
L 1241 3903 
L 1241 0 
L 628 0 
L 628 4666 
z
" transform="scale(0.015625)"/>
      <path id="DejaVuSans-3d" d="M 678 2906 
L 4684 2906 
L 4684 2381 
L 678 2381 
L 678 2906 
z
M 678 1631 
L 4684 1631 
L 4684 1100 
L 678 1100 
L 678 1631 
z
" transform="scale(0.015625)"/>
      <path id="DejaVuSans-39" d="M 703 97 
L 703 672 
Q 941 559 1184 500 
Q 1428 441 1663 441 
Q 2288 441 2617 861 
Q 2947 1281 2994 2138 
Q 2813 1869 2534 1725 
Q 2256 1581 1919 1581 
Q 1219 1581 811 2004 
Q 403 2428 403 3163 
Q 403 3881 828 4315 
Q 1253 4750 1959 4750 
Q 2769 4750 3195 4129 
Q 3622 3509 3622 2328 
Q 3622 1225 3098 567 
Q 2575 -91 1691 -91 
Q 1453 -91 1209 -44 
Q 966 3 703 97 
z
M 1959 2075 
Q 2384 2075 2632 2365 
Q 2881 2656 2881 3163 
Q 2881 3666 2632 3958 
Q 2384 4250 1959 4250 
Q 1534 4250 1286 3958 
Q 1038 3666 1038 3163 
Q 1038 2656 1286 2365 
Q 1534 2075 1959 2075 
z
" transform="scale(0.015625)"/>
      <path id="DejaVuSans-3b" d="M 750 3309 
L 1409 3309 
L 1409 2516 
L 750 2516 
L 750 3309 
z
M 750 794 
L 1409 794 
L 1409 256 
L 897 -744 
L 494 -744 
L 750 256 
L 750 794 
z
" transform="scale(0.015625)"/>
      <path id="DejaVuSans-70" d="M 1159 525 
L 1159 -1331 
L 581 -1331 
L 581 3500 
L 1159 3500 
L 1159 2969 
Q 1341 3281 1617 3432 
Q 1894 3584 2278 3584 
Q 2916 3584 3314 3078 
Q 3713 2572 3713 1747 
Q 3713 922 3314 415 
Q 2916 -91 2278 -91 
Q 1894 -91 1617 61 
Q 1341 213 1159 525 
z
M 3116 1747 
Q 3116 2381 2855 2742 
Q 2594 3103 2138 3103 
Q 1681 3103 1420 2742 
Q 1159 2381 1159 1747 
Q 1159 1113 1420 752 
Q 1681 391 2138 391 
Q 2594 391 2855 752 
Q 3116 1113 3116 1747 
z
" transform="scale(0.015625)"/>
      <path id="DejaVuSans-2e" d="M 684 794 
L 1344 794 
L 1344 0 
L 684 0 
L 684 794 
z
" transform="scale(0.015625)"/>
     </defs>
     <use xlink:href="#DejaVuSans-4e"/>
     <use xlink:href="#DejaVuSans-20" x="74.804688"/>
     <use xlink:href="#DejaVuSans-3d" x="106.591797"/>
     <use xlink:href="#DejaVuSans-20" x="190.380859"/>
     <use xlink:href="#DejaVuSans-39" x="222.167969"/>
     <use xlink:href="#DejaVuSans-30" x="285.791016"/>
     <use xlink:href="#DejaVuSans-30" x="349.414062"/>
     <use xlink:href="#DejaVuSans-3b" x="413.037109"/>
     <use xlink:href="#DejaVuSans-20" x="446.728516"/>
     <use xlink:href="#DejaVuSans-28" x="478.515625"/>
     <use xlink:href="#DejaVuSans-70" x="517.529297"/>
     <use xlink:href="#DejaVuSans-3d" x="581.005859"/>
     <use xlink:href="#DejaVuSans-30" x="664.794922"/>
     <use xlink:href="#DejaVuSans-2e" x="728.417969"/>
     <use xlink:href="#DejaVuSans-30" x="760.205078"/>
     <use xlink:href="#DejaVuSans-35" x="823.828125"/>
     <use xlink:href="#DejaVuSans-35" x="887.451172"/>
     <use xlink:href="#DejaVuSans-29" x="951.074219"/>
    </g>
   </g>
   <g id="legend_1">
    <g id="patch_7">
     <path d="M 67.468889 185.4328 
L 200.068889 185.4328 
Q 202.068889 185.4328 202.068889 183.4328 
L 202.068889 125.699988 
Q 202.068889 123.699988 200.068889 123.699988 
L 67.468889 123.699988 
Q 65.468889 123.699988 65.468889 125.699988 
L 65.468889 183.4328 
Q 65.468889 185.4328 67.468889 185.4328 
z
" style="fill: #ffffff; opacity: 0.8; stroke: #cccccc; stroke-linejoin: miter"/>
    </g>
    <g id="line2d_77">
     <path d="M 69.468889 131.798425 
L 79.468889 131.798425 
L 89.468889 131.798425 
" style="fill: none; stroke-dasharray: 1.5,2.475; stroke-dashoffset: 0; stroke: #000000; stroke-width: 1.5"/>
    </g>
    <g id="text_8">
     <!-- Input -->
     <g transform="translate(97.468889 135.298425) scale(0.1 -0.1)">
      <defs>
       <path id="DejaVuSans-49" d="M 628 4666 
L 1259 4666 
L 1259 0 
L 628 0 
L 628 4666 
z
" transform="scale(0.015625)"/>
       <path id="DejaVuSans-75" d="M 544 1381 
L 544 3500 
L 1119 3500 
L 1119 1403 
Q 1119 906 1312 657 
Q 1506 409 1894 409 
Q 2359 409 2629 706 
Q 2900 1003 2900 1516 
L 2900 3500 
L 3475 3500 
L 3475 0 
L 2900 0 
L 2900 538 
Q 2691 219 2414 64 
Q 2138 -91 1772 -91 
Q 1169 -91 856 284 
Q 544 659 544 1381 
z
M 1991 3584 
L 1991 3584 
z
" transform="scale(0.015625)"/>
       <path id="DejaVuSans-74" d="M 1172 4494 
L 1172 3500 
L 2356 3500 
L 2356 3053 
L 1172 3053 
L 1172 1153 
Q 1172 725 1289 603 
Q 1406 481 1766 481 
L 2356 481 
L 2356 0 
L 1766 0 
Q 1100 0 847 248 
Q 594 497 594 1153 
L 594 3053 
L 172 3053 
L 172 3500 
L 594 3500 
L 594 4494 
L 1172 4494 
z
" transform="scale(0.015625)"/>
      </defs>
      <use xlink:href="#DejaVuSans-49"/>
      <use xlink:href="#DejaVuSans-6e" x="29.492188"/>
      <use xlink:href="#DejaVuSans-70" x="92.871094"/>
      <use xlink:href="#DejaVuSans-75" x="156.347656"/>
      <use xlink:href="#DejaVuSans-74" x="219.726562"/>
     </g>
    </g>
    <g id="LineCollection_4">
     <path d="M 79.468889 151.47655 
L 79.468889 141.47655 
" style="fill: none; stroke: #006400; stroke-width: 1.5"/>
    </g>
    <g id="line2d_78"/>
    <g id="line2d_79">
     <g>
      <use xlink:href="#m9fe6f3ff18" x="79.468889" y="146.47655" style="fill: #006400; stroke: #006400"/>
     </g>
    </g>
    <g id="text_9">
     <!-- Fluxpoints Nuisance -->
     <g transform="translate(97.468889 149.97655) scale(0.1 -0.1)">
      <defs>
       <path id="DejaVuSans-46" d="M 628 4666 
L 3309 4666 
L 3309 4134 
L 1259 4134 
L 1259 2759 
L 3109 2759 
L 3109 2228 
L 1259 2228 
L 1259 0 
L 628 0 
L 628 4666 
z
" transform="scale(0.015625)"/>
       <path id="DejaVuSans-6c" d="M 603 4863 
L 1178 4863 
L 1178 0 
L 603 0 
L 603 4863 
z
" transform="scale(0.015625)"/>
       <path id="DejaVuSans-78" d="M 3513 3500 
L 2247 1797 
L 3578 0 
L 2900 0 
L 1881 1375 
L 863 0 
L 184 0 
L 1544 1831 
L 300 3500 
L 978 3500 
L 1906 2253 
L 2834 3500 
L 3513 3500 
z
" transform="scale(0.015625)"/>
       <path id="DejaVuSans-6f" d="M 1959 3097 
Q 1497 3097 1228 2736 
Q 959 2375 959 1747 
Q 959 1119 1226 758 
Q 1494 397 1959 397 
Q 2419 397 2687 759 
Q 2956 1122 2956 1747 
Q 2956 2369 2687 2733 
Q 2419 3097 1959 3097 
z
M 1959 3584 
Q 2709 3584 3137 3096 
Q 3566 2609 3566 1747 
Q 3566 888 3137 398 
Q 2709 -91 1959 -91 
Q 1206 -91 779 398 
Q 353 888 353 1747 
Q 353 2609 779 3096 
Q 1206 3584 1959 3584 
z
" transform="scale(0.015625)"/>
       <path id="DejaVuSans-69" d="M 603 3500 
L 1178 3500 
L 1178 0 
L 603 0 
L 603 3500 
z
M 603 4863 
L 1178 4863 
L 1178 4134 
L 603 4134 
L 603 4863 
z
" transform="scale(0.015625)"/>
       <path id="DejaVuSans-61" d="M 2194 1759 
Q 1497 1759 1228 1600 
Q 959 1441 959 1056 
Q 959 750 1161 570 
Q 1363 391 1709 391 
Q 2188 391 2477 730 
Q 2766 1069 2766 1631 
L 2766 1759 
L 2194 1759 
z
M 3341 1997 
L 3341 0 
L 2766 0 
L 2766 531 
Q 2569 213 2275 61 
Q 1981 -91 1556 -91 
Q 1019 -91 701 211 
Q 384 513 384 1019 
Q 384 1609 779 1909 
Q 1175 2209 1959 2209 
L 2766 2209 
L 2766 2266 
Q 2766 2663 2505 2880 
Q 2244 3097 1772 3097 
Q 1472 3097 1187 3025 
Q 903 2953 641 2809 
L 641 3341 
Q 956 3463 1253 3523 
Q 1550 3584 1831 3584 
Q 2591 3584 2966 3190 
Q 3341 2797 3341 1997 
z
" transform="scale(0.015625)"/>
      </defs>
      <use xlink:href="#DejaVuSans-46"/>
      <use xlink:href="#DejaVuSans-6c" x="57.519531"/>
      <use xlink:href="#DejaVuSans-75" x="85.302734"/>
      <use xlink:href="#DejaVuSans-78" x="148.681641"/>
      <use xlink:href="#DejaVuSans-70" x="207.861328"/>
      <use xlink:href="#DejaVuSans-6f" x="271.337891"/>
      <use xlink:href="#DejaVuSans-69" x="332.519531"/>
      <use xlink:href="#DejaVuSans-6e" x="360.302734"/>
      <use xlink:href="#DejaVuSans-74" x="423.681641"/>
      <use xlink:href="#DejaVuSans-73" x="462.890625"/>
      <use xlink:href="#DejaVuSans-20" x="514.990234"/>
      <use xlink:href="#DejaVuSans-4e" x="546.777344"/>
      <use xlink:href="#DejaVuSans-75" x="621.582031"/>
      <use xlink:href="#DejaVuSans-69" x="684.960938"/>
      <use xlink:href="#DejaVuSans-73" x="712.744141"/>
      <use xlink:href="#DejaVuSans-61" x="764.84375"/>
      <use xlink:href="#DejaVuSans-6e" x="826.123047"/>
      <use xlink:href="#DejaVuSans-63" x="889.501953"/>
      <use xlink:href="#DejaVuSans-65" x="944.482422"/>
     </g>
    </g>
    <g id="LineCollection_5">
     <path d="M 79.468889 166.154675 
L 79.468889 156.154675 
" style="fill: none; stroke: #8b0000; stroke-width: 1.5"/>
    </g>
    <g id="line2d_80"/>
    <g id="line2d_81">
     <g>
      <use xlink:href="#m7e9f14b12d" x="79.468889" y="161.154675" style="fill: #8b0000; stroke: #8b0000"/>
     </g>
    </g>
    <g id="text_10">
     <!-- Fluxpoints Standard -->
     <g transform="translate(97.468889 164.654675) scale(0.1 -0.1)">
      <defs>
       <path id="DejaVuSans-53" d="M 3425 4513 
L 3425 3897 
Q 3066 4069 2747 4153 
Q 2428 4238 2131 4238 
Q 1616 4238 1336 4038 
Q 1056 3838 1056 3469 
Q 1056 3159 1242 3001 
Q 1428 2844 1947 2747 
L 2328 2669 
Q 3034 2534 3370 2195 
Q 3706 1856 3706 1288 
Q 3706 609 3251 259 
Q 2797 -91 1919 -91 
Q 1588 -91 1214 -16 
Q 841 59 441 206 
L 441 856 
Q 825 641 1194 531 
Q 1563 422 1919 422 
Q 2459 422 2753 634 
Q 3047 847 3047 1241 
Q 3047 1584 2836 1778 
Q 2625 1972 2144 2069 
L 1759 2144 
Q 1053 2284 737 2584 
Q 422 2884 422 3419 
Q 422 4038 858 4394 
Q 1294 4750 2059 4750 
Q 2388 4750 2728 4690 
Q 3069 4631 3425 4513 
z
" transform="scale(0.015625)"/>
       <path id="DejaVuSans-72" d="M 2631 2963 
Q 2534 3019 2420 3045 
Q 2306 3072 2169 3072 
Q 1681 3072 1420 2755 
Q 1159 2438 1159 1844 
L 1159 0 
L 581 0 
L 581 3500 
L 1159 3500 
L 1159 2956 
Q 1341 3275 1631 3429 
Q 1922 3584 2338 3584 
Q 2397 3584 2469 3576 
Q 2541 3569 2628 3553 
L 2631 2963 
z
" transform="scale(0.015625)"/>
      </defs>
      <use xlink:href="#DejaVuSans-46"/>
      <use xlink:href="#DejaVuSans-6c" x="57.519531"/>
      <use xlink:href="#DejaVuSans-75" x="85.302734"/>
      <use xlink:href="#DejaVuSans-78" x="148.681641"/>
      <use xlink:href="#DejaVuSans-70" x="207.861328"/>
      <use xlink:href="#DejaVuSans-6f" x="271.337891"/>
      <use xlink:href="#DejaVuSans-69" x="332.519531"/>
      <use xlink:href="#DejaVuSans-6e" x="360.302734"/>
      <use xlink:href="#DejaVuSans-74" x="423.681641"/>
      <use xlink:href="#DejaVuSans-73" x="462.890625"/>
      <use xlink:href="#DejaVuSans-20" x="514.990234"/>
      <use xlink:href="#DejaVuSans-53" x="546.777344"/>
      <use xlink:href="#DejaVuSans-74" x="610.253906"/>
      <use xlink:href="#DejaVuSans-61" x="649.462891"/>
      <use xlink:href="#DejaVuSans-6e" x="710.742188"/>
      <use xlink:href="#DejaVuSans-64" x="774.121094"/>
      <use xlink:href="#DejaVuSans-61" x="837.597656"/>
      <use xlink:href="#DejaVuSans-72" x="898.876953"/>
      <use xlink:href="#DejaVuSans-64" x="938.240234"/>
     </g>
    </g>
    <g id="LineCollection_6">
     <path d="M 79.468889 180.8328 
L 79.468889 170.8328 
" style="fill: none; stroke: #1f77b4; stroke-width: 1.5"/>
    </g>
    <g id="line2d_82">
     <path d="M 69.468889 175.8328 
L 89.468889 175.8328 
" style="fill: none; stroke: #1f77b4; stroke-width: 1.5; stroke-linecap: square"/>
    </g>
    <g id="line2d_83"/>
    <g id="text_11">
     <!-- $\mu$, $\sigma$ -->
     <g transform="translate(97.468889 179.3328) scale(0.1 -0.1)">
      <defs>
       <path id="DejaVuSans-Oblique-3bc" d="M -84 -1331 
L 856 3500 
L 1434 3500 
L 1009 1322 
Q 997 1256 987 1175 
Q 978 1094 978 1013 
Q 978 722 1161 565 
Q 1344 409 1684 409 
Q 2147 409 2431 671 
Q 2716 934 2816 1459 
L 3213 3500 
L 3788 3500 
L 3266 809 
Q 3253 750 3248 706 
Q 3244 663 3244 628 
Q 3244 531 3283 486 
Q 3322 441 3406 441 
Q 3438 441 3492 456 
Q 3547 472 3647 513 
L 3559 50 
Q 3422 -19 3297 -55 
Q 3172 -91 3053 -91 
Q 2847 -91 2730 40 
Q 2613 172 2613 403 
Q 2438 153 2195 31 
Q 1953 -91 1625 -91 
Q 1334 -91 1117 43 
Q 900 178 831 397 
L 494 -1331 
L -84 -1331 
z
" transform="scale(0.015625)"/>
       <path id="DejaVuSans-2c" d="M 750 794 
L 1409 794 
L 1409 256 
L 897 -744 
L 494 -744 
L 750 256 
L 750 794 
z
" transform="scale(0.015625)"/>
       <path id="DejaVuSans-Oblique-3c3" d="M 2219 3044 
Q 1744 3044 1422 2700 
Q 1081 2341 969 1747 
Q 844 1119 1044 756 
Q 1241 397 1706 397 
Q 2166 397 2503 759 
Q 2844 1122 2966 1747 
Q 3075 2319 2881 2700 
Q 2700 3044 2219 3044 
z
M 2309 3503 
L 4219 3500 
L 4106 2925 
L 3463 2925 
Q 3706 2438 3575 1747 
Q 3406 888 2884 400 
Q 2359 -91 1609 -91 
Q 856 -91 525 400 
Q 194 888 363 1747 
Q 528 2609 1050 3097 
Q 1484 3503 2309 3503 
z
" transform="scale(0.015625)"/>
      </defs>
      <use xlink:href="#DejaVuSans-Oblique-3bc" transform="translate(0 0.265625)"/>
      <use xlink:href="#DejaVuSans-2c" transform="translate(63.623047 0.265625)"/>
      <use xlink:href="#DejaVuSans-20" transform="translate(95.410156 0.265625)"/>
      <use xlink:href="#DejaVuSans-Oblique-3c3" transform="translate(127.197266 0.265625)"/>
     </g>
    </g>
   </g>
  </g>
  <g id="axes_2">
   <g id="patch_8">
    <path d="M 60.468889 314.728 
L 349.2 314.728 
L 349.2 204.7328 
L 60.468889 204.7328 
z
" style="fill: #ffffff"/>
   </g>
   <g id="matplotlib.axis_3">
    <g id="xtick_27">
     <g id="line2d_84">
      <g>
       <use xlink:href="#m04a46174e7" x="121.116861" y="314.728" style="stroke: #000000; stroke-width: 0.8"/>
      </g>
     </g>
     <g id="text_12">
      <!-- $\mathdefault{10^{0}}$ -->
      <g transform="translate(112.316861 329.326437) scale(0.1 -0.1)">
       <use xlink:href="#DejaVuSans-31" transform="translate(0 0.765625)"/>
       <use xlink:href="#DejaVuSans-30" transform="translate(63.623047 0.765625)"/>
       <use xlink:href="#DejaVuSans-30" transform="translate(128.203125 39.046875) scale(0.7)"/>
      </g>
     </g>
    </g>
    <g id="xtick_28">
     <g id="line2d_85">
      <g>
       <use xlink:href="#m04a46174e7" x="229.742761" y="314.728" style="stroke: #000000; stroke-width: 0.8"/>
      </g>
     </g>
     <g id="text_13">
      <!-- $\mathdefault{10^{1}}$ -->
      <g transform="translate(220.942761 329.326437) scale(0.1 -0.1)">
       <use xlink:href="#DejaVuSans-31" transform="translate(0 0.684375)"/>
       <use xlink:href="#DejaVuSans-30" transform="translate(63.623047 0.684375)"/>
       <use xlink:href="#DejaVuSans-31" transform="translate(128.203125 38.965625) scale(0.7)"/>
      </g>
     </g>
    </g>
    <g id="xtick_29">
     <g id="line2d_86">
      <g>
       <use xlink:href="#m04a46174e7" x="338.368661" y="314.728" style="stroke: #000000; stroke-width: 0.8"/>
      </g>
     </g>
     <g id="text_14">
      <!-- $\mathdefault{10^{2}}$ -->
      <g transform="translate(329.568661 329.326437) scale(0.1 -0.1)">
       <use xlink:href="#DejaVuSans-31" transform="translate(0 0.765625)"/>
       <use xlink:href="#DejaVuSans-30" transform="translate(63.623047 0.765625)"/>
       <use xlink:href="#DejaVuSans-32" transform="translate(128.203125 39.046875) scale(0.7)"/>
      </g>
     </g>
    </g>
    <g id="xtick_30">
     <g id="line2d_87">
      <g>
       <use xlink:href="#m158a30900a" x="64.318687" y="314.728" style="stroke: #000000; stroke-width: 0.6"/>
      </g>
     </g>
    </g>
    <g id="xtick_31">
     <g id="line2d_88">
      <g>
       <use xlink:href="#m158a30900a" x="77.89027" y="314.728" style="stroke: #000000; stroke-width: 0.6"/>
      </g>
     </g>
    </g>
    <g id="xtick_32">
     <g id="line2d_89">
      <g>
       <use xlink:href="#m158a30900a" x="88.417207" y="314.728" style="stroke: #000000; stroke-width: 0.6"/>
      </g>
     </g>
    </g>
    <g id="xtick_33">
     <g id="line2d_90">
      <g>
       <use xlink:href="#m158a30900a" x="97.018341" y="314.728" style="stroke: #000000; stroke-width: 0.6"/>
      </g>
     </g>
    </g>
    <g id="xtick_34">
     <g id="line2d_91">
      <g>
       <use xlink:href="#m158a30900a" x="104.290497" y="314.728" style="stroke: #000000; stroke-width: 0.6"/>
      </g>
     </g>
    </g>
    <g id="xtick_35">
     <g id="line2d_92">
      <g>
       <use xlink:href="#m158a30900a" x="110.589924" y="314.728" style="stroke: #000000; stroke-width: 0.6"/>
      </g>
     </g>
    </g>
    <g id="xtick_36">
     <g id="line2d_93">
      <g>
       <use xlink:href="#m158a30900a" x="116.146413" y="314.728" style="stroke: #000000; stroke-width: 0.6"/>
      </g>
     </g>
    </g>
    <g id="xtick_37">
     <g id="line2d_94">
      <g>
       <use xlink:href="#m158a30900a" x="153.816515" y="314.728" style="stroke: #000000; stroke-width: 0.6"/>
      </g>
     </g>
    </g>
    <g id="xtick_38">
     <g id="line2d_95">
      <g>
       <use xlink:href="#m158a30900a" x="172.944587" y="314.728" style="stroke: #000000; stroke-width: 0.6"/>
      </g>
     </g>
    </g>
    <g id="xtick_39">
     <g id="line2d_96">
      <g>
       <use xlink:href="#m158a30900a" x="186.51617" y="314.728" style="stroke: #000000; stroke-width: 0.6"/>
      </g>
     </g>
    </g>
    <g id="xtick_40">
     <g id="line2d_97">
      <g>
       <use xlink:href="#m158a30900a" x="197.043107" y="314.728" style="stroke: #000000; stroke-width: 0.6"/>
      </g>
     </g>
    </g>
    <g id="xtick_41">
     <g id="line2d_98">
      <g>
       <use xlink:href="#m158a30900a" x="205.644241" y="314.728" style="stroke: #000000; stroke-width: 0.6"/>
      </g>
     </g>
    </g>
    <g id="xtick_42">
     <g id="line2d_99">
      <g>
       <use xlink:href="#m158a30900a" x="212.916396" y="314.728" style="stroke: #000000; stroke-width: 0.6"/>
      </g>
     </g>
    </g>
    <g id="xtick_43">
     <g id="line2d_100">
      <g>
       <use xlink:href="#m158a30900a" x="219.215824" y="314.728" style="stroke: #000000; stroke-width: 0.6"/>
      </g>
     </g>
    </g>
    <g id="xtick_44">
     <g id="line2d_101">
      <g>
       <use xlink:href="#m158a30900a" x="224.772312" y="314.728" style="stroke: #000000; stroke-width: 0.6"/>
      </g>
     </g>
    </g>
    <g id="xtick_45">
     <g id="line2d_102">
      <g>
       <use xlink:href="#m158a30900a" x="262.442415" y="314.728" style="stroke: #000000; stroke-width: 0.6"/>
      </g>
     </g>
    </g>
    <g id="xtick_46">
     <g id="line2d_103">
      <g>
       <use xlink:href="#m158a30900a" x="281.570486" y="314.728" style="stroke: #000000; stroke-width: 0.6"/>
      </g>
     </g>
    </g>
    <g id="xtick_47">
     <g id="line2d_104">
      <g>
       <use xlink:href="#m158a30900a" x="295.142069" y="314.728" style="stroke: #000000; stroke-width: 0.6"/>
      </g>
     </g>
    </g>
    <g id="xtick_48">
     <g id="line2d_105">
      <g>
       <use xlink:href="#m158a30900a" x="305.669006" y="314.728" style="stroke: #000000; stroke-width: 0.6"/>
      </g>
     </g>
    </g>
    <g id="xtick_49">
     <g id="line2d_106">
      <g>
       <use xlink:href="#m158a30900a" x="314.270141" y="314.728" style="stroke: #000000; stroke-width: 0.6"/>
      </g>
     </g>
    </g>
    <g id="xtick_50">
     <g id="line2d_107">
      <g>
       <use xlink:href="#m158a30900a" x="321.542296" y="314.728" style="stroke: #000000; stroke-width: 0.6"/>
      </g>
     </g>
    </g>
    <g id="xtick_51">
     <g id="line2d_108">
      <g>
       <use xlink:href="#m158a30900a" x="327.841723" y="314.728" style="stroke: #000000; stroke-width: 0.6"/>
      </g>
     </g>
    </g>
    <g id="xtick_52">
     <g id="line2d_109">
      <g>
       <use xlink:href="#m158a30900a" x="333.398212" y="314.728" style="stroke: #000000; stroke-width: 0.6"/>
      </g>
     </g>
    </g>
    <g id="text_15">
     <!-- Energy [TeV] -->
     <g transform="translate(173.136788 343.004563) scale(0.1 -0.1)">
      <defs>
       <path id="DejaVuSans-45" d="M 628 4666 
L 3578 4666 
L 3578 4134 
L 1259 4134 
L 1259 2753 
L 3481 2753 
L 3481 2222 
L 1259 2222 
L 1259 531 
L 3634 531 
L 3634 0 
L 628 0 
L 628 4666 
z
" transform="scale(0.015625)"/>
       <path id="DejaVuSans-67" d="M 2906 1791 
Q 2906 2416 2648 2759 
Q 2391 3103 1925 3103 
Q 1463 3103 1205 2759 
Q 947 2416 947 1791 
Q 947 1169 1205 825 
Q 1463 481 1925 481 
Q 2391 481 2648 825 
Q 2906 1169 2906 1791 
z
M 3481 434 
Q 3481 -459 3084 -895 
Q 2688 -1331 1869 -1331 
Q 1566 -1331 1297 -1286 
Q 1028 -1241 775 -1147 
L 775 -588 
Q 1028 -725 1275 -790 
Q 1522 -856 1778 -856 
Q 2344 -856 2625 -561 
Q 2906 -266 2906 331 
L 2906 616 
Q 2728 306 2450 153 
Q 2172 0 1784 0 
Q 1141 0 747 490 
Q 353 981 353 1791 
Q 353 2603 747 3093 
Q 1141 3584 1784 3584 
Q 2172 3584 2450 3431 
Q 2728 3278 2906 2969 
L 2906 3500 
L 3481 3500 
L 3481 434 
z
" transform="scale(0.015625)"/>
       <path id="DejaVuSans-79" d="M 2059 -325 
Q 1816 -950 1584 -1140 
Q 1353 -1331 966 -1331 
L 506 -1331 
L 506 -850 
L 844 -850 
Q 1081 -850 1212 -737 
Q 1344 -625 1503 -206 
L 1606 56 
L 191 3500 
L 800 3500 
L 1894 763 
L 2988 3500 
L 3597 3500 
L 2059 -325 
z
" transform="scale(0.015625)"/>
      </defs>
      <use xlink:href="#DejaVuSans-45"/>
      <use xlink:href="#DejaVuSans-6e" x="63.183594"/>
      <use xlink:href="#DejaVuSans-65" x="126.5625"/>
      <use xlink:href="#DejaVuSans-72" x="188.085938"/>
      <use xlink:href="#DejaVuSans-67" x="227.449219"/>
      <use xlink:href="#DejaVuSans-79" x="290.925781"/>
      <use xlink:href="#DejaVuSans-20" x="350.105469"/>
      <use xlink:href="#DejaVuSans-5b" x="381.892578"/>
      <use xlink:href="#DejaVuSans-54" x="420.90625"/>
      <use xlink:href="#DejaVuSans-65" x="464.990234"/>
      <use xlink:href="#DejaVuSans-56" x="526.513672"/>
      <use xlink:href="#DejaVuSans-5d" x="594.921875"/>
     </g>
    </g>
   </g>
   <g id="matplotlib.axis_4">
    <g id="ytick_47">
     <g id="line2d_110">
      <g>
       <use xlink:href="#me46a3312ef" x="60.468889" y="309.261691" style="stroke: #000000; stroke-width: 0.8"/>
      </g>
     </g>
     <g id="text_16">
      <!-- 0.2 -->
      <g transform="translate(37.565764 313.06091) scale(0.1 -0.1)">
       <use xlink:href="#DejaVuSans-30"/>
       <use xlink:href="#DejaVuSans-2e" x="63.623047"/>
       <use xlink:href="#DejaVuSans-32" x="95.410156"/>
      </g>
     </g>
    </g>
    <g id="ytick_48">
     <g id="line2d_111">
      <g>
       <use xlink:href="#me46a3312ef" x="60.468889" y="273.527693" style="stroke: #000000; stroke-width: 0.8"/>
      </g>
     </g>
     <g id="text_17">
      <!-- 0.4 -->
      <g transform="translate(37.565764 277.326912) scale(0.1 -0.1)">
       <use xlink:href="#DejaVuSans-30"/>
       <use xlink:href="#DejaVuSans-2e" x="63.623047"/>
       <use xlink:href="#DejaVuSans-34" x="95.410156"/>
      </g>
     </g>
    </g>
    <g id="ytick_49">
     <g id="line2d_112">
      <g>
       <use xlink:href="#me46a3312ef" x="60.468889" y="237.793696" style="stroke: #000000; stroke-width: 0.8"/>
      </g>
     </g>
     <g id="text_18">
      <!-- 0.6 -->
      <g transform="translate(37.565764 241.592915) scale(0.1 -0.1)">
       <use xlink:href="#DejaVuSans-30"/>
       <use xlink:href="#DejaVuSans-2e" x="63.623047"/>
       <use xlink:href="#DejaVuSans-36" x="95.410156"/>
      </g>
     </g>
    </g>
    <g id="text_19">
     <!-- Coverage -->
     <g transform="translate(31.486077 283.687431) rotate(-90) scale(0.1 -0.1)">
      <defs>
       <path id="DejaVuSans-43" d="M 4122 4306 
L 4122 3641 
Q 3803 3938 3442 4084 
Q 3081 4231 2675 4231 
Q 1875 4231 1450 3742 
Q 1025 3253 1025 2328 
Q 1025 1406 1450 917 
Q 1875 428 2675 428 
Q 3081 428 3442 575 
Q 3803 722 4122 1019 
L 4122 359 
Q 3791 134 3420 21 
Q 3050 -91 2638 -91 
Q 1578 -91 968 557 
Q 359 1206 359 2328 
Q 359 3453 968 4101 
Q 1578 4750 2638 4750 
Q 3056 4750 3426 4639 
Q 3797 4528 4122 4306 
z
" transform="scale(0.015625)"/>
       <path id="DejaVuSans-76" d="M 191 3500 
L 800 3500 
L 1894 563 
L 2988 3500 
L 3597 3500 
L 2284 0 
L 1503 0 
L 191 3500 
z
" transform="scale(0.015625)"/>
      </defs>
      <use xlink:href="#DejaVuSans-43"/>
      <use xlink:href="#DejaVuSans-6f" x="69.824219"/>
      <use xlink:href="#DejaVuSans-76" x="131.005859"/>
      <use xlink:href="#DejaVuSans-65" x="190.185547"/>
      <use xlink:href="#DejaVuSans-72" x="251.708984"/>
      <use xlink:href="#DejaVuSans-61" x="292.822266"/>
      <use xlink:href="#DejaVuSans-67" x="354.101562"/>
      <use xlink:href="#DejaVuSans-65" x="417.578125"/>
     </g>
    </g>
   </g>
   <g id="LineCollection_7">
    <path d="M 73.593031 281.736587 
L 73.593031 262.142445 
" clip-path="url(#pd0c2c1d5ac)" style="fill: none; stroke: #ff0000; stroke-width: 1.5"/>
    <path d="M 87.171269 285.707031 
L 87.171269 266.112889 
" clip-path="url(#pd0c2c1d5ac)" style="fill: none; stroke: #ff0000; stroke-width: 1.5"/>
    <path d="M 100.749505 289.280431 
L 100.749505 269.686289 
" clip-path="url(#pd0c2c1d5ac)" style="fill: none; stroke: #ff0000; stroke-width: 1.5"/>
    <path d="M 114.327742 286.50112 
L 114.327742 266.906978 
" clip-path="url(#pd0c2c1d5ac)" style="fill: none; stroke: #ff0000; stroke-width: 1.5"/>
    <path d="M 127.905981 284.71442 
L 127.905981 265.120278 
" clip-path="url(#pd0c2c1d5ac)" style="fill: none; stroke: #ff0000; stroke-width: 1.5"/>
    <path d="M 141.484219 281.538065 
L 141.484219 261.943923 
" clip-path="url(#pd0c2c1d5ac)" style="fill: none; stroke: #ff0000; stroke-width: 1.5"/>
    <path d="M 155.062455 280.545454 
L 155.062455 260.951312 
" clip-path="url(#pd0c2c1d5ac)" style="fill: none; stroke: #ff0000; stroke-width: 1.5"/>
    <path d="M 168.640692 271.21491 
L 168.640692 251.620768 
" clip-path="url(#pd0c2c1d5ac)" style="fill: none; stroke: #ff0000; stroke-width: 1.5"/>
    <path d="M 182.218931 263.869588 
L 182.218931 244.275446 
" clip-path="url(#pd0c2c1d5ac)" style="fill: none; stroke: #ff0000; stroke-width: 1.5"/>
    <path d="M 195.797168 258.906533 
L 195.797168 239.312391 
" clip-path="url(#pd0c2c1d5ac)" style="fill: none; stroke: #ff0000; stroke-width: 1.5"/>
    <path d="M 209.375404 254.539044 
L 209.375404 234.944902 
" clip-path="url(#pd0c2c1d5ac)" style="fill: none; stroke: #ff0000; stroke-width: 1.5"/>
    <path d="M 222.953642 243.818845 
L 222.953642 224.224703 
" clip-path="url(#pd0c2c1d5ac)" style="fill: none; stroke: #ff0000; stroke-width: 1.5"/>
    <path d="M 236.53188 243.818845 
L 236.53188 224.224703 
" clip-path="url(#pd0c2c1d5ac)" style="fill: none; stroke: #ff0000; stroke-width: 1.5"/>
    <path d="M 250.110119 242.627712 
L 250.110119 223.03357 
" clip-path="url(#pd0c2c1d5ac)" style="fill: none; stroke: #ff0000; stroke-width: 1.5"/>
    <path d="M 263.688356 235.083868 
L 263.688356 215.489726 
" clip-path="url(#pd0c2c1d5ac)" style="fill: none; stroke: #ff0000; stroke-width: 1.5"/>
    <path d="M 277.266592 234.289779 
L 277.266592 214.695637 
" clip-path="url(#pd0c2c1d5ac)" style="fill: none; stroke: #ff0000; stroke-width: 1.5"/>
    <path d="M 290.844829 251.759733 
L 290.844829 232.165591 
" clip-path="url(#pd0c2c1d5ac)" style="fill: none; stroke: #ff0000; stroke-width: 1.5"/>
    <path d="M 304.423067 260.494711 
L 304.423067 240.900569 
" clip-path="url(#pd0c2c1d5ac)" style="fill: none; stroke: #ff0000; stroke-width: 1.5"/>
    <path d="M 318.001303 291.265653 
L 318.001303 271.671511 
" clip-path="url(#pd0c2c1d5ac)" style="fill: none; stroke: #ff0000; stroke-width: 1.5"/>
    <path d="M 331.579541 309.529696 
L 331.579541 289.935554 
" clip-path="url(#pd0c2c1d5ac)" style="fill: none; stroke: #ff0000; stroke-width: 1.5"/>
   </g>
   <g id="LineCollection_8">
    <path d="M 73.593031 238.260223 
L 73.593031 218.666081 
" clip-path="url(#pd0c2c1d5ac)" style="fill: none; stroke: #008000; stroke-width: 1.5"/>
    <path d="M 87.171269 239.054312 
L 87.171269 219.46017 
" clip-path="url(#pd0c2c1d5ac)" style="fill: none; stroke: #008000; stroke-width: 1.5"/>
    <path d="M 100.749505 245.407023 
L 100.749505 225.812881 
" clip-path="url(#pd0c2c1d5ac)" style="fill: none; stroke: #008000; stroke-width: 1.5"/>
    <path d="M 114.327742 239.649879 
L 114.327742 220.055737 
" clip-path="url(#pd0c2c1d5ac)" style="fill: none; stroke: #008000; stroke-width: 1.5"/>
    <path d="M 127.905981 238.061701 
L 127.905981 218.467559 
" clip-path="url(#pd0c2c1d5ac)" style="fill: none; stroke: #008000; stroke-width: 1.5"/>
    <path d="M 141.484219 236.870568 
L 141.484219 217.276426 
" clip-path="url(#pd0c2c1d5ac)" style="fill: none; stroke: #008000; stroke-width: 1.5"/>
    <path d="M 155.062455 236.672045 
L 155.062455 217.077904 
" clip-path="url(#pd0c2c1d5ac)" style="fill: none; stroke: #008000; stroke-width: 1.5"/>
    <path d="M 168.640692 234.091257 
L 168.640692 214.497115 
" clip-path="url(#pd0c2c1d5ac)" style="fill: none; stroke: #008000; stroke-width: 1.5"/>
    <path d="M 182.218931 231.510468 
L 182.218931 211.916326 
" clip-path="url(#pd0c2c1d5ac)" style="fill: none; stroke: #008000; stroke-width: 1.5"/>
    <path d="M 195.797168 232.701601 
L 195.797168 213.107459 
" clip-path="url(#pd0c2c1d5ac)" style="fill: none; stroke: #008000; stroke-width: 1.5"/>
    <path d="M 209.375404 238.458745 
L 209.375404 218.864603 
" clip-path="url(#pd0c2c1d5ac)" style="fill: none; stroke: #008000; stroke-width: 1.5"/>
    <path d="M 222.953642 229.326724 
L 222.953642 209.732582 
" clip-path="url(#pd0c2c1d5ac)" style="fill: none; stroke: #008000; stroke-width: 1.5"/>
    <path d="M 236.53188 233.098646 
L 236.53188 213.504504 
" clip-path="url(#pd0c2c1d5ac)" style="fill: none; stroke: #008000; stroke-width: 1.5"/>
    <path d="M 250.110119 236.076479 
L 250.110119 216.482337 
" clip-path="url(#pd0c2c1d5ac)" style="fill: none; stroke: #008000; stroke-width: 1.5"/>
    <path d="M 263.688356 231.311946 
L 263.688356 211.717804 
" clip-path="url(#pd0c2c1d5ac)" style="fill: none; stroke: #008000; stroke-width: 1.5"/>
    <path d="M 277.266592 231.907512 
L 277.266592 212.313371 
" clip-path="url(#pd0c2c1d5ac)" style="fill: none; stroke: #008000; stroke-width: 1.5"/>
    <path d="M 290.844829 251.561211 
L 290.844829 231.967069 
" clip-path="url(#pd0c2c1d5ac)" style="fill: none; stroke: #008000; stroke-width: 1.5"/>
    <path d="M 304.423067 260.296188 
L 304.423067 240.702046 
" clip-path="url(#pd0c2c1d5ac)" style="fill: none; stroke: #008000; stroke-width: 1.5"/>
    <path d="M 318.001303 291.265653 
L 318.001303 271.671511 
" clip-path="url(#pd0c2c1d5ac)" style="fill: none; stroke: #008000; stroke-width: 1.5"/>
    <path d="M 331.579541 309.728218 
L 331.579541 290.134076 
" clip-path="url(#pd0c2c1d5ac)" style="fill: none; stroke: #008000; stroke-width: 1.5"/>
   </g>
   <g id="line2d_113">
    <path d="M 73.593031 223.500097 
L 87.171269 223.500097 
L 100.749505 223.500097 
L 114.327742 223.500097 
L 127.905981 223.500097 
L 141.484219 223.500097 
L 155.062455 223.500097 
L 168.640692 223.500097 
L 182.218931 223.500097 
L 195.797168 223.500097 
L 209.375404 223.500097 
L 222.953642 223.500097 
L 236.53188 223.500097 
L 250.110119 223.500097 
L 263.688356 223.500097 
L 277.266592 223.500097 
L 290.844829 223.500097 
L 304.423067 223.500097 
L 318.001303 223.500097 
L 331.579541 223.500097 
" clip-path="url(#pd0c2c1d5ac)" style="fill: none; stroke-dasharray: 1.5,2.475; stroke-dashoffset: 0; stroke: #008000; stroke-width: 1.5"/>
   </g>
   <g id="line2d_114">
    <path d="M 73.593031 271.939516 
L 87.171269 275.90996 
L 100.749505 279.48336 
L 114.327742 276.704049 
L 127.905981 274.917349 
L 141.484219 271.740994 
L 155.062455 270.748383 
L 168.640692 261.417839 
L 182.218931 254.072517 
L 195.797168 249.109462 
L 209.375404 244.741973 
L 222.953642 234.021774 
L 236.53188 234.021774 
L 250.110119 232.830641 
L 263.688356 225.286797 
L 277.266592 224.492708 
L 290.844829 241.962662 
L 304.423067 250.69764 
L 318.001303 281.468582 
L 331.579541 299.732625 
" clip-path="url(#pd0c2c1d5ac)" style="fill: none; stroke: #ff0000; stroke-width: 1.5; stroke-linecap: square"/>
   </g>
   <g id="line2d_115">
    <path d="M 73.593031 228.463152 
L 87.171269 229.257241 
L 100.749505 235.609952 
L 114.327742 229.852808 
L 127.905981 228.26463 
L 141.484219 227.073497 
L 155.062455 226.874975 
L 168.640692 224.294186 
L 182.218931 221.713397 
L 195.797168 222.90453 
L 209.375404 228.661674 
L 222.953642 219.529653 
L 236.53188 223.301575 
L 250.110119 226.279408 
L 263.688356 221.514875 
L 277.266592 222.110442 
L 290.844829 241.76414 
L 304.423067 250.499117 
L 318.001303 281.468582 
L 331.579541 299.931147 
" clip-path="url(#pd0c2c1d5ac)" style="fill: none; stroke: #008000; stroke-width: 1.5; stroke-linecap: square"/>
   </g>
   <g id="patch_9">
    <path d="M 60.468889 314.728 
L 60.468889 204.7328 
" style="fill: none; stroke: #000000; stroke-width: 0.8; stroke-linejoin: miter; stroke-linecap: square"/>
   </g>
   <g id="patch_10">
    <path d="M 349.2 314.728 
L 349.2 204.7328 
" style="fill: none; stroke: #000000; stroke-width: 0.8; stroke-linejoin: miter; stroke-linecap: square"/>
   </g>
   <g id="patch_11">
    <path d="M 60.468889 314.728 
L 349.2 314.728 
" style="fill: none; stroke: #000000; stroke-width: 0.8; stroke-linejoin: miter; stroke-linecap: square"/>
   </g>
   <g id="patch_12">
    <path d="M 60.468889 204.7328 
L 349.2 204.7328 
" style="fill: none; stroke: #000000; stroke-width: 0.8; stroke-linejoin: miter; stroke-linecap: square"/>
   </g>
   <g id="legend_2">
    <g id="patch_13">
     <path d="M 164.497726 309.728 
L 245.171163 309.728 
Q 247.171163 309.728 247.171163 307.728 
L 247.171163 264.693625 
Q 247.171163 262.693625 245.171163 262.693625 
L 164.497726 262.693625 
Q 162.497726 262.693625 162.497726 264.693625 
L 162.497726 307.728 
Q 162.497726 309.728 164.497726 309.728 
z
" style="fill: #ffffff; opacity: 0.8; stroke: #cccccc; stroke-linejoin: miter"/>
    </g>
    <g id="line2d_116">
     <path d="M 166.497726 270.792063 
L 176.497726 270.792063 
L 186.497726 270.792063 
" style="fill: none; stroke-dasharray: 1.5,2.475; stroke-dashoffset: 0; stroke: #008000; stroke-width: 1.5"/>
    </g>
    <g id="text_20">
     <!-- 68 % -->
     <g transform="translate(194.497726 274.292063) scale(0.1 -0.1)">
      <defs>
       <path id="DejaVuSans-38" d="M 2034 2216 
Q 1584 2216 1326 1975 
Q 1069 1734 1069 1313 
Q 1069 891 1326 650 
Q 1584 409 2034 409 
Q 2484 409 2743 651 
Q 3003 894 3003 1313 
Q 3003 1734 2745 1975 
Q 2488 2216 2034 2216 
z
M 1403 2484 
Q 997 2584 770 2862 
Q 544 3141 544 3541 
Q 544 4100 942 4425 
Q 1341 4750 2034 4750 
Q 2731 4750 3128 4425 
Q 3525 4100 3525 3541 
Q 3525 3141 3298 2862 
Q 3072 2584 2669 2484 
Q 3125 2378 3379 2068 
Q 3634 1759 3634 1313 
Q 3634 634 3220 271 
Q 2806 -91 2034 -91 
Q 1263 -91 848 271 
Q 434 634 434 1313 
Q 434 1759 690 2068 
Q 947 2378 1403 2484 
z
M 1172 3481 
Q 1172 3119 1398 2916 
Q 1625 2713 2034 2713 
Q 2441 2713 2670 2916 
Q 2900 3119 2900 3481 
Q 2900 3844 2670 4047 
Q 2441 4250 2034 4250 
Q 1625 4250 1398 4047 
Q 1172 3844 1172 3481 
z
" transform="scale(0.015625)"/>
       <path id="DejaVuSans-25" d="M 4653 2053 
Q 4381 2053 4226 1822 
Q 4072 1591 4072 1178 
Q 4072 772 4226 539 
Q 4381 306 4653 306 
Q 4919 306 5073 539 
Q 5228 772 5228 1178 
Q 5228 1588 5073 1820 
Q 4919 2053 4653 2053 
z
M 4653 2450 
Q 5147 2450 5437 2106 
Q 5728 1763 5728 1178 
Q 5728 594 5436 251 
Q 5144 -91 4653 -91 
Q 4153 -91 3862 251 
Q 3572 594 3572 1178 
Q 3572 1766 3864 2108 
Q 4156 2450 4653 2450 
z
M 1428 4353 
Q 1159 4353 1004 4120 
Q 850 3888 850 3481 
Q 850 3069 1003 2837 
Q 1156 2606 1428 2606 
Q 1700 2606 1854 2837 
Q 2009 3069 2009 3481 
Q 2009 3884 1853 4118 
Q 1697 4353 1428 4353 
z
M 4250 4750 
L 4750 4750 
L 1831 -91 
L 1331 -91 
L 4250 4750 
z
M 1428 4750 
Q 1922 4750 2215 4408 
Q 2509 4066 2509 3481 
Q 2509 2891 2217 2550 
Q 1925 2209 1428 2209 
Q 931 2209 642 2551 
Q 353 2894 353 3481 
Q 353 4063 643 4406 
Q 934 4750 1428 4750 
z
" transform="scale(0.015625)"/>
      </defs>
      <use xlink:href="#DejaVuSans-36"/>
      <use xlink:href="#DejaVuSans-38" x="63.623047"/>
      <use xlink:href="#DejaVuSans-20" x="127.246094"/>
      <use xlink:href="#DejaVuSans-25" x="159.033203"/>
     </g>
    </g>
    <g id="LineCollection_9">
     <path d="M 176.497726 290.470188 
L 176.497726 280.470188 
" style="fill: none; stroke: #ff0000; stroke-width: 1.5"/>
    </g>
    <g id="line2d_117">
     <path d="M 166.497726 285.470188 
L 186.497726 285.470188 
" style="fill: none; stroke: #ff0000; stroke-width: 1.5; stroke-linecap: square"/>
    </g>
    <g id="line2d_118"/>
    <g id="text_21">
     <!-- Standard  -->
     <g transform="translate(194.497726 288.970188) scale(0.1 -0.1)">
      <use xlink:href="#DejaVuSans-53"/>
      <use xlink:href="#DejaVuSans-74" x="63.476562"/>
      <use xlink:href="#DejaVuSans-61" x="102.685547"/>
      <use xlink:href="#DejaVuSans-6e" x="163.964844"/>
      <use xlink:href="#DejaVuSans-64" x="227.34375"/>
      <use xlink:href="#DejaVuSans-61" x="290.820312"/>
      <use xlink:href="#DejaVuSans-72" x="352.099609"/>
      <use xlink:href="#DejaVuSans-64" x="391.462891"/>
      <use xlink:href="#DejaVuSans-20" x="454.939453"/>
     </g>
    </g>
    <g id="LineCollection_10">
     <path d="M 176.497726 305.148313 
L 176.497726 295.148313 
" style="fill: none; stroke: #008000; stroke-width: 1.5"/>
    </g>
    <g id="line2d_119">
     <path d="M 166.497726 300.148313 
L 186.497726 300.148313 
" style="fill: none; stroke: #008000; stroke-width: 1.5; stroke-linecap: square"/>
    </g>
    <g id="line2d_120"/>
    <g id="text_22">
     <!-- Nuisance -->
     <g transform="translate(194.497726 303.648313) scale(0.1 -0.1)">
      <use xlink:href="#DejaVuSans-4e"/>
      <use xlink:href="#DejaVuSans-75" x="74.804688"/>
      <use xlink:href="#DejaVuSans-69" x="138.183594"/>
      <use xlink:href="#DejaVuSans-73" x="165.966797"/>
      <use xlink:href="#DejaVuSans-61" x="218.066406"/>
      <use xlink:href="#DejaVuSans-6e" x="279.345703"/>
      <use xlink:href="#DejaVuSans-63" x="342.724609"/>
      <use xlink:href="#DejaVuSans-65" x="397.705078"/>
     </g>
    </g>
   </g>
  </g>
 </g>
 <defs>
  <clipPath id="p3bf6927e9c">
   <rect x="60.468889" y="25.44" width="288.731111" height="164.9928"/>
  </clipPath>
  <clipPath id="pd0c2c1d5ac">
   <rect x="60.468889" y="204.7328" width="288.731111" height="109.9952"/>
  </clipPath>
 </defs>
</svg>
