<?xml version="1.0" encoding="utf-8" standalone="no"?>
<!DOCTYPE svg PUBLIC "-//W3C//DTD SVG 1.1//EN"
  "http://www.w3.org/Graphics/SVG/1.1/DTD/svg11.dtd">
<svg xmlns:xlink="http://www.w3.org/1999/xlink" width="432pt" height="288pt" viewBox="0 0 432 288" xmlns="http://www.w3.org/2000/svg" version="1.1">
 <metadata>
  <rdf:RDF xmlns:dc="http://purl.org/dc/elements/1.1/" xmlns:cc="http://creativecommons.org/ns#" xmlns:rdf="http://www.w3.org/1999/02/22-rdf-syntax-ns#">
   <cc:Work>
    <dc:type rdf:resource="http://purl.org/dc/dcmitype/StillImage"/>
    <dc:date>2023-02-14T14:18:12.792028</dc:date>
    <dc:format>image/svg+xml</dc:format>
    <dc:creator>
     <cc:Agent>
      <dc:title>Matplotlib v3.6.2, https://matplotlib.org/</dc:title>
     </cc:Agent>
    </dc:creator>
   </cc:Work>
  </rdf:RDF>
 </metadata>
 <defs>
  <style type="text/css">*{stroke-linejoin: round; stroke-linecap: butt}</style>
 </defs>
 <g id="figure_1">
  <g id="patch_1">
   <path d="M 0 288 
L 432 288 
L 432 0 
L 0 0 
z
" style="fill: #ffffff"/>
  </g>
  <g id="axes_1">
   <g id="patch_2">
    <path d="M 60.468889 242.728 
L 421.2 242.728 
L 421.2 10.8 
L 60.468889 10.8 
z
" style="fill: #ffffff"/>
   </g>
   <g id="PolyCollection_1">
    <path d="M 78.474116 35.435387 
L 78.474116 44.718996 
L 81.690831 44.982246 
L 84.907547 45.250517 
L 88.124263 45.52403 
L 91.340978 45.80302 
L 94.557694 46.087739 
L 97.77441 46.378457 
L 100.991125 46.675459 
L 104.207841 46.979053 
L 107.424556 47.289568 
L 110.641272 47.607352 
L 113.857988 47.93278 
L 117.074703 48.266251 
L 120.291419 48.608188 
L 123.508134 48.959045 
L 126.72485 49.3193 
L 129.941566 49.689465 
L 133.158281 50.070077 
L 136.374997 50.461706 
L 139.591713 50.86495 
L 142.808428 51.280437 
L 146.025144 51.708821 
L 149.241859 52.150783 
L 152.458575 52.607028 
L 155.675291 53.078278 
L 158.892006 53.565275 
L 162.108722 54.068773 
L 165.325437 54.589534 
L 168.542153 55.128327 
L 171.758869 55.685923 
L 174.975584 56.263093 
L 178.1923 56.860611 
L 181.409016 57.479247 
L 184.625731 58.119777 
L 187.842447 58.782982 
L 191.059162 59.469654 
L 194.275878 60.180606 
L 197.492594 60.916672 
L 200.709309 61.678724 
L 203.926025 62.467673 
L 207.142741 63.284485 
L 210.359456 64.130184 
L 213.576172 65.005863 
L 216.792887 65.912694 
L 220.009603 66.851934 
L 223.226319 67.824935 
L 226.443034 68.833149 
L 229.65975 69.87814 
L 232.876465 70.961587 
L 236.093181 72.085298 
L 239.309897 73.251212 
L 242.526612 74.461414 
L 245.743328 75.718138 
L 248.960044 77.023785 
L 252.176759 78.380928 
L 255.393475 79.792329 
L 258.61019 81.26095 
L 261.826906 82.789971 
L 265.043622 84.382807 
L 268.260337 86.043128 
L 271.477053 87.774886 
L 274.693768 89.582337 
L 277.910484 91.470074 
L 281.1272 93.443067 
L 284.343915 95.5067 
L 287.560631 97.666827 
L 290.777347 99.929831 
L 293.994062 102.302698 
L 297.210778 104.793106 
L 300.427493 107.409536 
L 303.644209 110.161411 
L 306.860925 113.059266 
L 310.07764 116.114975 
L 313.294356 119.342034 
L 316.511071 122.755949 
L 319.727787 126.374739 
L 322.944503 130.219647 
L 326.161218 134.316126 
L 329.377934 138.695263 
L 332.59465 143.395905 
L 335.811365 148.467933 
L 339.028081 153.977545 
L 342.244796 160.016221 
L 345.461512 166.716989 
L 348.678228 174.286549 
L 351.894943 183.076407 
L 355.111659 193.768851 
L 358.328375 208.01202 
L 361.54509 232.185818 
L 364.761806 51680.615143 
L 367.978521 51680.615143 
L 371.195237 51680.615143 
L 374.411953 51680.615143 
L 377.628668 51680.615143 
L 380.845384 51680.615143 
L 384.062099 51680.615143 
L 387.278815 51680.615143 
L 390.495531 51680.615143 
L 393.712246 51680.615143 
L 396.928962 51680.615143 
L 396.928962 197.018456 
L 396.928962 197.018456 
L 393.712246 190.273604 
L 390.495531 183.853194 
L 387.278815 177.740978 
L 384.062099 171.921493 
L 380.845384 166.380028 
L 377.628668 161.102588 
L 374.411953 156.075863 
L 371.195237 151.287195 
L 367.978521 146.724548 
L 364.761806 142.376479 
L 361.54509 138.232113 
L 358.328375 134.281113 
L 355.111659 130.51366 
L 351.894943 126.920423 
L 348.678228 123.49254 
L 345.461512 120.221597 
L 342.244796 117.099602 
L 339.028081 114.11897 
L 335.811365 111.272502 
L 332.59465 108.553366 
L 329.377934 105.955077 
L 326.161218 103.471485 
L 322.944503 101.096755 
L 319.727787 98.825353 
L 316.511071 96.652029 
L 313.294356 94.571807 
L 310.07764 92.579964 
L 306.860925 90.672023 
L 303.644209 88.843738 
L 300.427493 87.091083 
L 297.210778 85.410238 
L 293.994062 83.79758 
L 290.777347 82.249669 
L 287.560631 80.763245 
L 284.343915 79.335209 
L 281.1272 77.962619 
L 277.910484 76.642683 
L 274.693768 75.372742 
L 271.477053 74.150273 
L 268.260337 72.972872 
L 265.043622 71.83825 
L 261.826906 70.744226 
L 258.61019 69.688722 
L 255.393475 68.669751 
L 252.176759 67.685416 
L 248.960044 66.733902 
L 245.743328 65.813472 
L 242.526612 64.922458 
L 239.309897 64.059259 
L 236.093181 63.222339 
L 232.876465 62.410214 
L 229.65975 61.621459 
L 226.443034 60.854695 
L 223.226319 60.108595 
L 220.009603 59.381871 
L 216.792887 58.673283 
L 213.576172 57.981631 
L 210.359456 57.305755 
L 207.142741 56.644537 
L 203.926025 55.996903 
L 200.709309 55.361821 
L 197.492594 54.738307 
L 194.275878 54.125426 
L 191.059162 53.522294 
L 187.842447 52.928088 
L 184.625731 52.342038 
L 181.409016 51.763443 
L 178.1923 51.191662 
L 174.975584 50.626122 
L 171.758869 50.066314 
L 168.542153 49.511797 
L 165.325437 48.962186 
L 162.108722 48.417158 
L 158.892006 47.87644 
L 155.675291 47.339807 
L 152.458575 46.807071 
L 149.241859 46.278084 
L 146.025144 45.752719 
L 142.808428 45.230877 
L 139.591713 44.712472 
L 136.374997 44.197433 
L 133.158281 43.685695 
L 129.941566 43.177202 
L 126.72485 42.671898 
L 123.508134 42.169728 
L 120.291419 41.67064 
L 117.074703 41.174578 
L 113.857988 40.681485 
L 110.641272 40.191303 
L 107.424556 39.703971 
L 104.207841 39.219425 
L 100.991125 38.737602 
L 97.77441 38.258435 
L 94.557694 37.781856 
L 91.340978 37.307798 
L 88.124263 36.836191 
L 84.907547 36.366967 
L 81.690831 35.900055 
L 78.474116 35.435387 
z
" clip-path="url(#p08666a41cb)" style="fill: #008000; fill-opacity: 0.5"/>
   </g>
   <g id="PolyCollection_2">
    <path d="M 78.474116 35.636522 
L 78.474116 44.410361 
L 81.690831 44.623686 
L 84.907547 44.844146 
L 88.124263 45.07201 
L 91.340978 45.307573 
L 94.557694 45.551152 
L 97.77441 45.803092 
L 100.991125 46.063767 
L 104.207841 46.333579 
L 107.424556 46.612963 
L 110.641272 46.902388 
L 113.857988 47.202354 
L 117.074703 47.513398 
L 120.291419 47.836085 
L 123.508134 48.171016 
L 126.72485 48.518816 
L 129.941566 48.88013 
L 133.158281 49.255619 
L 136.374997 49.645948 
L 139.591713 50.051772 
L 142.808428 50.473729 
L 146.025144 50.912419 
L 149.241859 51.368398 
L 152.458575 51.842165 
L 155.675291 52.334157 
L 158.892006 52.844744 
L 162.108722 53.374236 
L 165.325437 53.922893 
L 168.542153 54.490938 
L 171.758869 55.078577 
L 174.975584 55.686015 
L 178.1923 56.313485 
L 181.409016 56.961264 
L 184.625731 57.62969 
L 187.842447 58.319185 
L 191.059162 59.030266 
L 194.275878 59.763557 
L 197.492594 60.519803 
L 200.709309 61.299876 
L 203.926025 62.104784 
L 207.142741 62.935681 
L 210.359456 63.793868 
L 213.576172 64.680805 
L 216.792887 65.598116 
L 220.009603 66.547593 
L 223.226319 67.531208 
L 226.443034 68.551118 
L 229.65975 69.609672 
L 232.876465 70.709425 
L 236.093181 71.853145 
L 239.309897 73.043827 
L 242.526612 74.284708 
L 245.743328 75.579283 
L 248.960044 76.931328 
L 252.176759 78.344923 
L 255.393475 79.824484 
L 258.61019 81.374801 
L 261.826906 83.001082 
L 265.043622 84.709014 
L 268.260337 86.504829 
L 271.477053 88.395394 
L 274.693768 90.38832 
L 277.910484 92.492104 
L 281.1272 94.716299 
L 284.343915 97.07175 
L 287.560631 99.570885 
L 290.777347 102.228119 
L 293.994062 105.060383 
L 297.210778 108.087867 
L 300.427493 111.335063 
L 303.644209 114.832283 
L 306.860925 118.617923 
L 310.07764 122.741997 
L 313.294356 127.271862 
L 316.511071 132.302053 
L 319.727787 137.972332 
L 322.944503 144.503934 
L 326.161218 152.281687 
L 329.377934 162.076234 
L 332.59465 175.850715 
L 335.811365 202.403402 
L 339.028081 51680.615143 
L 342.244796 51680.615143 
L 345.461512 51680.615143 
L 348.678228 51680.615143 
L 351.894943 51680.615143 
L 355.111659 51680.615143 
L 358.328375 51680.615143 
L 361.54509 51680.615143 
L 364.761806 51680.615143 
L 367.978521 51680.615143 
L 371.195237 51680.615143 
L 374.411953 51680.615143 
L 377.628668 51680.615143 
L 380.845384 51680.615143 
L 384.062099 51680.615143 
L 387.278815 51680.615143 
L 390.495531 51680.615143 
L 393.712246 51680.615143 
L 396.928962 51680.615143 
L 396.928962 188.21518 
L 396.928962 188.21518 
L 393.712246 181.730637 
L 390.495531 175.572963 
L 387.278815 169.72564 
L 384.062099 164.172912 
L 380.845384 158.899751 
L 377.628668 153.891824 
L 374.411953 149.135461 
L 371.195237 144.61762 
L 367.978521 140.325866 
L 364.761806 136.248339 
L 361.54509 132.373727 
L 358.328375 128.691247 
L 355.111659 125.190617 
L 351.894943 121.862038 
L 348.678228 118.69617 
L 345.461512 115.684115 
L 342.244796 112.817399 
L 339.028081 110.087953 
L 335.811365 107.4881 
L 332.59465 105.010533 
L 329.377934 102.64831 
L 326.161218 100.39483 
L 322.944503 98.243827 
L 319.727787 96.189357 
L 316.511071 94.225782 
L 313.294356 92.347762 
L 310.07764 90.550246 
L 306.860925 88.828457 
L 303.644209 87.177886 
L 300.427493 85.594282 
L 297.210778 84.073643 
L 293.994062 82.612205 
L 290.777347 81.206437 
L 287.560631 79.853032 
L 284.343915 78.548896 
L 281.1272 77.291143 
L 277.910484 76.077086 
L 274.693768 74.90423 
L 271.477053 73.770258 
L 268.260337 72.673031 
L 265.043622 71.610571 
L 261.826906 70.581059 
L 258.61019 69.582818 
L 255.393475 68.614307 
L 252.176759 67.674112 
L 248.960044 66.76093 
L 245.743328 65.873563 
L 242.526612 65.010904 
L 239.309897 64.171925 
L 236.093181 63.355667 
L 232.876465 62.561231 
L 229.65975 61.787763 
L 226.443034 61.034445 
L 223.226319 60.30049 
L 220.009603 59.585126 
L 216.792887 58.887593 
L 213.576172 58.207133 
L 210.359456 57.542986 
L 207.142741 56.89438 
L 203.926025 56.26053 
L 200.709309 55.64063 
L 197.492594 55.033856 
L 194.275878 54.439355 
L 191.059162 53.85625 
L 187.842447 53.283639 
L 184.625731 52.720599 
L 181.409016 52.166184 
L 178.1923 51.61944 
L 174.975584 51.079409 
L 171.758869 50.545142 
L 168.542153 50.015714 
L 165.325437 49.49024 
L 162.108722 48.967894 
L 158.892006 48.447924 
L 155.675291 47.929666 
L 152.458575 47.41256 
L 149.241859 46.89615 
L 146.025144 46.380093 
L 142.808428 45.864147 
L 139.591713 45.348168 
L 136.374997 44.832095 
L 133.158281 44.315936 
L 129.941566 43.799754 
L 126.72485 43.283647 
L 123.508134 42.767743 
L 120.291419 42.252182 
L 117.074703 41.73711 
L 113.857988 41.222672 
L 110.641272 40.709004 
L 107.424556 40.196235 
L 104.207841 39.684479 
L 100.991125 39.173839 
L 97.77441 38.664404 
L 94.557694 38.156249 
L 91.340978 37.649439 
L 88.124263 37.144024 
L 84.907547 36.640046 
L 81.690831 36.137538 
L 78.474116 35.636522 
z
" clip-path="url(#p08666a41cb)" style="fill: #ff0000; fill-opacity: 0.6"/>
   </g>
   <g id="matplotlib.axis_1">
    <g id="xtick_1">
     <g id="line2d_1">
      <defs>
       <path id="m97262a43ca" d="M 0 0 
L 0 3.5 
" style="stroke: #000000; stroke-width: 0.8"/>
      </defs>
      <g>
       <use xlink:href="#m97262a43ca" x="124.170399" y="242.728" style="stroke: #000000; stroke-width: 0.8"/>
      </g>
     </g>
     <g id="text_1">
      <!-- $\mathdefault{10^{0}}$ -->
      <g transform="translate(115.370399 257.326437) scale(0.1 -0.1)">
       <defs>
        <path id="DejaVuSans-31" d="M 794 531 
L 1825 531 
L 1825 4091 
L 703 3866 
L 703 4441 
L 1819 4666 
L 2450 4666 
L 2450 531 
L 3481 531 
L 3481 0 
L 794 0 
L 794 531 
z
" transform="scale(0.015625)"/>
        <path id="DejaVuSans-30" d="M 2034 4250 
Q 1547 4250 1301 3770 
Q 1056 3291 1056 2328 
Q 1056 1369 1301 889 
Q 1547 409 2034 409 
Q 2525 409 2770 889 
Q 3016 1369 3016 2328 
Q 3016 3291 2770 3770 
Q 2525 4250 2034 4250 
z
M 2034 4750 
Q 2819 4750 3233 4129 
Q 3647 3509 3647 2328 
Q 3647 1150 3233 529 
Q 2819 -91 2034 -91 
Q 1250 -91 836 529 
Q 422 1150 422 2328 
Q 422 3509 836 4129 
Q 1250 4750 2034 4750 
z
" transform="scale(0.015625)"/>
       </defs>
       <use xlink:href="#DejaVuSans-31" transform="translate(0 0.765625)"/>
       <use xlink:href="#DejaVuSans-30" transform="translate(63.623047 0.765625)"/>
       <use xlink:href="#DejaVuSans-30" transform="translate(128.203125 39.046875) scale(0.7)"/>
      </g>
     </g>
    </g>
    <g id="xtick_2">
     <g id="line2d_2">
      <g>
       <use xlink:href="#m97262a43ca" x="275.545252" y="242.728" style="stroke: #000000; stroke-width: 0.8"/>
      </g>
     </g>
     <g id="text_2">
      <!-- $\mathdefault{10^{1}}$ -->
      <g transform="translate(266.745252 257.326437) scale(0.1 -0.1)">
       <use xlink:href="#DejaVuSans-31" transform="translate(0 0.684375)"/>
       <use xlink:href="#DejaVuSans-30" transform="translate(63.623047 0.684375)"/>
       <use xlink:href="#DejaVuSans-31" transform="translate(128.203125 38.965625) scale(0.7)"/>
      </g>
     </g>
    </g>
    <g id="xtick_3">
     <g id="line2d_3">
      <defs>
       <path id="m04593a3126" d="M 0 0 
L 0 2 
" style="stroke: #000000; stroke-width: 0.6"/>
      </defs>
      <g>
       <use xlink:href="#m04593a3126" x="63.932289" y="242.728" style="stroke: #000000; stroke-width: 0.6"/>
      </g>
     </g>
    </g>
    <g id="xtick_4">
     <g id="line2d_4">
      <g>
       <use xlink:href="#m04593a3126" x="78.602028" y="242.728" style="stroke: #000000; stroke-width: 0.6"/>
      </g>
     </g>
    </g>
    <g id="xtick_5">
     <g id="line2d_5">
      <g>
       <use xlink:href="#m04593a3126" x="90.588078" y="242.728" style="stroke: #000000; stroke-width: 0.6"/>
      </g>
     </g>
    </g>
    <g id="xtick_6">
     <g id="line2d_6">
      <g>
       <use xlink:href="#m04593a3126" x="100.722138" y="242.728" style="stroke: #000000; stroke-width: 0.6"/>
      </g>
     </g>
    </g>
    <g id="xtick_7">
     <g id="line2d_7">
      <g>
       <use xlink:href="#m04593a3126" x="109.500661" y="242.728" style="stroke: #000000; stroke-width: 0.6"/>
      </g>
     </g>
    </g>
    <g id="xtick_8">
     <g id="line2d_8">
      <g>
       <use xlink:href="#m04593a3126" x="117.243866" y="242.728" style="stroke: #000000; stroke-width: 0.6"/>
      </g>
     </g>
    </g>
    <g id="xtick_9">
     <g id="line2d_9">
      <g>
       <use xlink:href="#m04593a3126" x="169.738771" y="242.728" style="stroke: #000000; stroke-width: 0.6"/>
      </g>
     </g>
    </g>
    <g id="xtick_10">
     <g id="line2d_10">
      <g>
       <use xlink:href="#m04593a3126" x="196.394559" y="242.728" style="stroke: #000000; stroke-width: 0.6"/>
      </g>
     </g>
    </g>
    <g id="xtick_11">
     <g id="line2d_11">
      <g>
       <use xlink:href="#m04593a3126" x="215.307142" y="242.728" style="stroke: #000000; stroke-width: 0.6"/>
      </g>
     </g>
    </g>
    <g id="xtick_12">
     <g id="line2d_12">
      <g>
       <use xlink:href="#m04593a3126" x="229.976881" y="242.728" style="stroke: #000000; stroke-width: 0.6"/>
      </g>
     </g>
    </g>
    <g id="xtick_13">
     <g id="line2d_13">
      <g>
       <use xlink:href="#m04593a3126" x="241.96293" y="242.728" style="stroke: #000000; stroke-width: 0.6"/>
      </g>
     </g>
    </g>
    <g id="xtick_14">
     <g id="line2d_14">
      <g>
       <use xlink:href="#m04593a3126" x="252.096991" y="242.728" style="stroke: #000000; stroke-width: 0.6"/>
      </g>
     </g>
    </g>
    <g id="xtick_15">
     <g id="line2d_15">
      <g>
       <use xlink:href="#m04593a3126" x="260.875513" y="242.728" style="stroke: #000000; stroke-width: 0.6"/>
      </g>
     </g>
    </g>
    <g id="xtick_16">
     <g id="line2d_16">
      <g>
       <use xlink:href="#m04593a3126" x="268.618719" y="242.728" style="stroke: #000000; stroke-width: 0.6"/>
      </g>
     </g>
    </g>
    <g id="xtick_17">
     <g id="line2d_17">
      <g>
       <use xlink:href="#m04593a3126" x="321.113623" y="242.728" style="stroke: #000000; stroke-width: 0.6"/>
      </g>
     </g>
    </g>
    <g id="xtick_18">
     <g id="line2d_18">
      <g>
       <use xlink:href="#m04593a3126" x="347.769412" y="242.728" style="stroke: #000000; stroke-width: 0.6"/>
      </g>
     </g>
    </g>
    <g id="xtick_19">
     <g id="line2d_19">
      <g>
       <use xlink:href="#m04593a3126" x="366.681994" y="242.728" style="stroke: #000000; stroke-width: 0.6"/>
      </g>
     </g>
    </g>
    <g id="xtick_20">
     <g id="line2d_20">
      <g>
       <use xlink:href="#m04593a3126" x="381.351733" y="242.728" style="stroke: #000000; stroke-width: 0.6"/>
      </g>
     </g>
    </g>
    <g id="xtick_21">
     <g id="line2d_21">
      <g>
       <use xlink:href="#m04593a3126" x="393.337783" y="242.728" style="stroke: #000000; stroke-width: 0.6"/>
      </g>
     </g>
    </g>
    <g id="xtick_22">
     <g id="line2d_22">
      <g>
       <use xlink:href="#m04593a3126" x="403.471843" y="242.728" style="stroke: #000000; stroke-width: 0.6"/>
      </g>
     </g>
    </g>
    <g id="xtick_23">
     <g id="line2d_23">
      <g>
       <use xlink:href="#m04593a3126" x="412.250366" y="242.728" style="stroke: #000000; stroke-width: 0.6"/>
      </g>
     </g>
    </g>
    <g id="xtick_24">
     <g id="line2d_24">
      <g>
       <use xlink:href="#m04593a3126" x="419.993571" y="242.728" style="stroke: #000000; stroke-width: 0.6"/>
      </g>
     </g>
    </g>
    <g id="text_3">
     <!-- Energy [TeV] -->
     <g transform="translate(209.136788 271.004562) scale(0.1 -0.1)">
      <defs>
       <path id="DejaVuSans-45" d="M 628 4666 
L 3578 4666 
L 3578 4134 
L 1259 4134 
L 1259 2753 
L 3481 2753 
L 3481 2222 
L 1259 2222 
L 1259 531 
L 3634 531 
L 3634 0 
L 628 0 
L 628 4666 
z
" transform="scale(0.015625)"/>
       <path id="DejaVuSans-6e" d="M 3513 2113 
L 3513 0 
L 2938 0 
L 2938 2094 
Q 2938 2591 2744 2837 
Q 2550 3084 2163 3084 
Q 1697 3084 1428 2787 
Q 1159 2491 1159 1978 
L 1159 0 
L 581 0 
L 581 3500 
L 1159 3500 
L 1159 2956 
Q 1366 3272 1645 3428 
Q 1925 3584 2291 3584 
Q 2894 3584 3203 3211 
Q 3513 2838 3513 2113 
z
" transform="scale(0.015625)"/>
       <path id="DejaVuSans-65" d="M 3597 1894 
L 3597 1613 
L 953 1613 
Q 991 1019 1311 708 
Q 1631 397 2203 397 
Q 2534 397 2845 478 
Q 3156 559 3463 722 
L 3463 178 
Q 3153 47 2828 -22 
Q 2503 -91 2169 -91 
Q 1331 -91 842 396 
Q 353 884 353 1716 
Q 353 2575 817 3079 
Q 1281 3584 2069 3584 
Q 2775 3584 3186 3129 
Q 3597 2675 3597 1894 
z
M 3022 2063 
Q 3016 2534 2758 2815 
Q 2500 3097 2075 3097 
Q 1594 3097 1305 2825 
Q 1016 2553 972 2059 
L 3022 2063 
z
" transform="scale(0.015625)"/>
       <path id="DejaVuSans-72" d="M 2631 2963 
Q 2534 3019 2420 3045 
Q 2306 3072 2169 3072 
Q 1681 3072 1420 2755 
Q 1159 2438 1159 1844 
L 1159 0 
L 581 0 
L 581 3500 
L 1159 3500 
L 1159 2956 
Q 1341 3275 1631 3429 
Q 1922 3584 2338 3584 
Q 2397 3584 2469 3576 
Q 2541 3569 2628 3553 
L 2631 2963 
z
" transform="scale(0.015625)"/>
       <path id="DejaVuSans-67" d="M 2906 1791 
Q 2906 2416 2648 2759 
Q 2391 3103 1925 3103 
Q 1463 3103 1205 2759 
Q 947 2416 947 1791 
Q 947 1169 1205 825 
Q 1463 481 1925 481 
Q 2391 481 2648 825 
Q 2906 1169 2906 1791 
z
M 3481 434 
Q 3481 -459 3084 -895 
Q 2688 -1331 1869 -1331 
Q 1566 -1331 1297 -1286 
Q 1028 -1241 775 -1147 
L 775 -588 
Q 1028 -725 1275 -790 
Q 1522 -856 1778 -856 
Q 2344 -856 2625 -561 
Q 2906 -266 2906 331 
L 2906 616 
Q 2728 306 2450 153 
Q 2172 0 1784 0 
Q 1141 0 747 490 
Q 353 981 353 1791 
Q 353 2603 747 3093 
Q 1141 3584 1784 3584 
Q 2172 3584 2450 3431 
Q 2728 3278 2906 2969 
L 2906 3500 
L 3481 3500 
L 3481 434 
z
" transform="scale(0.015625)"/>
       <path id="DejaVuSans-79" d="M 2059 -325 
Q 1816 -950 1584 -1140 
Q 1353 -1331 966 -1331 
L 506 -1331 
L 506 -850 
L 844 -850 
Q 1081 -850 1212 -737 
Q 1344 -625 1503 -206 
L 1606 56 
L 191 3500 
L 800 3500 
L 1894 763 
L 2988 3500 
L 3597 3500 
L 2059 -325 
z
" transform="scale(0.015625)"/>
       <path id="DejaVuSans-20" transform="scale(0.015625)"/>
       <path id="DejaVuSans-5b" d="M 550 4863 
L 1875 4863 
L 1875 4416 
L 1125 4416 
L 1125 -397 
L 1875 -397 
L 1875 -844 
L 550 -844 
L 550 4863 
z
" transform="scale(0.015625)"/>
       <path id="DejaVuSans-54" d="M -19 4666 
L 3928 4666 
L 3928 4134 
L 2272 4134 
L 2272 0 
L 1638 0 
L 1638 4134 
L -19 4134 
L -19 4666 
z
" transform="scale(0.015625)"/>
       <path id="DejaVuSans-56" d="M 1831 0 
L 50 4666 
L 709 4666 
L 2188 738 
L 3669 4666 
L 4325 4666 
L 2547 0 
L 1831 0 
z
" transform="scale(0.015625)"/>
       <path id="DejaVuSans-5d" d="M 1947 4863 
L 1947 -844 
L 622 -844 
L 622 -397 
L 1369 -397 
L 1369 4416 
L 622 4416 
L 622 4863 
L 1947 4863 
z
" transform="scale(0.015625)"/>
      </defs>
      <use xlink:href="#DejaVuSans-45"/>
      <use xlink:href="#DejaVuSans-6e" x="63.183594"/>
      <use xlink:href="#DejaVuSans-65" x="126.5625"/>
      <use xlink:href="#DejaVuSans-72" x="188.085938"/>
      <use xlink:href="#DejaVuSans-67" x="227.449219"/>
      <use xlink:href="#DejaVuSans-79" x="290.925781"/>
      <use xlink:href="#DejaVuSans-20" x="350.105469"/>
      <use xlink:href="#DejaVuSans-5b" x="381.892578"/>
      <use xlink:href="#DejaVuSans-54" x="420.90625"/>
      <use xlink:href="#DejaVuSans-65" x="464.990234"/>
      <use xlink:href="#DejaVuSans-56" x="526.513672"/>
      <use xlink:href="#DejaVuSans-5d" x="594.921875"/>
     </g>
    </g>
   </g>
   <g id="matplotlib.axis_2">
    <g id="ytick_1">
     <g id="line2d_25">
      <defs>
       <path id="md7b30761bd" d="M 0 0 
L -3.5 0 
" style="stroke: #000000; stroke-width: 0.8"/>
      </defs>
      <g>
       <use xlink:href="#md7b30761bd" x="60.468889" y="197.925994" style="stroke: #000000; stroke-width: 0.8"/>
      </g>
     </g>
     <g id="text_4">
      <!-- $\mathdefault{10^{-15}}$ -->
      <g transform="translate(25.568889 201.725213) scale(0.1 -0.1)">
       <defs>
        <path id="DejaVuSans-2212" d="M 678 2272 
L 4684 2272 
L 4684 1741 
L 678 1741 
L 678 2272 
z
" transform="scale(0.015625)"/>
        <path id="DejaVuSans-35" d="M 691 4666 
L 3169 4666 
L 3169 4134 
L 1269 4134 
L 1269 2991 
Q 1406 3038 1543 3061 
Q 1681 3084 1819 3084 
Q 2600 3084 3056 2656 
Q 3513 2228 3513 1497 
Q 3513 744 3044 326 
Q 2575 -91 1722 -91 
Q 1428 -91 1123 -41 
Q 819 9 494 109 
L 494 744 
Q 775 591 1075 516 
Q 1375 441 1709 441 
Q 2250 441 2565 725 
Q 2881 1009 2881 1497 
Q 2881 1984 2565 2268 
Q 2250 2553 1709 2553 
Q 1456 2553 1204 2497 
Q 953 2441 691 2322 
L 691 4666 
z
" transform="scale(0.015625)"/>
       </defs>
       <use xlink:href="#DejaVuSans-31" transform="translate(0 0.684375)"/>
       <use xlink:href="#DejaVuSans-30" transform="translate(63.623047 0.684375)"/>
       <use xlink:href="#DejaVuSans-2212" transform="translate(128.203125 38.965625) scale(0.7)"/>
       <use xlink:href="#DejaVuSans-31" transform="translate(186.855469 38.965625) scale(0.7)"/>
       <use xlink:href="#DejaVuSans-35" transform="translate(231.391602 38.965625) scale(0.7)"/>
      </g>
     </g>
    </g>
    <g id="ytick_2">
     <g id="line2d_26">
      <g>
       <use xlink:href="#md7b30761bd" x="60.468889" y="145.659305" style="stroke: #000000; stroke-width: 0.8"/>
      </g>
     </g>
     <g id="text_5">
      <!-- $\mathdefault{10^{-14}}$ -->
      <g transform="translate(25.568889 149.458524) scale(0.1 -0.1)">
       <defs>
        <path id="DejaVuSans-34" d="M 2419 4116 
L 825 1625 
L 2419 1625 
L 2419 4116 
z
M 2253 4666 
L 3047 4666 
L 3047 1625 
L 3713 1625 
L 3713 1100 
L 3047 1100 
L 3047 0 
L 2419 0 
L 2419 1100 
L 313 1100 
L 313 1709 
L 2253 4666 
z
" transform="scale(0.015625)"/>
       </defs>
       <use xlink:href="#DejaVuSans-31" transform="translate(0 0.684375)"/>
       <use xlink:href="#DejaVuSans-30" transform="translate(63.623047 0.684375)"/>
       <use xlink:href="#DejaVuSans-2212" transform="translate(128.203125 38.965625) scale(0.7)"/>
       <use xlink:href="#DejaVuSans-31" transform="translate(186.855469 38.965625) scale(0.7)"/>
       <use xlink:href="#DejaVuSans-34" transform="translate(231.391602 38.965625) scale(0.7)"/>
      </g>
     </g>
    </g>
    <g id="ytick_3">
     <g id="line2d_27">
      <g>
       <use xlink:href="#md7b30761bd" x="60.468889" y="93.392615" style="stroke: #000000; stroke-width: 0.8"/>
      </g>
     </g>
     <g id="text_6">
      <!-- $\mathdefault{10^{-13}}$ -->
      <g transform="translate(25.568889 97.191834) scale(0.1 -0.1)">
       <defs>
        <path id="DejaVuSans-33" d="M 2597 2516 
Q 3050 2419 3304 2112 
Q 3559 1806 3559 1356 
Q 3559 666 3084 287 
Q 2609 -91 1734 -91 
Q 1441 -91 1130 -33 
Q 819 25 488 141 
L 488 750 
Q 750 597 1062 519 
Q 1375 441 1716 441 
Q 2309 441 2620 675 
Q 2931 909 2931 1356 
Q 2931 1769 2642 2001 
Q 2353 2234 1838 2234 
L 1294 2234 
L 1294 2753 
L 1863 2753 
Q 2328 2753 2575 2939 
Q 2822 3125 2822 3475 
Q 2822 3834 2567 4026 
Q 2313 4219 1838 4219 
Q 1578 4219 1281 4162 
Q 984 4106 628 3988 
L 628 4550 
Q 988 4650 1302 4700 
Q 1616 4750 1894 4750 
Q 2613 4750 3031 4423 
Q 3450 4097 3450 3541 
Q 3450 3153 3228 2886 
Q 3006 2619 2597 2516 
z
" transform="scale(0.015625)"/>
       </defs>
       <use xlink:href="#DejaVuSans-31" transform="translate(0 0.765625)"/>
       <use xlink:href="#DejaVuSans-30" transform="translate(63.623047 0.765625)"/>
       <use xlink:href="#DejaVuSans-2212" transform="translate(128.203125 39.046875) scale(0.7)"/>
       <use xlink:href="#DejaVuSans-31" transform="translate(186.855469 39.046875) scale(0.7)"/>
       <use xlink:href="#DejaVuSans-33" transform="translate(231.391602 39.046875) scale(0.7)"/>
      </g>
     </g>
    </g>
    <g id="ytick_4">
     <g id="line2d_28">
      <g>
       <use xlink:href="#md7b30761bd" x="60.468889" y="41.125926" style="stroke: #000000; stroke-width: 0.8"/>
      </g>
     </g>
     <g id="text_7">
      <!-- $\mathdefault{10^{-12}}$ -->
      <g transform="translate(25.568889 44.925145) scale(0.1 -0.1)">
       <defs>
        <path id="DejaVuSans-32" d="M 1228 531 
L 3431 531 
L 3431 0 
L 469 0 
L 469 531 
Q 828 903 1448 1529 
Q 2069 2156 2228 2338 
Q 2531 2678 2651 2914 
Q 2772 3150 2772 3378 
Q 2772 3750 2511 3984 
Q 2250 4219 1831 4219 
Q 1534 4219 1204 4116 
Q 875 4013 500 3803 
L 500 4441 
Q 881 4594 1212 4672 
Q 1544 4750 1819 4750 
Q 2544 4750 2975 4387 
Q 3406 4025 3406 3419 
Q 3406 3131 3298 2873 
Q 3191 2616 2906 2266 
Q 2828 2175 2409 1742 
Q 1991 1309 1228 531 
z
" transform="scale(0.015625)"/>
       </defs>
       <use xlink:href="#DejaVuSans-31" transform="translate(0 0.765625)"/>
       <use xlink:href="#DejaVuSans-30" transform="translate(63.623047 0.765625)"/>
       <use xlink:href="#DejaVuSans-2212" transform="translate(128.203125 39.046875) scale(0.7)"/>
       <use xlink:href="#DejaVuSans-31" transform="translate(186.855469 39.046875) scale(0.7)"/>
       <use xlink:href="#DejaVuSans-32" transform="translate(231.391602 39.046875) scale(0.7)"/>
      </g>
     </g>
    </g>
    <g id="ytick_5">
     <g id="line2d_29">
      <defs>
       <path id="mbac1dda833" d="M 0 0 
L -2 0 
" style="stroke: #000000; stroke-width: 0.6"/>
      </defs>
      <g>
       <use xlink:href="#mbac1dda833" x="60.468889" y="234.458843" style="stroke: #000000; stroke-width: 0.6"/>
      </g>
     </g>
    </g>
    <g id="ytick_6">
     <g id="line2d_30">
      <g>
       <use xlink:href="#mbac1dda833" x="60.468889" y="225.255135" style="stroke: #000000; stroke-width: 0.6"/>
      </g>
     </g>
    </g>
    <g id="ytick_7">
     <g id="line2d_31">
      <g>
       <use xlink:href="#mbac1dda833" x="60.468889" y="218.725001" style="stroke: #000000; stroke-width: 0.6"/>
      </g>
     </g>
    </g>
    <g id="ytick_8">
     <g id="line2d_32">
      <g>
       <use xlink:href="#mbac1dda833" x="60.468889" y="213.659836" style="stroke: #000000; stroke-width: 0.6"/>
      </g>
     </g>
    </g>
    <g id="ytick_9">
     <g id="line2d_33">
      <g>
       <use xlink:href="#mbac1dda833" x="60.468889" y="209.521294" style="stroke: #000000; stroke-width: 0.6"/>
      </g>
     </g>
    </g>
    <g id="ytick_10">
     <g id="line2d_34">
      <g>
       <use xlink:href="#mbac1dda833" x="60.468889" y="206.022207" style="stroke: #000000; stroke-width: 0.6"/>
      </g>
     </g>
    </g>
    <g id="ytick_11">
     <g id="line2d_35">
      <g>
       <use xlink:href="#mbac1dda833" x="60.468889" y="202.99116" style="stroke: #000000; stroke-width: 0.6"/>
      </g>
     </g>
    </g>
    <g id="ytick_12">
     <g id="line2d_36">
      <g>
       <use xlink:href="#mbac1dda833" x="60.468889" y="200.317587" style="stroke: #000000; stroke-width: 0.6"/>
      </g>
     </g>
    </g>
    <g id="ytick_13">
     <g id="line2d_37">
      <g>
       <use xlink:href="#mbac1dda833" x="60.468889" y="182.192153" style="stroke: #000000; stroke-width: 0.6"/>
      </g>
     </g>
    </g>
    <g id="ytick_14">
     <g id="line2d_38">
      <g>
       <use xlink:href="#mbac1dda833" x="60.468889" y="172.988446" style="stroke: #000000; stroke-width: 0.6"/>
      </g>
     </g>
    </g>
    <g id="ytick_15">
     <g id="line2d_39">
      <g>
       <use xlink:href="#mbac1dda833" x="60.468889" y="166.458312" style="stroke: #000000; stroke-width: 0.6"/>
      </g>
     </g>
    </g>
    <g id="ytick_16">
     <g id="line2d_40">
      <g>
       <use xlink:href="#mbac1dda833" x="60.468889" y="161.393146" style="stroke: #000000; stroke-width: 0.6"/>
      </g>
     </g>
    </g>
    <g id="ytick_17">
     <g id="line2d_41">
      <g>
       <use xlink:href="#mbac1dda833" x="60.468889" y="157.254605" style="stroke: #000000; stroke-width: 0.6"/>
      </g>
     </g>
    </g>
    <g id="ytick_18">
     <g id="line2d_42">
      <g>
       <use xlink:href="#mbac1dda833" x="60.468889" y="153.755518" style="stroke: #000000; stroke-width: 0.6"/>
      </g>
     </g>
    </g>
    <g id="ytick_19">
     <g id="line2d_43">
      <g>
       <use xlink:href="#mbac1dda833" x="60.468889" y="150.72447" style="stroke: #000000; stroke-width: 0.6"/>
      </g>
     </g>
    </g>
    <g id="ytick_20">
     <g id="line2d_44">
      <g>
       <use xlink:href="#mbac1dda833" x="60.468889" y="148.050897" style="stroke: #000000; stroke-width: 0.6"/>
      </g>
     </g>
    </g>
    <g id="ytick_21">
     <g id="line2d_45">
      <g>
       <use xlink:href="#mbac1dda833" x="60.468889" y="129.925464" style="stroke: #000000; stroke-width: 0.6"/>
      </g>
     </g>
    </g>
    <g id="ytick_22">
     <g id="line2d_46">
      <g>
       <use xlink:href="#mbac1dda833" x="60.468889" y="120.721756" style="stroke: #000000; stroke-width: 0.6"/>
      </g>
     </g>
    </g>
    <g id="ytick_23">
     <g id="line2d_47">
      <g>
       <use xlink:href="#mbac1dda833" x="60.468889" y="114.191622" style="stroke: #000000; stroke-width: 0.6"/>
      </g>
     </g>
    </g>
    <g id="ytick_24">
     <g id="line2d_48">
      <g>
       <use xlink:href="#mbac1dda833" x="60.468889" y="109.126457" style="stroke: #000000; stroke-width: 0.6"/>
      </g>
     </g>
    </g>
    <g id="ytick_25">
     <g id="line2d_49">
      <g>
       <use xlink:href="#mbac1dda833" x="60.468889" y="104.987915" style="stroke: #000000; stroke-width: 0.6"/>
      </g>
     </g>
    </g>
    <g id="ytick_26">
     <g id="line2d_50">
      <g>
       <use xlink:href="#mbac1dda833" x="60.468889" y="101.488828" style="stroke: #000000; stroke-width: 0.6"/>
      </g>
     </g>
    </g>
    <g id="ytick_27">
     <g id="line2d_51">
      <g>
       <use xlink:href="#mbac1dda833" x="60.468889" y="98.457781" style="stroke: #000000; stroke-width: 0.6"/>
      </g>
     </g>
    </g>
    <g id="ytick_28">
     <g id="line2d_52">
      <g>
       <use xlink:href="#mbac1dda833" x="60.468889" y="95.784208" style="stroke: #000000; stroke-width: 0.6"/>
      </g>
     </g>
    </g>
    <g id="ytick_29">
     <g id="line2d_53">
      <g>
       <use xlink:href="#mbac1dda833" x="60.468889" y="77.658774" style="stroke: #000000; stroke-width: 0.6"/>
      </g>
     </g>
    </g>
    <g id="ytick_30">
     <g id="line2d_54">
      <g>
       <use xlink:href="#mbac1dda833" x="60.468889" y="68.455067" style="stroke: #000000; stroke-width: 0.6"/>
      </g>
     </g>
    </g>
    <g id="ytick_31">
     <g id="line2d_55">
      <g>
       <use xlink:href="#mbac1dda833" x="60.468889" y="61.924933" style="stroke: #000000; stroke-width: 0.6"/>
      </g>
     </g>
    </g>
    <g id="ytick_32">
     <g id="line2d_56">
      <g>
       <use xlink:href="#mbac1dda833" x="60.468889" y="56.859767" style="stroke: #000000; stroke-width: 0.6"/>
      </g>
     </g>
    </g>
    <g id="ytick_33">
     <g id="line2d_57">
      <g>
       <use xlink:href="#mbac1dda833" x="60.468889" y="52.721226" style="stroke: #000000; stroke-width: 0.6"/>
      </g>
     </g>
    </g>
    <g id="ytick_34">
     <g id="line2d_58">
      <g>
       <use xlink:href="#mbac1dda833" x="60.468889" y="49.222139" style="stroke: #000000; stroke-width: 0.6"/>
      </g>
     </g>
    </g>
    <g id="ytick_35">
     <g id="line2d_59">
      <g>
       <use xlink:href="#mbac1dda833" x="60.468889" y="46.191091" style="stroke: #000000; stroke-width: 0.6"/>
      </g>
     </g>
    </g>
    <g id="ytick_36">
     <g id="line2d_60">
      <g>
       <use xlink:href="#mbac1dda833" x="60.468889" y="43.517518" style="stroke: #000000; stroke-width: 0.6"/>
      </g>
     </g>
    </g>
    <g id="ytick_37">
     <g id="line2d_61">
      <g>
       <use xlink:href="#mbac1dda833" x="60.468889" y="25.392085" style="stroke: #000000; stroke-width: 0.6"/>
      </g>
     </g>
    </g>
    <g id="ytick_38">
     <g id="line2d_62">
      <g>
       <use xlink:href="#mbac1dda833" x="60.468889" y="16.188377" style="stroke: #000000; stroke-width: 0.6"/>
      </g>
     </g>
    </g>
    <g id="text_8">
     <!-- e2 * dnde [TeV / (cm2 s)] -->
     <g transform="translate(19.489202 189.243688) rotate(-90) scale(0.1 -0.1)">
      <defs>
       <path id="DejaVuSans-2a" d="M 3009 3897 
L 1888 3291 
L 3009 2681 
L 2828 2375 
L 1778 3009 
L 1778 1831 
L 1422 1831 
L 1422 3009 
L 372 2375 
L 191 2681 
L 1313 3291 
L 191 3897 
L 372 4206 
L 1422 3572 
L 1422 4750 
L 1778 4750 
L 1778 3572 
L 2828 4206 
L 3009 3897 
z
" transform="scale(0.015625)"/>
       <path id="DejaVuSans-64" d="M 2906 2969 
L 2906 4863 
L 3481 4863 
L 3481 0 
L 2906 0 
L 2906 525 
Q 2725 213 2448 61 
Q 2172 -91 1784 -91 
Q 1150 -91 751 415 
Q 353 922 353 1747 
Q 353 2572 751 3078 
Q 1150 3584 1784 3584 
Q 2172 3584 2448 3432 
Q 2725 3281 2906 2969 
z
M 947 1747 
Q 947 1113 1208 752 
Q 1469 391 1925 391 
Q 2381 391 2643 752 
Q 2906 1113 2906 1747 
Q 2906 2381 2643 2742 
Q 2381 3103 1925 3103 
Q 1469 3103 1208 2742 
Q 947 2381 947 1747 
z
" transform="scale(0.015625)"/>
       <path id="DejaVuSans-2f" d="M 1625 4666 
L 2156 4666 
L 531 -594 
L 0 -594 
L 1625 4666 
z
" transform="scale(0.015625)"/>
       <path id="DejaVuSans-28" d="M 1984 4856 
Q 1566 4138 1362 3434 
Q 1159 2731 1159 2009 
Q 1159 1288 1364 580 
Q 1569 -128 1984 -844 
L 1484 -844 
Q 1016 -109 783 600 
Q 550 1309 550 2009 
Q 550 2706 781 3412 
Q 1013 4119 1484 4856 
L 1984 4856 
z
" transform="scale(0.015625)"/>
       <path id="DejaVuSans-63" d="M 3122 3366 
L 3122 2828 
Q 2878 2963 2633 3030 
Q 2388 3097 2138 3097 
Q 1578 3097 1268 2742 
Q 959 2388 959 1747 
Q 959 1106 1268 751 
Q 1578 397 2138 397 
Q 2388 397 2633 464 
Q 2878 531 3122 666 
L 3122 134 
Q 2881 22 2623 -34 
Q 2366 -91 2075 -91 
Q 1284 -91 818 406 
Q 353 903 353 1747 
Q 353 2603 823 3093 
Q 1294 3584 2113 3584 
Q 2378 3584 2631 3529 
Q 2884 3475 3122 3366 
z
" transform="scale(0.015625)"/>
       <path id="DejaVuSans-6d" d="M 3328 2828 
Q 3544 3216 3844 3400 
Q 4144 3584 4550 3584 
Q 5097 3584 5394 3201 
Q 5691 2819 5691 2113 
L 5691 0 
L 5113 0 
L 5113 2094 
Q 5113 2597 4934 2840 
Q 4756 3084 4391 3084 
Q 3944 3084 3684 2787 
Q 3425 2491 3425 1978 
L 3425 0 
L 2847 0 
L 2847 2094 
Q 2847 2600 2669 2842 
Q 2491 3084 2119 3084 
Q 1678 3084 1418 2786 
Q 1159 2488 1159 1978 
L 1159 0 
L 581 0 
L 581 3500 
L 1159 3500 
L 1159 2956 
Q 1356 3278 1631 3431 
Q 1906 3584 2284 3584 
Q 2666 3584 2933 3390 
Q 3200 3197 3328 2828 
z
" transform="scale(0.015625)"/>
       <path id="DejaVuSans-73" d="M 2834 3397 
L 2834 2853 
Q 2591 2978 2328 3040 
Q 2066 3103 1784 3103 
Q 1356 3103 1142 2972 
Q 928 2841 928 2578 
Q 928 2378 1081 2264 
Q 1234 2150 1697 2047 
L 1894 2003 
Q 2506 1872 2764 1633 
Q 3022 1394 3022 966 
Q 3022 478 2636 193 
Q 2250 -91 1575 -91 
Q 1294 -91 989 -36 
Q 684 19 347 128 
L 347 722 
Q 666 556 975 473 
Q 1284 391 1588 391 
Q 1994 391 2212 530 
Q 2431 669 2431 922 
Q 2431 1156 2273 1281 
Q 2116 1406 1581 1522 
L 1381 1569 
Q 847 1681 609 1914 
Q 372 2147 372 2553 
Q 372 3047 722 3315 
Q 1072 3584 1716 3584 
Q 2034 3584 2315 3537 
Q 2597 3491 2834 3397 
z
" transform="scale(0.015625)"/>
       <path id="DejaVuSans-29" d="M 513 4856 
L 1013 4856 
Q 1481 4119 1714 3412 
Q 1947 2706 1947 2009 
Q 1947 1309 1714 600 
Q 1481 -109 1013 -844 
L 513 -844 
Q 928 -128 1133 580 
Q 1338 1288 1338 2009 
Q 1338 2731 1133 3434 
Q 928 4138 513 4856 
z
" transform="scale(0.015625)"/>
      </defs>
      <use xlink:href="#DejaVuSans-65"/>
      <use xlink:href="#DejaVuSans-32" x="61.523438"/>
      <use xlink:href="#DejaVuSans-20" x="125.146484"/>
      <use xlink:href="#DejaVuSans-2a" x="156.933594"/>
      <use xlink:href="#DejaVuSans-20" x="206.933594"/>
      <use xlink:href="#DejaVuSans-64" x="238.720703"/>
      <use xlink:href="#DejaVuSans-6e" x="302.197266"/>
      <use xlink:href="#DejaVuSans-64" x="365.576172"/>
      <use xlink:href="#DejaVuSans-65" x="429.052734"/>
      <use xlink:href="#DejaVuSans-20" x="490.576172"/>
      <use xlink:href="#DejaVuSans-5b" x="522.363281"/>
      <use xlink:href="#DejaVuSans-54" x="561.376953"/>
      <use xlink:href="#DejaVuSans-65" x="605.460938"/>
      <use xlink:href="#DejaVuSans-56" x="666.984375"/>
      <use xlink:href="#DejaVuSans-20" x="735.392578"/>
      <use xlink:href="#DejaVuSans-2f" x="767.179688"/>
      <use xlink:href="#DejaVuSans-20" x="800.871094"/>
      <use xlink:href="#DejaVuSans-28" x="832.658203"/>
      <use xlink:href="#DejaVuSans-63" x="871.671875"/>
      <use xlink:href="#DejaVuSans-6d" x="926.652344"/>
      <use xlink:href="#DejaVuSans-32" x="1024.064453"/>
      <use xlink:href="#DejaVuSans-20" x="1087.6875"/>
      <use xlink:href="#DejaVuSans-73" x="1119.474609"/>
      <use xlink:href="#DejaVuSans-29" x="1171.574219"/>
      <use xlink:href="#DejaVuSans-5d" x="1210.587891"/>
     </g>
    </g>
   </g>
   <g id="line2d_63">
    <path d="M 78.474116 39.602138 
L 81.690831 39.986328 
L 84.907547 40.373447 
L 88.124263 40.763642 
L 91.340978 41.157067 
L 94.557694 41.553885 
L 97.77441 41.954265 
L 100.991125 42.358386 
L 104.207841 42.766435 
L 107.424556 43.17861 
L 110.641272 43.595118 
L 113.857988 44.016175 
L 117.074703 44.44201 
L 120.291419 44.872863 
L 123.508134 45.308984 
L 126.72485 45.750639 
L 129.941566 46.198105 
L 133.158281 46.651673 
L 136.374997 47.111649 
L 139.591713 47.578355 
L 142.808428 48.052128 
L 146.025144 48.533322 
L 149.241859 49.02231 
L 152.458575 49.519482 
L 155.675291 50.025249 
L 158.892006 50.540042 
L 162.108722 51.064313 
L 165.325437 51.598538 
L 168.542153 52.143216 
L 171.758869 52.698871 
L 174.975584 53.266053 
L 178.1923 53.845341 
L 181.409016 54.437342 
L 184.625731 55.042692 
L 187.842447 55.662063 
L 191.059162 56.296156 
L 194.275878 56.94571 
L 197.492594 57.6115 
L 200.709309 58.294341 
L 203.926025 58.995087 
L 207.142741 59.714637 
L 210.359456 60.453933 
L 213.576172 61.213965 
L 216.792887 61.995774 
L 220.009603 62.800451 
L 223.226319 63.629143 
L 226.443034 64.483055 
L 229.65975 65.363451 
L 232.876465 66.27166 
L 236.093181 67.209075 
L 239.309897 68.177162 
L 242.526612 69.177458 
L 245.743328 70.21158 
L 248.960044 71.281222 
L 252.176759 72.388167 
L 255.393475 73.534285 
L 258.61019 74.72154 
L 261.826906 75.951995 
L 265.043622 77.227817 
L 268.260337 78.55128 
L 271.477053 79.924774 
L 274.693768 81.350808 
L 277.910484 82.832016 
L 281.1272 84.371165 
L 284.343915 85.97116 
L 287.560631 87.635053 
L 290.777347 89.366048 
L 293.994062 91.167511 
L 297.210778 93.042974 
L 300.427493 94.996149 
L 303.644209 97.030932 
L 306.860925 99.151416 
L 310.07764 101.361899 
L 313.294356 103.666894 
L 316.511071 106.07114 
L 319.727787 108.579615 
L 322.944503 111.197545 
L 326.161218 113.930418 
L 329.377934 116.784 
L 332.59465 119.764343 
L 335.811365 122.877803 
L 339.028081 126.131057 
L 342.244796 129.531114 
L 345.461512 133.085336 
L 348.678228 136.801455 
L 351.894943 140.687587 
L 355.111659 144.75226 
L 358.328375 149.004427 
L 361.54509 153.453489 
L 364.761806 158.10932 
L 367.978521 162.98229 
L 371.195237 168.083286 
L 374.411953 173.423744 
L 377.628668 179.015672 
L 380.845384 184.871681 
L 384.062099 191.005012 
L 387.278815 197.429574 
L 390.495531 204.15997 
L 393.712246 211.211536 
L 396.928962 218.600379 
" clip-path="url(#p08666a41cb)" style="fill: none; stroke-dasharray: 1.5,2.475; stroke-dashoffset: 0; stroke: #000000; stroke-width: 1.5"/>
   </g>
   <g id="LineCollection_1">
    <path clip-path="url(#p08666a41cb)" style="fill: none; stroke: #8b0000; stroke-width: 1.5"/>
    <path clip-path="url(#p08666a41cb)" style="fill: none; stroke: #8b0000; stroke-width: 1.5"/>
    <path clip-path="url(#p08666a41cb)" style="fill: none; stroke: #8b0000; stroke-width: 1.5"/>
    <path clip-path="url(#p08666a41cb)" style="fill: none; stroke: #8b0000; stroke-width: 1.5"/>
    <path clip-path="url(#p08666a41cb)" style="fill: none; stroke: #8b0000; stroke-width: 1.5"/>
    <path d="M 83.13157 289 
L 83.13157 21.376886 
" clip-path="url(#p08666a41cb)" style="fill: none; stroke: #8b0000; stroke-width: 1.5"/>
    <path d="M 102.053426 56.117576 
L 102.053426 32.918655 
" clip-path="url(#p08666a41cb)" style="fill: none; stroke: #8b0000; stroke-width: 1.5"/>
    <path d="M 120.975283 50.482482 
L 120.975283 39.160425 
" clip-path="url(#p08666a41cb)" style="fill: none; stroke: #8b0000; stroke-width: 1.5"/>
    <path d="M 139.897139 52.232138 
L 139.897139 42.310157 
" clip-path="url(#p08666a41cb)" style="fill: none; stroke: #8b0000; stroke-width: 1.5"/>
    <path d="M 158.818996 55.275235 
L 158.818996 45.003235 
" clip-path="url(#p08666a41cb)" style="fill: none; stroke: #8b0000; stroke-width: 1.5"/>
    <path d="M 177.740852 58.889088 
L 177.740852 47.8205 
" clip-path="url(#p08666a41cb)" style="fill: none; stroke: #8b0000; stroke-width: 1.5"/>
    <path d="M 196.662709 63.27741 
L 196.662709 50.815728 
" clip-path="url(#p08666a41cb)" style="fill: none; stroke: #8b0000; stroke-width: 1.5"/>
    <path d="M 215.584566 68.722984 
L 215.584566 54.076257 
" clip-path="url(#p08666a41cb)" style="fill: none; stroke: #8b0000; stroke-width: 1.5"/>
    <path d="M 234.506422 75.367502 
L 234.506422 57.865109 
" clip-path="url(#p08666a41cb)" style="fill: none; stroke: #8b0000; stroke-width: 1.5"/>
    <path d="M 253.428279 84.450681 
L 253.428279 62.092798 
" clip-path="url(#p08666a41cb)" style="fill: none; stroke: #8b0000; stroke-width: 1.5"/>
    <path d="M 272.350135 98.295934 
L 272.350135 66.849042 
" clip-path="url(#p08666a41cb)" style="fill: none; stroke: #8b0000; stroke-width: 1.5"/>
    <path d="M 291.271992 125.985904 
L 291.271992 72.36306 
" clip-path="url(#p08666a41cb)" style="fill: none; stroke: #8b0000; stroke-width: 1.5"/>
    <path d="M 310.193848 289 
L 310.193848 78.524061 
" clip-path="url(#p08666a41cb)" style="fill: none; stroke: #8b0000; stroke-width: 1.5"/>
    <path d="M 329.115705 289 
L 329.115705 85.285896 
" clip-path="url(#p08666a41cb)" style="fill: none; stroke: #8b0000; stroke-width: 1.5"/>
    <path d="M 348.037562 289 
L 348.037562 93.055417 
" clip-path="url(#p08666a41cb)" style="fill: none; stroke: #8b0000; stroke-width: 1.5"/>
    <path d="M 366.959418 289 
L 366.959418 101.574469 
" clip-path="url(#p08666a41cb)" style="fill: none; stroke: #8b0000; stroke-width: 1.5"/>
    <path d="M 385.881275 289 
L 385.881275 111.530359 
" clip-path="url(#p08666a41cb)" style="fill: none; stroke: #8b0000; stroke-width: 1.5"/>
    <path d="M 404.803131 289 
L 404.803131 124.198263 
" clip-path="url(#p08666a41cb)" style="fill: none; stroke: #8b0000; stroke-width: 1.5"/>
    <path clip-path="url(#p08666a41cb)" style="fill: none; stroke: #8b0000; stroke-width: 1.5"/>
   </g>
   <g id="LineCollection_2">
    <path clip-path="url(#p08666a41cb)" style="fill: none; stroke: #006400; stroke-width: 1.5"/>
    <path clip-path="url(#p08666a41cb)" style="fill: none; stroke: #006400; stroke-width: 1.5"/>
    <path clip-path="url(#p08666a41cb)" style="fill: none; stroke: #006400; stroke-width: 1.5"/>
    <path clip-path="url(#p08666a41cb)" style="fill: none; stroke: #006400; stroke-width: 1.5"/>
    <path clip-path="url(#p08666a41cb)" style="fill: none; stroke: #006400; stroke-width: 1.5"/>
    <path d="M 76.865758 289 
L 76.865758 21.342182 
" clip-path="url(#p08666a41cb)" style="fill: none; stroke: #006400; stroke-width: 1.5"/>
    <path d="M 95.787615 56.466225 
L 95.787615 32.79063 
" clip-path="url(#p08666a41cb)" style="fill: none; stroke: #006400; stroke-width: 1.5"/>
    <path d="M 114.709471 50.965822 
L 114.709471 38.87075 
" clip-path="url(#p08666a41cb)" style="fill: none; stroke: #006400; stroke-width: 1.5"/>
    <path d="M 133.631328 52.759613 
L 133.631328 41.975845 
" clip-path="url(#p08666a41cb)" style="fill: none; stroke: #006400; stroke-width: 1.5"/>
    <path d="M 152.553184 55.782994 
L 152.553184 44.682327 
" clip-path="url(#p08666a41cb)" style="fill: none; stroke: #006400; stroke-width: 1.5"/>
    <path d="M 171.475041 59.365823 
L 171.475041 47.528095 
" clip-path="url(#p08666a41cb)" style="fill: none; stroke: #006400; stroke-width: 1.5"/>
    <path d="M 190.396897 63.716312 
L 190.396897 50.564416 
" clip-path="url(#p08666a41cb)" style="fill: none; stroke: #006400; stroke-width: 1.5"/>
    <path d="M 209.318754 69.127648 
L 209.318754 53.872299 
" clip-path="url(#p08666a41cb)" style="fill: none; stroke: #006400; stroke-width: 1.5"/>
    <path d="M 228.240611 75.741601 
L 228.240611 57.708251 
" clip-path="url(#p08666a41cb)" style="fill: none; stroke: #006400; stroke-width: 1.5"/>
    <path d="M 247.162467 84.790345 
L 247.162467 61.969966 
" clip-path="url(#p08666a41cb)" style="fill: none; stroke: #006400; stroke-width: 1.5"/>
    <path d="M 266.084324 98.674358 
L 266.084324 66.772476 
" clip-path="url(#p08666a41cb)" style="fill: none; stroke: #006400; stroke-width: 1.5"/>
    <path d="M 285.00618 126.653509 
L 285.00618 72.319759 
" clip-path="url(#p08666a41cb)" style="fill: none; stroke: #006400; stroke-width: 1.5"/>
    <path d="M 303.928037 289 
L 303.928037 78.509034 
" clip-path="url(#p08666a41cb)" style="fill: none; stroke: #006400; stroke-width: 1.5"/>
    <path d="M 322.849893 289 
L 322.849893 85.292938 
" clip-path="url(#p08666a41cb)" style="fill: none; stroke: #006400; stroke-width: 1.5"/>
    <path d="M 341.77175 289 
L 341.77175 93.08061 
" clip-path="url(#p08666a41cb)" style="fill: none; stroke: #006400; stroke-width: 1.5"/>
    <path d="M 360.693607 289 
L 360.693607 101.595472 
" clip-path="url(#p08666a41cb)" style="fill: none; stroke: #006400; stroke-width: 1.5"/>
    <path d="M 379.615463 289 
L 379.615463 111.604202 
" clip-path="url(#p08666a41cb)" style="fill: none; stroke: #006400; stroke-width: 1.5"/>
    <path d="M 398.53732 289 
L 398.53732 124.319952 
" clip-path="url(#p08666a41cb)" style="fill: none; stroke: #006400; stroke-width: 1.5"/>
    <path clip-path="url(#p08666a41cb)" style="fill: none; stroke: #006400; stroke-width: 1.5"/>
   </g>
   <g id="line2d_64">
    <defs>
     <path id="m5d2acc9b18" d="M 0 3 
C 0.795609 3 1.55874 2.683901 2.12132 2.12132 
C 2.683901 1.55874 3 0.795609 3 0 
C 3 -0.795609 2.683901 -1.55874 2.12132 -2.12132 
C 1.55874 -2.683901 0.795609 -3 0 -3 
C -0.795609 -3 -1.55874 -2.683901 -2.12132 -2.12132 
C -2.683901 -1.55874 -3 -0.795609 -3 0 
C -3 0.795609 -2.683901 1.55874 -2.12132 2.12132 
C -1.55874 2.683901 -0.795609 3 0 3 
z
" style="stroke: #8b0000"/>
    </defs>
    <g clip-path="url(#p08666a41cb)">
     <use xlink:href="#m5d2acc9b18" x="83.13157" y="39.351497" style="fill: #8b0000; stroke: #8b0000"/>
     <use xlink:href="#m5d2acc9b18" x="102.053426" y="41.675062" style="fill: #8b0000; stroke: #8b0000"/>
     <use xlink:href="#m5d2acc9b18" x="120.975283" y="44.122739" style="fill: #8b0000; stroke: #8b0000"/>
     <use xlink:href="#m5d2acc9b18" x="139.897139" y="46.733286" style="fill: #8b0000; stroke: #8b0000"/>
     <use xlink:href="#m5d2acc9b18" x="158.818996" y="49.56308" style="fill: #8b0000; stroke: #8b0000"/>
     <use xlink:href="#m5d2acc9b18" x="177.740852" y="52.686714" style="fill: #8b0000; stroke: #8b0000"/>
     <use xlink:href="#m5d2acc9b18" x="196.662709" y="56.201924" style="fill: #8b0000; stroke: #8b0000"/>
     <use xlink:href="#m5d2acc9b18" x="215.584566" y="60.238205" style="fill: #8b0000; stroke: #8b0000"/>
     <use xlink:href="#m5d2acc9b18" x="234.506422" y="64.969585" style="fill: #8b0000; stroke: #8b0000"/>
     <use xlink:href="#m5d2acc9b18" x="253.428279" y="70.623588" style="fill: #8b0000; stroke: #8b0000"/>
     <use xlink:href="#m5d2acc9b18" x="272.350135" y="77.513558" style="fill: #8b0000; stroke: #8b0000"/>
     <use xlink:href="#m5d2acc9b18" x="291.271992" y="86.053435" style="fill: #8b0000; stroke: #8b0000"/>
     <use xlink:href="#m5d2acc9b18" x="310.193848" y="96.803298" style="fill: #8b0000; stroke: #8b0000"/>
     <use xlink:href="#m5d2acc9b18" x="329.115705" y="110.488679" style="fill: #8b0000; stroke: #8b0000"/>
     <use xlink:href="#m5d2acc9b18" x="348.037562" y="128.108763" style="fill: #8b0000; stroke: #8b0000"/>
     <use xlink:href="#m5d2acc9b18" x="366.959418" y="151.089645" style="fill: #8b0000; stroke: #8b0000"/>
     <use xlink:href="#m5d2acc9b18" x="385.881275" y="180.966152" style="fill: #8b0000; stroke: #8b0000"/>
     <use xlink:href="#m5d2acc9b18" x="404.803131" y="220.3996" style="fill: #8b0000; stroke: #8b0000"/>
    </g>
   </g>
   <g id="line2d_65">
    <defs>
     <path id="mf884999879" d="M 0 3 
C 0.795609 3 1.55874 2.683901 2.12132 2.12132 
C 2.683901 1.55874 3 0.795609 3 0 
C 3 -0.795609 2.683901 -1.55874 2.12132 -2.12132 
C 1.55874 -2.683901 0.795609 -3 0 -3 
C -0.795609 -3 -1.55874 -2.683901 -2.12132 -2.12132 
C -2.683901 -1.55874 -3 -0.795609 -3 0 
C -3 0.795609 -2.683901 1.55874 -2.12132 2.12132 
C -1.55874 2.683901 -0.795609 3 0 3 
z
" style="stroke: #006400"/>
    </defs>
    <g clip-path="url(#p08666a41cb)">
     <use xlink:href="#mf884999879" x="76.865758" y="39.34718" style="fill: #006400; stroke: #006400"/>
     <use xlink:href="#mf884999879" x="95.787615" y="41.672211" style="fill: #006400; stroke: #006400"/>
     <use xlink:href="#mf884999879" x="114.709471" y="44.122043" style="fill: #006400; stroke: #006400"/>
     <use xlink:href="#mf884999879" x="133.631328" y="46.733276" style="fill: #006400; stroke: #006400"/>
     <use xlink:href="#mf884999879" x="152.553184" y="49.56074" style="fill: #006400; stroke: #006400"/>
     <use xlink:href="#mf884999879" x="171.475041" y="52.683868" style="fill: #006400; stroke: #006400"/>
     <use xlink:href="#mf884999879" x="190.396897" y="56.20087" style="fill: #006400; stroke: #006400"/>
     <use xlink:href="#mf884999879" x="209.318754" y="60.241812" style="fill: #006400; stroke: #006400"/>
     <use xlink:href="#mf884999879" x="228.240611" y="64.979303" style="fill: #006400; stroke: #006400"/>
     <use xlink:href="#mf884999879" x="247.162467" y="70.625582" style="fill: #006400; stroke: #006400"/>
     <use xlink:href="#mf884999879" x="266.084324" y="77.52733" style="fill: #006400; stroke: #006400"/>
     <use xlink:href="#mf884999879" x="285.00618" y="86.070468" style="fill: #006400; stroke: #006400"/>
     <use xlink:href="#mf884999879" x="303.928037" y="96.825703" style="fill: #006400; stroke: #006400"/>
     <use xlink:href="#mf884999879" x="322.849893" y="110.519646" style="fill: #006400; stroke: #006400"/>
     <use xlink:href="#mf884999879" x="341.77175" y="128.154198" style="fill: #006400; stroke: #006400"/>
     <use xlink:href="#mf884999879" x="360.693607" y="151.040597" style="fill: #006400; stroke: #006400"/>
     <use xlink:href="#mf884999879" x="379.615463" y="181.091197" style="fill: #006400; stroke: #006400"/>
     <use xlink:href="#mf884999879" x="398.53732" y="220.657773" style="fill: #006400; stroke: #006400"/>
    </g>
   </g>
   <g id="patch_3">
    <path d="M 60.468889 242.728 
L 60.468889 10.8 
" style="fill: none; stroke: #000000; stroke-width: 0.8; stroke-linejoin: miter; stroke-linecap: square"/>
   </g>
   <g id="patch_4">
    <path d="M 421.2 242.728 
L 421.2 10.8 
" style="fill: none; stroke: #000000; stroke-width: 0.8; stroke-linejoin: miter; stroke-linecap: square"/>
   </g>
   <g id="patch_5">
    <path d="M 60.468889 242.728 
L 421.2 242.728 
" style="fill: none; stroke: #000000; stroke-width: 0.8; stroke-linejoin: miter; stroke-linecap: square"/>
   </g>
   <g id="patch_6">
    <path d="M 60.468889 10.8 
L 421.2 10.8 
" style="fill: none; stroke: #000000; stroke-width: 0.8; stroke-linejoin: miter; stroke-linecap: square"/>
   </g>
   <g id="legend_1">
    <g id="patch_7">
     <path d="M 320.3 62.834375 
L 414.2 62.834375 
Q 416.2 62.834375 416.2 60.834375 
L 416.2 17.8 
Q 416.2 15.8 414.2 15.8 
L 320.3 15.8 
Q 318.3 15.8 318.3 17.8 
L 318.3 60.834375 
Q 318.3 62.834375 320.3 62.834375 
z
" style="fill: #ffffff; opacity: 0.8; stroke: #cccccc; stroke-linejoin: miter"/>
    </g>
    <g id="patch_8">
     <path d="M 322.3 27.398438 
L 342.3 27.398438 
L 342.3 20.398438 
L 322.3 20.398438 
z
" style="fill: #008000; fill-opacity: 0.5"/>
    </g>
    <g id="text_9">
     <!-- $1\sigma$ Nuisance -->
     <g transform="translate(350.3 27.398438) scale(0.1 -0.1)">
      <defs>
       <path id="DejaVuSans-Oblique-3c3" d="M 2219 3044 
Q 1744 3044 1422 2700 
Q 1081 2341 969 1747 
Q 844 1119 1044 756 
Q 1241 397 1706 397 
Q 2166 397 2503 759 
Q 2844 1122 2966 1747 
Q 3075 2319 2881 2700 
Q 2700 3044 2219 3044 
z
M 2309 3503 
L 4219 3500 
L 4106 2925 
L 3463 2925 
Q 3706 2438 3575 1747 
Q 3406 888 2884 400 
Q 2359 -91 1609 -91 
Q 856 -91 525 400 
Q 194 888 363 1747 
Q 528 2609 1050 3097 
Q 1484 3503 2309 3503 
z
" transform="scale(0.015625)"/>
       <path id="DejaVuSans-4e" d="M 628 4666 
L 1478 4666 
L 3547 763 
L 3547 4666 
L 4159 4666 
L 4159 0 
L 3309 0 
L 1241 3903 
L 1241 0 
L 628 0 
L 628 4666 
z
" transform="scale(0.015625)"/>
       <path id="DejaVuSans-75" d="M 544 1381 
L 544 3500 
L 1119 3500 
L 1119 1403 
Q 1119 906 1312 657 
Q 1506 409 1894 409 
Q 2359 409 2629 706 
Q 2900 1003 2900 1516 
L 2900 3500 
L 3475 3500 
L 3475 0 
L 2900 0 
L 2900 538 
Q 2691 219 2414 64 
Q 2138 -91 1772 -91 
Q 1169 -91 856 284 
Q 544 659 544 1381 
z
M 1991 3584 
L 1991 3584 
z
" transform="scale(0.015625)"/>
       <path id="DejaVuSans-69" d="M 603 3500 
L 1178 3500 
L 1178 0 
L 603 0 
L 603 3500 
z
M 603 4863 
L 1178 4863 
L 1178 4134 
L 603 4134 
L 603 4863 
z
" transform="scale(0.015625)"/>
       <path id="DejaVuSans-61" d="M 2194 1759 
Q 1497 1759 1228 1600 
Q 959 1441 959 1056 
Q 959 750 1161 570 
Q 1363 391 1709 391 
Q 2188 391 2477 730 
Q 2766 1069 2766 1631 
L 2766 1759 
L 2194 1759 
z
M 3341 1997 
L 3341 0 
L 2766 0 
L 2766 531 
Q 2569 213 2275 61 
Q 1981 -91 1556 -91 
Q 1019 -91 701 211 
Q 384 513 384 1019 
Q 384 1609 779 1909 
Q 1175 2209 1959 2209 
L 2766 2209 
L 2766 2266 
Q 2766 2663 2505 2880 
Q 2244 3097 1772 3097 
Q 1472 3097 1187 3025 
Q 903 2953 641 2809 
L 641 3341 
Q 956 3463 1253 3523 
Q 1550 3584 1831 3584 
Q 2591 3584 2966 3190 
Q 3341 2797 3341 1997 
z
" transform="scale(0.015625)"/>
      </defs>
      <use xlink:href="#DejaVuSans-31" transform="translate(0 0.015625)"/>
      <use xlink:href="#DejaVuSans-Oblique-3c3" transform="translate(63.623047 0.015625)"/>
      <use xlink:href="#DejaVuSans-20" transform="translate(127.001953 0.015625)"/>
      <use xlink:href="#DejaVuSans-4e" transform="translate(158.789062 0.015625)"/>
      <use xlink:href="#DejaVuSans-75" transform="translate(233.59375 0.015625)"/>
      <use xlink:href="#DejaVuSans-69" transform="translate(296.972656 0.015625)"/>
      <use xlink:href="#DejaVuSans-73" transform="translate(324.755859 0.015625)"/>
      <use xlink:href="#DejaVuSans-61" transform="translate(376.855469 0.015625)"/>
      <use xlink:href="#DejaVuSans-6e" transform="translate(438.134766 0.015625)"/>
      <use xlink:href="#DejaVuSans-63" transform="translate(501.513672 0.015625)"/>
      <use xlink:href="#DejaVuSans-65" transform="translate(556.494141 0.015625)"/>
     </g>
    </g>
    <g id="patch_9">
     <path d="M 322.3 42.076562 
L 342.3 42.076562 
L 342.3 35.076562 
L 322.3 35.076562 
z
" style="fill: #ff0000; fill-opacity: 0.6"/>
    </g>
    <g id="text_10">
     <!-- $1\sigma$ Standard -->
     <g transform="translate(350.3 42.076562) scale(0.1 -0.1)">
      <defs>
       <path id="DejaVuSans-53" d="M 3425 4513 
L 3425 3897 
Q 3066 4069 2747 4153 
Q 2428 4238 2131 4238 
Q 1616 4238 1336 4038 
Q 1056 3838 1056 3469 
Q 1056 3159 1242 3001 
Q 1428 2844 1947 2747 
L 2328 2669 
Q 3034 2534 3370 2195 
Q 3706 1856 3706 1288 
Q 3706 609 3251 259 
Q 2797 -91 1919 -91 
Q 1588 -91 1214 -16 
Q 841 59 441 206 
L 441 856 
Q 825 641 1194 531 
Q 1563 422 1919 422 
Q 2459 422 2753 634 
Q 3047 847 3047 1241 
Q 3047 1584 2836 1778 
Q 2625 1972 2144 2069 
L 1759 2144 
Q 1053 2284 737 2584 
Q 422 2884 422 3419 
Q 422 4038 858 4394 
Q 1294 4750 2059 4750 
Q 2388 4750 2728 4690 
Q 3069 4631 3425 4513 
z
" transform="scale(0.015625)"/>
       <path id="DejaVuSans-74" d="M 1172 4494 
L 1172 3500 
L 2356 3500 
L 2356 3053 
L 1172 3053 
L 1172 1153 
Q 1172 725 1289 603 
Q 1406 481 1766 481 
L 2356 481 
L 2356 0 
L 1766 0 
Q 1100 0 847 248 
Q 594 497 594 1153 
L 594 3053 
L 172 3053 
L 172 3500 
L 594 3500 
L 594 4494 
L 1172 4494 
z
" transform="scale(0.015625)"/>
      </defs>
      <use xlink:href="#DejaVuSans-31" transform="translate(0 0.015625)"/>
      <use xlink:href="#DejaVuSans-Oblique-3c3" transform="translate(63.623047 0.015625)"/>
      <use xlink:href="#DejaVuSans-20" transform="translate(127.001953 0.015625)"/>
      <use xlink:href="#DejaVuSans-53" transform="translate(158.789062 0.015625)"/>
      <use xlink:href="#DejaVuSans-74" transform="translate(222.265625 0.015625)"/>
      <use xlink:href="#DejaVuSans-61" transform="translate(261.474609 0.015625)"/>
      <use xlink:href="#DejaVuSans-6e" transform="translate(322.753906 0.015625)"/>
      <use xlink:href="#DejaVuSans-64" transform="translate(386.132812 0.015625)"/>
      <use xlink:href="#DejaVuSans-61" transform="translate(449.609375 0.015625)"/>
      <use xlink:href="#DejaVuSans-72" transform="translate(510.888672 0.015625)"/>
      <use xlink:href="#DejaVuSans-64" transform="translate(552.001953 0.015625)"/>
     </g>
    </g>
    <g id="line2d_66">
     <path d="M 322.3 53.254687 
L 332.3 53.254687 
L 342.3 53.254687 
" style="fill: none; stroke-dasharray: 1.5,2.475; stroke-dashoffset: 0; stroke: #000000; stroke-width: 1.5"/>
    </g>
    <g id="text_11">
     <!-- Input -->
     <g transform="translate(350.3 56.754687) scale(0.1 -0.1)">
      <defs>
       <path id="DejaVuSans-49" d="M 628 4666 
L 1259 4666 
L 1259 0 
L 628 0 
L 628 4666 
z
" transform="scale(0.015625)"/>
       <path id="DejaVuSans-70" d="M 1159 525 
L 1159 -1331 
L 581 -1331 
L 581 3500 
L 1159 3500 
L 1159 2969 
Q 1341 3281 1617 3432 
Q 1894 3584 2278 3584 
Q 2916 3584 3314 3078 
Q 3713 2572 3713 1747 
Q 3713 922 3314 415 
Q 2916 -91 2278 -91 
Q 1894 -91 1617 61 
Q 1341 213 1159 525 
z
M 3116 1747 
Q 3116 2381 2855 2742 
Q 2594 3103 2138 3103 
Q 1681 3103 1420 2742 
Q 1159 2381 1159 1747 
Q 1159 1113 1420 752 
Q 1681 391 2138 391 
Q 2594 391 2855 752 
Q 3116 1113 3116 1747 
z
" transform="scale(0.015625)"/>
      </defs>
      <use xlink:href="#DejaVuSans-49"/>
      <use xlink:href="#DejaVuSans-6e" x="29.492188"/>
      <use xlink:href="#DejaVuSans-70" x="92.871094"/>
      <use xlink:href="#DejaVuSans-75" x="156.347656"/>
      <use xlink:href="#DejaVuSans-74" x="219.726562"/>
     </g>
    </g>
   </g>
  </g>
 </g>
 <defs>
  <clipPath id="p08666a41cb">
   <rect x="60.468889" y="10.8" width="360.731111" height="231.928"/>
  </clipPath>
 </defs>
</svg>
