<?xml version="1.0" encoding="utf-8" standalone="no"?>
<!DOCTYPE svg PUBLIC "-//W3C//DTD SVG 1.1//EN"
  "http://www.w3.org/Graphics/SVG/1.1/DTD/svg11.dtd">
<svg xmlns:xlink="http://www.w3.org/1999/xlink" width="432pt" height="288pt" viewBox="0 0 432 288" xmlns="http://www.w3.org/2000/svg" version="1.1">
 <metadata>
  <rdf:RDF xmlns:dc="http://purl.org/dc/elements/1.1/" xmlns:cc="http://creativecommons.org/ns#" xmlns:rdf="http://www.w3.org/1999/02/22-rdf-syntax-ns#">
   <cc:Work>
    <dc:type rdf:resource="http://purl.org/dc/dcmitype/StillImage"/>
    <dc:date>2023-03-03T16:12:51.863891</dc:date>
    <dc:format>image/svg+xml</dc:format>
    <dc:creator>
     <cc:Agent>
      <dc:title>Matplotlib v3.6.2, https://matplotlib.org/</dc:title>
     </cc:Agent>
    </dc:creator>
   </cc:Work>
  </rdf:RDF>
 </metadata>
 <defs>
  <style type="text/css">*{stroke-linejoin: round; stroke-linecap: butt}</style>
 </defs>
 <g id="figure_1">
  <g id="patch_1">
   <path d="M 0 288 
L 432 288 
L 432 0 
L 0 0 
z
" style="fill: #ffffff"/>
  </g>
  <g id="axes_1">
   <g id="patch_2">
    <path d="M 60.468889 242.728 
L 421.2 242.728 
L 421.2 10.8 
L 60.468889 10.8 
z
" style="fill: #ffffff"/>
   </g>
   <g id="PolyCollection_1">
    <path d="M 78.474116 32.789289 
L 78.474116 41.159554 
L 81.690831 41.374596 
L 84.907547 41.595842 
L 88.124263 41.823501 
L 91.340978 42.057792 
L 94.557694 42.298945 
L 97.77441 42.547198 
L 100.991125 42.802803 
L 104.207841 43.066018 
L 107.424556 43.33711 
L 110.641272 43.616356 
L 113.857988 43.904035 
L 117.074703 44.200434 
L 120.291419 44.505844 
L 123.508134 44.820558 
L 126.72485 45.144867 
L 129.941566 45.479065 
L 133.158281 45.823442 
L 136.374997 46.178282 
L 139.591713 46.543868 
L 142.808428 46.920476 
L 146.025144 47.308378 
L 149.241859 47.707841 
L 152.458575 48.119128 
L 155.675291 48.542502 
L 158.892006 48.978229 
L 162.108722 49.426578 
L 165.325437 49.887827 
L 168.542153 50.36227 
L 171.758869 50.850221 
L 174.975584 51.352016 
L 178.1923 51.868026 
L 181.409016 52.398658 
L 184.625731 52.944364 
L 187.842447 53.505648 
L 191.059162 54.083071 
L 194.275878 54.677259 
L 197.492594 55.288914 
L 200.709309 55.918815 
L 203.926025 56.567828 
L 207.142741 57.236915 
L 210.359456 57.927139 
L 213.576172 58.639676 
L 216.792887 59.375816 
L 220.009603 60.136978 
L 223.226319 60.924712 
L 226.443034 61.740714 
L 229.65975 62.586826 
L 232.876465 63.465052 
L 236.093181 64.377563 
L 239.309897 65.326709 
L 242.526612 66.315027 
L 245.743328 67.345253 
L 248.960044 68.420336 
L 252.176759 69.543455 
L 255.393475 70.718032 
L 258.61019 71.947761 
L 261.826906 73.236629 
L 265.043622 74.588956 
L 268.260337 76.009432 
L 271.477053 77.503172 
L 274.693768 79.075782 
L 277.910484 80.733439 
L 281.1272 82.482996 
L 284.343915 84.332113 
L 287.560631 86.28943 
L 290.777347 88.364781 
L 293.994062 90.569491 
L 297.210778 92.916757 
L 300.427493 95.422182 
L 303.644209 98.104512 
L 306.860925 100.986693 
L 310.07764 104.097425 
L 313.294356 107.473536 
L 316.511071 111.163741 
L 319.727787 115.234912 
L 322.944503 119.783184 
L 326.161218 124.95521 
L 329.377934 130.993241 
L 332.59465 138.345712 
L 335.811365 148.006333 
L 339.028081 163.083941 
L 342.244796 232.185818 
L 345.461512 43529.633818 
L 348.678228 43529.633818 
L 351.894943 43529.633818 
L 355.111659 43529.633818 
L 358.328375 43529.633818 
L 361.54509 43529.633818 
L 364.761806 43529.633818 
L 367.978521 43529.633818 
L 371.195237 43529.633818 
L 374.411953 43529.633818 
L 377.628668 43529.633818 
L 380.845384 43529.633818 
L 384.062099 43529.633818 
L 387.278815 43529.633818 
L 390.495531 43529.633818 
L 393.712246 43529.633818 
L 396.928962 43529.633818 
L 396.928962 159.024408 
L 396.928962 159.024408 
L 393.712246 153.788745 
L 390.495531 148.815571 
L 387.278815 144.091545 
L 384.062099 139.603943 
L 380.845384 135.34063 
L 377.628668 131.29003 
L 374.411953 127.4411 
L 371.195237 123.783309 
L 367.978521 120.306612 
L 364.761806 117.001429 
L 361.54509 113.858627 
L 358.328375 110.869494 
L 355.111659 108.025728 
L 351.894943 105.319414 
L 348.678228 102.743012 
L 345.461512 100.289337 
L 342.244796 97.951548 
L 339.028081 95.723132 
L 335.811365 93.59789 
L 332.59465 91.569931 
L 329.377934 89.633649 
L 326.161218 87.783724 
L 322.944503 86.015104 
L 319.727787 84.322997 
L 316.511071 82.702862 
L 313.294356 81.150401 
L 310.07764 79.66155 
L 306.860925 78.232471 
L 303.644209 76.859547 
L 300.427493 75.53937 
L 297.210778 74.268739 
L 293.994062 73.044652 
L 290.777347 71.8643 
L 287.560631 70.72506 
L 284.343915 69.62449 
L 281.1272 68.560324 
L 277.910484 67.530463 
L 274.693768 66.532968 
L 271.477053 65.566055 
L 268.260337 64.62809 
L 265.043622 63.717571 
L 261.826906 62.833132 
L 258.61019 61.97352 
L 255.393475 61.137598 
L 252.176759 60.324323 
L 248.960044 59.532744 
L 245.743328 58.761983 
L 242.526612 58.011234 
L 239.309897 57.279741 
L 236.093181 56.566797 
L 232.876465 55.871732 
L 229.65975 55.193904 
L 226.443034 54.53269 
L 223.226319 53.887484 
L 220.009603 53.257688 
L 216.792887 52.64271 
L 213.576172 52.041958 
L 210.359456 51.454841 
L 207.142741 50.880764 
L 203.926025 50.31913 
L 200.709309 49.769338 
L 197.492594 49.230784 
L 194.275878 48.702861 
L 191.059162 48.184961 
L 187.842447 47.676478 
L 184.625731 47.176805 
L 181.409016 46.685344 
L 178.1923 46.201499 
L 174.975584 45.724689 
L 171.758869 45.254342 
L 168.542153 44.789906 
L 165.325437 44.330844 
L 162.108722 43.876643 
L 158.892006 43.426816 
L 155.675291 42.980904 
L 152.458575 42.538475 
L 149.241859 42.099132 
L 146.025144 41.662512 
L 142.808428 41.228283 
L 139.591713 40.796149 
L 136.374997 40.365849 
L 133.158281 39.937153 
L 129.941566 39.509864 
L 126.72485 39.083813 
L 123.508134 38.658859 
L 120.291419 38.234886 
L 117.074703 37.8118 
L 113.857988 37.389526 
L 110.641272 36.968006 
L 107.424556 36.547198 
L 104.207841 36.127069 
L 100.991125 35.7076 
L 97.77441 35.288776 
L 94.557694 34.87059 
L 91.340978 34.453042 
L 88.124263 34.036132 
L 84.907547 33.619866 
L 81.690831 33.204249 
L 78.474116 32.789289 
z
" clip-path="url(#p0e5905a8b0)" style="fill: #008000; fill-opacity: 0.5"/>
   </g>
   <g id="PolyCollection_2">
    <path d="M 78.474116 32.954191 
L 78.474116 41.391166 
L 81.690831 41.507777 
L 84.907547 41.632667 
L 88.124263 41.766077 
L 91.340978 41.908282 
L 94.557694 42.059593 
L 97.77441 42.220366 
L 100.991125 42.391001 
L 104.207841 42.571947 
L 107.424556 42.763707 
L 110.641272 42.966844 
L 113.857988 43.181981 
L 117.074703 43.4098 
L 120.291419 43.651045 
L 123.508134 43.906507 
L 126.72485 44.177019 
L 129.941566 44.463426 
L 133.158281 44.76656 
L 136.374997 45.087193 
L 139.591713 45.425996 
L 142.808428 45.783489 
L 146.025144 46.159993 
L 149.241859 46.555609 
L 152.458575 46.970204 
L 155.675291 47.403426 
L 158.892006 47.854748 
L 162.108722 48.323515 
L 165.325437 48.809007 
L 168.542153 49.310494 
L 171.758869 49.82729 
L 174.975584 50.35879 
L 178.1923 50.904498 
L 181.409016 51.464051 
L 184.625731 52.037224 
L 187.842447 52.623943 
L 191.059162 53.224287 
L 194.275878 53.838493 
L 197.492594 54.46696 
L 200.709309 55.110254 
L 203.926025 55.769115 
L 207.142741 56.444466 
L 210.359456 57.137426 
L 213.576172 57.849316 
L 216.792887 58.581681 
L 220.009603 59.336297 
L 223.226319 60.115191 
L 226.443034 60.920651 
L 229.65975 61.755243 
L 232.876465 62.621816 
L 236.093181 63.52351 
L 239.309897 64.463763 
L 242.526612 65.44631 
L 245.743328 66.475181 
L 248.960044 67.554704 
L 252.176759 68.689507 
L 255.393475 69.884531 
L 258.61019 71.14505 
L 261.826906 72.476712 
L 265.043622 73.885598 
L 268.260337 75.378304 
L 271.477053 76.962062 
L 274.693768 78.644887 
L 277.910484 80.435784 
L 281.1272 82.345006 
L 284.343915 84.384407 
L 287.560631 86.567903 
L 290.777347 88.912116 
L 293.994062 91.437267 
L 297.210778 94.168474 
L 300.427493 97.137689 
L 303.644209 100.386703 
L 306.860925 103.972038 
L 310.07764 107.973329 
L 313.294356 112.508766 
L 316.511071 117.766137 
L 319.727787 124.073427 
L 322.944503 132.090795 
L 326.161218 143.513888 
L 329.377934 166.126926 
L 332.59465 43529.633818 
L 335.811365 43529.633818 
L 339.028081 43529.633818 
L 342.244796 43529.633818 
L 345.461512 43529.633818 
L 348.678228 43529.633818 
L 351.894943 43529.633818 
L 355.111659 43529.633818 
L 358.328375 43529.633818 
L 361.54509 43529.633818 
L 364.761806 43529.633818 
L 367.978521 43529.633818 
L 371.195237 43529.633818 
L 374.411953 43529.633818 
L 377.628668 43529.633818 
L 380.845384 43529.633818 
L 384.062099 43529.633818 
L 387.278815 43529.633818 
L 390.495531 43529.633818 
L 393.712246 43529.633818 
L 396.928962 43529.633818 
L 396.928962 155.844744 
L 396.928962 155.844744 
L 393.712246 150.628079 
L 390.495531 145.681323 
L 387.278815 140.990911 
L 384.062099 136.543889 
L 380.845384 132.327886 
L 377.628668 128.331088 
L 374.411953 124.542209 
L 371.195237 120.950464 
L 367.978521 117.545548 
L 364.761806 114.317607 
L 361.54509 111.257225 
L 358.328375 108.355394 
L 355.111659 105.603503 
L 351.894943 102.993313 
L 348.678228 100.516944 
L 345.461512 98.166857 
L 342.244796 95.935838 
L 339.028081 93.816989 
L 335.811365 91.803706 
L 332.59465 89.889676 
L 329.377934 88.068857 
L 326.161218 86.335475 
L 322.944503 84.68401 
L 319.727787 83.109185 
L 316.511071 81.605963 
L 313.294356 80.169537 
L 310.07764 78.795324 
L 306.860925 77.478957 
L 303.644209 76.216283 
L 300.427493 75.003361 
L 297.210778 73.836453 
L 293.994062 72.71203 
L 290.777347 71.626767 
L 287.560631 70.577548 
L 284.343915 69.561467 
L 281.1272 68.575833 
L 277.910484 67.618178 
L 274.693768 66.686262 
L 271.477053 65.778081 
L 268.260337 64.891874 
L 265.043622 64.026132 
L 261.826906 63.179591 
L 258.61019 62.35124 
L 255.393475 61.540303 
L 252.176759 60.746228 
L 248.960044 59.968664 
L 245.743328 59.207428 
L 242.526612 58.462476 
L 239.309897 57.733857 
L 236.093181 57.021686 
L 232.876465 56.326099 
L 229.65975 55.647225 
L 226.443034 54.985159 
L 223.226319 54.339944 
L 220.009603 53.71155 
L 216.792887 53.099872 
L 213.576172 52.504719 
L 210.359456 51.925818 
L 207.142741 51.362808 
L 203.926025 50.815248 
L 200.709309 50.282613 
L 197.492594 49.764304 
L 194.275878 49.259639 
L 191.059162 48.767864 
L 187.842447 48.288143 
L 184.625731 47.819561 
L 181.409016 47.361123 
L 178.1923 46.911746 
L 174.975584 46.470265 
L 171.758869 46.035433 
L 168.542153 45.605926 
L 165.325437 45.180362 
L 162.108722 44.757324 
L 158.892006 44.335397 
L 155.675291 43.913216 
L 152.458575 43.489517 
L 149.241859 43.0632 
L 146.025144 42.633377 
L 142.808428 42.199405 
L 139.591713 41.760906 
L 136.374997 41.317751 
L 133.158281 40.870033 
L 129.941566 40.418021 
L 126.72485 39.962112 
L 123.508134 39.502777 
L 120.291419 39.04053 
L 117.074703 38.575883 
L 113.857988 38.109333 
L 110.641272 37.641344 
L 107.424556 37.172336 
L 104.207841 36.702687 
L 100.991125 36.232728 
L 97.77441 35.76275 
L 94.557694 35.293001 
L 91.340978 34.823698 
L 88.124263 34.355022 
L 84.907547 33.887129 
L 81.690831 33.420149 
L 78.474116 32.954191 
z
" clip-path="url(#p0e5905a8b0)" style="fill: #ff0000; fill-opacity: 0.6"/>
   </g>
   <g id="matplotlib.axis_1">
    <g id="xtick_1">
     <g id="line2d_1">
      <defs>
       <path id="m8055def39b" d="M 0 0 
L 0 3.5 
" style="stroke: #000000; stroke-width: 0.8"/>
      </defs>
      <g>
       <use xlink:href="#m8055def39b" x="124.170399" y="242.728" style="stroke: #000000; stroke-width: 0.8"/>
      </g>
     </g>
     <g id="text_1">
      <!-- $\mathdefault{10^{0}}$ -->
      <g transform="translate(115.370399 257.326437) scale(0.1 -0.1)">
       <defs>
        <path id="DejaVuSans-31" d="M 794 531 
L 1825 531 
L 1825 4091 
L 703 3866 
L 703 4441 
L 1819 4666 
L 2450 4666 
L 2450 531 
L 3481 531 
L 3481 0 
L 794 0 
L 794 531 
z
" transform="scale(0.015625)"/>
        <path id="DejaVuSans-30" d="M 2034 4250 
Q 1547 4250 1301 3770 
Q 1056 3291 1056 2328 
Q 1056 1369 1301 889 
Q 1547 409 2034 409 
Q 2525 409 2770 889 
Q 3016 1369 3016 2328 
Q 3016 3291 2770 3770 
Q 2525 4250 2034 4250 
z
M 2034 4750 
Q 2819 4750 3233 4129 
Q 3647 3509 3647 2328 
Q 3647 1150 3233 529 
Q 2819 -91 2034 -91 
Q 1250 -91 836 529 
Q 422 1150 422 2328 
Q 422 3509 836 4129 
Q 1250 4750 2034 4750 
z
" transform="scale(0.015625)"/>
       </defs>
       <use xlink:href="#DejaVuSans-31" transform="translate(0 0.765625)"/>
       <use xlink:href="#DejaVuSans-30" transform="translate(63.623047 0.765625)"/>
       <use xlink:href="#DejaVuSans-30" transform="translate(128.203125 39.046875) scale(0.7)"/>
      </g>
     </g>
    </g>
    <g id="xtick_2">
     <g id="line2d_2">
      <g>
       <use xlink:href="#m8055def39b" x="275.545252" y="242.728" style="stroke: #000000; stroke-width: 0.8"/>
      </g>
     </g>
     <g id="text_2">
      <!-- $\mathdefault{10^{1}}$ -->
      <g transform="translate(266.745252 257.326437) scale(0.1 -0.1)">
       <use xlink:href="#DejaVuSans-31" transform="translate(0 0.684375)"/>
       <use xlink:href="#DejaVuSans-30" transform="translate(63.623047 0.684375)"/>
       <use xlink:href="#DejaVuSans-31" transform="translate(128.203125 38.965625) scale(0.7)"/>
      </g>
     </g>
    </g>
    <g id="xtick_3">
     <g id="line2d_3">
      <defs>
       <path id="m480ef63c79" d="M 0 0 
L 0 2 
" style="stroke: #000000; stroke-width: 0.6"/>
      </defs>
      <g>
       <use xlink:href="#m480ef63c79" x="63.932289" y="242.728" style="stroke: #000000; stroke-width: 0.6"/>
      </g>
     </g>
    </g>
    <g id="xtick_4">
     <g id="line2d_4">
      <g>
       <use xlink:href="#m480ef63c79" x="78.602028" y="242.728" style="stroke: #000000; stroke-width: 0.6"/>
      </g>
     </g>
    </g>
    <g id="xtick_5">
     <g id="line2d_5">
      <g>
       <use xlink:href="#m480ef63c79" x="90.588078" y="242.728" style="stroke: #000000; stroke-width: 0.6"/>
      </g>
     </g>
    </g>
    <g id="xtick_6">
     <g id="line2d_6">
      <g>
       <use xlink:href="#m480ef63c79" x="100.722138" y="242.728" style="stroke: #000000; stroke-width: 0.6"/>
      </g>
     </g>
    </g>
    <g id="xtick_7">
     <g id="line2d_7">
      <g>
       <use xlink:href="#m480ef63c79" x="109.500661" y="242.728" style="stroke: #000000; stroke-width: 0.6"/>
      </g>
     </g>
    </g>
    <g id="xtick_8">
     <g id="line2d_8">
      <g>
       <use xlink:href="#m480ef63c79" x="117.243866" y="242.728" style="stroke: #000000; stroke-width: 0.6"/>
      </g>
     </g>
    </g>
    <g id="xtick_9">
     <g id="line2d_9">
      <g>
       <use xlink:href="#m480ef63c79" x="169.738771" y="242.728" style="stroke: #000000; stroke-width: 0.6"/>
      </g>
     </g>
    </g>
    <g id="xtick_10">
     <g id="line2d_10">
      <g>
       <use xlink:href="#m480ef63c79" x="196.394559" y="242.728" style="stroke: #000000; stroke-width: 0.6"/>
      </g>
     </g>
    </g>
    <g id="xtick_11">
     <g id="line2d_11">
      <g>
       <use xlink:href="#m480ef63c79" x="215.307142" y="242.728" style="stroke: #000000; stroke-width: 0.6"/>
      </g>
     </g>
    </g>
    <g id="xtick_12">
     <g id="line2d_12">
      <g>
       <use xlink:href="#m480ef63c79" x="229.976881" y="242.728" style="stroke: #000000; stroke-width: 0.6"/>
      </g>
     </g>
    </g>
    <g id="xtick_13">
     <g id="line2d_13">
      <g>
       <use xlink:href="#m480ef63c79" x="241.96293" y="242.728" style="stroke: #000000; stroke-width: 0.6"/>
      </g>
     </g>
    </g>
    <g id="xtick_14">
     <g id="line2d_14">
      <g>
       <use xlink:href="#m480ef63c79" x="252.096991" y="242.728" style="stroke: #000000; stroke-width: 0.6"/>
      </g>
     </g>
    </g>
    <g id="xtick_15">
     <g id="line2d_15">
      <g>
       <use xlink:href="#m480ef63c79" x="260.875513" y="242.728" style="stroke: #000000; stroke-width: 0.6"/>
      </g>
     </g>
    </g>
    <g id="xtick_16">
     <g id="line2d_16">
      <g>
       <use xlink:href="#m480ef63c79" x="268.618719" y="242.728" style="stroke: #000000; stroke-width: 0.6"/>
      </g>
     </g>
    </g>
    <g id="xtick_17">
     <g id="line2d_17">
      <g>
       <use xlink:href="#m480ef63c79" x="321.113623" y="242.728" style="stroke: #000000; stroke-width: 0.6"/>
      </g>
     </g>
    </g>
    <g id="xtick_18">
     <g id="line2d_18">
      <g>
       <use xlink:href="#m480ef63c79" x="347.769412" y="242.728" style="stroke: #000000; stroke-width: 0.6"/>
      </g>
     </g>
    </g>
    <g id="xtick_19">
     <g id="line2d_19">
      <g>
       <use xlink:href="#m480ef63c79" x="366.681994" y="242.728" style="stroke: #000000; stroke-width: 0.6"/>
      </g>
     </g>
    </g>
    <g id="xtick_20">
     <g id="line2d_20">
      <g>
       <use xlink:href="#m480ef63c79" x="381.351733" y="242.728" style="stroke: #000000; stroke-width: 0.6"/>
      </g>
     </g>
    </g>
    <g id="xtick_21">
     <g id="line2d_21">
      <g>
       <use xlink:href="#m480ef63c79" x="393.337783" y="242.728" style="stroke: #000000; stroke-width: 0.6"/>
      </g>
     </g>
    </g>
    <g id="xtick_22">
     <g id="line2d_22">
      <g>
       <use xlink:href="#m480ef63c79" x="403.471843" y="242.728" style="stroke: #000000; stroke-width: 0.6"/>
      </g>
     </g>
    </g>
    <g id="xtick_23">
     <g id="line2d_23">
      <g>
       <use xlink:href="#m480ef63c79" x="412.250366" y="242.728" style="stroke: #000000; stroke-width: 0.6"/>
      </g>
     </g>
    </g>
    <g id="xtick_24">
     <g id="line2d_24">
      <g>
       <use xlink:href="#m480ef63c79" x="419.993571" y="242.728" style="stroke: #000000; stroke-width: 0.6"/>
      </g>
     </g>
    </g>
    <g id="text_3">
     <!-- Energy [TeV] -->
     <g transform="translate(209.136788 271.004562) scale(0.1 -0.1)">
      <defs>
       <path id="DejaVuSans-45" d="M 628 4666 
L 3578 4666 
L 3578 4134 
L 1259 4134 
L 1259 2753 
L 3481 2753 
L 3481 2222 
L 1259 2222 
L 1259 531 
L 3634 531 
L 3634 0 
L 628 0 
L 628 4666 
z
" transform="scale(0.015625)"/>
       <path id="DejaVuSans-6e" d="M 3513 2113 
L 3513 0 
L 2938 0 
L 2938 2094 
Q 2938 2591 2744 2837 
Q 2550 3084 2163 3084 
Q 1697 3084 1428 2787 
Q 1159 2491 1159 1978 
L 1159 0 
L 581 0 
L 581 3500 
L 1159 3500 
L 1159 2956 
Q 1366 3272 1645 3428 
Q 1925 3584 2291 3584 
Q 2894 3584 3203 3211 
Q 3513 2838 3513 2113 
z
" transform="scale(0.015625)"/>
       <path id="DejaVuSans-65" d="M 3597 1894 
L 3597 1613 
L 953 1613 
Q 991 1019 1311 708 
Q 1631 397 2203 397 
Q 2534 397 2845 478 
Q 3156 559 3463 722 
L 3463 178 
Q 3153 47 2828 -22 
Q 2503 -91 2169 -91 
Q 1331 -91 842 396 
Q 353 884 353 1716 
Q 353 2575 817 3079 
Q 1281 3584 2069 3584 
Q 2775 3584 3186 3129 
Q 3597 2675 3597 1894 
z
M 3022 2063 
Q 3016 2534 2758 2815 
Q 2500 3097 2075 3097 
Q 1594 3097 1305 2825 
Q 1016 2553 972 2059 
L 3022 2063 
z
" transform="scale(0.015625)"/>
       <path id="DejaVuSans-72" d="M 2631 2963 
Q 2534 3019 2420 3045 
Q 2306 3072 2169 3072 
Q 1681 3072 1420 2755 
Q 1159 2438 1159 1844 
L 1159 0 
L 581 0 
L 581 3500 
L 1159 3500 
L 1159 2956 
Q 1341 3275 1631 3429 
Q 1922 3584 2338 3584 
Q 2397 3584 2469 3576 
Q 2541 3569 2628 3553 
L 2631 2963 
z
" transform="scale(0.015625)"/>
       <path id="DejaVuSans-67" d="M 2906 1791 
Q 2906 2416 2648 2759 
Q 2391 3103 1925 3103 
Q 1463 3103 1205 2759 
Q 947 2416 947 1791 
Q 947 1169 1205 825 
Q 1463 481 1925 481 
Q 2391 481 2648 825 
Q 2906 1169 2906 1791 
z
M 3481 434 
Q 3481 -459 3084 -895 
Q 2688 -1331 1869 -1331 
Q 1566 -1331 1297 -1286 
Q 1028 -1241 775 -1147 
L 775 -588 
Q 1028 -725 1275 -790 
Q 1522 -856 1778 -856 
Q 2344 -856 2625 -561 
Q 2906 -266 2906 331 
L 2906 616 
Q 2728 306 2450 153 
Q 2172 0 1784 0 
Q 1141 0 747 490 
Q 353 981 353 1791 
Q 353 2603 747 3093 
Q 1141 3584 1784 3584 
Q 2172 3584 2450 3431 
Q 2728 3278 2906 2969 
L 2906 3500 
L 3481 3500 
L 3481 434 
z
" transform="scale(0.015625)"/>
       <path id="DejaVuSans-79" d="M 2059 -325 
Q 1816 -950 1584 -1140 
Q 1353 -1331 966 -1331 
L 506 -1331 
L 506 -850 
L 844 -850 
Q 1081 -850 1212 -737 
Q 1344 -625 1503 -206 
L 1606 56 
L 191 3500 
L 800 3500 
L 1894 763 
L 2988 3500 
L 3597 3500 
L 2059 -325 
z
" transform="scale(0.015625)"/>
       <path id="DejaVuSans-20" transform="scale(0.015625)"/>
       <path id="DejaVuSans-5b" d="M 550 4863 
L 1875 4863 
L 1875 4416 
L 1125 4416 
L 1125 -397 
L 1875 -397 
L 1875 -844 
L 550 -844 
L 550 4863 
z
" transform="scale(0.015625)"/>
       <path id="DejaVuSans-54" d="M -19 4666 
L 3928 4666 
L 3928 4134 
L 2272 4134 
L 2272 0 
L 1638 0 
L 1638 4134 
L -19 4134 
L -19 4666 
z
" transform="scale(0.015625)"/>
       <path id="DejaVuSans-56" d="M 1831 0 
L 50 4666 
L 709 4666 
L 2188 738 
L 3669 4666 
L 4325 4666 
L 2547 0 
L 1831 0 
z
" transform="scale(0.015625)"/>
       <path id="DejaVuSans-5d" d="M 1947 4863 
L 1947 -844 
L 622 -844 
L 622 -397 
L 1369 -397 
L 1369 4416 
L 622 4416 
L 622 4863 
L 1947 4863 
z
" transform="scale(0.015625)"/>
      </defs>
      <use xlink:href="#DejaVuSans-45"/>
      <use xlink:href="#DejaVuSans-6e" x="63.183594"/>
      <use xlink:href="#DejaVuSans-65" x="126.5625"/>
      <use xlink:href="#DejaVuSans-72" x="188.085938"/>
      <use xlink:href="#DejaVuSans-67" x="227.449219"/>
      <use xlink:href="#DejaVuSans-79" x="290.925781"/>
      <use xlink:href="#DejaVuSans-20" x="350.105469"/>
      <use xlink:href="#DejaVuSans-5b" x="381.892578"/>
      <use xlink:href="#DejaVuSans-54" x="420.90625"/>
      <use xlink:href="#DejaVuSans-65" x="464.990234"/>
      <use xlink:href="#DejaVuSans-56" x="526.513672"/>
      <use xlink:href="#DejaVuSans-5d" x="594.921875"/>
     </g>
    </g>
   </g>
   <g id="matplotlib.axis_2">
    <g id="ytick_1">
     <g id="line2d_25">
      <defs>
       <path id="m0eebf6a958" d="M 0 0 
L -3.5 0 
" style="stroke: #000000; stroke-width: 0.8"/>
      </defs>
      <g>
       <use xlink:href="#m0eebf6a958" x="60.468889" y="215.815801" style="stroke: #000000; stroke-width: 0.8"/>
      </g>
     </g>
     <g id="text_4">
      <!-- $\mathdefault{10^{-16}}$ -->
      <g transform="translate(25.568889 219.615019) scale(0.1 -0.1)">
       <defs>
        <path id="DejaVuSans-2212" d="M 678 2272 
L 4684 2272 
L 4684 1741 
L 678 1741 
L 678 2272 
z
" transform="scale(0.015625)"/>
        <path id="DejaVuSans-36" d="M 2113 2584 
Q 1688 2584 1439 2293 
Q 1191 2003 1191 1497 
Q 1191 994 1439 701 
Q 1688 409 2113 409 
Q 2538 409 2786 701 
Q 3034 994 3034 1497 
Q 3034 2003 2786 2293 
Q 2538 2584 2113 2584 
z
M 3366 4563 
L 3366 3988 
Q 3128 4100 2886 4159 
Q 2644 4219 2406 4219 
Q 1781 4219 1451 3797 
Q 1122 3375 1075 2522 
Q 1259 2794 1537 2939 
Q 1816 3084 2150 3084 
Q 2853 3084 3261 2657 
Q 3669 2231 3669 1497 
Q 3669 778 3244 343 
Q 2819 -91 2113 -91 
Q 1303 -91 875 529 
Q 447 1150 447 2328 
Q 447 3434 972 4092 
Q 1497 4750 2381 4750 
Q 2619 4750 2861 4703 
Q 3103 4656 3366 4563 
z
" transform="scale(0.015625)"/>
       </defs>
       <use xlink:href="#DejaVuSans-31" transform="translate(0 0.765625)"/>
       <use xlink:href="#DejaVuSans-30" transform="translate(63.623047 0.765625)"/>
       <use xlink:href="#DejaVuSans-2212" transform="translate(128.203125 39.046875) scale(0.7)"/>
       <use xlink:href="#DejaVuSans-31" transform="translate(186.855469 39.046875) scale(0.7)"/>
       <use xlink:href="#DejaVuSans-36" transform="translate(231.391602 39.046875) scale(0.7)"/>
      </g>
     </g>
    </g>
    <g id="ytick_2">
     <g id="line2d_26">
      <g>
       <use xlink:href="#m0eebf6a958" x="60.468889" y="171.797693" style="stroke: #000000; stroke-width: 0.8"/>
      </g>
     </g>
     <g id="text_5">
      <!-- $\mathdefault{10^{-15}}$ -->
      <g transform="translate(25.568889 175.596912) scale(0.1 -0.1)">
       <defs>
        <path id="DejaVuSans-35" d="M 691 4666 
L 3169 4666 
L 3169 4134 
L 1269 4134 
L 1269 2991 
Q 1406 3038 1543 3061 
Q 1681 3084 1819 3084 
Q 2600 3084 3056 2656 
Q 3513 2228 3513 1497 
Q 3513 744 3044 326 
Q 2575 -91 1722 -91 
Q 1428 -91 1123 -41 
Q 819 9 494 109 
L 494 744 
Q 775 591 1075 516 
Q 1375 441 1709 441 
Q 2250 441 2565 725 
Q 2881 1009 2881 1497 
Q 2881 1984 2565 2268 
Q 2250 2553 1709 2553 
Q 1456 2553 1204 2497 
Q 953 2441 691 2322 
L 691 4666 
z
" transform="scale(0.015625)"/>
       </defs>
       <use xlink:href="#DejaVuSans-31" transform="translate(0 0.684375)"/>
       <use xlink:href="#DejaVuSans-30" transform="translate(63.623047 0.684375)"/>
       <use xlink:href="#DejaVuSans-2212" transform="translate(128.203125 38.965625) scale(0.7)"/>
       <use xlink:href="#DejaVuSans-31" transform="translate(186.855469 38.965625) scale(0.7)"/>
       <use xlink:href="#DejaVuSans-35" transform="translate(231.391602 38.965625) scale(0.7)"/>
      </g>
     </g>
    </g>
    <g id="ytick_3">
     <g id="line2d_27">
      <g>
       <use xlink:href="#m0eebf6a958" x="60.468889" y="127.779585" style="stroke: #000000; stroke-width: 0.8"/>
      </g>
     </g>
     <g id="text_6">
      <!-- $\mathdefault{10^{-14}}$ -->
      <g transform="translate(25.568889 131.578804) scale(0.1 -0.1)">
       <defs>
        <path id="DejaVuSans-34" d="M 2419 4116 
L 825 1625 
L 2419 1625 
L 2419 4116 
z
M 2253 4666 
L 3047 4666 
L 3047 1625 
L 3713 1625 
L 3713 1100 
L 3047 1100 
L 3047 0 
L 2419 0 
L 2419 1100 
L 313 1100 
L 313 1709 
L 2253 4666 
z
" transform="scale(0.015625)"/>
       </defs>
       <use xlink:href="#DejaVuSans-31" transform="translate(0 0.684375)"/>
       <use xlink:href="#DejaVuSans-30" transform="translate(63.623047 0.684375)"/>
       <use xlink:href="#DejaVuSans-2212" transform="translate(128.203125 38.965625) scale(0.7)"/>
       <use xlink:href="#DejaVuSans-31" transform="translate(186.855469 38.965625) scale(0.7)"/>
       <use xlink:href="#DejaVuSans-34" transform="translate(231.391602 38.965625) scale(0.7)"/>
      </g>
     </g>
    </g>
    <g id="ytick_4">
     <g id="line2d_28">
      <g>
       <use xlink:href="#m0eebf6a958" x="60.468889" y="83.761478" style="stroke: #000000; stroke-width: 0.8"/>
      </g>
     </g>
     <g id="text_7">
      <!-- $\mathdefault{10^{-13}}$ -->
      <g transform="translate(25.568889 87.560696) scale(0.1 -0.1)">
       <defs>
        <path id="DejaVuSans-33" d="M 2597 2516 
Q 3050 2419 3304 2112 
Q 3559 1806 3559 1356 
Q 3559 666 3084 287 
Q 2609 -91 1734 -91 
Q 1441 -91 1130 -33 
Q 819 25 488 141 
L 488 750 
Q 750 597 1062 519 
Q 1375 441 1716 441 
Q 2309 441 2620 675 
Q 2931 909 2931 1356 
Q 2931 1769 2642 2001 
Q 2353 2234 1838 2234 
L 1294 2234 
L 1294 2753 
L 1863 2753 
Q 2328 2753 2575 2939 
Q 2822 3125 2822 3475 
Q 2822 3834 2567 4026 
Q 2313 4219 1838 4219 
Q 1578 4219 1281 4162 
Q 984 4106 628 3988 
L 628 4550 
Q 988 4650 1302 4700 
Q 1616 4750 1894 4750 
Q 2613 4750 3031 4423 
Q 3450 4097 3450 3541 
Q 3450 3153 3228 2886 
Q 3006 2619 2597 2516 
z
" transform="scale(0.015625)"/>
       </defs>
       <use xlink:href="#DejaVuSans-31" transform="translate(0 0.765625)"/>
       <use xlink:href="#DejaVuSans-30" transform="translate(63.623047 0.765625)"/>
       <use xlink:href="#DejaVuSans-2212" transform="translate(128.203125 39.046875) scale(0.7)"/>
       <use xlink:href="#DejaVuSans-31" transform="translate(186.855469 39.046875) scale(0.7)"/>
       <use xlink:href="#DejaVuSans-33" transform="translate(231.391602 39.046875) scale(0.7)"/>
      </g>
     </g>
    </g>
    <g id="ytick_5">
     <g id="line2d_29">
      <g>
       <use xlink:href="#m0eebf6a958" x="60.468889" y="39.74337" style="stroke: #000000; stroke-width: 0.8"/>
      </g>
     </g>
     <g id="text_8">
      <!-- $\mathdefault{10^{-12}}$ -->
      <g transform="translate(25.568889 43.542589) scale(0.1 -0.1)">
       <defs>
        <path id="DejaVuSans-32" d="M 1228 531 
L 3431 531 
L 3431 0 
L 469 0 
L 469 531 
Q 828 903 1448 1529 
Q 2069 2156 2228 2338 
Q 2531 2678 2651 2914 
Q 2772 3150 2772 3378 
Q 2772 3750 2511 3984 
Q 2250 4219 1831 4219 
Q 1534 4219 1204 4116 
Q 875 4013 500 3803 
L 500 4441 
Q 881 4594 1212 4672 
Q 1544 4750 1819 4750 
Q 2544 4750 2975 4387 
Q 3406 4025 3406 3419 
Q 3406 3131 3298 2873 
Q 3191 2616 2906 2266 
Q 2828 2175 2409 1742 
Q 1991 1309 1228 531 
z
" transform="scale(0.015625)"/>
       </defs>
       <use xlink:href="#DejaVuSans-31" transform="translate(0 0.765625)"/>
       <use xlink:href="#DejaVuSans-30" transform="translate(63.623047 0.765625)"/>
       <use xlink:href="#DejaVuSans-2212" transform="translate(128.203125 39.046875) scale(0.7)"/>
       <use xlink:href="#DejaVuSans-31" transform="translate(186.855469 39.046875) scale(0.7)"/>
       <use xlink:href="#DejaVuSans-32" transform="translate(231.391602 39.046875) scale(0.7)"/>
      </g>
     </g>
    </g>
    <g id="ytick_6">
     <g id="line2d_30">
      <defs>
       <path id="m40ec39c7ff" d="M 0 0 
L -2 0 
" style="stroke: #000000; stroke-width: 0.6"/>
      </defs>
      <g>
       <use xlink:href="#m40ec39c7ff" x="60.468889" y="238.831934" style="stroke: #000000; stroke-width: 0.6"/>
      </g>
     </g>
    </g>
    <g id="ytick_7">
     <g id="line2d_31">
      <g>
       <use xlink:href="#m40ec39c7ff" x="60.468889" y="233.332367" style="stroke: #000000; stroke-width: 0.6"/>
      </g>
     </g>
    </g>
    <g id="ytick_8">
     <g id="line2d_32">
      <g>
       <use xlink:href="#m40ec39c7ff" x="60.468889" y="229.066572" style="stroke: #000000; stroke-width: 0.6"/>
      </g>
     </g>
    </g>
    <g id="ytick_9">
     <g id="line2d_33">
      <g>
       <use xlink:href="#m40ec39c7ff" x="60.468889" y="225.581163" style="stroke: #000000; stroke-width: 0.6"/>
      </g>
     </g>
    </g>
    <g id="ytick_10">
     <g id="line2d_34">
      <g>
       <use xlink:href="#m40ec39c7ff" x="60.468889" y="222.634292" style="stroke: #000000; stroke-width: 0.6"/>
      </g>
     </g>
    </g>
    <g id="ytick_11">
     <g id="line2d_35">
      <g>
       <use xlink:href="#m40ec39c7ff" x="60.468889" y="220.081596" style="stroke: #000000; stroke-width: 0.6"/>
      </g>
     </g>
    </g>
    <g id="ytick_12">
     <g id="line2d_36">
      <g>
       <use xlink:href="#m40ec39c7ff" x="60.468889" y="217.829959" style="stroke: #000000; stroke-width: 0.6"/>
      </g>
     </g>
    </g>
    <g id="ytick_13">
     <g id="line2d_37">
      <g>
       <use xlink:href="#m40ec39c7ff" x="60.468889" y="202.56503" style="stroke: #000000; stroke-width: 0.6"/>
      </g>
     </g>
    </g>
    <g id="ytick_14">
     <g id="line2d_38">
      <g>
       <use xlink:href="#m40ec39c7ff" x="60.468889" y="194.813826" style="stroke: #000000; stroke-width: 0.6"/>
      </g>
     </g>
    </g>
    <g id="ytick_15">
     <g id="line2d_39">
      <g>
       <use xlink:href="#m40ec39c7ff" x="60.468889" y="189.314259" style="stroke: #000000; stroke-width: 0.6"/>
      </g>
     </g>
    </g>
    <g id="ytick_16">
     <g id="line2d_40">
      <g>
       <use xlink:href="#m40ec39c7ff" x="60.468889" y="185.048464" style="stroke: #000000; stroke-width: 0.6"/>
      </g>
     </g>
    </g>
    <g id="ytick_17">
     <g id="line2d_41">
      <g>
       <use xlink:href="#m40ec39c7ff" x="60.468889" y="181.563055" style="stroke: #000000; stroke-width: 0.6"/>
      </g>
     </g>
    </g>
    <g id="ytick_18">
     <g id="line2d_42">
      <g>
       <use xlink:href="#m40ec39c7ff" x="60.468889" y="178.616184" style="stroke: #000000; stroke-width: 0.6"/>
      </g>
     </g>
    </g>
    <g id="ytick_19">
     <g id="line2d_43">
      <g>
       <use xlink:href="#m40ec39c7ff" x="60.468889" y="176.063488" style="stroke: #000000; stroke-width: 0.6"/>
      </g>
     </g>
    </g>
    <g id="ytick_20">
     <g id="line2d_44">
      <g>
       <use xlink:href="#m40ec39c7ff" x="60.468889" y="173.811851" style="stroke: #000000; stroke-width: 0.6"/>
      </g>
     </g>
    </g>
    <g id="ytick_21">
     <g id="line2d_45">
      <g>
       <use xlink:href="#m40ec39c7ff" x="60.468889" y="158.546922" style="stroke: #000000; stroke-width: 0.6"/>
      </g>
     </g>
    </g>
    <g id="ytick_22">
     <g id="line2d_46">
      <g>
       <use xlink:href="#m40ec39c7ff" x="60.468889" y="150.795718" style="stroke: #000000; stroke-width: 0.6"/>
      </g>
     </g>
    </g>
    <g id="ytick_23">
     <g id="line2d_47">
      <g>
       <use xlink:href="#m40ec39c7ff" x="60.468889" y="145.296151" style="stroke: #000000; stroke-width: 0.6"/>
      </g>
     </g>
    </g>
    <g id="ytick_24">
     <g id="line2d_48">
      <g>
       <use xlink:href="#m40ec39c7ff" x="60.468889" y="141.030356" style="stroke: #000000; stroke-width: 0.6"/>
      </g>
     </g>
    </g>
    <g id="ytick_25">
     <g id="line2d_49">
      <g>
       <use xlink:href="#m40ec39c7ff" x="60.468889" y="137.544947" style="stroke: #000000; stroke-width: 0.6"/>
      </g>
     </g>
    </g>
    <g id="ytick_26">
     <g id="line2d_50">
      <g>
       <use xlink:href="#m40ec39c7ff" x="60.468889" y="134.598076" style="stroke: #000000; stroke-width: 0.6"/>
      </g>
     </g>
    </g>
    <g id="ytick_27">
     <g id="line2d_51">
      <g>
       <use xlink:href="#m40ec39c7ff" x="60.468889" y="132.045381" style="stroke: #000000; stroke-width: 0.6"/>
      </g>
     </g>
    </g>
    <g id="ytick_28">
     <g id="line2d_52">
      <g>
       <use xlink:href="#m40ec39c7ff" x="60.468889" y="129.793743" style="stroke: #000000; stroke-width: 0.6"/>
      </g>
     </g>
    </g>
    <g id="ytick_29">
     <g id="line2d_53">
      <g>
       <use xlink:href="#m40ec39c7ff" x="60.468889" y="114.528814" style="stroke: #000000; stroke-width: 0.6"/>
      </g>
     </g>
    </g>
    <g id="ytick_30">
     <g id="line2d_54">
      <g>
       <use xlink:href="#m40ec39c7ff" x="60.468889" y="106.77761" style="stroke: #000000; stroke-width: 0.6"/>
      </g>
     </g>
    </g>
    <g id="ytick_31">
     <g id="line2d_55">
      <g>
       <use xlink:href="#m40ec39c7ff" x="60.468889" y="101.278044" style="stroke: #000000; stroke-width: 0.6"/>
      </g>
     </g>
    </g>
    <g id="ytick_32">
     <g id="line2d_56">
      <g>
       <use xlink:href="#m40ec39c7ff" x="60.468889" y="97.012248" style="stroke: #000000; stroke-width: 0.6"/>
      </g>
     </g>
    </g>
    <g id="ytick_33">
     <g id="line2d_57">
      <g>
       <use xlink:href="#m40ec39c7ff" x="60.468889" y="93.52684" style="stroke: #000000; stroke-width: 0.6"/>
      </g>
     </g>
    </g>
    <g id="ytick_34">
     <g id="line2d_58">
      <g>
       <use xlink:href="#m40ec39c7ff" x="60.468889" y="90.579969" style="stroke: #000000; stroke-width: 0.6"/>
      </g>
     </g>
    </g>
    <g id="ytick_35">
     <g id="line2d_59">
      <g>
       <use xlink:href="#m40ec39c7ff" x="60.468889" y="88.027273" style="stroke: #000000; stroke-width: 0.6"/>
      </g>
     </g>
    </g>
    <g id="ytick_36">
     <g id="line2d_60">
      <g>
       <use xlink:href="#m40ec39c7ff" x="60.468889" y="85.775636" style="stroke: #000000; stroke-width: 0.6"/>
      </g>
     </g>
    </g>
    <g id="ytick_37">
     <g id="line2d_61">
      <g>
       <use xlink:href="#m40ec39c7ff" x="60.468889" y="70.510707" style="stroke: #000000; stroke-width: 0.6"/>
      </g>
     </g>
    </g>
    <g id="ytick_38">
     <g id="line2d_62">
      <g>
       <use xlink:href="#m40ec39c7ff" x="60.468889" y="62.759503" style="stroke: #000000; stroke-width: 0.6"/>
      </g>
     </g>
    </g>
    <g id="ytick_39">
     <g id="line2d_63">
      <g>
       <use xlink:href="#m40ec39c7ff" x="60.468889" y="57.259936" style="stroke: #000000; stroke-width: 0.6"/>
      </g>
     </g>
    </g>
    <g id="ytick_40">
     <g id="line2d_64">
      <g>
       <use xlink:href="#m40ec39c7ff" x="60.468889" y="52.994141" style="stroke: #000000; stroke-width: 0.6"/>
      </g>
     </g>
    </g>
    <g id="ytick_41">
     <g id="line2d_65">
      <g>
       <use xlink:href="#m40ec39c7ff" x="60.468889" y="49.508732" style="stroke: #000000; stroke-width: 0.6"/>
      </g>
     </g>
    </g>
    <g id="ytick_42">
     <g id="line2d_66">
      <g>
       <use xlink:href="#m40ec39c7ff" x="60.468889" y="46.561861" style="stroke: #000000; stroke-width: 0.6"/>
      </g>
     </g>
    </g>
    <g id="ytick_43">
     <g id="line2d_67">
      <g>
       <use xlink:href="#m40ec39c7ff" x="60.468889" y="44.009165" style="stroke: #000000; stroke-width: 0.6"/>
      </g>
     </g>
    </g>
    <g id="ytick_44">
     <g id="line2d_68">
      <g>
       <use xlink:href="#m40ec39c7ff" x="60.468889" y="41.757528" style="stroke: #000000; stroke-width: 0.6"/>
      </g>
     </g>
    </g>
    <g id="ytick_45">
     <g id="line2d_69">
      <g>
       <use xlink:href="#m40ec39c7ff" x="60.468889" y="26.492599" style="stroke: #000000; stroke-width: 0.6"/>
      </g>
     </g>
    </g>
    <g id="ytick_46">
     <g id="line2d_70">
      <g>
       <use xlink:href="#m40ec39c7ff" x="60.468889" y="18.741395" style="stroke: #000000; stroke-width: 0.6"/>
      </g>
     </g>
    </g>
    <g id="ytick_47">
     <g id="line2d_71">
      <g>
       <use xlink:href="#m40ec39c7ff" x="60.468889" y="13.241828" style="stroke: #000000; stroke-width: 0.6"/>
      </g>
     </g>
    </g>
    <g id="text_9">
     <!-- e2 * dnde [TeV / (cm2 s)] -->
     <g transform="translate(19.489202 189.243688) rotate(-90) scale(0.1 -0.1)">
      <defs>
       <path id="DejaVuSans-2a" d="M 3009 3897 
L 1888 3291 
L 3009 2681 
L 2828 2375 
L 1778 3009 
L 1778 1831 
L 1422 1831 
L 1422 3009 
L 372 2375 
L 191 2681 
L 1313 3291 
L 191 3897 
L 372 4206 
L 1422 3572 
L 1422 4750 
L 1778 4750 
L 1778 3572 
L 2828 4206 
L 3009 3897 
z
" transform="scale(0.015625)"/>
       <path id="DejaVuSans-64" d="M 2906 2969 
L 2906 4863 
L 3481 4863 
L 3481 0 
L 2906 0 
L 2906 525 
Q 2725 213 2448 61 
Q 2172 -91 1784 -91 
Q 1150 -91 751 415 
Q 353 922 353 1747 
Q 353 2572 751 3078 
Q 1150 3584 1784 3584 
Q 2172 3584 2448 3432 
Q 2725 3281 2906 2969 
z
M 947 1747 
Q 947 1113 1208 752 
Q 1469 391 1925 391 
Q 2381 391 2643 752 
Q 2906 1113 2906 1747 
Q 2906 2381 2643 2742 
Q 2381 3103 1925 3103 
Q 1469 3103 1208 2742 
Q 947 2381 947 1747 
z
" transform="scale(0.015625)"/>
       <path id="DejaVuSans-2f" d="M 1625 4666 
L 2156 4666 
L 531 -594 
L 0 -594 
L 1625 4666 
z
" transform="scale(0.015625)"/>
       <path id="DejaVuSans-28" d="M 1984 4856 
Q 1566 4138 1362 3434 
Q 1159 2731 1159 2009 
Q 1159 1288 1364 580 
Q 1569 -128 1984 -844 
L 1484 -844 
Q 1016 -109 783 600 
Q 550 1309 550 2009 
Q 550 2706 781 3412 
Q 1013 4119 1484 4856 
L 1984 4856 
z
" transform="scale(0.015625)"/>
       <path id="DejaVuSans-63" d="M 3122 3366 
L 3122 2828 
Q 2878 2963 2633 3030 
Q 2388 3097 2138 3097 
Q 1578 3097 1268 2742 
Q 959 2388 959 1747 
Q 959 1106 1268 751 
Q 1578 397 2138 397 
Q 2388 397 2633 464 
Q 2878 531 3122 666 
L 3122 134 
Q 2881 22 2623 -34 
Q 2366 -91 2075 -91 
Q 1284 -91 818 406 
Q 353 903 353 1747 
Q 353 2603 823 3093 
Q 1294 3584 2113 3584 
Q 2378 3584 2631 3529 
Q 2884 3475 3122 3366 
z
" transform="scale(0.015625)"/>
       <path id="DejaVuSans-6d" d="M 3328 2828 
Q 3544 3216 3844 3400 
Q 4144 3584 4550 3584 
Q 5097 3584 5394 3201 
Q 5691 2819 5691 2113 
L 5691 0 
L 5113 0 
L 5113 2094 
Q 5113 2597 4934 2840 
Q 4756 3084 4391 3084 
Q 3944 3084 3684 2787 
Q 3425 2491 3425 1978 
L 3425 0 
L 2847 0 
L 2847 2094 
Q 2847 2600 2669 2842 
Q 2491 3084 2119 3084 
Q 1678 3084 1418 2786 
Q 1159 2488 1159 1978 
L 1159 0 
L 581 0 
L 581 3500 
L 1159 3500 
L 1159 2956 
Q 1356 3278 1631 3431 
Q 1906 3584 2284 3584 
Q 2666 3584 2933 3390 
Q 3200 3197 3328 2828 
z
" transform="scale(0.015625)"/>
       <path id="DejaVuSans-73" d="M 2834 3397 
L 2834 2853 
Q 2591 2978 2328 3040 
Q 2066 3103 1784 3103 
Q 1356 3103 1142 2972 
Q 928 2841 928 2578 
Q 928 2378 1081 2264 
Q 1234 2150 1697 2047 
L 1894 2003 
Q 2506 1872 2764 1633 
Q 3022 1394 3022 966 
Q 3022 478 2636 193 
Q 2250 -91 1575 -91 
Q 1294 -91 989 -36 
Q 684 19 347 128 
L 347 722 
Q 666 556 975 473 
Q 1284 391 1588 391 
Q 1994 391 2212 530 
Q 2431 669 2431 922 
Q 2431 1156 2273 1281 
Q 2116 1406 1581 1522 
L 1381 1569 
Q 847 1681 609 1914 
Q 372 2147 372 2553 
Q 372 3047 722 3315 
Q 1072 3584 1716 3584 
Q 2034 3584 2315 3537 
Q 2597 3491 2834 3397 
z
" transform="scale(0.015625)"/>
       <path id="DejaVuSans-29" d="M 513 4856 
L 1013 4856 
Q 1481 4119 1714 3412 
Q 1947 2706 1947 2009 
Q 1947 1309 1714 600 
Q 1481 -109 1013 -844 
L 513 -844 
Q 928 -128 1133 580 
Q 1338 1288 1338 2009 
Q 1338 2731 1133 3434 
Q 928 4138 513 4856 
z
" transform="scale(0.015625)"/>
      </defs>
      <use xlink:href="#DejaVuSans-65"/>
      <use xlink:href="#DejaVuSans-32" x="61.523438"/>
      <use xlink:href="#DejaVuSans-20" x="125.146484"/>
      <use xlink:href="#DejaVuSans-2a" x="156.933594"/>
      <use xlink:href="#DejaVuSans-20" x="206.933594"/>
      <use xlink:href="#DejaVuSans-64" x="238.720703"/>
      <use xlink:href="#DejaVuSans-6e" x="302.197266"/>
      <use xlink:href="#DejaVuSans-64" x="365.576172"/>
      <use xlink:href="#DejaVuSans-65" x="429.052734"/>
      <use xlink:href="#DejaVuSans-20" x="490.576172"/>
      <use xlink:href="#DejaVuSans-5b" x="522.363281"/>
      <use xlink:href="#DejaVuSans-54" x="561.376953"/>
      <use xlink:href="#DejaVuSans-65" x="605.460938"/>
      <use xlink:href="#DejaVuSans-56" x="666.984375"/>
      <use xlink:href="#DejaVuSans-20" x="735.392578"/>
      <use xlink:href="#DejaVuSans-2f" x="767.179688"/>
      <use xlink:href="#DejaVuSans-20" x="800.871094"/>
      <use xlink:href="#DejaVuSans-28" x="832.658203"/>
      <use xlink:href="#DejaVuSans-63" x="871.671875"/>
      <use xlink:href="#DejaVuSans-6d" x="926.652344"/>
      <use xlink:href="#DejaVuSans-32" x="1024.064453"/>
      <use xlink:href="#DejaVuSans-20" x="1087.6875"/>
      <use xlink:href="#DejaVuSans-73" x="1119.474609"/>
      <use xlink:href="#DejaVuSans-29" x="1171.574219"/>
      <use xlink:href="#DejaVuSans-5d" x="1210.587891"/>
     </g>
    </g>
   </g>
   <g id="line2d_72">
    <path d="M 78.474116 36.710963 
L 81.690831 37.039418 
L 84.907547 37.370271 
L 88.124263 37.703644 
L 91.340978 38.039663 
L 94.557694 38.378459 
L 97.77441 38.720174 
L 100.991125 39.064952 
L 104.207841 39.412948 
L 107.424556 39.764323 
L 110.641272 40.119246 
L 113.857988 40.477895 
L 117.074703 40.840458 
L 120.291419 41.207129 
L 123.508134 41.578117 
L 126.72485 41.953636 
L 129.941566 42.333914 
L 133.158281 42.719191 
L 136.374997 43.109715 
L 139.591713 43.505751 
L 142.808428 43.907575 
L 146.025144 44.315478 
L 149.241859 44.729763 
L 152.458575 45.150751 
L 155.675291 45.578779 
L 158.892006 46.014199 
L 162.108722 46.457382 
L 165.325437 46.908717 
L 168.542153 47.368613 
L 171.758869 47.8375 
L 174.975584 48.315828 
L 178.1923 48.80407 
L 181.409016 49.302724 
L 184.625731 49.812312 
L 187.842447 50.333382 
L 191.059162 50.866511 
L 194.275878 51.412302 
L 197.492594 51.971391 
L 200.709309 52.544444 
L 203.926025 53.132162 
L 207.142741 53.73528 
L 210.359456 54.354571 
L 213.576172 54.990846 
L 216.792887 55.644955 
L 220.009603 56.317794 
L 223.226319 57.010302 
L 226.443034 57.723464 
L 229.65975 58.458318 
L 232.876465 59.21595 
L 236.093181 59.997503 
L 239.309897 60.804177 
L 242.526612 61.63723 
L 245.743328 62.497987 
L 248.960044 63.387835 
L 252.176759 64.308235 
L 255.393475 65.260718 
L 258.61019 66.246893 
L 261.826906 67.26845 
L 265.043622 68.327162 
L 268.260337 69.424893 
L 271.477053 70.5636 
L 274.693768 71.745338 
L 277.910484 72.972263 
L 281.1272 74.246644 
L 284.343915 75.570858 
L 287.560631 76.947406 
L 290.777347 78.37891 
L 293.994062 79.868129 
L 297.210778 81.417955 
L 300.427493 83.031427 
L 303.644209 84.711738 
L 306.860925 86.46224 
L 310.07764 88.286451 
L 313.294356 90.188069 
L 316.511071 92.170975 
L 319.727787 94.239245 
L 322.944503 96.39716 
L 326.161218 98.649216 
L 329.377934 101.000133 
L 332.59465 103.454869 
L 335.811365 106.01863 
L 339.028081 108.696883 
L 342.244796 111.495371 
L 345.461512 114.420121 
L 348.678228 117.477466 
L 351.894943 120.674056 
L 355.111659 124.016872 
L 358.328375 127.513247 
L 361.54509 131.170883 
L 364.761806 134.997865 
L 367.978521 139.002685 
L 371.195237 143.194263 
L 374.411953 147.581963 
L 377.628668 152.17562 
L 380.845384 156.985562 
L 384.062099 162.022635 
L 387.278815 167.298229 
L 390.495531 172.824305 
L 393.712246 178.613424 
L 396.928962 184.678776 
" clip-path="url(#p0e5905a8b0)" style="fill: none; stroke-dasharray: 1.5,2.475; stroke-dashoffset: 0; stroke: #000000; stroke-width: 1.5"/>
   </g>
   <g id="LineCollection_1">
    <path clip-path="url(#p0e5905a8b0)" style="fill: none; stroke: #8b0000; stroke-width: 1.5"/>
    <path clip-path="url(#p0e5905a8b0)" style="fill: none; stroke: #8b0000; stroke-width: 1.5"/>
    <path clip-path="url(#p0e5905a8b0)" style="fill: none; stroke: #8b0000; stroke-width: 1.5"/>
    <path clip-path="url(#p0e5905a8b0)" style="fill: none; stroke: #8b0000; stroke-width: 1.5"/>
    <path clip-path="url(#p0e5905a8b0)" style="fill: none; stroke: #8b0000; stroke-width: 1.5"/>
    <path d="M 83.13157 289 
L 83.13157 22.263676 
" clip-path="url(#p0e5905a8b0)" style="fill: none; stroke: #8b0000; stroke-width: 1.5"/>
    <path d="M 102.053426 49.409111 
L 102.053426 31.609957 
" clip-path="url(#p0e5905a8b0)" style="fill: none; stroke: #8b0000; stroke-width: 1.5"/>
    <path d="M 120.975283 45.469606 
L 120.975283 36.679107 
" clip-path="url(#p0e5905a8b0)" style="fill: none; stroke: #8b0000; stroke-width: 1.5"/>
    <path d="M 139.897139 47.021106 
L 139.897139 39.304873 
" clip-path="url(#p0e5905a8b0)" style="fill: none; stroke: #8b0000; stroke-width: 1.5"/>
    <path d="M 158.818996 49.574224 
L 158.818996 41.581628 
" clip-path="url(#p0e5905a8b0)" style="fill: none; stroke: #8b0000; stroke-width: 1.5"/>
    <path d="M 177.740852 52.584892 
L 177.740852 43.969245 
" clip-path="url(#p0e5905a8b0)" style="fill: none; stroke: #8b0000; stroke-width: 1.5"/>
    <path d="M 196.662709 56.21461 
L 196.662709 46.514395 
" clip-path="url(#p0e5905a8b0)" style="fill: none; stroke: #8b0000; stroke-width: 1.5"/>
    <path d="M 215.584566 60.681957 
L 215.584566 49.294228 
" clip-path="url(#p0e5905a8b0)" style="fill: none; stroke: #8b0000; stroke-width: 1.5"/>
    <path d="M 234.506422 66.113933 
L 234.506422 52.517173 
" clip-path="url(#p0e5905a8b0)" style="fill: none; stroke: #8b0000; stroke-width: 1.5"/>
    <path d="M 253.428279 73.43344 
L 253.428279 56.129355 
" clip-path="url(#p0e5905a8b0)" style="fill: none; stroke: #8b0000; stroke-width: 1.5"/>
    <path d="M 272.350135 84.236165 
L 272.350135 60.215594 
" clip-path="url(#p0e5905a8b0)" style="fill: none; stroke: #8b0000; stroke-width: 1.5"/>
    <path d="M 291.271992 103.754333 
L 291.271992 64.959551 
" clip-path="url(#p0e5905a8b0)" style="fill: none; stroke: #8b0000; stroke-width: 1.5"/>
    <path d="M 310.193848 289 
L 310.193848 70.272261 
" clip-path="url(#p0e5905a8b0)" style="fill: none; stroke: #8b0000; stroke-width: 1.5"/>
    <path d="M 329.115705 289 
L 329.115705 76.109885 
" clip-path="url(#p0e5905a8b0)" style="fill: none; stroke: #8b0000; stroke-width: 1.5"/>
    <path d="M 348.037562 289 
L 348.037562 82.760108 
" clip-path="url(#p0e5905a8b0)" style="fill: none; stroke: #8b0000; stroke-width: 1.5"/>
    <path d="M 366.959418 289 
L 366.959418 89.939877 
" clip-path="url(#p0e5905a8b0)" style="fill: none; stroke: #8b0000; stroke-width: 1.5"/>
    <path d="M 385.881275 289 
L 385.881275 98.16009 
" clip-path="url(#p0e5905a8b0)" style="fill: none; stroke: #8b0000; stroke-width: 1.5"/>
    <path d="M 404.803131 289 
L 404.803131 108.363769 
" clip-path="url(#p0e5905a8b0)" style="fill: none; stroke: #8b0000; stroke-width: 1.5"/>
    <path clip-path="url(#p0e5905a8b0)" style="fill: none; stroke: #8b0000; stroke-width: 1.5"/>
   </g>
   <g id="LineCollection_2">
    <path clip-path="url(#p0e5905a8b0)" style="fill: none; stroke: #006400; stroke-width: 1.5"/>
    <path clip-path="url(#p0e5905a8b0)" style="fill: none; stroke: #006400; stroke-width: 1.5"/>
    <path clip-path="url(#p0e5905a8b0)" style="fill: none; stroke: #006400; stroke-width: 1.5"/>
    <path clip-path="url(#p0e5905a8b0)" style="fill: none; stroke: #006400; stroke-width: 1.5"/>
    <path clip-path="url(#p0e5905a8b0)" style="fill: none; stroke: #006400; stroke-width: 1.5"/>
    <path d="M 76.865758 289 
L 76.865758 21.342182 
" clip-path="url(#p0e5905a8b0)" style="fill: none; stroke: #006400; stroke-width: 1.5"/>
    <path d="M 95.787615 49.260628 
L 95.787615 30.8826 
" clip-path="url(#p0e5905a8b0)" style="fill: none; stroke: #006400; stroke-width: 1.5"/>
    <path d="M 114.709471 46.051117 
L 114.709471 36.308547 
" clip-path="url(#p0e5905a8b0)" style="fill: none; stroke: #006400; stroke-width: 1.5"/>
    <path d="M 133.631328 47.637506 
L 133.631328 38.860787 
" clip-path="url(#p0e5905a8b0)" style="fill: none; stroke: #006400; stroke-width: 1.5"/>
    <path d="M 152.553184 50.204796 
L 152.553184 41.190382 
" clip-path="url(#p0e5905a8b0)" style="fill: none; stroke: #006400; stroke-width: 1.5"/>
    <path d="M 171.475041 53.196826 
L 171.475041 43.627876 
" clip-path="url(#p0e5905a8b0)" style="fill: none; stroke: #006400; stroke-width: 1.5"/>
    <path d="M 190.396897 56.778749 
L 190.396897 46.217123 
" clip-path="url(#p0e5905a8b0)" style="fill: none; stroke: #006400; stroke-width: 1.5"/>
    <path d="M 209.318754 61.20674 
L 209.318754 49.052679 
" clip-path="url(#p0e5905a8b0)" style="fill: none; stroke: #006400; stroke-width: 1.5"/>
    <path d="M 228.240611 66.589248 
L 228.240611 52.321283 
" clip-path="url(#p0e5905a8b0)" style="fill: none; stroke: #006400; stroke-width: 1.5"/>
    <path d="M 247.162467 73.871325 
L 247.162467 55.972729 
" clip-path="url(#p0e5905a8b0)" style="fill: none; stroke: #006400; stroke-width: 1.5"/>
    <path d="M 266.084324 84.689933 
L 266.084324 60.106875 
" clip-path="url(#p0e5905a8b0)" style="fill: none; stroke: #006400; stroke-width: 1.5"/>
    <path d="M 285.00618 104.402246 
L 285.00618 64.877043 
" clip-path="url(#p0e5905a8b0)" style="fill: none; stroke: #006400; stroke-width: 1.5"/>
    <path d="M 303.928037 289 
L 303.928037 70.197184 
" clip-path="url(#p0e5905a8b0)" style="fill: none; stroke: #006400; stroke-width: 1.5"/>
    <path d="M 322.849893 289 
L 322.849893 76.023599 
" clip-path="url(#p0e5905a8b0)" style="fill: none; stroke: #006400; stroke-width: 1.5"/>
    <path d="M 341.77175 289 
L 341.77175 82.648972 
" clip-path="url(#p0e5905a8b0)" style="fill: none; stroke: #006400; stroke-width: 1.5"/>
    <path d="M 360.693607 289 
L 360.693607 89.700484 
" clip-path="url(#p0e5905a8b0)" style="fill: none; stroke: #006400; stroke-width: 1.5"/>
    <path d="M 379.615463 289 
L 379.615463 97.735107 
" clip-path="url(#p0e5905a8b0)" style="fill: none; stroke: #006400; stroke-width: 1.5"/>
    <path d="M 398.53732 289 
L 398.53732 107.685525 
" clip-path="url(#p0e5905a8b0)" style="fill: none; stroke: #006400; stroke-width: 1.5"/>
    <path clip-path="url(#p0e5905a8b0)" style="fill: none; stroke: #006400; stroke-width: 1.5"/>
   </g>
   <g id="line2d_73">
    <defs>
     <path id="m4b53901db2" d="M 0 3 
C 0.795609 3 1.55874 2.683901 2.12132 2.12132 
C 2.683901 1.55874 3 0.795609 3 0 
C 3 -0.795609 2.683901 -1.55874 2.12132 -2.12132 
C 1.55874 -2.683901 0.795609 -3 0 -3 
C -0.795609 -3 -1.55874 -2.683901 -2.12132 -2.12132 
C -2.683901 -1.55874 -3 -0.795609 -3 0 
C -3 0.795609 -2.683901 1.55874 -2.12132 2.12132 
C -1.55874 2.683901 -0.795609 3 0 3 
z
" style="stroke: #8b0000"/>
    </defs>
    <g clip-path="url(#p0e5905a8b0)">
     <use xlink:href="#m4b53901db2" x="83.13157" y="36.547598" style="fill: #8b0000; stroke: #8b0000"/>
     <use xlink:href="#m4b53901db2" x="102.053426" y="38.508762" style="fill: #8b0000; stroke: #8b0000"/>
     <use xlink:href="#m4b53901db2" x="120.975283" y="40.573479" style="fill: #8b0000; stroke: #8b0000"/>
     <use xlink:href="#m4b53901db2" x="139.897139" y="42.776285" style="fill: #8b0000; stroke: #8b0000"/>
     <use xlink:href="#m4b53901db2" x="158.818996" y="45.163228" style="fill: #8b0000; stroke: #8b0000"/>
     <use xlink:href="#m4b53901db2" x="177.740852" y="47.795754" style="fill: #8b0000; stroke: #8b0000"/>
     <use xlink:href="#m4b53901db2" x="196.662709" y="50.755734" style="fill: #8b0000; stroke: #8b0000"/>
     <use xlink:href="#m4b53901db2" x="215.584566" y="54.152394" style="fill: #8b0000; stroke: #8b0000"/>
     <use xlink:href="#m4b53901db2" x="234.506422" y="58.131375" style="fill: #8b0000; stroke: #8b0000"/>
     <use xlink:href="#m4b53901db2" x="253.428279" y="62.886896" style="fill: #8b0000; stroke: #8b0000"/>
     <use xlink:href="#m4b53901db2" x="272.350135" y="68.677948" style="fill: #8b0000; stroke: #8b0000"/>
     <use xlink:href="#m4b53901db2" x="291.271992" y="75.849893" style="fill: #8b0000; stroke: #8b0000"/>
     <use xlink:href="#m4b53901db2" x="310.193848" y="84.863292" style="fill: #8b0000; stroke: #8b0000"/>
     <use xlink:href="#m4b53901db2" x="329.115705" y="96.332371" style="fill: #8b0000; stroke: #8b0000"/>
     <use xlink:href="#m4b53901db2" x="348.037562" y="111.076058" style="fill: #8b0000; stroke: #8b0000"/>
     <use xlink:href="#m4b53901db2" x="366.959418" y="130.186543" style="fill: #8b0000; stroke: #8b0000"/>
     <use xlink:href="#m4b53901db2" x="385.881275" y="155.120249" style="fill: #8b0000; stroke: #8b0000"/>
     <use xlink:href="#m4b53901db2" x="404.803131" y="187.819342" style="fill: #8b0000; stroke: #8b0000"/>
    </g>
   </g>
   <g id="line2d_74">
    <defs>
     <path id="m8a712d44d9" d="M 0 3 
C 0.795609 3 1.55874 2.683901 2.12132 2.12132 
C 2.683901 1.55874 3 0.795609 3 0 
C 3 -0.795609 2.683901 -1.55874 2.12132 -2.12132 
C 1.55874 -2.683901 0.795609 -3 0 -3 
C -0.795609 -3 -1.55874 -2.683901 -2.12132 -2.12132 
C -2.683901 -1.55874 -3 -0.795609 -3 0 
C -3 0.795609 -2.683901 1.55874 -2.12132 2.12132 
C -1.55874 2.683901 -0.795609 3 0 3 
z
" style="stroke: #006400"/>
    </defs>
    <g clip-path="url(#p0e5905a8b0)">
     <use xlink:href="#m8a712d44d9" x="76.865758" y="35.671561" style="fill: #006400; stroke: #006400"/>
     <use xlink:href="#m8a712d44d9" x="95.787615" y="37.943287" style="fill: #006400; stroke: #006400"/>
     <use xlink:href="#m8a712d44d9" x="114.709471" y="40.565792" style="fill: #006400; stroke: #006400"/>
     <use xlink:href="#m8a712d44d9" x="133.631328" y="42.749824" style="fill: #006400; stroke: #006400"/>
     <use xlink:href="#m8a712d44d9" x="152.553184" y="45.171104" style="fill: #006400; stroke: #006400"/>
     <use xlink:href="#m8a712d44d9" x="171.475041" y="47.81978" style="fill: #006400; stroke: #006400"/>
     <use xlink:href="#m8a712d44d9" x="190.396897" y="50.777645" style="fill: #006400; stroke: #006400"/>
     <use xlink:href="#m8a712d44d9" x="209.318754" y="54.179641" style="fill: #006400; stroke: #006400"/>
     <use xlink:href="#m8a712d44d9" x="228.240611" y="58.153937" style="fill: #006400; stroke: #006400"/>
     <use xlink:href="#m8a712d44d9" x="247.162467" y="62.899595" style="fill: #006400; stroke: #006400"/>
     <use xlink:href="#m8a712d44d9" x="266.084324" y="68.692442" style="fill: #006400; stroke: #006400"/>
     <use xlink:href="#m8a712d44d9" x="285.00618" y="75.850809" style="fill: #006400; stroke: #006400"/>
     <use xlink:href="#m8a712d44d9" x="303.928037" y="84.837614" style="fill: #006400; stroke: #006400"/>
     <use xlink:href="#m8a712d44d9" x="322.849893" y="96.268018" style="fill: #006400; stroke: #006400"/>
     <use xlink:href="#m8a712d44d9" x="341.77175" y="110.964539" style="fill: #006400; stroke: #006400"/>
     <use xlink:href="#m8a712d44d9" x="360.693607" y="129.912368" style="fill: #006400; stroke: #006400"/>
     <use xlink:href="#m8a712d44d9" x="379.615463" y="154.652888" style="fill: #006400; stroke: #006400"/>
     <use xlink:href="#m8a712d44d9" x="398.53732" y="187.112891" style="fill: #006400; stroke: #006400"/>
    </g>
   </g>
   <g id="patch_3">
    <path d="M 60.468889 242.728 
L 60.468889 10.8 
" style="fill: none; stroke: #000000; stroke-width: 0.8; stroke-linejoin: miter; stroke-linecap: square"/>
   </g>
   <g id="patch_4">
    <path d="M 421.2 242.728 
L 421.2 10.8 
" style="fill: none; stroke: #000000; stroke-width: 0.8; stroke-linejoin: miter; stroke-linecap: square"/>
   </g>
   <g id="patch_5">
    <path d="M 60.468889 242.728 
L 421.2 242.728 
" style="fill: none; stroke: #000000; stroke-width: 0.8; stroke-linejoin: miter; stroke-linecap: square"/>
   </g>
   <g id="patch_6">
    <path d="M 60.468889 10.8 
L 421.2 10.8 
" style="fill: none; stroke: #000000; stroke-width: 0.8; stroke-linejoin: miter; stroke-linecap: square"/>
   </g>
   <g id="legend_1">
    <g id="patch_7">
     <path d="M 320.3 62.834375 
L 414.2 62.834375 
Q 416.2 62.834375 416.2 60.834375 
L 416.2 17.8 
Q 416.2 15.8 414.2 15.8 
L 320.3 15.8 
Q 318.3 15.8 318.3 17.8 
L 318.3 60.834375 
Q 318.3 62.834375 320.3 62.834375 
z
" style="fill: #ffffff; opacity: 0.8; stroke: #cccccc; stroke-linejoin: miter"/>
    </g>
    <g id="patch_8">
     <path d="M 322.3 27.398438 
L 342.3 27.398438 
L 342.3 20.398438 
L 322.3 20.398438 
z
" style="fill: #008000; fill-opacity: 0.5"/>
    </g>
    <g id="text_10">
     <!-- $1\sigma$ Nuisance -->
     <g transform="translate(350.3 27.398438) scale(0.1 -0.1)">
      <defs>
       <path id="DejaVuSans-Oblique-3c3" d="M 2219 3044 
Q 1744 3044 1422 2700 
Q 1081 2341 969 1747 
Q 844 1119 1044 756 
Q 1241 397 1706 397 
Q 2166 397 2503 759 
Q 2844 1122 2966 1747 
Q 3075 2319 2881 2700 
Q 2700 3044 2219 3044 
z
M 2309 3503 
L 4219 3500 
L 4106 2925 
L 3463 2925 
Q 3706 2438 3575 1747 
Q 3406 888 2884 400 
Q 2359 -91 1609 -91 
Q 856 -91 525 400 
Q 194 888 363 1747 
Q 528 2609 1050 3097 
Q 1484 3503 2309 3503 
z
" transform="scale(0.015625)"/>
       <path id="DejaVuSans-4e" d="M 628 4666 
L 1478 4666 
L 3547 763 
L 3547 4666 
L 4159 4666 
L 4159 0 
L 3309 0 
L 1241 3903 
L 1241 0 
L 628 0 
L 628 4666 
z
" transform="scale(0.015625)"/>
       <path id="DejaVuSans-75" d="M 544 1381 
L 544 3500 
L 1119 3500 
L 1119 1403 
Q 1119 906 1312 657 
Q 1506 409 1894 409 
Q 2359 409 2629 706 
Q 2900 1003 2900 1516 
L 2900 3500 
L 3475 3500 
L 3475 0 
L 2900 0 
L 2900 538 
Q 2691 219 2414 64 
Q 2138 -91 1772 -91 
Q 1169 -91 856 284 
Q 544 659 544 1381 
z
M 1991 3584 
L 1991 3584 
z
" transform="scale(0.015625)"/>
       <path id="DejaVuSans-69" d="M 603 3500 
L 1178 3500 
L 1178 0 
L 603 0 
L 603 3500 
z
M 603 4863 
L 1178 4863 
L 1178 4134 
L 603 4134 
L 603 4863 
z
" transform="scale(0.015625)"/>
       <path id="DejaVuSans-61" d="M 2194 1759 
Q 1497 1759 1228 1600 
Q 959 1441 959 1056 
Q 959 750 1161 570 
Q 1363 391 1709 391 
Q 2188 391 2477 730 
Q 2766 1069 2766 1631 
L 2766 1759 
L 2194 1759 
z
M 3341 1997 
L 3341 0 
L 2766 0 
L 2766 531 
Q 2569 213 2275 61 
Q 1981 -91 1556 -91 
Q 1019 -91 701 211 
Q 384 513 384 1019 
Q 384 1609 779 1909 
Q 1175 2209 1959 2209 
L 2766 2209 
L 2766 2266 
Q 2766 2663 2505 2880 
Q 2244 3097 1772 3097 
Q 1472 3097 1187 3025 
Q 903 2953 641 2809 
L 641 3341 
Q 956 3463 1253 3523 
Q 1550 3584 1831 3584 
Q 2591 3584 2966 3190 
Q 3341 2797 3341 1997 
z
" transform="scale(0.015625)"/>
      </defs>
      <use xlink:href="#DejaVuSans-31" transform="translate(0 0.015625)"/>
      <use xlink:href="#DejaVuSans-Oblique-3c3" transform="translate(63.623047 0.015625)"/>
      <use xlink:href="#DejaVuSans-20" transform="translate(127.001953 0.015625)"/>
      <use xlink:href="#DejaVuSans-4e" transform="translate(158.789062 0.015625)"/>
      <use xlink:href="#DejaVuSans-75" transform="translate(233.59375 0.015625)"/>
      <use xlink:href="#DejaVuSans-69" transform="translate(296.972656 0.015625)"/>
      <use xlink:href="#DejaVuSans-73" transform="translate(324.755859 0.015625)"/>
      <use xlink:href="#DejaVuSans-61" transform="translate(376.855469 0.015625)"/>
      <use xlink:href="#DejaVuSans-6e" transform="translate(438.134766 0.015625)"/>
      <use xlink:href="#DejaVuSans-63" transform="translate(501.513672 0.015625)"/>
      <use xlink:href="#DejaVuSans-65" transform="translate(556.494141 0.015625)"/>
     </g>
    </g>
    <g id="patch_9">
     <path d="M 322.3 42.076562 
L 342.3 42.076562 
L 342.3 35.076562 
L 322.3 35.076562 
z
" style="fill: #ff0000; fill-opacity: 0.6"/>
    </g>
    <g id="text_11">
     <!-- $1\sigma$ Standard -->
     <g transform="translate(350.3 42.076562) scale(0.1 -0.1)">
      <defs>
       <path id="DejaVuSans-53" d="M 3425 4513 
L 3425 3897 
Q 3066 4069 2747 4153 
Q 2428 4238 2131 4238 
Q 1616 4238 1336 4038 
Q 1056 3838 1056 3469 
Q 1056 3159 1242 3001 
Q 1428 2844 1947 2747 
L 2328 2669 
Q 3034 2534 3370 2195 
Q 3706 1856 3706 1288 
Q 3706 609 3251 259 
Q 2797 -91 1919 -91 
Q 1588 -91 1214 -16 
Q 841 59 441 206 
L 441 856 
Q 825 641 1194 531 
Q 1563 422 1919 422 
Q 2459 422 2753 634 
Q 3047 847 3047 1241 
Q 3047 1584 2836 1778 
Q 2625 1972 2144 2069 
L 1759 2144 
Q 1053 2284 737 2584 
Q 422 2884 422 3419 
Q 422 4038 858 4394 
Q 1294 4750 2059 4750 
Q 2388 4750 2728 4690 
Q 3069 4631 3425 4513 
z
" transform="scale(0.015625)"/>
       <path id="DejaVuSans-74" d="M 1172 4494 
L 1172 3500 
L 2356 3500 
L 2356 3053 
L 1172 3053 
L 1172 1153 
Q 1172 725 1289 603 
Q 1406 481 1766 481 
L 2356 481 
L 2356 0 
L 1766 0 
Q 1100 0 847 248 
Q 594 497 594 1153 
L 594 3053 
L 172 3053 
L 172 3500 
L 594 3500 
L 594 4494 
L 1172 4494 
z
" transform="scale(0.015625)"/>
      </defs>
      <use xlink:href="#DejaVuSans-31" transform="translate(0 0.015625)"/>
      <use xlink:href="#DejaVuSans-Oblique-3c3" transform="translate(63.623047 0.015625)"/>
      <use xlink:href="#DejaVuSans-20" transform="translate(127.001953 0.015625)"/>
      <use xlink:href="#DejaVuSans-53" transform="translate(158.789062 0.015625)"/>
      <use xlink:href="#DejaVuSans-74" transform="translate(222.265625 0.015625)"/>
      <use xlink:href="#DejaVuSans-61" transform="translate(261.474609 0.015625)"/>
      <use xlink:href="#DejaVuSans-6e" transform="translate(322.753906 0.015625)"/>
      <use xlink:href="#DejaVuSans-64" transform="translate(386.132812 0.015625)"/>
      <use xlink:href="#DejaVuSans-61" transform="translate(449.609375 0.015625)"/>
      <use xlink:href="#DejaVuSans-72" transform="translate(510.888672 0.015625)"/>
      <use xlink:href="#DejaVuSans-64" transform="translate(552.001953 0.015625)"/>
     </g>
    </g>
    <g id="line2d_75">
     <path d="M 322.3 53.254687 
L 332.3 53.254687 
L 342.3 53.254687 
" style="fill: none; stroke-dasharray: 1.5,2.475; stroke-dashoffset: 0; stroke: #000000; stroke-width: 1.5"/>
    </g>
    <g id="text_12">
     <!-- Input -->
     <g transform="translate(350.3 56.754687) scale(0.1 -0.1)">
      <defs>
       <path id="DejaVuSans-49" d="M 628 4666 
L 1259 4666 
L 1259 0 
L 628 0 
L 628 4666 
z
" transform="scale(0.015625)"/>
       <path id="DejaVuSans-70" d="M 1159 525 
L 1159 -1331 
L 581 -1331 
L 581 3500 
L 1159 3500 
L 1159 2969 
Q 1341 3281 1617 3432 
Q 1894 3584 2278 3584 
Q 2916 3584 3314 3078 
Q 3713 2572 3713 1747 
Q 3713 922 3314 415 
Q 2916 -91 2278 -91 
Q 1894 -91 1617 61 
Q 1341 213 1159 525 
z
M 3116 1747 
Q 3116 2381 2855 2742 
Q 2594 3103 2138 3103 
Q 1681 3103 1420 2742 
Q 1159 2381 1159 1747 
Q 1159 1113 1420 752 
Q 1681 391 2138 391 
Q 2594 391 2855 752 
Q 3116 1113 3116 1747 
z
" transform="scale(0.015625)"/>
      </defs>
      <use xlink:href="#DejaVuSans-49"/>
      <use xlink:href="#DejaVuSans-6e" x="29.492188"/>
      <use xlink:href="#DejaVuSans-70" x="92.871094"/>
      <use xlink:href="#DejaVuSans-75" x="156.347656"/>
      <use xlink:href="#DejaVuSans-74" x="219.726562"/>
     </g>
    </g>
   </g>
  </g>
 </g>
 <defs>
  <clipPath id="p0e5905a8b0">
   <rect x="60.468889" y="10.8" width="360.731111" height="231.928"/>
  </clipPath>
 </defs>
</svg>
