<?xml version="1.0" encoding="utf-8" standalone="no"?>
<!DOCTYPE svg PUBLIC "-//W3C//DTD SVG 1.1//EN"
  "http://www.w3.org/Graphics/SVG/1.1/DTD/svg11.dtd">
<svg xmlns:xlink="http://www.w3.org/1999/xlink" width="432pt" height="288pt" viewBox="0 0 432 288" xmlns="http://www.w3.org/2000/svg" version="1.1">
 <metadata>
  <rdf:RDF xmlns:dc="http://purl.org/dc/elements/1.1/" xmlns:cc="http://creativecommons.org/ns#" xmlns:rdf="http://www.w3.org/1999/02/22-rdf-syntax-ns#">
   <cc:Work>
    <dc:type rdf:resource="http://purl.org/dc/dcmitype/StillImage"/>
    <dc:date>2023-02-17T15:36:51.923591</dc:date>
    <dc:format>image/svg+xml</dc:format>
    <dc:creator>
     <cc:Agent>
      <dc:title>Matplotlib v3.6.2, https://matplotlib.org/</dc:title>
     </cc:Agent>
    </dc:creator>
   </cc:Work>
  </rdf:RDF>
 </metadata>
 <defs>
  <style type="text/css">*{stroke-linejoin: round; stroke-linecap: butt}</style>
 </defs>
 <g id="figure_1">
  <g id="patch_1">
   <path d="M 0 288 
L 432 288 
L 432 0 
L 0 0 
z
" style="fill: #ffffff"/>
  </g>
  <g id="axes_1">
   <g id="patch_2">
    <path d="M 60.468889 242.728 
L 421.2 242.728 
L 421.2 10.8 
L 60.468889 10.8 
z
" style="fill: #ffffff"/>
   </g>
   <g id="PolyCollection_1">
    <path d="M 78.474116 32.599425 
L 78.474116 42.920402 
L 81.690831 43.209481 
L 84.907547 43.506524 
L 88.124263 43.811817 
L 91.340978 44.125662 
L 94.557694 44.44838 
L 97.77441 44.780306 
L 100.991125 45.121795 
L 104.207841 45.473216 
L 107.424556 45.834955 
L 110.641272 46.207412 
L 113.857988 46.591 
L 117.074703 46.986143 
L 120.291419 47.393272 
L 123.508134 47.812828 
L 126.72485 48.24525 
L 129.941566 48.690981 
L 133.158281 49.150458 
L 136.374997 49.624112 
L 139.591713 50.112364 
L 142.808428 50.615625 
L 146.025144 51.134292 
L 149.241859 51.668746 
L 152.458575 52.219358 
L 155.675291 52.786488 
L 158.892006 53.370487 
L 162.108722 53.971706 
L 165.325437 54.590497 
L 168.542153 55.227226 
L 171.758869 55.882277 
L 174.975584 56.556065 
L 178.1923 57.249043 
L 181.409016 57.96171 
L 184.625731 58.694627 
L 187.842447 59.448421 
L 191.059162 60.223802 
L 194.275878 61.021563 
L 197.492594 61.842601 
L 200.709309 62.687919 
L 203.926025 63.558636 
L 207.142741 64.456003 
L 210.359456 65.381403 
L 213.576172 66.33637 
L 216.792887 67.322592 
L 220.009603 68.341921 
L 223.226319 69.396389 
L 226.443034 70.488209 
L 229.65975 71.619793 
L 232.876465 72.79376 
L 236.093181 74.012943 
L 239.309897 75.28041 
L 242.526612 76.599469 
L 245.743328 77.973688 
L 248.960044 79.406913 
L 252.176759 80.903285 
L 255.393475 82.46727 
L 258.61019 84.103684 
L 261.826906 85.817736 
L 265.043622 87.61507 
L 268.260337 89.501823 
L 271.477053 91.484699 
L 274.693768 93.57105 
L 277.910484 95.768994 
L 281.1272 98.087549 
L 284.343915 100.536812 
L 287.560631 103.128186 
L 290.777347 105.874677 
L 293.994062 108.791281 
L 297.210778 111.895508 
L 300.427493 115.2081 
L 303.644209 118.75403 
L 306.860925 122.563942 
L 310.07764 126.676276 
L 313.294356 131.140525 
L 316.511071 136.022433 
L 319.727787 141.41272 
L 322.944503 147.442675 
L 326.161218 154.314345 
L 329.377934 162.365608 
L 332.59465 172.233518 
L 335.811365 185.374886 
L 339.028081 206.686035 
L 342.244796 56467.141524 
L 345.461512 56467.141524 
L 348.678228 56467.141524 
L 351.894943 56467.141524 
L 355.111659 56467.141524 
L 358.328375 56467.141524 
L 361.54509 56467.141524 
L 364.761806 56467.141524 
L 367.978521 56467.141524 
L 371.195237 56467.141524 
L 374.411953 56467.141524 
L 377.628668 56467.141524 
L 380.845384 56467.141524 
L 384.062099 56467.141524 
L 387.278815 56467.141524 
L 390.495531 56467.141524 
L 393.712246 56467.141524 
L 396.928962 56467.141524 
L 396.928962 199.623459 
L 396.928962 199.623459 
L 393.712246 192.713775 
L 390.495531 186.149663 
L 387.278815 179.913585 
L 384.062099 173.988813 
L 380.845384 168.359394 
L 377.628668 163.010112 
L 374.411953 157.926453 
L 371.195237 153.094575 
L 367.978521 148.501278 
L 364.761806 144.133974 
L 361.54509 139.98066 
L 358.328375 136.029891 
L 355.111659 132.27076 
L 351.894943 128.692871 
L 348.678228 125.286319 
L 345.461512 122.041668 
L 342.244796 118.949934 
L 339.028081 116.002565 
L 335.811365 113.191425 
L 332.59465 110.508774 
L 329.377934 107.94726 
L 326.161218 105.499896 
L 322.944503 103.160052 
L 319.727787 100.921438 
L 316.511071 98.778095 
L 313.294356 96.724382 
L 310.07764 94.754963 
L 306.860925 92.864799 
L 303.644209 91.049138 
L 300.427493 89.303504 
L 297.210778 87.623687 
L 293.994062 86.005736 
L 290.777347 84.445952 
L 287.560631 82.940876 
L 284.343915 81.48728 
L 281.1272 80.082166 
L 277.910484 78.722747 
L 274.693768 77.406448 
L 271.477053 76.130887 
L 268.260337 74.893876 
L 265.043622 73.6934 
L 261.826906 72.527615 
L 258.61019 71.394828 
L 255.393475 70.293491 
L 252.176759 69.222187 
L 248.960044 68.179613 
L 245.743328 67.164571 
L 242.526612 66.175952 
L 239.309897 65.212724 
L 236.093181 64.273919 
L 232.876465 63.358621 
L 229.65975 62.465955 
L 226.443034 61.595078 
L 223.226319 60.74517 
L 220.009603 59.915424 
L 216.792887 59.105045 
L 213.576172 58.313238 
L 210.359456 57.53921 
L 207.142741 56.782165 
L 203.926025 56.0413 
L 200.709309 55.315806 
L 197.492594 54.604869 
L 194.275878 53.907668 
L 191.059162 53.223377 
L 187.842447 52.551169 
L 184.625731 51.890214 
L 181.409016 51.239689 
L 178.1923 50.598776 
L 174.975584 49.96667 
L 171.758869 49.342583 
L 168.542153 48.72575 
L 165.325437 48.115433 
L 162.108722 47.510927 
L 158.892006 46.911568 
L 155.675291 46.316736 
L 152.458575 45.725856 
L 149.241859 45.138408 
L 146.025144 44.553924 
L 142.808428 43.971989 
L 139.591713 43.392244 
L 136.374997 42.814382 
L 133.158281 42.238146 
L 129.941566 41.663325 
L 126.72485 41.08975 
L 123.508134 40.517292 
L 120.291419 39.945852 
L 117.074703 39.375361 
L 113.857988 38.805772 
L 110.641272 38.23706 
L 107.424556 37.669213 
L 104.207841 37.102231 
L 100.991125 36.536123 
L 97.77441 35.970904 
L 94.557694 35.406593 
L 91.340978 34.843212 
L 88.124263 34.280783 
L 84.907547 33.719329 
L 81.690831 33.158869 
L 78.474116 32.599425 
z
" clip-path="url(#pf219c7478e)" style="fill: #008000; fill-opacity: 0.5"/>
   </g>
   <g id="PolyCollection_2">
    <path d="M 78.474116 33.304065 
L 78.474116 42.29923 
L 81.690831 42.567813 
L 84.907547 42.843728 
L 88.124263 43.127268 
L 91.340978 43.418748 
L 94.557694 43.718512 
L 97.77441 44.026932 
L 100.991125 44.344412 
L 104.207841 44.67139 
L 107.424556 45.008338 
L 110.641272 45.355767 
L 113.857988 45.714226 
L 117.074703 46.084301 
L 120.291419 46.466618 
L 123.508134 46.86184 
L 126.72485 47.270661 
L 129.941566 47.6938 
L 133.158281 48.131996 
L 136.374997 48.585989 
L 139.591713 49.056514 
L 142.808428 49.544278 
L 146.025144 50.049947 
L 149.241859 50.574128 
L 152.458575 51.117358 
L 155.675291 51.680092 
L 158.892006 52.262701 
L 162.108722 52.865483 
L 165.325437 53.488665 
L 168.542153 54.13243 
L 171.758869 54.796936 
L 174.975584 55.482338 
L 178.1923 56.188819 
L 181.409016 56.91661 
L 184.625731 57.666012 
L 187.842447 58.437415 
L 191.059162 59.231313 
L 194.275878 60.048318 
L 197.492594 60.889168 
L 200.709309 61.754738 
L 203.926025 62.646045 
L 207.142741 63.56426 
L 210.359456 64.510706 
L 213.576172 65.486872 
L 216.792887 66.494413 
L 220.009603 67.535161 
L 223.226319 68.61113 
L 226.443034 69.724521 
L 229.65975 70.877735 
L 232.876465 72.073377 
L 236.093181 73.314268 
L 239.309897 74.603457 
L 242.526612 75.944232 
L 245.743328 77.340136 
L 248.960044 78.794983 
L 252.176759 80.312885 
L 255.393475 81.89827 
L 258.61019 83.55592 
L 261.826906 85.291007 
L 265.043622 87.109139 
L 268.260337 89.016421 
L 271.477053 91.019522 
L 274.693768 93.125768 
L 277.910484 95.343251 
L 281.1272 97.680965 
L 284.343915 100.148987 
L 287.560631 102.758698 
L 290.777347 105.523078 
L 293.994062 108.457095 
L 297.210778 111.578216 
L 300.427493 114.907124 
L 303.644209 118.468703 
L 306.860925 122.293463 
L 310.07764 126.419637 
L 313.294356 130.896399 
L 316.511071 135.788985 
L 319.727787 141.187278 
L 322.944503 147.221122 
L 326.161218 154.089891 
L 329.377934 162.125984 
L 332.59465 171.953368 
L 335.811365 184.988297 
L 339.028081 205.909193 
L 342.244796 56467.141524 
L 345.461512 56467.141524 
L 348.678228 56467.141524 
L 351.894943 56467.141524 
L 355.111659 56467.141524 
L 358.328375 56467.141524 
L 361.54509 56467.141524 
L 364.761806 56467.141524 
L 367.978521 56467.141524 
L 371.195237 56467.141524 
L 374.411953 56467.141524 
L 377.628668 56467.141524 
L 380.845384 56467.141524 
L 384.062099 56467.141524 
L 387.278815 56467.141524 
L 390.495531 56467.141524 
L 393.712246 56467.141524 
L 396.928962 56467.141524 
L 396.928962 200.387028 
L 396.928962 200.387028 
L 393.712246 193.42542 
L 390.495531 186.812299 
L 387.278815 180.530001 
L 384.062099 174.561679 
L 380.845384 168.891268 
L 377.628668 163.503445 
L 374.411953 158.383596 
L 371.195237 153.517788 
L 367.978521 148.892732 
L 364.761806 144.495759 
L 361.54509 140.314789 
L 358.328375 136.338308 
L 355.111659 132.555344 
L 351.894943 128.955439 
L 348.678228 125.528634 
L 345.461512 122.265444 
L 342.244796 119.156837 
L 339.028081 116.19422 
L 335.811365 113.369421 
L 332.59465 110.674667 
L 329.377934 108.102574 
L 326.161218 105.646132 
L 322.944503 103.298686 
L 319.727787 101.053929 
L 316.511071 98.905882 
L 313.294356 96.848889 
L 310.07764 94.877601 
L 306.860925 92.986968 
L 303.644209 91.172223 
L 300.427493 89.428877 
L 297.210778 87.75271 
L 293.994062 86.139755 
L 290.777347 84.586295 
L 287.560631 83.08885 
L 284.343915 81.644172 
L 281.1272 80.249232 
L 277.910484 78.901212 
L 274.693768 77.597497 
L 271.477053 76.335667 
L 268.260337 75.113483 
L 265.043622 73.928879 
L 261.826906 72.779955 
L 258.61019 71.66496 
L 255.393475 70.582285 
L 252.176759 69.530451 
L 248.960044 68.508094 
L 245.743328 67.513957 
L 242.526612 66.546874 
L 239.309897 65.605761 
L 236.093181 64.689602 
L 232.876465 63.797436 
L 229.65975 62.928351 
L 226.443034 62.081467 
L 223.226319 61.255931 
L 220.009603 60.450907 
L 216.792887 59.665566 
L 213.576172 58.899081 
L 210.359456 58.150618 
L 207.142741 57.41933 
L 203.926025 56.704355 
L 200.709309 56.004808 
L 197.492594 55.319778 
L 194.275878 54.648329 
L 191.059162 53.98949 
L 187.842447 53.342266 
L 184.625731 52.705629 
L 181.409016 52.078529 
L 178.1923 51.459899 
L 174.975584 50.848664 
L 171.758869 50.243754 
L 168.542153 49.644122 
L 165.325437 49.048764 
L 162.108722 48.456739 
L 158.892006 47.867188 
L 155.675291 47.279357 
L 152.458575 46.692611 
L 149.241859 46.10644 
L 146.025144 45.520464 
L 142.808428 44.934428 
L 139.591713 44.348189 
L 136.374997 43.761701 
L 133.158281 43.175 
L 129.941566 42.588179 
L 126.72485 42.001375 
L 123.508134 41.414751 
L 120.291419 40.828482 
L 117.074703 40.242745 
L 113.857988 39.657714 
L 110.641272 39.073549 
L 107.424556 38.490398 
L 104.207841 37.908391 
L 100.991125 37.327644 
L 97.77441 36.748254 
L 94.557694 36.170304 
L 91.340978 35.593861 
L 88.124263 35.018979 
L 84.907547 34.4457 
L 81.690831 33.874055 
L 78.474116 33.304065 
z
" clip-path="url(#pf219c7478e)" style="fill: #ff0000; fill-opacity: 0.6"/>
   </g>
   <g id="matplotlib.axis_1">
    <g id="xtick_1">
     <g id="line2d_1">
      <defs>
       <path id="m146eb38417" d="M 0 0 
L 0 3.5 
" style="stroke: #000000; stroke-width: 0.8"/>
      </defs>
      <g>
       <use xlink:href="#m146eb38417" x="124.170399" y="242.728" style="stroke: #000000; stroke-width: 0.8"/>
      </g>
     </g>
     <g id="text_1">
      <!-- $\mathdefault{10^{0}}$ -->
      <g transform="translate(115.370399 257.326437) scale(0.1 -0.1)">
       <defs>
        <path id="DejaVuSans-31" d="M 794 531 
L 1825 531 
L 1825 4091 
L 703 3866 
L 703 4441 
L 1819 4666 
L 2450 4666 
L 2450 531 
L 3481 531 
L 3481 0 
L 794 0 
L 794 531 
z
" transform="scale(0.015625)"/>
        <path id="DejaVuSans-30" d="M 2034 4250 
Q 1547 4250 1301 3770 
Q 1056 3291 1056 2328 
Q 1056 1369 1301 889 
Q 1547 409 2034 409 
Q 2525 409 2770 889 
Q 3016 1369 3016 2328 
Q 3016 3291 2770 3770 
Q 2525 4250 2034 4250 
z
M 2034 4750 
Q 2819 4750 3233 4129 
Q 3647 3509 3647 2328 
Q 3647 1150 3233 529 
Q 2819 -91 2034 -91 
Q 1250 -91 836 529 
Q 422 1150 422 2328 
Q 422 3509 836 4129 
Q 1250 4750 2034 4750 
z
" transform="scale(0.015625)"/>
       </defs>
       <use xlink:href="#DejaVuSans-31" transform="translate(0 0.765625)"/>
       <use xlink:href="#DejaVuSans-30" transform="translate(63.623047 0.765625)"/>
       <use xlink:href="#DejaVuSans-30" transform="translate(128.203125 39.046875) scale(0.7)"/>
      </g>
     </g>
    </g>
    <g id="xtick_2">
     <g id="line2d_2">
      <g>
       <use xlink:href="#m146eb38417" x="275.545252" y="242.728" style="stroke: #000000; stroke-width: 0.8"/>
      </g>
     </g>
     <g id="text_2">
      <!-- $\mathdefault{10^{1}}$ -->
      <g transform="translate(266.745252 257.326437) scale(0.1 -0.1)">
       <use xlink:href="#DejaVuSans-31" transform="translate(0 0.684375)"/>
       <use xlink:href="#DejaVuSans-30" transform="translate(63.623047 0.684375)"/>
       <use xlink:href="#DejaVuSans-31" transform="translate(128.203125 38.965625) scale(0.7)"/>
      </g>
     </g>
    </g>
    <g id="xtick_3">
     <g id="line2d_3">
      <defs>
       <path id="m64f97d17e0" d="M 0 0 
L 0 2 
" style="stroke: #000000; stroke-width: 0.6"/>
      </defs>
      <g>
       <use xlink:href="#m64f97d17e0" x="63.932289" y="242.728" style="stroke: #000000; stroke-width: 0.6"/>
      </g>
     </g>
    </g>
    <g id="xtick_4">
     <g id="line2d_4">
      <g>
       <use xlink:href="#m64f97d17e0" x="78.602028" y="242.728" style="stroke: #000000; stroke-width: 0.6"/>
      </g>
     </g>
    </g>
    <g id="xtick_5">
     <g id="line2d_5">
      <g>
       <use xlink:href="#m64f97d17e0" x="90.588078" y="242.728" style="stroke: #000000; stroke-width: 0.6"/>
      </g>
     </g>
    </g>
    <g id="xtick_6">
     <g id="line2d_6">
      <g>
       <use xlink:href="#m64f97d17e0" x="100.722138" y="242.728" style="stroke: #000000; stroke-width: 0.6"/>
      </g>
     </g>
    </g>
    <g id="xtick_7">
     <g id="line2d_7">
      <g>
       <use xlink:href="#m64f97d17e0" x="109.500661" y="242.728" style="stroke: #000000; stroke-width: 0.6"/>
      </g>
     </g>
    </g>
    <g id="xtick_8">
     <g id="line2d_8">
      <g>
       <use xlink:href="#m64f97d17e0" x="117.243866" y="242.728" style="stroke: #000000; stroke-width: 0.6"/>
      </g>
     </g>
    </g>
    <g id="xtick_9">
     <g id="line2d_9">
      <g>
       <use xlink:href="#m64f97d17e0" x="169.738771" y="242.728" style="stroke: #000000; stroke-width: 0.6"/>
      </g>
     </g>
    </g>
    <g id="xtick_10">
     <g id="line2d_10">
      <g>
       <use xlink:href="#m64f97d17e0" x="196.394559" y="242.728" style="stroke: #000000; stroke-width: 0.6"/>
      </g>
     </g>
    </g>
    <g id="xtick_11">
     <g id="line2d_11">
      <g>
       <use xlink:href="#m64f97d17e0" x="215.307142" y="242.728" style="stroke: #000000; stroke-width: 0.6"/>
      </g>
     </g>
    </g>
    <g id="xtick_12">
     <g id="line2d_12">
      <g>
       <use xlink:href="#m64f97d17e0" x="229.976881" y="242.728" style="stroke: #000000; stroke-width: 0.6"/>
      </g>
     </g>
    </g>
    <g id="xtick_13">
     <g id="line2d_13">
      <g>
       <use xlink:href="#m64f97d17e0" x="241.96293" y="242.728" style="stroke: #000000; stroke-width: 0.6"/>
      </g>
     </g>
    </g>
    <g id="xtick_14">
     <g id="line2d_14">
      <g>
       <use xlink:href="#m64f97d17e0" x="252.096991" y="242.728" style="stroke: #000000; stroke-width: 0.6"/>
      </g>
     </g>
    </g>
    <g id="xtick_15">
     <g id="line2d_15">
      <g>
       <use xlink:href="#m64f97d17e0" x="260.875513" y="242.728" style="stroke: #000000; stroke-width: 0.6"/>
      </g>
     </g>
    </g>
    <g id="xtick_16">
     <g id="line2d_16">
      <g>
       <use xlink:href="#m64f97d17e0" x="268.618719" y="242.728" style="stroke: #000000; stroke-width: 0.6"/>
      </g>
     </g>
    </g>
    <g id="xtick_17">
     <g id="line2d_17">
      <g>
       <use xlink:href="#m64f97d17e0" x="321.113623" y="242.728" style="stroke: #000000; stroke-width: 0.6"/>
      </g>
     </g>
    </g>
    <g id="xtick_18">
     <g id="line2d_18">
      <g>
       <use xlink:href="#m64f97d17e0" x="347.769412" y="242.728" style="stroke: #000000; stroke-width: 0.6"/>
      </g>
     </g>
    </g>
    <g id="xtick_19">
     <g id="line2d_19">
      <g>
       <use xlink:href="#m64f97d17e0" x="366.681994" y="242.728" style="stroke: #000000; stroke-width: 0.6"/>
      </g>
     </g>
    </g>
    <g id="xtick_20">
     <g id="line2d_20">
      <g>
       <use xlink:href="#m64f97d17e0" x="381.351733" y="242.728" style="stroke: #000000; stroke-width: 0.6"/>
      </g>
     </g>
    </g>
    <g id="xtick_21">
     <g id="line2d_21">
      <g>
       <use xlink:href="#m64f97d17e0" x="393.337783" y="242.728" style="stroke: #000000; stroke-width: 0.6"/>
      </g>
     </g>
    </g>
    <g id="xtick_22">
     <g id="line2d_22">
      <g>
       <use xlink:href="#m64f97d17e0" x="403.471843" y="242.728" style="stroke: #000000; stroke-width: 0.6"/>
      </g>
     </g>
    </g>
    <g id="xtick_23">
     <g id="line2d_23">
      <g>
       <use xlink:href="#m64f97d17e0" x="412.250366" y="242.728" style="stroke: #000000; stroke-width: 0.6"/>
      </g>
     </g>
    </g>
    <g id="xtick_24">
     <g id="line2d_24">
      <g>
       <use xlink:href="#m64f97d17e0" x="419.993571" y="242.728" style="stroke: #000000; stroke-width: 0.6"/>
      </g>
     </g>
    </g>
    <g id="text_3">
     <!-- Energy [TeV] -->
     <g transform="translate(209.136788 271.004562) scale(0.1 -0.1)">
      <defs>
       <path id="DejaVuSans-45" d="M 628 4666 
L 3578 4666 
L 3578 4134 
L 1259 4134 
L 1259 2753 
L 3481 2753 
L 3481 2222 
L 1259 2222 
L 1259 531 
L 3634 531 
L 3634 0 
L 628 0 
L 628 4666 
z
" transform="scale(0.015625)"/>
       <path id="DejaVuSans-6e" d="M 3513 2113 
L 3513 0 
L 2938 0 
L 2938 2094 
Q 2938 2591 2744 2837 
Q 2550 3084 2163 3084 
Q 1697 3084 1428 2787 
Q 1159 2491 1159 1978 
L 1159 0 
L 581 0 
L 581 3500 
L 1159 3500 
L 1159 2956 
Q 1366 3272 1645 3428 
Q 1925 3584 2291 3584 
Q 2894 3584 3203 3211 
Q 3513 2838 3513 2113 
z
" transform="scale(0.015625)"/>
       <path id="DejaVuSans-65" d="M 3597 1894 
L 3597 1613 
L 953 1613 
Q 991 1019 1311 708 
Q 1631 397 2203 397 
Q 2534 397 2845 478 
Q 3156 559 3463 722 
L 3463 178 
Q 3153 47 2828 -22 
Q 2503 -91 2169 -91 
Q 1331 -91 842 396 
Q 353 884 353 1716 
Q 353 2575 817 3079 
Q 1281 3584 2069 3584 
Q 2775 3584 3186 3129 
Q 3597 2675 3597 1894 
z
M 3022 2063 
Q 3016 2534 2758 2815 
Q 2500 3097 2075 3097 
Q 1594 3097 1305 2825 
Q 1016 2553 972 2059 
L 3022 2063 
z
" transform="scale(0.015625)"/>
       <path id="DejaVuSans-72" d="M 2631 2963 
Q 2534 3019 2420 3045 
Q 2306 3072 2169 3072 
Q 1681 3072 1420 2755 
Q 1159 2438 1159 1844 
L 1159 0 
L 581 0 
L 581 3500 
L 1159 3500 
L 1159 2956 
Q 1341 3275 1631 3429 
Q 1922 3584 2338 3584 
Q 2397 3584 2469 3576 
Q 2541 3569 2628 3553 
L 2631 2963 
z
" transform="scale(0.015625)"/>
       <path id="DejaVuSans-67" d="M 2906 1791 
Q 2906 2416 2648 2759 
Q 2391 3103 1925 3103 
Q 1463 3103 1205 2759 
Q 947 2416 947 1791 
Q 947 1169 1205 825 
Q 1463 481 1925 481 
Q 2391 481 2648 825 
Q 2906 1169 2906 1791 
z
M 3481 434 
Q 3481 -459 3084 -895 
Q 2688 -1331 1869 -1331 
Q 1566 -1331 1297 -1286 
Q 1028 -1241 775 -1147 
L 775 -588 
Q 1028 -725 1275 -790 
Q 1522 -856 1778 -856 
Q 2344 -856 2625 -561 
Q 2906 -266 2906 331 
L 2906 616 
Q 2728 306 2450 153 
Q 2172 0 1784 0 
Q 1141 0 747 490 
Q 353 981 353 1791 
Q 353 2603 747 3093 
Q 1141 3584 1784 3584 
Q 2172 3584 2450 3431 
Q 2728 3278 2906 2969 
L 2906 3500 
L 3481 3500 
L 3481 434 
z
" transform="scale(0.015625)"/>
       <path id="DejaVuSans-79" d="M 2059 -325 
Q 1816 -950 1584 -1140 
Q 1353 -1331 966 -1331 
L 506 -1331 
L 506 -850 
L 844 -850 
Q 1081 -850 1212 -737 
Q 1344 -625 1503 -206 
L 1606 56 
L 191 3500 
L 800 3500 
L 1894 763 
L 2988 3500 
L 3597 3500 
L 2059 -325 
z
" transform="scale(0.015625)"/>
       <path id="DejaVuSans-20" transform="scale(0.015625)"/>
       <path id="DejaVuSans-5b" d="M 550 4863 
L 1875 4863 
L 1875 4416 
L 1125 4416 
L 1125 -397 
L 1875 -397 
L 1875 -844 
L 550 -844 
L 550 4863 
z
" transform="scale(0.015625)"/>
       <path id="DejaVuSans-54" d="M -19 4666 
L 3928 4666 
L 3928 4134 
L 2272 4134 
L 2272 0 
L 1638 0 
L 1638 4134 
L -19 4134 
L -19 4666 
z
" transform="scale(0.015625)"/>
       <path id="DejaVuSans-56" d="M 1831 0 
L 50 4666 
L 709 4666 
L 2188 738 
L 3669 4666 
L 4325 4666 
L 2547 0 
L 1831 0 
z
" transform="scale(0.015625)"/>
       <path id="DejaVuSans-5d" d="M 1947 4863 
L 1947 -844 
L 622 -844 
L 622 -397 
L 1369 -397 
L 1369 4416 
L 622 4416 
L 622 4863 
L 1947 4863 
z
" transform="scale(0.015625)"/>
      </defs>
      <use xlink:href="#DejaVuSans-45"/>
      <use xlink:href="#DejaVuSans-6e" x="63.183594"/>
      <use xlink:href="#DejaVuSans-65" x="126.5625"/>
      <use xlink:href="#DejaVuSans-72" x="188.085938"/>
      <use xlink:href="#DejaVuSans-67" x="227.449219"/>
      <use xlink:href="#DejaVuSans-79" x="290.925781"/>
      <use xlink:href="#DejaVuSans-20" x="350.105469"/>
      <use xlink:href="#DejaVuSans-5b" x="381.892578"/>
      <use xlink:href="#DejaVuSans-54" x="420.90625"/>
      <use xlink:href="#DejaVuSans-65" x="464.990234"/>
      <use xlink:href="#DejaVuSans-56" x="526.513672"/>
      <use xlink:href="#DejaVuSans-5d" x="594.921875"/>
     </g>
    </g>
   </g>
   <g id="matplotlib.axis_2">
    <g id="ytick_1">
     <g id="line2d_25">
      <defs>
       <path id="m1da1943360" d="M 0 0 
L -3.5 0 
" style="stroke: #000000; stroke-width: 0.8"/>
      </defs>
      <g>
       <use xlink:href="#m1da1943360" x="60.468889" y="215.170764" style="stroke: #000000; stroke-width: 0.8"/>
      </g>
     </g>
     <g id="text_4">
      <!-- $\mathdefault{10^{-15}}$ -->
      <g transform="translate(25.568889 218.969983) scale(0.1 -0.1)">
       <defs>
        <path id="DejaVuSans-2212" d="M 678 2272 
L 4684 2272 
L 4684 1741 
L 678 1741 
L 678 2272 
z
" transform="scale(0.015625)"/>
        <path id="DejaVuSans-35" d="M 691 4666 
L 3169 4666 
L 3169 4134 
L 1269 4134 
L 1269 2991 
Q 1406 3038 1543 3061 
Q 1681 3084 1819 3084 
Q 2600 3084 3056 2656 
Q 3513 2228 3513 1497 
Q 3513 744 3044 326 
Q 2575 -91 1722 -91 
Q 1428 -91 1123 -41 
Q 819 9 494 109 
L 494 744 
Q 775 591 1075 516 
Q 1375 441 1709 441 
Q 2250 441 2565 725 
Q 2881 1009 2881 1497 
Q 2881 1984 2565 2268 
Q 2250 2553 1709 2553 
Q 1456 2553 1204 2497 
Q 953 2441 691 2322 
L 691 4666 
z
" transform="scale(0.015625)"/>
       </defs>
       <use xlink:href="#DejaVuSans-31" transform="translate(0 0.684375)"/>
       <use xlink:href="#DejaVuSans-30" transform="translate(63.623047 0.684375)"/>
       <use xlink:href="#DejaVuSans-2212" transform="translate(128.203125 38.965625) scale(0.7)"/>
       <use xlink:href="#DejaVuSans-31" transform="translate(186.855469 38.965625) scale(0.7)"/>
       <use xlink:href="#DejaVuSans-35" transform="translate(231.391602 38.965625) scale(0.7)"/>
      </g>
     </g>
    </g>
    <g id="ytick_2">
     <g id="line2d_26">
      <g>
       <use xlink:href="#m1da1943360" x="60.468889" y="158.062164" style="stroke: #000000; stroke-width: 0.8"/>
      </g>
     </g>
     <g id="text_5">
      <!-- $\mathdefault{10^{-14}}$ -->
      <g transform="translate(25.568889 161.861383) scale(0.1 -0.1)">
       <defs>
        <path id="DejaVuSans-34" d="M 2419 4116 
L 825 1625 
L 2419 1625 
L 2419 4116 
z
M 2253 4666 
L 3047 4666 
L 3047 1625 
L 3713 1625 
L 3713 1100 
L 3047 1100 
L 3047 0 
L 2419 0 
L 2419 1100 
L 313 1100 
L 313 1709 
L 2253 4666 
z
" transform="scale(0.015625)"/>
       </defs>
       <use xlink:href="#DejaVuSans-31" transform="translate(0 0.684375)"/>
       <use xlink:href="#DejaVuSans-30" transform="translate(63.623047 0.684375)"/>
       <use xlink:href="#DejaVuSans-2212" transform="translate(128.203125 38.965625) scale(0.7)"/>
       <use xlink:href="#DejaVuSans-31" transform="translate(186.855469 38.965625) scale(0.7)"/>
       <use xlink:href="#DejaVuSans-34" transform="translate(231.391602 38.965625) scale(0.7)"/>
      </g>
     </g>
    </g>
    <g id="ytick_3">
     <g id="line2d_27">
      <g>
       <use xlink:href="#m1da1943360" x="60.468889" y="100.953564" style="stroke: #000000; stroke-width: 0.8"/>
      </g>
     </g>
     <g id="text_6">
      <!-- $\mathdefault{10^{-13}}$ -->
      <g transform="translate(25.568889 104.752783) scale(0.1 -0.1)">
       <defs>
        <path id="DejaVuSans-33" d="M 2597 2516 
Q 3050 2419 3304 2112 
Q 3559 1806 3559 1356 
Q 3559 666 3084 287 
Q 2609 -91 1734 -91 
Q 1441 -91 1130 -33 
Q 819 25 488 141 
L 488 750 
Q 750 597 1062 519 
Q 1375 441 1716 441 
Q 2309 441 2620 675 
Q 2931 909 2931 1356 
Q 2931 1769 2642 2001 
Q 2353 2234 1838 2234 
L 1294 2234 
L 1294 2753 
L 1863 2753 
Q 2328 2753 2575 2939 
Q 2822 3125 2822 3475 
Q 2822 3834 2567 4026 
Q 2313 4219 1838 4219 
Q 1578 4219 1281 4162 
Q 984 4106 628 3988 
L 628 4550 
Q 988 4650 1302 4700 
Q 1616 4750 1894 4750 
Q 2613 4750 3031 4423 
Q 3450 4097 3450 3541 
Q 3450 3153 3228 2886 
Q 3006 2619 2597 2516 
z
" transform="scale(0.015625)"/>
       </defs>
       <use xlink:href="#DejaVuSans-31" transform="translate(0 0.765625)"/>
       <use xlink:href="#DejaVuSans-30" transform="translate(63.623047 0.765625)"/>
       <use xlink:href="#DejaVuSans-2212" transform="translate(128.203125 39.046875) scale(0.7)"/>
       <use xlink:href="#DejaVuSans-31" transform="translate(186.855469 39.046875) scale(0.7)"/>
       <use xlink:href="#DejaVuSans-33" transform="translate(231.391602 39.046875) scale(0.7)"/>
      </g>
     </g>
    </g>
    <g id="ytick_4">
     <g id="line2d_28">
      <g>
       <use xlink:href="#m1da1943360" x="60.468889" y="43.844965" style="stroke: #000000; stroke-width: 0.8"/>
      </g>
     </g>
     <g id="text_7">
      <!-- $\mathdefault{10^{-12}}$ -->
      <g transform="translate(25.568889 47.644183) scale(0.1 -0.1)">
       <defs>
        <path id="DejaVuSans-32" d="M 1228 531 
L 3431 531 
L 3431 0 
L 469 0 
L 469 531 
Q 828 903 1448 1529 
Q 2069 2156 2228 2338 
Q 2531 2678 2651 2914 
Q 2772 3150 2772 3378 
Q 2772 3750 2511 3984 
Q 2250 4219 1831 4219 
Q 1534 4219 1204 4116 
Q 875 4013 500 3803 
L 500 4441 
Q 881 4594 1212 4672 
Q 1544 4750 1819 4750 
Q 2544 4750 2975 4387 
Q 3406 4025 3406 3419 
Q 3406 3131 3298 2873 
Q 3191 2616 2906 2266 
Q 2828 2175 2409 1742 
Q 1991 1309 1228 531 
z
" transform="scale(0.015625)"/>
       </defs>
       <use xlink:href="#DejaVuSans-31" transform="translate(0 0.765625)"/>
       <use xlink:href="#DejaVuSans-30" transform="translate(63.623047 0.765625)"/>
       <use xlink:href="#DejaVuSans-2212" transform="translate(128.203125 39.046875) scale(0.7)"/>
       <use xlink:href="#DejaVuSans-31" transform="translate(186.855469 39.046875) scale(0.7)"/>
       <use xlink:href="#DejaVuSans-32" transform="translate(231.391602 39.046875) scale(0.7)"/>
      </g>
     </g>
    </g>
    <g id="ytick_5">
     <g id="line2d_29">
      <defs>
       <path id="mdd62d88f94" d="M 0 0 
L -2 0 
" style="stroke: #000000; stroke-width: 0.6"/>
      </defs>
      <g>
       <use xlink:href="#mdd62d88f94" x="60.468889" y="237.89656" style="stroke: #000000; stroke-width: 0.6"/>
      </g>
     </g>
    </g>
    <g id="ytick_6">
     <g id="line2d_30">
      <g>
       <use xlink:href="#mdd62d88f94" x="60.468889" y="232.362165" style="stroke: #000000; stroke-width: 0.6"/>
      </g>
     </g>
    </g>
    <g id="ytick_7">
     <g id="line2d_31">
      <g>
       <use xlink:href="#mdd62d88f94" x="60.468889" y="227.840235" style="stroke: #000000; stroke-width: 0.6"/>
      </g>
     </g>
    </g>
    <g id="ytick_8">
     <g id="line2d_32">
      <g>
       <use xlink:href="#mdd62d88f94" x="60.468889" y="224.016998" style="stroke: #000000; stroke-width: 0.6"/>
      </g>
     </g>
    </g>
    <g id="ytick_9">
     <g id="line2d_33">
      <g>
       <use xlink:href="#mdd62d88f94" x="60.468889" y="220.705159" style="stroke: #000000; stroke-width: 0.6"/>
      </g>
     </g>
    </g>
    <g id="ytick_10">
     <g id="line2d_34">
      <g>
       <use xlink:href="#mdd62d88f94" x="60.468889" y="217.78391" style="stroke: #000000; stroke-width: 0.6"/>
      </g>
     </g>
    </g>
    <g id="ytick_11">
     <g id="line2d_35">
      <g>
       <use xlink:href="#mdd62d88f94" x="60.468889" y="197.979362" style="stroke: #000000; stroke-width: 0.6"/>
      </g>
     </g>
    </g>
    <g id="ytick_12">
     <g id="line2d_36">
      <g>
       <use xlink:href="#mdd62d88f94" x="60.468889" y="187.923037" style="stroke: #000000; stroke-width: 0.6"/>
      </g>
     </g>
    </g>
    <g id="ytick_13">
     <g id="line2d_37">
      <g>
       <use xlink:href="#mdd62d88f94" x="60.468889" y="180.787961" style="stroke: #000000; stroke-width: 0.6"/>
      </g>
     </g>
    </g>
    <g id="ytick_14">
     <g id="line2d_38">
      <g>
       <use xlink:href="#mdd62d88f94" x="60.468889" y="175.253566" style="stroke: #000000; stroke-width: 0.6"/>
      </g>
     </g>
    </g>
    <g id="ytick_15">
     <g id="line2d_39">
      <g>
       <use xlink:href="#mdd62d88f94" x="60.468889" y="170.731635" style="stroke: #000000; stroke-width: 0.6"/>
      </g>
     </g>
    </g>
    <g id="ytick_16">
     <g id="line2d_40">
      <g>
       <use xlink:href="#mdd62d88f94" x="60.468889" y="166.908398" style="stroke: #000000; stroke-width: 0.6"/>
      </g>
     </g>
    </g>
    <g id="ytick_17">
     <g id="line2d_41">
      <g>
       <use xlink:href="#mdd62d88f94" x="60.468889" y="163.596559" style="stroke: #000000; stroke-width: 0.6"/>
      </g>
     </g>
    </g>
    <g id="ytick_18">
     <g id="line2d_42">
      <g>
       <use xlink:href="#mdd62d88f94" x="60.468889" y="160.67531" style="stroke: #000000; stroke-width: 0.6"/>
      </g>
     </g>
    </g>
    <g id="ytick_19">
     <g id="line2d_43">
      <g>
       <use xlink:href="#mdd62d88f94" x="60.468889" y="140.870762" style="stroke: #000000; stroke-width: 0.6"/>
      </g>
     </g>
    </g>
    <g id="ytick_20">
     <g id="line2d_44">
      <g>
       <use xlink:href="#mdd62d88f94" x="60.468889" y="130.814437" style="stroke: #000000; stroke-width: 0.6"/>
      </g>
     </g>
    </g>
    <g id="ytick_21">
     <g id="line2d_45">
      <g>
       <use xlink:href="#mdd62d88f94" x="60.468889" y="123.679361" style="stroke: #000000; stroke-width: 0.6"/>
      </g>
     </g>
    </g>
    <g id="ytick_22">
     <g id="line2d_46">
      <g>
       <use xlink:href="#mdd62d88f94" x="60.468889" y="118.144966" style="stroke: #000000; stroke-width: 0.6"/>
      </g>
     </g>
    </g>
    <g id="ytick_23">
     <g id="line2d_47">
      <g>
       <use xlink:href="#mdd62d88f94" x="60.468889" y="113.623036" style="stroke: #000000; stroke-width: 0.6"/>
      </g>
     </g>
    </g>
    <g id="ytick_24">
     <g id="line2d_48">
      <g>
       <use xlink:href="#mdd62d88f94" x="60.468889" y="109.799798" style="stroke: #000000; stroke-width: 0.6"/>
      </g>
     </g>
    </g>
    <g id="ytick_25">
     <g id="line2d_49">
      <g>
       <use xlink:href="#mdd62d88f94" x="60.468889" y="106.487959" style="stroke: #000000; stroke-width: 0.6"/>
      </g>
     </g>
    </g>
    <g id="ytick_26">
     <g id="line2d_50">
      <g>
       <use xlink:href="#mdd62d88f94" x="60.468889" y="103.56671" style="stroke: #000000; stroke-width: 0.6"/>
      </g>
     </g>
    </g>
    <g id="ytick_27">
     <g id="line2d_51">
      <g>
       <use xlink:href="#mdd62d88f94" x="60.468889" y="83.762163" style="stroke: #000000; stroke-width: 0.6"/>
      </g>
     </g>
    </g>
    <g id="ytick_28">
     <g id="line2d_52">
      <g>
       <use xlink:href="#mdd62d88f94" x="60.468889" y="73.705837" style="stroke: #000000; stroke-width: 0.6"/>
      </g>
     </g>
    </g>
    <g id="ytick_29">
     <g id="line2d_53">
      <g>
       <use xlink:href="#mdd62d88f94" x="60.468889" y="66.570761" style="stroke: #000000; stroke-width: 0.6"/>
      </g>
     </g>
    </g>
    <g id="ytick_30">
     <g id="line2d_54">
      <g>
       <use xlink:href="#mdd62d88f94" x="60.468889" y="61.036366" style="stroke: #000000; stroke-width: 0.6"/>
      </g>
     </g>
    </g>
    <g id="ytick_31">
     <g id="line2d_55">
      <g>
       <use xlink:href="#mdd62d88f94" x="60.468889" y="56.514436" style="stroke: #000000; stroke-width: 0.6"/>
      </g>
     </g>
    </g>
    <g id="ytick_32">
     <g id="line2d_56">
      <g>
       <use xlink:href="#mdd62d88f94" x="60.468889" y="52.691199" style="stroke: #000000; stroke-width: 0.6"/>
      </g>
     </g>
    </g>
    <g id="ytick_33">
     <g id="line2d_57">
      <g>
       <use xlink:href="#mdd62d88f94" x="60.468889" y="49.37936" style="stroke: #000000; stroke-width: 0.6"/>
      </g>
     </g>
    </g>
    <g id="ytick_34">
     <g id="line2d_58">
      <g>
       <use xlink:href="#mdd62d88f94" x="60.468889" y="46.458111" style="stroke: #000000; stroke-width: 0.6"/>
      </g>
     </g>
    </g>
    <g id="ytick_35">
     <g id="line2d_59">
      <g>
       <use xlink:href="#mdd62d88f94" x="60.468889" y="26.653563" style="stroke: #000000; stroke-width: 0.6"/>
      </g>
     </g>
    </g>
    <g id="ytick_36">
     <g id="line2d_60">
      <g>
       <use xlink:href="#mdd62d88f94" x="60.468889" y="16.597238" style="stroke: #000000; stroke-width: 0.6"/>
      </g>
     </g>
    </g>
    <g id="text_8">
     <!-- e2 * dnde [TeV / (cm2 s)] -->
     <g transform="translate(19.489202 189.243688) rotate(-90) scale(0.1 -0.1)">
      <defs>
       <path id="DejaVuSans-2a" d="M 3009 3897 
L 1888 3291 
L 3009 2681 
L 2828 2375 
L 1778 3009 
L 1778 1831 
L 1422 1831 
L 1422 3009 
L 372 2375 
L 191 2681 
L 1313 3291 
L 191 3897 
L 372 4206 
L 1422 3572 
L 1422 4750 
L 1778 4750 
L 1778 3572 
L 2828 4206 
L 3009 3897 
z
" transform="scale(0.015625)"/>
       <path id="DejaVuSans-64" d="M 2906 2969 
L 2906 4863 
L 3481 4863 
L 3481 0 
L 2906 0 
L 2906 525 
Q 2725 213 2448 61 
Q 2172 -91 1784 -91 
Q 1150 -91 751 415 
Q 353 922 353 1747 
Q 353 2572 751 3078 
Q 1150 3584 1784 3584 
Q 2172 3584 2448 3432 
Q 2725 3281 2906 2969 
z
M 947 1747 
Q 947 1113 1208 752 
Q 1469 391 1925 391 
Q 2381 391 2643 752 
Q 2906 1113 2906 1747 
Q 2906 2381 2643 2742 
Q 2381 3103 1925 3103 
Q 1469 3103 1208 2742 
Q 947 2381 947 1747 
z
" transform="scale(0.015625)"/>
       <path id="DejaVuSans-2f" d="M 1625 4666 
L 2156 4666 
L 531 -594 
L 0 -594 
L 1625 4666 
z
" transform="scale(0.015625)"/>
       <path id="DejaVuSans-28" d="M 1984 4856 
Q 1566 4138 1362 3434 
Q 1159 2731 1159 2009 
Q 1159 1288 1364 580 
Q 1569 -128 1984 -844 
L 1484 -844 
Q 1016 -109 783 600 
Q 550 1309 550 2009 
Q 550 2706 781 3412 
Q 1013 4119 1484 4856 
L 1984 4856 
z
" transform="scale(0.015625)"/>
       <path id="DejaVuSans-63" d="M 3122 3366 
L 3122 2828 
Q 2878 2963 2633 3030 
Q 2388 3097 2138 3097 
Q 1578 3097 1268 2742 
Q 959 2388 959 1747 
Q 959 1106 1268 751 
Q 1578 397 2138 397 
Q 2388 397 2633 464 
Q 2878 531 3122 666 
L 3122 134 
Q 2881 22 2623 -34 
Q 2366 -91 2075 -91 
Q 1284 -91 818 406 
Q 353 903 353 1747 
Q 353 2603 823 3093 
Q 1294 3584 2113 3584 
Q 2378 3584 2631 3529 
Q 2884 3475 3122 3366 
z
" transform="scale(0.015625)"/>
       <path id="DejaVuSans-6d" d="M 3328 2828 
Q 3544 3216 3844 3400 
Q 4144 3584 4550 3584 
Q 5097 3584 5394 3201 
Q 5691 2819 5691 2113 
L 5691 0 
L 5113 0 
L 5113 2094 
Q 5113 2597 4934 2840 
Q 4756 3084 4391 3084 
Q 3944 3084 3684 2787 
Q 3425 2491 3425 1978 
L 3425 0 
L 2847 0 
L 2847 2094 
Q 2847 2600 2669 2842 
Q 2491 3084 2119 3084 
Q 1678 3084 1418 2786 
Q 1159 2488 1159 1978 
L 1159 0 
L 581 0 
L 581 3500 
L 1159 3500 
L 1159 2956 
Q 1356 3278 1631 3431 
Q 1906 3584 2284 3584 
Q 2666 3584 2933 3390 
Q 3200 3197 3328 2828 
z
" transform="scale(0.015625)"/>
       <path id="DejaVuSans-73" d="M 2834 3397 
L 2834 2853 
Q 2591 2978 2328 3040 
Q 2066 3103 1784 3103 
Q 1356 3103 1142 2972 
Q 928 2841 928 2578 
Q 928 2378 1081 2264 
Q 1234 2150 1697 2047 
L 1894 2003 
Q 2506 1872 2764 1633 
Q 3022 1394 3022 966 
Q 3022 478 2636 193 
Q 2250 -91 1575 -91 
Q 1294 -91 989 -36 
Q 684 19 347 128 
L 347 722 
Q 666 556 975 473 
Q 1284 391 1588 391 
Q 1994 391 2212 530 
Q 2431 669 2431 922 
Q 2431 1156 2273 1281 
Q 2116 1406 1581 1522 
L 1381 1569 
Q 847 1681 609 1914 
Q 372 2147 372 2553 
Q 372 3047 722 3315 
Q 1072 3584 1716 3584 
Q 2034 3584 2315 3537 
Q 2597 3491 2834 3397 
z
" transform="scale(0.015625)"/>
       <path id="DejaVuSans-29" d="M 513 4856 
L 1013 4856 
Q 1481 4119 1714 3412 
Q 1947 2706 1947 2009 
Q 1947 1309 1714 600 
Q 1481 -109 1013 -844 
L 513 -844 
Q 928 -128 1133 580 
Q 1338 1288 1338 2009 
Q 1338 2731 1133 3434 
Q 928 4138 513 4856 
z
" transform="scale(0.015625)"/>
      </defs>
      <use xlink:href="#DejaVuSans-65"/>
      <use xlink:href="#DejaVuSans-32" x="61.523438"/>
      <use xlink:href="#DejaVuSans-20" x="125.146484"/>
      <use xlink:href="#DejaVuSans-2a" x="156.933594"/>
      <use xlink:href="#DejaVuSans-20" x="206.933594"/>
      <use xlink:href="#DejaVuSans-64" x="238.720703"/>
      <use xlink:href="#DejaVuSans-6e" x="302.197266"/>
      <use xlink:href="#DejaVuSans-64" x="365.576172"/>
      <use xlink:href="#DejaVuSans-65" x="429.052734"/>
      <use xlink:href="#DejaVuSans-20" x="490.576172"/>
      <use xlink:href="#DejaVuSans-5b" x="522.363281"/>
      <use xlink:href="#DejaVuSans-54" x="561.376953"/>
      <use xlink:href="#DejaVuSans-65" x="605.460938"/>
      <use xlink:href="#DejaVuSans-56" x="666.984375"/>
      <use xlink:href="#DejaVuSans-20" x="735.392578"/>
      <use xlink:href="#DejaVuSans-2f" x="767.179688"/>
      <use xlink:href="#DejaVuSans-20" x="800.871094"/>
      <use xlink:href="#DejaVuSans-28" x="832.658203"/>
      <use xlink:href="#DejaVuSans-63" x="871.671875"/>
      <use xlink:href="#DejaVuSans-6d" x="926.652344"/>
      <use xlink:href="#DejaVuSans-32" x="1024.064453"/>
      <use xlink:href="#DejaVuSans-20" x="1087.6875"/>
      <use xlink:href="#DejaVuSans-73" x="1119.474609"/>
      <use xlink:href="#DejaVuSans-29" x="1171.574219"/>
      <use xlink:href="#DejaVuSans-5d" x="1210.587891"/>
     </g>
    </g>
   </g>
   <g id="line2d_61">
    <path d="M 78.474116 37.396068 
L 81.690831 37.841943 
L 84.907547 38.290949 
L 88.124263 38.743242 
L 91.340978 39.198987 
L 94.557694 39.658357 
L 97.77441 40.121535 
L 100.991125 40.58871 
L 104.207841 41.060084 
L 107.424556 41.535867 
L 110.641272 42.016281 
L 113.857988 42.501556 
L 117.074703 42.991938 
L 120.291419 43.487682 
L 123.508134 43.989057 
L 126.72485 44.496345 
L 129.941566 45.009844 
L 133.158281 45.529863 
L 136.374997 46.056732 
L 139.591713 46.590792 
L 142.808428 47.132405 
L 146.025144 47.681949 
L 149.241859 48.239822 
L 152.458575 48.806442 
L 155.675291 49.382247 
L 158.892006 49.967698 
L 162.108722 50.563278 
L 165.325437 51.169497 
L 168.542153 51.786886 
L 171.758869 52.416006 
L 174.975584 53.057446 
L 178.1923 53.711823 
L 181.409016 54.379787 
L 184.625731 55.062017 
L 187.842447 55.759231 
L 191.059162 56.472178 
L 194.275878 57.201649 
L 197.492594 57.948471 
L 200.709309 58.713516 
L 203.926025 59.497696 
L 207.142741 60.301971 
L 210.359456 61.127349 
L 213.576172 61.974889 
L 216.792887 62.845701 
L 220.009603 63.740952 
L 223.226319 64.661869 
L 226.443034 65.609738 
L 229.65975 66.58591 
L 232.876465 67.591806 
L 236.093181 68.628915 
L 239.309897 69.698802 
L 242.526612 70.803113 
L 245.743328 71.943572 
L 248.960044 73.121993 
L 252.176759 74.340279 
L 255.393475 75.600429 
L 258.61019 76.904542 
L 261.826906 78.254824 
L 265.043622 79.653589 
L 268.260337 81.103269 
L 271.477053 82.606417 
L 274.693768 84.165714 
L 277.910484 85.783976 
L 281.1272 87.46416 
L 284.343915 89.209371 
L 287.560631 91.022869 
L 290.777347 92.90808 
L 293.994062 94.868599 
L 297.210778 96.908203 
L 300.427493 99.030857 
L 303.644209 101.240727 
L 306.860925 103.542186 
L 310.07764 105.939827 
L 313.294356 108.438473 
L 316.511071 111.043189 
L 319.727787 113.759295 
L 322.944503 116.592375 
L 326.161218 119.548296 
L 329.377934 122.633219 
L 332.59465 125.853611 
L 335.811365 129.216267 
L 339.028081 132.728321 
L 342.244796 136.397263 
L 345.461512 140.230963 
L 348.678228 144.237681 
L 351.894943 148.426094 
L 355.111659 152.805314 
L 358.328375 157.384909 
L 361.54509 162.174926 
L 364.761806 167.185919 
L 367.978521 172.428968 
L 371.195237 177.91571 
L 374.411953 183.658366 
L 377.628668 189.669768 
L 380.845384 195.963394 
L 384.062099 202.553396 
L 387.278815 209.454637 
L 390.495531 216.682724 
L 393.712246 224.254047 
L 396.928962 232.185818 
" clip-path="url(#pf219c7478e)" style="fill: none; stroke-dasharray: 1.5,2.475; stroke-dashoffset: 0; stroke: #000000; stroke-width: 1.5"/>
   </g>
   <g id="LineCollection_1">
    <path clip-path="url(#pf219c7478e)" style="fill: none; stroke: #8b0000; stroke-width: 1.5"/>
    <path clip-path="url(#pf219c7478e)" style="fill: none; stroke: #8b0000; stroke-width: 1.5"/>
    <path clip-path="url(#pf219c7478e)" style="fill: none; stroke: #8b0000; stroke-width: 1.5"/>
    <path clip-path="url(#pf219c7478e)" style="fill: none; stroke: #8b0000; stroke-width: 1.5"/>
    <path clip-path="url(#pf219c7478e)" style="fill: none; stroke: #8b0000; stroke-width: 1.5"/>
    <path d="M 83.13157 289 
L 83.13157 21.402938 
" clip-path="url(#pf219c7478e)" style="fill: none; stroke: #8b0000; stroke-width: 1.5"/>
    <path d="M 102.053426 54.644611 
L 102.053426 33.115302 
" clip-path="url(#pf219c7478e)" style="fill: none; stroke: #8b0000; stroke-width: 1.5"/>
    <path d="M 120.975283 49.722047 
L 120.975283 39.214298 
" clip-path="url(#pf219c7478e)" style="fill: none; stroke: #8b0000; stroke-width: 1.5"/>
    <path d="M 139.897139 51.13114 
L 139.897139 42.119352 
" clip-path="url(#pf219c7478e)" style="fill: none; stroke: #8b0000; stroke-width: 1.5"/>
    <path d="M 158.818996 53.456913 
L 158.818996 44.404662 
" clip-path="url(#pf219c7478e)" style="fill: none; stroke: #8b0000; stroke-width: 1.5"/>
    <path d="M 177.740852 55.954223 
L 177.740852 46.571379 
" clip-path="url(#pf219c7478e)" style="fill: none; stroke: #8b0000; stroke-width: 1.5"/>
    <path d="M 196.662709 58.640291 
L 196.662709 48.612459 
" clip-path="url(#pf219c7478e)" style="fill: none; stroke: #8b0000; stroke-width: 1.5"/>
    <path d="M 215.584566 61.492678 
L 215.584566 50.550125 
" clip-path="url(#pf219c7478e)" style="fill: none; stroke: #8b0000; stroke-width: 1.5"/>
    <path d="M 234.506422 64.383745 
L 234.506422 52.479208 
" clip-path="url(#pf219c7478e)" style="fill: none; stroke: #8b0000; stroke-width: 1.5"/>
    <path d="M 253.428279 67.507654 
L 253.428279 54.282015 
" clip-path="url(#pf219c7478e)" style="fill: none; stroke: #8b0000; stroke-width: 1.5"/>
    <path d="M 272.350135 70.886372 
L 272.350135 55.97037 
" clip-path="url(#pf219c7478e)" style="fill: none; stroke: #8b0000; stroke-width: 1.5"/>
    <path d="M 291.271992 74.460916 
L 291.271992 57.597826 
" clip-path="url(#pf219c7478e)" style="fill: none; stroke: #8b0000; stroke-width: 1.5"/>
    <path d="M 310.193848 78.43824 
L 310.193848 59.088207 
" clip-path="url(#pf219c7478e)" style="fill: none; stroke: #8b0000; stroke-width: 1.5"/>
    <path d="M 329.115705 82.901748 
L 329.115705 60.454718 
" clip-path="url(#pf219c7478e)" style="fill: none; stroke: #8b0000; stroke-width: 1.5"/>
    <path d="M 348.037562 87.70346 
L 348.037562 61.808148 
" clip-path="url(#pf219c7478e)" style="fill: none; stroke: #8b0000; stroke-width: 1.5"/>
    <path d="M 366.959418 93.377506 
L 366.959418 63.019425 
" clip-path="url(#pf219c7478e)" style="fill: none; stroke: #8b0000; stroke-width: 1.5"/>
    <path d="M 385.881275 100.866845 
L 385.881275 63.976572 
" clip-path="url(#pf219c7478e)" style="fill: none; stroke: #8b0000; stroke-width: 1.5"/>
    <path d="M 404.803131 113.47666 
L 404.803131 64.43733 
" clip-path="url(#pf219c7478e)" style="fill: none; stroke: #8b0000; stroke-width: 1.5"/>
    <path clip-path="url(#pf219c7478e)" style="fill: none; stroke: #8b0000; stroke-width: 1.5"/>
   </g>
   <g id="LineCollection_2">
    <path clip-path="url(#pf219c7478e)" style="fill: none; stroke: #006400; stroke-width: 1.5"/>
    <path clip-path="url(#pf219c7478e)" style="fill: none; stroke: #006400; stroke-width: 1.5"/>
    <path clip-path="url(#pf219c7478e)" style="fill: none; stroke: #006400; stroke-width: 1.5"/>
    <path clip-path="url(#pf219c7478e)" style="fill: none; stroke: #006400; stroke-width: 1.5"/>
    <path clip-path="url(#pf219c7478e)" style="fill: none; stroke: #006400; stroke-width: 1.5"/>
    <path d="M 76.865758 289 
L 76.865758 21.342182 
" clip-path="url(#pf219c7478e)" style="fill: none; stroke: #006400; stroke-width: 1.5"/>
    <path d="M 95.787615 55.189525 
L 95.787615 32.888967 
" clip-path="url(#pf219c7478e)" style="fill: none; stroke: #006400; stroke-width: 1.5"/>
    <path d="M 114.709471 50.52166 
L 114.709471 38.703743 
" clip-path="url(#pf219c7478e)" style="fill: none; stroke: #006400; stroke-width: 1.5"/>
    <path d="M 133.631328 52.017612 
L 133.631328 41.515132 
" clip-path="url(#pf219c7478e)" style="fill: none; stroke: #006400; stroke-width: 1.5"/>
    <path d="M 152.553184 54.324528 
L 152.553184 43.813336 
" clip-path="url(#pf219c7478e)" style="fill: none; stroke: #006400; stroke-width: 1.5"/>
    <path d="M 171.475041 56.78626 
L 171.475041 46.009765 
" clip-path="url(#pf219c7478e)" style="fill: none; stroke: #006400; stroke-width: 1.5"/>
    <path d="M 190.396897 59.423584 
L 190.396897 48.097589 
" clip-path="url(#pf219c7478e)" style="fill: none; stroke: #006400; stroke-width: 1.5"/>
    <path d="M 209.318754 62.223891 
L 209.318754 50.084072 
" clip-path="url(#pf219c7478e)" style="fill: none; stroke: #006400; stroke-width: 1.5"/>
    <path d="M 228.240611 65.061936 
L 228.240611 52.061505 
" clip-path="url(#pf219c7478e)" style="fill: none; stroke: #006400; stroke-width: 1.5"/>
    <path d="M 247.162467 68.142173 
L 247.162467 53.911477 
" clip-path="url(#pf219c7478e)" style="fill: none; stroke: #006400; stroke-width: 1.5"/>
    <path d="M 266.084324 71.483499 
L 266.084324 55.643284 
" clip-path="url(#pf219c7478e)" style="fill: none; stroke: #006400; stroke-width: 1.5"/>
    <path d="M 285.00618 75.025551 
L 285.00618 57.311373 
" clip-path="url(#pf219c7478e)" style="fill: none; stroke: #006400; stroke-width: 1.5"/>
    <path d="M 303.928037 78.974168 
L 303.928037 58.842114 
" clip-path="url(#pf219c7478e)" style="fill: none; stroke: #006400; stroke-width: 1.5"/>
    <path d="M 322.849893 83.414777 
L 322.849893 60.244843 
" clip-path="url(#pf219c7478e)" style="fill: none; stroke: #006400; stroke-width: 1.5"/>
    <path d="M 341.77175 88.204961 
L 341.77175 61.627784 
" clip-path="url(#pf219c7478e)" style="fill: none; stroke: #006400; stroke-width: 1.5"/>
    <path d="M 360.693607 93.883068 
L 360.693607 62.867151 
" clip-path="url(#pf219c7478e)" style="fill: none; stroke: #006400; stroke-width: 1.5"/>
    <path d="M 379.615463 101.406302 
L 379.615463 63.850731 
" clip-path="url(#pf219c7478e)" style="fill: none; stroke: #006400; stroke-width: 1.5"/>
    <path d="M 398.53732 114.16249 
L 398.53732 64.338197 
" clip-path="url(#pf219c7478e)" style="fill: none; stroke: #006400; stroke-width: 1.5"/>
    <path clip-path="url(#pf219c7478e)" style="fill: none; stroke: #006400; stroke-width: 1.5"/>
   </g>
   <g id="line2d_62">
    <defs>
     <path id="m7f9cbe8df1" d="M 0 3 
C 0.795609 3 1.55874 2.683901 2.12132 2.12132 
C 2.683901 1.55874 3 0.795609 3 0 
C 3 -0.795609 2.683901 -1.55874 2.12132 -2.12132 
C 1.55874 -2.683901 0.795609 -3 0 -3 
C -0.795609 -3 -1.55874 -2.683901 -2.12132 -2.12132 
C -2.683901 -1.55874 -3 -0.795609 -3 0 
C -3 0.795609 -2.683901 1.55874 -2.12132 2.12132 
C -1.55874 2.683901 -0.795609 3 0 3 
z
" style="stroke: #8b0000"/>
    </defs>
    <g clip-path="url(#pf219c7478e)">
     <use xlink:href="#m7f9cbe8df1" x="83.13157" y="39.308743" style="fill: #8b0000; stroke: #8b0000"/>
     <use xlink:href="#m7f9cbe8df1" x="102.053426" y="41.613752" style="fill: #8b0000; stroke: #8b0000"/>
     <use xlink:href="#m7f9cbe8df1" x="120.975283" y="43.915813" style="fill: #8b0000; stroke: #8b0000"/>
     <use xlink:href="#m7f9cbe8df1" x="139.897139" y="46.218174" style="fill: #8b0000; stroke: #8b0000"/>
     <use xlink:href="#m7f9cbe8df1" x="158.818996" y="48.520071" style="fill: #8b0000; stroke: #8b0000"/>
     <use xlink:href="#m7f9cbe8df1" x="177.740852" y="50.821718" style="fill: #8b0000; stroke: #8b0000"/>
     <use xlink:href="#m7f9cbe8df1" x="196.662709" y="53.122988" style="fill: #8b0000; stroke: #8b0000"/>
     <use xlink:href="#m7f9cbe8df1" x="215.584566" y="55.422755" style="fill: #8b0000; stroke: #8b0000"/>
     <use xlink:href="#m7f9cbe8df1" x="234.506422" y="57.723981" style="fill: #8b0000; stroke: #8b0000"/>
     <use xlink:href="#m7f9cbe8df1" x="253.428279" y="60.023514" style="fill: #8b0000; stroke: #8b0000"/>
     <use xlink:href="#m7f9cbe8df1" x="272.350135" y="62.323555" style="fill: #8b0000; stroke: #8b0000"/>
     <use xlink:href="#m7f9cbe8df1" x="291.271992" y="64.622982" style="fill: #8b0000; stroke: #8b0000"/>
     <use xlink:href="#m7f9cbe8df1" x="310.193848" y="66.922158" style="fill: #8b0000; stroke: #8b0000"/>
     <use xlink:href="#m7f9cbe8df1" x="329.115705" y="69.220984" style="fill: #8b0000; stroke: #8b0000"/>
     <use xlink:href="#m7f9cbe8df1" x="348.037562" y="71.519393" style="fill: #8b0000; stroke: #8b0000"/>
     <use xlink:href="#m7f9cbe8df1" x="366.959418" y="73.81754" style="fill: #8b0000; stroke: #8b0000"/>
     <use xlink:href="#m7f9cbe8df1" x="385.881275" y="76.115201" style="fill: #8b0000; stroke: #8b0000"/>
     <use xlink:href="#m7f9cbe8df1" x="404.803131" y="78.412692" style="fill: #8b0000; stroke: #8b0000"/>
    </g>
   </g>
   <g id="line2d_63">
    <defs>
     <path id="ma61dc15b8c" d="M 0 3 
C 0.795609 3 1.55874 2.683901 2.12132 2.12132 
C 2.683901 1.55874 3 0.795609 3 0 
C 3 -0.795609 2.683901 -1.55874 2.12132 -2.12132 
C 1.55874 -2.683901 0.795609 -3 0 -3 
C -0.795609 -3 -1.55874 -2.683901 -2.12132 -2.12132 
C -2.683901 -1.55874 -3 -0.795609 -3 0 
C -3 0.795609 -2.683901 1.55874 -2.12132 2.12132 
C -1.55874 2.683901 -0.795609 3 0 3 
z
" style="stroke: #006400"/>
    </defs>
    <g clip-path="url(#pf219c7478e)">
     <use xlink:href="#ma61dc15b8c" x="76.865758" y="39.306737" style="fill: #006400; stroke: #006400"/>
     <use xlink:href="#ma61dc15b8c" x="95.787615" y="41.612959" style="fill: #006400; stroke: #006400"/>
     <use xlink:href="#ma61dc15b8c" x="114.709471" y="43.915369" style="fill: #006400; stroke: #006400"/>
     <use xlink:href="#ma61dc15b8c" x="133.631328" y="46.214562" style="fill: #006400; stroke: #006400"/>
     <use xlink:href="#ma61dc15b8c" x="152.553184" y="48.516213" style="fill: #006400; stroke: #006400"/>
     <use xlink:href="#ma61dc15b8c" x="171.475041" y="50.817259" style="fill: #006400; stroke: #006400"/>
     <use xlink:href="#ma61dc15b8c" x="190.396897" y="53.119614" style="fill: #006400; stroke: #006400"/>
     <use xlink:href="#ma61dc15b8c" x="209.318754" y="55.41852" style="fill: #006400; stroke: #006400"/>
     <use xlink:href="#ma61dc15b8c" x="228.240611" y="57.719493" style="fill: #006400; stroke: #006400"/>
     <use xlink:href="#ma61dc15b8c" x="247.162467" y="60.019877" style="fill: #006400; stroke: #006400"/>
     <use xlink:href="#ma61dc15b8c" x="266.084324" y="62.319737" style="fill: #006400; stroke: #006400"/>
     <use xlink:href="#ma61dc15b8c" x="285.00618" y="64.619487" style="fill: #006400; stroke: #006400"/>
     <use xlink:href="#ma61dc15b8c" x="303.928037" y="66.919193" style="fill: #006400; stroke: #006400"/>
     <use xlink:href="#ma61dc15b8c" x="322.849893" y="69.217164" style="fill: #006400; stroke: #006400"/>
     <use xlink:href="#ma61dc15b8c" x="341.77175" y="71.514764" style="fill: #006400; stroke: #006400"/>
     <use xlink:href="#ma61dc15b8c" x="360.693607" y="73.813221" style="fill: #006400; stroke: #006400"/>
     <use xlink:href="#ma61dc15b8c" x="379.615463" y="76.110649" style="fill: #006400; stroke: #006400"/>
     <use xlink:href="#ma61dc15b8c" x="398.53732" y="78.407705" style="fill: #006400; stroke: #006400"/>
    </g>
   </g>
   <g id="patch_3">
    <path d="M 60.468889 242.728 
L 60.468889 10.8 
" style="fill: none; stroke: #000000; stroke-width: 0.8; stroke-linejoin: miter; stroke-linecap: square"/>
   </g>
   <g id="patch_4">
    <path d="M 421.2 242.728 
L 421.2 10.8 
" style="fill: none; stroke: #000000; stroke-width: 0.8; stroke-linejoin: miter; stroke-linecap: square"/>
   </g>
   <g id="patch_5">
    <path d="M 60.468889 242.728 
L 421.2 242.728 
" style="fill: none; stroke: #000000; stroke-width: 0.8; stroke-linejoin: miter; stroke-linecap: square"/>
   </g>
   <g id="patch_6">
    <path d="M 60.468889 10.8 
L 421.2 10.8 
" style="fill: none; stroke: #000000; stroke-width: 0.8; stroke-linejoin: miter; stroke-linecap: square"/>
   </g>
   <g id="legend_1">
    <g id="patch_7">
     <path d="M 320.3 62.834375 
L 414.2 62.834375 
Q 416.2 62.834375 416.2 60.834375 
L 416.2 17.8 
Q 416.2 15.8 414.2 15.8 
L 320.3 15.8 
Q 318.3 15.8 318.3 17.8 
L 318.3 60.834375 
Q 318.3 62.834375 320.3 62.834375 
z
" style="fill: #ffffff; opacity: 0.8; stroke: #cccccc; stroke-linejoin: miter"/>
    </g>
    <g id="patch_8">
     <path d="M 322.3 27.398438 
L 342.3 27.398438 
L 342.3 20.398438 
L 322.3 20.398438 
z
" style="fill: #008000; fill-opacity: 0.5"/>
    </g>
    <g id="text_9">
     <!-- $1\sigma$ Nuisance -->
     <g transform="translate(350.3 27.398438) scale(0.1 -0.1)">
      <defs>
       <path id="DejaVuSans-Oblique-3c3" d="M 2219 3044 
Q 1744 3044 1422 2700 
Q 1081 2341 969 1747 
Q 844 1119 1044 756 
Q 1241 397 1706 397 
Q 2166 397 2503 759 
Q 2844 1122 2966 1747 
Q 3075 2319 2881 2700 
Q 2700 3044 2219 3044 
z
M 2309 3503 
L 4219 3500 
L 4106 2925 
L 3463 2925 
Q 3706 2438 3575 1747 
Q 3406 888 2884 400 
Q 2359 -91 1609 -91 
Q 856 -91 525 400 
Q 194 888 363 1747 
Q 528 2609 1050 3097 
Q 1484 3503 2309 3503 
z
" transform="scale(0.015625)"/>
       <path id="DejaVuSans-4e" d="M 628 4666 
L 1478 4666 
L 3547 763 
L 3547 4666 
L 4159 4666 
L 4159 0 
L 3309 0 
L 1241 3903 
L 1241 0 
L 628 0 
L 628 4666 
z
" transform="scale(0.015625)"/>
       <path id="DejaVuSans-75" d="M 544 1381 
L 544 3500 
L 1119 3500 
L 1119 1403 
Q 1119 906 1312 657 
Q 1506 409 1894 409 
Q 2359 409 2629 706 
Q 2900 1003 2900 1516 
L 2900 3500 
L 3475 3500 
L 3475 0 
L 2900 0 
L 2900 538 
Q 2691 219 2414 64 
Q 2138 -91 1772 -91 
Q 1169 -91 856 284 
Q 544 659 544 1381 
z
M 1991 3584 
L 1991 3584 
z
" transform="scale(0.015625)"/>
       <path id="DejaVuSans-69" d="M 603 3500 
L 1178 3500 
L 1178 0 
L 603 0 
L 603 3500 
z
M 603 4863 
L 1178 4863 
L 1178 4134 
L 603 4134 
L 603 4863 
z
" transform="scale(0.015625)"/>
       <path id="DejaVuSans-61" d="M 2194 1759 
Q 1497 1759 1228 1600 
Q 959 1441 959 1056 
Q 959 750 1161 570 
Q 1363 391 1709 391 
Q 2188 391 2477 730 
Q 2766 1069 2766 1631 
L 2766 1759 
L 2194 1759 
z
M 3341 1997 
L 3341 0 
L 2766 0 
L 2766 531 
Q 2569 213 2275 61 
Q 1981 -91 1556 -91 
Q 1019 -91 701 211 
Q 384 513 384 1019 
Q 384 1609 779 1909 
Q 1175 2209 1959 2209 
L 2766 2209 
L 2766 2266 
Q 2766 2663 2505 2880 
Q 2244 3097 1772 3097 
Q 1472 3097 1187 3025 
Q 903 2953 641 2809 
L 641 3341 
Q 956 3463 1253 3523 
Q 1550 3584 1831 3584 
Q 2591 3584 2966 3190 
Q 3341 2797 3341 1997 
z
" transform="scale(0.015625)"/>
      </defs>
      <use xlink:href="#DejaVuSans-31" transform="translate(0 0.015625)"/>
      <use xlink:href="#DejaVuSans-Oblique-3c3" transform="translate(63.623047 0.015625)"/>
      <use xlink:href="#DejaVuSans-20" transform="translate(127.001953 0.015625)"/>
      <use xlink:href="#DejaVuSans-4e" transform="translate(158.789062 0.015625)"/>
      <use xlink:href="#DejaVuSans-75" transform="translate(233.59375 0.015625)"/>
      <use xlink:href="#DejaVuSans-69" transform="translate(296.972656 0.015625)"/>
      <use xlink:href="#DejaVuSans-73" transform="translate(324.755859 0.015625)"/>
      <use xlink:href="#DejaVuSans-61" transform="translate(376.855469 0.015625)"/>
      <use xlink:href="#DejaVuSans-6e" transform="translate(438.134766 0.015625)"/>
      <use xlink:href="#DejaVuSans-63" transform="translate(501.513672 0.015625)"/>
      <use xlink:href="#DejaVuSans-65" transform="translate(556.494141 0.015625)"/>
     </g>
    </g>
    <g id="patch_9">
     <path d="M 322.3 42.076562 
L 342.3 42.076562 
L 342.3 35.076562 
L 322.3 35.076562 
z
" style="fill: #ff0000; fill-opacity: 0.6"/>
    </g>
    <g id="text_10">
     <!-- $1\sigma$ Standard -->
     <g transform="translate(350.3 42.076562) scale(0.1 -0.1)">
      <defs>
       <path id="DejaVuSans-53" d="M 3425 4513 
L 3425 3897 
Q 3066 4069 2747 4153 
Q 2428 4238 2131 4238 
Q 1616 4238 1336 4038 
Q 1056 3838 1056 3469 
Q 1056 3159 1242 3001 
Q 1428 2844 1947 2747 
L 2328 2669 
Q 3034 2534 3370 2195 
Q 3706 1856 3706 1288 
Q 3706 609 3251 259 
Q 2797 -91 1919 -91 
Q 1588 -91 1214 -16 
Q 841 59 441 206 
L 441 856 
Q 825 641 1194 531 
Q 1563 422 1919 422 
Q 2459 422 2753 634 
Q 3047 847 3047 1241 
Q 3047 1584 2836 1778 
Q 2625 1972 2144 2069 
L 1759 2144 
Q 1053 2284 737 2584 
Q 422 2884 422 3419 
Q 422 4038 858 4394 
Q 1294 4750 2059 4750 
Q 2388 4750 2728 4690 
Q 3069 4631 3425 4513 
z
" transform="scale(0.015625)"/>
       <path id="DejaVuSans-74" d="M 1172 4494 
L 1172 3500 
L 2356 3500 
L 2356 3053 
L 1172 3053 
L 1172 1153 
Q 1172 725 1289 603 
Q 1406 481 1766 481 
L 2356 481 
L 2356 0 
L 1766 0 
Q 1100 0 847 248 
Q 594 497 594 1153 
L 594 3053 
L 172 3053 
L 172 3500 
L 594 3500 
L 594 4494 
L 1172 4494 
z
" transform="scale(0.015625)"/>
      </defs>
      <use xlink:href="#DejaVuSans-31" transform="translate(0 0.015625)"/>
      <use xlink:href="#DejaVuSans-Oblique-3c3" transform="translate(63.623047 0.015625)"/>
      <use xlink:href="#DejaVuSans-20" transform="translate(127.001953 0.015625)"/>
      <use xlink:href="#DejaVuSans-53" transform="translate(158.789062 0.015625)"/>
      <use xlink:href="#DejaVuSans-74" transform="translate(222.265625 0.015625)"/>
      <use xlink:href="#DejaVuSans-61" transform="translate(261.474609 0.015625)"/>
      <use xlink:href="#DejaVuSans-6e" transform="translate(322.753906 0.015625)"/>
      <use xlink:href="#DejaVuSans-64" transform="translate(386.132812 0.015625)"/>
      <use xlink:href="#DejaVuSans-61" transform="translate(449.609375 0.015625)"/>
      <use xlink:href="#DejaVuSans-72" transform="translate(510.888672 0.015625)"/>
      <use xlink:href="#DejaVuSans-64" transform="translate(552.001953 0.015625)"/>
     </g>
    </g>
    <g id="line2d_64">
     <path d="M 322.3 53.254687 
L 332.3 53.254687 
L 342.3 53.254687 
" style="fill: none; stroke-dasharray: 1.5,2.475; stroke-dashoffset: 0; stroke: #000000; stroke-width: 1.5"/>
    </g>
    <g id="text_11">
     <!-- Input -->
     <g transform="translate(350.3 56.754687) scale(0.1 -0.1)">
      <defs>
       <path id="DejaVuSans-49" d="M 628 4666 
L 1259 4666 
L 1259 0 
L 628 0 
L 628 4666 
z
" transform="scale(0.015625)"/>
       <path id="DejaVuSans-70" d="M 1159 525 
L 1159 -1331 
L 581 -1331 
L 581 3500 
L 1159 3500 
L 1159 2969 
Q 1341 3281 1617 3432 
Q 1894 3584 2278 3584 
Q 2916 3584 3314 3078 
Q 3713 2572 3713 1747 
Q 3713 922 3314 415 
Q 2916 -91 2278 -91 
Q 1894 -91 1617 61 
Q 1341 213 1159 525 
z
M 3116 1747 
Q 3116 2381 2855 2742 
Q 2594 3103 2138 3103 
Q 1681 3103 1420 2742 
Q 1159 2381 1159 1747 
Q 1159 1113 1420 752 
Q 1681 391 2138 391 
Q 2594 391 2855 752 
Q 3116 1113 3116 1747 
z
" transform="scale(0.015625)"/>
      </defs>
      <use xlink:href="#DejaVuSans-49"/>
      <use xlink:href="#DejaVuSans-6e" x="29.492188"/>
      <use xlink:href="#DejaVuSans-70" x="92.871094"/>
      <use xlink:href="#DejaVuSans-75" x="156.347656"/>
      <use xlink:href="#DejaVuSans-74" x="219.726562"/>
     </g>
    </g>
   </g>
  </g>
 </g>
 <defs>
  <clipPath id="pf219c7478e">
   <rect x="60.468889" y="10.8" width="360.731111" height="231.928"/>
  </clipPath>
 </defs>
</svg>
