<?xml version="1.0" encoding="utf-8" standalone="no"?>
<!DOCTYPE svg PUBLIC "-//W3C//DTD SVG 1.1//EN"
  "http://www.w3.org/Graphics/SVG/1.1/DTD/svg11.dtd">
<svg xmlns:xlink="http://www.w3.org/1999/xlink" width="432pt" height="288pt" viewBox="0 0 432 288" xmlns="http://www.w3.org/2000/svg" version="1.1">
 <metadata>
  <rdf:RDF xmlns:dc="http://purl.org/dc/elements/1.1/" xmlns:cc="http://creativecommons.org/ns#" xmlns:rdf="http://www.w3.org/1999/02/22-rdf-syntax-ns#">
   <cc:Work>
    <dc:type rdf:resource="http://purl.org/dc/dcmitype/StillImage"/>
    <dc:date>2023-02-22T14:35:41.704351</dc:date>
    <dc:format>image/svg+xml</dc:format>
    <dc:creator>
     <cc:Agent>
      <dc:title>Matplotlib v3.6.2, https://matplotlib.org/</dc:title>
     </cc:Agent>
    </dc:creator>
   </cc:Work>
  </rdf:RDF>
 </metadata>
 <defs>
  <style type="text/css">*{stroke-linejoin: round; stroke-linecap: butt}</style>
 </defs>
 <g id="figure_1">
  <g id="patch_1">
   <path d="M 0 288 
L 432 288 
L 432 0 
L 0 0 
z
" style="fill: #ffffff"/>
  </g>
  <g id="axes_1">
   <g id="patch_2">
    <path d="M 60.468889 242.728 
L 421.2 242.728 
L 421.2 10.8 
L 60.468889 10.8 
z
" style="fill: #ffffff"/>
   </g>
   <g id="PolyCollection_1">
    <path d="M 78.474116 36.157839 
L 78.474116 46.234697 
L 81.690831 46.494428 
L 84.907547 46.761949 
L 88.124263 47.037541 
L 91.340978 47.321498 
L 94.557694 47.614135 
L 97.77441 47.915779 
L 100.991125 48.226777 
L 104.207841 48.547492 
L 107.424556 48.878301 
L 110.641272 49.219595 
L 113.857988 49.57178 
L 117.074703 49.93527 
L 120.291419 50.310489 
L 123.508134 50.697868 
L 126.72485 51.097839 
L 129.941566 51.510835 
L 133.158281 51.937286 
L 136.374997 52.377615 
L 139.591713 52.832236 
L 142.808428 53.301551 
L 146.025144 53.78595 
L 149.241859 54.28581 
L 152.458575 54.801493 
L 155.675291 55.333353 
L 158.892006 55.881735 
L 162.108722 56.446982 
L 165.325437 57.029442 
L 168.542153 57.629472 
L 171.758869 58.247449 
L 174.975584 58.883779 
L 178.1923 59.538904 
L 181.409016 60.213316 
L 184.625731 60.907562 
L 187.842447 61.622257 
L 191.059162 62.358093 
L 194.275878 63.11585 
L 197.492594 63.896403 
L 200.709309 64.700735 
L 203.926025 65.529942 
L 207.142741 66.385246 
L 210.359456 67.268005 
L 213.576172 68.179717 
L 216.792887 69.122035 
L 220.009603 70.096773 
L 223.226319 71.10592 
L 226.443034 72.151643 
L 229.65975 73.236302 
L 232.876465 74.362461 
L 236.093181 75.532894 
L 239.309897 76.750603 
L 242.526612 78.018827 
L 245.743328 79.341058 
L 248.960044 80.721059 
L 252.176759 82.162882 
L 255.393475 83.670897 
L 258.61019 85.249818 
L 261.826906 86.904738 
L 265.043622 88.641181 
L 268.260337 90.465149 
L 271.477053 92.383197 
L 274.693768 94.402516 
L 277.910484 96.531044 
L 281.1272 98.777599 
L 284.343915 101.152053 
L 287.560631 103.665553 
L 290.777347 106.330813 
L 293.994062 109.162492 
L 297.210778 112.177706 
L 300.427493 115.396727 
L 303.644209 118.843963 
L 306.860925 122.549366 
L 310.07764 126.550507 
L 313.294356 130.895763 
L 316.511071 135.649402 
L 319.727787 140.900123 
L 322.944503 146.776318 
L 326.161218 153.475647 
L 329.377934 161.328824 
L 332.59465 170.959919 
L 335.811365 183.798172 
L 339.028081 204.664287 
L 342.244796 55080.873566 
L 345.461512 55080.873566 
L 348.678228 55080.873566 
L 351.894943 55080.873566 
L 355.111659 55080.873566 
L 358.328375 55080.873566 
L 361.54509 55080.873566 
L 364.761806 55080.873566 
L 367.978521 55080.873566 
L 371.195237 55080.873566 
L 374.411953 55080.873566 
L 377.628668 55080.873566 
L 380.845384 55080.873566 
L 384.062099 55080.873566 
L 387.278815 55080.873566 
L 390.495531 55080.873566 
L 393.712246 55080.873566 
L 396.928962 55080.873566 
L 396.928962 197.722982 
L 396.928962 197.722982 
L 393.712246 190.965082 
L 390.495531 184.546212 
L 387.278815 178.449172 
L 384.062099 172.657557 
L 380.845384 167.15572 
L 377.628668 161.92874 
L 374.411953 156.962382 
L 371.195237 152.243072 
L 367.978521 147.757863 
L 364.761806 143.49441 
L 361.54509 139.440942 
L 358.328375 135.586236 
L 355.111659 131.919592 
L 351.894943 128.430817 
L 348.678228 125.110195 
L 345.461512 121.948473 
L 342.244796 118.936838 
L 339.028081 116.066904 
L 335.811365 113.33069 
L 332.59465 110.720606 
L 329.377934 108.229439 
L 326.161218 105.850337 
L 322.944503 103.576795 
L 319.727787 101.402644 
L 316.511071 99.322039 
L 313.294356 97.329444 
L 310.07764 95.419625 
L 306.860925 93.587639 
L 303.644209 91.828822 
L 300.427493 90.138781 
L 297.210778 88.513386 
L 293.994062 86.948761 
L 290.777347 85.441272 
L 287.560631 83.987525 
L 284.343915 82.584353 
L 281.1272 81.228809 
L 277.910484 79.91816 
L 274.693768 78.649875 
L 271.477053 77.421617 
L 268.260337 76.231235 
L 265.043622 75.076751 
L 261.826906 73.956351 
L 258.61019 72.868375 
L 255.393475 71.811301 
L 252.176759 70.783736 
L 248.960044 69.784399 
L 245.743328 68.812114 
L 242.526612 67.865791 
L 239.309897 66.944415 
L 236.093181 66.047036 
L 232.876465 65.172751 
L 229.65975 64.320704 
L 226.443034 63.490063 
L 223.226319 62.680024 
L 220.009603 61.889794 
L 216.792887 61.11859 
L 213.576172 60.365633 
L 210.359456 59.630143 
L 207.142741 58.911337 
L 203.926025 58.208427 
L 200.709309 57.520619 
L 197.492594 56.847112 
L 194.275878 56.187101 
L 191.059162 55.539774 
L 187.842447 54.904319 
L 184.625731 54.279921 
L 181.409016 53.665772 
L 178.1923 53.061069 
L 174.975584 52.465023 
L 171.758869 51.876859 
L 168.542153 51.295826 
L 165.325437 50.721202 
L 162.108722 50.152294 
L 158.892006 49.588452 
L 155.675291 49.029066 
L 152.458575 48.473575 
L 149.241859 47.921467 
L 146.025144 47.372285 
L 142.808428 46.825623 
L 139.591713 46.281129 
L 136.374997 45.738502 
L 133.158281 45.19749 
L 129.941566 44.657889 
L 126.72485 44.119532 
L 123.508134 43.582292 
L 120.291419 43.046073 
L 117.074703 42.510807 
L 113.857988 41.97645 
L 110.641272 41.442974 
L 107.424556 40.910368 
L 104.207841 40.378631 
L 100.991125 39.847773 
L 97.77441 39.317806 
L 94.557694 38.78875 
L 91.340978 38.260624 
L 88.124263 37.73345 
L 84.907547 37.207247 
L 81.690831 36.682038 
L 78.474116 36.157839 
z
" clip-path="url(#pb2d19f7205)" style="fill: #008000; fill-opacity: 0.5"/>
   </g>
   <g id="PolyCollection_2">
    <path d="M 78.474116 36.774752 
L 78.474116 45.552605 
L 81.690831 45.796042 
L 84.907547 46.046602 
L 88.124263 46.304568 
L 91.340978 46.570246 
L 94.557694 46.843968 
L 97.77441 47.126093 
L 100.991125 47.417013 
L 104.207841 47.717148 
L 107.424556 48.026956 
L 110.641272 48.346926 
L 113.857988 48.677588 
L 117.074703 49.019506 
L 120.291419 49.373282 
L 123.508134 49.739551 
L 126.72485 50.118978 
L 129.941566 50.512256 
L 133.158281 50.92009 
L 136.374997 51.343193 
L 139.591713 51.782268 
L 142.808428 52.237996 
L 146.025144 52.711019 
L 149.241859 53.201923 
L 152.458575 53.71123 
L 155.675291 54.239386 
L 158.892006 54.786759 
L 162.108722 55.353644 
L 165.325437 55.940277 
L 168.542153 56.546845 
L 171.758869 57.173515 
L 174.975584 57.82045 
L 178.1923 58.48784 
L 181.409016 59.175919 
L 184.625731 59.884988 
L 187.842447 60.615433 
L 191.059162 61.36774 
L 194.275878 62.142508 
L 197.492594 62.940458 
L 200.709309 63.762444 
L 203.926025 64.609457 
L 207.142741 65.482635 
L 210.359456 66.383268 
L 213.576172 67.312804 
L 216.792887 68.272854 
L 220.009603 69.2652 
L 223.226319 70.291801 
L 226.443034 71.3548 
L 229.65975 72.456532 
L 232.876465 73.59953 
L 236.093181 74.786539 
L 239.309897 76.020524 
L 242.526612 77.304682 
L 245.743328 78.642457 
L 248.960044 80.037559 
L 252.176759 81.493984 
L 255.393475 83.016036 
L 258.61019 84.608364 
L 261.826906 86.275994 
L 265.043622 88.024376 
L 268.260337 89.859443 
L 271.477053 91.787678 
L 274.693768 93.816201 
L 277.910484 95.952876 
L 281.1272 98.206446 
L 284.343915 100.586708 
L 287.560631 103.104725 
L 290.777347 105.773118 
L 293.994062 108.606436 
L 297.210778 111.621666 
L 300.427493 114.838915 
L 303.644209 118.282376 
L 306.860925 121.981708 
L 310.07764 125.974077 
L 313.294356 130.30727 
L 316.511071 135.044666 
L 319.727787 140.27356 
L 322.944503 146.119985 
L 326.161218 152.77732 
L 329.377934 160.567623 
L 332.59465 170.094445 
L 335.811365 182.723732 
L 339.028081 202.937468 
L 342.244796 55080.873566 
L 345.461512 55080.873566 
L 348.678228 55080.873566 
L 351.894943 55080.873566 
L 355.111659 55080.873566 
L 358.328375 55080.873566 
L 361.54509 55080.873566 
L 364.761806 55080.873566 
L 367.978521 55080.873566 
L 371.195237 55080.873566 
L 374.411953 55080.873566 
L 377.628668 55080.873566 
L 380.845384 55080.873566 
L 384.062099 55080.873566 
L 387.278815 55080.873566 
L 390.495531 55080.873566 
L 393.712246 55080.873566 
L 396.928962 55080.873566 
L 396.928962 197.010735 
L 396.928962 197.010735 
L 393.712246 190.281321 
L 390.495531 183.889819 
L 387.278815 177.819098 
L 384.062099 172.052817 
L 380.845384 166.575393 
L 377.628668 161.371964 
L 374.411953 156.428356 
L 371.195237 151.731054 
L 367.978521 147.267167 
L 364.761806 143.024409 
L 361.54509 138.991061 
L 358.328375 135.155955 
L 355.111659 131.508449 
L 351.894943 128.038399 
L 348.678228 124.736144 
L 345.461512 121.592483 
L 342.244796 118.598656 
L 339.028081 115.746329 
L 335.811365 113.027572 
L 332.59465 110.434847 
L 329.377934 107.960991 
L 326.161218 105.599203 
L 322.944503 103.343028 
L 319.727787 101.186347 
L 316.511071 99.123361 
L 313.294356 97.148581 
L 310.07764 95.25682 
L 306.860925 93.443175 
L 303.644209 91.703025 
L 300.427493 90.032012 
L 297.210778 88.426042 
L 293.994062 86.881265 
L 290.777347 85.394074 
L 287.560631 83.961094 
L 284.343915 82.57917 
L 281.1272 81.245363 
L 277.910484 79.95694 
L 274.693768 78.711361 
L 271.477053 77.506278 
L 268.260337 76.339518 
L 265.043622 75.209077 
L 261.826906 74.11311 
L 258.61019 73.049921 
L 255.393475 72.017948 
L 252.176759 71.015758 
L 248.960044 70.042031 
L 245.743328 69.095548 
L 242.526612 68.175182 
L 239.309897 67.279884 
L 236.093181 66.408672 
L 232.876465 65.560619 
L 229.65975 64.734844 
L 226.443034 63.930498 
L 223.226319 63.146758 
L 220.009603 62.382818 
L 216.792887 61.637879 
L 213.576172 60.911141 
L 210.359456 60.201799 
L 207.142741 59.509039 
L 203.926025 58.832025 
L 200.709309 58.169904 
L 197.492594 57.521796 
L 194.275878 56.886795 
L 191.059162 56.263967 
L 187.842447 55.652348 
L 184.625731 55.050948 
L 181.409016 54.458755 
L 178.1923 53.874742 
L 174.975584 53.297874 
L 171.758869 52.727125 
L 168.542153 52.161492 
L 165.325437 51.600013 
L 162.108722 51.041787 
L 158.892006 50.485995 
L 155.675291 49.931918 
L 152.458575 49.378949 
L 149.241859 48.826601 
L 146.025144 48.274509 
L 142.808428 47.722428 
L 139.591713 47.170216 
L 136.374997 46.617827 
L 133.158281 46.065288 
L 129.941566 45.512684 
L 126.72485 44.960138 
L 123.508134 44.407802 
L 120.291419 43.855837 
L 117.074703 43.304409 
L 113.857988 42.753679 
L 110.641272 42.203798 
L 107.424556 41.654904 
L 104.207841 41.107121 
L 100.991125 40.560555 
L 97.77441 40.015301 
L 94.557694 39.471435 
L 91.340978 38.929021 
L 88.124263 38.388111 
L 84.907547 37.848745 
L 81.690831 37.310951 
L 78.474116 36.774752 
z
" clip-path="url(#pb2d19f7205)" style="fill: #ff0000; fill-opacity: 0.6"/>
   </g>
   <g id="matplotlib.axis_1">
    <g id="xtick_1">
     <g id="line2d_1">
      <defs>
       <path id="mc9d17b0e2f" d="M 0 0 
L 0 3.5 
" style="stroke: #000000; stroke-width: 0.8"/>
      </defs>
      <g>
       <use xlink:href="#mc9d17b0e2f" x="124.170399" y="242.728" style="stroke: #000000; stroke-width: 0.8"/>
      </g>
     </g>
     <g id="text_1">
      <!-- $\mathdefault{10^{0}}$ -->
      <g transform="translate(115.370399 257.326437) scale(0.1 -0.1)">
       <defs>
        <path id="DejaVuSans-31" d="M 794 531 
L 1825 531 
L 1825 4091 
L 703 3866 
L 703 4441 
L 1819 4666 
L 2450 4666 
L 2450 531 
L 3481 531 
L 3481 0 
L 794 0 
L 794 531 
z
" transform="scale(0.015625)"/>
        <path id="DejaVuSans-30" d="M 2034 4250 
Q 1547 4250 1301 3770 
Q 1056 3291 1056 2328 
Q 1056 1369 1301 889 
Q 1547 409 2034 409 
Q 2525 409 2770 889 
Q 3016 1369 3016 2328 
Q 3016 3291 2770 3770 
Q 2525 4250 2034 4250 
z
M 2034 4750 
Q 2819 4750 3233 4129 
Q 3647 3509 3647 2328 
Q 3647 1150 3233 529 
Q 2819 -91 2034 -91 
Q 1250 -91 836 529 
Q 422 1150 422 2328 
Q 422 3509 836 4129 
Q 1250 4750 2034 4750 
z
" transform="scale(0.015625)"/>
       </defs>
       <use xlink:href="#DejaVuSans-31" transform="translate(0 0.765625)"/>
       <use xlink:href="#DejaVuSans-30" transform="translate(63.623047 0.765625)"/>
       <use xlink:href="#DejaVuSans-30" transform="translate(128.203125 39.046875) scale(0.7)"/>
      </g>
     </g>
    </g>
    <g id="xtick_2">
     <g id="line2d_2">
      <g>
       <use xlink:href="#mc9d17b0e2f" x="275.545252" y="242.728" style="stroke: #000000; stroke-width: 0.8"/>
      </g>
     </g>
     <g id="text_2">
      <!-- $\mathdefault{10^{1}}$ -->
      <g transform="translate(266.745252 257.326437) scale(0.1 -0.1)">
       <use xlink:href="#DejaVuSans-31" transform="translate(0 0.684375)"/>
       <use xlink:href="#DejaVuSans-30" transform="translate(63.623047 0.684375)"/>
       <use xlink:href="#DejaVuSans-31" transform="translate(128.203125 38.965625) scale(0.7)"/>
      </g>
     </g>
    </g>
    <g id="xtick_3">
     <g id="line2d_3">
      <defs>
       <path id="md4f34d3cf9" d="M 0 0 
L 0 2 
" style="stroke: #000000; stroke-width: 0.6"/>
      </defs>
      <g>
       <use xlink:href="#md4f34d3cf9" x="63.932289" y="242.728" style="stroke: #000000; stroke-width: 0.6"/>
      </g>
     </g>
    </g>
    <g id="xtick_4">
     <g id="line2d_4">
      <g>
       <use xlink:href="#md4f34d3cf9" x="78.602028" y="242.728" style="stroke: #000000; stroke-width: 0.6"/>
      </g>
     </g>
    </g>
    <g id="xtick_5">
     <g id="line2d_5">
      <g>
       <use xlink:href="#md4f34d3cf9" x="90.588078" y="242.728" style="stroke: #000000; stroke-width: 0.6"/>
      </g>
     </g>
    </g>
    <g id="xtick_6">
     <g id="line2d_6">
      <g>
       <use xlink:href="#md4f34d3cf9" x="100.722138" y="242.728" style="stroke: #000000; stroke-width: 0.6"/>
      </g>
     </g>
    </g>
    <g id="xtick_7">
     <g id="line2d_7">
      <g>
       <use xlink:href="#md4f34d3cf9" x="109.500661" y="242.728" style="stroke: #000000; stroke-width: 0.6"/>
      </g>
     </g>
    </g>
    <g id="xtick_8">
     <g id="line2d_8">
      <g>
       <use xlink:href="#md4f34d3cf9" x="117.243866" y="242.728" style="stroke: #000000; stroke-width: 0.6"/>
      </g>
     </g>
    </g>
    <g id="xtick_9">
     <g id="line2d_9">
      <g>
       <use xlink:href="#md4f34d3cf9" x="169.738771" y="242.728" style="stroke: #000000; stroke-width: 0.6"/>
      </g>
     </g>
    </g>
    <g id="xtick_10">
     <g id="line2d_10">
      <g>
       <use xlink:href="#md4f34d3cf9" x="196.394559" y="242.728" style="stroke: #000000; stroke-width: 0.6"/>
      </g>
     </g>
    </g>
    <g id="xtick_11">
     <g id="line2d_11">
      <g>
       <use xlink:href="#md4f34d3cf9" x="215.307142" y="242.728" style="stroke: #000000; stroke-width: 0.6"/>
      </g>
     </g>
    </g>
    <g id="xtick_12">
     <g id="line2d_12">
      <g>
       <use xlink:href="#md4f34d3cf9" x="229.976881" y="242.728" style="stroke: #000000; stroke-width: 0.6"/>
      </g>
     </g>
    </g>
    <g id="xtick_13">
     <g id="line2d_13">
      <g>
       <use xlink:href="#md4f34d3cf9" x="241.96293" y="242.728" style="stroke: #000000; stroke-width: 0.6"/>
      </g>
     </g>
    </g>
    <g id="xtick_14">
     <g id="line2d_14">
      <g>
       <use xlink:href="#md4f34d3cf9" x="252.096991" y="242.728" style="stroke: #000000; stroke-width: 0.6"/>
      </g>
     </g>
    </g>
    <g id="xtick_15">
     <g id="line2d_15">
      <g>
       <use xlink:href="#md4f34d3cf9" x="260.875513" y="242.728" style="stroke: #000000; stroke-width: 0.6"/>
      </g>
     </g>
    </g>
    <g id="xtick_16">
     <g id="line2d_16">
      <g>
       <use xlink:href="#md4f34d3cf9" x="268.618719" y="242.728" style="stroke: #000000; stroke-width: 0.6"/>
      </g>
     </g>
    </g>
    <g id="xtick_17">
     <g id="line2d_17">
      <g>
       <use xlink:href="#md4f34d3cf9" x="321.113623" y="242.728" style="stroke: #000000; stroke-width: 0.6"/>
      </g>
     </g>
    </g>
    <g id="xtick_18">
     <g id="line2d_18">
      <g>
       <use xlink:href="#md4f34d3cf9" x="347.769412" y="242.728" style="stroke: #000000; stroke-width: 0.6"/>
      </g>
     </g>
    </g>
    <g id="xtick_19">
     <g id="line2d_19">
      <g>
       <use xlink:href="#md4f34d3cf9" x="366.681994" y="242.728" style="stroke: #000000; stroke-width: 0.6"/>
      </g>
     </g>
    </g>
    <g id="xtick_20">
     <g id="line2d_20">
      <g>
       <use xlink:href="#md4f34d3cf9" x="381.351733" y="242.728" style="stroke: #000000; stroke-width: 0.6"/>
      </g>
     </g>
    </g>
    <g id="xtick_21">
     <g id="line2d_21">
      <g>
       <use xlink:href="#md4f34d3cf9" x="393.337783" y="242.728" style="stroke: #000000; stroke-width: 0.6"/>
      </g>
     </g>
    </g>
    <g id="xtick_22">
     <g id="line2d_22">
      <g>
       <use xlink:href="#md4f34d3cf9" x="403.471843" y="242.728" style="stroke: #000000; stroke-width: 0.6"/>
      </g>
     </g>
    </g>
    <g id="xtick_23">
     <g id="line2d_23">
      <g>
       <use xlink:href="#md4f34d3cf9" x="412.250366" y="242.728" style="stroke: #000000; stroke-width: 0.6"/>
      </g>
     </g>
    </g>
    <g id="xtick_24">
     <g id="line2d_24">
      <g>
       <use xlink:href="#md4f34d3cf9" x="419.993571" y="242.728" style="stroke: #000000; stroke-width: 0.6"/>
      </g>
     </g>
    </g>
    <g id="text_3">
     <!-- Energy [TeV] -->
     <g transform="translate(209.136788 271.004562) scale(0.1 -0.1)">
      <defs>
       <path id="DejaVuSans-45" d="M 628 4666 
L 3578 4666 
L 3578 4134 
L 1259 4134 
L 1259 2753 
L 3481 2753 
L 3481 2222 
L 1259 2222 
L 1259 531 
L 3634 531 
L 3634 0 
L 628 0 
L 628 4666 
z
" transform="scale(0.015625)"/>
       <path id="DejaVuSans-6e" d="M 3513 2113 
L 3513 0 
L 2938 0 
L 2938 2094 
Q 2938 2591 2744 2837 
Q 2550 3084 2163 3084 
Q 1697 3084 1428 2787 
Q 1159 2491 1159 1978 
L 1159 0 
L 581 0 
L 581 3500 
L 1159 3500 
L 1159 2956 
Q 1366 3272 1645 3428 
Q 1925 3584 2291 3584 
Q 2894 3584 3203 3211 
Q 3513 2838 3513 2113 
z
" transform="scale(0.015625)"/>
       <path id="DejaVuSans-65" d="M 3597 1894 
L 3597 1613 
L 953 1613 
Q 991 1019 1311 708 
Q 1631 397 2203 397 
Q 2534 397 2845 478 
Q 3156 559 3463 722 
L 3463 178 
Q 3153 47 2828 -22 
Q 2503 -91 2169 -91 
Q 1331 -91 842 396 
Q 353 884 353 1716 
Q 353 2575 817 3079 
Q 1281 3584 2069 3584 
Q 2775 3584 3186 3129 
Q 3597 2675 3597 1894 
z
M 3022 2063 
Q 3016 2534 2758 2815 
Q 2500 3097 2075 3097 
Q 1594 3097 1305 2825 
Q 1016 2553 972 2059 
L 3022 2063 
z
" transform="scale(0.015625)"/>
       <path id="DejaVuSans-72" d="M 2631 2963 
Q 2534 3019 2420 3045 
Q 2306 3072 2169 3072 
Q 1681 3072 1420 2755 
Q 1159 2438 1159 1844 
L 1159 0 
L 581 0 
L 581 3500 
L 1159 3500 
L 1159 2956 
Q 1341 3275 1631 3429 
Q 1922 3584 2338 3584 
Q 2397 3584 2469 3576 
Q 2541 3569 2628 3553 
L 2631 2963 
z
" transform="scale(0.015625)"/>
       <path id="DejaVuSans-67" d="M 2906 1791 
Q 2906 2416 2648 2759 
Q 2391 3103 1925 3103 
Q 1463 3103 1205 2759 
Q 947 2416 947 1791 
Q 947 1169 1205 825 
Q 1463 481 1925 481 
Q 2391 481 2648 825 
Q 2906 1169 2906 1791 
z
M 3481 434 
Q 3481 -459 3084 -895 
Q 2688 -1331 1869 -1331 
Q 1566 -1331 1297 -1286 
Q 1028 -1241 775 -1147 
L 775 -588 
Q 1028 -725 1275 -790 
Q 1522 -856 1778 -856 
Q 2344 -856 2625 -561 
Q 2906 -266 2906 331 
L 2906 616 
Q 2728 306 2450 153 
Q 2172 0 1784 0 
Q 1141 0 747 490 
Q 353 981 353 1791 
Q 353 2603 747 3093 
Q 1141 3584 1784 3584 
Q 2172 3584 2450 3431 
Q 2728 3278 2906 2969 
L 2906 3500 
L 3481 3500 
L 3481 434 
z
" transform="scale(0.015625)"/>
       <path id="DejaVuSans-79" d="M 2059 -325 
Q 1816 -950 1584 -1140 
Q 1353 -1331 966 -1331 
L 506 -1331 
L 506 -850 
L 844 -850 
Q 1081 -850 1212 -737 
Q 1344 -625 1503 -206 
L 1606 56 
L 191 3500 
L 800 3500 
L 1894 763 
L 2988 3500 
L 3597 3500 
L 2059 -325 
z
" transform="scale(0.015625)"/>
       <path id="DejaVuSans-20" transform="scale(0.015625)"/>
       <path id="DejaVuSans-5b" d="M 550 4863 
L 1875 4863 
L 1875 4416 
L 1125 4416 
L 1125 -397 
L 1875 -397 
L 1875 -844 
L 550 -844 
L 550 4863 
z
" transform="scale(0.015625)"/>
       <path id="DejaVuSans-54" d="M -19 4666 
L 3928 4666 
L 3928 4134 
L 2272 4134 
L 2272 0 
L 1638 0 
L 1638 4134 
L -19 4134 
L -19 4666 
z
" transform="scale(0.015625)"/>
       <path id="DejaVuSans-56" d="M 1831 0 
L 50 4666 
L 709 4666 
L 2188 738 
L 3669 4666 
L 4325 4666 
L 2547 0 
L 1831 0 
z
" transform="scale(0.015625)"/>
       <path id="DejaVuSans-5d" d="M 1947 4863 
L 1947 -844 
L 622 -844 
L 622 -397 
L 1369 -397 
L 1369 4416 
L 622 4416 
L 622 4863 
L 1947 4863 
z
" transform="scale(0.015625)"/>
      </defs>
      <use xlink:href="#DejaVuSans-45"/>
      <use xlink:href="#DejaVuSans-6e" x="63.183594"/>
      <use xlink:href="#DejaVuSans-65" x="126.5625"/>
      <use xlink:href="#DejaVuSans-72" x="188.085938"/>
      <use xlink:href="#DejaVuSans-67" x="227.449219"/>
      <use xlink:href="#DejaVuSans-79" x="290.925781"/>
      <use xlink:href="#DejaVuSans-20" x="350.105469"/>
      <use xlink:href="#DejaVuSans-5b" x="381.892578"/>
      <use xlink:href="#DejaVuSans-54" x="420.90625"/>
      <use xlink:href="#DejaVuSans-65" x="464.990234"/>
      <use xlink:href="#DejaVuSans-56" x="526.513672"/>
      <use xlink:href="#DejaVuSans-5d" x="594.921875"/>
     </g>
    </g>
   </g>
   <g id="matplotlib.axis_2">
    <g id="ytick_1">
     <g id="line2d_25">
      <defs>
       <path id="m0a3fea3b19" d="M 0 0 
L -3.5 0 
" style="stroke: #000000; stroke-width: 0.8"/>
      </defs>
      <g>
       <use xlink:href="#m0a3fea3b19" x="60.468889" y="211.7194" style="stroke: #000000; stroke-width: 0.8"/>
      </g>
     </g>
     <g id="text_4">
      <!-- $\mathdefault{10^{-15}}$ -->
      <g transform="translate(25.568889 215.518618) scale(0.1 -0.1)">
       <defs>
        <path id="DejaVuSans-2212" d="M 678 2272 
L 4684 2272 
L 4684 1741 
L 678 1741 
L 678 2272 
z
" transform="scale(0.015625)"/>
        <path id="DejaVuSans-35" d="M 691 4666 
L 3169 4666 
L 3169 4134 
L 1269 4134 
L 1269 2991 
Q 1406 3038 1543 3061 
Q 1681 3084 1819 3084 
Q 2600 3084 3056 2656 
Q 3513 2228 3513 1497 
Q 3513 744 3044 326 
Q 2575 -91 1722 -91 
Q 1428 -91 1123 -41 
Q 819 9 494 109 
L 494 744 
Q 775 591 1075 516 
Q 1375 441 1709 441 
Q 2250 441 2565 725 
Q 2881 1009 2881 1497 
Q 2881 1984 2565 2268 
Q 2250 2553 1709 2553 
Q 1456 2553 1204 2497 
Q 953 2441 691 2322 
L 691 4666 
z
" transform="scale(0.015625)"/>
       </defs>
       <use xlink:href="#DejaVuSans-31" transform="translate(0 0.684375)"/>
       <use xlink:href="#DejaVuSans-30" transform="translate(63.623047 0.684375)"/>
       <use xlink:href="#DejaVuSans-2212" transform="translate(128.203125 38.965625) scale(0.7)"/>
       <use xlink:href="#DejaVuSans-31" transform="translate(186.855469 38.965625) scale(0.7)"/>
       <use xlink:href="#DejaVuSans-35" transform="translate(231.391602 38.965625) scale(0.7)"/>
      </g>
     </g>
    </g>
    <g id="ytick_2">
     <g id="line2d_26">
      <g>
       <use xlink:href="#m0a3fea3b19" x="60.468889" y="156.014674" style="stroke: #000000; stroke-width: 0.8"/>
      </g>
     </g>
     <g id="text_5">
      <!-- $\mathdefault{10^{-14}}$ -->
      <g transform="translate(25.568889 159.813893) scale(0.1 -0.1)">
       <defs>
        <path id="DejaVuSans-34" d="M 2419 4116 
L 825 1625 
L 2419 1625 
L 2419 4116 
z
M 2253 4666 
L 3047 4666 
L 3047 1625 
L 3713 1625 
L 3713 1100 
L 3047 1100 
L 3047 0 
L 2419 0 
L 2419 1100 
L 313 1100 
L 313 1709 
L 2253 4666 
z
" transform="scale(0.015625)"/>
       </defs>
       <use xlink:href="#DejaVuSans-31" transform="translate(0 0.684375)"/>
       <use xlink:href="#DejaVuSans-30" transform="translate(63.623047 0.684375)"/>
       <use xlink:href="#DejaVuSans-2212" transform="translate(128.203125 38.965625) scale(0.7)"/>
       <use xlink:href="#DejaVuSans-31" transform="translate(186.855469 38.965625) scale(0.7)"/>
       <use xlink:href="#DejaVuSans-34" transform="translate(231.391602 38.965625) scale(0.7)"/>
      </g>
     </g>
    </g>
    <g id="ytick_3">
     <g id="line2d_27">
      <g>
       <use xlink:href="#m0a3fea3b19" x="60.468889" y="100.309949" style="stroke: #000000; stroke-width: 0.8"/>
      </g>
     </g>
     <g id="text_6">
      <!-- $\mathdefault{10^{-13}}$ -->
      <g transform="translate(25.568889 104.109168) scale(0.1 -0.1)">
       <defs>
        <path id="DejaVuSans-33" d="M 2597 2516 
Q 3050 2419 3304 2112 
Q 3559 1806 3559 1356 
Q 3559 666 3084 287 
Q 2609 -91 1734 -91 
Q 1441 -91 1130 -33 
Q 819 25 488 141 
L 488 750 
Q 750 597 1062 519 
Q 1375 441 1716 441 
Q 2309 441 2620 675 
Q 2931 909 2931 1356 
Q 2931 1769 2642 2001 
Q 2353 2234 1838 2234 
L 1294 2234 
L 1294 2753 
L 1863 2753 
Q 2328 2753 2575 2939 
Q 2822 3125 2822 3475 
Q 2822 3834 2567 4026 
Q 2313 4219 1838 4219 
Q 1578 4219 1281 4162 
Q 984 4106 628 3988 
L 628 4550 
Q 988 4650 1302 4700 
Q 1616 4750 1894 4750 
Q 2613 4750 3031 4423 
Q 3450 4097 3450 3541 
Q 3450 3153 3228 2886 
Q 3006 2619 2597 2516 
z
" transform="scale(0.015625)"/>
       </defs>
       <use xlink:href="#DejaVuSans-31" transform="translate(0 0.765625)"/>
       <use xlink:href="#DejaVuSans-30" transform="translate(63.623047 0.765625)"/>
       <use xlink:href="#DejaVuSans-2212" transform="translate(128.203125 39.046875) scale(0.7)"/>
       <use xlink:href="#DejaVuSans-31" transform="translate(186.855469 39.046875) scale(0.7)"/>
       <use xlink:href="#DejaVuSans-33" transform="translate(231.391602 39.046875) scale(0.7)"/>
      </g>
     </g>
    </g>
    <g id="ytick_4">
     <g id="line2d_28">
      <g>
       <use xlink:href="#m0a3fea3b19" x="60.468889" y="44.605224" style="stroke: #000000; stroke-width: 0.8"/>
      </g>
     </g>
     <g id="text_7">
      <!-- $\mathdefault{10^{-12}}$ -->
      <g transform="translate(25.568889 48.404443) scale(0.1 -0.1)">
       <defs>
        <path id="DejaVuSans-32" d="M 1228 531 
L 3431 531 
L 3431 0 
L 469 0 
L 469 531 
Q 828 903 1448 1529 
Q 2069 2156 2228 2338 
Q 2531 2678 2651 2914 
Q 2772 3150 2772 3378 
Q 2772 3750 2511 3984 
Q 2250 4219 1831 4219 
Q 1534 4219 1204 4116 
Q 875 4013 500 3803 
L 500 4441 
Q 881 4594 1212 4672 
Q 1544 4750 1819 4750 
Q 2544 4750 2975 4387 
Q 3406 4025 3406 3419 
Q 3406 3131 3298 2873 
Q 3191 2616 2906 2266 
Q 2828 2175 2409 1742 
Q 1991 1309 1228 531 
z
" transform="scale(0.015625)"/>
       </defs>
       <use xlink:href="#DejaVuSans-31" transform="translate(0 0.765625)"/>
       <use xlink:href="#DejaVuSans-30" transform="translate(63.623047 0.765625)"/>
       <use xlink:href="#DejaVuSans-2212" transform="translate(128.203125 39.046875) scale(0.7)"/>
       <use xlink:href="#DejaVuSans-31" transform="translate(186.855469 39.046875) scale(0.7)"/>
       <use xlink:href="#DejaVuSans-32" transform="translate(231.391602 39.046875) scale(0.7)"/>
      </g>
     </g>
    </g>
    <g id="ytick_5">
     <g id="line2d_29">
      <defs>
       <path id="m75c7ddf6bc" d="M 0 0 
L -2 0 
" style="stroke: #000000; stroke-width: 0.6"/>
      </defs>
      <g>
       <use xlink:href="#m75c7ddf6bc" x="60.468889" y="240.846216" style="stroke: #000000; stroke-width: 0.6"/>
      </g>
     </g>
    </g>
    <g id="ytick_6">
     <g id="line2d_30">
      <g>
       <use xlink:href="#m75c7ddf6bc" x="60.468889" y="233.886538" style="stroke: #000000; stroke-width: 0.6"/>
      </g>
     </g>
    </g>
    <g id="ytick_7">
     <g id="line2d_31">
      <g>
       <use xlink:href="#m75c7ddf6bc" x="60.468889" y="228.488193" style="stroke: #000000; stroke-width: 0.6"/>
      </g>
     </g>
    </g>
    <g id="ytick_8">
     <g id="line2d_32">
      <g>
       <use xlink:href="#m75c7ddf6bc" x="60.468889" y="224.077423" style="stroke: #000000; stroke-width: 0.6"/>
      </g>
     </g>
    </g>
    <g id="ytick_9">
     <g id="line2d_33">
      <g>
       <use xlink:href="#m75c7ddf6bc" x="60.468889" y="220.348171" style="stroke: #000000; stroke-width: 0.6"/>
      </g>
     </g>
    </g>
    <g id="ytick_10">
     <g id="line2d_34">
      <g>
       <use xlink:href="#m75c7ddf6bc" x="60.468889" y="217.117745" style="stroke: #000000; stroke-width: 0.6"/>
      </g>
     </g>
    </g>
    <g id="ytick_11">
     <g id="line2d_35">
      <g>
       <use xlink:href="#m75c7ddf6bc" x="60.468889" y="214.268308" style="stroke: #000000; stroke-width: 0.6"/>
      </g>
     </g>
    </g>
    <g id="ytick_12">
     <g id="line2d_36">
      <g>
       <use xlink:href="#m75c7ddf6bc" x="60.468889" y="194.950606" style="stroke: #000000; stroke-width: 0.6"/>
      </g>
     </g>
    </g>
    <g id="ytick_13">
     <g id="line2d_37">
      <g>
       <use xlink:href="#m75c7ddf6bc" x="60.468889" y="185.141491" style="stroke: #000000; stroke-width: 0.6"/>
      </g>
     </g>
    </g>
    <g id="ytick_14">
     <g id="line2d_38">
      <g>
       <use xlink:href="#m75c7ddf6bc" x="60.468889" y="178.181813" style="stroke: #000000; stroke-width: 0.6"/>
      </g>
     </g>
    </g>
    <g id="ytick_15">
     <g id="line2d_39">
      <g>
       <use xlink:href="#m75c7ddf6bc" x="60.468889" y="172.783468" style="stroke: #000000; stroke-width: 0.6"/>
      </g>
     </g>
    </g>
    <g id="ytick_16">
     <g id="line2d_40">
      <g>
       <use xlink:href="#m75c7ddf6bc" x="60.468889" y="168.372698" style="stroke: #000000; stroke-width: 0.6"/>
      </g>
     </g>
    </g>
    <g id="ytick_17">
     <g id="line2d_41">
      <g>
       <use xlink:href="#m75c7ddf6bc" x="60.468889" y="164.643446" style="stroke: #000000; stroke-width: 0.6"/>
      </g>
     </g>
    </g>
    <g id="ytick_18">
     <g id="line2d_42">
      <g>
       <use xlink:href="#m75c7ddf6bc" x="60.468889" y="161.41302" style="stroke: #000000; stroke-width: 0.6"/>
      </g>
     </g>
    </g>
    <g id="ytick_19">
     <g id="line2d_43">
      <g>
       <use xlink:href="#m75c7ddf6bc" x="60.468889" y="158.563583" style="stroke: #000000; stroke-width: 0.6"/>
      </g>
     </g>
    </g>
    <g id="ytick_20">
     <g id="line2d_44">
      <g>
       <use xlink:href="#m75c7ddf6bc" x="60.468889" y="139.245881" style="stroke: #000000; stroke-width: 0.6"/>
      </g>
     </g>
    </g>
    <g id="ytick_21">
     <g id="line2d_45">
      <g>
       <use xlink:href="#m75c7ddf6bc" x="60.468889" y="129.436766" style="stroke: #000000; stroke-width: 0.6"/>
      </g>
     </g>
    </g>
    <g id="ytick_22">
     <g id="line2d_46">
      <g>
       <use xlink:href="#m75c7ddf6bc" x="60.468889" y="122.477088" style="stroke: #000000; stroke-width: 0.6"/>
      </g>
     </g>
    </g>
    <g id="ytick_23">
     <g id="line2d_47">
      <g>
       <use xlink:href="#m75c7ddf6bc" x="60.468889" y="117.078743" style="stroke: #000000; stroke-width: 0.6"/>
      </g>
     </g>
    </g>
    <g id="ytick_24">
     <g id="line2d_48">
      <g>
       <use xlink:href="#m75c7ddf6bc" x="60.468889" y="112.667973" style="stroke: #000000; stroke-width: 0.6"/>
      </g>
     </g>
    </g>
    <g id="ytick_25">
     <g id="line2d_49">
      <g>
       <use xlink:href="#m75c7ddf6bc" x="60.468889" y="108.938721" style="stroke: #000000; stroke-width: 0.6"/>
      </g>
     </g>
    </g>
    <g id="ytick_26">
     <g id="line2d_50">
      <g>
       <use xlink:href="#m75c7ddf6bc" x="60.468889" y="105.708295" style="stroke: #000000; stroke-width: 0.6"/>
      </g>
     </g>
    </g>
    <g id="ytick_27">
     <g id="line2d_51">
      <g>
       <use xlink:href="#m75c7ddf6bc" x="60.468889" y="102.858858" style="stroke: #000000; stroke-width: 0.6"/>
      </g>
     </g>
    </g>
    <g id="ytick_28">
     <g id="line2d_52">
      <g>
       <use xlink:href="#m75c7ddf6bc" x="60.468889" y="83.541156" style="stroke: #000000; stroke-width: 0.6"/>
      </g>
     </g>
    </g>
    <g id="ytick_29">
     <g id="line2d_53">
      <g>
       <use xlink:href="#m75c7ddf6bc" x="60.468889" y="73.732041" style="stroke: #000000; stroke-width: 0.6"/>
      </g>
     </g>
    </g>
    <g id="ytick_30">
     <g id="line2d_54">
      <g>
       <use xlink:href="#m75c7ddf6bc" x="60.468889" y="66.772363" style="stroke: #000000; stroke-width: 0.6"/>
      </g>
     </g>
    </g>
    <g id="ytick_31">
     <g id="line2d_55">
      <g>
       <use xlink:href="#m75c7ddf6bc" x="60.468889" y="61.374018" style="stroke: #000000; stroke-width: 0.6"/>
      </g>
     </g>
    </g>
    <g id="ytick_32">
     <g id="line2d_56">
      <g>
       <use xlink:href="#m75c7ddf6bc" x="60.468889" y="56.963248" style="stroke: #000000; stroke-width: 0.6"/>
      </g>
     </g>
    </g>
    <g id="ytick_33">
     <g id="line2d_57">
      <g>
       <use xlink:href="#m75c7ddf6bc" x="60.468889" y="53.233995" style="stroke: #000000; stroke-width: 0.6"/>
      </g>
     </g>
    </g>
    <g id="ytick_34">
     <g id="line2d_58">
      <g>
       <use xlink:href="#m75c7ddf6bc" x="60.468889" y="50.00357" style="stroke: #000000; stroke-width: 0.6"/>
      </g>
     </g>
    </g>
    <g id="ytick_35">
     <g id="line2d_59">
      <g>
       <use xlink:href="#m75c7ddf6bc" x="60.468889" y="47.154133" style="stroke: #000000; stroke-width: 0.6"/>
      </g>
     </g>
    </g>
    <g id="ytick_36">
     <g id="line2d_60">
      <g>
       <use xlink:href="#m75c7ddf6bc" x="60.468889" y="27.836431" style="stroke: #000000; stroke-width: 0.6"/>
      </g>
     </g>
    </g>
    <g id="ytick_37">
     <g id="line2d_61">
      <g>
       <use xlink:href="#m75c7ddf6bc" x="60.468889" y="18.027316" style="stroke: #000000; stroke-width: 0.6"/>
      </g>
     </g>
    </g>
    <g id="ytick_38">
     <g id="line2d_62">
      <g>
       <use xlink:href="#m75c7ddf6bc" x="60.468889" y="11.067638" style="stroke: #000000; stroke-width: 0.6"/>
      </g>
     </g>
    </g>
    <g id="text_8">
     <!-- e2 * dnde [TeV / (cm2 s)] -->
     <g transform="translate(19.489202 189.243688) rotate(-90) scale(0.1 -0.1)">
      <defs>
       <path id="DejaVuSans-2a" d="M 3009 3897 
L 1888 3291 
L 3009 2681 
L 2828 2375 
L 1778 3009 
L 1778 1831 
L 1422 1831 
L 1422 3009 
L 372 2375 
L 191 2681 
L 1313 3291 
L 191 3897 
L 372 4206 
L 1422 3572 
L 1422 4750 
L 1778 4750 
L 1778 3572 
L 2828 4206 
L 3009 3897 
z
" transform="scale(0.015625)"/>
       <path id="DejaVuSans-64" d="M 2906 2969 
L 2906 4863 
L 3481 4863 
L 3481 0 
L 2906 0 
L 2906 525 
Q 2725 213 2448 61 
Q 2172 -91 1784 -91 
Q 1150 -91 751 415 
Q 353 922 353 1747 
Q 353 2572 751 3078 
Q 1150 3584 1784 3584 
Q 2172 3584 2448 3432 
Q 2725 3281 2906 2969 
z
M 947 1747 
Q 947 1113 1208 752 
Q 1469 391 1925 391 
Q 2381 391 2643 752 
Q 2906 1113 2906 1747 
Q 2906 2381 2643 2742 
Q 2381 3103 1925 3103 
Q 1469 3103 1208 2742 
Q 947 2381 947 1747 
z
" transform="scale(0.015625)"/>
       <path id="DejaVuSans-2f" d="M 1625 4666 
L 2156 4666 
L 531 -594 
L 0 -594 
L 1625 4666 
z
" transform="scale(0.015625)"/>
       <path id="DejaVuSans-28" d="M 1984 4856 
Q 1566 4138 1362 3434 
Q 1159 2731 1159 2009 
Q 1159 1288 1364 580 
Q 1569 -128 1984 -844 
L 1484 -844 
Q 1016 -109 783 600 
Q 550 1309 550 2009 
Q 550 2706 781 3412 
Q 1013 4119 1484 4856 
L 1984 4856 
z
" transform="scale(0.015625)"/>
       <path id="DejaVuSans-63" d="M 3122 3366 
L 3122 2828 
Q 2878 2963 2633 3030 
Q 2388 3097 2138 3097 
Q 1578 3097 1268 2742 
Q 959 2388 959 1747 
Q 959 1106 1268 751 
Q 1578 397 2138 397 
Q 2388 397 2633 464 
Q 2878 531 3122 666 
L 3122 134 
Q 2881 22 2623 -34 
Q 2366 -91 2075 -91 
Q 1284 -91 818 406 
Q 353 903 353 1747 
Q 353 2603 823 3093 
Q 1294 3584 2113 3584 
Q 2378 3584 2631 3529 
Q 2884 3475 3122 3366 
z
" transform="scale(0.015625)"/>
       <path id="DejaVuSans-6d" d="M 3328 2828 
Q 3544 3216 3844 3400 
Q 4144 3584 4550 3584 
Q 5097 3584 5394 3201 
Q 5691 2819 5691 2113 
L 5691 0 
L 5113 0 
L 5113 2094 
Q 5113 2597 4934 2840 
Q 4756 3084 4391 3084 
Q 3944 3084 3684 2787 
Q 3425 2491 3425 1978 
L 3425 0 
L 2847 0 
L 2847 2094 
Q 2847 2600 2669 2842 
Q 2491 3084 2119 3084 
Q 1678 3084 1418 2786 
Q 1159 2488 1159 1978 
L 1159 0 
L 581 0 
L 581 3500 
L 1159 3500 
L 1159 2956 
Q 1356 3278 1631 3431 
Q 1906 3584 2284 3584 
Q 2666 3584 2933 3390 
Q 3200 3197 3328 2828 
z
" transform="scale(0.015625)"/>
       <path id="DejaVuSans-73" d="M 2834 3397 
L 2834 2853 
Q 2591 2978 2328 3040 
Q 2066 3103 1784 3103 
Q 1356 3103 1142 2972 
Q 928 2841 928 2578 
Q 928 2378 1081 2264 
Q 1234 2150 1697 2047 
L 1894 2003 
Q 2506 1872 2764 1633 
Q 3022 1394 3022 966 
Q 3022 478 2636 193 
Q 2250 -91 1575 -91 
Q 1294 -91 989 -36 
Q 684 19 347 128 
L 347 722 
Q 666 556 975 473 
Q 1284 391 1588 391 
Q 1994 391 2212 530 
Q 2431 669 2431 922 
Q 2431 1156 2273 1281 
Q 2116 1406 1581 1522 
L 1381 1569 
Q 847 1681 609 1914 
Q 372 2147 372 2553 
Q 372 3047 722 3315 
Q 1072 3584 1716 3584 
Q 2034 3584 2315 3537 
Q 2597 3491 2834 3397 
z
" transform="scale(0.015625)"/>
       <path id="DejaVuSans-29" d="M 513 4856 
L 1013 4856 
Q 1481 4119 1714 3412 
Q 1947 2706 1947 2009 
Q 1947 1309 1714 600 
Q 1481 -109 1013 -844 
L 513 -844 
Q 928 -128 1133 580 
Q 1338 1288 1338 2009 
Q 1338 2731 1133 3434 
Q 928 4138 513 4856 
z
" transform="scale(0.015625)"/>
      </defs>
      <use xlink:href="#DejaVuSans-65"/>
      <use xlink:href="#DejaVuSans-32" x="61.523438"/>
      <use xlink:href="#DejaVuSans-20" x="125.146484"/>
      <use xlink:href="#DejaVuSans-2a" x="156.933594"/>
      <use xlink:href="#DejaVuSans-20" x="206.933594"/>
      <use xlink:href="#DejaVuSans-64" x="238.720703"/>
      <use xlink:href="#DejaVuSans-6e" x="302.197266"/>
      <use xlink:href="#DejaVuSans-64" x="365.576172"/>
      <use xlink:href="#DejaVuSans-65" x="429.052734"/>
      <use xlink:href="#DejaVuSans-20" x="490.576172"/>
      <use xlink:href="#DejaVuSans-5b" x="522.363281"/>
      <use xlink:href="#DejaVuSans-54" x="561.376953"/>
      <use xlink:href="#DejaVuSans-65" x="605.460938"/>
      <use xlink:href="#DejaVuSans-56" x="666.984375"/>
      <use xlink:href="#DejaVuSans-20" x="735.392578"/>
      <use xlink:href="#DejaVuSans-2f" x="767.179688"/>
      <use xlink:href="#DejaVuSans-20" x="800.871094"/>
      <use xlink:href="#DejaVuSans-28" x="832.658203"/>
      <use xlink:href="#DejaVuSans-63" x="871.671875"/>
      <use xlink:href="#DejaVuSans-6d" x="926.652344"/>
      <use xlink:href="#DejaVuSans-32" x="1024.064453"/>
      <use xlink:href="#DejaVuSans-20" x="1087.6875"/>
      <use xlink:href="#DejaVuSans-73" x="1119.474609"/>
      <use xlink:href="#DejaVuSans-29" x="1171.574219"/>
      <use xlink:href="#DejaVuSans-5d" x="1210.587891"/>
     </g>
    </g>
   </g>
   <g id="line2d_63">
    <path d="M 78.474116 40.767727 
L 81.690831 41.183385 
L 84.907547 41.602078 
L 88.124263 42.02396 
L 91.340978 42.44919 
L 94.557694 42.877936 
L 97.77441 43.310374 
L 100.991125 43.74669 
L 104.207841 44.187077 
L 107.424556 44.63174 
L 110.641272 45.080894 
L 113.857988 45.534763 
L 117.074703 45.993584 
L 120.291419 46.457606 
L 123.508134 46.927089 
L 126.72485 47.402307 
L 129.941566 47.883548 
L 133.158281 48.371113 
L 136.374997 48.86532 
L 139.591713 49.366502 
L 142.808428 49.875009 
L 146.025144 50.391207 
L 149.241859 50.915483 
L 152.458575 51.448243 
L 155.675291 51.98991 
L 158.892006 52.540932 
L 162.108722 53.101778 
L 165.325437 53.672941 
L 168.542153 54.254937 
L 171.758869 54.848311 
L 174.975584 55.453633 
L 178.1923 56.071501 
L 181.409016 56.702546 
L 184.625731 57.347427 
L 187.842447 58.00684 
L 191.059162 58.681511 
L 194.275878 59.372208 
L 197.492594 60.079732 
L 200.709309 60.804929 
L 203.926025 61.548683 
L 207.142741 62.311927 
L 210.359456 63.095637 
L 213.576172 63.900839 
L 216.792887 64.728612 
L 220.009603 65.580087 
L 223.226319 66.456452 
L 226.443034 67.358956 
L 229.65975 68.288911 
L 232.876465 69.247691 
L 236.093181 70.236743 
L 239.309897 71.257584 
L 242.526612 72.31181 
L 245.743328 73.401094 
L 248.960044 74.527194 
L 252.176759 75.691956 
L 255.393475 76.897319 
L 258.61019 78.145319 
L 261.826906 79.438094 
L 265.043622 80.77789 
L 268.260337 82.167064 
L 271.477053 83.608093 
L 274.693768 85.103576 
L 277.910484 86.656246 
L 281.1272 88.268968 
L 284.343915 89.944756 
L 287.560631 91.686771 
L 290.777347 93.498334 
L 293.994062 95.382933 
L 297.210778 97.344231 
L 300.427493 99.386074 
L 303.644209 101.512501 
L 306.860925 103.727752 
L 310.07764 106.036284 
L 313.294356 108.442773 
L 316.511071 110.952132 
L 319.727787 113.569519 
L 322.944503 116.300351 
L 326.161218 119.150318 
L 329.377934 122.125393 
L 332.59465 125.231851 
L 335.811365 128.476279 
L 339.028081 131.865598 
L 342.244796 135.407071 
L 345.461512 139.10833 
L 348.678228 142.977388 
L 351.894943 147.022657 
L 355.111659 151.252977 
L 358.328375 155.677625 
L 361.54509 160.306346 
L 364.761806 165.149376 
L 367.978521 170.217459 
L 371.195237 175.521882 
L 374.411953 181.074498 
L 377.628668 186.887751 
L 380.845384 192.974711 
L 384.062099 199.349105 
L 387.278815 206.025347 
L 390.495531 213.018572 
L 393.712246 220.344677 
L 396.928962 228.020354 
" clip-path="url(#pb2d19f7205)" style="fill: none; stroke-dasharray: 1.5,2.475; stroke-dashoffset: 0; stroke: #000000; stroke-width: 1.5"/>
   </g>
   <g id="LineCollection_1">
    <path clip-path="url(#pb2d19f7205)" style="fill: none; stroke: #8b0000; stroke-width: 1.5"/>
    <path clip-path="url(#pb2d19f7205)" style="fill: none; stroke: #8b0000; stroke-width: 1.5"/>
    <path clip-path="url(#pb2d19f7205)" style="fill: none; stroke: #8b0000; stroke-width: 1.5"/>
    <path clip-path="url(#pb2d19f7205)" style="fill: none; stroke: #8b0000; stroke-width: 1.5"/>
    <path clip-path="url(#pb2d19f7205)" style="fill: none; stroke: #8b0000; stroke-width: 1.5"/>
    <path d="M 83.13157 289 
L 83.13157 22.484735 
" clip-path="url(#pb2d19f7205)" style="fill: none; stroke: #8b0000; stroke-width: 1.5"/>
    <path d="M 102.053426 56.837178 
L 102.053426 34.312426 
" clip-path="url(#pb2d19f7205)" style="fill: none; stroke: #8b0000; stroke-width: 1.5"/>
    <path d="M 120.975283 51.851751 
L 120.975283 40.727414 
" clip-path="url(#pb2d19f7205)" style="fill: none; stroke: #8b0000; stroke-width: 1.5"/>
    <path d="M 139.897139 53.815168 
L 139.897139 44.050308 
" clip-path="url(#pb2d19f7205)" style="fill: none; stroke: #8b0000; stroke-width: 1.5"/>
    <path d="M 158.818996 57.046144 
L 158.818996 46.931543 
" clip-path="url(#pb2d19f7205)" style="fill: none; stroke: #8b0000; stroke-width: 1.5"/>
    <path d="M 177.740852 60.856077 
L 177.740852 49.953024 
" clip-path="url(#pb2d19f7205)" style="fill: none; stroke: #8b0000; stroke-width: 1.5"/>
    <path d="M 196.662709 65.449508 
L 196.662709 53.173928 
" clip-path="url(#pb2d19f7205)" style="fill: none; stroke: #8b0000; stroke-width: 1.5"/>
    <path d="M 215.584566 71.102916 
L 215.584566 56.691794 
" clip-path="url(#pb2d19f7205)" style="fill: none; stroke: #8b0000; stroke-width: 1.5"/>
    <path d="M 234.506422 77.977059 
L 234.506422 60.770418 
" clip-path="url(#pb2d19f7205)" style="fill: none; stroke: #8b0000; stroke-width: 1.5"/>
    <path d="M 253.428279 87.239856 
L 253.428279 65.341614 
" clip-path="url(#pb2d19f7205)" style="fill: none; stroke: #8b0000; stroke-width: 1.5"/>
    <path d="M 272.350135 100.910659 
L 272.350135 70.512734 
" clip-path="url(#pb2d19f7205)" style="fill: none; stroke: #8b0000; stroke-width: 1.5"/>
    <path d="M 291.271992 125.610863 
L 291.271992 76.516201 
" clip-path="url(#pb2d19f7205)" style="fill: none; stroke: #8b0000; stroke-width: 1.5"/>
    <path d="M 310.193848 289 
L 310.193848 83.239263 
" clip-path="url(#pb2d19f7205)" style="fill: none; stroke: #8b0000; stroke-width: 1.5"/>
    <path d="M 329.115705 289 
L 329.115705 90.626892 
" clip-path="url(#pb2d19f7205)" style="fill: none; stroke: #8b0000; stroke-width: 1.5"/>
    <path d="M 348.037562 289 
L 348.037562 99.042721 
" clip-path="url(#pb2d19f7205)" style="fill: none; stroke: #8b0000; stroke-width: 1.5"/>
    <path d="M 366.959418 289 
L 366.959418 108.128687 
" clip-path="url(#pb2d19f7205)" style="fill: none; stroke: #8b0000; stroke-width: 1.5"/>
    <path d="M 385.881275 289 
L 385.881275 118.531331 
" clip-path="url(#pb2d19f7205)" style="fill: none; stroke: #8b0000; stroke-width: 1.5"/>
    <path d="M 404.803131 289 
L 404.803131 131.444043 
" clip-path="url(#pb2d19f7205)" style="fill: none; stroke: #8b0000; stroke-width: 1.5"/>
    <path clip-path="url(#pb2d19f7205)" style="fill: none; stroke: #8b0000; stroke-width: 1.5"/>
   </g>
   <g id="LineCollection_2">
    <path clip-path="url(#pb2d19f7205)" style="fill: none; stroke: #006400; stroke-width: 1.5"/>
    <path clip-path="url(#pb2d19f7205)" style="fill: none; stroke: #006400; stroke-width: 1.5"/>
    <path clip-path="url(#pb2d19f7205)" style="fill: none; stroke: #006400; stroke-width: 1.5"/>
    <path clip-path="url(#pb2d19f7205)" style="fill: none; stroke: #006400; stroke-width: 1.5"/>
    <path clip-path="url(#pb2d19f7205)" style="fill: none; stroke: #006400; stroke-width: 1.5"/>
    <path d="M 76.865758 289 
L 76.865758 21.342182 
" clip-path="url(#pb2d19f7205)" style="fill: none; stroke: #006400; stroke-width: 1.5"/>
    <path d="M 95.787615 56.502699 
L 95.787615 33.447463 
" clip-path="url(#pb2d19f7205)" style="fill: none; stroke: #006400; stroke-width: 1.5"/>
    <path d="M 114.709471 52.406482 
L 114.709471 40.408078 
" clip-path="url(#pb2d19f7205)" style="fill: none; stroke: #006400; stroke-width: 1.5"/>
    <path d="M 133.631328 54.388804 
L 133.631328 43.648069 
" clip-path="url(#pb2d19f7205)" style="fill: none; stroke: #006400; stroke-width: 1.5"/>
    <path d="M 152.553184 57.634423 
L 152.553184 46.578574 
" clip-path="url(#pb2d19f7205)" style="fill: none; stroke: #006400; stroke-width: 1.5"/>
    <path d="M 171.475041 61.427643 
L 171.475041 49.643654 
" clip-path="url(#pb2d19f7205)" style="fill: none; stroke: #006400; stroke-width: 1.5"/>
    <path d="M 190.396897 65.987598 
L 190.396897 52.910755 
" clip-path="url(#pb2d19f7205)" style="fill: none; stroke: #006400; stroke-width: 1.5"/>
    <path d="M 209.318754 71.60331 
L 209.318754 56.474944 
" clip-path="url(#pb2d19f7205)" style="fill: none; stroke: #006400; stroke-width: 1.5"/>
    <path d="M 228.240611 78.435867 
L 228.240611 60.596329 
" clip-path="url(#pb2d19f7205)" style="fill: none; stroke: #006400; stroke-width: 1.5"/>
    <path d="M 247.162467 87.664494 
L 247.162467 65.203376 
" clip-path="url(#pb2d19f7205)" style="fill: none; stroke: #006400; stroke-width: 1.5"/>
    <path d="M 266.084324 101.368763 
L 266.084324 70.432472 
" clip-path="url(#pb2d19f7205)" style="fill: none; stroke: #006400; stroke-width: 1.5"/>
    <path d="M 285.00618 126.261665 
L 285.00618 76.470237 
" clip-path="url(#pb2d19f7205)" style="fill: none; stroke: #006400; stroke-width: 1.5"/>
    <path d="M 303.928037 289 
L 303.928037 83.225457 
" clip-path="url(#pb2d19f7205)" style="fill: none; stroke: #006400; stroke-width: 1.5"/>
    <path d="M 322.849893 289 
L 322.849893 90.649805 
" clip-path="url(#pb2d19f7205)" style="fill: none; stroke: #006400; stroke-width: 1.5"/>
    <path d="M 341.77175 289 
L 341.77175 99.118908 
" clip-path="url(#pb2d19f7205)" style="fill: none; stroke: #006400; stroke-width: 1.5"/>
    <path d="M 360.693607 289 
L 360.693607 108.18956 
" clip-path="url(#pb2d19f7205)" style="fill: none; stroke: #006400; stroke-width: 1.5"/>
    <path d="M 379.615463 289 
L 379.615463 118.62353 
" clip-path="url(#pb2d19f7205)" style="fill: none; stroke: #006400; stroke-width: 1.5"/>
    <path d="M 398.53732 289 
L 398.53732 131.670907 
" clip-path="url(#pb2d19f7205)" style="fill: none; stroke: #006400; stroke-width: 1.5"/>
    <path clip-path="url(#pb2d19f7205)" style="fill: none; stroke: #006400; stroke-width: 1.5"/>
   </g>
   <g id="line2d_64">
    <defs>
     <path id="mc26b89e290" d="M 0 3 
C 0.795609 3 1.55874 2.683901 2.12132 2.12132 
C 2.683901 1.55874 3 0.795609 3 0 
C 3 -0.795609 2.683901 -1.55874 2.12132 -2.12132 
C 1.55874 -2.683901 0.795609 -3 0 -3 
C -0.795609 -3 -1.55874 -2.683901 -2.12132 -2.12132 
C -2.683901 -1.55874 -3 -0.795609 -3 0 
C -3 0.795609 -2.683901 1.55874 -2.12132 2.12132 
C -1.55874 2.683901 -0.795609 3 0 3 
z
" style="stroke: #8b0000"/>
    </defs>
    <g clip-path="url(#pb2d19f7205)">
     <use xlink:href="#mc26b89e290" x="83.13157" y="40.560991" style="fill: #8b0000; stroke: #8b0000"/>
     <use xlink:href="#mc26b89e290" x="102.053426" y="43.042834" style="fill: #8b0000; stroke: #8b0000"/>
     <use xlink:href="#mc26b89e290" x="120.975283" y="45.655724" style="fill: #8b0000; stroke: #8b0000"/>
     <use xlink:href="#mc26b89e290" x="139.897139" y="48.443366" style="fill: #8b0000; stroke: #8b0000"/>
     <use xlink:href="#mc26b89e290" x="158.818996" y="51.464045" style="fill: #8b0000; stroke: #8b0000"/>
     <use xlink:href="#mc26b89e290" x="177.740852" y="54.795451" style="fill: #8b0000; stroke: #8b0000"/>
     <use xlink:href="#mc26b89e290" x="196.662709" y="58.541324" style="fill: #8b0000; stroke: #8b0000"/>
     <use xlink:href="#mc26b89e290" x="215.584566" y="62.839782" style="fill: #8b0000; stroke: #8b0000"/>
     <use xlink:href="#mc26b89e290" x="234.506422" y="67.875166" style="fill: #8b0000; stroke: #8b0000"/>
     <use xlink:href="#mc26b89e290" x="253.428279" y="73.893252" style="fill: #8b0000; stroke: #8b0000"/>
     <use xlink:href="#mc26b89e290" x="272.350135" y="81.221805" style="fill: #8b0000; stroke: #8b0000"/>
     <use xlink:href="#mc26b89e290" x="291.271992" y="90.297885" style="fill: #8b0000; stroke: #8b0000"/>
     <use xlink:href="#mc26b89e290" x="310.193848" y="101.704327" style="fill: #8b0000; stroke: #8b0000"/>
     <use xlink:href="#mc26b89e290" x="329.115705" y="116.21836" style="fill: #8b0000; stroke: #8b0000"/>
     <use xlink:href="#mc26b89e290" x="348.037562" y="134.876432" style="fill: #8b0000; stroke: #8b0000"/>
     <use xlink:href="#mc26b89e290" x="366.959418" y="159.060669" style="fill: #8b0000; stroke: #8b0000"/>
     <use xlink:href="#mc26b89e290" x="385.881275" y="190.614165" style="fill: #8b0000; stroke: #8b0000"/>
     <use xlink:href="#mc26b89e290" x="404.803131" y="231.994727" style="fill: #8b0000; stroke: #8b0000"/>
    </g>
   </g>
   <g id="line2d_65">
    <defs>
     <path id="m4858df0cc9" d="M 0 3 
C 0.795609 3 1.55874 2.683901 2.12132 2.12132 
C 2.683901 1.55874 3 0.795609 3 0 
C 3 -0.795609 2.683901 -1.55874 2.12132 -2.12132 
C 1.55874 -2.683901 0.795609 -3 0 -3 
C -0.795609 -3 -1.55874 -2.683901 -2.12132 -2.12132 
C -2.683901 -1.55874 -3 -0.795609 -3 0 
C -3 0.795609 -2.683901 1.55874 -2.12132 2.12132 
C -1.55874 2.683901 -0.795609 3 0 3 
z
" style="stroke: #006400"/>
    </defs>
    <g clip-path="url(#pb2d19f7205)">
     <use xlink:href="#m4858df0cc9" x="76.865758" y="39.468991" style="fill: #006400; stroke: #006400"/>
     <use xlink:href="#m4858df0cc9" x="95.787615" y="42.326667" style="fill: #006400; stroke: #006400"/>
     <use xlink:href="#m4858df0cc9" x="114.709471" y="45.670939" style="fill: #006400; stroke: #006400"/>
     <use xlink:href="#m4858df0cc9" x="133.631328" y="48.427193" style="fill: #006400; stroke: #006400"/>
     <use xlink:href="#m4858df0cc9" x="152.553184" y="51.480355" style="fill: #006400; stroke: #006400"/>
     <use xlink:href="#m4858df0cc9" x="171.475041" y="54.825137" style="fill: #006400; stroke: #006400"/>
     <use xlink:href="#m4858df0cc9" x="190.396897" y="58.576161" style="fill: #006400; stroke: #006400"/>
     <use xlink:href="#m4858df0cc9" x="209.318754" y="62.875362" style="fill: #006400; stroke: #006400"/>
     <use xlink:href="#m4858df0cc9" x="228.240611" y="67.907682" style="fill: #006400; stroke: #006400"/>
     <use xlink:href="#m4858df0cc9" x="247.162467" y="73.915777" style="fill: #006400; stroke: #006400"/>
     <use xlink:href="#m4858df0cc9" x="266.084324" y="81.259802" style="fill: #006400; stroke: #006400"/>
     <use xlink:href="#m4858df0cc9" x="285.00618" y="90.331832" style="fill: #006400; stroke: #006400"/>
     <use xlink:href="#m4858df0cc9" x="303.928037" y="101.739008" style="fill: #006400; stroke: #006400"/>
     <use xlink:href="#m4858df0cc9" x="322.849893" y="116.26811" style="fill: #006400; stroke: #006400"/>
     <use xlink:href="#m4858df0cc9" x="341.77175" y="134.95692" style="fill: #006400; stroke: #006400"/>
     <use xlink:href="#m4858df0cc9" x="360.693607" y="159.08553" style="fill: #006400; stroke: #006400"/>
     <use xlink:href="#m4858df0cc9" x="379.615463" y="190.663976" style="fill: #006400; stroke: #006400"/>
     <use xlink:href="#m4858df0cc9" x="398.53732" y="232.185818" style="fill: #006400; stroke: #006400"/>
    </g>
   </g>
   <g id="patch_3">
    <path d="M 60.468889 242.728 
L 60.468889 10.8 
" style="fill: none; stroke: #000000; stroke-width: 0.8; stroke-linejoin: miter; stroke-linecap: square"/>
   </g>
   <g id="patch_4">
    <path d="M 421.2 242.728 
L 421.2 10.8 
" style="fill: none; stroke: #000000; stroke-width: 0.8; stroke-linejoin: miter; stroke-linecap: square"/>
   </g>
   <g id="patch_5">
    <path d="M 60.468889 242.728 
L 421.2 242.728 
" style="fill: none; stroke: #000000; stroke-width: 0.8; stroke-linejoin: miter; stroke-linecap: square"/>
   </g>
   <g id="patch_6">
    <path d="M 60.468889 10.8 
L 421.2 10.8 
" style="fill: none; stroke: #000000; stroke-width: 0.8; stroke-linejoin: miter; stroke-linecap: square"/>
   </g>
   <g id="legend_1">
    <g id="patch_7">
     <path d="M 320.3 62.834375 
L 414.2 62.834375 
Q 416.2 62.834375 416.2 60.834375 
L 416.2 17.8 
Q 416.2 15.8 414.2 15.8 
L 320.3 15.8 
Q 318.3 15.8 318.3 17.8 
L 318.3 60.834375 
Q 318.3 62.834375 320.3 62.834375 
z
" style="fill: #ffffff; opacity: 0.8; stroke: #cccccc; stroke-linejoin: miter"/>
    </g>
    <g id="patch_8">
     <path d="M 322.3 27.398438 
L 342.3 27.398438 
L 342.3 20.398438 
L 322.3 20.398438 
z
" style="fill: #008000; fill-opacity: 0.5"/>
    </g>
    <g id="text_9">
     <!-- $1\sigma$ Nuisance -->
     <g transform="translate(350.3 27.398438) scale(0.1 -0.1)">
      <defs>
       <path id="DejaVuSans-Oblique-3c3" d="M 2219 3044 
Q 1744 3044 1422 2700 
Q 1081 2341 969 1747 
Q 844 1119 1044 756 
Q 1241 397 1706 397 
Q 2166 397 2503 759 
Q 2844 1122 2966 1747 
Q 3075 2319 2881 2700 
Q 2700 3044 2219 3044 
z
M 2309 3503 
L 4219 3500 
L 4106 2925 
L 3463 2925 
Q 3706 2438 3575 1747 
Q 3406 888 2884 400 
Q 2359 -91 1609 -91 
Q 856 -91 525 400 
Q 194 888 363 1747 
Q 528 2609 1050 3097 
Q 1484 3503 2309 3503 
z
" transform="scale(0.015625)"/>
       <path id="DejaVuSans-4e" d="M 628 4666 
L 1478 4666 
L 3547 763 
L 3547 4666 
L 4159 4666 
L 4159 0 
L 3309 0 
L 1241 3903 
L 1241 0 
L 628 0 
L 628 4666 
z
" transform="scale(0.015625)"/>
       <path id="DejaVuSans-75" d="M 544 1381 
L 544 3500 
L 1119 3500 
L 1119 1403 
Q 1119 906 1312 657 
Q 1506 409 1894 409 
Q 2359 409 2629 706 
Q 2900 1003 2900 1516 
L 2900 3500 
L 3475 3500 
L 3475 0 
L 2900 0 
L 2900 538 
Q 2691 219 2414 64 
Q 2138 -91 1772 -91 
Q 1169 -91 856 284 
Q 544 659 544 1381 
z
M 1991 3584 
L 1991 3584 
z
" transform="scale(0.015625)"/>
       <path id="DejaVuSans-69" d="M 603 3500 
L 1178 3500 
L 1178 0 
L 603 0 
L 603 3500 
z
M 603 4863 
L 1178 4863 
L 1178 4134 
L 603 4134 
L 603 4863 
z
" transform="scale(0.015625)"/>
       <path id="DejaVuSans-61" d="M 2194 1759 
Q 1497 1759 1228 1600 
Q 959 1441 959 1056 
Q 959 750 1161 570 
Q 1363 391 1709 391 
Q 2188 391 2477 730 
Q 2766 1069 2766 1631 
L 2766 1759 
L 2194 1759 
z
M 3341 1997 
L 3341 0 
L 2766 0 
L 2766 531 
Q 2569 213 2275 61 
Q 1981 -91 1556 -91 
Q 1019 -91 701 211 
Q 384 513 384 1019 
Q 384 1609 779 1909 
Q 1175 2209 1959 2209 
L 2766 2209 
L 2766 2266 
Q 2766 2663 2505 2880 
Q 2244 3097 1772 3097 
Q 1472 3097 1187 3025 
Q 903 2953 641 2809 
L 641 3341 
Q 956 3463 1253 3523 
Q 1550 3584 1831 3584 
Q 2591 3584 2966 3190 
Q 3341 2797 3341 1997 
z
" transform="scale(0.015625)"/>
      </defs>
      <use xlink:href="#DejaVuSans-31" transform="translate(0 0.015625)"/>
      <use xlink:href="#DejaVuSans-Oblique-3c3" transform="translate(63.623047 0.015625)"/>
      <use xlink:href="#DejaVuSans-20" transform="translate(127.001953 0.015625)"/>
      <use xlink:href="#DejaVuSans-4e" transform="translate(158.789062 0.015625)"/>
      <use xlink:href="#DejaVuSans-75" transform="translate(233.59375 0.015625)"/>
      <use xlink:href="#DejaVuSans-69" transform="translate(296.972656 0.015625)"/>
      <use xlink:href="#DejaVuSans-73" transform="translate(324.755859 0.015625)"/>
      <use xlink:href="#DejaVuSans-61" transform="translate(376.855469 0.015625)"/>
      <use xlink:href="#DejaVuSans-6e" transform="translate(438.134766 0.015625)"/>
      <use xlink:href="#DejaVuSans-63" transform="translate(501.513672 0.015625)"/>
      <use xlink:href="#DejaVuSans-65" transform="translate(556.494141 0.015625)"/>
     </g>
    </g>
    <g id="patch_9">
     <path d="M 322.3 42.076562 
L 342.3 42.076562 
L 342.3 35.076562 
L 322.3 35.076562 
z
" style="fill: #ff0000; fill-opacity: 0.6"/>
    </g>
    <g id="text_10">
     <!-- $1\sigma$ Standard -->
     <g transform="translate(350.3 42.076562) scale(0.1 -0.1)">
      <defs>
       <path id="DejaVuSans-53" d="M 3425 4513 
L 3425 3897 
Q 3066 4069 2747 4153 
Q 2428 4238 2131 4238 
Q 1616 4238 1336 4038 
Q 1056 3838 1056 3469 
Q 1056 3159 1242 3001 
Q 1428 2844 1947 2747 
L 2328 2669 
Q 3034 2534 3370 2195 
Q 3706 1856 3706 1288 
Q 3706 609 3251 259 
Q 2797 -91 1919 -91 
Q 1588 -91 1214 -16 
Q 841 59 441 206 
L 441 856 
Q 825 641 1194 531 
Q 1563 422 1919 422 
Q 2459 422 2753 634 
Q 3047 847 3047 1241 
Q 3047 1584 2836 1778 
Q 2625 1972 2144 2069 
L 1759 2144 
Q 1053 2284 737 2584 
Q 422 2884 422 3419 
Q 422 4038 858 4394 
Q 1294 4750 2059 4750 
Q 2388 4750 2728 4690 
Q 3069 4631 3425 4513 
z
" transform="scale(0.015625)"/>
       <path id="DejaVuSans-74" d="M 1172 4494 
L 1172 3500 
L 2356 3500 
L 2356 3053 
L 1172 3053 
L 1172 1153 
Q 1172 725 1289 603 
Q 1406 481 1766 481 
L 2356 481 
L 2356 0 
L 1766 0 
Q 1100 0 847 248 
Q 594 497 594 1153 
L 594 3053 
L 172 3053 
L 172 3500 
L 594 3500 
L 594 4494 
L 1172 4494 
z
" transform="scale(0.015625)"/>
      </defs>
      <use xlink:href="#DejaVuSans-31" transform="translate(0 0.015625)"/>
      <use xlink:href="#DejaVuSans-Oblique-3c3" transform="translate(63.623047 0.015625)"/>
      <use xlink:href="#DejaVuSans-20" transform="translate(127.001953 0.015625)"/>
      <use xlink:href="#DejaVuSans-53" transform="translate(158.789062 0.015625)"/>
      <use xlink:href="#DejaVuSans-74" transform="translate(222.265625 0.015625)"/>
      <use xlink:href="#DejaVuSans-61" transform="translate(261.474609 0.015625)"/>
      <use xlink:href="#DejaVuSans-6e" transform="translate(322.753906 0.015625)"/>
      <use xlink:href="#DejaVuSans-64" transform="translate(386.132812 0.015625)"/>
      <use xlink:href="#DejaVuSans-61" transform="translate(449.609375 0.015625)"/>
      <use xlink:href="#DejaVuSans-72" transform="translate(510.888672 0.015625)"/>
      <use xlink:href="#DejaVuSans-64" transform="translate(552.001953 0.015625)"/>
     </g>
    </g>
    <g id="line2d_66">
     <path d="M 322.3 53.254687 
L 332.3 53.254687 
L 342.3 53.254687 
" style="fill: none; stroke-dasharray: 1.5,2.475; stroke-dashoffset: 0; stroke: #000000; stroke-width: 1.5"/>
    </g>
    <g id="text_11">
     <!-- Input -->
     <g transform="translate(350.3 56.754687) scale(0.1 -0.1)">
      <defs>
       <path id="DejaVuSans-49" d="M 628 4666 
L 1259 4666 
L 1259 0 
L 628 0 
L 628 4666 
z
" transform="scale(0.015625)"/>
       <path id="DejaVuSans-70" d="M 1159 525 
L 1159 -1331 
L 581 -1331 
L 581 3500 
L 1159 3500 
L 1159 2969 
Q 1341 3281 1617 3432 
Q 1894 3584 2278 3584 
Q 2916 3584 3314 3078 
Q 3713 2572 3713 1747 
Q 3713 922 3314 415 
Q 2916 -91 2278 -91 
Q 1894 -91 1617 61 
Q 1341 213 1159 525 
z
M 3116 1747 
Q 3116 2381 2855 2742 
Q 2594 3103 2138 3103 
Q 1681 3103 1420 2742 
Q 1159 2381 1159 1747 
Q 1159 1113 1420 752 
Q 1681 391 2138 391 
Q 2594 391 2855 752 
Q 3116 1113 3116 1747 
z
" transform="scale(0.015625)"/>
      </defs>
      <use xlink:href="#DejaVuSans-49"/>
      <use xlink:href="#DejaVuSans-6e" x="29.492188"/>
      <use xlink:href="#DejaVuSans-70" x="92.871094"/>
      <use xlink:href="#DejaVuSans-75" x="156.347656"/>
      <use xlink:href="#DejaVuSans-74" x="219.726562"/>
     </g>
    </g>
   </g>
  </g>
 </g>
 <defs>
  <clipPath id="pb2d19f7205">
   <rect x="60.468889" y="10.8" width="360.731111" height="231.928"/>
  </clipPath>
 </defs>
</svg>
