<?xml version="1.0" encoding="utf-8" standalone="no"?>
<!DOCTYPE svg PUBLIC "-//W3C//DTD SVG 1.1//EN"
  "http://www.w3.org/Graphics/SVG/1.1/DTD/svg11.dtd">
<svg xmlns:xlink="http://www.w3.org/1999/xlink" width="360pt" height="360pt" viewBox="0 0 360 360" xmlns="http://www.w3.org/2000/svg" version="1.1">
 <metadata>
  <rdf:RDF xmlns:dc="http://purl.org/dc/elements/1.1/" xmlns:cc="http://creativecommons.org/ns#" xmlns:rdf="http://www.w3.org/1999/02/22-rdf-syntax-ns#">
   <cc:Work>
    <dc:type rdf:resource="http://purl.org/dc/dcmitype/StillImage"/>
    <dc:date>2023-03-22T14:53:31.343955</dc:date>
    <dc:format>image/svg+xml</dc:format>
    <dc:creator>
     <cc:Agent>
      <dc:title>Matplotlib v3.6.2, https://matplotlib.org/</dc:title>
     </cc:Agent>
    </dc:creator>
   </cc:Work>
  </rdf:RDF>
 </metadata>
 <defs>
  <style type="text/css">*{stroke-linejoin: round; stroke-linecap: butt}</style>
 </defs>
 <g id="figure_1">
  <g id="patch_1">
   <path d="M 0 360 
L 360 360 
L 360 0 
L 0 0 
z
" style="fill: #ffffff"/>
  </g>
  <g id="axes_1">
   <g id="patch_2">
    <path d="M 60.468889 190.4328 
L 349.2 190.4328 
L 349.2 25.44 
L 60.468889 25.44 
z
" style="fill: #ffffff"/>
   </g>
   <g id="PolyCollection_1">
    <path d="M 74.892487 33.472667 
L 74.892487 42.825024 
L 77.491401 42.931274 
L 80.090314 43.054092 
L 82.689228 43.194705 
L 85.288141 43.354479 
L 87.887054 43.534909 
L 90.485968 43.737593 
L 93.084881 43.964195 
L 95.683795 44.216388 
L 98.282708 44.495783 
L 100.881621 44.803857 
L 103.480535 45.141869 
L 106.079448 45.510801 
L 108.678361 45.911315 
L 111.277275 46.343747 
L 113.876188 46.808134 
L 116.475102 47.304273 
L 119.074015 47.831794 
L 121.672928 48.390248 
L 124.271842 48.979186 
L 126.870755 49.59823 
L 129.469668 50.247132 
L 132.068582 50.925819 
L 134.667495 51.634422 
L 137.266409 52.373304 
L 139.865322 53.143076 
L 142.464235 53.944613 
L 145.063149 54.779071 
L 147.662062 55.647902 
L 150.260976 56.55288 
L 152.859889 57.496128 
L 155.458802 58.480152 
L 158.057716 59.507894 
L 160.656629 60.582785 
L 163.255542 61.708828 
L 165.854456 62.890693 
L 168.453369 64.133849 
L 171.052283 65.444725 
L 173.651196 66.830935 
L 176.250109 68.301563 
L 178.849023 69.867562 
L 181.447936 71.542292 
L 184.04685 73.342283 
L 186.645763 75.288336 
L 189.244676 77.407154 
L 191.84359 79.73385 
L 194.442503 82.315966 
L 197.041416 85.220242 
L 199.64033 88.54475 
L 202.239243 92.442516 
L 204.838157 97.172727 
L 207.43707 103.230416 
L 210.035983 111.765828 
L 212.634897 126.765369 
L 215.23381 42764.127492 
L 217.832724 42764.127492 
L 220.431637 42764.127492 
L 223.03055 42764.127492 
L 225.629464 42764.127492 
L 228.228377 42764.127492 
L 230.82729 42764.127492 
L 233.426204 42764.127492 
L 236.025117 42764.127492 
L 238.624031 42764.127492 
L 241.222944 42764.127492 
L 243.821857 42764.127492 
L 246.420771 42764.127492 
L 249.019684 42764.127492 
L 251.618597 42764.127492 
L 254.217511 42764.127492 
L 256.816424 42764.127492 
L 259.415338 42764.127492 
L 262.014251 42764.127492 
L 264.613164 42764.127492 
L 267.212078 42764.127492 
L 269.810991 42764.127492 
L 272.409905 42764.127492 
L 275.008818 42764.127492 
L 277.607731 42764.127492 
L 280.206645 42764.127492 
L 282.805558 42764.127492 
L 285.404471 42764.127492 
L 288.003385 42764.127492 
L 290.602298 42764.127492 
L 293.201212 42764.127492 
L 295.800125 42764.127492 
L 298.399038 42764.127492 
L 300.997952 42764.127492 
L 303.596865 42764.127492 
L 306.195779 42764.127492 
L 308.794692 42764.127492 
L 311.393605 42764.127492 
L 313.992519 42764.127492 
L 316.591432 42764.127492 
L 319.190345 42764.127492 
L 321.789259 42764.127492 
L 324.388172 42764.127492 
L 326.987086 42764.127492 
L 329.585999 42764.127492 
L 332.184912 42764.127492 
L 332.184912 142.138579 
L 332.184912 142.138579 
L 329.585999 136.97879 
L 326.987086 132.084904 
L 324.388172 127.443751 
L 321.789259 123.042776 
L 319.190345 118.870009 
L 316.591432 114.914037 
L 313.992519 111.163982 
L 311.393605 107.609468 
L 308.794692 104.240605 
L 306.195779 101.047962 
L 303.596865 98.022547 
L 300.997952 95.155786 
L 298.399038 92.439505 
L 295.800125 89.865912 
L 293.201212 87.427576 
L 290.602298 85.117418 
L 288.003385 82.928687 
L 285.404471 80.854951 
L 282.805558 78.890082 
L 280.206645 77.028242 
L 277.607731 75.263871 
L 275.008818 73.591676 
L 272.409905 72.006618 
L 269.810991 70.503902 
L 267.212078 69.078968 
L 264.613164 67.727482 
L 262.014251 66.445324 
L 259.415338 65.228581 
L 256.816424 64.073538 
L 254.217511 62.976673 
L 251.618597 61.934644 
L 249.019684 60.944288 
L 246.420771 60.002606 
L 243.821857 59.106766 
L 241.222944 58.254085 
L 238.624031 57.442034 
L 236.025117 56.668224 
L 233.426204 55.930399 
L 230.82729 55.226439 
L 228.228377 54.554343 
L 225.629464 53.912231 
L 223.03055 53.298334 
L 220.431637 52.710992 
L 217.832724 52.148645 
L 215.23381 51.60983 
L 212.634897 51.093174 
L 210.035983 50.597391 
L 207.43707 50.121273 
L 204.838157 49.66369 
L 202.239243 49.223583 
L 199.64033 48.799956 
L 197.041416 48.391876 
L 194.442503 47.998466 
L 191.84359 47.6189 
L 189.244676 47.252401 
L 186.645763 46.898232 
L 184.04685 46.555697 
L 181.447936 46.224133 
L 178.849023 45.902906 
L 176.250109 45.591409 
L 173.651196 45.289054 
L 171.052283 44.995272 
L 168.453369 44.709501 
L 165.854456 44.431191 
L 163.255542 44.159791 
L 160.656629 43.894745 
L 158.057716 43.635489 
L 155.458802 43.381442 
L 152.859889 43.132002 
L 150.260976 42.886533 
L 147.662062 42.644363 
L 145.063149 42.40477 
L 142.464235 42.166979 
L 139.865322 41.930145 
L 137.266409 41.693347 
L 134.667495 41.455582 
L 132.068582 41.215753 
L 129.469668 40.972669 
L 126.870755 40.725044 
L 124.271842 40.471509 
L 121.672928 40.210631 
L 119.074015 39.940948 
L 116.475102 39.661013 
L 113.876188 39.369464 
L 111.277275 39.065092 
L 108.678361 38.746921 
L 106.079448 38.41428 
L 103.480535 38.066855 
L 100.881621 37.704708 
L 98.282708 37.328272 
L 95.683795 36.938306 
L 93.084881 36.535823 
L 90.485968 36.122016 
L 87.887054 35.698175 
L 85.288141 35.265616 
L 82.689228 34.825624 
L 80.090314 34.37941 
L 77.491401 33.92809 
L 74.892487 33.472667 
z
" clip-path="url(#p927edbe2b7)" style="fill: #ff0000; fill-opacity: 0.5"/>
   </g>
   <g id="PolyCollection_2">
    <path d="M 74.892487 32.939673 
L 74.892487 43.219738 
L 77.491401 43.346353 
L 80.090314 43.489539 
L 82.689228 43.650302 
L 85.288141 43.829733 
L 87.887054 44.028998 
L 90.485968 44.24932 
L 93.084881 44.491953 
L 95.683795 44.758143 
L 98.282708 45.049098 
L 100.881621 45.365939 
L 103.480535 45.709666 
L 106.079448 46.081119 
L 108.678361 46.480963 
L 111.277275 46.909674 
L 113.876188 47.367555 
L 116.475102 47.854756 
L 119.074015 48.371313 
L 121.672928 48.917192 
L 124.271842 49.49234 
L 126.870755 50.096729 
L 129.469668 50.730406 
L 132.068582 51.393523 
L 134.667495 52.086379 
L 137.266409 52.809443 
L 139.865322 53.563381 
L 142.464235 54.34908 
L 145.063149 55.167665 
L 147.662062 56.02053 
L 150.260976 56.909357 
L 152.859889 57.83615 
L 155.458802 58.803274 
L 158.057716 59.813497 
L 160.656629 60.870051 
L 163.255542 61.976703 
L 165.854456 63.137846 
L 168.453369 64.358621 
L 171.052283 65.645061 
L 173.651196 67.004299 
L 176.250109 68.444821 
L 178.849023 69.976825 
L 181.447936 71.612699 
L 184.04685 73.367694 
L 186.645763 75.260882 
L 189.244676 77.316566 
L 191.84359 79.566414 
L 194.442503 82.052826 
L 197.041416 84.834496 
L 199.64033 87.996142 
L 202.239243 91.666839 
L 204.838157 96.058079 
L 207.43707 101.554196 
L 210.035983 108.975821 
L 212.634897 120.678692 
L 215.23381 153.334442 
L 217.832724 42764.127492 
L 220.431637 42764.127492 
L 223.03055 42764.127492 
L 225.629464 42764.127492 
L 228.228377 42764.127492 
L 230.82729 42764.127492 
L 233.426204 42764.127492 
L 236.025117 42764.127492 
L 238.624031 42764.127492 
L 241.222944 42764.127492 
L 243.821857 42764.127492 
L 246.420771 42764.127492 
L 249.019684 42764.127492 
L 251.618597 42764.127492 
L 254.217511 42764.127492 
L 256.816424 42764.127492 
L 259.415338 42764.127492 
L 262.014251 42764.127492 
L 264.613164 42764.127492 
L 267.212078 42764.127492 
L 269.810991 42764.127492 
L 272.409905 42764.127492 
L 275.008818 42764.127492 
L 277.607731 42764.127492 
L 280.206645 42764.127492 
L 282.805558 42764.127492 
L 285.404471 42764.127492 
L 288.003385 42764.127492 
L 290.602298 42764.127492 
L 293.201212 42764.127492 
L 295.800125 42764.127492 
L 298.399038 42764.127492 
L 300.997952 42764.127492 
L 303.596865 42764.127492 
L 306.195779 42764.127492 
L 308.794692 42764.127492 
L 311.393605 42764.127492 
L 313.992519 42764.127492 
L 316.591432 42764.127492 
L 319.190345 42764.127492 
L 321.789259 42764.127492 
L 324.388172 42764.127492 
L 326.987086 42764.127492 
L 329.585999 42764.127492 
L 332.184912 42764.127492 
L 332.184912 141.381772 
L 332.184912 141.381772 
L 329.585999 136.300432 
L 326.987086 131.48052 
L 324.388172 126.90907 
L 321.789259 122.573718 
L 319.190345 118.462677 
L 316.591432 114.564708 
L 313.992519 110.869098 
L 311.393605 107.365629 
L 308.794692 104.044561 
L 306.195779 100.896607 
L 303.596865 97.91291 
L 300.997952 95.085026 
L 298.399038 92.404907 
L 295.800125 89.864877 
L 293.201212 87.45762 
L 290.602298 85.176163 
L 288.003385 83.013859 
L 285.404471 80.964376 
L 282.805558 79.02168 
L 280.206645 77.180024 
L 277.607731 75.433934 
L 275.008818 73.778201 
L 272.409905 72.207866 
L 269.810991 70.718212 
L 267.212078 69.304752 
L 264.613164 67.963224 
L 262.014251 66.689575 
L 259.415338 65.47996 
L 256.816424 64.330729 
L 254.217511 63.238419 
L 251.618597 62.199748 
L 249.019684 61.211609 
L 246.420771 60.271061 
L 243.821857 59.375321 
L 241.222944 58.52176 
L 238.624031 57.707895 
L 236.025117 56.931384 
L 233.426204 56.190017 
L 230.82729 55.481715 
L 228.228377 54.804518 
L 225.629464 54.156584 
L 223.03055 53.536181 
L 220.431637 52.941681 
L 217.832724 52.371555 
L 215.23381 51.824371 
L 212.634897 51.298781 
L 210.035983 50.793525 
L 207.43707 50.307416 
L 204.838157 49.839343 
L 202.239243 49.388264 
L 199.64033 48.953197 
L 197.041416 48.53322 
L 194.442503 48.127466 
L 191.84359 47.735114 
L 189.244676 47.35539 
L 186.645763 46.987559 
L 184.04685 46.63092 
L 181.447936 46.284807 
L 178.849023 45.948577 
L 176.250109 45.621611 
L 173.651196 45.303308 
L 171.052283 44.993081 
L 168.453369 44.690352 
L 165.854456 44.394547 
L 163.255542 44.105091 
L 160.656629 43.821405 
L 158.057716 43.542898 
L 155.458802 43.268963 
L 152.859889 42.998974 
L 150.260976 42.732273 
L 147.662062 42.468173 
L 145.063149 42.205946 
L 142.464235 41.944818 
L 139.865322 41.683968 
L 137.266409 41.422521 
L 134.667495 41.159548 
L 132.068582 40.894062 
L 129.469668 40.625032 
L 126.870755 40.351381 
L 124.271842 40.07201 
L 121.672928 39.785814 
L 119.074015 39.491713 
L 116.475102 39.188687 
L 113.876188 38.875815 
L 111.277275 38.552318 
L 108.678361 38.217597 
L 106.079448 37.871265 
L 103.480535 37.513167 
L 100.881621 37.143385 
L 98.282708 36.762229 
L 95.683795 36.370208 
L 93.084881 35.967998 
L 90.485968 35.556398 
L 87.887054 35.136284 
L 85.288141 34.708575 
L 82.689228 34.274188 
L 80.090314 33.834019 
L 77.491401 33.388918 
L 74.892487 32.939673 
z
" clip-path="url(#p927edbe2b7)" style="fill: #008000; fill-opacity: 0.5"/>
   </g>
   <g id="matplotlib.axis_1">
    <g id="xtick_1">
     <g id="line2d_1">
      <defs>
       <path id="m53eb77b657" d="M 0 0 
L 0 3.5 
" style="stroke: #000000; stroke-width: 0.8"/>
      </defs>
      <g>
       <use xlink:href="#m53eb77b657" x="111.812345" y="190.4328" style="stroke: #000000; stroke-width: 0.8"/>
      </g>
     </g>
    </g>
    <g id="xtick_2">
     <g id="line2d_2">
      <g>
       <use xlink:href="#m53eb77b657" x="234.114151" y="190.4328" style="stroke: #000000; stroke-width: 0.8"/>
      </g>
     </g>
    </g>
    <g id="xtick_3">
     <g id="line2d_3">
      <defs>
       <path id="me1943d38cd" d="M 0 0 
L 0 2 
" style="stroke: #000000; stroke-width: 0.6"/>
      </defs>
      <g>
       <use xlink:href="#me1943d38cd" x="63.143563" y="190.4328" style="stroke: #000000; stroke-width: 0.6"/>
      </g>
     </g>
    </g>
    <g id="xtick_4">
     <g id="line2d_4">
      <g>
       <use xlink:href="#me1943d38cd" x="74.995833" y="190.4328" style="stroke: #000000; stroke-width: 0.6"/>
      </g>
     </g>
    </g>
    <g id="xtick_5">
     <g id="line2d_5">
      <g>
       <use xlink:href="#me1943d38cd" x="84.679842" y="190.4328" style="stroke: #000000; stroke-width: 0.6"/>
      </g>
     </g>
    </g>
    <g id="xtick_6">
     <g id="line2d_6">
      <g>
       <use xlink:href="#me1943d38cd" x="92.867556" y="190.4328" style="stroke: #000000; stroke-width: 0.6"/>
      </g>
     </g>
    </g>
    <g id="xtick_7">
     <g id="line2d_7">
      <g>
       <use xlink:href="#me1943d38cd" x="99.960076" y="190.4328" style="stroke: #000000; stroke-width: 0.6"/>
      </g>
     </g>
    </g>
    <g id="xtick_8">
     <g id="line2d_8">
      <g>
       <use xlink:href="#me1943d38cd" x="106.216121" y="190.4328" style="stroke: #000000; stroke-width: 0.6"/>
      </g>
     </g>
    </g>
    <g id="xtick_9">
     <g id="line2d_9">
      <g>
       <use xlink:href="#me1943d38cd" x="148.628857" y="190.4328" style="stroke: #000000; stroke-width: 0.6"/>
      </g>
     </g>
    </g>
    <g id="xtick_10">
     <g id="line2d_10">
      <g>
       <use xlink:href="#me1943d38cd" x="170.165136" y="190.4328" style="stroke: #000000; stroke-width: 0.6"/>
      </g>
     </g>
    </g>
    <g id="xtick_11">
     <g id="line2d_11">
      <g>
       <use xlink:href="#me1943d38cd" x="185.44537" y="190.4328" style="stroke: #000000; stroke-width: 0.6"/>
      </g>
     </g>
    </g>
    <g id="xtick_12">
     <g id="line2d_12">
      <g>
       <use xlink:href="#me1943d38cd" x="197.297639" y="190.4328" style="stroke: #000000; stroke-width: 0.6"/>
      </g>
     </g>
    </g>
    <g id="xtick_13">
     <g id="line2d_13">
      <g>
       <use xlink:href="#me1943d38cd" x="206.981649" y="190.4328" style="stroke: #000000; stroke-width: 0.6"/>
      </g>
     </g>
    </g>
    <g id="xtick_14">
     <g id="line2d_14">
      <g>
       <use xlink:href="#me1943d38cd" x="215.169362" y="190.4328" style="stroke: #000000; stroke-width: 0.6"/>
      </g>
     </g>
    </g>
    <g id="xtick_15">
     <g id="line2d_15">
      <g>
       <use xlink:href="#me1943d38cd" x="222.261882" y="190.4328" style="stroke: #000000; stroke-width: 0.6"/>
      </g>
     </g>
    </g>
    <g id="xtick_16">
     <g id="line2d_16">
      <g>
       <use xlink:href="#me1943d38cd" x="228.517928" y="190.4328" style="stroke: #000000; stroke-width: 0.6"/>
      </g>
     </g>
    </g>
    <g id="xtick_17">
     <g id="line2d_17">
      <g>
       <use xlink:href="#me1943d38cd" x="270.930664" y="190.4328" style="stroke: #000000; stroke-width: 0.6"/>
      </g>
     </g>
    </g>
    <g id="xtick_18">
     <g id="line2d_18">
      <g>
       <use xlink:href="#me1943d38cd" x="292.466943" y="190.4328" style="stroke: #000000; stroke-width: 0.6"/>
      </g>
     </g>
    </g>
    <g id="xtick_19">
     <g id="line2d_19">
      <g>
       <use xlink:href="#me1943d38cd" x="307.747176" y="190.4328" style="stroke: #000000; stroke-width: 0.6"/>
      </g>
     </g>
    </g>
    <g id="xtick_20">
     <g id="line2d_20">
      <g>
       <use xlink:href="#me1943d38cd" x="319.599446" y="190.4328" style="stroke: #000000; stroke-width: 0.6"/>
      </g>
     </g>
    </g>
    <g id="xtick_21">
     <g id="line2d_21">
      <g>
       <use xlink:href="#me1943d38cd" x="329.283455" y="190.4328" style="stroke: #000000; stroke-width: 0.6"/>
      </g>
     </g>
    </g>
    <g id="xtick_22">
     <g id="line2d_22">
      <g>
       <use xlink:href="#me1943d38cd" x="337.471168" y="190.4328" style="stroke: #000000; stroke-width: 0.6"/>
      </g>
     </g>
    </g>
    <g id="xtick_23">
     <g id="line2d_23">
      <g>
       <use xlink:href="#me1943d38cd" x="344.563688" y="190.4328" style="stroke: #000000; stroke-width: 0.6"/>
      </g>
     </g>
    </g>
   </g>
   <g id="matplotlib.axis_2">
    <g id="ytick_1">
     <g id="line2d_24">
      <defs>
       <path id="m0abbb3cd2d" d="M 0 0 
L -3.5 0 
" style="stroke: #000000; stroke-width: 0.8"/>
      </defs>
      <g>
       <use xlink:href="#m0abbb3cd2d" x="60.468889" y="170.279015" style="stroke: #000000; stroke-width: 0.8"/>
      </g>
     </g>
     <g id="text_1">
      <!-- $\mathdefault{10^{-15}}$ -->
      <g transform="translate(25.568889 174.078234) scale(0.1 -0.1)">
       <defs>
        <path id="DejaVuSans-31" d="M 794 531 
L 1825 531 
L 1825 4091 
L 703 3866 
L 703 4441 
L 1819 4666 
L 2450 4666 
L 2450 531 
L 3481 531 
L 3481 0 
L 794 0 
L 794 531 
z
" transform="scale(0.015625)"/>
        <path id="DejaVuSans-30" d="M 2034 4250 
Q 1547 4250 1301 3770 
Q 1056 3291 1056 2328 
Q 1056 1369 1301 889 
Q 1547 409 2034 409 
Q 2525 409 2770 889 
Q 3016 1369 3016 2328 
Q 3016 3291 2770 3770 
Q 2525 4250 2034 4250 
z
M 2034 4750 
Q 2819 4750 3233 4129 
Q 3647 3509 3647 2328 
Q 3647 1150 3233 529 
Q 2819 -91 2034 -91 
Q 1250 -91 836 529 
Q 422 1150 422 2328 
Q 422 3509 836 4129 
Q 1250 4750 2034 4750 
z
" transform="scale(0.015625)"/>
        <path id="DejaVuSans-2212" d="M 678 2272 
L 4684 2272 
L 4684 1741 
L 678 1741 
L 678 2272 
z
" transform="scale(0.015625)"/>
        <path id="DejaVuSans-35" d="M 691 4666 
L 3169 4666 
L 3169 4134 
L 1269 4134 
L 1269 2991 
Q 1406 3038 1543 3061 
Q 1681 3084 1819 3084 
Q 2600 3084 3056 2656 
Q 3513 2228 3513 1497 
Q 3513 744 3044 326 
Q 2575 -91 1722 -91 
Q 1428 -91 1123 -41 
Q 819 9 494 109 
L 494 744 
Q 775 591 1075 516 
Q 1375 441 1709 441 
Q 2250 441 2565 725 
Q 2881 1009 2881 1497 
Q 2881 1984 2565 2268 
Q 2250 2553 1709 2553 
Q 1456 2553 1204 2497 
Q 953 2441 691 2322 
L 691 4666 
z
" transform="scale(0.015625)"/>
       </defs>
       <use xlink:href="#DejaVuSans-31" transform="translate(0 0.684375)"/>
       <use xlink:href="#DejaVuSans-30" transform="translate(63.623047 0.684375)"/>
       <use xlink:href="#DejaVuSans-2212" transform="translate(128.203125 38.965625) scale(0.7)"/>
       <use xlink:href="#DejaVuSans-31" transform="translate(186.855469 38.965625) scale(0.7)"/>
       <use xlink:href="#DejaVuSans-35" transform="translate(231.391602 38.965625) scale(0.7)"/>
      </g>
     </g>
    </g>
    <g id="ytick_2">
     <g id="line2d_25">
      <g>
       <use xlink:href="#m0abbb3cd2d" x="60.468889" y="127.03653" style="stroke: #000000; stroke-width: 0.8"/>
      </g>
     </g>
     <g id="text_2">
      <!-- $\mathdefault{10^{-14}}$ -->
      <g transform="translate(25.568889 130.835748) scale(0.1 -0.1)">
       <defs>
        <path id="DejaVuSans-34" d="M 2419 4116 
L 825 1625 
L 2419 1625 
L 2419 4116 
z
M 2253 4666 
L 3047 4666 
L 3047 1625 
L 3713 1625 
L 3713 1100 
L 3047 1100 
L 3047 0 
L 2419 0 
L 2419 1100 
L 313 1100 
L 313 1709 
L 2253 4666 
z
" transform="scale(0.015625)"/>
       </defs>
       <use xlink:href="#DejaVuSans-31" transform="translate(0 0.684375)"/>
       <use xlink:href="#DejaVuSans-30" transform="translate(63.623047 0.684375)"/>
       <use xlink:href="#DejaVuSans-2212" transform="translate(128.203125 38.965625) scale(0.7)"/>
       <use xlink:href="#DejaVuSans-31" transform="translate(186.855469 38.965625) scale(0.7)"/>
       <use xlink:href="#DejaVuSans-34" transform="translate(231.391602 38.965625) scale(0.7)"/>
      </g>
     </g>
    </g>
    <g id="ytick_3">
     <g id="line2d_26">
      <g>
       <use xlink:href="#m0abbb3cd2d" x="60.468889" y="83.794044" style="stroke: #000000; stroke-width: 0.8"/>
      </g>
     </g>
     <g id="text_3">
      <!-- $\mathdefault{10^{-13}}$ -->
      <g transform="translate(25.568889 87.593263) scale(0.1 -0.1)">
       <defs>
        <path id="DejaVuSans-33" d="M 2597 2516 
Q 3050 2419 3304 2112 
Q 3559 1806 3559 1356 
Q 3559 666 3084 287 
Q 2609 -91 1734 -91 
Q 1441 -91 1130 -33 
Q 819 25 488 141 
L 488 750 
Q 750 597 1062 519 
Q 1375 441 1716 441 
Q 2309 441 2620 675 
Q 2931 909 2931 1356 
Q 2931 1769 2642 2001 
Q 2353 2234 1838 2234 
L 1294 2234 
L 1294 2753 
L 1863 2753 
Q 2328 2753 2575 2939 
Q 2822 3125 2822 3475 
Q 2822 3834 2567 4026 
Q 2313 4219 1838 4219 
Q 1578 4219 1281 4162 
Q 984 4106 628 3988 
L 628 4550 
Q 988 4650 1302 4700 
Q 1616 4750 1894 4750 
Q 2613 4750 3031 4423 
Q 3450 4097 3450 3541 
Q 3450 3153 3228 2886 
Q 3006 2619 2597 2516 
z
" transform="scale(0.015625)"/>
       </defs>
       <use xlink:href="#DejaVuSans-31" transform="translate(0 0.765625)"/>
       <use xlink:href="#DejaVuSans-30" transform="translate(63.623047 0.765625)"/>
       <use xlink:href="#DejaVuSans-2212" transform="translate(128.203125 39.046875) scale(0.7)"/>
       <use xlink:href="#DejaVuSans-31" transform="translate(186.855469 39.046875) scale(0.7)"/>
       <use xlink:href="#DejaVuSans-33" transform="translate(231.391602 39.046875) scale(0.7)"/>
      </g>
     </g>
    </g>
    <g id="ytick_4">
     <g id="line2d_27">
      <g>
       <use xlink:href="#m0abbb3cd2d" x="60.468889" y="40.551558" style="stroke: #000000; stroke-width: 0.8"/>
      </g>
     </g>
     <g id="text_4">
      <!-- $\mathdefault{10^{-12}}$ -->
      <g transform="translate(25.568889 44.350777) scale(0.1 -0.1)">
       <defs>
        <path id="DejaVuSans-32" d="M 1228 531 
L 3431 531 
L 3431 0 
L 469 0 
L 469 531 
Q 828 903 1448 1529 
Q 2069 2156 2228 2338 
Q 2531 2678 2651 2914 
Q 2772 3150 2772 3378 
Q 2772 3750 2511 3984 
Q 2250 4219 1831 4219 
Q 1534 4219 1204 4116 
Q 875 4013 500 3803 
L 500 4441 
Q 881 4594 1212 4672 
Q 1544 4750 1819 4750 
Q 2544 4750 2975 4387 
Q 3406 4025 3406 3419 
Q 3406 3131 3298 2873 
Q 3191 2616 2906 2266 
Q 2828 2175 2409 1742 
Q 1991 1309 1228 531 
z
" transform="scale(0.015625)"/>
       </defs>
       <use xlink:href="#DejaVuSans-31" transform="translate(0 0.765625)"/>
       <use xlink:href="#DejaVuSans-30" transform="translate(63.623047 0.765625)"/>
       <use xlink:href="#DejaVuSans-2212" transform="translate(128.203125 39.046875) scale(0.7)"/>
       <use xlink:href="#DejaVuSans-31" transform="translate(186.855469 39.046875) scale(0.7)"/>
       <use xlink:href="#DejaVuSans-32" transform="translate(231.391602 39.046875) scale(0.7)"/>
      </g>
     </g>
    </g>
    <g id="ytick_5">
     <g id="line2d_28">
      <defs>
       <path id="m85f88b9e8f" d="M 0 0 
L -2 0 
" style="stroke: #000000; stroke-width: 0.6"/>
      </defs>
      <g>
       <use xlink:href="#m85f88b9e8f" x="60.468889" y="187.486931" style="stroke: #000000; stroke-width: 0.6"/>
      </g>
     </g>
    </g>
    <g id="ytick_6">
     <g id="line2d_29">
      <g>
       <use xlink:href="#m85f88b9e8f" x="60.468889" y="183.296301" style="stroke: #000000; stroke-width: 0.6"/>
      </g>
     </g>
    </g>
    <g id="ytick_7">
     <g id="line2d_30">
      <g>
       <use xlink:href="#m85f88b9e8f" x="60.468889" y="179.872307" style="stroke: #000000; stroke-width: 0.6"/>
      </g>
     </g>
    </g>
    <g id="ytick_8">
     <g id="line2d_31">
      <g>
       <use xlink:href="#m85f88b9e8f" x="60.468889" y="176.977361" style="stroke: #000000; stroke-width: 0.6"/>
      </g>
     </g>
    </g>
    <g id="ytick_9">
     <g id="line2d_32">
      <g>
       <use xlink:href="#m85f88b9e8f" x="60.468889" y="174.469645" style="stroke: #000000; stroke-width: 0.6"/>
      </g>
     </g>
    </g>
    <g id="ytick_10">
     <g id="line2d_33">
      <g>
       <use xlink:href="#m85f88b9e8f" x="60.468889" y="172.257683" style="stroke: #000000; stroke-width: 0.6"/>
      </g>
     </g>
    </g>
    <g id="ytick_11">
     <g id="line2d_34">
      <g>
       <use xlink:href="#m85f88b9e8f" x="60.468889" y="157.26173" style="stroke: #000000; stroke-width: 0.6"/>
      </g>
     </g>
    </g>
    <g id="ytick_12">
     <g id="line2d_35">
      <g>
       <use xlink:href="#m85f88b9e8f" x="60.468889" y="149.647106" style="stroke: #000000; stroke-width: 0.6"/>
      </g>
     </g>
    </g>
    <g id="ytick_13">
     <g id="line2d_36">
      <g>
       <use xlink:href="#m85f88b9e8f" x="60.468889" y="144.244445" style="stroke: #000000; stroke-width: 0.6"/>
      </g>
     </g>
    </g>
    <g id="ytick_14">
     <g id="line2d_37">
      <g>
       <use xlink:href="#m85f88b9e8f" x="60.468889" y="140.053815" style="stroke: #000000; stroke-width: 0.6"/>
      </g>
     </g>
    </g>
    <g id="ytick_15">
     <g id="line2d_38">
      <g>
       <use xlink:href="#m85f88b9e8f" x="60.468889" y="136.629821" style="stroke: #000000; stroke-width: 0.6"/>
      </g>
     </g>
    </g>
    <g id="ytick_16">
     <g id="line2d_39">
      <g>
       <use xlink:href="#m85f88b9e8f" x="60.468889" y="133.734876" style="stroke: #000000; stroke-width: 0.6"/>
      </g>
     </g>
    </g>
    <g id="ytick_17">
     <g id="line2d_40">
      <g>
       <use xlink:href="#m85f88b9e8f" x="60.468889" y="131.22716" style="stroke: #000000; stroke-width: 0.6"/>
      </g>
     </g>
    </g>
    <g id="ytick_18">
     <g id="line2d_41">
      <g>
       <use xlink:href="#m85f88b9e8f" x="60.468889" y="129.015197" style="stroke: #000000; stroke-width: 0.6"/>
      </g>
     </g>
    </g>
    <g id="ytick_19">
     <g id="line2d_42">
      <g>
       <use xlink:href="#m85f88b9e8f" x="60.468889" y="114.019244" style="stroke: #000000; stroke-width: 0.6"/>
      </g>
     </g>
    </g>
    <g id="ytick_20">
     <g id="line2d_43">
      <g>
       <use xlink:href="#m85f88b9e8f" x="60.468889" y="106.404621" style="stroke: #000000; stroke-width: 0.6"/>
      </g>
     </g>
    </g>
    <g id="ytick_21">
     <g id="line2d_44">
      <g>
       <use xlink:href="#m85f88b9e8f" x="60.468889" y="101.001959" style="stroke: #000000; stroke-width: 0.6"/>
      </g>
     </g>
    </g>
    <g id="ytick_22">
     <g id="line2d_45">
      <g>
       <use xlink:href="#m85f88b9e8f" x="60.468889" y="96.811329" style="stroke: #000000; stroke-width: 0.6"/>
      </g>
     </g>
    </g>
    <g id="ytick_23">
     <g id="line2d_46">
      <g>
       <use xlink:href="#m85f88b9e8f" x="60.468889" y="93.387335" style="stroke: #000000; stroke-width: 0.6"/>
      </g>
     </g>
    </g>
    <g id="ytick_24">
     <g id="line2d_47">
      <g>
       <use xlink:href="#m85f88b9e8f" x="60.468889" y="90.49239" style="stroke: #000000; stroke-width: 0.6"/>
      </g>
     </g>
    </g>
    <g id="ytick_25">
     <g id="line2d_48">
      <g>
       <use xlink:href="#m85f88b9e8f" x="60.468889" y="87.984674" style="stroke: #000000; stroke-width: 0.6"/>
      </g>
     </g>
    </g>
    <g id="ytick_26">
     <g id="line2d_49">
      <g>
       <use xlink:href="#m85f88b9e8f" x="60.468889" y="85.772712" style="stroke: #000000; stroke-width: 0.6"/>
      </g>
     </g>
    </g>
    <g id="ytick_27">
     <g id="line2d_50">
      <g>
       <use xlink:href="#m85f88b9e8f" x="60.468889" y="70.776759" style="stroke: #000000; stroke-width: 0.6"/>
      </g>
     </g>
    </g>
    <g id="ytick_28">
     <g id="line2d_51">
      <g>
       <use xlink:href="#m85f88b9e8f" x="60.468889" y="63.162135" style="stroke: #000000; stroke-width: 0.6"/>
      </g>
     </g>
    </g>
    <g id="ytick_29">
     <g id="line2d_52">
      <g>
       <use xlink:href="#m85f88b9e8f" x="60.468889" y="57.759473" style="stroke: #000000; stroke-width: 0.6"/>
      </g>
     </g>
    </g>
    <g id="ytick_30">
     <g id="line2d_53">
      <g>
       <use xlink:href="#m85f88b9e8f" x="60.468889" y="53.568843" style="stroke: #000000; stroke-width: 0.6"/>
      </g>
     </g>
    </g>
    <g id="ytick_31">
     <g id="line2d_54">
      <g>
       <use xlink:href="#m85f88b9e8f" x="60.468889" y="50.14485" style="stroke: #000000; stroke-width: 0.6"/>
      </g>
     </g>
    </g>
    <g id="ytick_32">
     <g id="line2d_55">
      <g>
       <use xlink:href="#m85f88b9e8f" x="60.468889" y="47.249904" style="stroke: #000000; stroke-width: 0.6"/>
      </g>
     </g>
    </g>
    <g id="ytick_33">
     <g id="line2d_56">
      <g>
       <use xlink:href="#m85f88b9e8f" x="60.468889" y="44.742188" style="stroke: #000000; stroke-width: 0.6"/>
      </g>
     </g>
    </g>
    <g id="ytick_34">
     <g id="line2d_57">
      <g>
       <use xlink:href="#m85f88b9e8f" x="60.468889" y="42.530226" style="stroke: #000000; stroke-width: 0.6"/>
      </g>
     </g>
    </g>
    <g id="ytick_35">
     <g id="line2d_58">
      <g>
       <use xlink:href="#m85f88b9e8f" x="60.468889" y="27.534273" style="stroke: #000000; stroke-width: 0.6"/>
      </g>
     </g>
    </g>
    <g id="text_5">
     <!-- e2 * dnde [TeV / (cm2 s)] -->
     <g transform="translate(19.489202 170.416088) rotate(-90) scale(0.1 -0.1)">
      <defs>
       <path id="DejaVuSans-65" d="M 3597 1894 
L 3597 1613 
L 953 1613 
Q 991 1019 1311 708 
Q 1631 397 2203 397 
Q 2534 397 2845 478 
Q 3156 559 3463 722 
L 3463 178 
Q 3153 47 2828 -22 
Q 2503 -91 2169 -91 
Q 1331 -91 842 396 
Q 353 884 353 1716 
Q 353 2575 817 3079 
Q 1281 3584 2069 3584 
Q 2775 3584 3186 3129 
Q 3597 2675 3597 1894 
z
M 3022 2063 
Q 3016 2534 2758 2815 
Q 2500 3097 2075 3097 
Q 1594 3097 1305 2825 
Q 1016 2553 972 2059 
L 3022 2063 
z
" transform="scale(0.015625)"/>
       <path id="DejaVuSans-20" transform="scale(0.015625)"/>
       <path id="DejaVuSans-2a" d="M 3009 3897 
L 1888 3291 
L 3009 2681 
L 2828 2375 
L 1778 3009 
L 1778 1831 
L 1422 1831 
L 1422 3009 
L 372 2375 
L 191 2681 
L 1313 3291 
L 191 3897 
L 372 4206 
L 1422 3572 
L 1422 4750 
L 1778 4750 
L 1778 3572 
L 2828 4206 
L 3009 3897 
z
" transform="scale(0.015625)"/>
       <path id="DejaVuSans-64" d="M 2906 2969 
L 2906 4863 
L 3481 4863 
L 3481 0 
L 2906 0 
L 2906 525 
Q 2725 213 2448 61 
Q 2172 -91 1784 -91 
Q 1150 -91 751 415 
Q 353 922 353 1747 
Q 353 2572 751 3078 
Q 1150 3584 1784 3584 
Q 2172 3584 2448 3432 
Q 2725 3281 2906 2969 
z
M 947 1747 
Q 947 1113 1208 752 
Q 1469 391 1925 391 
Q 2381 391 2643 752 
Q 2906 1113 2906 1747 
Q 2906 2381 2643 2742 
Q 2381 3103 1925 3103 
Q 1469 3103 1208 2742 
Q 947 2381 947 1747 
z
" transform="scale(0.015625)"/>
       <path id="DejaVuSans-6e" d="M 3513 2113 
L 3513 0 
L 2938 0 
L 2938 2094 
Q 2938 2591 2744 2837 
Q 2550 3084 2163 3084 
Q 1697 3084 1428 2787 
Q 1159 2491 1159 1978 
L 1159 0 
L 581 0 
L 581 3500 
L 1159 3500 
L 1159 2956 
Q 1366 3272 1645 3428 
Q 1925 3584 2291 3584 
Q 2894 3584 3203 3211 
Q 3513 2838 3513 2113 
z
" transform="scale(0.015625)"/>
       <path id="DejaVuSans-5b" d="M 550 4863 
L 1875 4863 
L 1875 4416 
L 1125 4416 
L 1125 -397 
L 1875 -397 
L 1875 -844 
L 550 -844 
L 550 4863 
z
" transform="scale(0.015625)"/>
       <path id="DejaVuSans-54" d="M -19 4666 
L 3928 4666 
L 3928 4134 
L 2272 4134 
L 2272 0 
L 1638 0 
L 1638 4134 
L -19 4134 
L -19 4666 
z
" transform="scale(0.015625)"/>
       <path id="DejaVuSans-56" d="M 1831 0 
L 50 4666 
L 709 4666 
L 2188 738 
L 3669 4666 
L 4325 4666 
L 2547 0 
L 1831 0 
z
" transform="scale(0.015625)"/>
       <path id="DejaVuSans-2f" d="M 1625 4666 
L 2156 4666 
L 531 -594 
L 0 -594 
L 1625 4666 
z
" transform="scale(0.015625)"/>
       <path id="DejaVuSans-28" d="M 1984 4856 
Q 1566 4138 1362 3434 
Q 1159 2731 1159 2009 
Q 1159 1288 1364 580 
Q 1569 -128 1984 -844 
L 1484 -844 
Q 1016 -109 783 600 
Q 550 1309 550 2009 
Q 550 2706 781 3412 
Q 1013 4119 1484 4856 
L 1984 4856 
z
" transform="scale(0.015625)"/>
       <path id="DejaVuSans-63" d="M 3122 3366 
L 3122 2828 
Q 2878 2963 2633 3030 
Q 2388 3097 2138 3097 
Q 1578 3097 1268 2742 
Q 959 2388 959 1747 
Q 959 1106 1268 751 
Q 1578 397 2138 397 
Q 2388 397 2633 464 
Q 2878 531 3122 666 
L 3122 134 
Q 2881 22 2623 -34 
Q 2366 -91 2075 -91 
Q 1284 -91 818 406 
Q 353 903 353 1747 
Q 353 2603 823 3093 
Q 1294 3584 2113 3584 
Q 2378 3584 2631 3529 
Q 2884 3475 3122 3366 
z
" transform="scale(0.015625)"/>
       <path id="DejaVuSans-6d" d="M 3328 2828 
Q 3544 3216 3844 3400 
Q 4144 3584 4550 3584 
Q 5097 3584 5394 3201 
Q 5691 2819 5691 2113 
L 5691 0 
L 5113 0 
L 5113 2094 
Q 5113 2597 4934 2840 
Q 4756 3084 4391 3084 
Q 3944 3084 3684 2787 
Q 3425 2491 3425 1978 
L 3425 0 
L 2847 0 
L 2847 2094 
Q 2847 2600 2669 2842 
Q 2491 3084 2119 3084 
Q 1678 3084 1418 2786 
Q 1159 2488 1159 1978 
L 1159 0 
L 581 0 
L 581 3500 
L 1159 3500 
L 1159 2956 
Q 1356 3278 1631 3431 
Q 1906 3584 2284 3584 
Q 2666 3584 2933 3390 
Q 3200 3197 3328 2828 
z
" transform="scale(0.015625)"/>
       <path id="DejaVuSans-73" d="M 2834 3397 
L 2834 2853 
Q 2591 2978 2328 3040 
Q 2066 3103 1784 3103 
Q 1356 3103 1142 2972 
Q 928 2841 928 2578 
Q 928 2378 1081 2264 
Q 1234 2150 1697 2047 
L 1894 2003 
Q 2506 1872 2764 1633 
Q 3022 1394 3022 966 
Q 3022 478 2636 193 
Q 2250 -91 1575 -91 
Q 1294 -91 989 -36 
Q 684 19 347 128 
L 347 722 
Q 666 556 975 473 
Q 1284 391 1588 391 
Q 1994 391 2212 530 
Q 2431 669 2431 922 
Q 2431 1156 2273 1281 
Q 2116 1406 1581 1522 
L 1381 1569 
Q 847 1681 609 1914 
Q 372 2147 372 2553 
Q 372 3047 722 3315 
Q 1072 3584 1716 3584 
Q 2034 3584 2315 3537 
Q 2597 3491 2834 3397 
z
" transform="scale(0.015625)"/>
       <path id="DejaVuSans-29" d="M 513 4856 
L 1013 4856 
Q 1481 4119 1714 3412 
Q 1947 2706 1947 2009 
Q 1947 1309 1714 600 
Q 1481 -109 1013 -844 
L 513 -844 
Q 928 -128 1133 580 
Q 1338 1288 1338 2009 
Q 1338 2731 1133 3434 
Q 928 4138 513 4856 
z
" transform="scale(0.015625)"/>
       <path id="DejaVuSans-5d" d="M 1947 4863 
L 1947 -844 
L 622 -844 
L 622 -397 
L 1369 -397 
L 1369 4416 
L 622 4416 
L 622 4863 
L 1947 4863 
z
" transform="scale(0.015625)"/>
      </defs>
      <use xlink:href="#DejaVuSans-65"/>
      <use xlink:href="#DejaVuSans-32" x="61.523438"/>
      <use xlink:href="#DejaVuSans-20" x="125.146484"/>
      <use xlink:href="#DejaVuSans-2a" x="156.933594"/>
      <use xlink:href="#DejaVuSans-20" x="206.933594"/>
      <use xlink:href="#DejaVuSans-64" x="238.720703"/>
      <use xlink:href="#DejaVuSans-6e" x="302.197266"/>
      <use xlink:href="#DejaVuSans-64" x="365.576172"/>
      <use xlink:href="#DejaVuSans-65" x="429.052734"/>
      <use xlink:href="#DejaVuSans-20" x="490.576172"/>
      <use xlink:href="#DejaVuSans-5b" x="522.363281"/>
      <use xlink:href="#DejaVuSans-54" x="561.376953"/>
      <use xlink:href="#DejaVuSans-65" x="605.460938"/>
      <use xlink:href="#DejaVuSans-56" x="666.984375"/>
      <use xlink:href="#DejaVuSans-20" x="735.392578"/>
      <use xlink:href="#DejaVuSans-2f" x="767.179688"/>
      <use xlink:href="#DejaVuSans-20" x="800.871094"/>
      <use xlink:href="#DejaVuSans-28" x="832.658203"/>
      <use xlink:href="#DejaVuSans-63" x="871.671875"/>
      <use xlink:href="#DejaVuSans-6d" x="926.652344"/>
      <use xlink:href="#DejaVuSans-32" x="1024.064453"/>
      <use xlink:href="#DejaVuSans-20" x="1087.6875"/>
      <use xlink:href="#DejaVuSans-73" x="1119.474609"/>
      <use xlink:href="#DejaVuSans-29" x="1171.574219"/>
      <use xlink:href="#DejaVuSans-5d" x="1210.587891"/>
     </g>
    </g>
   </g>
   <g id="LineCollection_1">
    <path d="M 73.593031 44.028672 
L 73.593031 34.62992 
" clip-path="url(#p927edbe2b7)" style="fill: none; stroke: #00008b; stroke-opacity: 0.7; stroke-width: 1.5"/>
    <path d="M 88.880757 44.470672 
L 88.880757 37.127924 
" clip-path="url(#p927edbe2b7)" style="fill: none; stroke: #00008b; stroke-opacity: 0.7; stroke-width: 1.5"/>
    <path d="M 104.168482 45.332724 
L 104.168482 39.48647 
" clip-path="url(#p927edbe2b7)" style="fill: none; stroke: #00008b; stroke-opacity: 0.7; stroke-width: 1.5"/>
    <path d="M 119.456208 46.783085 
L 119.456208 41.625087 
" clip-path="url(#p927edbe2b7)" style="fill: none; stroke: #00008b; stroke-opacity: 0.7; stroke-width: 1.5"/>
    <path d="M 134.743934 48.89076 
L 134.743934 43.593114 
" clip-path="url(#p927edbe2b7)" style="fill: none; stroke: #00008b; stroke-opacity: 0.7; stroke-width: 1.5"/>
    <path d="M 150.03166 51.539209 
L 150.03166 45.658922 
" clip-path="url(#p927edbe2b7)" style="fill: none; stroke: #00008b; stroke-opacity: 0.7; stroke-width: 1.5"/>
    <path d="M 165.319385 54.616554 
L 165.319385 48.130357 
" clip-path="url(#p927edbe2b7)" style="fill: none; stroke: #00008b; stroke-opacity: 0.7; stroke-width: 1.5"/>
    <path d="M 180.607111 58.180648 
L 180.607111 51.209473 
" clip-path="url(#p927edbe2b7)" style="fill: none; stroke: #00008b; stroke-opacity: 0.7; stroke-width: 1.5"/>
    <path d="M 195.894837 62.52285 
L 195.894837 54.946206 
" clip-path="url(#p927edbe2b7)" style="fill: none; stroke: #00008b; stroke-opacity: 0.7; stroke-width: 1.5"/>
    <path d="M 211.182563 68.159149 
L 211.182563 59.243747 
" clip-path="url(#p927edbe2b7)" style="fill: none; stroke: #00008b; stroke-opacity: 0.7; stroke-width: 1.5"/>
    <path d="M 226.470289 75.669715 
L 226.470289 64.002119 
" clip-path="url(#p927edbe2b7)" style="fill: none; stroke: #00008b; stroke-opacity: 0.7; stroke-width: 1.5"/>
    <path d="M 241.758014 85.597606 
L 241.758014 69.253036 
" clip-path="url(#p927edbe2b7)" style="fill: none; stroke: #00008b; stroke-opacity: 0.7; stroke-width: 1.5"/>
    <path d="M 257.04574 98.824704 
L 257.04574 75.061384 
" clip-path="url(#p927edbe2b7)" style="fill: none; stroke: #00008b; stroke-opacity: 0.7; stroke-width: 1.5"/>
    <path d="M 272.333466 118.406143 
L 272.333466 81.369252 
" clip-path="url(#p927edbe2b7)" style="fill: none; stroke: #00008b; stroke-opacity: 0.7; stroke-width: 1.5"/>
    <path d="M 287.621192 361 
L 287.621192 87.922297 
" clip-path="url(#p927edbe2b7)" style="fill: none; stroke: #00008b; stroke-opacity: 0.7; stroke-width: 1.5"/>
    <path d="M 302.908917 361 
L 302.908917 94.264006 
" clip-path="url(#p927edbe2b7)" style="fill: none; stroke: #00008b; stroke-opacity: 0.7; stroke-width: 1.5"/>
    <path d="M 318.196643 361 
L 318.196643 99.7532 
" clip-path="url(#p927edbe2b7)" style="fill: none; stroke: #00008b; stroke-opacity: 0.7; stroke-width: 1.5"/>
    <path d="M 333.484369 361 
L 333.484369 103.581377 
" clip-path="url(#p927edbe2b7)" style="fill: none; stroke: #00008b; stroke-opacity: 0.7; stroke-width: 1.5"/>
   </g>
   <g id="line2d_59">
    <path d="M 74.892487 37.572584 
L 77.491401 37.895251 
L 80.090314 38.220275 
L 82.689228 38.547773 
L 85.288141 38.877871 
L 87.887054 39.210698 
L 90.485968 39.546391 
L 93.084881 39.885094 
L 95.683795 40.226958 
L 98.282708 40.572142 
L 100.881621 40.920811 
L 103.480535 41.273141 
L 106.079448 41.629315 
L 108.678361 41.989526 
L 111.277275 42.353976 
L 113.876188 42.722878 
L 116.475102 43.096456 
L 119.074015 43.474944 
L 121.672928 43.858587 
L 124.271842 44.247645 
L 126.870755 44.642388 
L 129.469668 45.043103 
L 132.068582 45.450089 
L 134.667495 45.863659 
L 137.266409 46.284145 
L 139.865322 46.711892 
L 142.464235 47.147266 
L 145.063149 47.590648 
L 147.662062 48.042441 
L 150.260976 48.503065 
L 152.859889 48.972965 
L 155.458802 49.452604 
L 158.057716 49.942472 
L 160.656629 50.443081 
L 163.255542 50.954969 
L 165.854456 51.478704 
L 168.453369 52.014878 
L 171.052283 52.564115 
L 173.651196 53.127071 
L 176.250109 53.704433 
L 178.849023 54.296924 
L 181.447936 54.905303 
L 184.04685 55.530366 
L 186.645763 56.172949 
L 189.244676 56.833932 
L 191.84359 57.514238 
L 194.442503 58.214834 
L 197.041416 58.936739 
L 199.64033 59.681022 
L 202.239243 60.448803 
L 204.838157 61.241263 
L 207.43707 62.059637 
L 210.035983 62.905227 
L 212.634897 63.779396 
L 215.23381 64.683578 
L 217.832724 65.619278 
L 220.431637 66.588076 
L 223.03055 67.591632 
L 225.629464 68.631689 
L 228.228377 69.710078 
L 230.82729 70.82872 
L 233.426204 71.989635 
L 236.025117 73.194941 
L 238.624031 74.446866 
L 241.222944 75.747747 
L 243.821857 77.100039 
L 246.420771 78.506321 
L 249.019684 79.969298 
L 251.618597 81.491815 
L 254.217511 83.076858 
L 256.816424 84.727561 
L 259.415338 86.447217 
L 262.014251 88.239285 
L 264.613164 90.107395 
L 267.212078 92.055361 
L 269.810991 94.087187 
L 272.409905 96.207079 
L 275.008818 98.419452 
L 277.607731 100.728945 
L 280.206645 103.140427 
L 282.805558 105.659014 
L 285.404471 108.290075 
L 288.003385 111.039252 
L 290.602298 113.912466 
L 293.201212 116.91594 
L 295.800125 120.056203 
L 298.399038 123.340117 
L 300.997952 126.774885 
L 303.596865 130.368071 
L 306.195779 134.127619 
L 308.794692 138.061873 
L 311.393605 142.179593 
L 313.992519 146.489979 
L 316.591432 151.002693 
L 319.190345 155.727882 
L 321.789259 160.676199 
L 324.388172 165.858834 
L 326.987086 171.287538 
L 329.585999 176.974649 
L 332.184912 182.933127 
" clip-path="url(#p927edbe2b7)" style="fill: none; stroke: #ff0000; stroke-width: 1.5; stroke-linecap: square"/>
   </g>
   <g id="line2d_60">
    <path d="M 74.892487 37.384909 
L 77.491401 37.715275 
L 80.090314 38.047961 
L 82.689228 38.383082 
L 85.288141 38.720761 
L 87.887054 39.061126 
L 90.485968 39.404311 
L 93.084881 39.750458 
L 95.683795 40.099716 
L 98.282708 40.45224 
L 100.881621 40.808195 
L 103.480535 41.167752 
L 106.079448 41.531092 
L 108.678361 41.898405 
L 111.277275 42.269889 
L 113.876188 42.645755 
L 116.475102 43.026222 
L 119.074015 43.41152 
L 121.672928 43.801892 
L 124.271842 44.197593 
L 126.870755 44.598888 
L 129.469668 45.00606 
L 132.068582 45.419403 
L 134.667495 45.839226 
L 137.266409 46.265853 
L 139.865322 46.699628 
L 142.464235 47.140907 
L 145.063149 47.590067 
L 147.662062 48.047503 
L 150.260976 48.513631 
L 152.859889 48.988886 
L 155.458802 49.473726 
L 158.057716 49.968632 
L 160.656629 50.474107 
L 163.255542 50.990683 
L 165.854456 51.518916 
L 168.453369 52.059391 
L 171.052283 52.612721 
L 173.651196 53.179551 
L 176.250109 53.760558 
L 178.849023 54.356453 
L 181.447936 54.967983 
L 184.04685 55.595932 
L 186.645763 56.241122 
L 189.244676 56.904419 
L 191.84359 57.586731 
L 194.442503 58.28901 
L 197.041416 59.012259 
L 199.64033 59.75753 
L 202.239243 60.525925 
L 204.838157 61.318605 
L 207.43707 62.136788 
L 210.035983 62.981753 
L 212.634897 63.854842 
L 215.23381 64.757466 
L 217.832724 65.691107 
L 220.431637 66.657318 
L 223.03055 67.657735 
L 225.629464 68.694071 
L 228.228377 69.768129 
L 230.82729 70.8818 
L 233.426204 72.03707 
L 236.025117 73.236026 
L 238.624031 74.480857 
L 241.222944 75.773866 
L 243.821857 77.117467 
L 246.420771 78.514197 
L 249.019684 79.966722 
L 251.618597 81.477838 
L 254.217511 83.050484 
L 256.816424 84.687746 
L 259.415338 86.392864 
L 262.014251 88.16924 
L 264.613164 90.020447 
L 267.212078 91.95024 
L 269.810991 93.962557 
L 272.409905 96.061539 
L 275.008818 98.251529 
L 277.607731 100.537093 
L 280.206645 102.923024 
L 282.805558 105.414353 
L 285.404471 108.016366 
L 288.003385 110.734615 
L 290.602298 113.574927 
L 293.201212 116.543424 
L 295.800125 119.646535 
L 298.399038 122.891008 
L 300.997952 126.283934 
L 303.596865 129.832756 
L 306.195779 133.545293 
L 308.794692 137.429753 
L 311.393605 141.49476 
L 313.992519 145.749365 
L 316.591432 150.203078 
L 319.190345 154.865882 
L 321.789259 159.748264 
L 324.388172 164.861233 
L 326.987086 170.216354 
L 329.585999 175.825769 
L 332.184912 181.70223 
" clip-path="url(#p927edbe2b7)" style="fill: none; stroke: #008000; stroke-width: 1.5; stroke-linecap: square"/>
   </g>
   <g id="line2d_61">
    <path d="M 74.892487 37.572584 
L 77.491401 37.895251 
L 80.090314 38.220275 
L 82.689228 38.547773 
L 85.288141 38.877871 
L 87.887054 39.210698 
L 90.485968 39.546391 
L 93.084881 39.885094 
L 95.683795 40.226958 
L 98.282708 40.572142 
L 100.881621 40.920811 
L 103.480535 41.273141 
L 106.079448 41.629315 
L 108.678361 41.989526 
L 111.277275 42.353976 
L 113.876188 42.722878 
L 116.475102 43.096456 
L 119.074015 43.474944 
L 121.672928 43.858587 
L 124.271842 44.247645 
L 126.870755 44.642388 
L 129.469668 45.043103 
L 132.068582 45.450089 
L 134.667495 45.863659 
L 137.266409 46.284145 
L 139.865322 46.711892 
L 142.464235 47.147266 
L 145.063149 47.590648 
L 147.662062 48.042441 
L 150.260976 48.503065 
L 152.859889 48.972965 
L 155.458802 49.452604 
L 158.057716 49.942472 
L 160.656629 50.443081 
L 163.255542 50.954969 
L 165.854456 51.478704 
L 168.453369 52.014878 
L 171.052283 52.564115 
L 173.651196 53.127071 
L 176.250109 53.704433 
L 178.849023 54.296924 
L 181.447936 54.905303 
L 184.04685 55.530366 
L 186.645763 56.172949 
L 189.244676 56.833932 
L 191.84359 57.514238 
L 194.442503 58.214834 
L 197.041416 58.936739 
L 199.64033 59.681022 
L 202.239243 60.448803 
L 204.838157 61.241263 
L 207.43707 62.059637 
L 210.035983 62.905227 
L 212.634897 63.779396 
L 215.23381 64.683578 
L 217.832724 65.619278 
L 220.431637 66.588076 
L 223.03055 67.591632 
L 225.629464 68.631689 
L 228.228377 69.710078 
L 230.82729 70.82872 
L 233.426204 71.989635 
L 236.025117 73.194941 
L 238.624031 74.446866 
L 241.222944 75.747747 
L 243.821857 77.100039 
L 246.420771 78.506321 
L 249.019684 79.969298 
L 251.618597 81.491815 
L 254.217511 83.076858 
L 256.816424 84.727561 
L 259.415338 86.447217 
L 262.014251 88.239285 
L 264.613164 90.107395 
L 267.212078 92.055361 
L 269.810991 94.087187 
L 272.409905 96.207079 
L 275.008818 98.419452 
L 277.607731 100.728945 
L 280.206645 103.140427 
L 282.805558 105.659014 
L 285.404471 108.290075 
L 288.003385 111.039252 
L 290.602298 113.912466 
L 293.201212 116.91594 
L 295.800125 120.056203 
L 298.399038 123.340117 
L 300.997952 126.774885 
L 303.596865 130.368071 
L 306.195779 134.127619 
L 308.794692 138.061873 
L 311.393605 142.179593 
L 313.992519 146.489979 
L 316.591432 151.002693 
L 319.190345 155.727882 
L 321.789259 160.676199 
L 324.388172 165.858834 
L 326.987086 171.287538 
L 329.585999 176.974649 
L 332.184912 182.933127 
" clip-path="url(#p927edbe2b7)" style="fill: none; stroke-dasharray: 1.5,2.475; stroke-dashoffset: 0; stroke: #000000; stroke-width: 1.5"/>
   </g>
   <g id="line2d_62">
    <path d="M 73.593031 38.747361 
L 88.880757 40.442695 
L 104.168482 42.183015 
L 119.456208 44.027557 
L 134.743934 46.055751 
L 150.03166 48.369849 
L 165.319385 51.094812 
L 180.607111 54.373436 
L 195.894837 58.354999 
L 211.182563 63.177292 
L 226.470289 68.944022 
L 241.758014 75.700635 
L 257.04574 83.411282 
L 272.333466 91.939713 
L 287.621192 101.033345 
L 302.908917 110.298504 
L 318.196643 119.164488 
L 333.484369 126.872865 
" clip-path="url(#p927edbe2b7)" style="fill: none; stroke: #00008b; stroke-opacity: 0.7; stroke-width: 1.5; stroke-linecap: square"/>
   </g>
   <g id="patch_3">
    <path d="M 60.468889 190.4328 
L 60.468889 25.44 
" style="fill: none; stroke: #000000; stroke-width: 0.8; stroke-linejoin: miter; stroke-linecap: square"/>
   </g>
   <g id="patch_4">
    <path d="M 349.2 190.4328 
L 349.2 25.44 
" style="fill: none; stroke: #000000; stroke-width: 0.8; stroke-linejoin: miter; stroke-linecap: square"/>
   </g>
   <g id="patch_5">
    <path d="M 60.468889 190.4328 
L 349.2 190.4328 
" style="fill: none; stroke: #000000; stroke-width: 0.8; stroke-linejoin: miter; stroke-linecap: square"/>
   </g>
   <g id="patch_6">
    <path d="M 60.468889 25.44 
L 349.2 25.44 
" style="fill: none; stroke: #000000; stroke-width: 0.8; stroke-linejoin: miter; stroke-linecap: square"/>
   </g>
   <g id="text_6">
    <!-- N = 800 (p = 5.82%) -->
    <g transform="translate(141.751945 19.44) scale(0.12 -0.12)">
     <defs>
      <path id="DejaVuSans-4e" d="M 628 4666 
L 1478 4666 
L 3547 763 
L 3547 4666 
L 4159 4666 
L 4159 0 
L 3309 0 
L 1241 3903 
L 1241 0 
L 628 0 
L 628 4666 
z
" transform="scale(0.015625)"/>
      <path id="DejaVuSans-3d" d="M 678 2906 
L 4684 2906 
L 4684 2381 
L 678 2381 
L 678 2906 
z
M 678 1631 
L 4684 1631 
L 4684 1100 
L 678 1100 
L 678 1631 
z
" transform="scale(0.015625)"/>
      <path id="DejaVuSans-38" d="M 2034 2216 
Q 1584 2216 1326 1975 
Q 1069 1734 1069 1313 
Q 1069 891 1326 650 
Q 1584 409 2034 409 
Q 2484 409 2743 651 
Q 3003 894 3003 1313 
Q 3003 1734 2745 1975 
Q 2488 2216 2034 2216 
z
M 1403 2484 
Q 997 2584 770 2862 
Q 544 3141 544 3541 
Q 544 4100 942 4425 
Q 1341 4750 2034 4750 
Q 2731 4750 3128 4425 
Q 3525 4100 3525 3541 
Q 3525 3141 3298 2862 
Q 3072 2584 2669 2484 
Q 3125 2378 3379 2068 
Q 3634 1759 3634 1313 
Q 3634 634 3220 271 
Q 2806 -91 2034 -91 
Q 1263 -91 848 271 
Q 434 634 434 1313 
Q 434 1759 690 2068 
Q 947 2378 1403 2484 
z
M 1172 3481 
Q 1172 3119 1398 2916 
Q 1625 2713 2034 2713 
Q 2441 2713 2670 2916 
Q 2900 3119 2900 3481 
Q 2900 3844 2670 4047 
Q 2441 4250 2034 4250 
Q 1625 4250 1398 4047 
Q 1172 3844 1172 3481 
z
" transform="scale(0.015625)"/>
      <path id="DejaVuSans-70" d="M 1159 525 
L 1159 -1331 
L 581 -1331 
L 581 3500 
L 1159 3500 
L 1159 2969 
Q 1341 3281 1617 3432 
Q 1894 3584 2278 3584 
Q 2916 3584 3314 3078 
Q 3713 2572 3713 1747 
Q 3713 922 3314 415 
Q 2916 -91 2278 -91 
Q 1894 -91 1617 61 
Q 1341 213 1159 525 
z
M 3116 1747 
Q 3116 2381 2855 2742 
Q 2594 3103 2138 3103 
Q 1681 3103 1420 2742 
Q 1159 2381 1159 1747 
Q 1159 1113 1420 752 
Q 1681 391 2138 391 
Q 2594 391 2855 752 
Q 3116 1113 3116 1747 
z
" transform="scale(0.015625)"/>
      <path id="DejaVuSans-2e" d="M 684 794 
L 1344 794 
L 1344 0 
L 684 0 
L 684 794 
z
" transform="scale(0.015625)"/>
      <path id="DejaVuSans-25" d="M 4653 2053 
Q 4381 2053 4226 1822 
Q 4072 1591 4072 1178 
Q 4072 772 4226 539 
Q 4381 306 4653 306 
Q 4919 306 5073 539 
Q 5228 772 5228 1178 
Q 5228 1588 5073 1820 
Q 4919 2053 4653 2053 
z
M 4653 2450 
Q 5147 2450 5437 2106 
Q 5728 1763 5728 1178 
Q 5728 594 5436 251 
Q 5144 -91 4653 -91 
Q 4153 -91 3862 251 
Q 3572 594 3572 1178 
Q 3572 1766 3864 2108 
Q 4156 2450 4653 2450 
z
M 1428 4353 
Q 1159 4353 1004 4120 
Q 850 3888 850 3481 
Q 850 3069 1003 2837 
Q 1156 2606 1428 2606 
Q 1700 2606 1854 2837 
Q 2009 3069 2009 3481 
Q 2009 3884 1853 4118 
Q 1697 4353 1428 4353 
z
M 4250 4750 
L 4750 4750 
L 1831 -91 
L 1331 -91 
L 4250 4750 
z
M 1428 4750 
Q 1922 4750 2215 4408 
Q 2509 4066 2509 3481 
Q 2509 2891 2217 2550 
Q 1925 2209 1428 2209 
Q 931 2209 642 2551 
Q 353 2894 353 3481 
Q 353 4063 643 4406 
Q 934 4750 1428 4750 
z
" transform="scale(0.015625)"/>
     </defs>
     <use xlink:href="#DejaVuSans-4e"/>
     <use xlink:href="#DejaVuSans-20" x="74.804688"/>
     <use xlink:href="#DejaVuSans-3d" x="106.591797"/>
     <use xlink:href="#DejaVuSans-20" x="190.380859"/>
     <use xlink:href="#DejaVuSans-38" x="222.167969"/>
     <use xlink:href="#DejaVuSans-30" x="285.791016"/>
     <use xlink:href="#DejaVuSans-30" x="349.414062"/>
     <use xlink:href="#DejaVuSans-20" x="413.037109"/>
     <use xlink:href="#DejaVuSans-28" x="444.824219"/>
     <use xlink:href="#DejaVuSans-70" x="483.837891"/>
     <use xlink:href="#DejaVuSans-20" x="547.314453"/>
     <use xlink:href="#DejaVuSans-3d" x="579.101562"/>
     <use xlink:href="#DejaVuSans-20" x="662.890625"/>
     <use xlink:href="#DejaVuSans-35" x="694.677734"/>
     <use xlink:href="#DejaVuSans-2e" x="758.300781"/>
     <use xlink:href="#DejaVuSans-38" x="790.087891"/>
     <use xlink:href="#DejaVuSans-32" x="853.710938"/>
     <use xlink:href="#DejaVuSans-25" x="917.333984"/>
     <use xlink:href="#DejaVuSans-29" x="1012.353516"/>
    </g>
   </g>
   <g id="legend_1">
    <g id="patch_7">
     <path d="M 67.468889 185.4328 
L 168.503264 185.4328 
Q 170.503264 185.4328 170.503264 183.4328 
L 170.503264 125.7203 
Q 170.503264 123.7203 168.503264 123.7203 
L 67.468889 123.7203 
Q 65.468889 123.7203 65.468889 125.7203 
L 65.468889 183.4328 
Q 65.468889 185.4328 67.468889 185.4328 
z
" style="fill: #ffffff; opacity: 0.8; stroke: #cccccc; stroke-linejoin: miter"/>
    </g>
    <g id="patch_8">
     <path d="M 69.468889 135.318737 
L 89.468889 135.318737 
L 89.468889 128.318737 
L 69.468889 128.318737 
z
" style="fill: #ff0000; fill-opacity: 0.5"/>
    </g>
    <g id="text_7">
     <!-- $1\sigma$ Standard -->
     <g transform="translate(97.468889 135.318737) scale(0.1 -0.1)">
      <defs>
       <path id="DejaVuSans-Oblique-3c3" d="M 2219 3044 
Q 1744 3044 1422 2700 
Q 1081 2341 969 1747 
Q 844 1119 1044 756 
Q 1241 397 1706 397 
Q 2166 397 2503 759 
Q 2844 1122 2966 1747 
Q 3075 2319 2881 2700 
Q 2700 3044 2219 3044 
z
M 2309 3503 
L 4219 3500 
L 4106 2925 
L 3463 2925 
Q 3706 2438 3575 1747 
Q 3406 888 2884 400 
Q 2359 -91 1609 -91 
Q 856 -91 525 400 
Q 194 888 363 1747 
Q 528 2609 1050 3097 
Q 1484 3503 2309 3503 
z
" transform="scale(0.015625)"/>
       <path id="DejaVuSans-53" d="M 3425 4513 
L 3425 3897 
Q 3066 4069 2747 4153 
Q 2428 4238 2131 4238 
Q 1616 4238 1336 4038 
Q 1056 3838 1056 3469 
Q 1056 3159 1242 3001 
Q 1428 2844 1947 2747 
L 2328 2669 
Q 3034 2534 3370 2195 
Q 3706 1856 3706 1288 
Q 3706 609 3251 259 
Q 2797 -91 1919 -91 
Q 1588 -91 1214 -16 
Q 841 59 441 206 
L 441 856 
Q 825 641 1194 531 
Q 1563 422 1919 422 
Q 2459 422 2753 634 
Q 3047 847 3047 1241 
Q 3047 1584 2836 1778 
Q 2625 1972 2144 2069 
L 1759 2144 
Q 1053 2284 737 2584 
Q 422 2884 422 3419 
Q 422 4038 858 4394 
Q 1294 4750 2059 4750 
Q 2388 4750 2728 4690 
Q 3069 4631 3425 4513 
z
" transform="scale(0.015625)"/>
       <path id="DejaVuSans-74" d="M 1172 4494 
L 1172 3500 
L 2356 3500 
L 2356 3053 
L 1172 3053 
L 1172 1153 
Q 1172 725 1289 603 
Q 1406 481 1766 481 
L 2356 481 
L 2356 0 
L 1766 0 
Q 1100 0 847 248 
Q 594 497 594 1153 
L 594 3053 
L 172 3053 
L 172 3500 
L 594 3500 
L 594 4494 
L 1172 4494 
z
" transform="scale(0.015625)"/>
       <path id="DejaVuSans-61" d="M 2194 1759 
Q 1497 1759 1228 1600 
Q 959 1441 959 1056 
Q 959 750 1161 570 
Q 1363 391 1709 391 
Q 2188 391 2477 730 
Q 2766 1069 2766 1631 
L 2766 1759 
L 2194 1759 
z
M 3341 1997 
L 3341 0 
L 2766 0 
L 2766 531 
Q 2569 213 2275 61 
Q 1981 -91 1556 -91 
Q 1019 -91 701 211 
Q 384 513 384 1019 
Q 384 1609 779 1909 
Q 1175 2209 1959 2209 
L 2766 2209 
L 2766 2266 
Q 2766 2663 2505 2880 
Q 2244 3097 1772 3097 
Q 1472 3097 1187 3025 
Q 903 2953 641 2809 
L 641 3341 
Q 956 3463 1253 3523 
Q 1550 3584 1831 3584 
Q 2591 3584 2966 3190 
Q 3341 2797 3341 1997 
z
" transform="scale(0.015625)"/>
       <path id="DejaVuSans-72" d="M 2631 2963 
Q 2534 3019 2420 3045 
Q 2306 3072 2169 3072 
Q 1681 3072 1420 2755 
Q 1159 2438 1159 1844 
L 1159 0 
L 581 0 
L 581 3500 
L 1159 3500 
L 1159 2956 
Q 1341 3275 1631 3429 
Q 1922 3584 2338 3584 
Q 2397 3584 2469 3576 
Q 2541 3569 2628 3553 
L 2631 2963 
z
" transform="scale(0.015625)"/>
      </defs>
      <use xlink:href="#DejaVuSans-31" transform="translate(0 0.015625)"/>
      <use xlink:href="#DejaVuSans-Oblique-3c3" transform="translate(63.623047 0.015625)"/>
      <use xlink:href="#DejaVuSans-20" transform="translate(127.001953 0.015625)"/>
      <use xlink:href="#DejaVuSans-53" transform="translate(158.789062 0.015625)"/>
      <use xlink:href="#DejaVuSans-74" transform="translate(222.265625 0.015625)"/>
      <use xlink:href="#DejaVuSans-61" transform="translate(261.474609 0.015625)"/>
      <use xlink:href="#DejaVuSans-6e" transform="translate(322.753906 0.015625)"/>
      <use xlink:href="#DejaVuSans-64" transform="translate(386.132812 0.015625)"/>
      <use xlink:href="#DejaVuSans-61" transform="translate(449.609375 0.015625)"/>
      <use xlink:href="#DejaVuSans-72" transform="translate(510.888672 0.015625)"/>
      <use xlink:href="#DejaVuSans-64" transform="translate(552.001953 0.015625)"/>
     </g>
    </g>
    <g id="patch_9">
     <path d="M 69.468889 149.996862 
L 89.468889 149.996862 
L 89.468889 142.996862 
L 69.468889 142.996862 
z
" style="fill: #008000; fill-opacity: 0.5"/>
    </g>
    <g id="text_8">
     <!-- $1\sigma$ Nuisance -->
     <g transform="translate(97.468889 149.996862) scale(0.1 -0.1)">
      <defs>
       <path id="DejaVuSans-75" d="M 544 1381 
L 544 3500 
L 1119 3500 
L 1119 1403 
Q 1119 906 1312 657 
Q 1506 409 1894 409 
Q 2359 409 2629 706 
Q 2900 1003 2900 1516 
L 2900 3500 
L 3475 3500 
L 3475 0 
L 2900 0 
L 2900 538 
Q 2691 219 2414 64 
Q 2138 -91 1772 -91 
Q 1169 -91 856 284 
Q 544 659 544 1381 
z
M 1991 3584 
L 1991 3584 
z
" transform="scale(0.015625)"/>
       <path id="DejaVuSans-69" d="M 603 3500 
L 1178 3500 
L 1178 0 
L 603 0 
L 603 3500 
z
M 603 4863 
L 1178 4863 
L 1178 4134 
L 603 4134 
L 603 4863 
z
" transform="scale(0.015625)"/>
      </defs>
      <use xlink:href="#DejaVuSans-31" transform="translate(0 0.015625)"/>
      <use xlink:href="#DejaVuSans-Oblique-3c3" transform="translate(63.623047 0.015625)"/>
      <use xlink:href="#DejaVuSans-20" transform="translate(127.001953 0.015625)"/>
      <use xlink:href="#DejaVuSans-4e" transform="translate(158.789062 0.015625)"/>
      <use xlink:href="#DejaVuSans-75" transform="translate(233.59375 0.015625)"/>
      <use xlink:href="#DejaVuSans-69" transform="translate(296.972656 0.015625)"/>
      <use xlink:href="#DejaVuSans-73" transform="translate(324.755859 0.015625)"/>
      <use xlink:href="#DejaVuSans-61" transform="translate(376.855469 0.015625)"/>
      <use xlink:href="#DejaVuSans-6e" transform="translate(438.134766 0.015625)"/>
      <use xlink:href="#DejaVuSans-63" transform="translate(501.513672 0.015625)"/>
      <use xlink:href="#DejaVuSans-65" transform="translate(556.494141 0.015625)"/>
     </g>
    </g>
    <g id="line2d_63">
     <path d="M 69.468889 161.174987 
L 79.468889 161.174987 
L 89.468889 161.174987 
" style="fill: none; stroke-dasharray: 1.5,2.475; stroke-dashoffset: 0; stroke: #000000; stroke-width: 1.5"/>
    </g>
    <g id="text_9">
     <!-- Input -->
     <g transform="translate(97.468889 164.674987) scale(0.1 -0.1)">
      <defs>
       <path id="DejaVuSans-49" d="M 628 4666 
L 1259 4666 
L 1259 0 
L 628 0 
L 628 4666 
z
" transform="scale(0.015625)"/>
      </defs>
      <use xlink:href="#DejaVuSans-49"/>
      <use xlink:href="#DejaVuSans-6e" x="29.492188"/>
      <use xlink:href="#DejaVuSans-70" x="92.871094"/>
      <use xlink:href="#DejaVuSans-75" x="156.347656"/>
      <use xlink:href="#DejaVuSans-74" x="219.726562"/>
     </g>
    </g>
    <g id="LineCollection_2">
     <path d="M 79.468889 180.853113 
L 79.468889 170.853113 
" style="fill: none; stroke: #00008b; stroke-opacity: 0.7; stroke-width: 1.5"/>
    </g>
    <g id="line2d_64">
     <path d="M 69.468889 175.853113 
L 89.468889 175.853113 
" style="fill: none; stroke: #00008b; stroke-opacity: 0.7; stroke-width: 1.5; stroke-linecap: square"/>
    </g>
    <g id="line2d_65"/>
    <g id="text_10">
     <!-- Mean and Std -->
     <g transform="translate(97.468889 179.353113) scale(0.1 -0.1)">
      <defs>
       <path id="DejaVuSans-4d" d="M 628 4666 
L 1569 4666 
L 2759 1491 
L 3956 4666 
L 4897 4666 
L 4897 0 
L 4281 0 
L 4281 4097 
L 3078 897 
L 2444 897 
L 1241 4097 
L 1241 0 
L 628 0 
L 628 4666 
z
" transform="scale(0.015625)"/>
      </defs>
      <use xlink:href="#DejaVuSans-4d"/>
      <use xlink:href="#DejaVuSans-65" x="86.279297"/>
      <use xlink:href="#DejaVuSans-61" x="147.802734"/>
      <use xlink:href="#DejaVuSans-6e" x="209.082031"/>
      <use xlink:href="#DejaVuSans-20" x="272.460938"/>
      <use xlink:href="#DejaVuSans-61" x="304.248047"/>
      <use xlink:href="#DejaVuSans-6e" x="365.527344"/>
      <use xlink:href="#DejaVuSans-64" x="428.90625"/>
      <use xlink:href="#DejaVuSans-20" x="492.382812"/>
      <use xlink:href="#DejaVuSans-53" x="524.169922"/>
      <use xlink:href="#DejaVuSans-74" x="587.646484"/>
      <use xlink:href="#DejaVuSans-64" x="626.855469"/>
     </g>
    </g>
   </g>
  </g>
  <g id="axes_2">
   <g id="patch_10">
    <path d="M 60.468889 314.728 
L 349.2 314.728 
L 349.2 204.7328 
L 60.468889 204.7328 
z
" style="fill: #ffffff"/>
   </g>
   <g id="matplotlib.axis_3">
    <g id="xtick_24">
     <g id="line2d_66">
      <g>
       <use xlink:href="#m53eb77b657" x="111.812345" y="314.728" style="stroke: #000000; stroke-width: 0.8"/>
      </g>
     </g>
     <g id="text_11">
      <!-- $\mathdefault{10^{0}}$ -->
      <g transform="translate(103.012345 329.326437) scale(0.1 -0.1)">
       <use xlink:href="#DejaVuSans-31" transform="translate(0 0.765625)"/>
       <use xlink:href="#DejaVuSans-30" transform="translate(63.623047 0.765625)"/>
       <use xlink:href="#DejaVuSans-30" transform="translate(128.203125 39.046875) scale(0.7)"/>
      </g>
     </g>
    </g>
    <g id="xtick_25">
     <g id="line2d_67">
      <g>
       <use xlink:href="#m53eb77b657" x="234.114151" y="314.728" style="stroke: #000000; stroke-width: 0.8"/>
      </g>
     </g>
     <g id="text_12">
      <!-- $\mathdefault{10^{1}}$ -->
      <g transform="translate(225.314151 329.326437) scale(0.1 -0.1)">
       <use xlink:href="#DejaVuSans-31" transform="translate(0 0.684375)"/>
       <use xlink:href="#DejaVuSans-30" transform="translate(63.623047 0.684375)"/>
       <use xlink:href="#DejaVuSans-31" transform="translate(128.203125 38.965625) scale(0.7)"/>
      </g>
     </g>
    </g>
    <g id="xtick_26">
     <g id="line2d_68">
      <g>
       <use xlink:href="#me1943d38cd" x="63.143563" y="314.728" style="stroke: #000000; stroke-width: 0.6"/>
      </g>
     </g>
    </g>
    <g id="xtick_27">
     <g id="line2d_69">
      <g>
       <use xlink:href="#me1943d38cd" x="74.995833" y="314.728" style="stroke: #000000; stroke-width: 0.6"/>
      </g>
     </g>
    </g>
    <g id="xtick_28">
     <g id="line2d_70">
      <g>
       <use xlink:href="#me1943d38cd" x="84.679842" y="314.728" style="stroke: #000000; stroke-width: 0.6"/>
      </g>
     </g>
    </g>
    <g id="xtick_29">
     <g id="line2d_71">
      <g>
       <use xlink:href="#me1943d38cd" x="92.867556" y="314.728" style="stroke: #000000; stroke-width: 0.6"/>
      </g>
     </g>
    </g>
    <g id="xtick_30">
     <g id="line2d_72">
      <g>
       <use xlink:href="#me1943d38cd" x="99.960076" y="314.728" style="stroke: #000000; stroke-width: 0.6"/>
      </g>
     </g>
    </g>
    <g id="xtick_31">
     <g id="line2d_73">
      <g>
       <use xlink:href="#me1943d38cd" x="106.216121" y="314.728" style="stroke: #000000; stroke-width: 0.6"/>
      </g>
     </g>
    </g>
    <g id="xtick_32">
     <g id="line2d_74">
      <g>
       <use xlink:href="#me1943d38cd" x="148.628857" y="314.728" style="stroke: #000000; stroke-width: 0.6"/>
      </g>
     </g>
    </g>
    <g id="xtick_33">
     <g id="line2d_75">
      <g>
       <use xlink:href="#me1943d38cd" x="170.165136" y="314.728" style="stroke: #000000; stroke-width: 0.6"/>
      </g>
     </g>
    </g>
    <g id="xtick_34">
     <g id="line2d_76">
      <g>
       <use xlink:href="#me1943d38cd" x="185.44537" y="314.728" style="stroke: #000000; stroke-width: 0.6"/>
      </g>
     </g>
    </g>
    <g id="xtick_35">
     <g id="line2d_77">
      <g>
       <use xlink:href="#me1943d38cd" x="197.297639" y="314.728" style="stroke: #000000; stroke-width: 0.6"/>
      </g>
     </g>
    </g>
    <g id="xtick_36">
     <g id="line2d_78">
      <g>
       <use xlink:href="#me1943d38cd" x="206.981649" y="314.728" style="stroke: #000000; stroke-width: 0.6"/>
      </g>
     </g>
    </g>
    <g id="xtick_37">
     <g id="line2d_79">
      <g>
       <use xlink:href="#me1943d38cd" x="215.169362" y="314.728" style="stroke: #000000; stroke-width: 0.6"/>
      </g>
     </g>
    </g>
    <g id="xtick_38">
     <g id="line2d_80">
      <g>
       <use xlink:href="#me1943d38cd" x="222.261882" y="314.728" style="stroke: #000000; stroke-width: 0.6"/>
      </g>
     </g>
    </g>
    <g id="xtick_39">
     <g id="line2d_81">
      <g>
       <use xlink:href="#me1943d38cd" x="228.517928" y="314.728" style="stroke: #000000; stroke-width: 0.6"/>
      </g>
     </g>
    </g>
    <g id="xtick_40">
     <g id="line2d_82">
      <g>
       <use xlink:href="#me1943d38cd" x="270.930664" y="314.728" style="stroke: #000000; stroke-width: 0.6"/>
      </g>
     </g>
    </g>
    <g id="xtick_41">
     <g id="line2d_83">
      <g>
       <use xlink:href="#me1943d38cd" x="292.466943" y="314.728" style="stroke: #000000; stroke-width: 0.6"/>
      </g>
     </g>
    </g>
    <g id="xtick_42">
     <g id="line2d_84">
      <g>
       <use xlink:href="#me1943d38cd" x="307.747176" y="314.728" style="stroke: #000000; stroke-width: 0.6"/>
      </g>
     </g>
    </g>
    <g id="xtick_43">
     <g id="line2d_85">
      <g>
       <use xlink:href="#me1943d38cd" x="319.599446" y="314.728" style="stroke: #000000; stroke-width: 0.6"/>
      </g>
     </g>
    </g>
    <g id="xtick_44">
     <g id="line2d_86">
      <g>
       <use xlink:href="#me1943d38cd" x="329.283455" y="314.728" style="stroke: #000000; stroke-width: 0.6"/>
      </g>
     </g>
    </g>
    <g id="xtick_45">
     <g id="line2d_87">
      <g>
       <use xlink:href="#me1943d38cd" x="337.471168" y="314.728" style="stroke: #000000; stroke-width: 0.6"/>
      </g>
     </g>
    </g>
    <g id="xtick_46">
     <g id="line2d_88">
      <g>
       <use xlink:href="#me1943d38cd" x="344.563688" y="314.728" style="stroke: #000000; stroke-width: 0.6"/>
      </g>
     </g>
    </g>
    <g id="text_13">
     <!-- Energy [TeV] -->
     <g transform="translate(173.136788 343.004563) scale(0.1 -0.1)">
      <defs>
       <path id="DejaVuSans-45" d="M 628 4666 
L 3578 4666 
L 3578 4134 
L 1259 4134 
L 1259 2753 
L 3481 2753 
L 3481 2222 
L 1259 2222 
L 1259 531 
L 3634 531 
L 3634 0 
L 628 0 
L 628 4666 
z
" transform="scale(0.015625)"/>
       <path id="DejaVuSans-67" d="M 2906 1791 
Q 2906 2416 2648 2759 
Q 2391 3103 1925 3103 
Q 1463 3103 1205 2759 
Q 947 2416 947 1791 
Q 947 1169 1205 825 
Q 1463 481 1925 481 
Q 2391 481 2648 825 
Q 2906 1169 2906 1791 
z
M 3481 434 
Q 3481 -459 3084 -895 
Q 2688 -1331 1869 -1331 
Q 1566 -1331 1297 -1286 
Q 1028 -1241 775 -1147 
L 775 -588 
Q 1028 -725 1275 -790 
Q 1522 -856 1778 -856 
Q 2344 -856 2625 -561 
Q 2906 -266 2906 331 
L 2906 616 
Q 2728 306 2450 153 
Q 2172 0 1784 0 
Q 1141 0 747 490 
Q 353 981 353 1791 
Q 353 2603 747 3093 
Q 1141 3584 1784 3584 
Q 2172 3584 2450 3431 
Q 2728 3278 2906 2969 
L 2906 3500 
L 3481 3500 
L 3481 434 
z
" transform="scale(0.015625)"/>
       <path id="DejaVuSans-79" d="M 2059 -325 
Q 1816 -950 1584 -1140 
Q 1353 -1331 966 -1331 
L 506 -1331 
L 506 -850 
L 844 -850 
Q 1081 -850 1212 -737 
Q 1344 -625 1503 -206 
L 1606 56 
L 191 3500 
L 800 3500 
L 1894 763 
L 2988 3500 
L 3597 3500 
L 2059 -325 
z
" transform="scale(0.015625)"/>
      </defs>
      <use xlink:href="#DejaVuSans-45"/>
      <use xlink:href="#DejaVuSans-6e" x="63.183594"/>
      <use xlink:href="#DejaVuSans-65" x="126.5625"/>
      <use xlink:href="#DejaVuSans-72" x="188.085938"/>
      <use xlink:href="#DejaVuSans-67" x="227.449219"/>
      <use xlink:href="#DejaVuSans-79" x="290.925781"/>
      <use xlink:href="#DejaVuSans-20" x="350.105469"/>
      <use xlink:href="#DejaVuSans-5b" x="381.892578"/>
      <use xlink:href="#DejaVuSans-54" x="420.90625"/>
      <use xlink:href="#DejaVuSans-65" x="464.990234"/>
      <use xlink:href="#DejaVuSans-56" x="526.513672"/>
      <use xlink:href="#DejaVuSans-5d" x="594.921875"/>
     </g>
    </g>
   </g>
   <g id="matplotlib.axis_4">
    <g id="ytick_36">
     <g id="line2d_89">
      <g>
       <use xlink:href="#m0abbb3cd2d" x="60.468889" y="307.710475" style="stroke: #000000; stroke-width: 0.8"/>
      </g>
     </g>
     <g id="text_14">
      <!-- 0.6 -->
      <g transform="translate(37.565764 311.509694) scale(0.1 -0.1)">
       <defs>
        <path id="DejaVuSans-36" d="M 2113 2584 
Q 1688 2584 1439 2293 
Q 1191 2003 1191 1497 
Q 1191 994 1439 701 
Q 1688 409 2113 409 
Q 2538 409 2786 701 
Q 3034 994 3034 1497 
Q 3034 2003 2786 2293 
Q 2538 2584 2113 2584 
z
M 3366 4563 
L 3366 3988 
Q 3128 4100 2886 4159 
Q 2644 4219 2406 4219 
Q 1781 4219 1451 3797 
Q 1122 3375 1075 2522 
Q 1259 2794 1537 2939 
Q 1816 3084 2150 3084 
Q 2853 3084 3261 2657 
Q 3669 2231 3669 1497 
Q 3669 778 3244 343 
Q 2819 -91 2113 -91 
Q 1303 -91 875 529 
Q 447 1150 447 2328 
Q 447 3434 972 4092 
Q 1497 4750 2381 4750 
Q 2619 4750 2861 4703 
Q 3103 4656 3366 4563 
z
" transform="scale(0.015625)"/>
       </defs>
       <use xlink:href="#DejaVuSans-30"/>
       <use xlink:href="#DejaVuSans-2e" x="63.623047"/>
       <use xlink:href="#DejaVuSans-36" x="95.410156"/>
      </g>
     </g>
    </g>
    <g id="ytick_37">
     <g id="line2d_90">
      <g>
       <use xlink:href="#m0abbb3cd2d" x="60.468889" y="264.823257" style="stroke: #000000; stroke-width: 0.8"/>
      </g>
     </g>
     <g id="text_15">
      <!-- 0.8 -->
      <g transform="translate(37.565764 268.622476) scale(0.1 -0.1)">
       <use xlink:href="#DejaVuSans-30"/>
       <use xlink:href="#DejaVuSans-2e" x="63.623047"/>
       <use xlink:href="#DejaVuSans-38" x="95.410156"/>
      </g>
     </g>
    </g>
    <g id="ytick_38">
     <g id="line2d_91">
      <g>
       <use xlink:href="#m0abbb3cd2d" x="60.468889" y="221.936039" style="stroke: #000000; stroke-width: 0.8"/>
      </g>
     </g>
     <g id="text_16">
      <!-- 1.0 -->
      <g transform="translate(37.565764 225.735258) scale(0.1 -0.1)">
       <use xlink:href="#DejaVuSans-31"/>
       <use xlink:href="#DejaVuSans-2e" x="63.623047"/>
       <use xlink:href="#DejaVuSans-30" x="95.410156"/>
      </g>
     </g>
    </g>
    <g id="text_17">
     <!-- Coverage -->
     <g transform="translate(31.486077 283.687431) rotate(-90) scale(0.1 -0.1)">
      <defs>
       <path id="DejaVuSans-43" d="M 4122 4306 
L 4122 3641 
Q 3803 3938 3442 4084 
Q 3081 4231 2675 4231 
Q 1875 4231 1450 3742 
Q 1025 3253 1025 2328 
Q 1025 1406 1450 917 
Q 1875 428 2675 428 
Q 3081 428 3442 575 
Q 3803 722 4122 1019 
L 4122 359 
Q 3791 134 3420 21 
Q 3050 -91 2638 -91 
Q 1578 -91 968 557 
Q 359 1206 359 2328 
Q 359 3453 968 4101 
Q 1578 4750 2638 4750 
Q 3056 4750 3426 4639 
Q 3797 4528 4122 4306 
z
" transform="scale(0.015625)"/>
       <path id="DejaVuSans-6f" d="M 1959 3097 
Q 1497 3097 1228 2736 
Q 959 2375 959 1747 
Q 959 1119 1226 758 
Q 1494 397 1959 397 
Q 2419 397 2687 759 
Q 2956 1122 2956 1747 
Q 2956 2369 2687 2733 
Q 2419 3097 1959 3097 
z
M 1959 3584 
Q 2709 3584 3137 3096 
Q 3566 2609 3566 1747 
Q 3566 888 3137 398 
Q 2709 -91 1959 -91 
Q 1206 -91 779 398 
Q 353 888 353 1747 
Q 353 2609 779 3096 
Q 1206 3584 1959 3584 
z
" transform="scale(0.015625)"/>
       <path id="DejaVuSans-76" d="M 191 3500 
L 800 3500 
L 1894 563 
L 2988 3500 
L 3597 3500 
L 2284 0 
L 1503 0 
L 191 3500 
z
" transform="scale(0.015625)"/>
      </defs>
      <use xlink:href="#DejaVuSans-43"/>
      <use xlink:href="#DejaVuSans-6f" x="69.824219"/>
      <use xlink:href="#DejaVuSans-76" x="131.005859"/>
      <use xlink:href="#DejaVuSans-65" x="190.185547"/>
      <use xlink:href="#DejaVuSans-72" x="251.708984"/>
      <use xlink:href="#DejaVuSans-61" x="292.822266"/>
      <use xlink:href="#DejaVuSans-67" x="354.101562"/>
      <use xlink:href="#DejaVuSans-65" x="417.578125"/>
     </g>
    </g>
   </g>
   <g id="LineCollection_3">
    <path d="M 76.18452 309.728218 
L 76.18452 284.785213 
" clip-path="url(#pee5def11ef)" style="fill: none; stroke: #ff0000; stroke-width: 1.5"/>
    <path d="M 91.472246 306.779722 
L 91.472246 281.836717 
" clip-path="url(#pee5def11ef)" style="fill: none; stroke: #ff0000; stroke-width: 1.5"/>
    <path d="M 106.759972 289.624835 
L 106.759972 264.681829 
" clip-path="url(#pee5def11ef)" style="fill: none; stroke: #ff0000; stroke-width: 1.5"/>
    <path d="M 122.047698 262.016189 
L 122.047698 237.073183 
" clip-path="url(#pee5def11ef)" style="fill: none; stroke: #ff0000; stroke-width: 1.5"/>
    <path d="M 137.335423 246.201527 
L 137.335423 221.258522 
" clip-path="url(#pee5def11ef)" style="fill: none; stroke: #ff0000; stroke-width: 1.5"/>
    <path d="M 152.623149 243.521076 
L 152.623149 218.57807 
" clip-path="url(#pee5def11ef)" style="fill: none; stroke: #ff0000; stroke-width: 1.5"/>
    <path d="M 167.910875 239.500399 
L 167.910875 214.557394 
" clip-path="url(#pee5def11ef)" style="fill: none; stroke: #ff0000; stroke-width: 1.5"/>
    <path d="M 183.198601 236.015813 
L 183.198601 211.072807 
" clip-path="url(#pee5def11ef)" style="fill: none; stroke: #ff0000; stroke-width: 1.5"/>
    <path d="M 198.486327 234.675587 
L 198.486327 209.732582 
" clip-path="url(#pee5def11ef)" style="fill: none; stroke: #ff0000; stroke-width: 1.5"/>
    <path d="M 213.774052 234.675587 
L 213.774052 209.732582 
" clip-path="url(#pee5def11ef)" style="fill: none; stroke: #ff0000; stroke-width: 1.5"/>
    <path d="M 229.061778 234.675587 
L 229.061778 209.732582 
" clip-path="url(#pee5def11ef)" style="fill: none; stroke: #ff0000; stroke-width: 1.5"/>
    <path d="M 244.349504 234.675587 
L 244.349504 209.732582 
" clip-path="url(#pee5def11ef)" style="fill: none; stroke: #ff0000; stroke-width: 1.5"/>
    <path d="M 259.63723 234.943632 
L 259.63723 210.000627 
" clip-path="url(#pee5def11ef)" style="fill: none; stroke: #ff0000; stroke-width: 1.5"/>
    <path d="M 274.924955 237.356038 
L 274.924955 212.413033 
" clip-path="url(#pee5def11ef)" style="fill: none; stroke: #ff0000; stroke-width: 1.5"/>
    <path d="M 290.212681 246.737617 
L 290.212681 221.794612 
" clip-path="url(#pee5def11ef)" style="fill: none; stroke: #ff0000; stroke-width: 1.5"/>
    <path d="M 305.500407 263.892504 
L 305.500407 238.949499 
" clip-path="url(#pee5def11ef)" style="fill: none; stroke: #ff0000; stroke-width: 1.5"/>
    <path d="M 320.788133 276.490624 
L 320.788133 251.547619 
" clip-path="url(#pee5def11ef)" style="fill: none; stroke: #ff0000; stroke-width: 1.5"/>
    <path d="M 336.075859 286.676339 
L 336.075859 261.733333 
" clip-path="url(#pee5def11ef)" style="fill: none; stroke: #ff0000; stroke-width: 1.5"/>
   </g>
   <g id="LineCollection_4">
    <path d="M 73.593031 301.686865 
L 73.593031 276.743859 
" clip-path="url(#pee5def11ef)" style="fill: none; stroke: #008000; stroke-width: 1.5"/>
    <path d="M 88.880757 290.42897 
L 88.880757 265.485965 
" clip-path="url(#pee5def11ef)" style="fill: none; stroke: #008000; stroke-width: 1.5"/>
    <path d="M 104.168482 275.150399 
L 104.168482 250.207394 
" clip-path="url(#pee5def11ef)" style="fill: none; stroke: #008000; stroke-width: 1.5"/>
    <path d="M 119.456208 253.974835 
L 119.456208 229.03183 
" clip-path="url(#pee5def11ef)" style="fill: none; stroke: #008000; stroke-width: 1.5"/>
    <path d="M 134.743934 244.325211 
L 134.743934 219.382206 
" clip-path="url(#pee5def11ef)" style="fill: none; stroke: #008000; stroke-width: 1.5"/>
    <path d="M 150.03166 242.18085 
L 150.03166 217.237845 
" clip-path="url(#pee5def11ef)" style="fill: none; stroke: #008000; stroke-width: 1.5"/>
    <path d="M 165.319385 239.500399 
L 165.319385 214.557394 
" clip-path="url(#pee5def11ef)" style="fill: none; stroke: #008000; stroke-width: 1.5"/>
    <path d="M 180.607111 236.015813 
L 180.607111 211.072807 
" clip-path="url(#pee5def11ef)" style="fill: none; stroke: #008000; stroke-width: 1.5"/>
    <path d="M 195.894837 234.675587 
L 195.894837 209.732582 
" clip-path="url(#pee5def11ef)" style="fill: none; stroke: #008000; stroke-width: 1.5"/>
    <path d="M 211.182563 234.675587 
L 211.182563 209.732582 
" clip-path="url(#pee5def11ef)" style="fill: none; stroke: #008000; stroke-width: 1.5"/>
    <path d="M 226.470289 234.675587 
L 226.470289 209.732582 
" clip-path="url(#pee5def11ef)" style="fill: none; stroke: #008000; stroke-width: 1.5"/>
    <path d="M 241.758014 234.675587 
L 241.758014 209.732582 
" clip-path="url(#pee5def11ef)" style="fill: none; stroke: #008000; stroke-width: 1.5"/>
    <path d="M 257.04574 234.943632 
L 257.04574 210.000627 
" clip-path="url(#pee5def11ef)" style="fill: none; stroke: #008000; stroke-width: 1.5"/>
    <path d="M 272.333466 237.624083 
L 272.333466 212.681078 
" clip-path="url(#pee5def11ef)" style="fill: none; stroke: #008000; stroke-width: 1.5"/>
    <path d="M 287.621192 247.005662 
L 287.621192 222.062657 
" clip-path="url(#pee5def11ef)" style="fill: none; stroke: #008000; stroke-width: 1.5"/>
    <path d="M 302.908917 263.892504 
L 302.908917 238.949499 
" clip-path="url(#pee5def11ef)" style="fill: none; stroke: #008000; stroke-width: 1.5"/>
    <path d="M 318.196643 276.490624 
L 318.196643 251.547619 
" clip-path="url(#pee5def11ef)" style="fill: none; stroke: #008000; stroke-width: 1.5"/>
    <path d="M 333.484369 286.408294 
L 333.484369 261.465288 
" clip-path="url(#pee5def11ef)" style="fill: none; stroke: #008000; stroke-width: 1.5"/>
   </g>
   <g id="line2d_92">
    <path d="M 73.593031 290.555588 
L 88.880757 290.555588 
L 104.168482 290.555588 
L 119.456208 290.555588 
L 134.743934 290.555588 
L 150.03166 290.555588 
L 165.319385 290.555588 
L 180.607111 290.555588 
L 195.894837 290.555588 
L 211.182563 290.555588 
L 226.470289 290.555588 
L 241.758014 290.555588 
L 257.04574 290.555588 
L 272.333466 290.555588 
L 287.621192 290.555588 
L 302.908917 290.555588 
L 318.196643 290.555588 
L 333.484369 290.555588 
" clip-path="url(#pee5def11ef)" style="fill: none; stroke-dasharray: 1.5,2.475; stroke-dashoffset: 0; stroke: #000000; stroke-width: 1.5"/>
   </g>
   <g id="line2d_93">
    <path d="M 76.18452 297.256715 
L 91.472246 294.308219 
L 106.759972 277.153332 
L 122.047698 249.544686 
L 137.335423 233.730024 
L 152.623149 231.049573 
L 167.910875 227.028897 
L 183.198601 223.54431 
L 198.486327 222.204085 
L 213.774052 222.204085 
L 229.061778 222.204085 
L 244.349504 222.204085 
L 259.63723 222.47213 
L 274.924955 224.884536 
L 290.212681 234.266114 
L 305.500407 251.421002 
L 320.788133 264.019122 
L 336.075859 274.204836 
" clip-path="url(#pee5def11ef)" style="fill: none; stroke: #ff0000; stroke-width: 1.5; stroke-linecap: square"/>
   </g>
   <g id="line2d_94">
    <path d="M 73.593031 289.215362 
L 88.880757 277.957468 
L 104.168482 262.678896 
L 119.456208 241.503332 
L 134.743934 231.853709 
L 150.03166 229.709348 
L 165.319385 227.028897 
L 180.607111 223.54431 
L 195.894837 222.204085 
L 211.182563 222.204085 
L 226.470289 222.204085 
L 241.758014 222.204085 
L 257.04574 222.47213 
L 272.333466 225.152581 
L 287.621192 234.53416 
L 302.908917 251.421002 
L 318.196643 264.019122 
L 333.484369 273.936791 
" clip-path="url(#pee5def11ef)" style="fill: none; stroke: #008000; stroke-width: 1.5; stroke-linecap: square"/>
   </g>
   <g id="patch_11">
    <path d="M 60.468889 314.728 
L 60.468889 204.7328 
" style="fill: none; stroke: #000000; stroke-width: 0.8; stroke-linejoin: miter; stroke-linecap: square"/>
   </g>
   <g id="patch_12">
    <path d="M 349.2 314.728 
L 349.2 204.7328 
" style="fill: none; stroke: #000000; stroke-width: 0.8; stroke-linejoin: miter; stroke-linecap: square"/>
   </g>
   <g id="patch_13">
    <path d="M 60.468889 314.728 
L 349.2 314.728 
" style="fill: none; stroke: #000000; stroke-width: 0.8; stroke-linejoin: miter; stroke-linecap: square"/>
   </g>
   <g id="patch_14">
    <path d="M 60.468889 204.7328 
L 349.2 204.7328 
" style="fill: none; stroke: #000000; stroke-width: 0.8; stroke-linejoin: miter; stroke-linecap: square"/>
   </g>
   <g id="legend_2">
    <g id="patch_15">
     <path d="M 117.536007 275.908525 
L 292.132882 275.908525 
Q 294.132882 275.908525 294.132882 273.908525 
L 294.132882 245.552275 
Q 294.132882 243.552275 292.132882 243.552275 
L 117.536007 243.552275 
Q 115.536007 243.552275 115.536007 245.552275 
L 115.536007 273.908525 
Q 115.536007 275.908525 117.536007 275.908525 
z
" style="fill: #ffffff; opacity: 0.8; stroke: #cccccc; stroke-linejoin: miter"/>
    </g>
    <g id="line2d_95">
     <path d="M 119.536007 251.650713 
L 129.536007 251.650713 
L 139.536007 251.650713 
" style="fill: none; stroke-dasharray: 1.5,2.475; stroke-dashoffset: 0; stroke: #000000; stroke-width: 1.5"/>
    </g>
    <g id="text_18">
     <!-- 68 % -->
     <g transform="translate(147.536007 255.150713) scale(0.1 -0.1)">
      <use xlink:href="#DejaVuSans-36"/>
      <use xlink:href="#DejaVuSans-38" x="63.623047"/>
      <use xlink:href="#DejaVuSans-20" x="127.246094"/>
      <use xlink:href="#DejaVuSans-25" x="159.033203"/>
     </g>
    </g>
    <g id="LineCollection_5">
     <path d="M 129.536007 271.328838 
L 129.536007 261.328838 
" style="fill: none; stroke: #ff0000; stroke-width: 1.5"/>
    </g>
    <g id="line2d_96">
     <path d="M 119.536007 266.328838 
L 139.536007 266.328838 
" style="fill: none; stroke: #ff0000; stroke-width: 1.5; stroke-linecap: square"/>
    </g>
    <g id="line2d_97"/>
    <g id="text_19">
     <!-- Standard  -->
     <g transform="translate(147.536007 269.828838) scale(0.1 -0.1)">
      <use xlink:href="#DejaVuSans-53"/>
      <use xlink:href="#DejaVuSans-74" x="63.476562"/>
      <use xlink:href="#DejaVuSans-61" x="102.685547"/>
      <use xlink:href="#DejaVuSans-6e" x="163.964844"/>
      <use xlink:href="#DejaVuSans-64" x="227.34375"/>
      <use xlink:href="#DejaVuSans-61" x="290.820312"/>
      <use xlink:href="#DejaVuSans-72" x="352.099609"/>
      <use xlink:href="#DejaVuSans-64" x="391.462891"/>
      <use xlink:href="#DejaVuSans-20" x="454.939453"/>
     </g>
    </g>
    <g id="LineCollection_6">
     <path d="M 226.209445 256.650713 
L 226.209445 246.650713 
" style="fill: none; stroke: #008000; stroke-width: 1.5"/>
    </g>
    <g id="line2d_98">
     <path d="M 216.209445 251.650713 
L 236.209445 251.650713 
" style="fill: none; stroke: #008000; stroke-width: 1.5; stroke-linecap: square"/>
    </g>
    <g id="line2d_99"/>
    <g id="text_20">
     <!-- Nuisance -->
     <g transform="translate(244.209445 255.150713) scale(0.1 -0.1)">
      <use xlink:href="#DejaVuSans-4e"/>
      <use xlink:href="#DejaVuSans-75" x="74.804688"/>
      <use xlink:href="#DejaVuSans-69" x="138.183594"/>
      <use xlink:href="#DejaVuSans-73" x="165.966797"/>
      <use xlink:href="#DejaVuSans-61" x="218.066406"/>
      <use xlink:href="#DejaVuSans-6e" x="279.345703"/>
      <use xlink:href="#DejaVuSans-63" x="342.724609"/>
      <use xlink:href="#DejaVuSans-65" x="397.705078"/>
     </g>
    </g>
   </g>
  </g>
 </g>
 <defs>
  <clipPath id="p927edbe2b7">
   <rect x="60.468889" y="25.44" width="288.731111" height="164.9928"/>
  </clipPath>
  <clipPath id="pee5def11ef">
   <rect x="60.468889" y="204.7328" width="288.731111" height="109.9952"/>
  </clipPath>
 </defs>
</svg>
