<?xml version="1.0" encoding="utf-8" standalone="no"?>
<!DOCTYPE svg PUBLIC "-//W3C//DTD SVG 1.1//EN"
  "http://www.w3.org/Graphics/SVG/1.1/DTD/svg11.dtd">
<svg xmlns:xlink="http://www.w3.org/1999/xlink" width="360pt" height="360pt" viewBox="0 0 360 360" xmlns="http://www.w3.org/2000/svg" version="1.1">
 <metadata>
  <rdf:RDF xmlns:dc="http://purl.org/dc/elements/1.1/" xmlns:cc="http://creativecommons.org/ns#" xmlns:rdf="http://www.w3.org/1999/02/22-rdf-syntax-ns#">
   <cc:Work>
    <dc:type rdf:resource="http://purl.org/dc/dcmitype/StillImage"/>
    <dc:date>2023-03-24T16:26:43.966771</dc:date>
    <dc:format>image/svg+xml</dc:format>
    <dc:creator>
     <cc:Agent>
      <dc:title>Matplotlib v3.6.2, https://matplotlib.org/</dc:title>
     </cc:Agent>
    </dc:creator>
   </cc:Work>
  </rdf:RDF>
 </metadata>
 <defs>
  <style type="text/css">*{stroke-linejoin: round; stroke-linecap: butt}</style>
 </defs>
 <g id="figure_1">
  <g id="patch_1">
   <path d="M 0 360 
L 360 360 
L 360 0 
L 0 0 
z
" style="fill: #ffffff"/>
  </g>
  <g id="axes_1">
   <g id="patch_2">
    <path d="M 64.703389 190.4328 
L 349.2 190.4328 
L 349.2 25.44 
L 64.703389 25.44 
z
" style="fill: #ffffff"/>
   </g>
   <g id="PolyCollection_1">
    <path d="M 78.915452 33.478193 
L 78.915452 42.810853 
L 81.47625 42.915491 
L 84.037048 43.036484 
L 86.597846 43.17504 
L 89.158644 43.332502 
L 91.719442 43.51035 
L 94.28024 43.710168 
L 96.841038 43.933612 
L 99.401836 44.182355 
L 101.962634 44.45802 
L 104.523432 44.762101 
L 107.08423 45.095881 
L 109.645028 45.460369 
L 112.205826 45.856253 
L 114.766624 46.283888 
L 117.327422 46.74332 
L 119.88822 47.234343 
L 122.449018 47.756568 
L 125.009816 48.309518 
L 127.570614 48.892699 
L 130.131412 49.505683 
L 132.69221 50.148162 
L 135.253008 50.819993 
L 137.813806 51.521234 
L 140.374604 52.252166 
L 142.935402 53.013309 
L 145.4962 53.805441 
L 148.056998 54.629604 
L 150.617796 55.487129 
L 153.178594 56.379647 
L 155.739392 57.30912 
L 158.30019 58.277866 
L 160.860988 59.288608 
L 163.421786 60.344519 
L 165.982584 61.449293 
L 168.543382 62.607229 
L 171.10418 63.823346 
L 173.664978 65.103519 
L 176.225776 66.454671 
L 178.786574 67.885017 
L 181.347372 69.404394 
L 183.90817 71.024708 
L 186.468968 72.760561 
L 189.029766 74.630134 
L 191.590564 76.656477 
L 194.151362 78.869455 
L 196.71216 81.308783 
L 199.272958 84.028986 
L 201.833756 87.107956 
L 204.394554 90.662796 
L 206.955352 94.881924 
L 209.51615 100.098812 
L 212.076948 106.995644 
L 214.637746 117.3707 
L 217.198544 140.151677 
L 219.759342 42764.688427 
L 222.32014 42764.688427 
L 224.880938 42764.688427 
L 227.441736 42764.688427 
L 230.002534 42764.688427 
L 232.563332 42764.688427 
L 235.12413 42764.688427 
L 237.684928 42764.688427 
L 240.245726 42764.688427 
L 242.806524 42764.688427 
L 245.367322 42764.688427 
L 247.92812 42764.688427 
L 250.488918 42764.688427 
L 253.049716 42764.688427 
L 255.610514 42764.688427 
L 258.171312 42764.688427 
L 260.73211 42764.688427 
L 263.292908 42764.688427 
L 265.853706 42764.688427 
L 268.414504 42764.688427 
L 270.975302 42764.688427 
L 273.5361 42764.688427 
L 276.096898 42764.688427 
L 278.657696 42764.688427 
L 281.218494 42764.688427 
L 283.779292 42764.688427 
L 286.34009 42764.688427 
L 288.900888 42764.688427 
L 291.461686 42764.688427 
L 294.022484 42764.688427 
L 296.583282 42764.688427 
L 299.14408 42764.688427 
L 301.704878 42764.688427 
L 304.265676 42764.688427 
L 306.826474 42764.688427 
L 309.387272 42764.688427 
L 311.94807 42764.688427 
L 314.508868 42764.688427 
L 317.069666 42764.688427 
L 319.630464 42764.688427 
L 322.191262 42764.688427 
L 324.75206 42764.688427 
L 327.312858 42764.688427 
L 329.873656 42764.688427 
L 332.434454 42764.688427 
L 332.434454 142.690979 
L 332.434454 142.690979 
L 329.873656 137.527112 
L 327.312858 132.628988 
L 324.75206 127.983431 
L 322.191262 123.577883 
L 319.630464 119.400371 
L 317.069666 115.439479 
L 314.508868 111.684325 
L 311.94807 108.124531 
L 309.387272 104.750204 
L 306.826474 101.551911 
L 304.265676 98.52066 
L 301.704878 95.647875 
L 299.14408 92.925382 
L 296.583282 90.345389 
L 294.022484 87.900468 
L 291.461686 85.583538 
L 288.900888 83.387853 
L 286.34009 81.306985 
L 283.779292 79.334808 
L 281.218494 77.46549 
L 278.657696 75.693476 
L 276.096898 74.013479 
L 273.5361 72.420469 
L 270.975302 70.909658 
L 268.414504 69.476495 
L 265.853706 68.116657 
L 263.292908 66.826033 
L 260.73211 65.600722 
L 258.171312 64.437023 
L 255.610514 63.331424 
L 253.049716 62.280598 
L 250.488918 61.281395 
L 247.92812 60.330833 
L 245.367322 59.42609 
L 242.806524 58.564502 
L 240.245726 57.743554 
L 237.684928 56.96087 
L 235.12413 56.214213 
L 232.563332 55.501475 
L 230.002534 54.820671 
L 227.441736 54.169934 
L 224.880938 53.547512 
L 222.32014 52.951755 
L 219.759342 52.381118 
L 217.198544 51.834148 
L 214.637746 51.309485 
L 212.076948 50.805853 
L 209.51615 50.322054 
L 206.955352 49.856966 
L 204.394554 49.409537 
L 201.833756 48.97878 
L 199.272958 48.563765 
L 196.71216 48.163621 
L 194.151362 47.777526 
L 191.590564 47.404705 
L 189.029766 47.044424 
L 186.468968 46.695987 
L 183.90817 46.358731 
L 181.347372 46.032022 
L 178.786574 45.71525 
L 176.225776 45.407826 
L 173.664978 45.109175 
L 171.10418 44.818735 
L 168.543382 44.535948 
L 165.982584 44.260258 
L 163.421786 43.991104 
L 160.860988 43.727914 
L 158.30019 43.470101 
L 155.739392 43.217052 
L 153.178594 42.968122 
L 150.617796 42.72263 
L 148.056998 42.479841 
L 145.4962 42.238966 
L 142.935402 41.999147 
L 140.374604 41.759448 
L 137.813806 41.518846 
L 135.253008 41.276228 
L 132.69221 41.03038 
L 130.131412 40.779997 
L 127.570614 40.52369 
L 125.009816 40.260007 
L 122.449018 39.98747 
L 119.88822 39.704623 
L 117.327422 39.410101 
L 114.766624 39.102704 
L 112.205826 38.781475 
L 109.645028 38.445771 
L 107.08423 38.095314 
L 104.523432 37.730209 
L 101.962634 37.350931 
L 99.401836 36.958272 
L 96.841038 36.553279 
L 94.28024 36.137162 
L 91.719442 35.711221 
L 89.158644 35.276773 
L 86.597846 34.835097 
L 84.037048 34.387393 
L 81.47625 33.934763 
L 78.915452 33.478193 
z
" clip-path="url(#p99a5c72568)" style="fill: #ff0000; fill-opacity: 0.5"/>
   </g>
   <g id="PolyCollection_2">
    <path d="M 78.915452 32.939673 
L 78.915452 43.214482 
L 81.47625 43.340673 
L 84.037048 43.483384 
L 86.597846 43.643614 
L 89.158644 43.82245 
L 91.719442 44.021055 
L 94.28024 44.240647 
L 96.841038 44.482475 
L 99.401836 44.747787 
L 101.962634 45.037788 
L 104.523432 45.353599 
L 107.08423 45.696221 
L 109.645028 46.066496 
L 112.205826 46.465091 
L 114.766624 46.892482 
L 117.327422 47.348971 
L 119.88822 47.834707 
L 122.449018 48.349721 
L 125.009816 48.893972 
L 127.570614 49.467399 
L 130.131412 50.069961 
L 132.69221 50.701689 
L 135.253008 51.362722 
L 137.813806 52.053336 
L 140.374604 52.77398 
L 142.935402 53.525295 
L 145.4962 54.308139 
L 148.056998 55.123607 
L 150.617796 55.973055 
L 153.178594 56.858124 
L 155.739392 57.780772 
L 158.30019 58.743306 
L 160.860988 59.748431 
L 163.421786 60.799303 
L 165.982584 61.899596 
L 168.543382 63.053597 
L 171.10418 64.266311 
L 173.664978 65.543611 
L 176.225776 66.892426 
L 178.786574 68.320989 
L 181.347372 69.839172 
L 183.90817 71.458943 
L 186.468968 73.194993 
L 189.029766 75.06564 
L 191.590564 77.094139 
L 194.151362 79.310662 
L 196.71216 81.755392 
L 199.272958 84.483594 
L 201.833756 87.574385 
L 204.394554 91.147016 
L 206.955352 95.394032 
L 209.51615 100.657892 
L 212.076948 107.644696 
L 214.637746 118.244185 
L 217.198544 142.351952 
L 219.759342 42764.688427 
L 222.32014 42764.688427 
L 224.880938 42764.688427 
L 227.441736 42764.688427 
L 230.002534 42764.688427 
L 232.563332 42764.688427 
L 235.12413 42764.688427 
L 237.684928 42764.688427 
L 240.245726 42764.688427 
L 242.806524 42764.688427 
L 245.367322 42764.688427 
L 247.92812 42764.688427 
L 250.488918 42764.688427 
L 253.049716 42764.688427 
L 255.610514 42764.688427 
L 258.171312 42764.688427 
L 260.73211 42764.688427 
L 263.292908 42764.688427 
L 265.853706 42764.688427 
L 268.414504 42764.688427 
L 270.975302 42764.688427 
L 273.5361 42764.688427 
L 276.096898 42764.688427 
L 278.657696 42764.688427 
L 281.218494 42764.688427 
L 283.779292 42764.688427 
L 286.34009 42764.688427 
L 288.900888 42764.688427 
L 291.461686 42764.688427 
L 294.022484 42764.688427 
L 296.583282 42764.688427 
L 299.14408 42764.688427 
L 301.704878 42764.688427 
L 304.265676 42764.688427 
L 306.826474 42764.688427 
L 309.387272 42764.688427 
L 311.94807 42764.688427 
L 314.508868 42764.688427 
L 317.069666 42764.688427 
L 319.630464 42764.688427 
L 322.191262 42764.688427 
L 324.75206 42764.688427 
L 327.312858 42764.688427 
L 329.873656 42764.688427 
L 332.434454 42764.688427 
L 332.434454 141.549223 
L 332.434454 141.549223 
L 329.873656 136.466572 
L 327.312858 131.645302 
L 324.75206 127.072445 
L 322.191262 122.735635 
L 319.630464 118.623086 
L 317.069666 114.723556 
L 314.508868 111.026331 
L 311.94807 107.521194 
L 309.387272 104.198403 
L 306.826474 101.04867 
L 304.265676 98.063137 
L 301.704878 95.233362 
L 299.14408 92.551295 
L 296.583282 90.00926 
L 294.022484 87.599942 
L 291.461686 85.316368 
L 288.900888 83.151894 
L 286.34009 81.100185 
L 283.779292 79.155211 
L 281.218494 77.311226 
L 278.657696 75.562758 
L 276.096898 73.904598 
L 273.5361 72.331792 
L 270.975302 70.839624 
L 268.414504 69.423611 
L 265.853706 68.079492 
L 263.292908 66.80322 
L 260.73211 65.590952 
L 258.171312 64.439041 
L 255.610514 63.344029 
L 253.049716 62.302639 
L 250.488918 61.311767 
L 247.92812 60.368476 
L 245.367322 59.469989 
L 242.806524 58.61368 
L 240.245726 57.797072 
L 237.684928 57.017827 
L 235.12413 56.273741 
L 232.563332 55.562738 
L 230.002534 54.882862 
L 227.441736 54.232277 
L 224.880938 53.609253 
L 222.32014 53.012168 
L 219.759342 52.439497 
L 217.198544 51.88981 
L 214.637746 51.361764 
L 212.076948 50.8541 
L 209.51615 50.365636 
L 206.955352 49.895263 
L 204.394554 49.44194 
L 201.833756 49.004689 
L 199.272958 48.582588 
L 196.71216 48.17477 
L 194.151362 47.780418 
L 191.590564 47.398756 
L 189.029766 47.029051 
L 186.468968 46.670602 
L 183.90817 46.322742 
L 181.347372 45.984827 
L 178.786574 45.65624 
L 176.225776 45.336376 
L 173.664978 45.024649 
L 171.10418 44.720477 
L 168.543382 44.423287 
L 165.982584 44.1325 
L 163.421786 43.847536 
L 160.860988 43.567802 
L 158.30019 43.292688 
L 155.739392 43.021565 
L 153.178594 42.753773 
L 150.617796 42.488621 
L 148.056998 42.225378 
L 145.4962 41.963267 
L 142.935402 41.701463 
L 140.374604 41.439087 
L 137.813806 41.175206 
L 135.253008 40.908831 
L 132.69221 40.638925 
L 130.131412 40.364409 
L 127.570614 40.084181 
L 125.009816 39.797134 
L 122.449018 39.502186 
L 119.88822 39.198319 
L 117.327422 38.884613 
L 114.766624 38.560292 
L 112.205826 38.224761 
L 109.645028 37.877639 
L 107.08423 37.518777 
L 104.523432 37.148263 
L 101.962634 36.766412 
L 99.401836 36.37374 
L 96.841038 35.970925 
L 94.28024 35.558767 
L 91.719442 35.138146 
L 89.158644 34.709977 
L 86.597846 34.275177 
L 84.037048 33.834638 
L 81.47625 33.389208 
L 78.915452 32.939673 
z
" clip-path="url(#p99a5c72568)" style="fill: #008000; fill-opacity: 0.5"/>
   </g>
   <g id="matplotlib.axis_1">
    <g id="xtick_1">
     <g id="line2d_1">
      <defs>
       <path id="m14e7407022" d="M 0 0 
L 0 3.5 
" style="stroke: #000000; stroke-width: 0.8"/>
      </defs>
      <g>
       <use xlink:href="#m14e7407022" x="115.293848" y="190.4328" style="stroke: #000000; stroke-width: 0.8"/>
      </g>
     </g>
    </g>
    <g id="xtick_2">
     <g id="line2d_2">
      <g>
       <use xlink:href="#m14e7407022" x="235.801988" y="190.4328" style="stroke: #000000; stroke-width: 0.8"/>
      </g>
     </g>
    </g>
    <g id="xtick_3">
     <g id="line2d_3">
      <defs>
       <path id="m65535b530f" d="M 0 0 
L 0 2 
" style="stroke: #000000; stroke-width: 0.6"/>
      </defs>
      <g>
       <use xlink:href="#m65535b530f" x="67.338837" y="190.4328" style="stroke: #000000; stroke-width: 0.6"/>
      </g>
     </g>
    </g>
    <g id="xtick_4">
     <g id="line2d_4">
      <g>
       <use xlink:href="#m65535b530f" x="79.017282" y="190.4328" style="stroke: #000000; stroke-width: 0.6"/>
      </g>
     </g>
    </g>
    <g id="xtick_5">
     <g id="line2d_5">
      <g>
       <use xlink:href="#m65535b530f" x="88.559267" y="190.4328" style="stroke: #000000; stroke-width: 0.6"/>
      </g>
     </g>
    </g>
    <g id="xtick_6">
     <g id="line2d_6">
      <g>
       <use xlink:href="#m65535b530f" x="96.6269" y="190.4328" style="stroke: #000000; stroke-width: 0.6"/>
      </g>
     </g>
    </g>
    <g id="xtick_7">
     <g id="line2d_7">
      <g>
       <use xlink:href="#m65535b530f" x="103.615402" y="190.4328" style="stroke: #000000; stroke-width: 0.6"/>
      </g>
     </g>
    </g>
    <g id="xtick_8">
     <g id="line2d_8">
      <g>
       <use xlink:href="#m65535b530f" x="109.779697" y="190.4328" style="stroke: #000000; stroke-width: 0.6"/>
      </g>
     </g>
    </g>
    <g id="xtick_9">
     <g id="line2d_9">
      <g>
       <use xlink:href="#m65535b530f" x="151.570413" y="190.4328" style="stroke: #000000; stroke-width: 0.6"/>
      </g>
     </g>
    </g>
    <g id="xtick_10">
     <g id="line2d_10">
      <g>
       <use xlink:href="#m65535b530f" x="172.790843" y="190.4328" style="stroke: #000000; stroke-width: 0.6"/>
      </g>
     </g>
    </g>
    <g id="xtick_11">
     <g id="line2d_11">
      <g>
       <use xlink:href="#m65535b530f" x="187.846978" y="190.4328" style="stroke: #000000; stroke-width: 0.6"/>
      </g>
     </g>
    </g>
    <g id="xtick_12">
     <g id="line2d_12">
      <g>
       <use xlink:href="#m65535b530f" x="199.525423" y="190.4328" style="stroke: #000000; stroke-width: 0.6"/>
      </g>
     </g>
    </g>
    <g id="xtick_13">
     <g id="line2d_13">
      <g>
       <use xlink:href="#m65535b530f" x="209.067408" y="190.4328" style="stroke: #000000; stroke-width: 0.6"/>
      </g>
     </g>
    </g>
    <g id="xtick_14">
     <g id="line2d_14">
      <g>
       <use xlink:href="#m65535b530f" x="217.135041" y="190.4328" style="stroke: #000000; stroke-width: 0.6"/>
      </g>
     </g>
    </g>
    <g id="xtick_15">
     <g id="line2d_15">
      <g>
       <use xlink:href="#m65535b530f" x="224.123543" y="190.4328" style="stroke: #000000; stroke-width: 0.6"/>
      </g>
     </g>
    </g>
    <g id="xtick_16">
     <g id="line2d_16">
      <g>
       <use xlink:href="#m65535b530f" x="230.287838" y="190.4328" style="stroke: #000000; stroke-width: 0.6"/>
      </g>
     </g>
    </g>
    <g id="xtick_17">
     <g id="line2d_17">
      <g>
       <use xlink:href="#m65535b530f" x="272.078554" y="190.4328" style="stroke: #000000; stroke-width: 0.6"/>
      </g>
     </g>
    </g>
    <g id="xtick_18">
     <g id="line2d_18">
      <g>
       <use xlink:href="#m65535b530f" x="293.298984" y="190.4328" style="stroke: #000000; stroke-width: 0.6"/>
      </g>
     </g>
    </g>
    <g id="xtick_19">
     <g id="line2d_19">
      <g>
       <use xlink:href="#m65535b530f" x="308.355119" y="190.4328" style="stroke: #000000; stroke-width: 0.6"/>
      </g>
     </g>
    </g>
    <g id="xtick_20">
     <g id="line2d_20">
      <g>
       <use xlink:href="#m65535b530f" x="320.033564" y="190.4328" style="stroke: #000000; stroke-width: 0.6"/>
      </g>
     </g>
    </g>
    <g id="xtick_21">
     <g id="line2d_21">
      <g>
       <use xlink:href="#m65535b530f" x="329.575549" y="190.4328" style="stroke: #000000; stroke-width: 0.6"/>
      </g>
     </g>
    </g>
    <g id="xtick_22">
     <g id="line2d_22">
      <g>
       <use xlink:href="#m65535b530f" x="337.643182" y="190.4328" style="stroke: #000000; stroke-width: 0.6"/>
      </g>
     </g>
    </g>
    <g id="xtick_23">
     <g id="line2d_23">
      <g>
       <use xlink:href="#m65535b530f" x="344.631684" y="190.4328" style="stroke: #000000; stroke-width: 0.6"/>
      </g>
     </g>
    </g>
   </g>
   <g id="matplotlib.axis_2">
    <g id="ytick_1">
     <g id="line2d_24">
      <defs>
       <path id="m2d4a0c5ef6" d="M 0 0 
L -3.5 0 
" style="stroke: #000000; stroke-width: 0.8"/>
      </defs>
      <g>
       <use xlink:href="#m2d4a0c5ef6" x="64.703389" y="170.278849" style="stroke: #000000; stroke-width: 0.8"/>
      </g>
     </g>
     <g id="text_1">
      <!-- $\mathdefault{10^{-15}}$ -->
      <g transform="translate(29.803389 174.078068) scale(0.1 -0.1)">
       <defs>
        <path id="DejaVuSans-31" d="M 794 531 
L 1825 531 
L 1825 4091 
L 703 3866 
L 703 4441 
L 1819 4666 
L 2450 4666 
L 2450 531 
L 3481 531 
L 3481 0 
L 794 0 
L 794 531 
z
" transform="scale(0.015625)"/>
        <path id="DejaVuSans-30" d="M 2034 4250 
Q 1547 4250 1301 3770 
Q 1056 3291 1056 2328 
Q 1056 1369 1301 889 
Q 1547 409 2034 409 
Q 2525 409 2770 889 
Q 3016 1369 3016 2328 
Q 3016 3291 2770 3770 
Q 2525 4250 2034 4250 
z
M 2034 4750 
Q 2819 4750 3233 4129 
Q 3647 3509 3647 2328 
Q 3647 1150 3233 529 
Q 2819 -91 2034 -91 
Q 1250 -91 836 529 
Q 422 1150 422 2328 
Q 422 3509 836 4129 
Q 1250 4750 2034 4750 
z
" transform="scale(0.015625)"/>
        <path id="DejaVuSans-2212" d="M 678 2272 
L 4684 2272 
L 4684 1741 
L 678 1741 
L 678 2272 
z
" transform="scale(0.015625)"/>
        <path id="DejaVuSans-35" d="M 691 4666 
L 3169 4666 
L 3169 4134 
L 1269 4134 
L 1269 2991 
Q 1406 3038 1543 3061 
Q 1681 3084 1819 3084 
Q 2600 3084 3056 2656 
Q 3513 2228 3513 1497 
Q 3513 744 3044 326 
Q 2575 -91 1722 -91 
Q 1428 -91 1123 -41 
Q 819 9 494 109 
L 494 744 
Q 775 591 1075 516 
Q 1375 441 1709 441 
Q 2250 441 2565 725 
Q 2881 1009 2881 1497 
Q 2881 1984 2565 2268 
Q 2250 2553 1709 2553 
Q 1456 2553 1204 2497 
Q 953 2441 691 2322 
L 691 4666 
z
" transform="scale(0.015625)"/>
       </defs>
       <use xlink:href="#DejaVuSans-31" transform="translate(0 0.684375)"/>
       <use xlink:href="#DejaVuSans-30" transform="translate(63.623047 0.684375)"/>
       <use xlink:href="#DejaVuSans-2212" transform="translate(128.203125 38.965625) scale(0.7)"/>
       <use xlink:href="#DejaVuSans-31" transform="translate(186.855469 38.965625) scale(0.7)"/>
       <use xlink:href="#DejaVuSans-35" transform="translate(231.391602 38.965625) scale(0.7)"/>
      </g>
     </g>
    </g>
    <g id="ytick_2">
     <g id="line2d_25">
      <g>
       <use xlink:href="#m2d4a0c5ef6" x="64.703389" y="127.035793" style="stroke: #000000; stroke-width: 0.8"/>
      </g>
     </g>
     <g id="text_2">
      <!-- $\mathdefault{10^{-14}}$ -->
      <g transform="translate(29.803389 130.835012) scale(0.1 -0.1)">
       <defs>
        <path id="DejaVuSans-34" d="M 2419 4116 
L 825 1625 
L 2419 1625 
L 2419 4116 
z
M 2253 4666 
L 3047 4666 
L 3047 1625 
L 3713 1625 
L 3713 1100 
L 3047 1100 
L 3047 0 
L 2419 0 
L 2419 1100 
L 313 1100 
L 313 1709 
L 2253 4666 
z
" transform="scale(0.015625)"/>
       </defs>
       <use xlink:href="#DejaVuSans-31" transform="translate(0 0.684375)"/>
       <use xlink:href="#DejaVuSans-30" transform="translate(63.623047 0.684375)"/>
       <use xlink:href="#DejaVuSans-2212" transform="translate(128.203125 38.965625) scale(0.7)"/>
       <use xlink:href="#DejaVuSans-31" transform="translate(186.855469 38.965625) scale(0.7)"/>
       <use xlink:href="#DejaVuSans-34" transform="translate(231.391602 38.965625) scale(0.7)"/>
      </g>
     </g>
    </g>
    <g id="ytick_3">
     <g id="line2d_26">
      <g>
       <use xlink:href="#m2d4a0c5ef6" x="64.703389" y="83.792738" style="stroke: #000000; stroke-width: 0.8"/>
      </g>
     </g>
     <g id="text_3">
      <!-- $\mathdefault{10^{-13}}$ -->
      <g transform="translate(29.803389 87.591957) scale(0.1 -0.1)">
       <defs>
        <path id="DejaVuSans-33" d="M 2597 2516 
Q 3050 2419 3304 2112 
Q 3559 1806 3559 1356 
Q 3559 666 3084 287 
Q 2609 -91 1734 -91 
Q 1441 -91 1130 -33 
Q 819 25 488 141 
L 488 750 
Q 750 597 1062 519 
Q 1375 441 1716 441 
Q 2309 441 2620 675 
Q 2931 909 2931 1356 
Q 2931 1769 2642 2001 
Q 2353 2234 1838 2234 
L 1294 2234 
L 1294 2753 
L 1863 2753 
Q 2328 2753 2575 2939 
Q 2822 3125 2822 3475 
Q 2822 3834 2567 4026 
Q 2313 4219 1838 4219 
Q 1578 4219 1281 4162 
Q 984 4106 628 3988 
L 628 4550 
Q 988 4650 1302 4700 
Q 1616 4750 1894 4750 
Q 2613 4750 3031 4423 
Q 3450 4097 3450 3541 
Q 3450 3153 3228 2886 
Q 3006 2619 2597 2516 
z
" transform="scale(0.015625)"/>
       </defs>
       <use xlink:href="#DejaVuSans-31" transform="translate(0 0.765625)"/>
       <use xlink:href="#DejaVuSans-30" transform="translate(63.623047 0.765625)"/>
       <use xlink:href="#DejaVuSans-2212" transform="translate(128.203125 39.046875) scale(0.7)"/>
       <use xlink:href="#DejaVuSans-31" transform="translate(186.855469 39.046875) scale(0.7)"/>
       <use xlink:href="#DejaVuSans-33" transform="translate(231.391602 39.046875) scale(0.7)"/>
      </g>
     </g>
    </g>
    <g id="ytick_4">
     <g id="line2d_27">
      <g>
       <use xlink:href="#m2d4a0c5ef6" x="64.703389" y="40.549683" style="stroke: #000000; stroke-width: 0.8"/>
      </g>
     </g>
     <g id="text_4">
      <!-- $\mathdefault{10^{-12}}$ -->
      <g transform="translate(29.803389 44.348901) scale(0.1 -0.1)">
       <defs>
        <path id="DejaVuSans-32" d="M 1228 531 
L 3431 531 
L 3431 0 
L 469 0 
L 469 531 
Q 828 903 1448 1529 
Q 2069 2156 2228 2338 
Q 2531 2678 2651 2914 
Q 2772 3150 2772 3378 
Q 2772 3750 2511 3984 
Q 2250 4219 1831 4219 
Q 1534 4219 1204 4116 
Q 875 4013 500 3803 
L 500 4441 
Q 881 4594 1212 4672 
Q 1544 4750 1819 4750 
Q 2544 4750 2975 4387 
Q 3406 4025 3406 3419 
Q 3406 3131 3298 2873 
Q 3191 2616 2906 2266 
Q 2828 2175 2409 1742 
Q 1991 1309 1228 531 
z
" transform="scale(0.015625)"/>
       </defs>
       <use xlink:href="#DejaVuSans-31" transform="translate(0 0.765625)"/>
       <use xlink:href="#DejaVuSans-30" transform="translate(63.623047 0.765625)"/>
       <use xlink:href="#DejaVuSans-2212" transform="translate(128.203125 39.046875) scale(0.7)"/>
       <use xlink:href="#DejaVuSans-31" transform="translate(186.855469 39.046875) scale(0.7)"/>
       <use xlink:href="#DejaVuSans-32" transform="translate(231.391602 39.046875) scale(0.7)"/>
      </g>
     </g>
    </g>
    <g id="ytick_5">
     <g id="line2d_28">
      <defs>
       <path id="m6cb9de7b4d" d="M 0 0 
L -2 0 
" style="stroke: #000000; stroke-width: 0.6"/>
      </defs>
      <g>
       <use xlink:href="#m6cb9de7b4d" x="64.703389" y="187.486991" style="stroke: #000000; stroke-width: 0.6"/>
      </g>
     </g>
    </g>
    <g id="ytick_6">
     <g id="line2d_29">
      <g>
       <use xlink:href="#m6cb9de7b4d" x="64.703389" y="183.296306" style="stroke: #000000; stroke-width: 0.6"/>
      </g>
     </g>
    </g>
    <g id="ytick_7">
     <g id="line2d_30">
      <g>
       <use xlink:href="#m6cb9de7b4d" x="64.703389" y="179.872267" style="stroke: #000000; stroke-width: 0.6"/>
      </g>
     </g>
    </g>
    <g id="ytick_8">
     <g id="line2d_31">
      <g>
       <use xlink:href="#m6cb9de7b4d" x="64.703389" y="176.977283" style="stroke: #000000; stroke-width: 0.6"/>
      </g>
     </g>
    </g>
    <g id="ytick_9">
     <g id="line2d_32">
      <g>
       <use xlink:href="#m6cb9de7b4d" x="64.703389" y="174.469534" style="stroke: #000000; stroke-width: 0.6"/>
      </g>
     </g>
    </g>
    <g id="ytick_10">
     <g id="line2d_33">
      <g>
       <use xlink:href="#m6cb9de7b4d" x="64.703389" y="172.257542" style="stroke: #000000; stroke-width: 0.6"/>
      </g>
     </g>
    </g>
    <g id="ytick_11">
     <g id="line2d_34">
      <g>
       <use xlink:href="#m6cb9de7b4d" x="64.703389" y="157.261392" style="stroke: #000000; stroke-width: 0.6"/>
      </g>
     </g>
    </g>
    <g id="ytick_12">
     <g id="line2d_35">
      <g>
       <use xlink:href="#m6cb9de7b4d" x="64.703389" y="149.646668" style="stroke: #000000; stroke-width: 0.6"/>
      </g>
     </g>
    </g>
    <g id="ytick_13">
     <g id="line2d_36">
      <g>
       <use xlink:href="#m6cb9de7b4d" x="64.703389" y="144.243935" style="stroke: #000000; stroke-width: 0.6"/>
      </g>
     </g>
    </g>
    <g id="ytick_14">
     <g id="line2d_37">
      <g>
       <use xlink:href="#m6cb9de7b4d" x="64.703389" y="140.05325" style="stroke: #000000; stroke-width: 0.6"/>
      </g>
     </g>
    </g>
    <g id="ytick_15">
     <g id="line2d_38">
      <g>
       <use xlink:href="#m6cb9de7b4d" x="64.703389" y="136.629211" style="stroke: #000000; stroke-width: 0.6"/>
      </g>
     </g>
    </g>
    <g id="ytick_16">
     <g id="line2d_39">
      <g>
       <use xlink:href="#m6cb9de7b4d" x="64.703389" y="133.734227" style="stroke: #000000; stroke-width: 0.6"/>
      </g>
     </g>
    </g>
    <g id="ytick_17">
     <g id="line2d_40">
      <g>
       <use xlink:href="#m6cb9de7b4d" x="64.703389" y="131.226478" style="stroke: #000000; stroke-width: 0.6"/>
      </g>
     </g>
    </g>
    <g id="ytick_18">
     <g id="line2d_41">
      <g>
       <use xlink:href="#m6cb9de7b4d" x="64.703389" y="129.014487" style="stroke: #000000; stroke-width: 0.6"/>
      </g>
     </g>
    </g>
    <g id="ytick_19">
     <g id="line2d_42">
      <g>
       <use xlink:href="#m6cb9de7b4d" x="64.703389" y="114.018337" style="stroke: #000000; stroke-width: 0.6"/>
      </g>
     </g>
    </g>
    <g id="ytick_20">
     <g id="line2d_43">
      <g>
       <use xlink:href="#m6cb9de7b4d" x="64.703389" y="106.403613" style="stroke: #000000; stroke-width: 0.6"/>
      </g>
     </g>
    </g>
    <g id="ytick_21">
     <g id="line2d_44">
      <g>
       <use xlink:href="#m6cb9de7b4d" x="64.703389" y="101.00088" style="stroke: #000000; stroke-width: 0.6"/>
      </g>
     </g>
    </g>
    <g id="ytick_22">
     <g id="line2d_45">
      <g>
       <use xlink:href="#m6cb9de7b4d" x="64.703389" y="96.810195" style="stroke: #000000; stroke-width: 0.6"/>
      </g>
     </g>
    </g>
    <g id="ytick_23">
     <g id="line2d_46">
      <g>
       <use xlink:href="#m6cb9de7b4d" x="64.703389" y="93.386156" style="stroke: #000000; stroke-width: 0.6"/>
      </g>
     </g>
    </g>
    <g id="ytick_24">
     <g id="line2d_47">
      <g>
       <use xlink:href="#m6cb9de7b4d" x="64.703389" y="90.491172" style="stroke: #000000; stroke-width: 0.6"/>
      </g>
     </g>
    </g>
    <g id="ytick_25">
     <g id="line2d_48">
      <g>
       <use xlink:href="#m6cb9de7b4d" x="64.703389" y="87.983423" style="stroke: #000000; stroke-width: 0.6"/>
      </g>
     </g>
    </g>
    <g id="ytick_26">
     <g id="line2d_49">
      <g>
       <use xlink:href="#m6cb9de7b4d" x="64.703389" y="85.771432" style="stroke: #000000; stroke-width: 0.6"/>
      </g>
     </g>
    </g>
    <g id="ytick_27">
     <g id="line2d_50">
      <g>
       <use xlink:href="#m6cb9de7b4d" x="64.703389" y="70.775281" style="stroke: #000000; stroke-width: 0.6"/>
      </g>
     </g>
    </g>
    <g id="ytick_28">
     <g id="line2d_51">
      <g>
       <use xlink:href="#m6cb9de7b4d" x="64.703389" y="63.160557" style="stroke: #000000; stroke-width: 0.6"/>
      </g>
     </g>
    </g>
    <g id="ytick_29">
     <g id="line2d_52">
      <g>
       <use xlink:href="#m6cb9de7b4d" x="64.703389" y="57.757824" style="stroke: #000000; stroke-width: 0.6"/>
      </g>
     </g>
    </g>
    <g id="ytick_30">
     <g id="line2d_53">
      <g>
       <use xlink:href="#m6cb9de7b4d" x="64.703389" y="53.567139" style="stroke: #000000; stroke-width: 0.6"/>
      </g>
     </g>
    </g>
    <g id="ytick_31">
     <g id="line2d_54">
      <g>
       <use xlink:href="#m6cb9de7b4d" x="64.703389" y="50.1431" style="stroke: #000000; stroke-width: 0.6"/>
      </g>
     </g>
    </g>
    <g id="ytick_32">
     <g id="line2d_55">
      <g>
       <use xlink:href="#m6cb9de7b4d" x="64.703389" y="47.248117" style="stroke: #000000; stroke-width: 0.6"/>
      </g>
     </g>
    </g>
    <g id="ytick_33">
     <g id="line2d_56">
      <g>
       <use xlink:href="#m6cb9de7b4d" x="64.703389" y="44.740368" style="stroke: #000000; stroke-width: 0.6"/>
      </g>
     </g>
    </g>
    <g id="ytick_34">
     <g id="line2d_57">
      <g>
       <use xlink:href="#m6cb9de7b4d" x="64.703389" y="42.528376" style="stroke: #000000; stroke-width: 0.6"/>
      </g>
     </g>
    </g>
    <g id="ytick_35">
     <g id="line2d_58">
      <g>
       <use xlink:href="#m6cb9de7b4d" x="64.703389" y="27.532226" style="stroke: #000000; stroke-width: 0.6"/>
      </g>
     </g>
    </g>
    <g id="text_5">
     <!-- E$^2$ dN/dE [TeV cm$^{-2}$ s$^{-1}$] -->
     <g transform="translate(23.723702 169.1864) rotate(-90) scale(0.1 -0.1)">
      <defs>
       <path id="DejaVuSans-45" d="M 628 4666 
L 3578 4666 
L 3578 4134 
L 1259 4134 
L 1259 2753 
L 3481 2753 
L 3481 2222 
L 1259 2222 
L 1259 531 
L 3634 531 
L 3634 0 
L 628 0 
L 628 4666 
z
" transform="scale(0.015625)"/>
       <path id="DejaVuSans-20" transform="scale(0.015625)"/>
       <path id="DejaVuSans-64" d="M 2906 2969 
L 2906 4863 
L 3481 4863 
L 3481 0 
L 2906 0 
L 2906 525 
Q 2725 213 2448 61 
Q 2172 -91 1784 -91 
Q 1150 -91 751 415 
Q 353 922 353 1747 
Q 353 2572 751 3078 
Q 1150 3584 1784 3584 
Q 2172 3584 2448 3432 
Q 2725 3281 2906 2969 
z
M 947 1747 
Q 947 1113 1208 752 
Q 1469 391 1925 391 
Q 2381 391 2643 752 
Q 2906 1113 2906 1747 
Q 2906 2381 2643 2742 
Q 2381 3103 1925 3103 
Q 1469 3103 1208 2742 
Q 947 2381 947 1747 
z
" transform="scale(0.015625)"/>
       <path id="DejaVuSans-4e" d="M 628 4666 
L 1478 4666 
L 3547 763 
L 3547 4666 
L 4159 4666 
L 4159 0 
L 3309 0 
L 1241 3903 
L 1241 0 
L 628 0 
L 628 4666 
z
" transform="scale(0.015625)"/>
       <path id="DejaVuSans-2f" d="M 1625 4666 
L 2156 4666 
L 531 -594 
L 0 -594 
L 1625 4666 
z
" transform="scale(0.015625)"/>
       <path id="DejaVuSans-5b" d="M 550 4863 
L 1875 4863 
L 1875 4416 
L 1125 4416 
L 1125 -397 
L 1875 -397 
L 1875 -844 
L 550 -844 
L 550 4863 
z
" transform="scale(0.015625)"/>
       <path id="DejaVuSans-54" d="M -19 4666 
L 3928 4666 
L 3928 4134 
L 2272 4134 
L 2272 0 
L 1638 0 
L 1638 4134 
L -19 4134 
L -19 4666 
z
" transform="scale(0.015625)"/>
       <path id="DejaVuSans-65" d="M 3597 1894 
L 3597 1613 
L 953 1613 
Q 991 1019 1311 708 
Q 1631 397 2203 397 
Q 2534 397 2845 478 
Q 3156 559 3463 722 
L 3463 178 
Q 3153 47 2828 -22 
Q 2503 -91 2169 -91 
Q 1331 -91 842 396 
Q 353 884 353 1716 
Q 353 2575 817 3079 
Q 1281 3584 2069 3584 
Q 2775 3584 3186 3129 
Q 3597 2675 3597 1894 
z
M 3022 2063 
Q 3016 2534 2758 2815 
Q 2500 3097 2075 3097 
Q 1594 3097 1305 2825 
Q 1016 2553 972 2059 
L 3022 2063 
z
" transform="scale(0.015625)"/>
       <path id="DejaVuSans-56" d="M 1831 0 
L 50 4666 
L 709 4666 
L 2188 738 
L 3669 4666 
L 4325 4666 
L 2547 0 
L 1831 0 
z
" transform="scale(0.015625)"/>
       <path id="DejaVuSans-63" d="M 3122 3366 
L 3122 2828 
Q 2878 2963 2633 3030 
Q 2388 3097 2138 3097 
Q 1578 3097 1268 2742 
Q 959 2388 959 1747 
Q 959 1106 1268 751 
Q 1578 397 2138 397 
Q 2388 397 2633 464 
Q 2878 531 3122 666 
L 3122 134 
Q 2881 22 2623 -34 
Q 2366 -91 2075 -91 
Q 1284 -91 818 406 
Q 353 903 353 1747 
Q 353 2603 823 3093 
Q 1294 3584 2113 3584 
Q 2378 3584 2631 3529 
Q 2884 3475 3122 3366 
z
" transform="scale(0.015625)"/>
       <path id="DejaVuSans-6d" d="M 3328 2828 
Q 3544 3216 3844 3400 
Q 4144 3584 4550 3584 
Q 5097 3584 5394 3201 
Q 5691 2819 5691 2113 
L 5691 0 
L 5113 0 
L 5113 2094 
Q 5113 2597 4934 2840 
Q 4756 3084 4391 3084 
Q 3944 3084 3684 2787 
Q 3425 2491 3425 1978 
L 3425 0 
L 2847 0 
L 2847 2094 
Q 2847 2600 2669 2842 
Q 2491 3084 2119 3084 
Q 1678 3084 1418 2786 
Q 1159 2488 1159 1978 
L 1159 0 
L 581 0 
L 581 3500 
L 1159 3500 
L 1159 2956 
Q 1356 3278 1631 3431 
Q 1906 3584 2284 3584 
Q 2666 3584 2933 3390 
Q 3200 3197 3328 2828 
z
" transform="scale(0.015625)"/>
       <path id="DejaVuSans-73" d="M 2834 3397 
L 2834 2853 
Q 2591 2978 2328 3040 
Q 2066 3103 1784 3103 
Q 1356 3103 1142 2972 
Q 928 2841 928 2578 
Q 928 2378 1081 2264 
Q 1234 2150 1697 2047 
L 1894 2003 
Q 2506 1872 2764 1633 
Q 3022 1394 3022 966 
Q 3022 478 2636 193 
Q 2250 -91 1575 -91 
Q 1294 -91 989 -36 
Q 684 19 347 128 
L 347 722 
Q 666 556 975 473 
Q 1284 391 1588 391 
Q 1994 391 2212 530 
Q 2431 669 2431 922 
Q 2431 1156 2273 1281 
Q 2116 1406 1581 1522 
L 1381 1569 
Q 847 1681 609 1914 
Q 372 2147 372 2553 
Q 372 3047 722 3315 
Q 1072 3584 1716 3584 
Q 2034 3584 2315 3537 
Q 2597 3491 2834 3397 
z
" transform="scale(0.015625)"/>
       <path id="DejaVuSans-5d" d="M 1947 4863 
L 1947 -844 
L 622 -844 
L 622 -397 
L 1369 -397 
L 1369 4416 
L 622 4416 
L 622 4863 
L 1947 4863 
z
" transform="scale(0.015625)"/>
      </defs>
      <use xlink:href="#DejaVuSans-45" transform="translate(0 0.765625)"/>
      <use xlink:href="#DejaVuSans-32" transform="translate(64.140625 39.046875) scale(0.7)"/>
      <use xlink:href="#DejaVuSans-20" transform="translate(111.411133 0.765625)"/>
      <use xlink:href="#DejaVuSans-64" transform="translate(143.198242 0.765625)"/>
      <use xlink:href="#DejaVuSans-4e" transform="translate(206.674805 0.765625)"/>
      <use xlink:href="#DejaVuSans-2f" transform="translate(281.479492 0.765625)"/>
      <use xlink:href="#DejaVuSans-64" transform="translate(315.170898 0.765625)"/>
      <use xlink:href="#DejaVuSans-45" transform="translate(378.647461 0.765625)"/>
      <use xlink:href="#DejaVuSans-20" transform="translate(441.831055 0.765625)"/>
      <use xlink:href="#DejaVuSans-5b" transform="translate(473.618164 0.765625)"/>
      <use xlink:href="#DejaVuSans-54" transform="translate(512.631836 0.765625)"/>
      <use xlink:href="#DejaVuSans-65" transform="translate(573.71582 0.765625)"/>
      <use xlink:href="#DejaVuSans-56" transform="translate(635.239258 0.765625)"/>
      <use xlink:href="#DejaVuSans-20" transform="translate(703.647461 0.765625)"/>
      <use xlink:href="#DejaVuSans-63" transform="translate(735.43457 0.765625)"/>
      <use xlink:href="#DejaVuSans-6d" transform="translate(790.415039 0.765625)"/>
      <use xlink:href="#DejaVuSans-2212" transform="translate(888.78418 39.046875) scale(0.7)"/>
      <use xlink:href="#DejaVuSans-32" transform="translate(947.436523 39.046875) scale(0.7)"/>
      <use xlink:href="#DejaVuSans-20" transform="translate(994.707031 0.765625)"/>
      <use xlink:href="#DejaVuSans-73" transform="translate(1026.494141 0.765625)"/>
      <use xlink:href="#DejaVuSans-2212" transform="translate(1079.550781 39.046875) scale(0.7)"/>
      <use xlink:href="#DejaVuSans-31" transform="translate(1138.203125 39.046875) scale(0.7)"/>
      <use xlink:href="#DejaVuSans-5d" transform="translate(1185.473633 0.765625)"/>
     </g>
    </g>
   </g>
   <g id="LineCollection_1">
    <path d="M 77.635053 44.026843 
L 77.635053 34.627966 
" clip-path="url(#p99a5c72568)" style="fill: none; stroke: #00008b; stroke-opacity: 0.7; stroke-width: 1.5"/>
    <path d="M 92.698571 44.468848 
L 92.698571 37.126003 
" clip-path="url(#p99a5c72568)" style="fill: none; stroke: #00008b; stroke-opacity: 0.7; stroke-width: 1.5"/>
    <path d="M 107.762089 45.330911 
L 107.762089 39.48458 
" clip-path="url(#p99a5c72568)" style="fill: none; stroke: #00008b; stroke-opacity: 0.7; stroke-width: 1.5"/>
    <path d="M 122.825606 46.781292 
L 122.825606 41.623225 
" clip-path="url(#p99a5c72568)" style="fill: none; stroke: #00008b; stroke-opacity: 0.7; stroke-width: 1.5"/>
    <path d="M 137.889124 48.888994 
L 137.889124 43.591278 
" clip-path="url(#p99a5c72568)" style="fill: none; stroke: #00008b; stroke-opacity: 0.7; stroke-width: 1.5"/>
    <path d="M 152.952642 51.537478 
L 152.952642 45.657113 
" clip-path="url(#p99a5c72568)" style="fill: none; stroke: #00008b; stroke-opacity: 0.7; stroke-width: 1.5"/>
    <path d="M 168.016159 54.614864 
L 168.016159 48.128581 
" clip-path="url(#p99a5c72568)" style="fill: none; stroke: #00008b; stroke-opacity: 0.7; stroke-width: 1.5"/>
    <path d="M 183.079677 58.179005 
L 183.079677 51.207738 
" clip-path="url(#p99a5c72568)" style="fill: none; stroke: #00008b; stroke-opacity: 0.7; stroke-width: 1.5"/>
    <path d="M 198.143194 62.521263 
L 198.143194 54.94452 
" clip-path="url(#p99a5c72568)" style="fill: none; stroke: #00008b; stroke-opacity: 0.7; stroke-width: 1.5"/>
    <path d="M 213.206712 68.157637 
L 213.206712 59.242118 
" clip-path="url(#p99a5c72568)" style="fill: none; stroke: #00008b; stroke-opacity: 0.7; stroke-width: 1.5"/>
    <path d="M 228.27023 75.668302 
L 228.27023 64.000553 
" clip-path="url(#p99a5c72568)" style="fill: none; stroke: #00008b; stroke-opacity: 0.7; stroke-width: 1.5"/>
    <path d="M 243.333747 85.596324 
L 243.333747 69.251538 
" clip-path="url(#p99a5c72568)" style="fill: none; stroke: #00008b; stroke-opacity: 0.7; stroke-width: 1.5"/>
    <path d="M 258.397265 98.823596 
L 258.397265 75.059963 
" clip-path="url(#p99a5c72568)" style="fill: none; stroke: #00008b; stroke-opacity: 0.7; stroke-width: 1.5"/>
    <path d="M 273.460782 118.405293 
L 273.460782 81.367914 
" clip-path="url(#p99a5c72568)" style="fill: none; stroke: #00008b; stroke-opacity: 0.7; stroke-width: 1.5"/>
    <path d="M 288.5243 361 
L 288.5243 87.921045 
" clip-path="url(#p99a5c72568)" style="fill: none; stroke: #00008b; stroke-opacity: 0.7; stroke-width: 1.5"/>
    <path d="M 303.587818 361 
L 303.587818 94.262838 
" clip-path="url(#p99a5c72568)" style="fill: none; stroke: #00008b; stroke-opacity: 0.7; stroke-width: 1.5"/>
    <path d="M 318.651335 361 
L 318.651335 99.752104 
" clip-path="url(#p99a5c72568)" style="fill: none; stroke: #00008b; stroke-opacity: 0.7; stroke-width: 1.5"/>
    <path d="M 333.714853 361 
L 333.714853 103.580332 
" clip-path="url(#p99a5c72568)" style="fill: none; stroke: #00008b; stroke-opacity: 0.7; stroke-width: 1.5"/>
   </g>
   <g id="line2d_59">
    <path d="M 78.915452 37.570669 
L 81.47625 37.89334 
L 84.037048 38.218368 
L 86.597846 38.545871 
L 89.158644 38.875973 
L 91.719442 39.208805 
L 94.28024 39.544502 
L 96.841038 39.88321 
L 99.401836 40.225078 
L 101.962634 40.570266 
L 104.523432 40.91894 
L 107.08423 41.271275 
L 109.645028 41.627453 
L 112.205826 41.987669 
L 114.766624 42.352124 
L 117.327422 42.721031 
L 119.88822 43.094614 
L 122.449018 43.473106 
L 125.009816 43.856755 
L 127.570614 44.245818 
L 130.131412 44.640567 
L 132.69221 45.041287 
L 135.253008 45.448277 
L 137.813806 45.861853 
L 140.374604 46.282345 
L 142.935402 46.710098 
L 145.4962 47.145477 
L 148.056998 47.588865 
L 150.617796 48.040664 
L 153.178594 48.501295 
L 155.739392 48.9712 
L 158.30019 49.450846 
L 160.860988 49.94072 
L 163.421786 50.441335 
L 165.982584 50.953231 
L 168.543382 51.476972 
L 171.10418 52.013153 
L 173.664978 52.562398 
L 176.225776 53.125361 
L 178.786574 53.702731 
L 181.347372 54.29523 
L 183.90817 54.903616 
L 186.468968 55.528687 
L 189.029766 56.171279 
L 191.590564 56.832271 
L 194.151362 57.512586 
L 196.71216 58.213191 
L 199.272958 58.935106 
L 201.833756 59.679398 
L 204.394554 60.44719 
L 206.955352 61.23966 
L 209.51615 62.058045 
L 212.076948 62.903646 
L 214.637746 63.777826 
L 217.198544 64.68202 
L 219.759342 65.617732 
L 222.32014 66.586543 
L 224.880938 67.590112 
L 227.441736 68.630183 
L 230.002534 69.708586 
L 232.563332 70.827243 
L 235.12413 71.988173 
L 237.684928 73.193496 
L 240.245726 74.445437 
L 242.806524 75.746336 
L 245.367322 77.098645 
L 247.92812 78.504945 
L 250.488918 79.967942 
L 253.049716 81.490479 
L 255.610514 83.075542 
L 258.171312 84.726267 
L 260.73211 86.445946 
L 263.292908 88.238038 
L 265.853706 90.106173 
L 268.414504 92.054164 
L 270.975302 94.086017 
L 273.5361 96.205937 
L 276.096898 98.418339 
L 278.657696 100.727862 
L 281.218494 103.139376 
L 283.779292 105.657996 
L 286.34009 108.289092 
L 288.900888 111.038304 
L 291.461686 113.911557 
L 294.022484 116.91507 
L 296.583282 120.055375 
L 299.14408 123.339332 
L 301.704878 126.774145 
L 304.265676 130.367378 
L 306.826474 134.126976 
L 309.387272 138.061282 
L 311.94807 142.179056 
L 314.508868 146.489499 
L 317.069666 151.002273 
L 319.630464 155.727523 
L 322.191262 160.675906 
L 324.75206 165.858609 
L 327.312858 171.287384 
L 329.873656 176.974571 
L 332.434454 182.933127 
" clip-path="url(#p99a5c72568)" style="fill: none; stroke: #ff0000; stroke-width: 1.5; stroke-linecap: square"/>
   </g>
   <g id="line2d_60">
    <path d="M 78.915452 37.382991 
L 81.47625 37.713362 
L 84.037048 38.046052 
L 86.597846 38.381178 
L 89.158644 38.718861 
L 91.719442 39.05923 
L 94.28024 39.40242 
L 96.841038 39.748572 
L 99.401836 40.097834 
L 101.962634 40.450363 
L 104.523432 40.806323 
L 107.08423 41.165884 
L 109.645028 41.529229 
L 112.205826 41.896547 
L 114.766624 42.268036 
L 117.327422 42.643907 
L 119.88822 43.024379 
L 122.449018 43.409682 
L 125.009816 43.800059 
L 127.570614 44.195765 
L 130.131412 44.597066 
L 132.69221 45.004243 
L 135.253008 45.417591 
L 137.813806 45.83742 
L 140.374604 46.264053 
L 142.935402 46.697833 
L 145.4962 47.139118 
L 148.056998 47.588284 
L 150.617796 48.045727 
L 153.178594 48.51186 
L 155.739392 48.987122 
L 158.30019 49.471968 
L 160.860988 49.96688 
L 163.421786 50.472362 
L 165.982584 50.988945 
L 168.543382 51.517185 
L 171.10418 52.057667 
L 173.664978 52.611004 
L 176.225776 53.177842 
L 178.786574 53.758857 
L 181.347372 54.35476 
L 183.90817 54.966298 
L 186.468968 55.594254 
L 189.029766 56.239453 
L 191.590564 56.902759 
L 194.151362 57.585079 
L 196.71216 58.287368 
L 199.272958 59.010627 
L 201.833756 59.755907 
L 204.394554 60.524312 
L 206.955352 61.317003 
L 209.51615 62.135197 
L 212.076948 62.980173 
L 214.637746 63.853273 
L 217.198544 64.75591 
L 219.759342 65.689562 
L 222.32014 66.655787 
L 224.880938 67.656216 
L 227.441736 68.692567 
L 230.002534 69.766639 
L 232.563332 70.880324 
L 235.12413 72.035609 
L 237.684928 73.234581 
L 240.245726 74.479429 
L 242.806524 75.772454 
L 245.367322 77.116073 
L 247.92812 78.512822 
L 250.488918 79.965365 
L 253.049716 81.476502 
L 255.610514 83.049169 
L 258.171312 84.686452 
L 260.73211 86.391592 
L 263.292908 88.167991 
L 265.853706 90.019224 
L 268.414504 91.949041 
L 270.975302 93.961385 
L 273.5361 96.060394 
L 276.096898 98.250414 
L 278.657696 100.536008 
L 281.218494 102.92197 
L 283.779292 105.413331 
L 286.34009 108.015379 
L 288.900888 110.733664 
L 291.461686 113.574014 
L 294.022484 116.54255 
L 296.583282 119.645701 
L 299.14408 122.890217 
L 301.704878 126.283187 
L 304.265676 129.832057 
L 306.826474 133.544642 
L 309.387272 137.429154 
L 311.94807 141.494214 
L 314.508868 145.748876 
L 317.069666 150.202647 
L 319.630464 154.865513 
L 322.191262 159.747958 
L 324.75206 164.860995 
L 327.312858 170.216186 
L 329.873656 175.825675 
L 332.434454 181.702214 
" clip-path="url(#p99a5c72568)" style="fill: none; stroke: #008000; stroke-width: 1.5; stroke-linecap: square"/>
   </g>
   <g id="line2d_61">
    <path d="M 78.915452 37.570669 
L 81.47625 37.89334 
L 84.037048 38.218368 
L 86.597846 38.545871 
L 89.158644 38.875973 
L 91.719442 39.208805 
L 94.28024 39.544502 
L 96.841038 39.88321 
L 99.401836 40.225078 
L 101.962634 40.570266 
L 104.523432 40.91894 
L 107.08423 41.271275 
L 109.645028 41.627453 
L 112.205826 41.987669 
L 114.766624 42.352124 
L 117.327422 42.721031 
L 119.88822 43.094614 
L 122.449018 43.473106 
L 125.009816 43.856755 
L 127.570614 44.245818 
L 130.131412 44.640567 
L 132.69221 45.041287 
L 135.253008 45.448277 
L 137.813806 45.861853 
L 140.374604 46.282345 
L 142.935402 46.710098 
L 145.4962 47.145477 
L 148.056998 47.588865 
L 150.617796 48.040664 
L 153.178594 48.501295 
L 155.739392 48.9712 
L 158.30019 49.450846 
L 160.860988 49.94072 
L 163.421786 50.441335 
L 165.982584 50.953231 
L 168.543382 51.476972 
L 171.10418 52.013153 
L 173.664978 52.562398 
L 176.225776 53.125361 
L 178.786574 53.702731 
L 181.347372 54.29523 
L 183.90817 54.903616 
L 186.468968 55.528687 
L 189.029766 56.171279 
L 191.590564 56.832271 
L 194.151362 57.512586 
L 196.71216 58.213191 
L 199.272958 58.935106 
L 201.833756 59.679398 
L 204.394554 60.44719 
L 206.955352 61.23966 
L 209.51615 62.058045 
L 212.076948 62.903646 
L 214.637746 63.777826 
L 217.198544 64.68202 
L 219.759342 65.617732 
L 222.32014 66.586543 
L 224.880938 67.590112 
L 227.441736 68.630183 
L 230.002534 69.708586 
L 232.563332 70.827243 
L 235.12413 71.988173 
L 237.684928 73.193496 
L 240.245726 74.445437 
L 242.806524 75.746336 
L 245.367322 77.098645 
L 247.92812 78.504945 
L 250.488918 79.967942 
L 253.049716 81.490479 
L 255.610514 83.075542 
L 258.171312 84.726267 
L 260.73211 86.445946 
L 263.292908 88.238038 
L 265.853706 90.106173 
L 268.414504 92.054164 
L 270.975302 94.086017 
L 273.5361 96.205937 
L 276.096898 98.418339 
L 278.657696 100.727862 
L 281.218494 103.139376 
L 283.779292 105.657996 
L 286.34009 108.289092 
L 288.900888 111.038304 
L 291.461686 113.911557 
L 294.022484 116.91507 
L 296.583282 120.055375 
L 299.14408 123.339332 
L 301.704878 126.774145 
L 304.265676 130.367378 
L 306.826474 134.126976 
L 309.387272 138.061282 
L 311.94807 142.179056 
L 314.508868 146.489499 
L 317.069666 151.002273 
L 319.630464 155.727523 
L 322.191262 160.675906 
L 324.75206 165.858609 
L 327.312858 171.287384 
L 329.873656 176.974571 
L 332.434454 182.933127 
" clip-path="url(#p99a5c72568)" style="fill: none; stroke-dasharray: 1.5,2.475; stroke-dashoffset: 0; stroke: #000000; stroke-width: 1.5"/>
   </g>
   <g id="line2d_62">
    <path d="M 77.635053 38.745462 
L 92.698571 40.440818 
L 107.762089 42.181161 
L 122.825606 44.025727 
L 137.889124 46.053948 
L 152.952642 48.368076 
L 168.016159 51.093075 
L 183.079677 54.371742 
L 198.143194 58.353358 
L 213.206712 63.175715 
L 228.27023 68.942521 
L 243.333747 75.699223 
L 258.397265 83.409971 
L 273.460782 91.938514 
L 288.5243 101.032266 
L 303.587818 110.297547 
L 318.651335 119.163648 
L 333.714853 126.872126 
" clip-path="url(#p99a5c72568)" style="fill: none; stroke: #00008b; stroke-opacity: 0.7; stroke-width: 1.5; stroke-linecap: square"/>
   </g>
   <g id="patch_3">
    <path d="M 64.703389 190.4328 
L 64.703389 25.44 
" style="fill: none; stroke: #000000; stroke-width: 0.8; stroke-linejoin: miter; stroke-linecap: square"/>
   </g>
   <g id="patch_4">
    <path d="M 349.2 190.4328 
L 349.2 25.44 
" style="fill: none; stroke: #000000; stroke-width: 0.8; stroke-linejoin: miter; stroke-linecap: square"/>
   </g>
   <g id="patch_5">
    <path d="M 64.703389 190.4328 
L 349.2 190.4328 
" style="fill: none; stroke: #000000; stroke-width: 0.8; stroke-linejoin: miter; stroke-linecap: square"/>
   </g>
   <g id="patch_6">
    <path d="M 64.703389 25.44 
L 349.2 25.44 
" style="fill: none; stroke: #000000; stroke-width: 0.8; stroke-linejoin: miter; stroke-linecap: square"/>
   </g>
   <g id="text_6">
    <!-- N = 800 (p = 5.82%) -->
    <g transform="translate(143.869195 19.44) scale(0.12 -0.12)">
     <defs>
      <path id="DejaVuSans-3d" d="M 678 2906 
L 4684 2906 
L 4684 2381 
L 678 2381 
L 678 2906 
z
M 678 1631 
L 4684 1631 
L 4684 1100 
L 678 1100 
L 678 1631 
z
" transform="scale(0.015625)"/>
      <path id="DejaVuSans-38" d="M 2034 2216 
Q 1584 2216 1326 1975 
Q 1069 1734 1069 1313 
Q 1069 891 1326 650 
Q 1584 409 2034 409 
Q 2484 409 2743 651 
Q 3003 894 3003 1313 
Q 3003 1734 2745 1975 
Q 2488 2216 2034 2216 
z
M 1403 2484 
Q 997 2584 770 2862 
Q 544 3141 544 3541 
Q 544 4100 942 4425 
Q 1341 4750 2034 4750 
Q 2731 4750 3128 4425 
Q 3525 4100 3525 3541 
Q 3525 3141 3298 2862 
Q 3072 2584 2669 2484 
Q 3125 2378 3379 2068 
Q 3634 1759 3634 1313 
Q 3634 634 3220 271 
Q 2806 -91 2034 -91 
Q 1263 -91 848 271 
Q 434 634 434 1313 
Q 434 1759 690 2068 
Q 947 2378 1403 2484 
z
M 1172 3481 
Q 1172 3119 1398 2916 
Q 1625 2713 2034 2713 
Q 2441 2713 2670 2916 
Q 2900 3119 2900 3481 
Q 2900 3844 2670 4047 
Q 2441 4250 2034 4250 
Q 1625 4250 1398 4047 
Q 1172 3844 1172 3481 
z
" transform="scale(0.015625)"/>
      <path id="DejaVuSans-28" d="M 1984 4856 
Q 1566 4138 1362 3434 
Q 1159 2731 1159 2009 
Q 1159 1288 1364 580 
Q 1569 -128 1984 -844 
L 1484 -844 
Q 1016 -109 783 600 
Q 550 1309 550 2009 
Q 550 2706 781 3412 
Q 1013 4119 1484 4856 
L 1984 4856 
z
" transform="scale(0.015625)"/>
      <path id="DejaVuSans-70" d="M 1159 525 
L 1159 -1331 
L 581 -1331 
L 581 3500 
L 1159 3500 
L 1159 2969 
Q 1341 3281 1617 3432 
Q 1894 3584 2278 3584 
Q 2916 3584 3314 3078 
Q 3713 2572 3713 1747 
Q 3713 922 3314 415 
Q 2916 -91 2278 -91 
Q 1894 -91 1617 61 
Q 1341 213 1159 525 
z
M 3116 1747 
Q 3116 2381 2855 2742 
Q 2594 3103 2138 3103 
Q 1681 3103 1420 2742 
Q 1159 2381 1159 1747 
Q 1159 1113 1420 752 
Q 1681 391 2138 391 
Q 2594 391 2855 752 
Q 3116 1113 3116 1747 
z
" transform="scale(0.015625)"/>
      <path id="DejaVuSans-2e" d="M 684 794 
L 1344 794 
L 1344 0 
L 684 0 
L 684 794 
z
" transform="scale(0.015625)"/>
      <path id="DejaVuSans-25" d="M 4653 2053 
Q 4381 2053 4226 1822 
Q 4072 1591 4072 1178 
Q 4072 772 4226 539 
Q 4381 306 4653 306 
Q 4919 306 5073 539 
Q 5228 772 5228 1178 
Q 5228 1588 5073 1820 
Q 4919 2053 4653 2053 
z
M 4653 2450 
Q 5147 2450 5437 2106 
Q 5728 1763 5728 1178 
Q 5728 594 5436 251 
Q 5144 -91 4653 -91 
Q 4153 -91 3862 251 
Q 3572 594 3572 1178 
Q 3572 1766 3864 2108 
Q 4156 2450 4653 2450 
z
M 1428 4353 
Q 1159 4353 1004 4120 
Q 850 3888 850 3481 
Q 850 3069 1003 2837 
Q 1156 2606 1428 2606 
Q 1700 2606 1854 2837 
Q 2009 3069 2009 3481 
Q 2009 3884 1853 4118 
Q 1697 4353 1428 4353 
z
M 4250 4750 
L 4750 4750 
L 1831 -91 
L 1331 -91 
L 4250 4750 
z
M 1428 4750 
Q 1922 4750 2215 4408 
Q 2509 4066 2509 3481 
Q 2509 2891 2217 2550 
Q 1925 2209 1428 2209 
Q 931 2209 642 2551 
Q 353 2894 353 3481 
Q 353 4063 643 4406 
Q 934 4750 1428 4750 
z
" transform="scale(0.015625)"/>
      <path id="DejaVuSans-29" d="M 513 4856 
L 1013 4856 
Q 1481 4119 1714 3412 
Q 1947 2706 1947 2009 
Q 1947 1309 1714 600 
Q 1481 -109 1013 -844 
L 513 -844 
Q 928 -128 1133 580 
Q 1338 1288 1338 2009 
Q 1338 2731 1133 3434 
Q 928 4138 513 4856 
z
" transform="scale(0.015625)"/>
     </defs>
     <use xlink:href="#DejaVuSans-4e"/>
     <use xlink:href="#DejaVuSans-20" x="74.804688"/>
     <use xlink:href="#DejaVuSans-3d" x="106.591797"/>
     <use xlink:href="#DejaVuSans-20" x="190.380859"/>
     <use xlink:href="#DejaVuSans-38" x="222.167969"/>
     <use xlink:href="#DejaVuSans-30" x="285.791016"/>
     <use xlink:href="#DejaVuSans-30" x="349.414062"/>
     <use xlink:href="#DejaVuSans-20" x="413.037109"/>
     <use xlink:href="#DejaVuSans-28" x="444.824219"/>
     <use xlink:href="#DejaVuSans-70" x="483.837891"/>
     <use xlink:href="#DejaVuSans-20" x="547.314453"/>
     <use xlink:href="#DejaVuSans-3d" x="579.101562"/>
     <use xlink:href="#DejaVuSans-20" x="662.890625"/>
     <use xlink:href="#DejaVuSans-35" x="694.677734"/>
     <use xlink:href="#DejaVuSans-2e" x="758.300781"/>
     <use xlink:href="#DejaVuSans-38" x="790.087891"/>
     <use xlink:href="#DejaVuSans-32" x="853.710938"/>
     <use xlink:href="#DejaVuSans-25" x="917.333984"/>
     <use xlink:href="#DejaVuSans-29" x="1012.353516"/>
    </g>
   </g>
   <g id="legend_1">
    <g id="patch_7">
     <path d="M 71.703389 185.4328 
L 172.737764 185.4328 
Q 174.737764 185.4328 174.737764 183.4328 
L 174.737764 125.7203 
Q 174.737764 123.7203 172.737764 123.7203 
L 71.703389 123.7203 
Q 69.703389 123.7203 69.703389 125.7203 
L 69.703389 183.4328 
Q 69.703389 185.4328 71.703389 185.4328 
z
" style="fill: #ffffff; opacity: 0.8; stroke: #cccccc; stroke-linejoin: miter"/>
    </g>
    <g id="patch_8">
     <path d="M 73.703389 135.318737 
L 93.703389 135.318737 
L 93.703389 128.318737 
L 73.703389 128.318737 
z
" style="fill: #ff0000; fill-opacity: 0.5"/>
    </g>
    <g id="text_7">
     <!-- $1\sigma$ Standard -->
     <g transform="translate(101.703389 135.318737) scale(0.1 -0.1)">
      <defs>
       <path id="DejaVuSans-Oblique-3c3" d="M 2219 3044 
Q 1744 3044 1422 2700 
Q 1081 2341 969 1747 
Q 844 1119 1044 756 
Q 1241 397 1706 397 
Q 2166 397 2503 759 
Q 2844 1122 2966 1747 
Q 3075 2319 2881 2700 
Q 2700 3044 2219 3044 
z
M 2309 3503 
L 4219 3500 
L 4106 2925 
L 3463 2925 
Q 3706 2438 3575 1747 
Q 3406 888 2884 400 
Q 2359 -91 1609 -91 
Q 856 -91 525 400 
Q 194 888 363 1747 
Q 528 2609 1050 3097 
Q 1484 3503 2309 3503 
z
" transform="scale(0.015625)"/>
       <path id="DejaVuSans-53" d="M 3425 4513 
L 3425 3897 
Q 3066 4069 2747 4153 
Q 2428 4238 2131 4238 
Q 1616 4238 1336 4038 
Q 1056 3838 1056 3469 
Q 1056 3159 1242 3001 
Q 1428 2844 1947 2747 
L 2328 2669 
Q 3034 2534 3370 2195 
Q 3706 1856 3706 1288 
Q 3706 609 3251 259 
Q 2797 -91 1919 -91 
Q 1588 -91 1214 -16 
Q 841 59 441 206 
L 441 856 
Q 825 641 1194 531 
Q 1563 422 1919 422 
Q 2459 422 2753 634 
Q 3047 847 3047 1241 
Q 3047 1584 2836 1778 
Q 2625 1972 2144 2069 
L 1759 2144 
Q 1053 2284 737 2584 
Q 422 2884 422 3419 
Q 422 4038 858 4394 
Q 1294 4750 2059 4750 
Q 2388 4750 2728 4690 
Q 3069 4631 3425 4513 
z
" transform="scale(0.015625)"/>
       <path id="DejaVuSans-74" d="M 1172 4494 
L 1172 3500 
L 2356 3500 
L 2356 3053 
L 1172 3053 
L 1172 1153 
Q 1172 725 1289 603 
Q 1406 481 1766 481 
L 2356 481 
L 2356 0 
L 1766 0 
Q 1100 0 847 248 
Q 594 497 594 1153 
L 594 3053 
L 172 3053 
L 172 3500 
L 594 3500 
L 594 4494 
L 1172 4494 
z
" transform="scale(0.015625)"/>
       <path id="DejaVuSans-61" d="M 2194 1759 
Q 1497 1759 1228 1600 
Q 959 1441 959 1056 
Q 959 750 1161 570 
Q 1363 391 1709 391 
Q 2188 391 2477 730 
Q 2766 1069 2766 1631 
L 2766 1759 
L 2194 1759 
z
M 3341 1997 
L 3341 0 
L 2766 0 
L 2766 531 
Q 2569 213 2275 61 
Q 1981 -91 1556 -91 
Q 1019 -91 701 211 
Q 384 513 384 1019 
Q 384 1609 779 1909 
Q 1175 2209 1959 2209 
L 2766 2209 
L 2766 2266 
Q 2766 2663 2505 2880 
Q 2244 3097 1772 3097 
Q 1472 3097 1187 3025 
Q 903 2953 641 2809 
L 641 3341 
Q 956 3463 1253 3523 
Q 1550 3584 1831 3584 
Q 2591 3584 2966 3190 
Q 3341 2797 3341 1997 
z
" transform="scale(0.015625)"/>
       <path id="DejaVuSans-6e" d="M 3513 2113 
L 3513 0 
L 2938 0 
L 2938 2094 
Q 2938 2591 2744 2837 
Q 2550 3084 2163 3084 
Q 1697 3084 1428 2787 
Q 1159 2491 1159 1978 
L 1159 0 
L 581 0 
L 581 3500 
L 1159 3500 
L 1159 2956 
Q 1366 3272 1645 3428 
Q 1925 3584 2291 3584 
Q 2894 3584 3203 3211 
Q 3513 2838 3513 2113 
z
" transform="scale(0.015625)"/>
       <path id="DejaVuSans-72" d="M 2631 2963 
Q 2534 3019 2420 3045 
Q 2306 3072 2169 3072 
Q 1681 3072 1420 2755 
Q 1159 2438 1159 1844 
L 1159 0 
L 581 0 
L 581 3500 
L 1159 3500 
L 1159 2956 
Q 1341 3275 1631 3429 
Q 1922 3584 2338 3584 
Q 2397 3584 2469 3576 
Q 2541 3569 2628 3553 
L 2631 2963 
z
" transform="scale(0.015625)"/>
      </defs>
      <use xlink:href="#DejaVuSans-31" transform="translate(0 0.015625)"/>
      <use xlink:href="#DejaVuSans-Oblique-3c3" transform="translate(63.623047 0.015625)"/>
      <use xlink:href="#DejaVuSans-20" transform="translate(127.001953 0.015625)"/>
      <use xlink:href="#DejaVuSans-53" transform="translate(158.789062 0.015625)"/>
      <use xlink:href="#DejaVuSans-74" transform="translate(222.265625 0.015625)"/>
      <use xlink:href="#DejaVuSans-61" transform="translate(261.474609 0.015625)"/>
      <use xlink:href="#DejaVuSans-6e" transform="translate(322.753906 0.015625)"/>
      <use xlink:href="#DejaVuSans-64" transform="translate(386.132812 0.015625)"/>
      <use xlink:href="#DejaVuSans-61" transform="translate(449.609375 0.015625)"/>
      <use xlink:href="#DejaVuSans-72" transform="translate(510.888672 0.015625)"/>
      <use xlink:href="#DejaVuSans-64" transform="translate(552.001953 0.015625)"/>
     </g>
    </g>
    <g id="patch_9">
     <path d="M 73.703389 149.996862 
L 93.703389 149.996862 
L 93.703389 142.996862 
L 73.703389 142.996862 
z
" style="fill: #008000; fill-opacity: 0.5"/>
    </g>
    <g id="text_8">
     <!-- $1\sigma$ Nuisance -->
     <g transform="translate(101.703389 149.996862) scale(0.1 -0.1)">
      <defs>
       <path id="DejaVuSans-75" d="M 544 1381 
L 544 3500 
L 1119 3500 
L 1119 1403 
Q 1119 906 1312 657 
Q 1506 409 1894 409 
Q 2359 409 2629 706 
Q 2900 1003 2900 1516 
L 2900 3500 
L 3475 3500 
L 3475 0 
L 2900 0 
L 2900 538 
Q 2691 219 2414 64 
Q 2138 -91 1772 -91 
Q 1169 -91 856 284 
Q 544 659 544 1381 
z
M 1991 3584 
L 1991 3584 
z
" transform="scale(0.015625)"/>
       <path id="DejaVuSans-69" d="M 603 3500 
L 1178 3500 
L 1178 0 
L 603 0 
L 603 3500 
z
M 603 4863 
L 1178 4863 
L 1178 4134 
L 603 4134 
L 603 4863 
z
" transform="scale(0.015625)"/>
      </defs>
      <use xlink:href="#DejaVuSans-31" transform="translate(0 0.015625)"/>
      <use xlink:href="#DejaVuSans-Oblique-3c3" transform="translate(63.623047 0.015625)"/>
      <use xlink:href="#DejaVuSans-20" transform="translate(127.001953 0.015625)"/>
      <use xlink:href="#DejaVuSans-4e" transform="translate(158.789062 0.015625)"/>
      <use xlink:href="#DejaVuSans-75" transform="translate(233.59375 0.015625)"/>
      <use xlink:href="#DejaVuSans-69" transform="translate(296.972656 0.015625)"/>
      <use xlink:href="#DejaVuSans-73" transform="translate(324.755859 0.015625)"/>
      <use xlink:href="#DejaVuSans-61" transform="translate(376.855469 0.015625)"/>
      <use xlink:href="#DejaVuSans-6e" transform="translate(438.134766 0.015625)"/>
      <use xlink:href="#DejaVuSans-63" transform="translate(501.513672 0.015625)"/>
      <use xlink:href="#DejaVuSans-65" transform="translate(556.494141 0.015625)"/>
     </g>
    </g>
    <g id="line2d_63">
     <path d="M 73.703389 161.174987 
L 83.703389 161.174987 
L 93.703389 161.174987 
" style="fill: none; stroke-dasharray: 1.5,2.475; stroke-dashoffset: 0; stroke: #000000; stroke-width: 1.5"/>
    </g>
    <g id="text_9">
     <!-- Input -->
     <g transform="translate(101.703389 164.674987) scale(0.1 -0.1)">
      <defs>
       <path id="DejaVuSans-49" d="M 628 4666 
L 1259 4666 
L 1259 0 
L 628 0 
L 628 4666 
z
" transform="scale(0.015625)"/>
      </defs>
      <use xlink:href="#DejaVuSans-49"/>
      <use xlink:href="#DejaVuSans-6e" x="29.492188"/>
      <use xlink:href="#DejaVuSans-70" x="92.871094"/>
      <use xlink:href="#DejaVuSans-75" x="156.347656"/>
      <use xlink:href="#DejaVuSans-74" x="219.726562"/>
     </g>
    </g>
    <g id="LineCollection_2">
     <path d="M 83.703389 180.853113 
L 83.703389 170.853113 
" style="fill: none; stroke: #00008b; stroke-opacity: 0.7; stroke-width: 1.5"/>
    </g>
    <g id="line2d_64">
     <path d="M 73.703389 175.853113 
L 93.703389 175.853113 
" style="fill: none; stroke: #00008b; stroke-opacity: 0.7; stroke-width: 1.5; stroke-linecap: square"/>
    </g>
    <g id="line2d_65"/>
    <g id="text_10">
     <!-- Mean and Std -->
     <g transform="translate(101.703389 179.353113) scale(0.1 -0.1)">
      <defs>
       <path id="DejaVuSans-4d" d="M 628 4666 
L 1569 4666 
L 2759 1491 
L 3956 4666 
L 4897 4666 
L 4897 0 
L 4281 0 
L 4281 4097 
L 3078 897 
L 2444 897 
L 1241 4097 
L 1241 0 
L 628 0 
L 628 4666 
z
" transform="scale(0.015625)"/>
      </defs>
      <use xlink:href="#DejaVuSans-4d"/>
      <use xlink:href="#DejaVuSans-65" x="86.279297"/>
      <use xlink:href="#DejaVuSans-61" x="147.802734"/>
      <use xlink:href="#DejaVuSans-6e" x="209.082031"/>
      <use xlink:href="#DejaVuSans-20" x="272.460938"/>
      <use xlink:href="#DejaVuSans-61" x="304.248047"/>
      <use xlink:href="#DejaVuSans-6e" x="365.527344"/>
      <use xlink:href="#DejaVuSans-64" x="428.90625"/>
      <use xlink:href="#DejaVuSans-20" x="492.382812"/>
      <use xlink:href="#DejaVuSans-53" x="524.169922"/>
      <use xlink:href="#DejaVuSans-74" x="587.646484"/>
      <use xlink:href="#DejaVuSans-64" x="626.855469"/>
     </g>
    </g>
   </g>
  </g>
  <g id="axes_2">
   <g id="patch_10">
    <path d="M 64.703389 314.728 
L 349.2 314.728 
L 349.2 204.7328 
L 64.703389 204.7328 
z
" style="fill: #ffffff"/>
   </g>
   <g id="matplotlib.axis_3">
    <g id="xtick_24">
     <g id="line2d_66">
      <g>
       <use xlink:href="#m14e7407022" x="115.293848" y="314.728" style="stroke: #000000; stroke-width: 0.8"/>
      </g>
     </g>
     <g id="text_11">
      <!-- $\mathdefault{10^{0}}$ -->
      <g transform="translate(106.493848 329.326437) scale(0.1 -0.1)">
       <use xlink:href="#DejaVuSans-31" transform="translate(0 0.765625)"/>
       <use xlink:href="#DejaVuSans-30" transform="translate(63.623047 0.765625)"/>
       <use xlink:href="#DejaVuSans-30" transform="translate(128.203125 39.046875) scale(0.7)"/>
      </g>
     </g>
    </g>
    <g id="xtick_25">
     <g id="line2d_67">
      <g>
       <use xlink:href="#m14e7407022" x="235.801988" y="314.728" style="stroke: #000000; stroke-width: 0.8"/>
      </g>
     </g>
     <g id="text_12">
      <!-- $\mathdefault{10^{1}}$ -->
      <g transform="translate(227.001988 329.326437) scale(0.1 -0.1)">
       <use xlink:href="#DejaVuSans-31" transform="translate(0 0.684375)"/>
       <use xlink:href="#DejaVuSans-30" transform="translate(63.623047 0.684375)"/>
       <use xlink:href="#DejaVuSans-31" transform="translate(128.203125 38.965625) scale(0.7)"/>
      </g>
     </g>
    </g>
    <g id="xtick_26">
     <g id="line2d_68">
      <g>
       <use xlink:href="#m65535b530f" x="67.338837" y="314.728" style="stroke: #000000; stroke-width: 0.6"/>
      </g>
     </g>
    </g>
    <g id="xtick_27">
     <g id="line2d_69">
      <g>
       <use xlink:href="#m65535b530f" x="79.017282" y="314.728" style="stroke: #000000; stroke-width: 0.6"/>
      </g>
     </g>
    </g>
    <g id="xtick_28">
     <g id="line2d_70">
      <g>
       <use xlink:href="#m65535b530f" x="88.559267" y="314.728" style="stroke: #000000; stroke-width: 0.6"/>
      </g>
     </g>
    </g>
    <g id="xtick_29">
     <g id="line2d_71">
      <g>
       <use xlink:href="#m65535b530f" x="96.6269" y="314.728" style="stroke: #000000; stroke-width: 0.6"/>
      </g>
     </g>
    </g>
    <g id="xtick_30">
     <g id="line2d_72">
      <g>
       <use xlink:href="#m65535b530f" x="103.615402" y="314.728" style="stroke: #000000; stroke-width: 0.6"/>
      </g>
     </g>
    </g>
    <g id="xtick_31">
     <g id="line2d_73">
      <g>
       <use xlink:href="#m65535b530f" x="109.779697" y="314.728" style="stroke: #000000; stroke-width: 0.6"/>
      </g>
     </g>
    </g>
    <g id="xtick_32">
     <g id="line2d_74">
      <g>
       <use xlink:href="#m65535b530f" x="151.570413" y="314.728" style="stroke: #000000; stroke-width: 0.6"/>
      </g>
     </g>
    </g>
    <g id="xtick_33">
     <g id="line2d_75">
      <g>
       <use xlink:href="#m65535b530f" x="172.790843" y="314.728" style="stroke: #000000; stroke-width: 0.6"/>
      </g>
     </g>
    </g>
    <g id="xtick_34">
     <g id="line2d_76">
      <g>
       <use xlink:href="#m65535b530f" x="187.846978" y="314.728" style="stroke: #000000; stroke-width: 0.6"/>
      </g>
     </g>
    </g>
    <g id="xtick_35">
     <g id="line2d_77">
      <g>
       <use xlink:href="#m65535b530f" x="199.525423" y="314.728" style="stroke: #000000; stroke-width: 0.6"/>
      </g>
     </g>
    </g>
    <g id="xtick_36">
     <g id="line2d_78">
      <g>
       <use xlink:href="#m65535b530f" x="209.067408" y="314.728" style="stroke: #000000; stroke-width: 0.6"/>
      </g>
     </g>
    </g>
    <g id="xtick_37">
     <g id="line2d_79">
      <g>
       <use xlink:href="#m65535b530f" x="217.135041" y="314.728" style="stroke: #000000; stroke-width: 0.6"/>
      </g>
     </g>
    </g>
    <g id="xtick_38">
     <g id="line2d_80">
      <g>
       <use xlink:href="#m65535b530f" x="224.123543" y="314.728" style="stroke: #000000; stroke-width: 0.6"/>
      </g>
     </g>
    </g>
    <g id="xtick_39">
     <g id="line2d_81">
      <g>
       <use xlink:href="#m65535b530f" x="230.287838" y="314.728" style="stroke: #000000; stroke-width: 0.6"/>
      </g>
     </g>
    </g>
    <g id="xtick_40">
     <g id="line2d_82">
      <g>
       <use xlink:href="#m65535b530f" x="272.078554" y="314.728" style="stroke: #000000; stroke-width: 0.6"/>
      </g>
     </g>
    </g>
    <g id="xtick_41">
     <g id="line2d_83">
      <g>
       <use xlink:href="#m65535b530f" x="293.298984" y="314.728" style="stroke: #000000; stroke-width: 0.6"/>
      </g>
     </g>
    </g>
    <g id="xtick_42">
     <g id="line2d_84">
      <g>
       <use xlink:href="#m65535b530f" x="308.355119" y="314.728" style="stroke: #000000; stroke-width: 0.6"/>
      </g>
     </g>
    </g>
    <g id="xtick_43">
     <g id="line2d_85">
      <g>
       <use xlink:href="#m65535b530f" x="320.033564" y="314.728" style="stroke: #000000; stroke-width: 0.6"/>
      </g>
     </g>
    </g>
    <g id="xtick_44">
     <g id="line2d_86">
      <g>
       <use xlink:href="#m65535b530f" x="329.575549" y="314.728" style="stroke: #000000; stroke-width: 0.6"/>
      </g>
     </g>
    </g>
    <g id="xtick_45">
     <g id="line2d_87">
      <g>
       <use xlink:href="#m65535b530f" x="337.643182" y="314.728" style="stroke: #000000; stroke-width: 0.6"/>
      </g>
     </g>
    </g>
    <g id="xtick_46">
     <g id="line2d_88">
      <g>
       <use xlink:href="#m65535b530f" x="344.631684" y="314.728" style="stroke: #000000; stroke-width: 0.6"/>
      </g>
     </g>
    </g>
    <g id="text_13">
     <!-- Energy [TeV] -->
     <g transform="translate(175.254038 343.004563) scale(0.1 -0.1)">
      <defs>
       <path id="DejaVuSans-67" d="M 2906 1791 
Q 2906 2416 2648 2759 
Q 2391 3103 1925 3103 
Q 1463 3103 1205 2759 
Q 947 2416 947 1791 
Q 947 1169 1205 825 
Q 1463 481 1925 481 
Q 2391 481 2648 825 
Q 2906 1169 2906 1791 
z
M 3481 434 
Q 3481 -459 3084 -895 
Q 2688 -1331 1869 -1331 
Q 1566 -1331 1297 -1286 
Q 1028 -1241 775 -1147 
L 775 -588 
Q 1028 -725 1275 -790 
Q 1522 -856 1778 -856 
Q 2344 -856 2625 -561 
Q 2906 -266 2906 331 
L 2906 616 
Q 2728 306 2450 153 
Q 2172 0 1784 0 
Q 1141 0 747 490 
Q 353 981 353 1791 
Q 353 2603 747 3093 
Q 1141 3584 1784 3584 
Q 2172 3584 2450 3431 
Q 2728 3278 2906 2969 
L 2906 3500 
L 3481 3500 
L 3481 434 
z
" transform="scale(0.015625)"/>
       <path id="DejaVuSans-79" d="M 2059 -325 
Q 1816 -950 1584 -1140 
Q 1353 -1331 966 -1331 
L 506 -1331 
L 506 -850 
L 844 -850 
Q 1081 -850 1212 -737 
Q 1344 -625 1503 -206 
L 1606 56 
L 191 3500 
L 800 3500 
L 1894 763 
L 2988 3500 
L 3597 3500 
L 2059 -325 
z
" transform="scale(0.015625)"/>
      </defs>
      <use xlink:href="#DejaVuSans-45"/>
      <use xlink:href="#DejaVuSans-6e" x="63.183594"/>
      <use xlink:href="#DejaVuSans-65" x="126.5625"/>
      <use xlink:href="#DejaVuSans-72" x="188.085938"/>
      <use xlink:href="#DejaVuSans-67" x="227.449219"/>
      <use xlink:href="#DejaVuSans-79" x="290.925781"/>
      <use xlink:href="#DejaVuSans-20" x="350.105469"/>
      <use xlink:href="#DejaVuSans-5b" x="381.892578"/>
      <use xlink:href="#DejaVuSans-54" x="420.90625"/>
      <use xlink:href="#DejaVuSans-65" x="464.990234"/>
      <use xlink:href="#DejaVuSans-56" x="526.513672"/>
      <use xlink:href="#DejaVuSans-5d" x="594.921875"/>
     </g>
    </g>
   </g>
   <g id="matplotlib.axis_4">
    <g id="ytick_36">
     <g id="line2d_89">
      <g>
       <use xlink:href="#m2d4a0c5ef6" x="64.703389" y="307.710475" style="stroke: #000000; stroke-width: 0.8"/>
      </g>
     </g>
     <g id="text_14">
      <!-- 0.6 -->
      <g transform="translate(41.800264 311.509694) scale(0.1 -0.1)">
       <defs>
        <path id="DejaVuSans-36" d="M 2113 2584 
Q 1688 2584 1439 2293 
Q 1191 2003 1191 1497 
Q 1191 994 1439 701 
Q 1688 409 2113 409 
Q 2538 409 2786 701 
Q 3034 994 3034 1497 
Q 3034 2003 2786 2293 
Q 2538 2584 2113 2584 
z
M 3366 4563 
L 3366 3988 
Q 3128 4100 2886 4159 
Q 2644 4219 2406 4219 
Q 1781 4219 1451 3797 
Q 1122 3375 1075 2522 
Q 1259 2794 1537 2939 
Q 1816 3084 2150 3084 
Q 2853 3084 3261 2657 
Q 3669 2231 3669 1497 
Q 3669 778 3244 343 
Q 2819 -91 2113 -91 
Q 1303 -91 875 529 
Q 447 1150 447 2328 
Q 447 3434 972 4092 
Q 1497 4750 2381 4750 
Q 2619 4750 2861 4703 
Q 3103 4656 3366 4563 
z
" transform="scale(0.015625)"/>
       </defs>
       <use xlink:href="#DejaVuSans-30"/>
       <use xlink:href="#DejaVuSans-2e" x="63.623047"/>
       <use xlink:href="#DejaVuSans-36" x="95.410156"/>
      </g>
     </g>
    </g>
    <g id="ytick_37">
     <g id="line2d_90">
      <g>
       <use xlink:href="#m2d4a0c5ef6" x="64.703389" y="264.823257" style="stroke: #000000; stroke-width: 0.8"/>
      </g>
     </g>
     <g id="text_15">
      <!-- 0.8 -->
      <g transform="translate(41.800264 268.622476) scale(0.1 -0.1)">
       <use xlink:href="#DejaVuSans-30"/>
       <use xlink:href="#DejaVuSans-2e" x="63.623047"/>
       <use xlink:href="#DejaVuSans-38" x="95.410156"/>
      </g>
     </g>
    </g>
    <g id="ytick_38">
     <g id="line2d_91">
      <g>
       <use xlink:href="#m2d4a0c5ef6" x="64.703389" y="221.936039" style="stroke: #000000; stroke-width: 0.8"/>
      </g>
     </g>
     <g id="text_16">
      <!-- 1.0 -->
      <g transform="translate(41.800264 225.735258) scale(0.1 -0.1)">
       <use xlink:href="#DejaVuSans-31"/>
       <use xlink:href="#DejaVuSans-2e" x="63.623047"/>
       <use xlink:href="#DejaVuSans-30" x="95.410156"/>
      </g>
     </g>
    </g>
    <g id="text_17">
     <!-- Coverage -->
     <g transform="translate(35.720577 283.687431) rotate(-90) scale(0.1 -0.1)">
      <defs>
       <path id="DejaVuSans-43" d="M 4122 4306 
L 4122 3641 
Q 3803 3938 3442 4084 
Q 3081 4231 2675 4231 
Q 1875 4231 1450 3742 
Q 1025 3253 1025 2328 
Q 1025 1406 1450 917 
Q 1875 428 2675 428 
Q 3081 428 3442 575 
Q 3803 722 4122 1019 
L 4122 359 
Q 3791 134 3420 21 
Q 3050 -91 2638 -91 
Q 1578 -91 968 557 
Q 359 1206 359 2328 
Q 359 3453 968 4101 
Q 1578 4750 2638 4750 
Q 3056 4750 3426 4639 
Q 3797 4528 4122 4306 
z
" transform="scale(0.015625)"/>
       <path id="DejaVuSans-6f" d="M 1959 3097 
Q 1497 3097 1228 2736 
Q 959 2375 959 1747 
Q 959 1119 1226 758 
Q 1494 397 1959 397 
Q 2419 397 2687 759 
Q 2956 1122 2956 1747 
Q 2956 2369 2687 2733 
Q 2419 3097 1959 3097 
z
M 1959 3584 
Q 2709 3584 3137 3096 
Q 3566 2609 3566 1747 
Q 3566 888 3137 398 
Q 2709 -91 1959 -91 
Q 1206 -91 779 398 
Q 353 888 353 1747 
Q 353 2609 779 3096 
Q 1206 3584 1959 3584 
z
" transform="scale(0.015625)"/>
       <path id="DejaVuSans-76" d="M 191 3500 
L 800 3500 
L 1894 563 
L 2988 3500 
L 3597 3500 
L 2284 0 
L 1503 0 
L 191 3500 
z
" transform="scale(0.015625)"/>
      </defs>
      <use xlink:href="#DejaVuSans-43"/>
      <use xlink:href="#DejaVuSans-6f" x="69.824219"/>
      <use xlink:href="#DejaVuSans-76" x="131.005859"/>
      <use xlink:href="#DejaVuSans-65" x="190.185547"/>
      <use xlink:href="#DejaVuSans-72" x="251.708984"/>
      <use xlink:href="#DejaVuSans-61" x="292.822266"/>
      <use xlink:href="#DejaVuSans-67" x="354.101562"/>
      <use xlink:href="#DejaVuSans-65" x="417.578125"/>
     </g>
    </g>
   </g>
   <g id="LineCollection_3">
    <path d="M 80.188537 309.728218 
L 80.188537 284.785213 
" clip-path="url(#p67e7763e80)" style="fill: none; stroke: #ff0000; stroke-width: 1.5"/>
    <path d="M 95.252054 307.315812 
L 95.252054 282.372807 
" clip-path="url(#p67e7763e80)" style="fill: none; stroke: #ff0000; stroke-width: 1.5"/>
    <path d="M 110.315572 292.305286 
L 110.315572 267.362281 
" clip-path="url(#p67e7763e80)" style="fill: none; stroke: #ff0000; stroke-width: 1.5"/>
    <path d="M 125.379089 263.892504 
L 125.379089 238.949499 
" clip-path="url(#p67e7763e80)" style="fill: none; stroke: #ff0000; stroke-width: 1.5"/>
    <path d="M 140.442607 246.737617 
L 140.442607 221.794612 
" clip-path="url(#p67e7763e80)" style="fill: none; stroke: #ff0000; stroke-width: 1.5"/>
    <path d="M 155.506125 244.057166 
L 155.506125 219.114161 
" clip-path="url(#p67e7763e80)" style="fill: none; stroke: #ff0000; stroke-width: 1.5"/>
    <path d="M 170.569642 240.304535 
L 170.569642 215.361529 
" clip-path="url(#p67e7763e80)" style="fill: none; stroke: #ff0000; stroke-width: 1.5"/>
    <path d="M 185.63316 236.283858 
L 185.63316 211.340852 
" clip-path="url(#p67e7763e80)" style="fill: none; stroke: #ff0000; stroke-width: 1.5"/>
    <path d="M 200.696677 234.675587 
L 200.696677 209.732582 
" clip-path="url(#p67e7763e80)" style="fill: none; stroke: #ff0000; stroke-width: 1.5"/>
    <path d="M 215.760195 234.675587 
L 215.760195 209.732582 
" clip-path="url(#p67e7763e80)" style="fill: none; stroke: #ff0000; stroke-width: 1.5"/>
    <path d="M 230.823713 234.675587 
L 230.823713 209.732582 
" clip-path="url(#p67e7763e80)" style="fill: none; stroke: #ff0000; stroke-width: 1.5"/>
    <path d="M 245.88723 234.675587 
L 245.88723 209.732582 
" clip-path="url(#p67e7763e80)" style="fill: none; stroke: #ff0000; stroke-width: 1.5"/>
    <path d="M 260.950748 234.943632 
L 260.950748 210.000627 
" clip-path="url(#p67e7763e80)" style="fill: none; stroke: #ff0000; stroke-width: 1.5"/>
    <path d="M 276.014265 237.624083 
L 276.014265 212.681078 
" clip-path="url(#p67e7763e80)" style="fill: none; stroke: #ff0000; stroke-width: 1.5"/>
    <path d="M 291.077783 248.077843 
L 291.077783 223.134837 
" clip-path="url(#p67e7763e80)" style="fill: none; stroke: #ff0000; stroke-width: 1.5"/>
    <path d="M 306.141301 265.500775 
L 306.141301 240.55777 
" clip-path="url(#p67e7763e80)" style="fill: none; stroke: #ff0000; stroke-width: 1.5"/>
    <path d="M 321.204818 277.026715 
L 321.204818 252.083709 
" clip-path="url(#p67e7763e80)" style="fill: none; stroke: #ff0000; stroke-width: 1.5"/>
    <path d="M 336.268336 287.212429 
L 336.268336 262.269423 
" clip-path="url(#p67e7763e80)" style="fill: none; stroke: #ff0000; stroke-width: 1.5"/>
   </g>
   <g id="LineCollection_4">
    <path d="M 77.635053 301.686865 
L 77.635053 276.743859 
" clip-path="url(#p67e7763e80)" style="fill: none; stroke: #008000; stroke-width: 1.5"/>
    <path d="M 92.698571 290.697015 
L 92.698571 265.75401 
" clip-path="url(#p67e7763e80)" style="fill: none; stroke: #008000; stroke-width: 1.5"/>
    <path d="M 107.762089 275.418444 
L 107.762089 250.475439 
" clip-path="url(#p67e7763e80)" style="fill: none; stroke: #008000; stroke-width: 1.5"/>
    <path d="M 122.825606 253.974835 
L 122.825606 229.03183 
" clip-path="url(#p67e7763e80)" style="fill: none; stroke: #008000; stroke-width: 1.5"/>
    <path d="M 137.889124 244.325211 
L 137.889124 219.382206 
" clip-path="url(#p67e7763e80)" style="fill: none; stroke: #008000; stroke-width: 1.5"/>
    <path d="M 152.952642 242.716941 
L 152.952642 217.773935 
" clip-path="url(#p67e7763e80)" style="fill: none; stroke: #008000; stroke-width: 1.5"/>
    <path d="M 168.016159 239.500399 
L 168.016159 214.557394 
" clip-path="url(#p67e7763e80)" style="fill: none; stroke: #008000; stroke-width: 1.5"/>
    <path d="M 183.079677 236.283858 
L 183.079677 211.340852 
" clip-path="url(#p67e7763e80)" style="fill: none; stroke: #008000; stroke-width: 1.5"/>
    <path d="M 198.143194 234.675587 
L 198.143194 209.732582 
" clip-path="url(#p67e7763e80)" style="fill: none; stroke: #008000; stroke-width: 1.5"/>
    <path d="M 213.206712 234.675587 
L 213.206712 209.732582 
" clip-path="url(#p67e7763e80)" style="fill: none; stroke: #008000; stroke-width: 1.5"/>
    <path d="M 228.27023 234.675587 
L 228.27023 209.732582 
" clip-path="url(#p67e7763e80)" style="fill: none; stroke: #008000; stroke-width: 1.5"/>
    <path d="M 243.333747 234.675587 
L 243.333747 209.732582 
" clip-path="url(#p67e7763e80)" style="fill: none; stroke: #008000; stroke-width: 1.5"/>
    <path d="M 258.397265 234.943632 
L 258.397265 210.000627 
" clip-path="url(#p67e7763e80)" style="fill: none; stroke: #008000; stroke-width: 1.5"/>
    <path d="M 273.460782 237.624083 
L 273.460782 212.681078 
" clip-path="url(#p67e7763e80)" style="fill: none; stroke: #008000; stroke-width: 1.5"/>
    <path d="M 288.5243 247.809798 
L 288.5243 222.866792 
" clip-path="url(#p67e7763e80)" style="fill: none; stroke: #008000; stroke-width: 1.5"/>
    <path d="M 303.587818 263.892504 
L 303.587818 238.949499 
" clip-path="url(#p67e7763e80)" style="fill: none; stroke: #008000; stroke-width: 1.5"/>
    <path d="M 318.651335 276.490624 
L 318.651335 251.547619 
" clip-path="url(#p67e7763e80)" style="fill: none; stroke: #008000; stroke-width: 1.5"/>
    <path d="M 333.714853 286.408294 
L 333.714853 261.465288 
" clip-path="url(#p67e7763e80)" style="fill: none; stroke: #008000; stroke-width: 1.5"/>
   </g>
   <g id="line2d_92">
    <path d="M 77.635053 290.555588 
L 92.698571 290.555588 
L 107.762089 290.555588 
L 122.825606 290.555588 
L 137.889124 290.555588 
L 152.952642 290.555588 
L 168.016159 290.555588 
L 183.079677 290.555588 
L 198.143194 290.555588 
L 213.206712 290.555588 
L 228.27023 290.555588 
L 243.333747 290.555588 
L 258.397265 290.555588 
L 273.460782 290.555588 
L 288.5243 290.555588 
L 303.587818 290.555588 
L 318.651335 290.555588 
L 333.714853 290.555588 
" clip-path="url(#p67e7763e80)" style="fill: none; stroke-dasharray: 1.5,2.475; stroke-dashoffset: 0; stroke: #000000; stroke-width: 1.5"/>
   </g>
   <g id="line2d_93">
    <path d="M 80.188537 297.256715 
L 95.252054 294.844309 
L 110.315572 279.833783 
L 125.379089 251.421002 
L 140.442607 234.266114 
L 155.506125 231.585663 
L 170.569642 227.833032 
L 185.63316 223.812355 
L 200.696677 222.204085 
L 215.760195 222.204085 
L 230.823713 222.204085 
L 245.88723 222.204085 
L 260.950748 222.47213 
L 276.014265 225.152581 
L 291.077783 235.60634 
L 306.141301 253.029272 
L 321.204818 264.555212 
L 336.268336 274.740926 
" clip-path="url(#p67e7763e80)" style="fill: none; stroke: #ff0000; stroke-width: 1.5; stroke-linecap: square"/>
   </g>
   <g id="line2d_94">
    <path d="M 77.635053 289.215362 
L 92.698571 278.225513 
L 107.762089 262.946941 
L 122.825606 241.503332 
L 137.889124 231.853709 
L 152.952642 230.245438 
L 168.016159 227.028897 
L 183.079677 223.812355 
L 198.143194 222.204085 
L 213.206712 222.204085 
L 228.27023 222.204085 
L 243.333747 222.204085 
L 258.397265 222.47213 
L 273.460782 225.152581 
L 288.5243 235.338295 
L 303.587818 251.421002 
L 318.651335 264.019122 
L 333.714853 273.936791 
" clip-path="url(#p67e7763e80)" style="fill: none; stroke: #008000; stroke-width: 1.5; stroke-linecap: square"/>
   </g>
   <g id="patch_11">
    <path d="M 64.703389 314.728 
L 64.703389 204.7328 
" style="fill: none; stroke: #000000; stroke-width: 0.8; stroke-linejoin: miter; stroke-linecap: square"/>
   </g>
   <g id="patch_12">
    <path d="M 349.2 314.728 
L 349.2 204.7328 
" style="fill: none; stroke: #000000; stroke-width: 0.8; stroke-linejoin: miter; stroke-linecap: square"/>
   </g>
   <g id="patch_13">
    <path d="M 64.703389 314.728 
L 349.2 314.728 
" style="fill: none; stroke: #000000; stroke-width: 0.8; stroke-linejoin: miter; stroke-linecap: square"/>
   </g>
   <g id="patch_14">
    <path d="M 64.703389 204.7328 
L 349.2 204.7328 
" style="fill: none; stroke: #000000; stroke-width: 0.8; stroke-linejoin: miter; stroke-linecap: square"/>
   </g>
   <g id="legend_2">
    <g id="patch_15">
     <path d="M 119.653257 275.908525 
L 294.250132 275.908525 
Q 296.250132 275.908525 296.250132 273.908525 
L 296.250132 245.552275 
Q 296.250132 243.552275 294.250132 243.552275 
L 119.653257 243.552275 
Q 117.653257 243.552275 117.653257 245.552275 
L 117.653257 273.908525 
Q 117.653257 275.908525 119.653257 275.908525 
z
" style="fill: #ffffff; opacity: 0.8; stroke: #cccccc; stroke-linejoin: miter"/>
    </g>
    <g id="line2d_95">
     <path d="M 121.653257 251.650713 
L 131.653257 251.650713 
L 141.653257 251.650713 
" style="fill: none; stroke-dasharray: 1.5,2.475; stroke-dashoffset: 0; stroke: #000000; stroke-width: 1.5"/>
    </g>
    <g id="text_18">
     <!-- 68 % -->
     <g transform="translate(149.653257 255.150713) scale(0.1 -0.1)">
      <use xlink:href="#DejaVuSans-36"/>
      <use xlink:href="#DejaVuSans-38" x="63.623047"/>
      <use xlink:href="#DejaVuSans-20" x="127.246094"/>
      <use xlink:href="#DejaVuSans-25" x="159.033203"/>
     </g>
    </g>
    <g id="LineCollection_5">
     <path d="M 131.653257 271.328838 
L 131.653257 261.328838 
" style="fill: none; stroke: #ff0000; stroke-width: 1.5"/>
    </g>
    <g id="line2d_96">
     <path d="M 121.653257 266.328838 
L 141.653257 266.328838 
" style="fill: none; stroke: #ff0000; stroke-width: 1.5; stroke-linecap: square"/>
    </g>
    <g id="line2d_97"/>
    <g id="text_19">
     <!-- Standard  -->
     <g transform="translate(149.653257 269.828838) scale(0.1 -0.1)">
      <use xlink:href="#DejaVuSans-53"/>
      <use xlink:href="#DejaVuSans-74" x="63.476562"/>
      <use xlink:href="#DejaVuSans-61" x="102.685547"/>
      <use xlink:href="#DejaVuSans-6e" x="163.964844"/>
      <use xlink:href="#DejaVuSans-64" x="227.34375"/>
      <use xlink:href="#DejaVuSans-61" x="290.820312"/>
      <use xlink:href="#DejaVuSans-72" x="352.099609"/>
      <use xlink:href="#DejaVuSans-64" x="391.462891"/>
      <use xlink:href="#DejaVuSans-20" x="454.939453"/>
     </g>
    </g>
    <g id="LineCollection_6">
     <path d="M 228.326695 256.650713 
L 228.326695 246.650713 
" style="fill: none; stroke: #008000; stroke-width: 1.5"/>
    </g>
    <g id="line2d_98">
     <path d="M 218.326695 251.650713 
L 238.326695 251.650713 
" style="fill: none; stroke: #008000; stroke-width: 1.5; stroke-linecap: square"/>
    </g>
    <g id="line2d_99"/>
    <g id="text_20">
     <!-- Nuisance -->
     <g transform="translate(246.326695 255.150713) scale(0.1 -0.1)">
      <use xlink:href="#DejaVuSans-4e"/>
      <use xlink:href="#DejaVuSans-75" x="74.804688"/>
      <use xlink:href="#DejaVuSans-69" x="138.183594"/>
      <use xlink:href="#DejaVuSans-73" x="165.966797"/>
      <use xlink:href="#DejaVuSans-61" x="218.066406"/>
      <use xlink:href="#DejaVuSans-6e" x="279.345703"/>
      <use xlink:href="#DejaVuSans-63" x="342.724609"/>
      <use xlink:href="#DejaVuSans-65" x="397.705078"/>
     </g>
    </g>
   </g>
  </g>
 </g>
 <defs>
  <clipPath id="p99a5c72568">
   <rect x="64.703389" y="25.44" width="284.496611" height="164.9928"/>
  </clipPath>
  <clipPath id="p67e7763e80">
   <rect x="64.703389" y="204.7328" width="284.496611" height="109.9952"/>
  </clipPath>
 </defs>
</svg>
