<?xml version="1.0" encoding="utf-8" standalone="no"?>
<!DOCTYPE svg PUBLIC "-//W3C//DTD SVG 1.1//EN"
  "http://www.w3.org/Graphics/SVG/1.1/DTD/svg11.dtd">
<svg xmlns:xlink="http://www.w3.org/1999/xlink" width="432pt" height="504pt" viewBox="0 0 432 504" xmlns="http://www.w3.org/2000/svg" version="1.1">
 <metadata>
  <rdf:RDF xmlns:dc="http://purl.org/dc/elements/1.1/" xmlns:cc="http://creativecommons.org/ns#" xmlns:rdf="http://www.w3.org/1999/02/22-rdf-syntax-ns#">
   <cc:Work>
    <dc:type rdf:resource="http://purl.org/dc/dcmitype/StillImage"/>
    <dc:date>2023-03-24T16:26:38.367312</dc:date>
    <dc:format>image/svg+xml</dc:format>
    <dc:creator>
     <cc:Agent>
      <dc:title>Matplotlib v3.6.2, https://matplotlib.org/</dc:title>
     </cc:Agent>
    </dc:creator>
   </cc:Work>
  </rdf:RDF>
 </metadata>
 <defs>
  <style type="text/css">*{stroke-linejoin: round; stroke-linecap: butt}</style>
 </defs>
 <g id="figure_1">
  <g id="patch_1">
   <path d="M 0 504 
L 432 504 
L 432 0 
L 0 0 
z
" style="fill: #ffffff"/>
  </g>
  <g id="axes_1">
   <g id="patch_2">
    <path d="M 36.97 108.34 
L 229.022236 108.34 
L 229.022236 32.4 
L 36.97 32.4 
z
" style="fill: #ffffff"/>
   </g>
   <g id="patch_3">
    <path d="M 47.567877 108.34 
L 64.849245 108.34 
L 64.849245 107.414551 
L 47.567877 107.414551 
z
" clip-path="url(#pefaac67342)" style="fill: #4682b4"/>
   </g>
   <g id="patch_4">
    <path d="M 64.849245 108.34 
L 82.130612 108.34 
L 82.130612 105.563654 
L 64.849245 105.563654 
z
" clip-path="url(#pefaac67342)" style="fill: #4682b4"/>
   </g>
   <g id="patch_5">
    <path d="M 82.130612 108.34 
L 99.41198 108.34 
L 99.41198 92.607373 
L 82.130612 92.607373 
z
" clip-path="url(#pefaac67342)" style="fill: #4682b4"/>
   </g>
   <g id="patch_6">
    <path d="M 99.41198 108.34 
L 116.693347 108.34 
L 116.693347 67.311778 
L 99.41198 67.311778 
z
" clip-path="url(#pefaac67342)" style="fill: #4682b4"/>
   </g>
   <g id="patch_7">
    <path d="M 116.693347 108.34 
L 133.974715 108.34 
L 133.974715 47.568874 
L 116.693347 47.568874 
z
" clip-path="url(#pefaac67342)" style="fill: #4682b4"/>
   </g>
   <g id="patch_8">
    <path d="M 133.974715 108.34 
L 151.256082 108.34 
L 151.256082 43.86708 
L 133.974715 43.86708 
z
" clip-path="url(#pefaac67342)" style="fill: #4682b4"/>
   </g>
   <g id="patch_9">
    <path d="M 151.256082 108.34 
L 168.53745 108.34 
L 168.53745 66.077846 
L 151.256082 66.077846 
z
" clip-path="url(#pefaac67342)" style="fill: #4682b4"/>
   </g>
   <g id="patch_10">
    <path d="M 168.53745 108.34 
L 185.818818 108.34 
L 185.818818 93.532822 
L 168.53745 93.532822 
z
" clip-path="url(#pefaac67342)" style="fill: #4682b4"/>
   </g>
   <g id="patch_11">
    <path d="M 185.818818 108.34 
L 203.100185 108.34 
L 203.100185 105.563654 
L 185.818818 105.563654 
z
" clip-path="url(#pefaac67342)" style="fill: #4682b4"/>
   </g>
   <g id="patch_12">
    <path d="M 203.100185 108.34 
L 220.381553 108.34 
L 220.381553 107.414551 
L 203.100185 107.414551 
z
" clip-path="url(#pefaac67342)" style="fill: #4682b4"/>
   </g>
   <g id="PolyCollection_1">
    <defs>
     <path id="m1c95c78fc2" d="M 107.928974 -467.98381 
L 107.928974 -395.66 
L 158.122007 -395.66 
L 158.122007 -467.98381 
L 158.122007 -467.98381 
L 107.928974 -467.98381 
z
" style="stroke: #008000; stroke-opacity: 0.3"/>
    </defs>
    <g clip-path="url(#pefaac67342)">
     <use xlink:href="#m1c95c78fc2" x="0" y="504" style="fill: #008000; fill-opacity: 0.3; stroke: #008000; stroke-opacity: 0.3"/>
    </g>
   </g>
   <g id="PolyCollection_2">
    <defs>
     <path id="mdd1557fbea" d="M 107.887591 -463.356566 
L 107.887591 -395.66 
L 158.104646 -395.66 
L 158.104646 -463.356566 
L 158.104646 -463.356566 
L 107.887591 -463.356566 
z
" style="stroke: #ff0000; stroke-opacity: 0.4"/>
    </defs>
    <g clip-path="url(#pefaac67342)">
     <use xlink:href="#mdd1557fbea" x="0" y="504" style="fill: #ff0000; fill-opacity: 0.4; stroke: #ff0000; stroke-opacity: 0.4"/>
    </g>
   </g>
   <g id="matplotlib.axis_1">
    <g id="xtick_1">
     <g id="line2d_1">
      <defs>
       <path id="m2fdc26a0ad" d="M 0 0 
L 0 3.5 
" style="stroke: #000000; stroke-width: 0.8"/>
      </defs>
      <g>
       <use xlink:href="#m2fdc26a0ad" x="72.417023" y="108.34" style="stroke: #000000; stroke-width: 0.8"/>
      </g>
     </g>
     <g id="text_1">
      <!-- 0.995 -->
      <g transform="translate(58.102961 122.938437) scale(0.1 -0.1)">
       <defs>
        <path id="DejaVuSans-30" d="M 2034 4250 
Q 1547 4250 1301 3770 
Q 1056 3291 1056 2328 
Q 1056 1369 1301 889 
Q 1547 409 2034 409 
Q 2525 409 2770 889 
Q 3016 1369 3016 2328 
Q 3016 3291 2770 3770 
Q 2525 4250 2034 4250 
z
M 2034 4750 
Q 2819 4750 3233 4129 
Q 3647 3509 3647 2328 
Q 3647 1150 3233 529 
Q 2819 -91 2034 -91 
Q 1250 -91 836 529 
Q 422 1150 422 2328 
Q 422 3509 836 4129 
Q 1250 4750 2034 4750 
z
" transform="scale(0.015625)"/>
        <path id="DejaVuSans-2e" d="M 684 794 
L 1344 794 
L 1344 0 
L 684 0 
L 684 794 
z
" transform="scale(0.015625)"/>
        <path id="DejaVuSans-39" d="M 703 97 
L 703 672 
Q 941 559 1184 500 
Q 1428 441 1663 441 
Q 2288 441 2617 861 
Q 2947 1281 2994 2138 
Q 2813 1869 2534 1725 
Q 2256 1581 1919 1581 
Q 1219 1581 811 2004 
Q 403 2428 403 3163 
Q 403 3881 828 4315 
Q 1253 4750 1959 4750 
Q 2769 4750 3195 4129 
Q 3622 3509 3622 2328 
Q 3622 1225 3098 567 
Q 2575 -91 1691 -91 
Q 1453 -91 1209 -44 
Q 966 3 703 97 
z
M 1959 2075 
Q 2384 2075 2632 2365 
Q 2881 2656 2881 3163 
Q 2881 3666 2632 3958 
Q 2384 4250 1959 4250 
Q 1534 4250 1286 3958 
Q 1038 3666 1038 3163 
Q 1038 2656 1286 2365 
Q 1534 2075 1959 2075 
z
" transform="scale(0.015625)"/>
        <path id="DejaVuSans-35" d="M 691 4666 
L 3169 4666 
L 3169 4134 
L 1269 4134 
L 1269 2991 
Q 1406 3038 1543 3061 
Q 1681 3084 1819 3084 
Q 2600 3084 3056 2656 
Q 3513 2228 3513 1497 
Q 3513 744 3044 326 
Q 2575 -91 1722 -91 
Q 1428 -91 1123 -41 
Q 819 9 494 109 
L 494 744 
Q 775 591 1075 516 
Q 1375 441 1709 441 
Q 2250 441 2565 725 
Q 2881 1009 2881 1497 
Q 2881 1984 2565 2268 
Q 2250 2553 1709 2553 
Q 1456 2553 1204 2497 
Q 953 2441 691 2322 
L 691 4666 
z
" transform="scale(0.015625)"/>
       </defs>
       <use xlink:href="#DejaVuSans-30"/>
       <use xlink:href="#DejaVuSans-2e" x="63.623047"/>
       <use xlink:href="#DejaVuSans-39" x="95.410156"/>
       <use xlink:href="#DejaVuSans-39" x="159.033203"/>
       <use xlink:href="#DejaVuSans-35" x="222.65625"/>
      </g>
     </g>
    </g>
    <g id="xtick_2">
     <g id="line2d_2">
      <g>
       <use xlink:href="#m2fdc26a0ad" x="132.996118" y="108.34" style="stroke: #000000; stroke-width: 0.8"/>
      </g>
     </g>
     <g id="text_2">
      <!-- 1.000 -->
      <g transform="translate(118.682056 122.938437) scale(0.1 -0.1)">
       <defs>
        <path id="DejaVuSans-31" d="M 794 531 
L 1825 531 
L 1825 4091 
L 703 3866 
L 703 4441 
L 1819 4666 
L 2450 4666 
L 2450 531 
L 3481 531 
L 3481 0 
L 794 0 
L 794 531 
z
" transform="scale(0.015625)"/>
       </defs>
       <use xlink:href="#DejaVuSans-31"/>
       <use xlink:href="#DejaVuSans-2e" x="63.623047"/>
       <use xlink:href="#DejaVuSans-30" x="95.410156"/>
       <use xlink:href="#DejaVuSans-30" x="159.033203"/>
       <use xlink:href="#DejaVuSans-30" x="222.65625"/>
      </g>
     </g>
    </g>
    <g id="xtick_3">
     <g id="line2d_3">
      <g>
       <use xlink:href="#m2fdc26a0ad" x="193.575213" y="108.34" style="stroke: #000000; stroke-width: 0.8"/>
      </g>
     </g>
     <g id="text_3">
      <!-- 1.005 -->
      <g transform="translate(179.26115 122.938437) scale(0.1 -0.1)">
       <use xlink:href="#DejaVuSans-31"/>
       <use xlink:href="#DejaVuSans-2e" x="63.623047"/>
       <use xlink:href="#DejaVuSans-30" x="95.410156"/>
       <use xlink:href="#DejaVuSans-30" x="159.033203"/>
       <use xlink:href="#DejaVuSans-35" x="222.65625"/>
      </g>
     </g>
    </g>
    <g id="text_4">
     <!-- Best Fit BKG Norm -->
     <g transform="translate(87.072681 136.616562) scale(0.1 -0.1)">
      <defs>
       <path id="DejaVuSans-42" d="M 1259 2228 
L 1259 519 
L 2272 519 
Q 2781 519 3026 730 
Q 3272 941 3272 1375 
Q 3272 1813 3026 2020 
Q 2781 2228 2272 2228 
L 1259 2228 
z
M 1259 4147 
L 1259 2741 
L 2194 2741 
Q 2656 2741 2882 2914 
Q 3109 3088 3109 3444 
Q 3109 3797 2882 3972 
Q 2656 4147 2194 4147 
L 1259 4147 
z
M 628 4666 
L 2241 4666 
Q 2963 4666 3353 4366 
Q 3744 4066 3744 3513 
Q 3744 3084 3544 2831 
Q 3344 2578 2956 2516 
Q 3422 2416 3680 2098 
Q 3938 1781 3938 1306 
Q 3938 681 3513 340 
Q 3088 0 2303 0 
L 628 0 
L 628 4666 
z
" transform="scale(0.015625)"/>
       <path id="DejaVuSans-65" d="M 3597 1894 
L 3597 1613 
L 953 1613 
Q 991 1019 1311 708 
Q 1631 397 2203 397 
Q 2534 397 2845 478 
Q 3156 559 3463 722 
L 3463 178 
Q 3153 47 2828 -22 
Q 2503 -91 2169 -91 
Q 1331 -91 842 396 
Q 353 884 353 1716 
Q 353 2575 817 3079 
Q 1281 3584 2069 3584 
Q 2775 3584 3186 3129 
Q 3597 2675 3597 1894 
z
M 3022 2063 
Q 3016 2534 2758 2815 
Q 2500 3097 2075 3097 
Q 1594 3097 1305 2825 
Q 1016 2553 972 2059 
L 3022 2063 
z
" transform="scale(0.015625)"/>
       <path id="DejaVuSans-73" d="M 2834 3397 
L 2834 2853 
Q 2591 2978 2328 3040 
Q 2066 3103 1784 3103 
Q 1356 3103 1142 2972 
Q 928 2841 928 2578 
Q 928 2378 1081 2264 
Q 1234 2150 1697 2047 
L 1894 2003 
Q 2506 1872 2764 1633 
Q 3022 1394 3022 966 
Q 3022 478 2636 193 
Q 2250 -91 1575 -91 
Q 1294 -91 989 -36 
Q 684 19 347 128 
L 347 722 
Q 666 556 975 473 
Q 1284 391 1588 391 
Q 1994 391 2212 530 
Q 2431 669 2431 922 
Q 2431 1156 2273 1281 
Q 2116 1406 1581 1522 
L 1381 1569 
Q 847 1681 609 1914 
Q 372 2147 372 2553 
Q 372 3047 722 3315 
Q 1072 3584 1716 3584 
Q 2034 3584 2315 3537 
Q 2597 3491 2834 3397 
z
" transform="scale(0.015625)"/>
       <path id="DejaVuSans-74" d="M 1172 4494 
L 1172 3500 
L 2356 3500 
L 2356 3053 
L 1172 3053 
L 1172 1153 
Q 1172 725 1289 603 
Q 1406 481 1766 481 
L 2356 481 
L 2356 0 
L 1766 0 
Q 1100 0 847 248 
Q 594 497 594 1153 
L 594 3053 
L 172 3053 
L 172 3500 
L 594 3500 
L 594 4494 
L 1172 4494 
z
" transform="scale(0.015625)"/>
       <path id="DejaVuSans-20" transform="scale(0.015625)"/>
       <path id="DejaVuSans-46" d="M 628 4666 
L 3309 4666 
L 3309 4134 
L 1259 4134 
L 1259 2759 
L 3109 2759 
L 3109 2228 
L 1259 2228 
L 1259 0 
L 628 0 
L 628 4666 
z
" transform="scale(0.015625)"/>
       <path id="DejaVuSans-69" d="M 603 3500 
L 1178 3500 
L 1178 0 
L 603 0 
L 603 3500 
z
M 603 4863 
L 1178 4863 
L 1178 4134 
L 603 4134 
L 603 4863 
z
" transform="scale(0.015625)"/>
       <path id="DejaVuSans-4b" d="M 628 4666 
L 1259 4666 
L 1259 2694 
L 3353 4666 
L 4166 4666 
L 1850 2491 
L 4331 0 
L 3500 0 
L 1259 2247 
L 1259 0 
L 628 0 
L 628 4666 
z
" transform="scale(0.015625)"/>
       <path id="DejaVuSans-47" d="M 3809 666 
L 3809 1919 
L 2778 1919 
L 2778 2438 
L 4434 2438 
L 4434 434 
Q 4069 175 3628 42 
Q 3188 -91 2688 -91 
Q 1594 -91 976 548 
Q 359 1188 359 2328 
Q 359 3472 976 4111 
Q 1594 4750 2688 4750 
Q 3144 4750 3555 4637 
Q 3966 4525 4313 4306 
L 4313 3634 
Q 3963 3931 3569 4081 
Q 3175 4231 2741 4231 
Q 1884 4231 1454 3753 
Q 1025 3275 1025 2328 
Q 1025 1384 1454 906 
Q 1884 428 2741 428 
Q 3075 428 3337 486 
Q 3600 544 3809 666 
z
" transform="scale(0.015625)"/>
       <path id="DejaVuSans-4e" d="M 628 4666 
L 1478 4666 
L 3547 763 
L 3547 4666 
L 4159 4666 
L 4159 0 
L 3309 0 
L 1241 3903 
L 1241 0 
L 628 0 
L 628 4666 
z
" transform="scale(0.015625)"/>
       <path id="DejaVuSans-6f" d="M 1959 3097 
Q 1497 3097 1228 2736 
Q 959 2375 959 1747 
Q 959 1119 1226 758 
Q 1494 397 1959 397 
Q 2419 397 2687 759 
Q 2956 1122 2956 1747 
Q 2956 2369 2687 2733 
Q 2419 3097 1959 3097 
z
M 1959 3584 
Q 2709 3584 3137 3096 
Q 3566 2609 3566 1747 
Q 3566 888 3137 398 
Q 2709 -91 1959 -91 
Q 1206 -91 779 398 
Q 353 888 353 1747 
Q 353 2609 779 3096 
Q 1206 3584 1959 3584 
z
" transform="scale(0.015625)"/>
       <path id="DejaVuSans-72" d="M 2631 2963 
Q 2534 3019 2420 3045 
Q 2306 3072 2169 3072 
Q 1681 3072 1420 2755 
Q 1159 2438 1159 1844 
L 1159 0 
L 581 0 
L 581 3500 
L 1159 3500 
L 1159 2956 
Q 1341 3275 1631 3429 
Q 1922 3584 2338 3584 
Q 2397 3584 2469 3576 
Q 2541 3569 2628 3553 
L 2631 2963 
z
" transform="scale(0.015625)"/>
       <path id="DejaVuSans-6d" d="M 3328 2828 
Q 3544 3216 3844 3400 
Q 4144 3584 4550 3584 
Q 5097 3584 5394 3201 
Q 5691 2819 5691 2113 
L 5691 0 
L 5113 0 
L 5113 2094 
Q 5113 2597 4934 2840 
Q 4756 3084 4391 3084 
Q 3944 3084 3684 2787 
Q 3425 2491 3425 1978 
L 3425 0 
L 2847 0 
L 2847 2094 
Q 2847 2600 2669 2842 
Q 2491 3084 2119 3084 
Q 1678 3084 1418 2786 
Q 1159 2488 1159 1978 
L 1159 0 
L 581 0 
L 581 3500 
L 1159 3500 
L 1159 2956 
Q 1356 3278 1631 3431 
Q 1906 3584 2284 3584 
Q 2666 3584 2933 3390 
Q 3200 3197 3328 2828 
z
" transform="scale(0.015625)"/>
      </defs>
      <use xlink:href="#DejaVuSans-42"/>
      <use xlink:href="#DejaVuSans-65" x="68.603516"/>
      <use xlink:href="#DejaVuSans-73" x="130.126953"/>
      <use xlink:href="#DejaVuSans-74" x="182.226562"/>
      <use xlink:href="#DejaVuSans-20" x="221.435547"/>
      <use xlink:href="#DejaVuSans-46" x="253.222656"/>
      <use xlink:href="#DejaVuSans-69" x="303.492188"/>
      <use xlink:href="#DejaVuSans-74" x="331.275391"/>
      <use xlink:href="#DejaVuSans-20" x="370.484375"/>
      <use xlink:href="#DejaVuSans-42" x="402.271484"/>
      <use xlink:href="#DejaVuSans-4b" x="470.875"/>
      <use xlink:href="#DejaVuSans-47" x="536.451172"/>
      <use xlink:href="#DejaVuSans-20" x="613.941406"/>
      <use xlink:href="#DejaVuSans-4e" x="645.728516"/>
      <use xlink:href="#DejaVuSans-6f" x="720.533203"/>
      <use xlink:href="#DejaVuSans-72" x="781.714844"/>
      <use xlink:href="#DejaVuSans-6d" x="821.078125"/>
     </g>
    </g>
   </g>
   <g id="matplotlib.axis_2">
    <g id="ytick_1">
     <g id="line2d_4">
      <defs>
       <path id="mbfec3ddbe3" d="M 0 0 
L -3.5 0 
" style="stroke: #000000; stroke-width: 0.8"/>
      </defs>
      <g>
       <use xlink:href="#mbfec3ddbe3" x="36.97" y="108.34" style="stroke: #000000; stroke-width: 0.8"/>
      </g>
     </g>
     <g id="text_5">
      <!-- 0 -->
      <g transform="translate(23.6075 112.139219) scale(0.1 -0.1)">
       <use xlink:href="#DejaVuSans-30"/>
      </g>
     </g>
    </g>
    <g id="ytick_2">
     <g id="line2d_5">
      <g>
       <use xlink:href="#mbfec3ddbe3" x="36.97" y="77.491713" style="stroke: #000000; stroke-width: 0.8"/>
      </g>
     </g>
     <g id="text_6">
      <!-- 100 -->
      <g transform="translate(10.8825 81.290931) scale(0.1 -0.1)">
       <use xlink:href="#DejaVuSans-31"/>
       <use xlink:href="#DejaVuSans-30" x="63.623047"/>
       <use xlink:href="#DejaVuSans-30" x="127.246094"/>
      </g>
     </g>
    </g>
    <g id="ytick_3">
     <g id="line2d_6">
      <g>
       <use xlink:href="#mbfec3ddbe3" x="36.97" y="46.643425" style="stroke: #000000; stroke-width: 0.8"/>
      </g>
     </g>
     <g id="text_7">
      <!-- 200 -->
      <g transform="translate(10.8825 50.442644) scale(0.1 -0.1)">
       <defs>
        <path id="DejaVuSans-32" d="M 1228 531 
L 3431 531 
L 3431 0 
L 469 0 
L 469 531 
Q 828 903 1448 1529 
Q 2069 2156 2228 2338 
Q 2531 2678 2651 2914 
Q 2772 3150 2772 3378 
Q 2772 3750 2511 3984 
Q 2250 4219 1831 4219 
Q 1534 4219 1204 4116 
Q 875 4013 500 3803 
L 500 4441 
Q 881 4594 1212 4672 
Q 1544 4750 1819 4750 
Q 2544 4750 2975 4387 
Q 3406 4025 3406 3419 
Q 3406 3131 3298 2873 
Q 3191 2616 2906 2266 
Q 2828 2175 2409 1742 
Q 1991 1309 1228 531 
z
" transform="scale(0.015625)"/>
       </defs>
       <use xlink:href="#DejaVuSans-32"/>
       <use xlink:href="#DejaVuSans-30" x="63.623047"/>
       <use xlink:href="#DejaVuSans-30" x="127.246094"/>
      </g>
     </g>
    </g>
   </g>
   <g id="LineCollection_1">
    <path d="M 109.465569 92.915856 
L 158.724705 92.915856 
" clip-path="url(#pefaac67342)" style="fill: none; stroke: #000080; stroke-width: 1.5"/>
   </g>
   <g id="LineCollection_2">
    <path d="M 133.025491 108.34 
L 133.025491 36.01619 
" clip-path="url(#pefaac67342)" style="fill: none; stroke-dasharray: 5.55,2.4; stroke-dashoffset: 0; stroke: #008000; stroke-width: 1.5"/>
   </g>
   <g id="LineCollection_3">
    <path d="M 132.996118 108.34 
L 132.996118 40.643434 
" clip-path="url(#pefaac67342)" style="fill: none; stroke: #ff0000; stroke-width: 1.5"/>
   </g>
   <g id="line2d_7">
    <defs>
     <path id="m443876da0f" d="M 0 3 
C 0.795609 3 1.55874 2.683901 2.12132 2.12132 
C 2.683901 1.55874 3 0.795609 3 0 
C 3 -0.795609 2.683901 -1.55874 2.12132 -2.12132 
C 1.55874 -2.683901 0.795609 -3 0 -3 
C -0.795609 -3 -1.55874 -2.683901 -2.12132 -2.12132 
C -2.683901 -1.55874 -3 -0.795609 -3 0 
C -3 0.795609 -2.683901 1.55874 -2.12132 2.12132 
C -1.55874 2.683901 -0.795609 3 0 3 
z
" style="stroke: #000080"/>
    </defs>
    <g clip-path="url(#pefaac67342)">
     <use xlink:href="#m443876da0f" x="134.095137" y="92.915856" style="fill: #000080; stroke: #000080"/>
    </g>
   </g>
   <g id="patch_13">
    <path d="M 36.97 108.34 
L 36.97 32.4 
" style="fill: none; stroke: #000000; stroke-width: 0.8; stroke-linejoin: miter; stroke-linecap: square"/>
   </g>
   <g id="patch_14">
    <path d="M 229.022236 108.34 
L 229.022236 32.4 
" style="fill: none; stroke: #000000; stroke-width: 0.8; stroke-linejoin: miter; stroke-linecap: square"/>
   </g>
   <g id="patch_15">
    <path d="M 36.97 108.34 
L 229.022236 108.34 
" style="fill: none; stroke: #000000; stroke-width: 0.8; stroke-linejoin: miter; stroke-linecap: square"/>
   </g>
   <g id="patch_16">
    <path d="M 36.97 32.4 
L 229.022236 32.4 
" style="fill: none; stroke: #000000; stroke-width: 0.8; stroke-linejoin: miter; stroke-linecap: square"/>
   </g>
   <g id="legend_1">
    <g id="patch_17">
     <path d="M 236.022236 105.095156 
L 402.022236 105.095156 
Q 404.022236 105.095156 404.022236 103.095156 
L 404.022236 37.644844 
Q 404.022236 35.644844 402.022236 35.644844 
L 236.022236 35.644844 
Q 234.022236 35.644844 234.022236 37.644844 
L 234.022236 103.095156 
Q 234.022236 105.095156 236.022236 105.095156 
z
" style="fill: #ffffff; opacity: 0.8; stroke: #cccccc; stroke-linejoin: miter"/>
    </g>
    <g id="patch_18">
     <path d="M 238.022236 53.882031 
L 258.022236 53.882031 
L 258.022236 46.882031 
L 238.022236 46.882031 
z
" style="fill: #008000; fill-opacity: 0.3; stroke: #008000; stroke-opacity: 0.3; stroke-linejoin: miter"/>
    </g>
    <g id="text_8">
     <!-- Nuisance:  -->
     <g transform="translate(266.022236 47.243281) scale(0.1 -0.1)">
      <defs>
       <path id="DejaVuSans-75" d="M 544 1381 
L 544 3500 
L 1119 3500 
L 1119 1403 
Q 1119 906 1312 657 
Q 1506 409 1894 409 
Q 2359 409 2629 706 
Q 2900 1003 2900 1516 
L 2900 3500 
L 3475 3500 
L 3475 0 
L 2900 0 
L 2900 538 
Q 2691 219 2414 64 
Q 2138 -91 1772 -91 
Q 1169 -91 856 284 
Q 544 659 544 1381 
z
M 1991 3584 
L 1991 3584 
z
" transform="scale(0.015625)"/>
       <path id="DejaVuSans-61" d="M 2194 1759 
Q 1497 1759 1228 1600 
Q 959 1441 959 1056 
Q 959 750 1161 570 
Q 1363 391 1709 391 
Q 2188 391 2477 730 
Q 2766 1069 2766 1631 
L 2766 1759 
L 2194 1759 
z
M 3341 1997 
L 3341 0 
L 2766 0 
L 2766 531 
Q 2569 213 2275 61 
Q 1981 -91 1556 -91 
Q 1019 -91 701 211 
Q 384 513 384 1019 
Q 384 1609 779 1909 
Q 1175 2209 1959 2209 
L 2766 2209 
L 2766 2266 
Q 2766 2663 2505 2880 
Q 2244 3097 1772 3097 
Q 1472 3097 1187 3025 
Q 903 2953 641 2809 
L 641 3341 
Q 956 3463 1253 3523 
Q 1550 3584 1831 3584 
Q 2591 3584 2966 3190 
Q 3341 2797 3341 1997 
z
" transform="scale(0.015625)"/>
       <path id="DejaVuSans-6e" d="M 3513 2113 
L 3513 0 
L 2938 0 
L 2938 2094 
Q 2938 2591 2744 2837 
Q 2550 3084 2163 3084 
Q 1697 3084 1428 2787 
Q 1159 2491 1159 1978 
L 1159 0 
L 581 0 
L 581 3500 
L 1159 3500 
L 1159 2956 
Q 1366 3272 1645 3428 
Q 1925 3584 2291 3584 
Q 2894 3584 3203 3211 
Q 3513 2838 3513 2113 
z
" transform="scale(0.015625)"/>
       <path id="DejaVuSans-63" d="M 3122 3366 
L 3122 2828 
Q 2878 2963 2633 3030 
Q 2388 3097 2138 3097 
Q 1578 3097 1268 2742 
Q 959 2388 959 1747 
Q 959 1106 1268 751 
Q 1578 397 2138 397 
Q 2388 397 2633 464 
Q 2878 531 3122 666 
L 3122 134 
Q 2881 22 2623 -34 
Q 2366 -91 2075 -91 
Q 1284 -91 818 406 
Q 353 903 353 1747 
Q 353 2603 823 3093 
Q 1294 3584 2113 3584 
Q 2378 3584 2631 3529 
Q 2884 3475 3122 3366 
z
" transform="scale(0.015625)"/>
       <path id="DejaVuSans-3a" d="M 750 794 
L 1409 794 
L 1409 0 
L 750 0 
L 750 794 
z
M 750 3309 
L 1409 3309 
L 1409 2516 
L 750 2516 
L 750 3309 
z
" transform="scale(0.015625)"/>
      </defs>
      <use xlink:href="#DejaVuSans-4e"/>
      <use xlink:href="#DejaVuSans-75" x="74.804688"/>
      <use xlink:href="#DejaVuSans-69" x="138.183594"/>
      <use xlink:href="#DejaVuSans-73" x="165.966797"/>
      <use xlink:href="#DejaVuSans-61" x="218.066406"/>
      <use xlink:href="#DejaVuSans-6e" x="279.345703"/>
      <use xlink:href="#DejaVuSans-63" x="342.724609"/>
      <use xlink:href="#DejaVuSans-65" x="397.705078"/>
      <use xlink:href="#DejaVuSans-3a" x="459.228516"/>
      <use xlink:href="#DejaVuSans-20" x="492.919922"/>
     </g>
     <!-- 1$\sigma$ (1.0 $\pm$ 0.00207): 71.1% -->
     <g transform="translate(266.022236 58.441094) scale(0.1 -0.1)">
      <defs>
       <path id="DejaVuSans-Oblique-3c3" d="M 2219 3044 
Q 1744 3044 1422 2700 
Q 1081 2341 969 1747 
Q 844 1119 1044 756 
Q 1241 397 1706 397 
Q 2166 397 2503 759 
Q 2844 1122 2966 1747 
Q 3075 2319 2881 2700 
Q 2700 3044 2219 3044 
z
M 2309 3503 
L 4219 3500 
L 4106 2925 
L 3463 2925 
Q 3706 2438 3575 1747 
Q 3406 888 2884 400 
Q 2359 -91 1609 -91 
Q 856 -91 525 400 
Q 194 888 363 1747 
Q 528 2609 1050 3097 
Q 1484 3503 2309 3503 
z
" transform="scale(0.015625)"/>
       <path id="DejaVuSans-28" d="M 1984 4856 
Q 1566 4138 1362 3434 
Q 1159 2731 1159 2009 
Q 1159 1288 1364 580 
Q 1569 -128 1984 -844 
L 1484 -844 
Q 1016 -109 783 600 
Q 550 1309 550 2009 
Q 550 2706 781 3412 
Q 1013 4119 1484 4856 
L 1984 4856 
z
" transform="scale(0.015625)"/>
       <path id="DejaVuSans-b1" d="M 2944 4013 
L 2944 2803 
L 4684 2803 
L 4684 2272 
L 2944 2272 
L 2944 1063 
L 2419 1063 
L 2419 2272 
L 678 2272 
L 678 2803 
L 2419 2803 
L 2419 4013 
L 2944 4013 
z
M 678 531 
L 4684 531 
L 4684 0 
L 678 0 
L 678 531 
z
" transform="scale(0.015625)"/>
       <path id="DejaVuSans-37" d="M 525 4666 
L 3525 4666 
L 3525 4397 
L 1831 0 
L 1172 0 
L 2766 4134 
L 525 4134 
L 525 4666 
z
" transform="scale(0.015625)"/>
       <path id="DejaVuSans-29" d="M 513 4856 
L 1013 4856 
Q 1481 4119 1714 3412 
Q 1947 2706 1947 2009 
Q 1947 1309 1714 600 
Q 1481 -109 1013 -844 
L 513 -844 
Q 928 -128 1133 580 
Q 1338 1288 1338 2009 
Q 1338 2731 1133 3434 
Q 928 4138 513 4856 
z
" transform="scale(0.015625)"/>
       <path id="DejaVuSans-25" d="M 4653 2053 
Q 4381 2053 4226 1822 
Q 4072 1591 4072 1178 
Q 4072 772 4226 539 
Q 4381 306 4653 306 
Q 4919 306 5073 539 
Q 5228 772 5228 1178 
Q 5228 1588 5073 1820 
Q 4919 2053 4653 2053 
z
M 4653 2450 
Q 5147 2450 5437 2106 
Q 5728 1763 5728 1178 
Q 5728 594 5436 251 
Q 5144 -91 4653 -91 
Q 4153 -91 3862 251 
Q 3572 594 3572 1178 
Q 3572 1766 3864 2108 
Q 4156 2450 4653 2450 
z
M 1428 4353 
Q 1159 4353 1004 4120 
Q 850 3888 850 3481 
Q 850 3069 1003 2837 
Q 1156 2606 1428 2606 
Q 1700 2606 1854 2837 
Q 2009 3069 2009 3481 
Q 2009 3884 1853 4118 
Q 1697 4353 1428 4353 
z
M 4250 4750 
L 4750 4750 
L 1831 -91 
L 1331 -91 
L 4250 4750 
z
M 1428 4750 
Q 1922 4750 2215 4408 
Q 2509 4066 2509 3481 
Q 2509 2891 2217 2550 
Q 1925 2209 1428 2209 
Q 931 2209 642 2551 
Q 353 2894 353 3481 
Q 353 4063 643 4406 
Q 934 4750 1428 4750 
z
" transform="scale(0.015625)"/>
      </defs>
      <use xlink:href="#DejaVuSans-31" transform="translate(0 0.125)"/>
      <use xlink:href="#DejaVuSans-Oblique-3c3" transform="translate(63.623047 0.125)"/>
      <use xlink:href="#DejaVuSans-20" transform="translate(127.001953 0.125)"/>
      <use xlink:href="#DejaVuSans-28" transform="translate(158.789062 0.125)"/>
      <use xlink:href="#DejaVuSans-31" transform="translate(197.802734 0.125)"/>
      <use xlink:href="#DejaVuSans-2e" transform="translate(261.425781 0.125)"/>
      <use xlink:href="#DejaVuSans-30" transform="translate(293.212891 0.125)"/>
      <use xlink:href="#DejaVuSans-20" transform="translate(356.835938 0.125)"/>
      <use xlink:href="#DejaVuSans-b1" transform="translate(388.623047 0.125)"/>
      <use xlink:href="#DejaVuSans-20" transform="translate(472.412109 0.125)"/>
      <use xlink:href="#DejaVuSans-30" transform="translate(504.199219 0.125)"/>
      <use xlink:href="#DejaVuSans-2e" transform="translate(567.822266 0.125)"/>
      <use xlink:href="#DejaVuSans-30" transform="translate(599.609375 0.125)"/>
      <use xlink:href="#DejaVuSans-30" transform="translate(663.232422 0.125)"/>
      <use xlink:href="#DejaVuSans-32" transform="translate(726.855469 0.125)"/>
      <use xlink:href="#DejaVuSans-30" transform="translate(790.478516 0.125)"/>
      <use xlink:href="#DejaVuSans-37" transform="translate(854.101562 0.125)"/>
      <use xlink:href="#DejaVuSans-29" transform="translate(917.724609 0.125)"/>
      <use xlink:href="#DejaVuSans-3a" transform="translate(956.738281 0.125)"/>
      <use xlink:href="#DejaVuSans-20" transform="translate(990.429688 0.125)"/>
      <use xlink:href="#DejaVuSans-37" transform="translate(1022.216797 0.125)"/>
      <use xlink:href="#DejaVuSans-31" transform="translate(1085.839844 0.125)"/>
      <use xlink:href="#DejaVuSans-2e" transform="translate(1149.462891 0.125)"/>
      <use xlink:href="#DejaVuSans-31" transform="translate(1181.25 0.125)"/>
      <use xlink:href="#DejaVuSans-25" transform="translate(1244.873047 0.125)"/>
     </g>
    </g>
    <g id="patch_19">
     <path d="M 238.022236 79.757969 
L 258.022236 79.757969 
L 258.022236 72.757969 
L 238.022236 72.757969 
z
" style="fill: #ff0000; fill-opacity: 0.4; stroke: #ff0000; stroke-opacity: 0.4; stroke-linejoin: miter"/>
    </g>
    <g id="text_9">
     <!-- Standard:  -->
     <g transform="translate(266.022236 73.119219) scale(0.1 -0.1)">
      <defs>
       <path id="DejaVuSans-53" d="M 3425 4513 
L 3425 3897 
Q 3066 4069 2747 4153 
Q 2428 4238 2131 4238 
Q 1616 4238 1336 4038 
Q 1056 3838 1056 3469 
Q 1056 3159 1242 3001 
Q 1428 2844 1947 2747 
L 2328 2669 
Q 3034 2534 3370 2195 
Q 3706 1856 3706 1288 
Q 3706 609 3251 259 
Q 2797 -91 1919 -91 
Q 1588 -91 1214 -16 
Q 841 59 441 206 
L 441 856 
Q 825 641 1194 531 
Q 1563 422 1919 422 
Q 2459 422 2753 634 
Q 3047 847 3047 1241 
Q 3047 1584 2836 1778 
Q 2625 1972 2144 2069 
L 1759 2144 
Q 1053 2284 737 2584 
Q 422 2884 422 3419 
Q 422 4038 858 4394 
Q 1294 4750 2059 4750 
Q 2388 4750 2728 4690 
Q 3069 4631 3425 4513 
z
" transform="scale(0.015625)"/>
       <path id="DejaVuSans-64" d="M 2906 2969 
L 2906 4863 
L 3481 4863 
L 3481 0 
L 2906 0 
L 2906 525 
Q 2725 213 2448 61 
Q 2172 -91 1784 -91 
Q 1150 -91 751 415 
Q 353 922 353 1747 
Q 353 2572 751 3078 
Q 1150 3584 1784 3584 
Q 2172 3584 2448 3432 
Q 2725 3281 2906 2969 
z
M 947 1747 
Q 947 1113 1208 752 
Q 1469 391 1925 391 
Q 2381 391 2643 752 
Q 2906 1113 2906 1747 
Q 2906 2381 2643 2742 
Q 2381 3103 1925 3103 
Q 1469 3103 1208 2742 
Q 947 2381 947 1747 
z
" transform="scale(0.015625)"/>
      </defs>
      <use xlink:href="#DejaVuSans-53"/>
      <use xlink:href="#DejaVuSans-74" x="63.476562"/>
      <use xlink:href="#DejaVuSans-61" x="102.685547"/>
      <use xlink:href="#DejaVuSans-6e" x="163.964844"/>
      <use xlink:href="#DejaVuSans-64" x="227.34375"/>
      <use xlink:href="#DejaVuSans-61" x="290.820312"/>
      <use xlink:href="#DejaVuSans-72" x="352.099609"/>
      <use xlink:href="#DejaVuSans-64" x="391.462891"/>
      <use xlink:href="#DejaVuSans-3a" x="454.939453"/>
      <use xlink:href="#DejaVuSans-20" x="488.630859"/>
     </g>
     <!-- 1$\sigma$ (1.0 $\pm$ 0.00207): 71.1% -->
     <g transform="translate(266.022236 84.317031) scale(0.1 -0.1)">
      <use xlink:href="#DejaVuSans-31" transform="translate(0 0.125)"/>
      <use xlink:href="#DejaVuSans-Oblique-3c3" transform="translate(63.623047 0.125)"/>
      <use xlink:href="#DejaVuSans-20" transform="translate(127.001953 0.125)"/>
      <use xlink:href="#DejaVuSans-28" transform="translate(158.789062 0.125)"/>
      <use xlink:href="#DejaVuSans-31" transform="translate(197.802734 0.125)"/>
      <use xlink:href="#DejaVuSans-2e" transform="translate(261.425781 0.125)"/>
      <use xlink:href="#DejaVuSans-30" transform="translate(293.212891 0.125)"/>
      <use xlink:href="#DejaVuSans-20" transform="translate(356.835938 0.125)"/>
      <use xlink:href="#DejaVuSans-b1" transform="translate(388.623047 0.125)"/>
      <use xlink:href="#DejaVuSans-20" transform="translate(472.412109 0.125)"/>
      <use xlink:href="#DejaVuSans-30" transform="translate(504.199219 0.125)"/>
      <use xlink:href="#DejaVuSans-2e" transform="translate(567.822266 0.125)"/>
      <use xlink:href="#DejaVuSans-30" transform="translate(599.609375 0.125)"/>
      <use xlink:href="#DejaVuSans-30" transform="translate(663.232422 0.125)"/>
      <use xlink:href="#DejaVuSans-32" transform="translate(726.855469 0.125)"/>
      <use xlink:href="#DejaVuSans-30" transform="translate(790.478516 0.125)"/>
      <use xlink:href="#DejaVuSans-37" transform="translate(854.101562 0.125)"/>
      <use xlink:href="#DejaVuSans-29" transform="translate(917.724609 0.125)"/>
      <use xlink:href="#DejaVuSans-3a" transform="translate(956.738281 0.125)"/>
      <use xlink:href="#DejaVuSans-20" transform="translate(990.429688 0.125)"/>
      <use xlink:href="#DejaVuSans-37" transform="translate(1022.216797 0.125)"/>
      <use xlink:href="#DejaVuSans-31" transform="translate(1085.839844 0.125)"/>
      <use xlink:href="#DejaVuSans-2e" transform="translate(1149.462891 0.125)"/>
      <use xlink:href="#DejaVuSans-31" transform="translate(1181.25 0.125)"/>
      <use xlink:href="#DejaVuSans-25" transform="translate(1244.873047 0.125)"/>
     </g>
    </g>
    <g id="LineCollection_4">
     <path d="M 243.022236 95.495156 
L 253.022236 95.495156 
" style="fill: none; stroke: #000080; stroke-width: 1.5"/>
    </g>
    <g id="line2d_8"/>
    <g id="line2d_9">
     <g>
      <use xlink:href="#m443876da0f" x="248.022236" y="95.495156" style="fill: #000080; stroke: #000080"/>
     </g>
    </g>
    <g id="text_10">
     <!-- $\mu$ = 1.0, $\sigma$ = 0.00203 -->
     <g transform="translate(266.022236 98.995156) scale(0.1 -0.1)">
      <defs>
       <path id="DejaVuSans-Oblique-3bc" d="M -84 -1331 
L 856 3500 
L 1434 3500 
L 1009 1322 
Q 997 1256 987 1175 
Q 978 1094 978 1013 
Q 978 722 1161 565 
Q 1344 409 1684 409 
Q 2147 409 2431 671 
Q 2716 934 2816 1459 
L 3213 3500 
L 3788 3500 
L 3266 809 
Q 3253 750 3248 706 
Q 3244 663 3244 628 
Q 3244 531 3283 486 
Q 3322 441 3406 441 
Q 3438 441 3492 456 
Q 3547 472 3647 513 
L 3559 50 
Q 3422 -19 3297 -55 
Q 3172 -91 3053 -91 
Q 2847 -91 2730 40 
Q 2613 172 2613 403 
Q 2438 153 2195 31 
Q 1953 -91 1625 -91 
Q 1334 -91 1117 43 
Q 900 178 831 397 
L 494 -1331 
L -84 -1331 
z
" transform="scale(0.015625)"/>
       <path id="DejaVuSans-3d" d="M 678 2906 
L 4684 2906 
L 4684 2381 
L 678 2381 
L 678 2906 
z
M 678 1631 
L 4684 1631 
L 4684 1100 
L 678 1100 
L 678 1631 
z
" transform="scale(0.015625)"/>
       <path id="DejaVuSans-2c" d="M 750 794 
L 1409 794 
L 1409 256 
L 897 -744 
L 494 -744 
L 750 256 
L 750 794 
z
" transform="scale(0.015625)"/>
       <path id="DejaVuSans-33" d="M 2597 2516 
Q 3050 2419 3304 2112 
Q 3559 1806 3559 1356 
Q 3559 666 3084 287 
Q 2609 -91 1734 -91 
Q 1441 -91 1130 -33 
Q 819 25 488 141 
L 488 750 
Q 750 597 1062 519 
Q 1375 441 1716 441 
Q 2309 441 2620 675 
Q 2931 909 2931 1356 
Q 2931 1769 2642 2001 
Q 2353 2234 1838 2234 
L 1294 2234 
L 1294 2753 
L 1863 2753 
Q 2328 2753 2575 2939 
Q 2822 3125 2822 3475 
Q 2822 3834 2567 4026 
Q 2313 4219 1838 4219 
Q 1578 4219 1281 4162 
Q 984 4106 628 3988 
L 628 4550 
Q 988 4650 1302 4700 
Q 1616 4750 1894 4750 
Q 2613 4750 3031 4423 
Q 3450 4097 3450 3541 
Q 3450 3153 3228 2886 
Q 3006 2619 2597 2516 
z
" transform="scale(0.015625)"/>
      </defs>
      <use xlink:href="#DejaVuSans-Oblique-3bc" transform="translate(0 0.78125)"/>
      <use xlink:href="#DejaVuSans-20" transform="translate(63.623047 0.78125)"/>
      <use xlink:href="#DejaVuSans-3d" transform="translate(95.410156 0.78125)"/>
      <use xlink:href="#DejaVuSans-20" transform="translate(179.199219 0.78125)"/>
      <use xlink:href="#DejaVuSans-31" transform="translate(210.986328 0.78125)"/>
      <use xlink:href="#DejaVuSans-2e" transform="translate(274.609375 0.78125)"/>
      <use xlink:href="#DejaVuSans-30" transform="translate(306.396484 0.78125)"/>
      <use xlink:href="#DejaVuSans-2c" transform="translate(370.019531 0.78125)"/>
      <use xlink:href="#DejaVuSans-20" transform="translate(401.806641 0.78125)"/>
      <use xlink:href="#DejaVuSans-Oblique-3c3" transform="translate(433.59375 0.78125)"/>
      <use xlink:href="#DejaVuSans-20" transform="translate(496.972656 0.78125)"/>
      <use xlink:href="#DejaVuSans-3d" transform="translate(528.759766 0.78125)"/>
      <use xlink:href="#DejaVuSans-20" transform="translate(612.548828 0.78125)"/>
      <use xlink:href="#DejaVuSans-30" transform="translate(644.335938 0.78125)"/>
      <use xlink:href="#DejaVuSans-2e" transform="translate(707.958984 0.78125)"/>
      <use xlink:href="#DejaVuSans-30" transform="translate(739.746094 0.78125)"/>
      <use xlink:href="#DejaVuSans-30" transform="translate(803.369141 0.78125)"/>
      <use xlink:href="#DejaVuSans-32" transform="translate(866.992188 0.78125)"/>
      <use xlink:href="#DejaVuSans-30" transform="translate(930.615234 0.78125)"/>
      <use xlink:href="#DejaVuSans-33" transform="translate(994.238281 0.78125)"/>
     </g>
    </g>
   </g>
  </g>
  <g id="axes_2">
   <g id="patch_20">
    <path d="M 36.97 226.24 
L 229.022236 226.24 
L 229.022236 150.3 
L 36.97 150.3 
z
" style="fill: #ffffff"/>
   </g>
   <g id="patch_21">
    <path d="M 102.975329 226.24 
L 114.979796 226.24 
L 114.979796 217.282815 
L 102.975329 217.282815 
z
" clip-path="url(#pce0e6eaf19)" style="fill: #4682b4"/>
   </g>
   <g id="patch_22">
    <path d="M 114.979796 226.24 
L 126.984263 226.24 
L 126.984263 189.100451 
L 114.979796 189.100451 
z
" clip-path="url(#pce0e6eaf19)" style="fill: #4682b4"/>
   </g>
   <g id="patch_23">
    <path d="M 126.984263 226.24 
L 138.988731 226.24 
L 138.988731 160.481152 
L 126.984263 160.481152 
z
" clip-path="url(#pce0e6eaf19)" style="fill: #4682b4"/>
   </g>
   <g id="patch_24">
    <path d="M 138.988731 226.24 
L 150.993198 226.24 
L 150.993198 189.100451 
L 138.988731 189.100451 
z
" clip-path="url(#pce0e6eaf19)" style="fill: #4682b4"/>
   </g>
   <g id="patch_25">
    <path d="M 150.993198 226.24 
L 162.997666 226.24 
L 162.997666 208.981033 
L 150.993198 208.981033 
z
" clip-path="url(#pce0e6eaf19)" style="fill: #4682b4"/>
   </g>
   <g id="patch_26">
    <path d="M 162.997666 226.24 
L 175.002133 226.24 
L 175.002133 220.99677 
L 162.997666 220.99677 
z
" clip-path="url(#pce0e6eaf19)" style="fill: #4682b4"/>
   </g>
   <g id="patch_27">
    <path d="M 175.002133 226.24 
L 187.0066 226.24 
L 187.0066 224.273789 
L 175.002133 224.273789 
z
" clip-path="url(#pce0e6eaf19)" style="fill: #4682b4"/>
   </g>
   <g id="patch_28">
    <path d="M 187.0066 226.24 
L 199.011068 226.24 
L 199.011068 225.803064 
L 187.0066 225.803064 
z
" clip-path="url(#pce0e6eaf19)" style="fill: #4682b4"/>
   </g>
   <g id="patch_29">
    <path d="M 199.011068 226.24 
L 211.015535 226.24 
L 211.015535 225.803064 
L 199.011068 225.803064 
z
" clip-path="url(#pce0e6eaf19)" style="fill: #4682b4"/>
   </g>
   <g id="patch_30">
    <path d="M 211.015535 226.24 
L 223.020003 226.24 
L 223.020003 226.021532 
L 211.015535 226.021532 
z
" clip-path="url(#pce0e6eaf19)" style="fill: #4682b4"/>
   </g>
   <g id="PolyCollection_3">
    <defs>
     <path id="m24bdfd265c" d="M 118.175928 -350.08381 
L 118.175928 -277.76 
L 148.272414 -277.76 
L 148.272414 -350.08381 
L 148.272414 -350.08381 
L 118.175928 -350.08381 
z
" style="stroke: #008000; stroke-opacity: 0.3"/>
    </defs>
    <g clip-path="url(#pce0e6eaf19)">
     <use xlink:href="#m24bdfd265c" x="0" y="504" style="fill: #008000; fill-opacity: 0.3; stroke: #008000; stroke-opacity: 0.3"/>
    </g>
   </g>
   <g id="PolyCollection_4">
    <defs>
     <path id="m177f9cae62" d="M 120.930177 -346.806791 
L 120.930177 -277.76 
L 145.06206 -277.76 
L 145.06206 -346.806791 
L 145.06206 -346.806791 
L 120.930177 -346.806791 
z
" style="stroke: #ff0000; stroke-opacity: 0.4"/>
    </defs>
    <g clip-path="url(#pce0e6eaf19)">
     <use xlink:href="#m177f9cae62" x="0" y="504" style="fill: #ff0000; fill-opacity: 0.4; stroke: #ff0000; stroke-opacity: 0.4"/>
    </g>
   </g>
   <g id="matplotlib.axis_3">
    <g id="xtick_4">
     <g id="line2d_10">
      <g>
       <use xlink:href="#m2fdc26a0ad" x="51.921184" y="226.24" style="stroke: #000000; stroke-width: 0.8"/>
      </g>
     </g>
     <g id="text_11">
      <!-- 0.0 -->
      <g transform="translate(43.969622 240.838437) scale(0.1 -0.1)">
       <use xlink:href="#DejaVuSans-30"/>
       <use xlink:href="#DejaVuSans-2e" x="63.623047"/>
       <use xlink:href="#DejaVuSans-30" x="95.410156"/>
      </g>
     </g>
    </g>
    <g id="xtick_5">
     <g id="line2d_11">
      <g>
       <use xlink:href="#m2fdc26a0ad" x="92.458651" y="226.24" style="stroke: #000000; stroke-width: 0.8"/>
      </g>
     </g>
     <g id="text_12">
      <!-- 0.5 -->
      <g transform="translate(84.507089 240.838437) scale(0.1 -0.1)">
       <use xlink:href="#DejaVuSans-30"/>
       <use xlink:href="#DejaVuSans-2e" x="63.623047"/>
       <use xlink:href="#DejaVuSans-35" x="95.410156"/>
      </g>
     </g>
    </g>
    <g id="xtick_6">
     <g id="line2d_12">
      <g>
       <use xlink:href="#m2fdc26a0ad" x="132.996118" y="226.24" style="stroke: #000000; stroke-width: 0.8"/>
      </g>
     </g>
     <g id="text_13">
      <!-- 1.0 -->
      <g transform="translate(125.044556 240.838437) scale(0.1 -0.1)">
       <use xlink:href="#DejaVuSans-31"/>
       <use xlink:href="#DejaVuSans-2e" x="63.623047"/>
       <use xlink:href="#DejaVuSans-30" x="95.410156"/>
      </g>
     </g>
    </g>
    <g id="xtick_7">
     <g id="line2d_13">
      <g>
       <use xlink:href="#m2fdc26a0ad" x="173.533585" y="226.24" style="stroke: #000000; stroke-width: 0.8"/>
      </g>
     </g>
     <g id="text_14">
      <!-- 1.5 -->
      <g transform="translate(165.582023 240.838437) scale(0.1 -0.1)">
       <use xlink:href="#DejaVuSans-31"/>
       <use xlink:href="#DejaVuSans-2e" x="63.623047"/>
       <use xlink:href="#DejaVuSans-35" x="95.410156"/>
      </g>
     </g>
    </g>
    <g id="xtick_8">
     <g id="line2d_14">
      <g>
       <use xlink:href="#m2fdc26a0ad" x="214.071052" y="226.24" style="stroke: #000000; stroke-width: 0.8"/>
      </g>
     </g>
     <g id="text_15">
      <!-- 2.0 -->
      <g transform="translate(206.11949 240.838437) scale(0.1 -0.1)">
       <use xlink:href="#DejaVuSans-32"/>
       <use xlink:href="#DejaVuSans-2e" x="63.623047"/>
       <use xlink:href="#DejaVuSans-30" x="95.410156"/>
      </g>
     </g>
    </g>
    <g id="text_16">
     <!-- Best Fit Amplitude -->
     <g transform="translate(87.260962 254.516563) scale(0.1 -0.1)">
      <defs>
       <path id="DejaVuSans-41" d="M 2188 4044 
L 1331 1722 
L 3047 1722 
L 2188 4044 
z
M 1831 4666 
L 2547 4666 
L 4325 0 
L 3669 0 
L 3244 1197 
L 1141 1197 
L 716 0 
L 50 0 
L 1831 4666 
z
" transform="scale(0.015625)"/>
       <path id="DejaVuSans-70" d="M 1159 525 
L 1159 -1331 
L 581 -1331 
L 581 3500 
L 1159 3500 
L 1159 2969 
Q 1341 3281 1617 3432 
Q 1894 3584 2278 3584 
Q 2916 3584 3314 3078 
Q 3713 2572 3713 1747 
Q 3713 922 3314 415 
Q 2916 -91 2278 -91 
Q 1894 -91 1617 61 
Q 1341 213 1159 525 
z
M 3116 1747 
Q 3116 2381 2855 2742 
Q 2594 3103 2138 3103 
Q 1681 3103 1420 2742 
Q 1159 2381 1159 1747 
Q 1159 1113 1420 752 
Q 1681 391 2138 391 
Q 2594 391 2855 752 
Q 3116 1113 3116 1747 
z
" transform="scale(0.015625)"/>
       <path id="DejaVuSans-6c" d="M 603 4863 
L 1178 4863 
L 1178 0 
L 603 0 
L 603 4863 
z
" transform="scale(0.015625)"/>
      </defs>
      <use xlink:href="#DejaVuSans-42"/>
      <use xlink:href="#DejaVuSans-65" x="68.603516"/>
      <use xlink:href="#DejaVuSans-73" x="130.126953"/>
      <use xlink:href="#DejaVuSans-74" x="182.226562"/>
      <use xlink:href="#DejaVuSans-20" x="221.435547"/>
      <use xlink:href="#DejaVuSans-46" x="253.222656"/>
      <use xlink:href="#DejaVuSans-69" x="303.492188"/>
      <use xlink:href="#DejaVuSans-74" x="331.275391"/>
      <use xlink:href="#DejaVuSans-20" x="370.484375"/>
      <use xlink:href="#DejaVuSans-41" x="402.271484"/>
      <use xlink:href="#DejaVuSans-6d" x="470.679688"/>
      <use xlink:href="#DejaVuSans-70" x="568.091797"/>
      <use xlink:href="#DejaVuSans-6c" x="631.568359"/>
      <use xlink:href="#DejaVuSans-69" x="659.351562"/>
      <use xlink:href="#DejaVuSans-74" x="687.134766"/>
      <use xlink:href="#DejaVuSans-75" x="726.34375"/>
      <use xlink:href="#DejaVuSans-64" x="789.722656"/>
      <use xlink:href="#DejaVuSans-65" x="853.199219"/>
     </g>
    </g>
    <g id="text_17">
     <!-- 1e−12 -->
     <g transform="translate(195.401924 253.516563) scale(0.1 -0.1)">
      <defs>
       <path id="DejaVuSans-2212" d="M 678 2272 
L 4684 2272 
L 4684 1741 
L 678 1741 
L 678 2272 
z
" transform="scale(0.015625)"/>
      </defs>
      <use xlink:href="#DejaVuSans-31"/>
      <use xlink:href="#DejaVuSans-65" x="63.623047"/>
      <use xlink:href="#DejaVuSans-2212" x="125.146484"/>
      <use xlink:href="#DejaVuSans-31" x="208.935547"/>
      <use xlink:href="#DejaVuSans-32" x="272.558594"/>
     </g>
    </g>
   </g>
   <g id="matplotlib.axis_4">
    <g id="ytick_4">
     <g id="line2d_15">
      <g>
       <use xlink:href="#mbfec3ddbe3" x="36.97" y="226.24" style="stroke: #000000; stroke-width: 0.8"/>
      </g>
     </g>
     <g id="text_18">
      <!-- 0 -->
      <g transform="translate(23.6075 230.039219) scale(0.1 -0.1)">
       <use xlink:href="#DejaVuSans-30"/>
      </g>
     </g>
    </g>
    <g id="ytick_5">
     <g id="line2d_16">
      <g>
       <use xlink:href="#mbfec3ddbe3" x="36.97" y="182.546413" style="stroke: #000000; stroke-width: 0.8"/>
      </g>
     </g>
     <g id="text_19">
      <!-- 200 -->
      <g transform="translate(10.8825 186.345632) scale(0.1 -0.1)">
       <use xlink:href="#DejaVuSans-32"/>
       <use xlink:href="#DejaVuSans-30" x="63.623047"/>
       <use xlink:href="#DejaVuSans-30" x="127.246094"/>
      </g>
     </g>
    </g>
   </g>
   <g id="LineCollection_5">
    <path d="M 121.334104 215.316603 
L 151.390397 215.316603 
" clip-path="url(#pce0e6eaf19)" style="fill: none; stroke: #000080; stroke-width: 1.5"/>
   </g>
   <g id="LineCollection_6">
    <path d="M 133.224171 226.24 
L 133.224171 153.91619 
" clip-path="url(#pce0e6eaf19)" style="fill: none; stroke-dasharray: 5.55,2.4; stroke-dashoffset: 0; stroke: #008000; stroke-width: 1.5"/>
   </g>
   <g id="LineCollection_7">
    <path d="M 132.996118 226.24 
L 132.996118 157.193209 
" clip-path="url(#pce0e6eaf19)" style="fill: none; stroke: #ff0000; stroke-width: 1.5"/>
   </g>
   <g id="line2d_17">
    <g clip-path="url(#pce0e6eaf19)">
     <use xlink:href="#m443876da0f" x="136.362251" y="215.316603" style="fill: #000080; stroke: #000080"/>
    </g>
   </g>
   <g id="patch_31">
    <path d="M 36.97 226.24 
L 36.97 150.3 
" style="fill: none; stroke: #000000; stroke-width: 0.8; stroke-linejoin: miter; stroke-linecap: square"/>
   </g>
   <g id="patch_32">
    <path d="M 229.022236 226.24 
L 229.022236 150.3 
" style="fill: none; stroke: #000000; stroke-width: 0.8; stroke-linejoin: miter; stroke-linecap: square"/>
   </g>
   <g id="patch_33">
    <path d="M 36.97 226.24 
L 229.022236 226.24 
" style="fill: none; stroke: #000000; stroke-width: 0.8; stroke-linejoin: miter; stroke-linecap: square"/>
   </g>
   <g id="patch_34">
    <path d="M 36.97 150.3 
L 229.022236 150.3 
" style="fill: none; stroke: #000000; stroke-width: 0.8; stroke-linejoin: miter; stroke-linecap: square"/>
   </g>
   <g id="legend_2">
    <g id="patch_35">
     <path d="M 236.022236 222.995156 
L 418.422236 222.995156 
Q 420.422236 222.995156 420.422236 220.995156 
L 420.422236 155.544844 
Q 420.422236 153.544844 418.422236 153.544844 
L 236.022236 153.544844 
Q 234.022236 153.544844 234.022236 155.544844 
L 234.022236 220.995156 
Q 234.022236 222.995156 236.022236 222.995156 
z
" style="fill: #ffffff; opacity: 0.8; stroke: #cccccc; stroke-linejoin: miter"/>
    </g>
    <g id="patch_36">
     <path d="M 238.022236 171.782031 
L 258.022236 171.782031 
L 258.022236 164.782031 
L 238.022236 164.782031 
z
" style="fill: #008000; fill-opacity: 0.3; stroke: #008000; stroke-opacity: 0.3; stroke-linejoin: miter"/>
    </g>
    <g id="text_20">
     <!-- Nuisance:  -->
     <g transform="translate(266.022236 165.143281) scale(0.1 -0.1)">
      <use xlink:href="#DejaVuSans-4e"/>
      <use xlink:href="#DejaVuSans-75" x="74.804688"/>
      <use xlink:href="#DejaVuSans-69" x="138.183594"/>
      <use xlink:href="#DejaVuSans-73" x="165.966797"/>
      <use xlink:href="#DejaVuSans-61" x="218.066406"/>
      <use xlink:href="#DejaVuSans-6e" x="279.345703"/>
      <use xlink:href="#DejaVuSans-63" x="342.724609"/>
      <use xlink:href="#DejaVuSans-65" x="397.705078"/>
      <use xlink:href="#DejaVuSans-3a" x="459.228516"/>
      <use xlink:href="#DejaVuSans-20" x="492.919922"/>
     </g>
     <!-- 1$\sigma$ (1e-12 $\pm$ 1.86e-13): 72.2% -->
     <g transform="translate(266.022236 176.341094) scale(0.1 -0.1)">
      <defs>
       <path id="DejaVuSans-2d" d="M 313 2009 
L 1997 2009 
L 1997 1497 
L 313 1497 
L 313 2009 
z
" transform="scale(0.015625)"/>
       <path id="DejaVuSans-38" d="M 2034 2216 
Q 1584 2216 1326 1975 
Q 1069 1734 1069 1313 
Q 1069 891 1326 650 
Q 1584 409 2034 409 
Q 2484 409 2743 651 
Q 3003 894 3003 1313 
Q 3003 1734 2745 1975 
Q 2488 2216 2034 2216 
z
M 1403 2484 
Q 997 2584 770 2862 
Q 544 3141 544 3541 
Q 544 4100 942 4425 
Q 1341 4750 2034 4750 
Q 2731 4750 3128 4425 
Q 3525 4100 3525 3541 
Q 3525 3141 3298 2862 
Q 3072 2584 2669 2484 
Q 3125 2378 3379 2068 
Q 3634 1759 3634 1313 
Q 3634 634 3220 271 
Q 2806 -91 2034 -91 
Q 1263 -91 848 271 
Q 434 634 434 1313 
Q 434 1759 690 2068 
Q 947 2378 1403 2484 
z
M 1172 3481 
Q 1172 3119 1398 2916 
Q 1625 2713 2034 2713 
Q 2441 2713 2670 2916 
Q 2900 3119 2900 3481 
Q 2900 3844 2670 4047 
Q 2441 4250 2034 4250 
Q 1625 4250 1398 4047 
Q 1172 3844 1172 3481 
z
" transform="scale(0.015625)"/>
       <path id="DejaVuSans-36" d="M 2113 2584 
Q 1688 2584 1439 2293 
Q 1191 2003 1191 1497 
Q 1191 994 1439 701 
Q 1688 409 2113 409 
Q 2538 409 2786 701 
Q 3034 994 3034 1497 
Q 3034 2003 2786 2293 
Q 2538 2584 2113 2584 
z
M 3366 4563 
L 3366 3988 
Q 3128 4100 2886 4159 
Q 2644 4219 2406 4219 
Q 1781 4219 1451 3797 
Q 1122 3375 1075 2522 
Q 1259 2794 1537 2939 
Q 1816 3084 2150 3084 
Q 2853 3084 3261 2657 
Q 3669 2231 3669 1497 
Q 3669 778 3244 343 
Q 2819 -91 2113 -91 
Q 1303 -91 875 529 
Q 447 1150 447 2328 
Q 447 3434 972 4092 
Q 1497 4750 2381 4750 
Q 2619 4750 2861 4703 
Q 3103 4656 3366 4563 
z
" transform="scale(0.015625)"/>
      </defs>
      <use xlink:href="#DejaVuSans-31" transform="translate(0 0.125)"/>
      <use xlink:href="#DejaVuSans-Oblique-3c3" transform="translate(63.623047 0.125)"/>
      <use xlink:href="#DejaVuSans-20" transform="translate(127.001953 0.125)"/>
      <use xlink:href="#DejaVuSans-28" transform="translate(158.789062 0.125)"/>
      <use xlink:href="#DejaVuSans-31" transform="translate(197.802734 0.125)"/>
      <use xlink:href="#DejaVuSans-65" transform="translate(261.425781 0.125)"/>
      <use xlink:href="#DejaVuSans-2d" transform="translate(322.949219 0.125)"/>
      <use xlink:href="#DejaVuSans-31" transform="translate(359.033203 0.125)"/>
      <use xlink:href="#DejaVuSans-32" transform="translate(422.65625 0.125)"/>
      <use xlink:href="#DejaVuSans-20" transform="translate(486.279297 0.125)"/>
      <use xlink:href="#DejaVuSans-b1" transform="translate(518.066406 0.125)"/>
      <use xlink:href="#DejaVuSans-20" transform="translate(601.855469 0.125)"/>
      <use xlink:href="#DejaVuSans-31" transform="translate(633.642578 0.125)"/>
      <use xlink:href="#DejaVuSans-2e" transform="translate(697.265625 0.125)"/>
      <use xlink:href="#DejaVuSans-38" transform="translate(726.427734 0.125)"/>
      <use xlink:href="#DejaVuSans-36" transform="translate(790.050781 0.125)"/>
      <use xlink:href="#DejaVuSans-65" transform="translate(853.673828 0.125)"/>
      <use xlink:href="#DejaVuSans-2d" transform="translate(915.197266 0.125)"/>
      <use xlink:href="#DejaVuSans-31" transform="translate(951.28125 0.125)"/>
      <use xlink:href="#DejaVuSans-33" transform="translate(1014.904297 0.125)"/>
      <use xlink:href="#DejaVuSans-29" transform="translate(1078.527344 0.125)"/>
      <use xlink:href="#DejaVuSans-3a" transform="translate(1117.541016 0.125)"/>
      <use xlink:href="#DejaVuSans-20" transform="translate(1151.232422 0.125)"/>
      <use xlink:href="#DejaVuSans-37" transform="translate(1183.019531 0.125)"/>
      <use xlink:href="#DejaVuSans-32" transform="translate(1246.642578 0.125)"/>
      <use xlink:href="#DejaVuSans-2e" transform="translate(1310.265625 0.125)"/>
      <use xlink:href="#DejaVuSans-32" transform="translate(1336.552734 0.125)"/>
      <use xlink:href="#DejaVuSans-25" transform="translate(1400.175781 0.125)"/>
     </g>
    </g>
    <g id="patch_37">
     <path d="M 238.022236 197.657969 
L 258.022236 197.657969 
L 258.022236 190.657969 
L 238.022236 190.657969 
z
" style="fill: #ff0000; fill-opacity: 0.4; stroke: #ff0000; stroke-opacity: 0.4; stroke-linejoin: miter"/>
    </g>
    <g id="text_21">
     <!-- Standard:  -->
     <g transform="translate(266.022236 191.019219) scale(0.1 -0.1)">
      <use xlink:href="#DejaVuSans-53"/>
      <use xlink:href="#DejaVuSans-74" x="63.476562"/>
      <use xlink:href="#DejaVuSans-61" x="102.685547"/>
      <use xlink:href="#DejaVuSans-6e" x="163.964844"/>
      <use xlink:href="#DejaVuSans-64" x="227.34375"/>
      <use xlink:href="#DejaVuSans-61" x="290.820312"/>
      <use xlink:href="#DejaVuSans-72" x="352.099609"/>
      <use xlink:href="#DejaVuSans-64" x="391.462891"/>
      <use xlink:href="#DejaVuSans-3a" x="454.939453"/>
      <use xlink:href="#DejaVuSans-20" x="488.630859"/>
     </g>
     <!-- 1$\sigma$ (1e-12 $\pm$ 1.49e-13): 61.5% -->
     <g transform="translate(266.022236 202.217031) scale(0.1 -0.1)">
      <defs>
       <path id="DejaVuSans-34" d="M 2419 4116 
L 825 1625 
L 2419 1625 
L 2419 4116 
z
M 2253 4666 
L 3047 4666 
L 3047 1625 
L 3713 1625 
L 3713 1100 
L 3047 1100 
L 3047 0 
L 2419 0 
L 2419 1100 
L 313 1100 
L 313 1709 
L 2253 4666 
z
" transform="scale(0.015625)"/>
      </defs>
      <use xlink:href="#DejaVuSans-31" transform="translate(0 0.125)"/>
      <use xlink:href="#DejaVuSans-Oblique-3c3" transform="translate(63.623047 0.125)"/>
      <use xlink:href="#DejaVuSans-20" transform="translate(127.001953 0.125)"/>
      <use xlink:href="#DejaVuSans-28" transform="translate(158.789062 0.125)"/>
      <use xlink:href="#DejaVuSans-31" transform="translate(197.802734 0.125)"/>
      <use xlink:href="#DejaVuSans-65" transform="translate(261.425781 0.125)"/>
      <use xlink:href="#DejaVuSans-2d" transform="translate(322.949219 0.125)"/>
      <use xlink:href="#DejaVuSans-31" transform="translate(359.033203 0.125)"/>
      <use xlink:href="#DejaVuSans-32" transform="translate(422.65625 0.125)"/>
      <use xlink:href="#DejaVuSans-20" transform="translate(486.279297 0.125)"/>
      <use xlink:href="#DejaVuSans-b1" transform="translate(518.066406 0.125)"/>
      <use xlink:href="#DejaVuSans-20" transform="translate(601.855469 0.125)"/>
      <use xlink:href="#DejaVuSans-31" transform="translate(633.642578 0.125)"/>
      <use xlink:href="#DejaVuSans-2e" transform="translate(697.265625 0.125)"/>
      <use xlink:href="#DejaVuSans-34" transform="translate(729.052734 0.125)"/>
      <use xlink:href="#DejaVuSans-39" transform="translate(792.675781 0.125)"/>
      <use xlink:href="#DejaVuSans-65" transform="translate(856.298828 0.125)"/>
      <use xlink:href="#DejaVuSans-2d" transform="translate(917.822266 0.125)"/>
      <use xlink:href="#DejaVuSans-31" transform="translate(953.90625 0.125)"/>
      <use xlink:href="#DejaVuSans-33" transform="translate(1017.529297 0.125)"/>
      <use xlink:href="#DejaVuSans-29" transform="translate(1081.152344 0.125)"/>
      <use xlink:href="#DejaVuSans-3a" transform="translate(1120.166016 0.125)"/>
      <use xlink:href="#DejaVuSans-20" transform="translate(1153.857422 0.125)"/>
      <use xlink:href="#DejaVuSans-36" transform="translate(1185.644531 0.125)"/>
      <use xlink:href="#DejaVuSans-31" transform="translate(1249.267578 0.125)"/>
      <use xlink:href="#DejaVuSans-2e" transform="translate(1312.890625 0.125)"/>
      <use xlink:href="#DejaVuSans-35" transform="translate(1344.677734 0.125)"/>
      <use xlink:href="#DejaVuSans-25" transform="translate(1408.300781 0.125)"/>
     </g>
    </g>
    <g id="LineCollection_8">
     <path d="M 243.022236 213.395156 
L 253.022236 213.395156 
" style="fill: none; stroke: #000080; stroke-width: 1.5"/>
    </g>
    <g id="line2d_18"/>
    <g id="line2d_19">
     <g>
      <use xlink:href="#m443876da0f" x="248.022236" y="213.395156" style="fill: #000080; stroke: #000080"/>
     </g>
    </g>
    <g id="text_22">
     <!-- $\mu$ = 1.04e-12, $\sigma$ = 1.85e-13 -->
     <g transform="translate(266.022236 216.895156) scale(0.1 -0.1)">
      <use xlink:href="#DejaVuSans-Oblique-3bc" transform="translate(0 0.78125)"/>
      <use xlink:href="#DejaVuSans-20" transform="translate(63.623047 0.78125)"/>
      <use xlink:href="#DejaVuSans-3d" transform="translate(95.410156 0.78125)"/>
      <use xlink:href="#DejaVuSans-20" transform="translate(179.199219 0.78125)"/>
      <use xlink:href="#DejaVuSans-31" transform="translate(210.986328 0.78125)"/>
      <use xlink:href="#DejaVuSans-2e" transform="translate(274.609375 0.78125)"/>
      <use xlink:href="#DejaVuSans-30" transform="translate(306.396484 0.78125)"/>
      <use xlink:href="#DejaVuSans-34" transform="translate(370.019531 0.78125)"/>
      <use xlink:href="#DejaVuSans-65" transform="translate(433.642578 0.78125)"/>
      <use xlink:href="#DejaVuSans-2d" transform="translate(495.166016 0.78125)"/>
      <use xlink:href="#DejaVuSans-31" transform="translate(531.25 0.78125)"/>
      <use xlink:href="#DejaVuSans-32" transform="translate(594.873047 0.78125)"/>
      <use xlink:href="#DejaVuSans-2c" transform="translate(658.496094 0.78125)"/>
      <use xlink:href="#DejaVuSans-20" transform="translate(690.283203 0.78125)"/>
      <use xlink:href="#DejaVuSans-Oblique-3c3" transform="translate(722.070312 0.78125)"/>
      <use xlink:href="#DejaVuSans-20" transform="translate(785.449219 0.78125)"/>
      <use xlink:href="#DejaVuSans-3d" transform="translate(817.236328 0.78125)"/>
      <use xlink:href="#DejaVuSans-20" transform="translate(901.025391 0.78125)"/>
      <use xlink:href="#DejaVuSans-31" transform="translate(932.8125 0.78125)"/>
      <use xlink:href="#DejaVuSans-2e" transform="translate(996.435547 0.78125)"/>
      <use xlink:href="#DejaVuSans-38" transform="translate(1025.597656 0.78125)"/>
      <use xlink:href="#DejaVuSans-35" transform="translate(1089.220703 0.78125)"/>
      <use xlink:href="#DejaVuSans-65" transform="translate(1152.84375 0.78125)"/>
      <use xlink:href="#DejaVuSans-2d" transform="translate(1214.367188 0.78125)"/>
      <use xlink:href="#DejaVuSans-31" transform="translate(1250.451172 0.78125)"/>
      <use xlink:href="#DejaVuSans-33" transform="translate(1314.074219 0.78125)"/>
     </g>
    </g>
   </g>
  </g>
  <g id="axes_3">
   <g id="patch_38">
    <path d="M 36.97 344.14 
L 229.022236 344.14 
L 229.022236 268.2 
L 36.97 268.2 
z
" style="fill: #ffffff"/>
   </g>
   <g id="patch_39">
    <path d="M 43.160838 344.14 
L 55.542515 344.14 
L 55.542515 343.602476 
L 43.160838 343.602476 
z
" clip-path="url(#pc7f61327b3)" style="fill: #4682b4"/>
   </g>
   <g id="patch_40">
    <path d="M 55.542515 344.14 
L 67.924191 344.14 
L 67.924191 342.258667 
L 55.542515 342.258667 
z
" clip-path="url(#pc7f61327b3)" style="fill: #4682b4"/>
   </g>
   <g id="patch_41">
    <path d="M 67.924191 344.14 
L 80.305868 344.14 
L 80.305868 341.721143 
L 67.924191 341.721143 
z
" clip-path="url(#pc7f61327b3)" style="fill: #4682b4"/>
   </g>
   <g id="patch_42">
    <path d="M 80.305868 344.14 
L 92.687545 344.14 
L 92.687545 339.033525 
L 80.305868 339.033525 
z
" clip-path="url(#pc7f61327b3)" style="fill: #4682b4"/>
   </g>
   <g id="patch_43">
    <path d="M 92.687545 344.14 
L 105.069221 344.14 
L 105.069221 330.164385 
L 92.687545 330.164385 
z
" clip-path="url(#pc7f61327b3)" style="fill: #4682b4"/>
   </g>
   <g id="patch_44">
    <path d="M 105.069221 344.14 
L 117.450898 344.14 
L 117.450898 312.426104 
L 105.069221 312.426104 
z
" clip-path="url(#pc7f61327b3)" style="fill: #4682b4"/>
   </g>
   <g id="patch_45">
    <path d="M 117.450898 344.14 
L 129.832574 344.14 
L 129.832574 293.344013 
L 117.450898 293.344013 
z
" clip-path="url(#pc7f61327b3)" style="fill: #4682b4"/>
   </g>
   <g id="patch_46">
    <path d="M 129.832574 344.14 
L 142.214251 344.14 
L 142.214251 279.099636 
L 129.832574 279.099636 
z
" clip-path="url(#pc7f61327b3)" style="fill: #4682b4"/>
   </g>
   <g id="patch_47">
    <path d="M 142.214251 344.14 
L 154.595927 344.14 
L 154.595927 308.663438 
L 142.214251 308.663438 
z
" clip-path="url(#pc7f61327b3)" style="fill: #4682b4"/>
   </g>
   <g id="patch_48">
    <path d="M 154.595927 344.14 
L 166.977604 344.14 
L 166.977604 336.345907 
L 154.595927 336.345907 
z
" clip-path="url(#pc7f61327b3)" style="fill: #4682b4"/>
   </g>
   <g id="PolyCollection_5">
    <defs>
     <path id="m7195b5c56b" d="M 118.825718 -232.18381 
L 118.825718 -159.86 
L 148.190276 -159.86 
L 148.190276 -232.18381 
L 148.190276 -232.18381 
L 118.825718 -232.18381 
z
" style="stroke: #008000; stroke-opacity: 0.3"/>
    </defs>
    <g clip-path="url(#pc7f61327b3)">
     <use xlink:href="#m7195b5c56b" x="0" y="504" style="fill: #008000; fill-opacity: 0.3; stroke: #008000; stroke-opacity: 0.3"/>
    </g>
   </g>
   <g id="PolyCollection_6">
    <defs>
     <path id="mbc63e2d9dd" d="M 118.291442 -228.152382 
L 118.291442 -159.86 
L 147.700794 -159.86 
L 147.700794 -228.152382 
L 147.700794 -228.152382 
L 118.291442 -228.152382 
z
" style="stroke: #ff0000; stroke-opacity: 0.4"/>
    </defs>
    <g clip-path="url(#pc7f61327b3)">
     <use xlink:href="#mbc63e2d9dd" x="0" y="504" style="fill: #ff0000; fill-opacity: 0.4; stroke: #ff0000; stroke-opacity: 0.4"/>
    </g>
   </g>
   <g id="matplotlib.axis_5">
    <g id="xtick_9">
     <g id="line2d_20">
      <g>
       <use xlink:href="#m2fdc26a0ad" x="60.6111" y="344.14" style="stroke: #000000; stroke-width: 0.8"/>
      </g>
     </g>
     <g id="text_23">
      <!-- 1 -->
      <g transform="translate(57.42985 358.738438) scale(0.1 -0.1)">
       <use xlink:href="#DejaVuSans-31"/>
      </g>
     </g>
    </g>
    <g id="xtick_10">
     <g id="line2d_21">
      <g>
       <use xlink:href="#m2fdc26a0ad" x="116.291883" y="344.14" style="stroke: #000000; stroke-width: 0.8"/>
      </g>
     </g>
     <g id="text_24">
      <!-- 2 -->
      <g transform="translate(113.110633 358.738438) scale(0.1 -0.1)">
       <use xlink:href="#DejaVuSans-32"/>
      </g>
     </g>
    </g>
    <g id="xtick_11">
     <g id="line2d_22">
      <g>
       <use xlink:href="#m2fdc26a0ad" x="171.972667" y="344.14" style="stroke: #000000; stroke-width: 0.8"/>
      </g>
     </g>
     <g id="text_25">
      <!-- 3 -->
      <g transform="translate(168.791417 358.738438) scale(0.1 -0.1)">
       <use xlink:href="#DejaVuSans-33"/>
      </g>
     </g>
    </g>
    <g id="xtick_12">
     <g id="line2d_23">
      <g>
       <use xlink:href="#m2fdc26a0ad" x="227.65345" y="344.14" style="stroke: #000000; stroke-width: 0.8"/>
      </g>
     </g>
     <g id="text_26">
      <!-- 4 -->
      <g transform="translate(224.4722 358.738438) scale(0.1 -0.1)">
       <use xlink:href="#DejaVuSans-34"/>
      </g>
     </g>
    </g>
    <g id="text_27">
     <!-- Best Fit Index -->
     <g transform="translate(99.117212 372.416563) scale(0.1 -0.1)">
      <defs>
       <path id="DejaVuSans-49" d="M 628 4666 
L 1259 4666 
L 1259 0 
L 628 0 
L 628 4666 
z
" transform="scale(0.015625)"/>
       <path id="DejaVuSans-78" d="M 3513 3500 
L 2247 1797 
L 3578 0 
L 2900 0 
L 1881 1375 
L 863 0 
L 184 0 
L 1544 1831 
L 300 3500 
L 978 3500 
L 1906 2253 
L 2834 3500 
L 3513 3500 
z
" transform="scale(0.015625)"/>
      </defs>
      <use xlink:href="#DejaVuSans-42"/>
      <use xlink:href="#DejaVuSans-65" x="68.603516"/>
      <use xlink:href="#DejaVuSans-73" x="130.126953"/>
      <use xlink:href="#DejaVuSans-74" x="182.226562"/>
      <use xlink:href="#DejaVuSans-20" x="221.435547"/>
      <use xlink:href="#DejaVuSans-46" x="253.222656"/>
      <use xlink:href="#DejaVuSans-69" x="303.492188"/>
      <use xlink:href="#DejaVuSans-74" x="331.275391"/>
      <use xlink:href="#DejaVuSans-20" x="370.484375"/>
      <use xlink:href="#DejaVuSans-49" x="402.271484"/>
      <use xlink:href="#DejaVuSans-6e" x="431.763672"/>
      <use xlink:href="#DejaVuSans-64" x="495.142578"/>
      <use xlink:href="#DejaVuSans-65" x="558.619141"/>
      <use xlink:href="#DejaVuSans-78" x="618.392578"/>
     </g>
    </g>
   </g>
   <g id="matplotlib.axis_6">
    <g id="ytick_6">
     <g id="line2d_24">
      <g>
       <use xlink:href="#mbfec3ddbe3" x="36.97" y="344.14" style="stroke: #000000; stroke-width: 0.8"/>
      </g>
     </g>
     <g id="text_28">
      <!-- 0 -->
      <g transform="translate(23.6075 347.939219) scale(0.1 -0.1)">
       <use xlink:href="#DejaVuSans-30"/>
      </g>
     </g>
    </g>
    <g id="ytick_7">
     <g id="line2d_25">
      <g>
       <use xlink:href="#mbfec3ddbe3" x="36.97" y="317.263817" style="stroke: #000000; stroke-width: 0.8"/>
      </g>
     </g>
     <g id="text_29">
      <!-- 100 -->
      <g transform="translate(10.8825 321.063035) scale(0.1 -0.1)">
       <use xlink:href="#DejaVuSans-31"/>
       <use xlink:href="#DejaVuSans-30" x="63.623047"/>
       <use xlink:href="#DejaVuSans-30" x="127.246094"/>
      </g>
     </g>
    </g>
    <g id="ytick_8">
     <g id="line2d_26">
      <g>
       <use xlink:href="#mbfec3ddbe3" x="36.97" y="290.387633" style="stroke: #000000; stroke-width: 0.8"/>
      </g>
     </g>
     <g id="text_30">
      <!-- 200 -->
      <g transform="translate(10.8825 294.186852) scale(0.1 -0.1)">
       <use xlink:href="#DejaVuSans-32"/>
       <use xlink:href="#DejaVuSans-30" x="63.623047"/>
       <use xlink:href="#DejaVuSans-30" x="127.246094"/>
      </g>
     </g>
    </g>
   </g>
   <g id="LineCollection_9">
    <path d="M 108.801189 330.701908 
L 145.937614 330.701908 
" clip-path="url(#pc7f61327b3)" style="fill: none; stroke: #000080; stroke-width: 1.5"/>
   </g>
   <g id="LineCollection_10">
    <path d="M 133.507997 344.14 
L 133.507997 271.81619 
" clip-path="url(#pc7f61327b3)" style="fill: none; stroke-dasharray: 5.55,2.4; stroke-dashoffset: 0; stroke: #008000; stroke-width: 1.5"/>
   </g>
   <g id="LineCollection_11">
    <path d="M 132.996118 344.14 
L 132.996118 275.847618 
" clip-path="url(#pc7f61327b3)" style="fill: none; stroke: #ff0000; stroke-width: 1.5"/>
   </g>
   <g id="line2d_27">
    <g clip-path="url(#pc7f61327b3)">
     <use xlink:href="#m443876da0f" x="127.369401" y="330.701908" style="fill: #000080; stroke: #000080"/>
    </g>
   </g>
   <g id="patch_49">
    <path d="M 36.97 344.14 
L 36.97 268.2 
" style="fill: none; stroke: #000000; stroke-width: 0.8; stroke-linejoin: miter; stroke-linecap: square"/>
   </g>
   <g id="patch_50">
    <path d="M 229.022236 344.14 
L 229.022236 268.2 
" style="fill: none; stroke: #000000; stroke-width: 0.8; stroke-linejoin: miter; stroke-linecap: square"/>
   </g>
   <g id="patch_51">
    <path d="M 36.97 344.14 
L 229.022236 344.14 
" style="fill: none; stroke: #000000; stroke-width: 0.8; stroke-linejoin: miter; stroke-linecap: square"/>
   </g>
   <g id="patch_52">
    <path d="M 36.97 268.2 
L 229.022236 268.2 
" style="fill: none; stroke: #000000; stroke-width: 0.8; stroke-linejoin: miter; stroke-linecap: square"/>
   </g>
   <g id="legend_3">
    <g id="patch_53">
     <path d="M 236.022236 340.895156 
L 395.122236 340.895156 
Q 397.122236 340.895156 397.122236 338.895156 
L 397.122236 273.444844 
Q 397.122236 271.444844 395.122236 271.444844 
L 236.022236 271.444844 
Q 234.022236 271.444844 234.022236 273.444844 
L 234.022236 338.895156 
Q 234.022236 340.895156 236.022236 340.895156 
z
" style="fill: #ffffff; opacity: 0.8; stroke: #cccccc; stroke-linejoin: miter"/>
    </g>
    <g id="patch_54">
     <path d="M 238.022236 289.682031 
L 258.022236 289.682031 
L 258.022236 282.682031 
L 238.022236 282.682031 
z
" style="fill: #008000; fill-opacity: 0.3; stroke: #008000; stroke-opacity: 0.3; stroke-linejoin: miter"/>
    </g>
    <g id="text_31">
     <!-- Nuisance:  -->
     <g transform="translate(266.022236 283.043281) scale(0.1 -0.1)">
      <use xlink:href="#DejaVuSans-4e"/>
      <use xlink:href="#DejaVuSans-75" x="74.804688"/>
      <use xlink:href="#DejaVuSans-69" x="138.183594"/>
      <use xlink:href="#DejaVuSans-73" x="165.966797"/>
      <use xlink:href="#DejaVuSans-61" x="218.066406"/>
      <use xlink:href="#DejaVuSans-6e" x="279.345703"/>
      <use xlink:href="#DejaVuSans-63" x="342.724609"/>
      <use xlink:href="#DejaVuSans-65" x="397.705078"/>
      <use xlink:href="#DejaVuSans-3a" x="459.228516"/>
      <use xlink:href="#DejaVuSans-20" x="492.919922"/>
     </g>
     <!-- 1$\sigma$ (2.31 $\pm$ 0.264): 61.3% -->
     <g transform="translate(266.022236 294.241094) scale(0.1 -0.1)">
      <use xlink:href="#DejaVuSans-31" transform="translate(0 0.125)"/>
      <use xlink:href="#DejaVuSans-Oblique-3c3" transform="translate(63.623047 0.125)"/>
      <use xlink:href="#DejaVuSans-20" transform="translate(127.001953 0.125)"/>
      <use xlink:href="#DejaVuSans-28" transform="translate(158.789062 0.125)"/>
      <use xlink:href="#DejaVuSans-32" transform="translate(197.802734 0.125)"/>
      <use xlink:href="#DejaVuSans-2e" transform="translate(261.425781 0.125)"/>
      <use xlink:href="#DejaVuSans-33" transform="translate(293.212891 0.125)"/>
      <use xlink:href="#DejaVuSans-31" transform="translate(356.835938 0.125)"/>
      <use xlink:href="#DejaVuSans-20" transform="translate(420.458984 0.125)"/>
      <use xlink:href="#DejaVuSans-b1" transform="translate(452.246094 0.125)"/>
      <use xlink:href="#DejaVuSans-20" transform="translate(536.035156 0.125)"/>
      <use xlink:href="#DejaVuSans-30" transform="translate(567.822266 0.125)"/>
      <use xlink:href="#DejaVuSans-2e" transform="translate(631.445312 0.125)"/>
      <use xlink:href="#DejaVuSans-32" transform="translate(657.732422 0.125)"/>
      <use xlink:href="#DejaVuSans-36" transform="translate(721.355469 0.125)"/>
      <use xlink:href="#DejaVuSans-34" transform="translate(784.978516 0.125)"/>
      <use xlink:href="#DejaVuSans-29" transform="translate(848.601562 0.125)"/>
      <use xlink:href="#DejaVuSans-3a" transform="translate(887.615234 0.125)"/>
      <use xlink:href="#DejaVuSans-20" transform="translate(921.306641 0.125)"/>
      <use xlink:href="#DejaVuSans-36" transform="translate(953.09375 0.125)"/>
      <use xlink:href="#DejaVuSans-31" transform="translate(1016.716797 0.125)"/>
      <use xlink:href="#DejaVuSans-2e" transform="translate(1080.339844 0.125)"/>
      <use xlink:href="#DejaVuSans-33" transform="translate(1112.126953 0.125)"/>
      <use xlink:href="#DejaVuSans-25" transform="translate(1175.75 0.125)"/>
     </g>
    </g>
    <g id="patch_55">
     <path d="M 238.022236 315.557969 
L 258.022236 315.557969 
L 258.022236 308.557969 
L 238.022236 308.557969 
z
" style="fill: #ff0000; fill-opacity: 0.4; stroke: #ff0000; stroke-opacity: 0.4; stroke-linejoin: miter"/>
    </g>
    <g id="text_32">
     <!-- Standard:  -->
     <g transform="translate(266.022236 308.919219) scale(0.1 -0.1)">
      <use xlink:href="#DejaVuSans-53"/>
      <use xlink:href="#DejaVuSans-74" x="63.476562"/>
      <use xlink:href="#DejaVuSans-61" x="102.685547"/>
      <use xlink:href="#DejaVuSans-6e" x="163.964844"/>
      <use xlink:href="#DejaVuSans-64" x="227.34375"/>
      <use xlink:href="#DejaVuSans-61" x="290.820312"/>
      <use xlink:href="#DejaVuSans-72" x="352.099609"/>
      <use xlink:href="#DejaVuSans-64" x="391.462891"/>
      <use xlink:href="#DejaVuSans-3a" x="454.939453"/>
      <use xlink:href="#DejaVuSans-20" x="488.630859"/>
     </g>
     <!-- 1$\sigma$ (2.3 $\pm$ 0.264): 61.3% -->
     <g transform="translate(266.022236 320.117031) scale(0.1 -0.1)">
      <use xlink:href="#DejaVuSans-31" transform="translate(0 0.125)"/>
      <use xlink:href="#DejaVuSans-Oblique-3c3" transform="translate(63.623047 0.125)"/>
      <use xlink:href="#DejaVuSans-20" transform="translate(127.001953 0.125)"/>
      <use xlink:href="#DejaVuSans-28" transform="translate(158.789062 0.125)"/>
      <use xlink:href="#DejaVuSans-32" transform="translate(197.802734 0.125)"/>
      <use xlink:href="#DejaVuSans-2e" transform="translate(261.425781 0.125)"/>
      <use xlink:href="#DejaVuSans-33" transform="translate(293.212891 0.125)"/>
      <use xlink:href="#DejaVuSans-20" transform="translate(356.835938 0.125)"/>
      <use xlink:href="#DejaVuSans-b1" transform="translate(388.623047 0.125)"/>
      <use xlink:href="#DejaVuSans-20" transform="translate(472.412109 0.125)"/>
      <use xlink:href="#DejaVuSans-30" transform="translate(504.199219 0.125)"/>
      <use xlink:href="#DejaVuSans-2e" transform="translate(567.822266 0.125)"/>
      <use xlink:href="#DejaVuSans-32" transform="translate(594.109375 0.125)"/>
      <use xlink:href="#DejaVuSans-36" transform="translate(657.732422 0.125)"/>
      <use xlink:href="#DejaVuSans-34" transform="translate(721.355469 0.125)"/>
      <use xlink:href="#DejaVuSans-29" transform="translate(784.978516 0.125)"/>
      <use xlink:href="#DejaVuSans-3a" transform="translate(823.992188 0.125)"/>
      <use xlink:href="#DejaVuSans-20" transform="translate(857.683594 0.125)"/>
      <use xlink:href="#DejaVuSans-36" transform="translate(889.470703 0.125)"/>
      <use xlink:href="#DejaVuSans-31" transform="translate(953.09375 0.125)"/>
      <use xlink:href="#DejaVuSans-2e" transform="translate(1016.716797 0.125)"/>
      <use xlink:href="#DejaVuSans-33" transform="translate(1048.503906 0.125)"/>
      <use xlink:href="#DejaVuSans-25" transform="translate(1112.126953 0.125)"/>
     </g>
    </g>
    <g id="LineCollection_12">
     <path d="M 243.022236 331.295156 
L 253.022236 331.295156 
" style="fill: none; stroke: #000080; stroke-width: 1.5"/>
    </g>
    <g id="line2d_28"/>
    <g id="line2d_29">
     <g>
      <use xlink:href="#m443876da0f" x="248.022236" y="331.295156" style="fill: #000080; stroke: #000080"/>
     </g>
    </g>
    <g id="text_33">
     <!-- $\mu$ = 2.2, $\sigma$ = 0.333 -->
     <g transform="translate(266.022236 334.795156) scale(0.1 -0.1)">
      <use xlink:href="#DejaVuSans-Oblique-3bc" transform="translate(0 0.78125)"/>
      <use xlink:href="#DejaVuSans-20" transform="translate(63.623047 0.78125)"/>
      <use xlink:href="#DejaVuSans-3d" transform="translate(95.410156 0.78125)"/>
      <use xlink:href="#DejaVuSans-20" transform="translate(179.199219 0.78125)"/>
      <use xlink:href="#DejaVuSans-32" transform="translate(210.986328 0.78125)"/>
      <use xlink:href="#DejaVuSans-2e" transform="translate(274.609375 0.78125)"/>
      <use xlink:href="#DejaVuSans-32" transform="translate(300.896484 0.78125)"/>
      <use xlink:href="#DejaVuSans-2c" transform="translate(364.519531 0.78125)"/>
      <use xlink:href="#DejaVuSans-20" transform="translate(396.306641 0.78125)"/>
      <use xlink:href="#DejaVuSans-Oblique-3c3" transform="translate(428.09375 0.78125)"/>
      <use xlink:href="#DejaVuSans-20" transform="translate(491.472656 0.78125)"/>
      <use xlink:href="#DejaVuSans-3d" transform="translate(523.259766 0.78125)"/>
      <use xlink:href="#DejaVuSans-20" transform="translate(607.048828 0.78125)"/>
      <use xlink:href="#DejaVuSans-30" transform="translate(638.835938 0.78125)"/>
      <use xlink:href="#DejaVuSans-2e" transform="translate(702.458984 0.78125)"/>
      <use xlink:href="#DejaVuSans-33" transform="translate(734.246094 0.78125)"/>
      <use xlink:href="#DejaVuSans-33" transform="translate(797.869141 0.78125)"/>
      <use xlink:href="#DejaVuSans-33" transform="translate(861.492188 0.78125)"/>
     </g>
    </g>
   </g>
  </g>
  <g id="axes_4">
   <g id="patch_56">
    <path d="M 36.97 462.04 
L 229.022236 462.04 
L 229.022236 386.1 
L 36.97 386.1 
z
" style="fill: #ffffff"/>
   </g>
   <g id="patch_57">
    <path d="M 117.034087 462.04 
L 127.699625 462.04 
L 127.699625 423.619296 
L 117.034087 423.619296 
z
" clip-path="url(#pee2b7bc2ca)" style="fill: #4682b4"/>
   </g>
   <g id="patch_58">
    <path d="M 127.699625 462.04 
L 138.365163 462.04 
L 138.365163 396.175935 
L 127.699625 396.175935 
z
" clip-path="url(#pee2b7bc2ca)" style="fill: #4682b4"/>
   </g>
   <g id="patch_59">
    <path d="M 138.365163 462.04 
L 149.030701 462.04 
L 149.030701 427.630248 
L 138.365163 427.630248 
z
" clip-path="url(#pee2b7bc2ca)" style="fill: #4682b4"/>
   </g>
   <g id="patch_60">
    <path d="M 149.030701 462.04 
L 159.696239 462.04 
L 159.696239 443.885162 
L 149.030701 443.885162 
z
" clip-path="url(#pee2b7bc2ca)" style="fill: #4682b4"/>
   </g>
   <g id="patch_61">
    <path d="M 159.696239 462.04 
L 170.361777 462.04 
L 170.361777 454.862506 
L 159.696239 454.862506 
z
" clip-path="url(#pee2b7bc2ca)" style="fill: #4682b4"/>
   </g>
   <g id="patch_62">
    <path d="M 170.361777 462.04 
L 181.027315 462.04 
L 181.027315 460.140075 
L 170.361777 460.140075 
z
" clip-path="url(#pee2b7bc2ca)" style="fill: #4682b4"/>
   </g>
   <g id="patch_63">
    <path d="M 181.027315 462.04 
L 191.692853 462.04 
L 191.692853 460.562281 
L 181.027315 460.562281 
z
" clip-path="url(#pee2b7bc2ca)" style="fill: #4682b4"/>
   </g>
   <g id="patch_64">
    <path d="M 191.692853 462.04 
L 202.358391 462.04 
L 202.358391 461.406692 
L 191.692853 461.406692 
z
" clip-path="url(#pee2b7bc2ca)" style="fill: #4682b4"/>
   </g>
   <g id="patch_65">
    <path d="M 202.358391 462.04 
L 213.023929 462.04 
L 213.023929 461.617794 
L 202.358391 461.617794 
z
" clip-path="url(#pee2b7bc2ca)" style="fill: #4682b4"/>
   </g>
   <g id="patch_66">
    <path d="M 213.023929 462.04 
L 223.689467 462.04 
L 223.689467 461.828897 
L 213.023929 461.828897 
z
" clip-path="url(#pee2b7bc2ca)" style="fill: #4682b4"/>
   </g>
   <g id="PolyCollection_7">
    <defs>
     <path id="me78250cd95" d="M 118.243784 -114.28381 
L 118.243784 -41.96 
L 147.351808 -41.96 
L 147.351808 -114.28381 
L 147.351808 -114.28381 
L 118.243784 -114.28381 
z
" style="stroke: #008000; stroke-opacity: 0.3"/>
    </defs>
    <g clip-path="url(#pee2b7bc2ca)">
     <use xlink:href="#me78250cd95" x="0" y="504" style="fill: #008000; fill-opacity: 0.3; stroke: #008000; stroke-opacity: 0.3"/>
    </g>
   </g>
   <g id="PolyCollection_8">
    <defs>
     <path id="m119a9e6dfe" d="M 118.360685 -111.117268 
L 118.360685 -41.96 
L 147.631551 -41.96 
L 147.631551 -111.117268 
L 147.631551 -111.117268 
L 118.360685 -111.117268 
z
" style="stroke: #ff0000; stroke-opacity: 0.4"/>
    </defs>
    <g clip-path="url(#pee2b7bc2ca)">
     <use xlink:href="#m119a9e6dfe" x="0" y="504" style="fill: #ff0000; fill-opacity: 0.4; stroke: #ff0000; stroke-opacity: 0.4"/>
    </g>
   </g>
   <g id="matplotlib.axis_7">
    <g id="xtick_13">
     <g id="line2d_30">
      <g>
       <use xlink:href="#m2fdc26a0ad" x="58.246613" y="462.04" style="stroke: #000000; stroke-width: 0.8"/>
      </g>
     </g>
     <g id="text_34">
      <!-- −0.5 -->
      <g transform="translate(46.105207 476.638438) scale(0.1 -0.1)">
       <use xlink:href="#DejaVuSans-2212"/>
       <use xlink:href="#DejaVuSans-30" x="83.789062"/>
       <use xlink:href="#DejaVuSans-2e" x="147.412109"/>
       <use xlink:href="#DejaVuSans-35" x="179.199219"/>
      </g>
     </g>
    </g>
    <g id="xtick_14">
     <g id="line2d_31">
      <g>
       <use xlink:href="#m2fdc26a0ad" x="120.537867" y="462.04" style="stroke: #000000; stroke-width: 0.8"/>
      </g>
     </g>
     <g id="text_35">
      <!-- 0.0 -->
      <g transform="translate(112.586305 476.638438) scale(0.1 -0.1)">
       <use xlink:href="#DejaVuSans-30"/>
       <use xlink:href="#DejaVuSans-2e" x="63.623047"/>
       <use xlink:href="#DejaVuSans-30" x="95.410156"/>
      </g>
     </g>
    </g>
    <g id="xtick_15">
     <g id="line2d_32">
      <g>
       <use xlink:href="#m2fdc26a0ad" x="182.829122" y="462.04" style="stroke: #000000; stroke-width: 0.8"/>
      </g>
     </g>
     <g id="text_36">
      <!-- 0.5 -->
      <g transform="translate(174.877559 476.638438) scale(0.1 -0.1)">
       <use xlink:href="#DejaVuSans-30"/>
       <use xlink:href="#DejaVuSans-2e" x="63.623047"/>
       <use xlink:href="#DejaVuSans-35" x="95.410156"/>
      </g>
     </g>
    </g>
    <g id="text_37">
     <!-- Best Fit Lambda -->
     <g transform="translate(92.750806 490.316563) scale(0.1 -0.1)">
      <defs>
       <path id="DejaVuSans-4c" d="M 628 4666 
L 1259 4666 
L 1259 531 
L 3531 531 
L 3531 0 
L 628 0 
L 628 4666 
z
" transform="scale(0.015625)"/>
       <path id="DejaVuSans-62" d="M 3116 1747 
Q 3116 2381 2855 2742 
Q 2594 3103 2138 3103 
Q 1681 3103 1420 2742 
Q 1159 2381 1159 1747 
Q 1159 1113 1420 752 
Q 1681 391 2138 391 
Q 2594 391 2855 752 
Q 3116 1113 3116 1747 
z
M 1159 2969 
Q 1341 3281 1617 3432 
Q 1894 3584 2278 3584 
Q 2916 3584 3314 3078 
Q 3713 2572 3713 1747 
Q 3713 922 3314 415 
Q 2916 -91 2278 -91 
Q 1894 -91 1617 61 
Q 1341 213 1159 525 
L 1159 0 
L 581 0 
L 581 4863 
L 1159 4863 
L 1159 2969 
z
" transform="scale(0.015625)"/>
      </defs>
      <use xlink:href="#DejaVuSans-42"/>
      <use xlink:href="#DejaVuSans-65" x="68.603516"/>
      <use xlink:href="#DejaVuSans-73" x="130.126953"/>
      <use xlink:href="#DejaVuSans-74" x="182.226562"/>
      <use xlink:href="#DejaVuSans-20" x="221.435547"/>
      <use xlink:href="#DejaVuSans-46" x="253.222656"/>
      <use xlink:href="#DejaVuSans-69" x="303.492188"/>
      <use xlink:href="#DejaVuSans-74" x="331.275391"/>
      <use xlink:href="#DejaVuSans-20" x="370.484375"/>
      <use xlink:href="#DejaVuSans-4c" x="402.271484"/>
      <use xlink:href="#DejaVuSans-61" x="457.984375"/>
      <use xlink:href="#DejaVuSans-6d" x="519.263672"/>
      <use xlink:href="#DejaVuSans-62" x="616.675781"/>
      <use xlink:href="#DejaVuSans-64" x="680.152344"/>
      <use xlink:href="#DejaVuSans-61" x="743.628906"/>
     </g>
    </g>
   </g>
   <g id="matplotlib.axis_8">
    <g id="ytick_9">
     <g id="line2d_33">
      <g>
       <use xlink:href="#mbfec3ddbe3" x="36.97" y="462.04" style="stroke: #000000; stroke-width: 0.8"/>
      </g>
     </g>
     <g id="text_38">
      <!-- 0 -->
      <g transform="translate(23.6075 465.839219) scale(0.1 -0.1)">
       <use xlink:href="#DejaVuSans-30"/>
      </g>
     </g>
    </g>
    <g id="ytick_10">
     <g id="line2d_34">
      <g>
       <use xlink:href="#mbfec3ddbe3" x="36.97" y="419.819446" style="stroke: #000000; stroke-width: 0.8"/>
      </g>
     </g>
     <g id="text_39">
      <!-- 200 -->
      <g transform="translate(10.8825 423.618664) scale(0.1 -0.1)">
       <use xlink:href="#DejaVuSans-32"/>
       <use xlink:href="#DejaVuSans-30" x="63.623047"/>
       <use xlink:href="#DejaVuSans-30" x="127.246094"/>
      </g>
     </g>
    </g>
   </g>
   <g id="LineCollection_13">
    <path d="M 123.614809 451.484861 
L 151.81678 451.484861 
" clip-path="url(#pee2b7bc2ca)" style="fill: none; stroke: #000080; stroke-width: 1.5"/>
   </g>
   <g id="LineCollection_14">
    <path d="M 132.797796 462.04 
L 132.797796 389.71619 
" clip-path="url(#pee2b7bc2ca)" style="fill: none; stroke-dasharray: 5.55,2.4; stroke-dashoffset: 0; stroke: #008000; stroke-width: 1.5"/>
   </g>
   <g id="LineCollection_15">
    <path d="M 132.996118 462.04 
L 132.996118 392.882732 
" clip-path="url(#pee2b7bc2ca)" style="fill: none; stroke: #ff0000; stroke-width: 1.5"/>
   </g>
   <g id="line2d_35">
    <g clip-path="url(#pee2b7bc2ca)">
     <use xlink:href="#m443876da0f" x="137.715794" y="451.484861" style="fill: #000080; stroke: #000080"/>
    </g>
   </g>
   <g id="patch_67">
    <path d="M 36.97 462.04 
L 36.97 386.1 
" style="fill: none; stroke: #000000; stroke-width: 0.8; stroke-linejoin: miter; stroke-linecap: square"/>
   </g>
   <g id="patch_68">
    <path d="M 229.022236 462.04 
L 229.022236 386.1 
" style="fill: none; stroke: #000000; stroke-width: 0.8; stroke-linejoin: miter; stroke-linecap: square"/>
   </g>
   <g id="patch_69">
    <path d="M 36.97 462.04 
L 229.022236 462.04 
" style="fill: none; stroke: #000000; stroke-width: 0.8; stroke-linejoin: miter; stroke-linecap: square"/>
   </g>
   <g id="patch_70">
    <path d="M 36.97 386.1 
L 229.022236 386.1 
" style="fill: none; stroke: #000000; stroke-width: 0.8; stroke-linejoin: miter; stroke-linecap: square"/>
   </g>
   <g id="legend_4">
    <g id="patch_71">
     <path d="M 236.022236 458.795156 
L 407.922236 458.795156 
Q 409.922236 458.795156 409.922236 456.795156 
L 409.922236 391.344844 
Q 409.922236 389.344844 407.922236 389.344844 
L 236.022236 389.344844 
Q 234.022236 389.344844 234.022236 391.344844 
L 234.022236 456.795156 
Q 234.022236 458.795156 236.022236 458.795156 
z
" style="fill: #ffffff; opacity: 0.8; stroke: #cccccc; stroke-linejoin: miter"/>
    </g>
    <g id="patch_72">
     <path d="M 238.022236 407.582031 
L 258.022236 407.582031 
L 258.022236 400.582031 
L 238.022236 400.582031 
z
" style="fill: #008000; fill-opacity: 0.3; stroke: #008000; stroke-opacity: 0.3; stroke-linejoin: miter"/>
    </g>
    <g id="text_40">
     <!-- Nuisance:  -->
     <g transform="translate(266.022236 400.943281) scale(0.1 -0.1)">
      <use xlink:href="#DejaVuSans-4e"/>
      <use xlink:href="#DejaVuSans-75" x="74.804688"/>
      <use xlink:href="#DejaVuSans-69" x="138.183594"/>
      <use xlink:href="#DejaVuSans-73" x="165.966797"/>
      <use xlink:href="#DejaVuSans-61" x="218.066406"/>
      <use xlink:href="#DejaVuSans-6e" x="279.345703"/>
      <use xlink:href="#DejaVuSans-63" x="342.724609"/>
      <use xlink:href="#DejaVuSans-65" x="397.705078"/>
      <use xlink:href="#DejaVuSans-3a" x="459.228516"/>
      <use xlink:href="#DejaVuSans-20" x="492.919922"/>
     </g>
     <!-- 1$\sigma$ (0.0984 $\pm$ 0.117): 79.2% -->
     <g transform="translate(266.022236 412.141094) scale(0.1 -0.1)">
      <use xlink:href="#DejaVuSans-31" transform="translate(0 0.125)"/>
      <use xlink:href="#DejaVuSans-Oblique-3c3" transform="translate(63.623047 0.125)"/>
      <use xlink:href="#DejaVuSans-20" transform="translate(127.001953 0.125)"/>
      <use xlink:href="#DejaVuSans-28" transform="translate(158.789062 0.125)"/>
      <use xlink:href="#DejaVuSans-30" transform="translate(197.802734 0.125)"/>
      <use xlink:href="#DejaVuSans-2e" transform="translate(261.425781 0.125)"/>
      <use xlink:href="#DejaVuSans-30" transform="translate(293.212891 0.125)"/>
      <use xlink:href="#DejaVuSans-39" transform="translate(356.835938 0.125)"/>
      <use xlink:href="#DejaVuSans-38" transform="translate(420.458984 0.125)"/>
      <use xlink:href="#DejaVuSans-34" transform="translate(484.082031 0.125)"/>
      <use xlink:href="#DejaVuSans-20" transform="translate(547.705078 0.125)"/>
      <use xlink:href="#DejaVuSans-b1" transform="translate(579.492188 0.125)"/>
      <use xlink:href="#DejaVuSans-20" transform="translate(663.28125 0.125)"/>
      <use xlink:href="#DejaVuSans-30" transform="translate(695.068359 0.125)"/>
      <use xlink:href="#DejaVuSans-2e" transform="translate(758.691406 0.125)"/>
      <use xlink:href="#DejaVuSans-31" transform="translate(790.478516 0.125)"/>
      <use xlink:href="#DejaVuSans-31" transform="translate(854.101562 0.125)"/>
      <use xlink:href="#DejaVuSans-37" transform="translate(917.724609 0.125)"/>
      <use xlink:href="#DejaVuSans-29" transform="translate(981.347656 0.125)"/>
      <use xlink:href="#DejaVuSans-3a" transform="translate(1020.361328 0.125)"/>
      <use xlink:href="#DejaVuSans-20" transform="translate(1054.052734 0.125)"/>
      <use xlink:href="#DejaVuSans-37" transform="translate(1085.839844 0.125)"/>
      <use xlink:href="#DejaVuSans-39" transform="translate(1149.462891 0.125)"/>
      <use xlink:href="#DejaVuSans-2e" transform="translate(1213.085938 0.125)"/>
      <use xlink:href="#DejaVuSans-32" transform="translate(1239.373047 0.125)"/>
      <use xlink:href="#DejaVuSans-25" transform="translate(1302.996094 0.125)"/>
     </g>
    </g>
    <g id="patch_73">
     <path d="M 238.022236 433.457969 
L 258.022236 433.457969 
L 258.022236 426.457969 
L 238.022236 426.457969 
z
" style="fill: #ff0000; fill-opacity: 0.4; stroke: #ff0000; stroke-opacity: 0.4; stroke-linejoin: miter"/>
    </g>
    <g id="text_41">
     <!-- Standard:  -->
     <g transform="translate(266.022236 426.819219) scale(0.1 -0.1)">
      <use xlink:href="#DejaVuSans-53"/>
      <use xlink:href="#DejaVuSans-74" x="63.476562"/>
      <use xlink:href="#DejaVuSans-61" x="102.685547"/>
      <use xlink:href="#DejaVuSans-6e" x="163.964844"/>
      <use xlink:href="#DejaVuSans-64" x="227.34375"/>
      <use xlink:href="#DejaVuSans-61" x="290.820312"/>
      <use xlink:href="#DejaVuSans-72" x="352.099609"/>
      <use xlink:href="#DejaVuSans-64" x="391.462891"/>
      <use xlink:href="#DejaVuSans-3a" x="454.939453"/>
      <use xlink:href="#DejaVuSans-20" x="488.630859"/>
     </g>
     <!-- 1$\sigma$ (0.1 $\pm$ 0.117): 79.0% -->
     <g transform="translate(266.022236 438.017031) scale(0.1 -0.1)">
      <use xlink:href="#DejaVuSans-31" transform="translate(0 0.125)"/>
      <use xlink:href="#DejaVuSans-Oblique-3c3" transform="translate(63.623047 0.125)"/>
      <use xlink:href="#DejaVuSans-20" transform="translate(127.001953 0.125)"/>
      <use xlink:href="#DejaVuSans-28" transform="translate(158.789062 0.125)"/>
      <use xlink:href="#DejaVuSans-30" transform="translate(197.802734 0.125)"/>
      <use xlink:href="#DejaVuSans-2e" transform="translate(261.425781 0.125)"/>
      <use xlink:href="#DejaVuSans-31" transform="translate(293.212891 0.125)"/>
      <use xlink:href="#DejaVuSans-20" transform="translate(356.835938 0.125)"/>
      <use xlink:href="#DejaVuSans-b1" transform="translate(388.623047 0.125)"/>
      <use xlink:href="#DejaVuSans-20" transform="translate(472.412109 0.125)"/>
      <use xlink:href="#DejaVuSans-30" transform="translate(504.199219 0.125)"/>
      <use xlink:href="#DejaVuSans-2e" transform="translate(567.822266 0.125)"/>
      <use xlink:href="#DejaVuSans-31" transform="translate(599.609375 0.125)"/>
      <use xlink:href="#DejaVuSans-31" transform="translate(663.232422 0.125)"/>
      <use xlink:href="#DejaVuSans-37" transform="translate(726.855469 0.125)"/>
      <use xlink:href="#DejaVuSans-29" transform="translate(790.478516 0.125)"/>
      <use xlink:href="#DejaVuSans-3a" transform="translate(829.492188 0.125)"/>
      <use xlink:href="#DejaVuSans-20" transform="translate(863.183594 0.125)"/>
      <use xlink:href="#DejaVuSans-37" transform="translate(894.970703 0.125)"/>
      <use xlink:href="#DejaVuSans-39" transform="translate(958.59375 0.125)"/>
      <use xlink:href="#DejaVuSans-2e" transform="translate(1022.216797 0.125)"/>
      <use xlink:href="#DejaVuSans-30" transform="translate(1054.003906 0.125)"/>
      <use xlink:href="#DejaVuSans-25" transform="translate(1117.626953 0.125)"/>
     </g>
    </g>
    <g id="LineCollection_16">
     <path d="M 243.022236 449.195156 
L 253.022236 449.195156 
" style="fill: none; stroke: #000080; stroke-width: 1.5"/>
    </g>
    <g id="line2d_36"/>
    <g id="line2d_37">
     <g>
      <use xlink:href="#m443876da0f" x="248.022236" y="449.195156" style="fill: #000080; stroke: #000080"/>
     </g>
    </g>
    <g id="text_42">
     <!-- $\mu$ = 0.138, $\sigma$ = 0.113 -->
     <g transform="translate(266.022236 452.695156) scale(0.1 -0.1)">
      <use xlink:href="#DejaVuSans-Oblique-3bc" transform="translate(0 0.78125)"/>
      <use xlink:href="#DejaVuSans-20" transform="translate(63.623047 0.78125)"/>
      <use xlink:href="#DejaVuSans-3d" transform="translate(95.410156 0.78125)"/>
      <use xlink:href="#DejaVuSans-20" transform="translate(179.199219 0.78125)"/>
      <use xlink:href="#DejaVuSans-30" transform="translate(210.986328 0.78125)"/>
      <use xlink:href="#DejaVuSans-2e" transform="translate(274.609375 0.78125)"/>
      <use xlink:href="#DejaVuSans-31" transform="translate(306.396484 0.78125)"/>
      <use xlink:href="#DejaVuSans-33" transform="translate(370.019531 0.78125)"/>
      <use xlink:href="#DejaVuSans-38" transform="translate(433.642578 0.78125)"/>
      <use xlink:href="#DejaVuSans-2c" transform="translate(497.265625 0.78125)"/>
      <use xlink:href="#DejaVuSans-20" transform="translate(529.052734 0.78125)"/>
      <use xlink:href="#DejaVuSans-Oblique-3c3" transform="translate(560.839844 0.78125)"/>
      <use xlink:href="#DejaVuSans-20" transform="translate(624.21875 0.78125)"/>
      <use xlink:href="#DejaVuSans-3d" transform="translate(656.005859 0.78125)"/>
      <use xlink:href="#DejaVuSans-20" transform="translate(739.794922 0.78125)"/>
      <use xlink:href="#DejaVuSans-30" transform="translate(771.582031 0.78125)"/>
      <use xlink:href="#DejaVuSans-2e" transform="translate(835.205078 0.78125)"/>
      <use xlink:href="#DejaVuSans-31" transform="translate(866.992188 0.78125)"/>
      <use xlink:href="#DejaVuSans-31" transform="translate(930.615234 0.78125)"/>
      <use xlink:href="#DejaVuSans-33" transform="translate(994.238281 0.78125)"/>
     </g>
    </g>
   </g>
  </g>
  <g id="text_43">
   <!-- Histograms using Symmetric Errors from Likelihood Scan (N = 800) -->
   <g transform="translate(13.663125 19.198125) scale(0.12 -0.12)">
    <defs>
     <path id="DejaVuSans-48" d="M 628 4666 
L 1259 4666 
L 1259 2753 
L 3553 2753 
L 3553 4666 
L 4184 4666 
L 4184 0 
L 3553 0 
L 3553 2222 
L 1259 2222 
L 1259 0 
L 628 0 
L 628 4666 
z
" transform="scale(0.015625)"/>
     <path id="DejaVuSans-67" d="M 2906 1791 
Q 2906 2416 2648 2759 
Q 2391 3103 1925 3103 
Q 1463 3103 1205 2759 
Q 947 2416 947 1791 
Q 947 1169 1205 825 
Q 1463 481 1925 481 
Q 2391 481 2648 825 
Q 2906 1169 2906 1791 
z
M 3481 434 
Q 3481 -459 3084 -895 
Q 2688 -1331 1869 -1331 
Q 1566 -1331 1297 -1286 
Q 1028 -1241 775 -1147 
L 775 -588 
Q 1028 -725 1275 -790 
Q 1522 -856 1778 -856 
Q 2344 -856 2625 -561 
Q 2906 -266 2906 331 
L 2906 616 
Q 2728 306 2450 153 
Q 2172 0 1784 0 
Q 1141 0 747 490 
Q 353 981 353 1791 
Q 353 2603 747 3093 
Q 1141 3584 1784 3584 
Q 2172 3584 2450 3431 
Q 2728 3278 2906 2969 
L 2906 3500 
L 3481 3500 
L 3481 434 
z
" transform="scale(0.015625)"/>
     <path id="DejaVuSans-79" d="M 2059 -325 
Q 1816 -950 1584 -1140 
Q 1353 -1331 966 -1331 
L 506 -1331 
L 506 -850 
L 844 -850 
Q 1081 -850 1212 -737 
Q 1344 -625 1503 -206 
L 1606 56 
L 191 3500 
L 800 3500 
L 1894 763 
L 2988 3500 
L 3597 3500 
L 2059 -325 
z
" transform="scale(0.015625)"/>
     <path id="DejaVuSans-45" d="M 628 4666 
L 3578 4666 
L 3578 4134 
L 1259 4134 
L 1259 2753 
L 3481 2753 
L 3481 2222 
L 1259 2222 
L 1259 531 
L 3634 531 
L 3634 0 
L 628 0 
L 628 4666 
z
" transform="scale(0.015625)"/>
     <path id="DejaVuSans-66" d="M 2375 4863 
L 2375 4384 
L 1825 4384 
Q 1516 4384 1395 4259 
Q 1275 4134 1275 3809 
L 1275 3500 
L 2222 3500 
L 2222 3053 
L 1275 3053 
L 1275 0 
L 697 0 
L 697 3053 
L 147 3053 
L 147 3500 
L 697 3500 
L 697 3744 
Q 697 4328 969 4595 
Q 1241 4863 1831 4863 
L 2375 4863 
z
" transform="scale(0.015625)"/>
     <path id="DejaVuSans-6b" d="M 581 4863 
L 1159 4863 
L 1159 1991 
L 2875 3500 
L 3609 3500 
L 1753 1863 
L 3688 0 
L 2938 0 
L 1159 1709 
L 1159 0 
L 581 0 
L 581 4863 
z
" transform="scale(0.015625)"/>
     <path id="DejaVuSans-68" d="M 3513 2113 
L 3513 0 
L 2938 0 
L 2938 2094 
Q 2938 2591 2744 2837 
Q 2550 3084 2163 3084 
Q 1697 3084 1428 2787 
Q 1159 2491 1159 1978 
L 1159 0 
L 581 0 
L 581 4863 
L 1159 4863 
L 1159 2956 
Q 1366 3272 1645 3428 
Q 1925 3584 2291 3584 
Q 2894 3584 3203 3211 
Q 3513 2838 3513 2113 
z
" transform="scale(0.015625)"/>
    </defs>
    <use xlink:href="#DejaVuSans-48"/>
    <use xlink:href="#DejaVuSans-69" x="75.195312"/>
    <use xlink:href="#DejaVuSans-73" x="102.978516"/>
    <use xlink:href="#DejaVuSans-74" x="155.078125"/>
    <use xlink:href="#DejaVuSans-6f" x="194.287109"/>
    <use xlink:href="#DejaVuSans-67" x="255.46875"/>
    <use xlink:href="#DejaVuSans-72" x="318.945312"/>
    <use xlink:href="#DejaVuSans-61" x="360.058594"/>
    <use xlink:href="#DejaVuSans-6d" x="421.337891"/>
    <use xlink:href="#DejaVuSans-73" x="518.75"/>
    <use xlink:href="#DejaVuSans-20" x="570.849609"/>
    <use xlink:href="#DejaVuSans-75" x="602.636719"/>
    <use xlink:href="#DejaVuSans-73" x="666.015625"/>
    <use xlink:href="#DejaVuSans-69" x="718.115234"/>
    <use xlink:href="#DejaVuSans-6e" x="745.898438"/>
    <use xlink:href="#DejaVuSans-67" x="809.277344"/>
    <use xlink:href="#DejaVuSans-20" x="872.753906"/>
    <use xlink:href="#DejaVuSans-53" x="904.541016"/>
    <use xlink:href="#DejaVuSans-79" x="968.017578"/>
    <use xlink:href="#DejaVuSans-6d" x="1027.197266"/>
    <use xlink:href="#DejaVuSans-6d" x="1124.609375"/>
    <use xlink:href="#DejaVuSans-65" x="1222.021484"/>
    <use xlink:href="#DejaVuSans-74" x="1283.544922"/>
    <use xlink:href="#DejaVuSans-72" x="1322.753906"/>
    <use xlink:href="#DejaVuSans-69" x="1363.867188"/>
    <use xlink:href="#DejaVuSans-63" x="1391.650391"/>
    <use xlink:href="#DejaVuSans-20" x="1446.630859"/>
    <use xlink:href="#DejaVuSans-45" x="1478.417969"/>
    <use xlink:href="#DejaVuSans-72" x="1541.601562"/>
    <use xlink:href="#DejaVuSans-72" x="1580.964844"/>
    <use xlink:href="#DejaVuSans-6f" x="1619.828125"/>
    <use xlink:href="#DejaVuSans-72" x="1681.009766"/>
    <use xlink:href="#DejaVuSans-73" x="1722.123047"/>
    <use xlink:href="#DejaVuSans-20" x="1774.222656"/>
    <use xlink:href="#DejaVuSans-66" x="1806.009766"/>
    <use xlink:href="#DejaVuSans-72" x="1841.214844"/>
    <use xlink:href="#DejaVuSans-6f" x="1880.078125"/>
    <use xlink:href="#DejaVuSans-6d" x="1941.259766"/>
    <use xlink:href="#DejaVuSans-20" x="2038.671875"/>
    <use xlink:href="#DejaVuSans-4c" x="2070.458984"/>
    <use xlink:href="#DejaVuSans-69" x="2126.171875"/>
    <use xlink:href="#DejaVuSans-6b" x="2153.955078"/>
    <use xlink:href="#DejaVuSans-65" x="2208.240234"/>
    <use xlink:href="#DejaVuSans-6c" x="2269.763672"/>
    <use xlink:href="#DejaVuSans-69" x="2297.546875"/>
    <use xlink:href="#DejaVuSans-68" x="2325.330078"/>
    <use xlink:href="#DejaVuSans-6f" x="2388.708984"/>
    <use xlink:href="#DejaVuSans-6f" x="2449.890625"/>
    <use xlink:href="#DejaVuSans-64" x="2511.072266"/>
    <use xlink:href="#DejaVuSans-20" x="2574.548828"/>
    <use xlink:href="#DejaVuSans-53" x="2606.335938"/>
    <use xlink:href="#DejaVuSans-63" x="2669.8125"/>
    <use xlink:href="#DejaVuSans-61" x="2724.792969"/>
    <use xlink:href="#DejaVuSans-6e" x="2786.072266"/>
    <use xlink:href="#DejaVuSans-20" x="2849.451172"/>
    <use xlink:href="#DejaVuSans-28" x="2881.238281"/>
    <use xlink:href="#DejaVuSans-4e" x="2920.251953"/>
    <use xlink:href="#DejaVuSans-20" x="2995.056641"/>
    <use xlink:href="#DejaVuSans-3d" x="3026.84375"/>
    <use xlink:href="#DejaVuSans-20" x="3110.632812"/>
    <use xlink:href="#DejaVuSans-38" x="3142.419922"/>
    <use xlink:href="#DejaVuSans-30" x="3206.042969"/>
    <use xlink:href="#DejaVuSans-30" x="3269.666016"/>
    <use xlink:href="#DejaVuSans-29" x="3333.289062"/>
   </g>
  </g>
 </g>
 <defs>
  <clipPath id="pefaac67342">
   <rect x="36.97" y="32.4" width="192.052236" height="75.94"/>
  </clipPath>
  <clipPath id="pce0e6eaf19">
   <rect x="36.97" y="150.3" width="192.052236" height="75.94"/>
  </clipPath>
  <clipPath id="pc7f61327b3">
   <rect x="36.97" y="268.2" width="192.052236" height="75.94"/>
  </clipPath>
  <clipPath id="pee2b7bc2ca">
   <rect x="36.97" y="386.1" width="192.052236" height="75.94"/>
  </clipPath>
 </defs>
</svg>
