<?xml version="1.0" encoding="utf-8" standalone="no"?>
<!DOCTYPE svg PUBLIC "-//W3C//DTD SVG 1.1//EN"
  "http://www.w3.org/Graphics/SVG/1.1/DTD/svg11.dtd">
<svg xmlns:xlink="http://www.w3.org/1999/xlink" width="360pt" height="360pt" viewBox="0 0 360 360" xmlns="http://www.w3.org/2000/svg" version="1.1">
 <metadata>
  <rdf:RDF xmlns:dc="http://purl.org/dc/elements/1.1/" xmlns:cc="http://creativecommons.org/ns#" xmlns:rdf="http://www.w3.org/1999/02/22-rdf-syntax-ns#">
   <cc:Work>
    <dc:type rdf:resource="http://purl.org/dc/dcmitype/StillImage"/>
    <dc:date>2023-03-22T14:53:42.520103</dc:date>
    <dc:format>image/svg+xml</dc:format>
    <dc:creator>
     <cc:Agent>
      <dc:title>Matplotlib v3.6.2, https://matplotlib.org/</dc:title>
     </cc:Agent>
    </dc:creator>
   </cc:Work>
  </rdf:RDF>
 </metadata>
 <defs>
  <style type="text/css">*{stroke-linejoin: round; stroke-linecap: butt}</style>
 </defs>
 <g id="figure_1">
  <g id="patch_1">
   <path d="M 0 360 
L 360 360 
L 360 0 
L 0 0 
z
" style="fill: #ffffff"/>
  </g>
  <g id="axes_1">
   <g id="patch_2">
    <path d="M 60.468889 190.4328 
L 349.2 190.4328 
L 349.2 25.44 
L 60.468889 25.44 
z
" style="fill: #ffffff"/>
   </g>
   <g id="PolyCollection_1">
    <path d="M 74.892487 33.063718 
L 74.892487 39.410323 
L 77.491401 39.498043 
L 80.090314 39.59199 
L 82.689228 39.692346 
L 85.288141 39.799317 
L 87.887054 39.913139 
L 90.485968 40.034079 
L 93.084881 40.162436 
L 95.683795 40.29855 
L 98.282708 40.4428 
L 100.881621 40.595607 
L 103.480535 40.757441 
L 106.079448 40.928815 
L 108.678361 41.110288 
L 111.277275 41.302456 
L 113.876188 41.505945 
L 116.475102 41.721392 
L 119.074015 41.94942 
L 121.672928 42.190612 
L 124.271842 42.445472 
L 126.870755 42.714391 
L 129.469668 42.997612 
L 132.068582 43.295209 
L 134.667495 43.607082 
L 137.266409 43.932968 
L 139.865322 44.272469 
L 142.464235 44.625093 
L 145.063149 44.990298 
L 147.662062 45.367535 
L 150.260976 45.756288 
L 152.859889 46.156102 
L 155.458802 46.566604 
L 158.057716 46.987521 
L 160.656629 47.418683 
L 163.255542 47.860034 
L 165.854456 48.311635 
L 168.453369 48.773664 
L 171.052283 49.24642 
L 173.651196 49.730329 
L 176.250109 50.225949 
L 178.849023 50.733974 
L 181.447936 51.255243 
L 184.04685 51.790754 
L 186.645763 52.341665 
L 189.244676 52.909315 
L 191.84359 53.495228 
L 194.442503 54.101126 
L 197.041416 54.728937 
L 199.64033 55.380804 
L 202.239243 56.059092 
L 204.838157 56.766386 
L 207.43707 57.505494 
L 210.035983 58.279448 
L 212.634897 59.091506 
L 215.23381 59.945147 
L 217.832724 60.844088 
L 220.431637 61.792297 
L 223.03055 62.794023 
L 225.629464 63.853839 
L 228.228377 64.976708 
L 230.82729 66.168069 
L 233.426204 67.433952 
L 236.025117 68.781131 
L 238.624031 70.217319 
L 241.222944 71.751432 
L 243.821857 73.393938 
L 246.420771 75.157342 
L 249.019684 77.056854 
L 251.618597 79.111369 
L 254.217511 81.344922 
L 256.816424 83.788952 
L 259.415338 86.485973 
L 262.014251 89.495893 
L 264.613164 92.907616 
L 267.212078 96.862406 
L 269.810991 101.606983 
L 272.409905 107.637944 
L 275.008818 116.230817 
L 277.607731 133.241182 
L 280.206645 32752.877117 
L 282.805558 32752.877117 
L 285.404471 32752.877117 
L 288.003385 32752.877117 
L 290.602298 32752.877117 
L 293.201212 32752.877117 
L 295.800125 32752.877117 
L 298.399038 32752.877117 
L 300.997952 32752.877117 
L 303.596865 32752.877117 
L 306.195779 32752.877117 
L 308.794692 32752.877117 
L 311.393605 32752.877117 
L 313.992519 32752.877117 
L 316.591432 32752.877117 
L 319.190345 32752.877117 
L 321.789259 32752.877117 
L 324.388172 32752.877117 
L 326.987086 32752.877117 
L 329.585999 32752.877117 
L 332.184912 32752.877117 
L 332.184912 125.506544 
L 332.184912 125.506544 
L 329.585999 121.582375 
L 326.987086 117.861242 
L 324.388172 114.332941 
L 321.789259 110.987726 
L 319.190345 107.816292 
L 316.591432 104.809753 
L 313.992519 101.959618 
L 311.393605 99.257774 
L 308.794692 96.69647 
L 306.195779 94.268293 
L 303.596865 91.96616 
L 300.997952 89.783296 
L 298.399038 87.713222 
L 295.800125 85.74974 
L 293.201212 83.886923 
L 290.602298 82.119101 
L 288.003385 80.440846 
L 285.404471 78.846969 
L 282.805558 77.332503 
L 280.206645 75.892699 
L 277.607731 74.523012 
L 275.008818 73.219098 
L 272.409905 71.976804 
L 269.810991 70.792162 
L 267.212078 69.661383 
L 264.613164 68.580851 
L 262.014251 67.547116 
L 259.415338 66.556896 
L 256.816424 65.607067 
L 254.217511 64.694661 
L 251.618597 63.81687 
L 249.019684 62.971037 
L 246.420771 62.154663 
L 243.821857 61.365401 
L 241.222944 60.601067 
L 238.624031 59.859637 
L 236.025117 59.139253 
L 233.426204 58.438231 
L 230.82729 57.755064 
L 228.228377 57.088427 
L 225.629464 56.437183 
L 223.03055 55.800384 
L 220.431637 55.177267 
L 217.832724 54.56725 
L 215.23381 53.969918 
L 212.634897 53.385005 
L 210.035983 52.812376 
L 207.43707 52.251995 
L 204.838157 51.703901 
L 202.239243 51.16818 
L 199.64033 50.644933 
L 197.041416 50.134259 
L 194.442503 49.636229 
L 191.84359 49.150874 
L 189.244676 48.678173 
L 186.645763 48.218046 
L 184.04685 47.77035 
L 181.447936 47.334879 
L 178.849023 46.911362 
L 176.250109 46.499467 
L 173.651196 46.098799 
L 171.052283 45.708908 
L 168.453369 45.329281 
L 165.854456 44.959349 
L 163.255542 44.598485 
L 160.656629 44.246 
L 158.057716 43.901146 
L 155.458802 43.563108 
L 152.859889 43.23101 
L 150.260976 42.903913 
L 147.662062 42.580822 
L 145.063149 42.260697 
L 142.464235 41.942472 
L 139.865322 41.625083 
L 137.266409 41.307503 
L 134.667495 40.988781 
L 132.068582 40.66809 
L 129.469668 40.34476 
L 126.870755 40.018311 
L 124.271842 39.688456 
L 121.672928 39.355098 
L 119.074015 39.018308 
L 116.475102 38.678288 
L 113.876188 38.335336 
L 111.277275 37.989808 
L 108.678361 37.642088 
L 106.079448 37.292563 
L 103.480535 36.941607 
L 100.881621 36.589568 
L 98.282708 36.236763 
L 95.683795 35.883476 
L 93.084881 35.529955 
L 90.485968 35.17642 
L 87.887054 34.823058 
L 85.288141 34.470031 
L 82.689228 34.117475 
L 80.090314 33.765509 
L 77.491401 33.414229 
L 74.892487 33.063718 
z
" clip-path="url(#pcf58deebe5)" style="fill: #ff0000; fill-opacity: 0.5"/>
   </g>
   <g id="PolyCollection_2">
    <path d="M 74.892487 32.939673 
L 74.892487 39.236096 
L 77.491401 39.397859 
L 80.090314 39.564289 
L 82.689228 39.735542 
L 85.288141 39.911784 
L 87.887054 40.093188 
L 90.485968 40.279934 
L 93.084881 40.472209 
L 95.683795 40.670209 
L 98.282708 40.874135 
L 100.881621 41.084193 
L 103.480535 41.300596 
L 106.079448 41.523559 
L 108.678361 41.7533 
L 111.277275 41.990039 
L 113.876188 42.233997 
L 116.475102 42.485393 
L 119.074015 42.744445 
L 121.672928 43.011369 
L 124.271842 43.286377 
L 126.870755 43.569675 
L 129.469668 43.861469 
L 132.068582 44.16196 
L 134.667495 44.471345 
L 137.266409 44.789824 
L 139.865322 45.117593 
L 142.464235 45.454858 
L 145.063149 45.801826 
L 147.662062 46.15872 
L 150.260976 46.525775 
L 152.859889 46.903244 
L 155.458802 47.291406 
L 158.057716 47.690567 
L 160.656629 48.101067 
L 163.255542 48.523285 
L 165.854456 48.957644 
L 168.453369 49.404615 
L 171.052283 49.864724 
L 173.651196 50.338559 
L 176.250109 50.82677 
L 178.849023 51.330082 
L 181.447936 51.849295 
L 184.04685 52.385291 
L 186.645763 52.939043 
L 189.244676 53.511617 
L 191.84359 54.104181 
L 194.442503 54.718007 
L 197.041416 55.354484 
L 199.64033 56.015118 
L 202.239243 56.701543 
L 204.838157 57.415525 
L 207.43707 58.158975 
L 210.035983 58.933949 
L 212.634897 59.742667 
L 215.23381 60.587518 
L 217.832724 61.471078 
L 220.431637 62.396126 
L 223.03055 63.36566 
L 225.629464 64.38293 
L 228.228377 65.451465 
L 230.82729 66.575112 
L 233.426204 67.758087 
L 236.025117 69.005038 
L 238.624031 70.32112 
L 241.222944 71.712094 
L 243.821857 73.18446 
L 246.420771 74.745617 
L 249.019684 76.404081 
L 251.618597 78.169781 
L 254.217511 80.054455 
L 256.816424 82.072203 
L 259.415338 84.240286 
L 262.014251 86.580294 
L 264.613164 89.11993 
L 267.212078 91.895838 
L 269.810991 94.958324 
L 272.409905 98.379703 
L 275.008818 102.270292 
L 277.607731 106.812323 
L 280.206645 112.343124 
L 282.805558 119.610201 
L 285.404471 130.952136 
L 288.003385 182.933127 
L 290.602298 32752.877117 
L 293.201212 32752.877117 
L 295.800125 32752.877117 
L 298.399038 32752.877117 
L 300.997952 32752.877117 
L 303.596865 32752.877117 
L 306.195779 32752.877117 
L 308.794692 32752.877117 
L 311.393605 32752.877117 
L 313.992519 32752.877117 
L 316.591432 32752.877117 
L 319.190345 32752.877117 
L 321.789259 32752.877117 
L 324.388172 32752.877117 
L 326.987086 32752.877117 
L 329.585999 32752.877117 
L 332.184912 32752.877117 
L 332.184912 127.898405 
L 332.184912 127.898405 
L 329.585999 123.959945 
L 326.987086 120.218939 
L 324.388172 116.665352 
L 321.789259 113.289612 
L 319.190345 110.08259 
L 316.591432 107.035578 
L 313.992519 104.140271 
L 311.393605 101.388745 
L 308.794692 98.773445 
L 306.195779 96.287164 
L 303.596865 93.923031 
L 300.997952 91.674495 
L 298.399038 89.535309 
L 295.800125 87.49952 
L 293.201212 85.561455 
L 290.602298 83.715709 
L 288.003385 81.957138 
L 285.404471 80.28084 
L 282.805558 78.682155 
L 280.206645 77.156649 
L 277.607731 75.700106 
L 275.008818 74.308524 
L 272.409905 72.978102 
L 269.810991 71.705237 
L 267.212078 70.486511 
L 264.613164 69.318692 
L 262.014251 68.198724 
L 259.415338 67.123718 
L 256.816424 66.090953 
L 254.217511 65.097867 
L 251.618597 64.142051 
L 249.019684 63.221248 
L 246.420771 62.333343 
L 243.821857 61.476365 
L 241.222944 60.648476 
L 238.624031 59.847971 
L 236.025117 59.073271 
L 233.426204 58.322918 
L 230.82729 57.595571 
L 228.228377 56.889998 
L 225.629464 56.205073 
L 223.03055 55.539764 
L 220.431637 54.893133 
L 217.832724 54.264321 
L 215.23381 53.652546 
L 212.634897 53.05709 
L 210.035983 52.477296 
L 207.43707 51.912554 
L 204.838157 51.362298 
L 202.239243 50.825995 
L 199.64033 50.303142 
L 197.041416 49.793254 
L 194.442503 49.295865 
L 191.84359 48.810517 
L 189.244676 48.336761 
L 186.645763 47.874152 
L 184.04685 47.422244 
L 181.447936 46.980592 
L 178.849023 46.54875 
L 176.250109 46.126268 
L 173.651196 45.712695 
L 171.052283 45.307574 
L 168.453369 44.910451 
L 165.854456 44.520868 
L 163.255542 44.138368 
L 160.656629 43.762496 
L 158.057716 43.3928 
L 155.458802 43.028834 
L 152.859889 42.67016 
L 150.260976 42.316348 
L 147.662062 41.966981 
L 145.063149 41.621658 
L 142.464235 41.279991 
L 139.865322 40.941615 
L 137.266409 40.606183 
L 134.667495 40.273372 
L 132.068582 39.942882 
L 129.469668 39.61444 
L 126.870755 39.287797 
L 124.271842 38.96273 
L 121.672928 38.639042 
L 119.074015 38.316561 
L 116.475102 37.995138 
L 113.876188 37.674647 
L 111.277275 37.354981 
L 108.678361 37.036053 
L 106.079448 36.717792 
L 103.480535 36.400141 
L 100.881621 36.083059 
L 98.282708 35.766511 
L 95.683795 35.450475 
L 93.084881 35.134934 
L 90.485968 34.819879 
L 87.887054 34.505305 
L 85.288141 34.191209 
L 82.689228 33.877595 
L 80.090314 33.564464 
L 77.491401 33.251821 
L 74.892487 32.939673 
z
" clip-path="url(#pcf58deebe5)" style="fill: #008000; fill-opacity: 0.5"/>
   </g>
   <g id="matplotlib.axis_1">
    <g id="xtick_1">
     <g id="line2d_1">
      <defs>
       <path id="m8ae2016f8c" d="M 0 0 
L 0 3.5 
" style="stroke: #000000; stroke-width: 0.8"/>
      </defs>
      <g>
       <use xlink:href="#m8ae2016f8c" x="111.812345" y="190.4328" style="stroke: #000000; stroke-width: 0.8"/>
      </g>
     </g>
    </g>
    <g id="xtick_2">
     <g id="line2d_2">
      <g>
       <use xlink:href="#m8ae2016f8c" x="234.114151" y="190.4328" style="stroke: #000000; stroke-width: 0.8"/>
      </g>
     </g>
    </g>
    <g id="xtick_3">
     <g id="line2d_3">
      <defs>
       <path id="md86136069f" d="M 0 0 
L 0 2 
" style="stroke: #000000; stroke-width: 0.6"/>
      </defs>
      <g>
       <use xlink:href="#md86136069f" x="63.143563" y="190.4328" style="stroke: #000000; stroke-width: 0.6"/>
      </g>
     </g>
    </g>
    <g id="xtick_4">
     <g id="line2d_4">
      <g>
       <use xlink:href="#md86136069f" x="74.995833" y="190.4328" style="stroke: #000000; stroke-width: 0.6"/>
      </g>
     </g>
    </g>
    <g id="xtick_5">
     <g id="line2d_5">
      <g>
       <use xlink:href="#md86136069f" x="84.679842" y="190.4328" style="stroke: #000000; stroke-width: 0.6"/>
      </g>
     </g>
    </g>
    <g id="xtick_6">
     <g id="line2d_6">
      <g>
       <use xlink:href="#md86136069f" x="92.867556" y="190.4328" style="stroke: #000000; stroke-width: 0.6"/>
      </g>
     </g>
    </g>
    <g id="xtick_7">
     <g id="line2d_7">
      <g>
       <use xlink:href="#md86136069f" x="99.960076" y="190.4328" style="stroke: #000000; stroke-width: 0.6"/>
      </g>
     </g>
    </g>
    <g id="xtick_8">
     <g id="line2d_8">
      <g>
       <use xlink:href="#md86136069f" x="106.216121" y="190.4328" style="stroke: #000000; stroke-width: 0.6"/>
      </g>
     </g>
    </g>
    <g id="xtick_9">
     <g id="line2d_9">
      <g>
       <use xlink:href="#md86136069f" x="148.628857" y="190.4328" style="stroke: #000000; stroke-width: 0.6"/>
      </g>
     </g>
    </g>
    <g id="xtick_10">
     <g id="line2d_10">
      <g>
       <use xlink:href="#md86136069f" x="170.165136" y="190.4328" style="stroke: #000000; stroke-width: 0.6"/>
      </g>
     </g>
    </g>
    <g id="xtick_11">
     <g id="line2d_11">
      <g>
       <use xlink:href="#md86136069f" x="185.44537" y="190.4328" style="stroke: #000000; stroke-width: 0.6"/>
      </g>
     </g>
    </g>
    <g id="xtick_12">
     <g id="line2d_12">
      <g>
       <use xlink:href="#md86136069f" x="197.297639" y="190.4328" style="stroke: #000000; stroke-width: 0.6"/>
      </g>
     </g>
    </g>
    <g id="xtick_13">
     <g id="line2d_13">
      <g>
       <use xlink:href="#md86136069f" x="206.981649" y="190.4328" style="stroke: #000000; stroke-width: 0.6"/>
      </g>
     </g>
    </g>
    <g id="xtick_14">
     <g id="line2d_14">
      <g>
       <use xlink:href="#md86136069f" x="215.169362" y="190.4328" style="stroke: #000000; stroke-width: 0.6"/>
      </g>
     </g>
    </g>
    <g id="xtick_15">
     <g id="line2d_15">
      <g>
       <use xlink:href="#md86136069f" x="222.261882" y="190.4328" style="stroke: #000000; stroke-width: 0.6"/>
      </g>
     </g>
    </g>
    <g id="xtick_16">
     <g id="line2d_16">
      <g>
       <use xlink:href="#md86136069f" x="228.517928" y="190.4328" style="stroke: #000000; stroke-width: 0.6"/>
      </g>
     </g>
    </g>
    <g id="xtick_17">
     <g id="line2d_17">
      <g>
       <use xlink:href="#md86136069f" x="270.930664" y="190.4328" style="stroke: #000000; stroke-width: 0.6"/>
      </g>
     </g>
    </g>
    <g id="xtick_18">
     <g id="line2d_18">
      <g>
       <use xlink:href="#md86136069f" x="292.466943" y="190.4328" style="stroke: #000000; stroke-width: 0.6"/>
      </g>
     </g>
    </g>
    <g id="xtick_19">
     <g id="line2d_19">
      <g>
       <use xlink:href="#md86136069f" x="307.747176" y="190.4328" style="stroke: #000000; stroke-width: 0.6"/>
      </g>
     </g>
    </g>
    <g id="xtick_20">
     <g id="line2d_20">
      <g>
       <use xlink:href="#md86136069f" x="319.599446" y="190.4328" style="stroke: #000000; stroke-width: 0.6"/>
      </g>
     </g>
    </g>
    <g id="xtick_21">
     <g id="line2d_21">
      <g>
       <use xlink:href="#md86136069f" x="329.283455" y="190.4328" style="stroke: #000000; stroke-width: 0.6"/>
      </g>
     </g>
    </g>
    <g id="xtick_22">
     <g id="line2d_22">
      <g>
       <use xlink:href="#md86136069f" x="337.471168" y="190.4328" style="stroke: #000000; stroke-width: 0.6"/>
      </g>
     </g>
    </g>
    <g id="xtick_23">
     <g id="line2d_23">
      <g>
       <use xlink:href="#md86136069f" x="344.563688" y="190.4328" style="stroke: #000000; stroke-width: 0.6"/>
      </g>
     </g>
    </g>
   </g>
   <g id="matplotlib.axis_2">
    <g id="ytick_1">
     <g id="line2d_24">
      <defs>
       <path id="m2c337dca06" d="M 0 0 
L -3.5 0 
" style="stroke: #000000; stroke-width: 0.8"/>
      </defs>
      <g>
       <use xlink:href="#m2c337dca06" x="60.468889" y="170.618994" style="stroke: #000000; stroke-width: 0.8"/>
      </g>
     </g>
     <g id="text_1">
      <!-- $\mathdefault{10^{-16}}$ -->
      <g transform="translate(25.568889 174.418213) scale(0.1 -0.1)">
       <defs>
        <path id="DejaVuSans-31" d="M 794 531 
L 1825 531 
L 1825 4091 
L 703 3866 
L 703 4441 
L 1819 4666 
L 2450 4666 
L 2450 531 
L 3481 531 
L 3481 0 
L 794 0 
L 794 531 
z
" transform="scale(0.015625)"/>
        <path id="DejaVuSans-30" d="M 2034 4250 
Q 1547 4250 1301 3770 
Q 1056 3291 1056 2328 
Q 1056 1369 1301 889 
Q 1547 409 2034 409 
Q 2525 409 2770 889 
Q 3016 1369 3016 2328 
Q 3016 3291 2770 3770 
Q 2525 4250 2034 4250 
z
M 2034 4750 
Q 2819 4750 3233 4129 
Q 3647 3509 3647 2328 
Q 3647 1150 3233 529 
Q 2819 -91 2034 -91 
Q 1250 -91 836 529 
Q 422 1150 422 2328 
Q 422 3509 836 4129 
Q 1250 4750 2034 4750 
z
" transform="scale(0.015625)"/>
        <path id="DejaVuSans-2212" d="M 678 2272 
L 4684 2272 
L 4684 1741 
L 678 1741 
L 678 2272 
z
" transform="scale(0.015625)"/>
        <path id="DejaVuSans-36" d="M 2113 2584 
Q 1688 2584 1439 2293 
Q 1191 2003 1191 1497 
Q 1191 994 1439 701 
Q 1688 409 2113 409 
Q 2538 409 2786 701 
Q 3034 994 3034 1497 
Q 3034 2003 2786 2293 
Q 2538 2584 2113 2584 
z
M 3366 4563 
L 3366 3988 
Q 3128 4100 2886 4159 
Q 2644 4219 2406 4219 
Q 1781 4219 1451 3797 
Q 1122 3375 1075 2522 
Q 1259 2794 1537 2939 
Q 1816 3084 2150 3084 
Q 2853 3084 3261 2657 
Q 3669 2231 3669 1497 
Q 3669 778 3244 343 
Q 2819 -91 2113 -91 
Q 1303 -91 875 529 
Q 447 1150 447 2328 
Q 447 3434 972 4092 
Q 1497 4750 2381 4750 
Q 2619 4750 2861 4703 
Q 3103 4656 3366 4563 
z
" transform="scale(0.015625)"/>
       </defs>
       <use xlink:href="#DejaVuSans-31" transform="translate(0 0.765625)"/>
       <use xlink:href="#DejaVuSans-30" transform="translate(63.623047 0.765625)"/>
       <use xlink:href="#DejaVuSans-2212" transform="translate(128.203125 39.046875) scale(0.7)"/>
       <use xlink:href="#DejaVuSans-31" transform="translate(186.855469 39.046875) scale(0.7)"/>
       <use xlink:href="#DejaVuSans-36" transform="translate(231.391602 39.046875) scale(0.7)"/>
      </g>
     </g>
    </g>
    <g id="ytick_2">
     <g id="line2d_25">
      <g>
       <use xlink:href="#m2c337dca06" x="60.468889" y="137.506943" style="stroke: #000000; stroke-width: 0.8"/>
      </g>
     </g>
     <g id="text_2">
      <!-- $\mathdefault{10^{-15}}$ -->
      <g transform="translate(25.568889 141.306162) scale(0.1 -0.1)">
       <defs>
        <path id="DejaVuSans-35" d="M 691 4666 
L 3169 4666 
L 3169 4134 
L 1269 4134 
L 1269 2991 
Q 1406 3038 1543 3061 
Q 1681 3084 1819 3084 
Q 2600 3084 3056 2656 
Q 3513 2228 3513 1497 
Q 3513 744 3044 326 
Q 2575 -91 1722 -91 
Q 1428 -91 1123 -41 
Q 819 9 494 109 
L 494 744 
Q 775 591 1075 516 
Q 1375 441 1709 441 
Q 2250 441 2565 725 
Q 2881 1009 2881 1497 
Q 2881 1984 2565 2268 
Q 2250 2553 1709 2553 
Q 1456 2553 1204 2497 
Q 953 2441 691 2322 
L 691 4666 
z
" transform="scale(0.015625)"/>
       </defs>
       <use xlink:href="#DejaVuSans-31" transform="translate(0 0.684375)"/>
       <use xlink:href="#DejaVuSans-30" transform="translate(63.623047 0.684375)"/>
       <use xlink:href="#DejaVuSans-2212" transform="translate(128.203125 38.965625) scale(0.7)"/>
       <use xlink:href="#DejaVuSans-31" transform="translate(186.855469 38.965625) scale(0.7)"/>
       <use xlink:href="#DejaVuSans-35" transform="translate(231.391602 38.965625) scale(0.7)"/>
      </g>
     </g>
    </g>
    <g id="ytick_3">
     <g id="line2d_26">
      <g>
       <use xlink:href="#m2c337dca06" x="60.468889" y="104.394892" style="stroke: #000000; stroke-width: 0.8"/>
      </g>
     </g>
     <g id="text_3">
      <!-- $\mathdefault{10^{-14}}$ -->
      <g transform="translate(25.568889 108.194111) scale(0.1 -0.1)">
       <defs>
        <path id="DejaVuSans-34" d="M 2419 4116 
L 825 1625 
L 2419 1625 
L 2419 4116 
z
M 2253 4666 
L 3047 4666 
L 3047 1625 
L 3713 1625 
L 3713 1100 
L 3047 1100 
L 3047 0 
L 2419 0 
L 2419 1100 
L 313 1100 
L 313 1709 
L 2253 4666 
z
" transform="scale(0.015625)"/>
       </defs>
       <use xlink:href="#DejaVuSans-31" transform="translate(0 0.684375)"/>
       <use xlink:href="#DejaVuSans-30" transform="translate(63.623047 0.684375)"/>
       <use xlink:href="#DejaVuSans-2212" transform="translate(128.203125 38.965625) scale(0.7)"/>
       <use xlink:href="#DejaVuSans-31" transform="translate(186.855469 38.965625) scale(0.7)"/>
       <use xlink:href="#DejaVuSans-34" transform="translate(231.391602 38.965625) scale(0.7)"/>
      </g>
     </g>
    </g>
    <g id="ytick_4">
     <g id="line2d_27">
      <g>
       <use xlink:href="#m2c337dca06" x="60.468889" y="71.282841" style="stroke: #000000; stroke-width: 0.8"/>
      </g>
     </g>
     <g id="text_4">
      <!-- $\mathdefault{10^{-13}}$ -->
      <g transform="translate(25.568889 75.08206) scale(0.1 -0.1)">
       <defs>
        <path id="DejaVuSans-33" d="M 2597 2516 
Q 3050 2419 3304 2112 
Q 3559 1806 3559 1356 
Q 3559 666 3084 287 
Q 2609 -91 1734 -91 
Q 1441 -91 1130 -33 
Q 819 25 488 141 
L 488 750 
Q 750 597 1062 519 
Q 1375 441 1716 441 
Q 2309 441 2620 675 
Q 2931 909 2931 1356 
Q 2931 1769 2642 2001 
Q 2353 2234 1838 2234 
L 1294 2234 
L 1294 2753 
L 1863 2753 
Q 2328 2753 2575 2939 
Q 2822 3125 2822 3475 
Q 2822 3834 2567 4026 
Q 2313 4219 1838 4219 
Q 1578 4219 1281 4162 
Q 984 4106 628 3988 
L 628 4550 
Q 988 4650 1302 4700 
Q 1616 4750 1894 4750 
Q 2613 4750 3031 4423 
Q 3450 4097 3450 3541 
Q 3450 3153 3228 2886 
Q 3006 2619 2597 2516 
z
" transform="scale(0.015625)"/>
       </defs>
       <use xlink:href="#DejaVuSans-31" transform="translate(0 0.765625)"/>
       <use xlink:href="#DejaVuSans-30" transform="translate(63.623047 0.765625)"/>
       <use xlink:href="#DejaVuSans-2212" transform="translate(128.203125 39.046875) scale(0.7)"/>
       <use xlink:href="#DejaVuSans-31" transform="translate(186.855469 39.046875) scale(0.7)"/>
       <use xlink:href="#DejaVuSans-33" transform="translate(231.391602 39.046875) scale(0.7)"/>
      </g>
     </g>
    </g>
    <g id="ytick_5">
     <g id="line2d_28">
      <g>
       <use xlink:href="#m2c337dca06" x="60.468889" y="38.17079" style="stroke: #000000; stroke-width: 0.8"/>
      </g>
     </g>
     <g id="text_5">
      <!-- $\mathdefault{10^{-12}}$ -->
      <g transform="translate(25.568889 41.970009) scale(0.1 -0.1)">
       <defs>
        <path id="DejaVuSans-32" d="M 1228 531 
L 3431 531 
L 3431 0 
L 469 0 
L 469 531 
Q 828 903 1448 1529 
Q 2069 2156 2228 2338 
Q 2531 2678 2651 2914 
Q 2772 3150 2772 3378 
Q 2772 3750 2511 3984 
Q 2250 4219 1831 4219 
Q 1534 4219 1204 4116 
Q 875 4013 500 3803 
L 500 4441 
Q 881 4594 1212 4672 
Q 1544 4750 1819 4750 
Q 2544 4750 2975 4387 
Q 3406 4025 3406 3419 
Q 3406 3131 3298 2873 
Q 3191 2616 2906 2266 
Q 2828 2175 2409 1742 
Q 1991 1309 1228 531 
z
" transform="scale(0.015625)"/>
       </defs>
       <use xlink:href="#DejaVuSans-31" transform="translate(0 0.765625)"/>
       <use xlink:href="#DejaVuSans-30" transform="translate(63.623047 0.765625)"/>
       <use xlink:href="#DejaVuSans-2212" transform="translate(128.203125 39.046875) scale(0.7)"/>
       <use xlink:href="#DejaVuSans-31" transform="translate(186.855469 39.046875) scale(0.7)"/>
       <use xlink:href="#DejaVuSans-32" transform="translate(231.391602 39.046875) scale(0.7)"/>
      </g>
     </g>
    </g>
    <g id="ytick_6">
     <g id="line2d_29">
      <defs>
       <path id="mbdb52cf1e5" d="M 0 0 
L -2 0 
" style="stroke: #000000; stroke-width: 0.6"/>
      </defs>
      <g>
       <use xlink:href="#mbdb52cf1e5" x="60.468889" y="187.932581" style="stroke: #000000; stroke-width: 0.6"/>
      </g>
     </g>
    </g>
    <g id="ytick_7">
     <g id="line2d_30">
      <g>
       <use xlink:href="#mbdb52cf1e5" x="60.468889" y="183.795604" style="stroke: #000000; stroke-width: 0.6"/>
      </g>
     </g>
    </g>
    <g id="ytick_8">
     <g id="line2d_31">
      <g>
       <use xlink:href="#mbdb52cf1e5" x="60.468889" y="180.586714" style="stroke: #000000; stroke-width: 0.6"/>
      </g>
     </g>
    </g>
    <g id="ytick_9">
     <g id="line2d_32">
      <g>
       <use xlink:href="#mbdb52cf1e5" x="60.468889" y="177.964861" style="stroke: #000000; stroke-width: 0.6"/>
      </g>
     </g>
    </g>
    <g id="ytick_10">
     <g id="line2d_33">
      <g>
       <use xlink:href="#mbdb52cf1e5" x="60.468889" y="175.748115" style="stroke: #000000; stroke-width: 0.6"/>
      </g>
     </g>
    </g>
    <g id="ytick_11">
     <g id="line2d_34">
      <g>
       <use xlink:href="#mbdb52cf1e5" x="60.468889" y="173.827883" style="stroke: #000000; stroke-width: 0.6"/>
      </g>
     </g>
    </g>
    <g id="ytick_12">
     <g id="line2d_35">
      <g>
       <use xlink:href="#mbdb52cf1e5" x="60.468889" y="172.134118" style="stroke: #000000; stroke-width: 0.6"/>
      </g>
     </g>
    </g>
    <g id="ytick_13">
     <g id="line2d_36">
      <g>
       <use xlink:href="#mbdb52cf1e5" x="60.468889" y="160.651273" style="stroke: #000000; stroke-width: 0.6"/>
      </g>
     </g>
    </g>
    <g id="ytick_14">
     <g id="line2d_37">
      <g>
       <use xlink:href="#mbdb52cf1e5" x="60.468889" y="154.820531" style="stroke: #000000; stroke-width: 0.6"/>
      </g>
     </g>
    </g>
    <g id="ytick_15">
     <g id="line2d_38">
      <g>
       <use xlink:href="#mbdb52cf1e5" x="60.468889" y="150.683553" style="stroke: #000000; stroke-width: 0.6"/>
      </g>
     </g>
    </g>
    <g id="ytick_16">
     <g id="line2d_39">
      <g>
       <use xlink:href="#mbdb52cf1e5" x="60.468889" y="147.474663" style="stroke: #000000; stroke-width: 0.6"/>
      </g>
     </g>
    </g>
    <g id="ytick_17">
     <g id="line2d_40">
      <g>
       <use xlink:href="#mbdb52cf1e5" x="60.468889" y="144.85281" style="stroke: #000000; stroke-width: 0.6"/>
      </g>
     </g>
    </g>
    <g id="ytick_18">
     <g id="line2d_41">
      <g>
       <use xlink:href="#mbdb52cf1e5" x="60.468889" y="142.636064" style="stroke: #000000; stroke-width: 0.6"/>
      </g>
     </g>
    </g>
    <g id="ytick_19">
     <g id="line2d_42">
      <g>
       <use xlink:href="#mbdb52cf1e5" x="60.468889" y="140.715832" style="stroke: #000000; stroke-width: 0.6"/>
      </g>
     </g>
    </g>
    <g id="ytick_20">
     <g id="line2d_43">
      <g>
       <use xlink:href="#mbdb52cf1e5" x="60.468889" y="139.022067" style="stroke: #000000; stroke-width: 0.6"/>
      </g>
     </g>
    </g>
    <g id="ytick_21">
     <g id="line2d_44">
      <g>
       <use xlink:href="#mbdb52cf1e5" x="60.468889" y="127.539222" style="stroke: #000000; stroke-width: 0.6"/>
      </g>
     </g>
    </g>
    <g id="ytick_22">
     <g id="line2d_45">
      <g>
       <use xlink:href="#mbdb52cf1e5" x="60.468889" y="121.70848" style="stroke: #000000; stroke-width: 0.6"/>
      </g>
     </g>
    </g>
    <g id="ytick_23">
     <g id="line2d_46">
      <g>
       <use xlink:href="#mbdb52cf1e5" x="60.468889" y="117.571502" style="stroke: #000000; stroke-width: 0.6"/>
      </g>
     </g>
    </g>
    <g id="ytick_24">
     <g id="line2d_47">
      <g>
       <use xlink:href="#mbdb52cf1e5" x="60.468889" y="114.362613" style="stroke: #000000; stroke-width: 0.6"/>
      </g>
     </g>
    </g>
    <g id="ytick_25">
     <g id="line2d_48">
      <g>
       <use xlink:href="#mbdb52cf1e5" x="60.468889" y="111.740759" style="stroke: #000000; stroke-width: 0.6"/>
      </g>
     </g>
    </g>
    <g id="ytick_26">
     <g id="line2d_49">
      <g>
       <use xlink:href="#mbdb52cf1e5" x="60.468889" y="109.524014" style="stroke: #000000; stroke-width: 0.6"/>
      </g>
     </g>
    </g>
    <g id="ytick_27">
     <g id="line2d_50">
      <g>
       <use xlink:href="#mbdb52cf1e5" x="60.468889" y="107.603781" style="stroke: #000000; stroke-width: 0.6"/>
      </g>
     </g>
    </g>
    <g id="ytick_28">
     <g id="line2d_51">
      <g>
       <use xlink:href="#mbdb52cf1e5" x="60.468889" y="105.910016" style="stroke: #000000; stroke-width: 0.6"/>
      </g>
     </g>
    </g>
    <g id="ytick_29">
     <g id="line2d_52">
      <g>
       <use xlink:href="#mbdb52cf1e5" x="60.468889" y="94.427171" style="stroke: #000000; stroke-width: 0.6"/>
      </g>
     </g>
    </g>
    <g id="ytick_30">
     <g id="line2d_53">
      <g>
       <use xlink:href="#mbdb52cf1e5" x="60.468889" y="88.596429" style="stroke: #000000; stroke-width: 0.6"/>
      </g>
     </g>
    </g>
    <g id="ytick_31">
     <g id="line2d_54">
      <g>
       <use xlink:href="#mbdb52cf1e5" x="60.468889" y="84.459451" style="stroke: #000000; stroke-width: 0.6"/>
      </g>
     </g>
    </g>
    <g id="ytick_32">
     <g id="line2d_55">
      <g>
       <use xlink:href="#mbdb52cf1e5" x="60.468889" y="81.250562" style="stroke: #000000; stroke-width: 0.6"/>
      </g>
     </g>
    </g>
    <g id="ytick_33">
     <g id="line2d_56">
      <g>
       <use xlink:href="#mbdb52cf1e5" x="60.468889" y="78.628708" style="stroke: #000000; stroke-width: 0.6"/>
      </g>
     </g>
    </g>
    <g id="ytick_34">
     <g id="line2d_57">
      <g>
       <use xlink:href="#mbdb52cf1e5" x="60.468889" y="76.411963" style="stroke: #000000; stroke-width: 0.6"/>
      </g>
     </g>
    </g>
    <g id="ytick_35">
     <g id="line2d_58">
      <g>
       <use xlink:href="#mbdb52cf1e5" x="60.468889" y="74.49173" style="stroke: #000000; stroke-width: 0.6"/>
      </g>
     </g>
    </g>
    <g id="ytick_36">
     <g id="line2d_59">
      <g>
       <use xlink:href="#mbdb52cf1e5" x="60.468889" y="72.797965" style="stroke: #000000; stroke-width: 0.6"/>
      </g>
     </g>
    </g>
    <g id="ytick_37">
     <g id="line2d_60">
      <g>
       <use xlink:href="#mbdb52cf1e5" x="60.468889" y="61.31512" style="stroke: #000000; stroke-width: 0.6"/>
      </g>
     </g>
    </g>
    <g id="ytick_38">
     <g id="line2d_61">
      <g>
       <use xlink:href="#mbdb52cf1e5" x="60.468889" y="55.484378" style="stroke: #000000; stroke-width: 0.6"/>
      </g>
     </g>
    </g>
    <g id="ytick_39">
     <g id="line2d_62">
      <g>
       <use xlink:href="#mbdb52cf1e5" x="60.468889" y="51.3474" style="stroke: #000000; stroke-width: 0.6"/>
      </g>
     </g>
    </g>
    <g id="ytick_40">
     <g id="line2d_63">
      <g>
       <use xlink:href="#mbdb52cf1e5" x="60.468889" y="48.138511" style="stroke: #000000; stroke-width: 0.6"/>
      </g>
     </g>
    </g>
    <g id="ytick_41">
     <g id="line2d_64">
      <g>
       <use xlink:href="#mbdb52cf1e5" x="60.468889" y="45.516657" style="stroke: #000000; stroke-width: 0.6"/>
      </g>
     </g>
    </g>
    <g id="ytick_42">
     <g id="line2d_65">
      <g>
       <use xlink:href="#mbdb52cf1e5" x="60.468889" y="43.299912" style="stroke: #000000; stroke-width: 0.6"/>
      </g>
     </g>
    </g>
    <g id="ytick_43">
     <g id="line2d_66">
      <g>
       <use xlink:href="#mbdb52cf1e5" x="60.468889" y="41.379679" style="stroke: #000000; stroke-width: 0.6"/>
      </g>
     </g>
    </g>
    <g id="ytick_44">
     <g id="line2d_67">
      <g>
       <use xlink:href="#mbdb52cf1e5" x="60.468889" y="39.685914" style="stroke: #000000; stroke-width: 0.6"/>
      </g>
     </g>
    </g>
    <g id="ytick_45">
     <g id="line2d_68">
      <g>
       <use xlink:href="#mbdb52cf1e5" x="60.468889" y="28.20307" style="stroke: #000000; stroke-width: 0.6"/>
      </g>
     </g>
    </g>
    <g id="text_6">
     <!-- e2 * dnde [TeV / (cm2 s)] -->
     <g transform="translate(19.489202 170.416088) rotate(-90) scale(0.1 -0.1)">
      <defs>
       <path id="DejaVuSans-65" d="M 3597 1894 
L 3597 1613 
L 953 1613 
Q 991 1019 1311 708 
Q 1631 397 2203 397 
Q 2534 397 2845 478 
Q 3156 559 3463 722 
L 3463 178 
Q 3153 47 2828 -22 
Q 2503 -91 2169 -91 
Q 1331 -91 842 396 
Q 353 884 353 1716 
Q 353 2575 817 3079 
Q 1281 3584 2069 3584 
Q 2775 3584 3186 3129 
Q 3597 2675 3597 1894 
z
M 3022 2063 
Q 3016 2534 2758 2815 
Q 2500 3097 2075 3097 
Q 1594 3097 1305 2825 
Q 1016 2553 972 2059 
L 3022 2063 
z
" transform="scale(0.015625)"/>
       <path id="DejaVuSans-20" transform="scale(0.015625)"/>
       <path id="DejaVuSans-2a" d="M 3009 3897 
L 1888 3291 
L 3009 2681 
L 2828 2375 
L 1778 3009 
L 1778 1831 
L 1422 1831 
L 1422 3009 
L 372 2375 
L 191 2681 
L 1313 3291 
L 191 3897 
L 372 4206 
L 1422 3572 
L 1422 4750 
L 1778 4750 
L 1778 3572 
L 2828 4206 
L 3009 3897 
z
" transform="scale(0.015625)"/>
       <path id="DejaVuSans-64" d="M 2906 2969 
L 2906 4863 
L 3481 4863 
L 3481 0 
L 2906 0 
L 2906 525 
Q 2725 213 2448 61 
Q 2172 -91 1784 -91 
Q 1150 -91 751 415 
Q 353 922 353 1747 
Q 353 2572 751 3078 
Q 1150 3584 1784 3584 
Q 2172 3584 2448 3432 
Q 2725 3281 2906 2969 
z
M 947 1747 
Q 947 1113 1208 752 
Q 1469 391 1925 391 
Q 2381 391 2643 752 
Q 2906 1113 2906 1747 
Q 2906 2381 2643 2742 
Q 2381 3103 1925 3103 
Q 1469 3103 1208 2742 
Q 947 2381 947 1747 
z
" transform="scale(0.015625)"/>
       <path id="DejaVuSans-6e" d="M 3513 2113 
L 3513 0 
L 2938 0 
L 2938 2094 
Q 2938 2591 2744 2837 
Q 2550 3084 2163 3084 
Q 1697 3084 1428 2787 
Q 1159 2491 1159 1978 
L 1159 0 
L 581 0 
L 581 3500 
L 1159 3500 
L 1159 2956 
Q 1366 3272 1645 3428 
Q 1925 3584 2291 3584 
Q 2894 3584 3203 3211 
Q 3513 2838 3513 2113 
z
" transform="scale(0.015625)"/>
       <path id="DejaVuSans-5b" d="M 550 4863 
L 1875 4863 
L 1875 4416 
L 1125 4416 
L 1125 -397 
L 1875 -397 
L 1875 -844 
L 550 -844 
L 550 4863 
z
" transform="scale(0.015625)"/>
       <path id="DejaVuSans-54" d="M -19 4666 
L 3928 4666 
L 3928 4134 
L 2272 4134 
L 2272 0 
L 1638 0 
L 1638 4134 
L -19 4134 
L -19 4666 
z
" transform="scale(0.015625)"/>
       <path id="DejaVuSans-56" d="M 1831 0 
L 50 4666 
L 709 4666 
L 2188 738 
L 3669 4666 
L 4325 4666 
L 2547 0 
L 1831 0 
z
" transform="scale(0.015625)"/>
       <path id="DejaVuSans-2f" d="M 1625 4666 
L 2156 4666 
L 531 -594 
L 0 -594 
L 1625 4666 
z
" transform="scale(0.015625)"/>
       <path id="DejaVuSans-28" d="M 1984 4856 
Q 1566 4138 1362 3434 
Q 1159 2731 1159 2009 
Q 1159 1288 1364 580 
Q 1569 -128 1984 -844 
L 1484 -844 
Q 1016 -109 783 600 
Q 550 1309 550 2009 
Q 550 2706 781 3412 
Q 1013 4119 1484 4856 
L 1984 4856 
z
" transform="scale(0.015625)"/>
       <path id="DejaVuSans-63" d="M 3122 3366 
L 3122 2828 
Q 2878 2963 2633 3030 
Q 2388 3097 2138 3097 
Q 1578 3097 1268 2742 
Q 959 2388 959 1747 
Q 959 1106 1268 751 
Q 1578 397 2138 397 
Q 2388 397 2633 464 
Q 2878 531 3122 666 
L 3122 134 
Q 2881 22 2623 -34 
Q 2366 -91 2075 -91 
Q 1284 -91 818 406 
Q 353 903 353 1747 
Q 353 2603 823 3093 
Q 1294 3584 2113 3584 
Q 2378 3584 2631 3529 
Q 2884 3475 3122 3366 
z
" transform="scale(0.015625)"/>
       <path id="DejaVuSans-6d" d="M 3328 2828 
Q 3544 3216 3844 3400 
Q 4144 3584 4550 3584 
Q 5097 3584 5394 3201 
Q 5691 2819 5691 2113 
L 5691 0 
L 5113 0 
L 5113 2094 
Q 5113 2597 4934 2840 
Q 4756 3084 4391 3084 
Q 3944 3084 3684 2787 
Q 3425 2491 3425 1978 
L 3425 0 
L 2847 0 
L 2847 2094 
Q 2847 2600 2669 2842 
Q 2491 3084 2119 3084 
Q 1678 3084 1418 2786 
Q 1159 2488 1159 1978 
L 1159 0 
L 581 0 
L 581 3500 
L 1159 3500 
L 1159 2956 
Q 1356 3278 1631 3431 
Q 1906 3584 2284 3584 
Q 2666 3584 2933 3390 
Q 3200 3197 3328 2828 
z
" transform="scale(0.015625)"/>
       <path id="DejaVuSans-73" d="M 2834 3397 
L 2834 2853 
Q 2591 2978 2328 3040 
Q 2066 3103 1784 3103 
Q 1356 3103 1142 2972 
Q 928 2841 928 2578 
Q 928 2378 1081 2264 
Q 1234 2150 1697 2047 
L 1894 2003 
Q 2506 1872 2764 1633 
Q 3022 1394 3022 966 
Q 3022 478 2636 193 
Q 2250 -91 1575 -91 
Q 1294 -91 989 -36 
Q 684 19 347 128 
L 347 722 
Q 666 556 975 473 
Q 1284 391 1588 391 
Q 1994 391 2212 530 
Q 2431 669 2431 922 
Q 2431 1156 2273 1281 
Q 2116 1406 1581 1522 
L 1381 1569 
Q 847 1681 609 1914 
Q 372 2147 372 2553 
Q 372 3047 722 3315 
Q 1072 3584 1716 3584 
Q 2034 3584 2315 3537 
Q 2597 3491 2834 3397 
z
" transform="scale(0.015625)"/>
       <path id="DejaVuSans-29" d="M 513 4856 
L 1013 4856 
Q 1481 4119 1714 3412 
Q 1947 2706 1947 2009 
Q 1947 1309 1714 600 
Q 1481 -109 1013 -844 
L 513 -844 
Q 928 -128 1133 580 
Q 1338 1288 1338 2009 
Q 1338 2731 1133 3434 
Q 928 4138 513 4856 
z
" transform="scale(0.015625)"/>
       <path id="DejaVuSans-5d" d="M 1947 4863 
L 1947 -844 
L 622 -844 
L 622 -397 
L 1369 -397 
L 1369 4416 
L 622 4416 
L 622 4863 
L 1947 4863 
z
" transform="scale(0.015625)"/>
      </defs>
      <use xlink:href="#DejaVuSans-65"/>
      <use xlink:href="#DejaVuSans-32" x="61.523438"/>
      <use xlink:href="#DejaVuSans-20" x="125.146484"/>
      <use xlink:href="#DejaVuSans-2a" x="156.933594"/>
      <use xlink:href="#DejaVuSans-20" x="206.933594"/>
      <use xlink:href="#DejaVuSans-64" x="238.720703"/>
      <use xlink:href="#DejaVuSans-6e" x="302.197266"/>
      <use xlink:href="#DejaVuSans-64" x="365.576172"/>
      <use xlink:href="#DejaVuSans-65" x="429.052734"/>
      <use xlink:href="#DejaVuSans-20" x="490.576172"/>
      <use xlink:href="#DejaVuSans-5b" x="522.363281"/>
      <use xlink:href="#DejaVuSans-54" x="561.376953"/>
      <use xlink:href="#DejaVuSans-65" x="605.460938"/>
      <use xlink:href="#DejaVuSans-56" x="666.984375"/>
      <use xlink:href="#DejaVuSans-20" x="735.392578"/>
      <use xlink:href="#DejaVuSans-2f" x="767.179688"/>
      <use xlink:href="#DejaVuSans-20" x="800.871094"/>
      <use xlink:href="#DejaVuSans-28" x="832.658203"/>
      <use xlink:href="#DejaVuSans-63" x="871.671875"/>
      <use xlink:href="#DejaVuSans-6d" x="926.652344"/>
      <use xlink:href="#DejaVuSans-32" x="1024.064453"/>
      <use xlink:href="#DejaVuSans-20" x="1087.6875"/>
      <use xlink:href="#DejaVuSans-73" x="1119.474609"/>
      <use xlink:href="#DejaVuSans-29" x="1171.574219"/>
      <use xlink:href="#DejaVuSans-5d" x="1210.587891"/>
     </g>
    </g>
   </g>
   <g id="LineCollection_1">
    <path d="M 73.593031 40.833319 
L 73.593031 33.636416 
" clip-path="url(#pcf58deebe5)" style="fill: none; stroke: #00008b; stroke-opacity: 0.7; stroke-width: 1.5"/>
    <path d="M 88.880757 41.171772 
L 88.880757 35.549212 
" clip-path="url(#pcf58deebe5)" style="fill: none; stroke: #00008b; stroke-opacity: 0.7; stroke-width: 1.5"/>
    <path d="M 104.168482 41.83187 
L 104.168482 37.355221 
" clip-path="url(#pcf58deebe5)" style="fill: none; stroke: #00008b; stroke-opacity: 0.7; stroke-width: 1.5"/>
    <path d="M 119.456208 42.942455 
L 119.456208 38.992823 
" clip-path="url(#pcf58deebe5)" style="fill: none; stroke: #00008b; stroke-opacity: 0.7; stroke-width: 1.5"/>
    <path d="M 134.743934 44.556363 
L 134.743934 40.499799 
" clip-path="url(#pcf58deebe5)" style="fill: none; stroke: #00008b; stroke-opacity: 0.7; stroke-width: 1.5"/>
    <path d="M 150.03166 46.584359 
L 150.03166 42.081649 
" clip-path="url(#pcf58deebe5)" style="fill: none; stroke: #00008b; stroke-opacity: 0.7; stroke-width: 1.5"/>
    <path d="M 165.319385 48.940774 
L 165.319385 43.9741 
" clip-path="url(#pcf58deebe5)" style="fill: none; stroke: #00008b; stroke-opacity: 0.7; stroke-width: 1.5"/>
    <path d="M 180.607111 51.669906 
L 180.607111 46.331871 
" clip-path="url(#pcf58deebe5)" style="fill: none; stroke: #00008b; stroke-opacity: 0.7; stroke-width: 1.5"/>
    <path d="M 195.894837 54.994858 
L 195.894837 49.193198 
" clip-path="url(#pcf58deebe5)" style="fill: none; stroke: #00008b; stroke-opacity: 0.7; stroke-width: 1.5"/>
    <path d="M 211.182563 59.310739 
L 211.182563 52.483952 
" clip-path="url(#pcf58deebe5)" style="fill: none; stroke: #00008b; stroke-opacity: 0.7; stroke-width: 1.5"/>
    <path d="M 226.470289 65.061802 
L 226.470289 56.127579 
" clip-path="url(#pcf58deebe5)" style="fill: none; stroke: #00008b; stroke-opacity: 0.7; stroke-width: 1.5"/>
    <path d="M 241.758014 72.663882 
L 241.758014 60.148361 
" clip-path="url(#pcf58deebe5)" style="fill: none; stroke: #00008b; stroke-opacity: 0.7; stroke-width: 1.5"/>
    <path d="M 257.04574 82.792262 
L 257.04574 64.595985 
" clip-path="url(#pcf58deebe5)" style="fill: none; stroke: #00008b; stroke-opacity: 0.7; stroke-width: 1.5"/>
    <path d="M 272.333466 97.78635 
L 272.333466 69.426106 
" clip-path="url(#pcf58deebe5)" style="fill: none; stroke: #00008b; stroke-opacity: 0.7; stroke-width: 1.5"/>
    <path d="M 287.621192 361 
L 287.621192 74.443966 
" clip-path="url(#pcf58deebe5)" style="fill: none; stroke: #00008b; stroke-opacity: 0.7; stroke-width: 1.5"/>
    <path d="M 302.908917 361 
L 302.908917 79.300001 
" clip-path="url(#pcf58deebe5)" style="fill: none; stroke: #00008b; stroke-opacity: 0.7; stroke-width: 1.5"/>
    <path d="M 318.196643 361 
L 318.196643 83.503239 
" clip-path="url(#pcf58deebe5)" style="fill: none; stroke: #00008b; stroke-opacity: 0.7; stroke-width: 1.5"/>
    <path d="M 333.484369 361 
L 333.484369 86.434588 
" clip-path="url(#pcf58deebe5)" style="fill: none; stroke: #00008b; stroke-opacity: 0.7; stroke-width: 1.5"/>
   </g>
   <g id="line2d_69">
    <path d="M 74.892487 35.889701 
L 77.491401 36.136777 
L 80.090314 36.385657 
L 82.689228 36.636433 
L 85.288141 36.889198 
L 87.887054 37.144054 
L 90.485968 37.401104 
L 93.084881 37.660459 
L 95.683795 37.922234 
L 98.282708 38.186552 
L 100.881621 38.453538 
L 103.480535 38.723327 
L 106.079448 38.99606 
L 108.678361 39.271884 
L 111.277275 39.550955 
L 113.876188 39.833434 
L 116.475102 40.119494 
L 119.074015 40.409313 
L 121.672928 40.70308 
L 124.271842 41.000993 
L 126.870755 41.30326 
L 129.469668 41.610099 
L 132.068582 41.92174 
L 134.667495 42.238423 
L 137.266409 42.560401 
L 139.865322 42.88794 
L 142.464235 43.221319 
L 145.063149 43.56083 
L 147.662062 43.906781 
L 150.260976 44.259495 
L 152.859889 44.61931 
L 155.458802 44.986584 
L 158.057716 45.36169 
L 160.656629 45.745021 
L 163.255542 46.13699 
L 165.854456 46.538029 
L 168.453369 46.948593 
L 171.052283 47.36916 
L 173.651196 47.800232 
L 176.250109 48.242336 
L 178.849023 48.696024 
L 181.447936 49.161877 
L 184.04685 49.640506 
L 186.645763 50.132551 
L 189.244676 50.638686 
L 191.84359 51.159616 
L 194.442503 51.696083 
L 197.041416 52.248867 
L 199.64033 52.818786 
L 202.239243 53.406699 
L 204.838157 54.013509 
L 207.43707 54.640163 
L 210.035983 55.287656 
L 212.634897 55.957033 
L 215.23381 56.649392 
L 217.832724 57.365885 
L 220.431637 58.107722 
L 223.03055 58.876175 
L 225.629464 59.672577 
L 228.228377 60.498331 
L 230.82729 61.354909 
L 233.426204 62.243856 
L 236.025117 63.166795 
L 238.624031 64.125431 
L 241.222944 65.121554 
L 243.821857 66.157044 
L 246.420771 67.233875 
L 249.019684 68.35412 
L 251.618597 69.519956 
L 254.217511 70.73367 
L 256.816424 71.997663 
L 259.415338 73.314454 
L 262.014251 74.686694 
L 264.613164 76.117161 
L 267.212078 77.608776 
L 269.810991 79.164606 
L 272.409905 80.787869 
L 275.008818 82.481949 
L 277.607731 84.250396 
L 280.206645 86.096939 
L 282.805558 88.025495 
L 285.404471 90.040177 
L 288.003385 92.145303 
L 290.602298 94.345408 
L 293.201212 96.645257 
L 295.800125 99.04985 
L 298.399038 101.56444 
L 300.997952 104.194543 
L 303.596865 106.945951 
L 306.195779 109.824749 
L 308.794692 112.837324 
L 311.393605 115.990384 
L 313.992519 119.290974 
L 316.591432 122.746493 
L 319.190345 126.364709 
L 321.789259 130.153782 
L 324.388172 134.122279 
L 326.987086 138.279198 
L 329.585999 142.633988 
L 332.184912 147.196571 
" clip-path="url(#pcf58deebe5)" style="fill: none; stroke: #ff0000; stroke-width: 1.5; stroke-linecap: square"/>
   </g>
   <g id="line2d_70">
    <path d="M 74.892487 35.745993 
L 77.491401 35.998964 
L 80.090314 36.253712 
L 82.689228 36.510324 
L 85.288141 36.768894 
L 87.887054 37.029522 
L 90.485968 37.292309 
L 93.084881 37.557364 
L 95.683795 37.824801 
L 98.282708 38.094739 
L 100.881621 38.367304 
L 103.480535 38.642628 
L 106.079448 38.920848 
L 108.678361 39.20211 
L 111.277275 39.486567 
L 113.876188 39.774379 
L 116.475102 40.065713 
L 119.074015 40.360748 
L 121.672928 40.659667 
L 124.271842 40.962666 
L 126.870755 41.269951 
L 129.469668 41.581734 
L 132.068582 41.898243 
L 134.667495 42.219713 
L 137.266409 42.546395 
L 139.865322 42.878549 
L 142.464235 43.216449 
L 145.063149 43.560385 
L 147.662062 43.910657 
L 150.260976 44.267585 
L 152.859889 44.631502 
L 155.458802 45.002758 
L 158.057716 45.381722 
L 160.656629 45.768779 
L 163.255542 46.164337 
L 165.854456 46.568821 
L 168.453369 46.982678 
L 171.052283 47.406379 
L 173.651196 47.840418 
L 176.250109 48.285312 
L 178.849023 48.741607 
L 181.447936 49.209873 
L 184.04685 49.690712 
L 186.645763 50.184753 
L 189.244676 50.69266 
L 191.84359 51.215126 
L 194.442503 51.752882 
L 197.041416 52.306695 
L 199.64033 52.877371 
L 202.239243 53.465754 
L 204.838157 54.072733 
L 207.43707 54.699239 
L 210.035983 55.346254 
L 212.634897 56.014804 
L 215.23381 56.70597 
L 217.832724 57.420886 
L 220.431637 58.160743 
L 223.03055 58.926792 
L 225.629464 59.720345 
L 228.228377 60.542783 
L 230.82729 61.395554 
L 233.426204 62.280178 
L 236.025117 63.198254 
L 238.624031 64.151459 
L 241.222944 65.141553 
L 243.821857 66.170388 
L 246.420771 67.239906 
L 249.019684 68.352147 
L 251.618597 69.509254 
L 254.217511 70.713475 
L 256.816424 71.967175 
L 259.415338 73.272834 
L 262.014251 74.633058 
L 264.613164 76.050582 
L 267.212078 77.528282 
L 269.810991 79.069173 
L 272.409905 80.676425 
L 275.008818 82.353365 
L 277.607731 84.103489 
L 280.206645 85.930467 
L 282.805558 87.838151 
L 285.404471 89.83059 
L 288.003385 91.912033 
L 290.602298 94.086945 
L 293.201212 96.360011 
L 295.800125 98.736154 
L 298.399038 101.220543 
L 300.997952 103.818607 
L 303.596865 106.536045 
L 306.195779 109.378844 
L 308.794692 112.353291 
L 311.393605 115.465987 
L 313.992519 118.723864 
L 316.591432 122.134204 
L 319.190345 125.704651 
L 321.789259 129.443235 
L 324.388172 133.358387 
L 326.987086 137.458961 
L 329.585999 141.754256 
L 332.184912 146.254036 
" clip-path="url(#pcf58deebe5)" style="fill: none; stroke: #008000; stroke-width: 1.5; stroke-linecap: square"/>
   </g>
   <g id="line2d_71">
    <path d="M 74.892487 35.889701 
L 77.491401 36.136777 
L 80.090314 36.385657 
L 82.689228 36.636433 
L 85.288141 36.889198 
L 87.887054 37.144054 
L 90.485968 37.401104 
L 93.084881 37.660459 
L 95.683795 37.922234 
L 98.282708 38.186552 
L 100.881621 38.453538 
L 103.480535 38.723327 
L 106.079448 38.99606 
L 108.678361 39.271884 
L 111.277275 39.550955 
L 113.876188 39.833434 
L 116.475102 40.119494 
L 119.074015 40.409313 
L 121.672928 40.70308 
L 124.271842 41.000993 
L 126.870755 41.30326 
L 129.469668 41.610099 
L 132.068582 41.92174 
L 134.667495 42.238423 
L 137.266409 42.560401 
L 139.865322 42.88794 
L 142.464235 43.221319 
L 145.063149 43.56083 
L 147.662062 43.906781 
L 150.260976 44.259495 
L 152.859889 44.61931 
L 155.458802 44.986584 
L 158.057716 45.36169 
L 160.656629 45.745021 
L 163.255542 46.13699 
L 165.854456 46.538029 
L 168.453369 46.948593 
L 171.052283 47.36916 
L 173.651196 47.800232 
L 176.250109 48.242336 
L 178.849023 48.696024 
L 181.447936 49.161877 
L 184.04685 49.640506 
L 186.645763 50.132551 
L 189.244676 50.638686 
L 191.84359 51.159616 
L 194.442503 51.696083 
L 197.041416 52.248867 
L 199.64033 52.818786 
L 202.239243 53.406699 
L 204.838157 54.013509 
L 207.43707 54.640163 
L 210.035983 55.287656 
L 212.634897 55.957033 
L 215.23381 56.649392 
L 217.832724 57.365885 
L 220.431637 58.107722 
L 223.03055 58.876175 
L 225.629464 59.672577 
L 228.228377 60.498331 
L 230.82729 61.354909 
L 233.426204 62.243856 
L 236.025117 63.166795 
L 238.624031 64.125431 
L 241.222944 65.121554 
L 243.821857 66.157044 
L 246.420771 67.233875 
L 249.019684 68.35412 
L 251.618597 69.519956 
L 254.217511 70.73367 
L 256.816424 71.997663 
L 259.415338 73.314454 
L 262.014251 74.686694 
L 264.613164 76.117161 
L 267.212078 77.608776 
L 269.810991 79.164606 
L 272.409905 80.787869 
L 275.008818 82.481949 
L 277.607731 84.250396 
L 280.206645 86.096939 
L 282.805558 88.025495 
L 285.404471 90.040177 
L 288.003385 92.145303 
L 290.602298 94.345408 
L 293.201212 96.645257 
L 295.800125 99.04985 
L 298.399038 101.56444 
L 300.997952 104.194543 
L 303.596865 106.945951 
L 306.195779 109.824749 
L 308.794692 112.837324 
L 311.393605 115.990384 
L 313.992519 119.290974 
L 316.591432 122.746493 
L 319.190345 126.364709 
L 321.789259 130.153782 
L 324.388172 134.122279 
L 326.987086 138.279198 
L 329.585999 142.633988 
L 332.184912 147.196571 
" clip-path="url(#pcf58deebe5)" style="fill: none; stroke-dasharray: 1.5,2.475; stroke-dashoffset: 0; stroke: #000000; stroke-width: 1.5"/>
   </g>
   <g id="line2d_72">
    <path d="M 73.593031 36.789263 
L 88.880757 38.08743 
L 104.168482 39.420045 
L 119.456208 40.832465 
L 134.743934 42.385513 
L 150.03166 44.157486 
L 165.319385 46.244072 
L 180.607111 48.754611 
L 195.894837 51.803411 
L 211.182563 55.495984 
L 226.470289 59.91174 
L 241.758014 65.085479 
L 257.04574 70.989749 
L 272.333466 77.520221 
L 287.621192 84.483484 
L 302.908917 91.57809 
L 318.196643 98.367037 
L 333.484369 104.269569 
" clip-path="url(#pcf58deebe5)" style="fill: none; stroke: #00008b; stroke-opacity: 0.7; stroke-width: 1.5; stroke-linecap: square"/>
   </g>
   <g id="patch_3">
    <path d="M 60.468889 190.4328 
L 60.468889 25.44 
" style="fill: none; stroke: #000000; stroke-width: 0.8; stroke-linejoin: miter; stroke-linecap: square"/>
   </g>
   <g id="patch_4">
    <path d="M 349.2 190.4328 
L 349.2 25.44 
" style="fill: none; stroke: #000000; stroke-width: 0.8; stroke-linejoin: miter; stroke-linecap: square"/>
   </g>
   <g id="patch_5">
    <path d="M 60.468889 190.4328 
L 349.2 190.4328 
" style="fill: none; stroke: #000000; stroke-width: 0.8; stroke-linejoin: miter; stroke-linecap: square"/>
   </g>
   <g id="patch_6">
    <path d="M 60.468889 25.44 
L 349.2 25.44 
" style="fill: none; stroke: #000000; stroke-width: 0.8; stroke-linejoin: miter; stroke-linecap: square"/>
   </g>
   <g id="text_7">
    <!-- N = 800 (p = 5.82%) -->
    <g transform="translate(141.751945 19.44) scale(0.12 -0.12)">
     <defs>
      <path id="DejaVuSans-4e" d="M 628 4666 
L 1478 4666 
L 3547 763 
L 3547 4666 
L 4159 4666 
L 4159 0 
L 3309 0 
L 1241 3903 
L 1241 0 
L 628 0 
L 628 4666 
z
" transform="scale(0.015625)"/>
      <path id="DejaVuSans-3d" d="M 678 2906 
L 4684 2906 
L 4684 2381 
L 678 2381 
L 678 2906 
z
M 678 1631 
L 4684 1631 
L 4684 1100 
L 678 1100 
L 678 1631 
z
" transform="scale(0.015625)"/>
      <path id="DejaVuSans-38" d="M 2034 2216 
Q 1584 2216 1326 1975 
Q 1069 1734 1069 1313 
Q 1069 891 1326 650 
Q 1584 409 2034 409 
Q 2484 409 2743 651 
Q 3003 894 3003 1313 
Q 3003 1734 2745 1975 
Q 2488 2216 2034 2216 
z
M 1403 2484 
Q 997 2584 770 2862 
Q 544 3141 544 3541 
Q 544 4100 942 4425 
Q 1341 4750 2034 4750 
Q 2731 4750 3128 4425 
Q 3525 4100 3525 3541 
Q 3525 3141 3298 2862 
Q 3072 2584 2669 2484 
Q 3125 2378 3379 2068 
Q 3634 1759 3634 1313 
Q 3634 634 3220 271 
Q 2806 -91 2034 -91 
Q 1263 -91 848 271 
Q 434 634 434 1313 
Q 434 1759 690 2068 
Q 947 2378 1403 2484 
z
M 1172 3481 
Q 1172 3119 1398 2916 
Q 1625 2713 2034 2713 
Q 2441 2713 2670 2916 
Q 2900 3119 2900 3481 
Q 2900 3844 2670 4047 
Q 2441 4250 2034 4250 
Q 1625 4250 1398 4047 
Q 1172 3844 1172 3481 
z
" transform="scale(0.015625)"/>
      <path id="DejaVuSans-70" d="M 1159 525 
L 1159 -1331 
L 581 -1331 
L 581 3500 
L 1159 3500 
L 1159 2969 
Q 1341 3281 1617 3432 
Q 1894 3584 2278 3584 
Q 2916 3584 3314 3078 
Q 3713 2572 3713 1747 
Q 3713 922 3314 415 
Q 2916 -91 2278 -91 
Q 1894 -91 1617 61 
Q 1341 213 1159 525 
z
M 3116 1747 
Q 3116 2381 2855 2742 
Q 2594 3103 2138 3103 
Q 1681 3103 1420 2742 
Q 1159 2381 1159 1747 
Q 1159 1113 1420 752 
Q 1681 391 2138 391 
Q 2594 391 2855 752 
Q 3116 1113 3116 1747 
z
" transform="scale(0.015625)"/>
      <path id="DejaVuSans-2e" d="M 684 794 
L 1344 794 
L 1344 0 
L 684 0 
L 684 794 
z
" transform="scale(0.015625)"/>
      <path id="DejaVuSans-25" d="M 4653 2053 
Q 4381 2053 4226 1822 
Q 4072 1591 4072 1178 
Q 4072 772 4226 539 
Q 4381 306 4653 306 
Q 4919 306 5073 539 
Q 5228 772 5228 1178 
Q 5228 1588 5073 1820 
Q 4919 2053 4653 2053 
z
M 4653 2450 
Q 5147 2450 5437 2106 
Q 5728 1763 5728 1178 
Q 5728 594 5436 251 
Q 5144 -91 4653 -91 
Q 4153 -91 3862 251 
Q 3572 594 3572 1178 
Q 3572 1766 3864 2108 
Q 4156 2450 4653 2450 
z
M 1428 4353 
Q 1159 4353 1004 4120 
Q 850 3888 850 3481 
Q 850 3069 1003 2837 
Q 1156 2606 1428 2606 
Q 1700 2606 1854 2837 
Q 2009 3069 2009 3481 
Q 2009 3884 1853 4118 
Q 1697 4353 1428 4353 
z
M 4250 4750 
L 4750 4750 
L 1831 -91 
L 1331 -91 
L 4250 4750 
z
M 1428 4750 
Q 1922 4750 2215 4408 
Q 2509 4066 2509 3481 
Q 2509 2891 2217 2550 
Q 1925 2209 1428 2209 
Q 931 2209 642 2551 
Q 353 2894 353 3481 
Q 353 4063 643 4406 
Q 934 4750 1428 4750 
z
" transform="scale(0.015625)"/>
     </defs>
     <use xlink:href="#DejaVuSans-4e"/>
     <use xlink:href="#DejaVuSans-20" x="74.804688"/>
     <use xlink:href="#DejaVuSans-3d" x="106.591797"/>
     <use xlink:href="#DejaVuSans-20" x="190.380859"/>
     <use xlink:href="#DejaVuSans-38" x="222.167969"/>
     <use xlink:href="#DejaVuSans-30" x="285.791016"/>
     <use xlink:href="#DejaVuSans-30" x="349.414062"/>
     <use xlink:href="#DejaVuSans-20" x="413.037109"/>
     <use xlink:href="#DejaVuSans-28" x="444.824219"/>
     <use xlink:href="#DejaVuSans-70" x="483.837891"/>
     <use xlink:href="#DejaVuSans-20" x="547.314453"/>
     <use xlink:href="#DejaVuSans-3d" x="579.101562"/>
     <use xlink:href="#DejaVuSans-20" x="662.890625"/>
     <use xlink:href="#DejaVuSans-35" x="694.677734"/>
     <use xlink:href="#DejaVuSans-2e" x="758.300781"/>
     <use xlink:href="#DejaVuSans-38" x="790.087891"/>
     <use xlink:href="#DejaVuSans-32" x="853.710938"/>
     <use xlink:href="#DejaVuSans-25" x="917.333984"/>
     <use xlink:href="#DejaVuSans-29" x="1012.353516"/>
    </g>
   </g>
   <g id="legend_1">
    <g id="patch_7">
     <path d="M 67.468889 185.4328 
L 168.503264 185.4328 
Q 170.503264 185.4328 170.503264 183.4328 
L 170.503264 125.7203 
Q 170.503264 123.7203 168.503264 123.7203 
L 67.468889 123.7203 
Q 65.468889 123.7203 65.468889 125.7203 
L 65.468889 183.4328 
Q 65.468889 185.4328 67.468889 185.4328 
z
" style="fill: #ffffff; opacity: 0.8; stroke: #cccccc; stroke-linejoin: miter"/>
    </g>
    <g id="patch_8">
     <path d="M 69.468889 135.318737 
L 89.468889 135.318737 
L 89.468889 128.318737 
L 69.468889 128.318737 
z
" style="fill: #ff0000; fill-opacity: 0.5"/>
    </g>
    <g id="text_8">
     <!-- $1\sigma$ Standard -->
     <g transform="translate(97.468889 135.318737) scale(0.1 -0.1)">
      <defs>
       <path id="DejaVuSans-Oblique-3c3" d="M 2219 3044 
Q 1744 3044 1422 2700 
Q 1081 2341 969 1747 
Q 844 1119 1044 756 
Q 1241 397 1706 397 
Q 2166 397 2503 759 
Q 2844 1122 2966 1747 
Q 3075 2319 2881 2700 
Q 2700 3044 2219 3044 
z
M 2309 3503 
L 4219 3500 
L 4106 2925 
L 3463 2925 
Q 3706 2438 3575 1747 
Q 3406 888 2884 400 
Q 2359 -91 1609 -91 
Q 856 -91 525 400 
Q 194 888 363 1747 
Q 528 2609 1050 3097 
Q 1484 3503 2309 3503 
z
" transform="scale(0.015625)"/>
       <path id="DejaVuSans-53" d="M 3425 4513 
L 3425 3897 
Q 3066 4069 2747 4153 
Q 2428 4238 2131 4238 
Q 1616 4238 1336 4038 
Q 1056 3838 1056 3469 
Q 1056 3159 1242 3001 
Q 1428 2844 1947 2747 
L 2328 2669 
Q 3034 2534 3370 2195 
Q 3706 1856 3706 1288 
Q 3706 609 3251 259 
Q 2797 -91 1919 -91 
Q 1588 -91 1214 -16 
Q 841 59 441 206 
L 441 856 
Q 825 641 1194 531 
Q 1563 422 1919 422 
Q 2459 422 2753 634 
Q 3047 847 3047 1241 
Q 3047 1584 2836 1778 
Q 2625 1972 2144 2069 
L 1759 2144 
Q 1053 2284 737 2584 
Q 422 2884 422 3419 
Q 422 4038 858 4394 
Q 1294 4750 2059 4750 
Q 2388 4750 2728 4690 
Q 3069 4631 3425 4513 
z
" transform="scale(0.015625)"/>
       <path id="DejaVuSans-74" d="M 1172 4494 
L 1172 3500 
L 2356 3500 
L 2356 3053 
L 1172 3053 
L 1172 1153 
Q 1172 725 1289 603 
Q 1406 481 1766 481 
L 2356 481 
L 2356 0 
L 1766 0 
Q 1100 0 847 248 
Q 594 497 594 1153 
L 594 3053 
L 172 3053 
L 172 3500 
L 594 3500 
L 594 4494 
L 1172 4494 
z
" transform="scale(0.015625)"/>
       <path id="DejaVuSans-61" d="M 2194 1759 
Q 1497 1759 1228 1600 
Q 959 1441 959 1056 
Q 959 750 1161 570 
Q 1363 391 1709 391 
Q 2188 391 2477 730 
Q 2766 1069 2766 1631 
L 2766 1759 
L 2194 1759 
z
M 3341 1997 
L 3341 0 
L 2766 0 
L 2766 531 
Q 2569 213 2275 61 
Q 1981 -91 1556 -91 
Q 1019 -91 701 211 
Q 384 513 384 1019 
Q 384 1609 779 1909 
Q 1175 2209 1959 2209 
L 2766 2209 
L 2766 2266 
Q 2766 2663 2505 2880 
Q 2244 3097 1772 3097 
Q 1472 3097 1187 3025 
Q 903 2953 641 2809 
L 641 3341 
Q 956 3463 1253 3523 
Q 1550 3584 1831 3584 
Q 2591 3584 2966 3190 
Q 3341 2797 3341 1997 
z
" transform="scale(0.015625)"/>
       <path id="DejaVuSans-72" d="M 2631 2963 
Q 2534 3019 2420 3045 
Q 2306 3072 2169 3072 
Q 1681 3072 1420 2755 
Q 1159 2438 1159 1844 
L 1159 0 
L 581 0 
L 581 3500 
L 1159 3500 
L 1159 2956 
Q 1341 3275 1631 3429 
Q 1922 3584 2338 3584 
Q 2397 3584 2469 3576 
Q 2541 3569 2628 3553 
L 2631 2963 
z
" transform="scale(0.015625)"/>
      </defs>
      <use xlink:href="#DejaVuSans-31" transform="translate(0 0.015625)"/>
      <use xlink:href="#DejaVuSans-Oblique-3c3" transform="translate(63.623047 0.015625)"/>
      <use xlink:href="#DejaVuSans-20" transform="translate(127.001953 0.015625)"/>
      <use xlink:href="#DejaVuSans-53" transform="translate(158.789062 0.015625)"/>
      <use xlink:href="#DejaVuSans-74" transform="translate(222.265625 0.015625)"/>
      <use xlink:href="#DejaVuSans-61" transform="translate(261.474609 0.015625)"/>
      <use xlink:href="#DejaVuSans-6e" transform="translate(322.753906 0.015625)"/>
      <use xlink:href="#DejaVuSans-64" transform="translate(386.132812 0.015625)"/>
      <use xlink:href="#DejaVuSans-61" transform="translate(449.609375 0.015625)"/>
      <use xlink:href="#DejaVuSans-72" transform="translate(510.888672 0.015625)"/>
      <use xlink:href="#DejaVuSans-64" transform="translate(552.001953 0.015625)"/>
     </g>
    </g>
    <g id="patch_9">
     <path d="M 69.468889 149.996862 
L 89.468889 149.996862 
L 89.468889 142.996862 
L 69.468889 142.996862 
z
" style="fill: #008000; fill-opacity: 0.5"/>
    </g>
    <g id="text_9">
     <!-- $1\sigma$ Nuisance -->
     <g transform="translate(97.468889 149.996862) scale(0.1 -0.1)">
      <defs>
       <path id="DejaVuSans-75" d="M 544 1381 
L 544 3500 
L 1119 3500 
L 1119 1403 
Q 1119 906 1312 657 
Q 1506 409 1894 409 
Q 2359 409 2629 706 
Q 2900 1003 2900 1516 
L 2900 3500 
L 3475 3500 
L 3475 0 
L 2900 0 
L 2900 538 
Q 2691 219 2414 64 
Q 2138 -91 1772 -91 
Q 1169 -91 856 284 
Q 544 659 544 1381 
z
M 1991 3584 
L 1991 3584 
z
" transform="scale(0.015625)"/>
       <path id="DejaVuSans-69" d="M 603 3500 
L 1178 3500 
L 1178 0 
L 603 0 
L 603 3500 
z
M 603 4863 
L 1178 4863 
L 1178 4134 
L 603 4134 
L 603 4863 
z
" transform="scale(0.015625)"/>
      </defs>
      <use xlink:href="#DejaVuSans-31" transform="translate(0 0.015625)"/>
      <use xlink:href="#DejaVuSans-Oblique-3c3" transform="translate(63.623047 0.015625)"/>
      <use xlink:href="#DejaVuSans-20" transform="translate(127.001953 0.015625)"/>
      <use xlink:href="#DejaVuSans-4e" transform="translate(158.789062 0.015625)"/>
      <use xlink:href="#DejaVuSans-75" transform="translate(233.59375 0.015625)"/>
      <use xlink:href="#DejaVuSans-69" transform="translate(296.972656 0.015625)"/>
      <use xlink:href="#DejaVuSans-73" transform="translate(324.755859 0.015625)"/>
      <use xlink:href="#DejaVuSans-61" transform="translate(376.855469 0.015625)"/>
      <use xlink:href="#DejaVuSans-6e" transform="translate(438.134766 0.015625)"/>
      <use xlink:href="#DejaVuSans-63" transform="translate(501.513672 0.015625)"/>
      <use xlink:href="#DejaVuSans-65" transform="translate(556.494141 0.015625)"/>
     </g>
    </g>
    <g id="line2d_73">
     <path d="M 69.468889 161.174987 
L 79.468889 161.174987 
L 89.468889 161.174987 
" style="fill: none; stroke-dasharray: 1.5,2.475; stroke-dashoffset: 0; stroke: #000000; stroke-width: 1.5"/>
    </g>
    <g id="text_10">
     <!-- Input -->
     <g transform="translate(97.468889 164.674987) scale(0.1 -0.1)">
      <defs>
       <path id="DejaVuSans-49" d="M 628 4666 
L 1259 4666 
L 1259 0 
L 628 0 
L 628 4666 
z
" transform="scale(0.015625)"/>
      </defs>
      <use xlink:href="#DejaVuSans-49"/>
      <use xlink:href="#DejaVuSans-6e" x="29.492188"/>
      <use xlink:href="#DejaVuSans-70" x="92.871094"/>
      <use xlink:href="#DejaVuSans-75" x="156.347656"/>
      <use xlink:href="#DejaVuSans-74" x="219.726562"/>
     </g>
    </g>
    <g id="LineCollection_2">
     <path d="M 79.468889 180.853113 
L 79.468889 170.853113 
" style="fill: none; stroke: #00008b; stroke-opacity: 0.7; stroke-width: 1.5"/>
    </g>
    <g id="line2d_74">
     <path d="M 69.468889 175.853113 
L 89.468889 175.853113 
" style="fill: none; stroke: #00008b; stroke-opacity: 0.7; stroke-width: 1.5; stroke-linecap: square"/>
    </g>
    <g id="line2d_75"/>
    <g id="text_11">
     <!-- Mean and Std -->
     <g transform="translate(97.468889 179.353113) scale(0.1 -0.1)">
      <defs>
       <path id="DejaVuSans-4d" d="M 628 4666 
L 1569 4666 
L 2759 1491 
L 3956 4666 
L 4897 4666 
L 4897 0 
L 4281 0 
L 4281 4097 
L 3078 897 
L 2444 897 
L 1241 4097 
L 1241 0 
L 628 0 
L 628 4666 
z
" transform="scale(0.015625)"/>
      </defs>
      <use xlink:href="#DejaVuSans-4d"/>
      <use xlink:href="#DejaVuSans-65" x="86.279297"/>
      <use xlink:href="#DejaVuSans-61" x="147.802734"/>
      <use xlink:href="#DejaVuSans-6e" x="209.082031"/>
      <use xlink:href="#DejaVuSans-20" x="272.460938"/>
      <use xlink:href="#DejaVuSans-61" x="304.248047"/>
      <use xlink:href="#DejaVuSans-6e" x="365.527344"/>
      <use xlink:href="#DejaVuSans-64" x="428.90625"/>
      <use xlink:href="#DejaVuSans-20" x="492.382812"/>
      <use xlink:href="#DejaVuSans-53" x="524.169922"/>
      <use xlink:href="#DejaVuSans-74" x="587.646484"/>
      <use xlink:href="#DejaVuSans-64" x="626.855469"/>
     </g>
    </g>
   </g>
  </g>
  <g id="axes_2">
   <g id="patch_10">
    <path d="M 60.468889 314.728 
L 349.2 314.728 
L 349.2 204.7328 
L 60.468889 204.7328 
z
" style="fill: #ffffff"/>
   </g>
   <g id="matplotlib.axis_3">
    <g id="xtick_24">
     <g id="line2d_76">
      <g>
       <use xlink:href="#m8ae2016f8c" x="111.812345" y="314.728" style="stroke: #000000; stroke-width: 0.8"/>
      </g>
     </g>
     <g id="text_12">
      <!-- $\mathdefault{10^{0}}$ -->
      <g transform="translate(103.012345 329.326437) scale(0.1 -0.1)">
       <use xlink:href="#DejaVuSans-31" transform="translate(0 0.765625)"/>
       <use xlink:href="#DejaVuSans-30" transform="translate(63.623047 0.765625)"/>
       <use xlink:href="#DejaVuSans-30" transform="translate(128.203125 39.046875) scale(0.7)"/>
      </g>
     </g>
    </g>
    <g id="xtick_25">
     <g id="line2d_77">
      <g>
       <use xlink:href="#m8ae2016f8c" x="234.114151" y="314.728" style="stroke: #000000; stroke-width: 0.8"/>
      </g>
     </g>
     <g id="text_13">
      <!-- $\mathdefault{10^{1}}$ -->
      <g transform="translate(225.314151 329.326437) scale(0.1 -0.1)">
       <use xlink:href="#DejaVuSans-31" transform="translate(0 0.684375)"/>
       <use xlink:href="#DejaVuSans-30" transform="translate(63.623047 0.684375)"/>
       <use xlink:href="#DejaVuSans-31" transform="translate(128.203125 38.965625) scale(0.7)"/>
      </g>
     </g>
    </g>
    <g id="xtick_26">
     <g id="line2d_78">
      <g>
       <use xlink:href="#md86136069f" x="63.143563" y="314.728" style="stroke: #000000; stroke-width: 0.6"/>
      </g>
     </g>
    </g>
    <g id="xtick_27">
     <g id="line2d_79">
      <g>
       <use xlink:href="#md86136069f" x="74.995833" y="314.728" style="stroke: #000000; stroke-width: 0.6"/>
      </g>
     </g>
    </g>
    <g id="xtick_28">
     <g id="line2d_80">
      <g>
       <use xlink:href="#md86136069f" x="84.679842" y="314.728" style="stroke: #000000; stroke-width: 0.6"/>
      </g>
     </g>
    </g>
    <g id="xtick_29">
     <g id="line2d_81">
      <g>
       <use xlink:href="#md86136069f" x="92.867556" y="314.728" style="stroke: #000000; stroke-width: 0.6"/>
      </g>
     </g>
    </g>
    <g id="xtick_30">
     <g id="line2d_82">
      <g>
       <use xlink:href="#md86136069f" x="99.960076" y="314.728" style="stroke: #000000; stroke-width: 0.6"/>
      </g>
     </g>
    </g>
    <g id="xtick_31">
     <g id="line2d_83">
      <g>
       <use xlink:href="#md86136069f" x="106.216121" y="314.728" style="stroke: #000000; stroke-width: 0.6"/>
      </g>
     </g>
    </g>
    <g id="xtick_32">
     <g id="line2d_84">
      <g>
       <use xlink:href="#md86136069f" x="148.628857" y="314.728" style="stroke: #000000; stroke-width: 0.6"/>
      </g>
     </g>
    </g>
    <g id="xtick_33">
     <g id="line2d_85">
      <g>
       <use xlink:href="#md86136069f" x="170.165136" y="314.728" style="stroke: #000000; stroke-width: 0.6"/>
      </g>
     </g>
    </g>
    <g id="xtick_34">
     <g id="line2d_86">
      <g>
       <use xlink:href="#md86136069f" x="185.44537" y="314.728" style="stroke: #000000; stroke-width: 0.6"/>
      </g>
     </g>
    </g>
    <g id="xtick_35">
     <g id="line2d_87">
      <g>
       <use xlink:href="#md86136069f" x="197.297639" y="314.728" style="stroke: #000000; stroke-width: 0.6"/>
      </g>
     </g>
    </g>
    <g id="xtick_36">
     <g id="line2d_88">
      <g>
       <use xlink:href="#md86136069f" x="206.981649" y="314.728" style="stroke: #000000; stroke-width: 0.6"/>
      </g>
     </g>
    </g>
    <g id="xtick_37">
     <g id="line2d_89">
      <g>
       <use xlink:href="#md86136069f" x="215.169362" y="314.728" style="stroke: #000000; stroke-width: 0.6"/>
      </g>
     </g>
    </g>
    <g id="xtick_38">
     <g id="line2d_90">
      <g>
       <use xlink:href="#md86136069f" x="222.261882" y="314.728" style="stroke: #000000; stroke-width: 0.6"/>
      </g>
     </g>
    </g>
    <g id="xtick_39">
     <g id="line2d_91">
      <g>
       <use xlink:href="#md86136069f" x="228.517928" y="314.728" style="stroke: #000000; stroke-width: 0.6"/>
      </g>
     </g>
    </g>
    <g id="xtick_40">
     <g id="line2d_92">
      <g>
       <use xlink:href="#md86136069f" x="270.930664" y="314.728" style="stroke: #000000; stroke-width: 0.6"/>
      </g>
     </g>
    </g>
    <g id="xtick_41">
     <g id="line2d_93">
      <g>
       <use xlink:href="#md86136069f" x="292.466943" y="314.728" style="stroke: #000000; stroke-width: 0.6"/>
      </g>
     </g>
    </g>
    <g id="xtick_42">
     <g id="line2d_94">
      <g>
       <use xlink:href="#md86136069f" x="307.747176" y="314.728" style="stroke: #000000; stroke-width: 0.6"/>
      </g>
     </g>
    </g>
    <g id="xtick_43">
     <g id="line2d_95">
      <g>
       <use xlink:href="#md86136069f" x="319.599446" y="314.728" style="stroke: #000000; stroke-width: 0.6"/>
      </g>
     </g>
    </g>
    <g id="xtick_44">
     <g id="line2d_96">
      <g>
       <use xlink:href="#md86136069f" x="329.283455" y="314.728" style="stroke: #000000; stroke-width: 0.6"/>
      </g>
     </g>
    </g>
    <g id="xtick_45">
     <g id="line2d_97">
      <g>
       <use xlink:href="#md86136069f" x="337.471168" y="314.728" style="stroke: #000000; stroke-width: 0.6"/>
      </g>
     </g>
    </g>
    <g id="xtick_46">
     <g id="line2d_98">
      <g>
       <use xlink:href="#md86136069f" x="344.563688" y="314.728" style="stroke: #000000; stroke-width: 0.6"/>
      </g>
     </g>
    </g>
    <g id="text_14">
     <!-- Energy [TeV] -->
     <g transform="translate(173.136788 343.004563) scale(0.1 -0.1)">
      <defs>
       <path id="DejaVuSans-45" d="M 628 4666 
L 3578 4666 
L 3578 4134 
L 1259 4134 
L 1259 2753 
L 3481 2753 
L 3481 2222 
L 1259 2222 
L 1259 531 
L 3634 531 
L 3634 0 
L 628 0 
L 628 4666 
z
" transform="scale(0.015625)"/>
       <path id="DejaVuSans-67" d="M 2906 1791 
Q 2906 2416 2648 2759 
Q 2391 3103 1925 3103 
Q 1463 3103 1205 2759 
Q 947 2416 947 1791 
Q 947 1169 1205 825 
Q 1463 481 1925 481 
Q 2391 481 2648 825 
Q 2906 1169 2906 1791 
z
M 3481 434 
Q 3481 -459 3084 -895 
Q 2688 -1331 1869 -1331 
Q 1566 -1331 1297 -1286 
Q 1028 -1241 775 -1147 
L 775 -588 
Q 1028 -725 1275 -790 
Q 1522 -856 1778 -856 
Q 2344 -856 2625 -561 
Q 2906 -266 2906 331 
L 2906 616 
Q 2728 306 2450 153 
Q 2172 0 1784 0 
Q 1141 0 747 490 
Q 353 981 353 1791 
Q 353 2603 747 3093 
Q 1141 3584 1784 3584 
Q 2172 3584 2450 3431 
Q 2728 3278 2906 2969 
L 2906 3500 
L 3481 3500 
L 3481 434 
z
" transform="scale(0.015625)"/>
       <path id="DejaVuSans-79" d="M 2059 -325 
Q 1816 -950 1584 -1140 
Q 1353 -1331 966 -1331 
L 506 -1331 
L 506 -850 
L 844 -850 
Q 1081 -850 1212 -737 
Q 1344 -625 1503 -206 
L 1606 56 
L 191 3500 
L 800 3500 
L 1894 763 
L 2988 3500 
L 3597 3500 
L 2059 -325 
z
" transform="scale(0.015625)"/>
      </defs>
      <use xlink:href="#DejaVuSans-45"/>
      <use xlink:href="#DejaVuSans-6e" x="63.183594"/>
      <use xlink:href="#DejaVuSans-65" x="126.5625"/>
      <use xlink:href="#DejaVuSans-72" x="188.085938"/>
      <use xlink:href="#DejaVuSans-67" x="227.449219"/>
      <use xlink:href="#DejaVuSans-79" x="290.925781"/>
      <use xlink:href="#DejaVuSans-20" x="350.105469"/>
      <use xlink:href="#DejaVuSans-5b" x="381.892578"/>
      <use xlink:href="#DejaVuSans-54" x="420.90625"/>
      <use xlink:href="#DejaVuSans-65" x="464.990234"/>
      <use xlink:href="#DejaVuSans-56" x="526.513672"/>
      <use xlink:href="#DejaVuSans-5d" x="594.921875"/>
     </g>
    </g>
   </g>
   <g id="matplotlib.axis_4">
    <g id="ytick_46">
     <g id="line2d_99">
      <g>
       <use xlink:href="#m2c337dca06" x="60.468889" y="296.802445" style="stroke: #000000; stroke-width: 0.8"/>
      </g>
     </g>
     <g id="text_15">
      <!-- 0.5 -->
      <g transform="translate(37.565764 300.601664) scale(0.1 -0.1)">
       <use xlink:href="#DejaVuSans-30"/>
       <use xlink:href="#DejaVuSans-2e" x="63.623047"/>
       <use xlink:href="#DejaVuSans-35" x="95.410156"/>
      </g>
     </g>
    </g>
    <g id="ytick_47">
     <g id="line2d_100">
      <g>
       <use xlink:href="#m2c337dca06" x="60.468889" y="269.962955" style="stroke: #000000; stroke-width: 0.8"/>
      </g>
     </g>
     <g id="text_16">
      <!-- 0.6 -->
      <g transform="translate(37.565764 273.762174) scale(0.1 -0.1)">
       <use xlink:href="#DejaVuSans-30"/>
       <use xlink:href="#DejaVuSans-2e" x="63.623047"/>
       <use xlink:href="#DejaVuSans-36" x="95.410156"/>
      </g>
     </g>
    </g>
    <g id="ytick_48">
     <g id="line2d_101">
      <g>
       <use xlink:href="#m2c337dca06" x="60.468889" y="243.123466" style="stroke: #000000; stroke-width: 0.8"/>
      </g>
     </g>
     <g id="text_17">
      <!-- 0.7 -->
      <g transform="translate(37.565764 246.922684) scale(0.1 -0.1)">
       <defs>
        <path id="DejaVuSans-37" d="M 525 4666 
L 3525 4666 
L 3525 4397 
L 1831 0 
L 1172 0 
L 2766 4134 
L 525 4134 
L 525 4666 
z
" transform="scale(0.015625)"/>
       </defs>
       <use xlink:href="#DejaVuSans-30"/>
       <use xlink:href="#DejaVuSans-2e" x="63.623047"/>
       <use xlink:href="#DejaVuSans-37" x="95.410156"/>
      </g>
     </g>
    </g>
    <g id="ytick_49">
     <g id="line2d_102">
      <g>
       <use xlink:href="#m2c337dca06" x="60.468889" y="216.283976" style="stroke: #000000; stroke-width: 0.8"/>
      </g>
     </g>
     <g id="text_18">
      <!-- 0.8 -->
      <g transform="translate(37.565764 220.083195) scale(0.1 -0.1)">
       <use xlink:href="#DejaVuSans-30"/>
       <use xlink:href="#DejaVuSans-2e" x="63.623047"/>
       <use xlink:href="#DejaVuSans-38" x="95.410156"/>
      </g>
     </g>
    </g>
    <g id="text_19">
     <!-- Coverage -->
     <g transform="translate(31.486077 283.687431) rotate(-90) scale(0.1 -0.1)">
      <defs>
       <path id="DejaVuSans-43" d="M 4122 4306 
L 4122 3641 
Q 3803 3938 3442 4084 
Q 3081 4231 2675 4231 
Q 1875 4231 1450 3742 
Q 1025 3253 1025 2328 
Q 1025 1406 1450 917 
Q 1875 428 2675 428 
Q 3081 428 3442 575 
Q 3803 722 4122 1019 
L 4122 359 
Q 3791 134 3420 21 
Q 3050 -91 2638 -91 
Q 1578 -91 968 557 
Q 359 1206 359 2328 
Q 359 3453 968 4101 
Q 1578 4750 2638 4750 
Q 3056 4750 3426 4639 
Q 3797 4528 4122 4306 
z
" transform="scale(0.015625)"/>
       <path id="DejaVuSans-6f" d="M 1959 3097 
Q 1497 3097 1228 2736 
Q 959 2375 959 1747 
Q 959 1119 1226 758 
Q 1494 397 1959 397 
Q 2419 397 2687 759 
Q 2956 1122 2956 1747 
Q 2956 2369 2687 2733 
Q 2419 3097 1959 3097 
z
M 1959 3584 
Q 2709 3584 3137 3096 
Q 3566 2609 3566 1747 
Q 3566 888 3137 398 
Q 2709 -91 1959 -91 
Q 1206 -91 779 398 
Q 353 888 353 1747 
Q 353 2609 779 3096 
Q 1206 3584 1959 3584 
z
" transform="scale(0.015625)"/>
       <path id="DejaVuSans-76" d="M 191 3500 
L 800 3500 
L 1894 563 
L 2988 3500 
L 3597 3500 
L 2284 0 
L 1503 0 
L 191 3500 
z
" transform="scale(0.015625)"/>
      </defs>
      <use xlink:href="#DejaVuSans-43"/>
      <use xlink:href="#DejaVuSans-6f" x="69.824219"/>
      <use xlink:href="#DejaVuSans-76" x="131.005859"/>
      <use xlink:href="#DejaVuSans-65" x="190.185547"/>
      <use xlink:href="#DejaVuSans-72" x="251.708984"/>
      <use xlink:href="#DejaVuSans-61" x="292.822266"/>
      <use xlink:href="#DejaVuSans-67" x="354.101562"/>
      <use xlink:href="#DejaVuSans-65" x="417.578125"/>
     </g>
    </g>
   </g>
   <g id="LineCollection_3">
    <path d="M 76.18452 286.579158 
L 76.18452 255.359714 
" clip-path="url(#p5a96621f07)" style="fill: none; stroke: #ff0000; stroke-width: 1.5"/>
    <path d="M 91.472246 286.914652 
L 91.472246 255.695208 
" clip-path="url(#p5a96621f07)" style="fill: none; stroke: #ff0000; stroke-width: 1.5"/>
    <path d="M 106.759972 285.908171 
L 106.759972 254.688727 
" clip-path="url(#p5a96621f07)" style="fill: none; stroke: #ff0000; stroke-width: 1.5"/>
    <path d="M 122.047698 296.979461 
L 122.047698 265.760017 
" clip-path="url(#p5a96621f07)" style="fill: none; stroke: #ff0000; stroke-width: 1.5"/>
    <path d="M 137.335423 308.05075 
L 137.335423 276.831306 
" clip-path="url(#p5a96621f07)" style="fill: none; stroke: #ff0000; stroke-width: 1.5"/>
    <path d="M 152.623149 309.728218 
L 152.623149 278.508774 
" clip-path="url(#p5a96621f07)" style="fill: none; stroke: #ff0000; stroke-width: 1.5"/>
    <path d="M 167.910875 304.024827 
L 167.910875 272.805383 
" clip-path="url(#p5a96621f07)" style="fill: none; stroke: #ff0000; stroke-width: 1.5"/>
    <path d="M 183.198601 295.637486 
L 183.198601 264.418042 
" clip-path="url(#p5a96621f07)" style="fill: none; stroke: #ff0000; stroke-width: 1.5"/>
    <path d="M 198.486327 288.59212 
L 198.486327 257.372676 
" clip-path="url(#p5a96621f07)" style="fill: none; stroke: #ff0000; stroke-width: 1.5"/>
    <path d="M 213.774052 281.882248 
L 213.774052 250.662804 
" clip-path="url(#p5a96621f07)" style="fill: none; stroke: #ff0000; stroke-width: 1.5"/>
    <path d="M 229.061778 278.862805 
L 229.061778 247.643361 
" clip-path="url(#p5a96621f07)" style="fill: none; stroke: #ff0000; stroke-width: 1.5"/>
    <path d="M 244.349504 281.882248 
L 244.349504 250.662804 
" clip-path="url(#p5a96621f07)" style="fill: none; stroke: #ff0000; stroke-width: 1.5"/>
    <path d="M 259.63723 280.875767 
L 259.63723 249.656323 
" clip-path="url(#p5a96621f07)" style="fill: none; stroke: #ff0000; stroke-width: 1.5"/>
    <path d="M 274.924955 268.127009 
L 274.924955 236.907565 
" clip-path="url(#p5a96621f07)" style="fill: none; stroke: #ff0000; stroke-width: 1.5"/>
    <path d="M 290.212681 240.952026 
L 290.212681 209.732582 
" clip-path="url(#p5a96621f07)" style="fill: none; stroke: #ff0000; stroke-width: 1.5"/>
    <path d="M 305.500407 247.661898 
L 305.500407 216.442454 
" clip-path="url(#p5a96621f07)" style="fill: none; stroke: #ff0000; stroke-width: 1.5"/>
    <path d="M 320.788133 254.707264 
L 320.788133 223.48782 
" clip-path="url(#p5a96621f07)" style="fill: none; stroke: #ff0000; stroke-width: 1.5"/>
    <path d="M 336.075859 262.088124 
L 336.075859 230.86868 
" clip-path="url(#p5a96621f07)" style="fill: none; stroke: #ff0000; stroke-width: 1.5"/>
   </g>
   <g id="LineCollection_4">
    <path d="M 73.593031 289.263107 
L 73.593031 258.043663 
" clip-path="url(#p5a96621f07)" style="fill: none; stroke: #008000; stroke-width: 1.5"/>
    <path d="M 88.880757 274.836881 
L 88.880757 243.617438 
" clip-path="url(#p5a96621f07)" style="fill: none; stroke: #008000; stroke-width: 1.5"/>
    <path d="M 104.168482 260.075162 
L 104.168482 228.855718 
" clip-path="url(#p5a96621f07)" style="fill: none; stroke: #008000; stroke-width: 1.5"/>
    <path d="M 119.456208 245.648936 
L 119.456208 214.429493 
" clip-path="url(#p5a96621f07)" style="fill: none; stroke: #008000; stroke-width: 1.5"/>
    <path d="M 134.743934 256.049239 
L 134.743934 224.829795 
" clip-path="url(#p5a96621f07)" style="fill: none; stroke: #008000; stroke-width: 1.5"/>
    <path d="M 150.03166 268.797996 
L 150.03166 237.578552 
" clip-path="url(#p5a96621f07)" style="fill: none; stroke: #008000; stroke-width: 1.5"/>
    <path d="M 165.319385 273.494907 
L 165.319385 242.275463 
" clip-path="url(#p5a96621f07)" style="fill: none; stroke: #008000; stroke-width: 1.5"/>
    <path d="M 180.607111 267.791515 
L 180.607111 236.572072 
" clip-path="url(#p5a96621f07)" style="fill: none; stroke: #008000; stroke-width: 1.5"/>
    <path d="M 195.894837 266.114047 
L 195.894837 234.894604 
" clip-path="url(#p5a96621f07)" style="fill: none; stroke: #008000; stroke-width: 1.5"/>
    <path d="M 211.182563 264.772073 
L 211.182563 233.552629 
" clip-path="url(#p5a96621f07)" style="fill: none; stroke: #008000; stroke-width: 1.5"/>
    <path d="M 226.470289 268.127009 
L 226.470289 236.907565 
" clip-path="url(#p5a96621f07)" style="fill: none; stroke: #008000; stroke-width: 1.5"/>
    <path d="M 241.758014 283.224222 
L 241.758014 252.004778 
" clip-path="url(#p5a96621f07)" style="fill: none; stroke: #008000; stroke-width: 1.5"/>
    <path d="M 257.04574 293.960018 
L 257.04574 262.740574 
" clip-path="url(#p5a96621f07)" style="fill: none; stroke: #008000; stroke-width: 1.5"/>
    <path d="M 272.333466 299.66341 
L 272.333466 268.443966 
" clip-path="url(#p5a96621f07)" style="fill: none; stroke: #008000; stroke-width: 1.5"/>
    <path d="M 287.621192 260.075162 
L 287.621192 228.855718 
" clip-path="url(#p5a96621f07)" style="fill: none; stroke: #008000; stroke-width: 1.5"/>
    <path d="M 302.908917 253.700783 
L 302.908917 222.481339 
" clip-path="url(#p5a96621f07)" style="fill: none; stroke: #008000; stroke-width: 1.5"/>
    <path d="M 318.196643 259.404175 
L 318.196643 228.184731 
" clip-path="url(#p5a96621f07)" style="fill: none; stroke: #008000; stroke-width: 1.5"/>
    <path d="M 333.484369 266.114047 
L 333.484369 234.894604 
" clip-path="url(#p5a96621f07)" style="fill: none; stroke: #008000; stroke-width: 1.5"/>
   </g>
   <g id="line2d_103">
    <path d="M 73.593031 248.491364 
L 88.880757 248.491364 
L 104.168482 248.491364 
L 119.456208 248.491364 
L 134.743934 248.491364 
L 150.03166 248.491364 
L 165.319385 248.491364 
L 180.607111 248.491364 
L 195.894837 248.491364 
L 211.182563 248.491364 
L 226.470289 248.491364 
L 241.758014 248.491364 
L 257.04574 248.491364 
L 272.333466 248.491364 
L 287.621192 248.491364 
L 302.908917 248.491364 
L 318.196643 248.491364 
L 333.484369 248.491364 
" clip-path="url(#p5a96621f07)" style="fill: none; stroke-dasharray: 1.5,2.475; stroke-dashoffset: 0; stroke: #000000; stroke-width: 1.5"/>
   </g>
   <g id="line2d_104">
    <path d="M 76.18452 270.969436 
L 91.472246 271.30493 
L 106.759972 270.298449 
L 122.047698 281.369739 
L 137.335423 292.441028 
L 152.623149 294.118496 
L 167.910875 288.415105 
L 183.198601 280.027764 
L 198.486327 272.982398 
L 213.774052 266.272526 
L 229.061778 263.253083 
L 244.349504 266.272526 
L 259.63723 265.266045 
L 274.924955 252.517287 
L 290.212681 225.342304 
L 305.500407 232.052176 
L 320.788133 239.097542 
L 336.075859 246.478402 
" clip-path="url(#p5a96621f07)" style="fill: none; stroke: #ff0000; stroke-width: 1.5; stroke-linecap: square"/>
   </g>
   <g id="line2d_105">
    <path d="M 73.593031 273.653385 
L 88.880757 259.22716 
L 104.168482 244.46544 
L 119.456208 230.039214 
L 134.743934 240.439517 
L 150.03166 253.188274 
L 165.319385 257.885185 
L 180.607111 252.181793 
L 195.894837 250.504325 
L 211.182563 249.162351 
L 226.470289 252.517287 
L 241.758014 267.6145 
L 257.04574 278.350296 
L 272.333466 284.053688 
L 287.621192 244.46544 
L 302.908917 238.091061 
L 318.196643 243.794453 
L 333.484369 250.504325 
" clip-path="url(#p5a96621f07)" style="fill: none; stroke: #008000; stroke-width: 1.5; stroke-linecap: square"/>
   </g>
   <g id="patch_11">
    <path d="M 60.468889 314.728 
L 60.468889 204.7328 
" style="fill: none; stroke: #000000; stroke-width: 0.8; stroke-linejoin: miter; stroke-linecap: square"/>
   </g>
   <g id="patch_12">
    <path d="M 349.2 314.728 
L 349.2 204.7328 
" style="fill: none; stroke: #000000; stroke-width: 0.8; stroke-linejoin: miter; stroke-linecap: square"/>
   </g>
   <g id="patch_13">
    <path d="M 60.468889 314.728 
L 349.2 314.728 
" style="fill: none; stroke: #000000; stroke-width: 0.8; stroke-linejoin: miter; stroke-linecap: square"/>
   </g>
   <g id="patch_14">
    <path d="M 60.468889 204.7328 
L 349.2 204.7328 
" style="fill: none; stroke: #000000; stroke-width: 0.8; stroke-linejoin: miter; stroke-linecap: square"/>
   </g>
   <g id="legend_2">
    <g id="patch_15">
     <path d="M 67.468889 242.08905 
L 242.065764 242.08905 
Q 244.065764 242.08905 244.065764 240.08905 
L 244.065764 211.7328 
Q 244.065764 209.7328 242.065764 209.7328 
L 67.468889 209.7328 
Q 65.468889 209.7328 65.468889 211.7328 
L 65.468889 240.08905 
Q 65.468889 242.08905 67.468889 242.08905 
z
" style="fill: #ffffff; opacity: 0.8; stroke: #cccccc; stroke-linejoin: miter"/>
    </g>
    <g id="line2d_106">
     <path d="M 69.468889 217.831238 
L 79.468889 217.831238 
L 89.468889 217.831238 
" style="fill: none; stroke-dasharray: 1.5,2.475; stroke-dashoffset: 0; stroke: #000000; stroke-width: 1.5"/>
    </g>
    <g id="text_20">
     <!-- 68 % -->
     <g transform="translate(97.468889 221.331238) scale(0.1 -0.1)">
      <use xlink:href="#DejaVuSans-36"/>
      <use xlink:href="#DejaVuSans-38" x="63.623047"/>
      <use xlink:href="#DejaVuSans-20" x="127.246094"/>
      <use xlink:href="#DejaVuSans-25" x="159.033203"/>
     </g>
    </g>
    <g id="LineCollection_5">
     <path d="M 79.468889 237.509363 
L 79.468889 227.509363 
" style="fill: none; stroke: #ff0000; stroke-width: 1.5"/>
    </g>
    <g id="line2d_107">
     <path d="M 69.468889 232.509363 
L 89.468889 232.509363 
" style="fill: none; stroke: #ff0000; stroke-width: 1.5; stroke-linecap: square"/>
    </g>
    <g id="line2d_108"/>
    <g id="text_21">
     <!-- Standard  -->
     <g transform="translate(97.468889 236.009363) scale(0.1 -0.1)">
      <use xlink:href="#DejaVuSans-53"/>
      <use xlink:href="#DejaVuSans-74" x="63.476562"/>
      <use xlink:href="#DejaVuSans-61" x="102.685547"/>
      <use xlink:href="#DejaVuSans-6e" x="163.964844"/>
      <use xlink:href="#DejaVuSans-64" x="227.34375"/>
      <use xlink:href="#DejaVuSans-61" x="290.820312"/>
      <use xlink:href="#DejaVuSans-72" x="352.099609"/>
      <use xlink:href="#DejaVuSans-64" x="391.462891"/>
      <use xlink:href="#DejaVuSans-20" x="454.939453"/>
     </g>
    </g>
    <g id="LineCollection_6">
     <path d="M 176.142327 222.831238 
L 176.142327 212.831238 
" style="fill: none; stroke: #008000; stroke-width: 1.5"/>
    </g>
    <g id="line2d_109">
     <path d="M 166.142327 217.831238 
L 186.142327 217.831238 
" style="fill: none; stroke: #008000; stroke-width: 1.5; stroke-linecap: square"/>
    </g>
    <g id="line2d_110"/>
    <g id="text_22">
     <!-- Nuisance -->
     <g transform="translate(194.142327 221.331238) scale(0.1 -0.1)">
      <use xlink:href="#DejaVuSans-4e"/>
      <use xlink:href="#DejaVuSans-75" x="74.804688"/>
      <use xlink:href="#DejaVuSans-69" x="138.183594"/>
      <use xlink:href="#DejaVuSans-73" x="165.966797"/>
      <use xlink:href="#DejaVuSans-61" x="218.066406"/>
      <use xlink:href="#DejaVuSans-6e" x="279.345703"/>
      <use xlink:href="#DejaVuSans-63" x="342.724609"/>
      <use xlink:href="#DejaVuSans-65" x="397.705078"/>
     </g>
    </g>
   </g>
  </g>
 </g>
 <defs>
  <clipPath id="pcf58deebe5">
   <rect x="60.468889" y="25.44" width="288.731111" height="164.9928"/>
  </clipPath>
  <clipPath id="p5a96621f07">
   <rect x="60.468889" y="204.7328" width="288.731111" height="109.9952"/>
  </clipPath>
 </defs>
</svg>
