<?xml version="1.0" encoding="utf-8" standalone="no"?>
<!DOCTYPE svg PUBLIC "-//W3C//DTD SVG 1.1//EN"
  "http://www.w3.org/Graphics/SVG/1.1/DTD/svg11.dtd">
<svg xmlns:xlink="http://www.w3.org/1999/xlink" width="360pt" height="360pt" viewBox="0 0 360 360" xmlns="http://www.w3.org/2000/svg" version="1.1">
 <metadata>
  <rdf:RDF xmlns:dc="http://purl.org/dc/elements/1.1/" xmlns:cc="http://creativecommons.org/ns#" xmlns:rdf="http://www.w3.org/1999/02/22-rdf-syntax-ns#">
   <cc:Work>
    <dc:type rdf:resource="http://purl.org/dc/dcmitype/StillImage"/>
    <dc:date>2023-03-09T17:05:47.643785</dc:date>
    <dc:format>image/svg+xml</dc:format>
    <dc:creator>
     <cc:Agent>
      <dc:title>Matplotlib v3.6.2, https://matplotlib.org/</dc:title>
     </cc:Agent>
    </dc:creator>
   </cc:Work>
  </rdf:RDF>
 </metadata>
 <defs>
  <style type="text/css">*{stroke-linejoin: round; stroke-linecap: butt}</style>
 </defs>
 <g id="figure_1">
  <g id="patch_1">
   <path d="M 0 360 
L 360 360 
L 360 0 
L 0 0 
z
" style="fill: #ffffff"/>
  </g>
  <g id="axes_1">
   <g id="patch_2">
    <path d="M 60.468889 190.4328 
L 349.2 190.4328 
L 349.2 25.44 
L 60.468889 25.44 
z
" style="fill: #ffffff"/>
   </g>
   <g id="PolyCollection_1">
    <path d="M 74.892487 41.083106 
L 74.892487 47.037685 
L 77.491401 47.190665 
L 80.090314 47.348059 
L 82.689228 47.510015 
L 85.288141 47.676688 
L 87.887054 47.848243 
L 90.485968 48.02485 
L 93.084881 48.206687 
L 95.683795 48.393937 
L 98.282708 48.586791 
L 100.881621 48.785445 
L 103.480535 48.990099 
L 106.079448 49.200957 
L 108.678361 49.418224 
L 111.277275 49.642111 
L 113.876188 49.872823 
L 116.475102 50.110571 
L 119.074015 50.355559 
L 121.672928 50.607991 
L 124.271842 50.868067 
L 126.870755 51.135985 
L 129.469668 51.411937 
L 132.068582 51.696114 
L 134.667495 51.988702 
L 137.266409 52.289889 
L 139.865322 52.599864 
L 142.464235 52.918818 
L 145.063149 53.246949 
L 147.662062 53.584466 
L 150.260976 53.931592 
L 152.859889 54.288568 
L 155.458802 54.655656 
L 158.057716 55.033146 
L 160.656629 55.421359 
L 163.255542 55.820654 
L 165.854456 56.231431 
L 168.453369 56.654135 
L 171.052283 57.089264 
L 173.651196 57.537373 
L 176.250109 57.999079 
L 178.849023 58.475065 
L 181.447936 58.966089 
L 184.04685 59.472985 
L 186.645763 59.996672 
L 189.244676 60.53816 
L 191.84359 61.098552 
L 194.442503 61.679053 
L 197.041416 62.280974 
L 199.64033 62.905741 
L 202.239243 63.554898 
L 204.838157 64.230118 
L 207.43707 64.933204 
L 210.035983 65.666103 
L 212.634897 66.430914 
L 215.23381 67.229897 
L 217.832724 68.065487 
L 220.431637 68.940311 
L 223.03055 69.857208 
L 225.629464 70.819249 
L 228.228377 71.829771 
L 230.82729 72.892413 
L 233.426204 74.011162 
L 236.025117 75.190414 
L 238.624031 76.435042 
L 241.222944 77.750498 
L 243.821857 79.142927 
L 246.420771 80.619325 
L 249.019684 82.187748 
L 251.618597 83.857585 
L 254.217511 85.639936 
L 256.816424 87.548136 
L 259.415338 89.59851 
L 262.014251 91.811475 
L 264.613164 94.213229 
L 267.212078 96.838428 
L 269.810991 99.734645 
L 272.409905 102.970271 
L 275.008818 106.649633 
L 277.607731 110.945068 
L 280.206645 116.175591 
L 282.805558 123.048124 
L 285.404471 133.774284 
L 288.003385 182.933127 
L 290.602298 30984.59217 
L 293.201212 30984.59217 
L 295.800125 30984.59217 
L 298.399038 30984.59217 
L 300.997952 30984.59217 
L 303.596865 30984.59217 
L 306.195779 30984.59217 
L 308.794692 30984.59217 
L 311.393605 30984.59217 
L 313.992519 30984.59217 
L 316.591432 30984.59217 
L 319.190345 30984.59217 
L 321.789259 30984.59217 
L 324.388172 30984.59217 
L 326.987086 30984.59217 
L 329.585999 30984.59217 
L 332.184912 30984.59217 
L 332.184912 130.886346 
L 332.184912 130.886346 
L 329.585999 127.161713 
L 326.987086 123.623813 
L 324.388172 120.263157 
L 321.789259 117.070692 
L 319.190345 114.037786 
L 316.591432 111.156202 
L 313.992519 108.418087 
L 311.393605 105.815946 
L 308.794692 103.342636 
L 306.195779 100.99134 
L 303.596865 98.755561 
L 300.997952 96.629102 
L 298.399038 94.606056 
L 295.800125 92.680794 
L 293.201212 90.84795 
L 290.602298 89.102414 
L 288.003385 87.439319 
L 285.404471 85.854031 
L 282.805558 84.342141 
L 280.206645 82.899457 
L 277.607731 81.521993 
L 275.008818 80.205963 
L 272.409905 78.947772 
L 269.810991 77.744013 
L 267.212078 76.591454 
L 264.613164 75.487039 
L 262.014251 74.427875 
L 259.415338 73.411234 
L 256.816424 72.43454 
L 254.217511 71.49537 
L 251.618597 70.591448 
L 249.019684 69.720636 
L 246.420771 68.880938 
L 243.821857 68.070486 
L 241.222944 67.287545 
L 238.624031 66.530501 
L 236.025117 65.797861 
L 233.426204 65.088246 
L 230.82729 64.400388 
L 228.228377 63.733122 
L 225.629464 63.085383 
L 223.03055 62.456195 
L 220.431637 61.84467 
L 217.832724 61.249998 
L 215.23381 60.671437 
L 212.634897 60.10831 
L 210.035983 59.559994 
L 207.43707 59.025913 
L 204.838157 58.505531 
L 202.239243 57.998346 
L 199.64033 57.503879 
L 197.041416 57.021674 
L 194.442503 56.551289 
L 191.84359 56.092291 
L 189.244676 55.644257 
L 186.645763 55.206763 
L 184.04685 54.77939 
L 181.447936 54.361717 
L 178.849023 53.953321 
L 176.250109 53.553776 
L 173.651196 53.162656 
L 171.052283 52.77953 
L 168.453369 52.403968 
L 165.854456 52.035536 
L 163.255542 51.673802 
L 160.656629 51.318337 
L 158.057716 50.968713 
L 155.458802 50.624507 
L 152.859889 50.285306 
L 150.260976 49.950703 
L 147.662062 49.620305 
L 145.063149 49.293729 
L 142.464235 48.970613 
L 139.865322 48.650608 
L 137.266409 48.333387 
L 134.667495 48.018644 
L 132.068582 47.706098 
L 129.469668 47.395487 
L 126.870755 47.086578 
L 124.271842 46.77916 
L 121.672928 46.473046 
L 119.074015 46.168073 
L 116.475102 45.864101 
L 113.876188 45.561009 
L 111.277275 45.258698 
L 108.678361 44.957086 
L 106.079448 44.656104 
L 103.480535 44.355699 
L 100.881621 44.055832 
L 98.282708 43.75647 
L 95.683795 43.457592 
L 93.084881 43.159183 
L 90.485968 42.861233 
L 87.887054 42.563737 
L 85.288141 42.266694 
L 82.689228 41.970106 
L 80.090314 41.673976 
L 77.491401 41.378307 
L 74.892487 41.083106 
z
" clip-path="url(#p9ff4f564f9)" style="fill: #008000; fill-opacity: 0.5"/>
   </g>
   <g id="PolyCollection_2">
    <path d="M 74.892487 41.200417 
L 74.892487 47.202452 
L 77.491401 47.28541 
L 80.090314 47.374256 
L 82.689228 47.469163 
L 85.288141 47.570327 
L 87.887054 47.67797 
L 90.485968 47.792343 
L 93.084881 47.913732 
L 95.683795 48.042456 
L 98.282708 48.178874 
L 100.881621 48.323385 
L 103.480535 48.476433 
L 106.079448 48.638502 
L 108.678361 48.810123 
L 111.277275 48.991858 
L 113.876188 49.184299 
L 116.475102 49.388048 
L 119.074015 49.603696 
L 121.672928 49.831794 
L 124.271842 50.072817 
L 126.870755 50.327136 
L 129.469668 50.594981 
L 132.068582 50.87642 
L 134.667495 51.171361 
L 137.266409 51.479554 
L 139.865322 51.800623 
L 142.464235 52.134103 
L 145.063149 52.47948 
L 147.662062 52.836236 
L 150.260976 53.203883 
L 152.859889 53.58199 
L 155.458802 53.970205 
L 158.057716 54.368269 
L 160.656629 54.776023 
L 163.255542 55.193412 
L 165.854456 55.620495 
L 168.453369 56.057439 
L 171.052283 56.504529 
L 173.651196 56.962166 
L 176.250109 57.430877 
L 178.849023 57.91132 
L 181.447936 58.404289 
L 184.04685 58.910725 
L 186.645763 59.431727 
L 189.244676 59.968558 
L 191.84359 60.522661 
L 194.442503 61.095663 
L 197.041416 61.689389 
L 199.64033 62.305866 
L 202.239243 62.947328 
L 204.838157 63.616221 
L 207.43707 64.315201 
L 210.035983 65.047137 
L 212.634897 65.815106 
L 215.23381 66.622401 
L 217.832724 67.472537 
L 220.431637 68.369266 
L 223.03055 69.316606 
L 225.629464 70.318882 
L 228.228377 71.380789 
L 230.82729 72.507469 
L 233.426204 73.704625 
L 236.025117 74.978663 
L 238.624031 76.336877 
L 241.222944 77.7877 
L 243.821857 79.341032 
L 246.420771 81.008697 
L 249.019684 82.805081 
L 251.618597 84.748052 
L 254.217511 86.860342 
L 256.816424 89.17168 
L 259.415338 91.722275 
L 262.014251 94.56878 
L 264.613164 97.795274 
L 267.212078 101.535351 
L 269.810991 106.022336 
L 272.409905 111.725864 
L 275.008818 119.852214 
L 277.607731 135.939053 
L 280.206645 30984.59217 
L 282.805558 30984.59217 
L 285.404471 30984.59217 
L 288.003385 30984.59217 
L 290.602298 30984.59217 
L 293.201212 30984.59217 
L 295.800125 30984.59217 
L 298.399038 30984.59217 
L 300.997952 30984.59217 
L 303.596865 30984.59217 
L 306.195779 30984.59217 
L 308.794692 30984.59217 
L 311.393605 30984.59217 
L 313.992519 30984.59217 
L 316.591432 30984.59217 
L 319.190345 30984.59217 
L 321.789259 30984.59217 
L 324.388172 30984.59217 
L 326.987086 30984.59217 
L 329.585999 30984.59217 
L 332.184912 30984.59217 
L 332.184912 128.624343 
L 332.184912 128.624343 
L 329.585999 124.913225 
L 326.987086 121.39412 
L 324.388172 118.057377 
L 321.789259 114.89378 
L 319.190345 111.89453 
L 316.591432 109.051221 
L 313.992519 106.355825 
L 311.393605 103.80067 
L 308.794692 101.378424 
L 306.195779 99.082078 
L 303.596865 96.904932 
L 300.997952 94.84058 
L 298.399038 92.882894 
L 295.800125 91.026013 
L 293.201212 89.264332 
L 290.602298 87.592488 
L 288.003385 86.005349 
L 285.404471 84.498007 
L 282.805558 83.065764 
L 280.206645 81.704129 
L 277.607731 80.408805 
L 275.008818 79.175683 
L 272.409905 78.000836 
L 269.810991 76.880511 
L 267.212078 75.811124 
L 264.613164 74.789256 
L 262.014251 73.811645 
L 259.415338 72.875186 
L 256.816424 71.976924 
L 254.217511 71.114055 
L 251.618597 70.283921 
L 249.019684 69.48401 
L 246.420771 68.711958 
L 243.821857 67.965547 
L 241.222944 67.24271 
L 238.624031 66.541534 
L 236.025117 65.860261 
L 233.426204 65.197299 
L 230.82729 64.551222 
L 228.228377 63.920778 
L 225.629464 63.304891 
L 223.03055 62.702665 
L 220.431637 62.113379 
L 217.832724 61.536481 
L 215.23381 60.971579 
L 212.634897 60.418422 
L 210.035983 59.876882 
L 207.43707 59.346925 
L 204.838157 58.828589 
L 202.239243 58.321952 
L 199.64033 57.827114 
L 197.041416 57.344165 
L 194.442503 56.873174 
L 191.84359 56.41417 
L 189.244676 55.967133 
L 186.645763 55.531987 
L 184.04685 55.108597 
L 181.447936 54.696769 
L 178.849023 54.296245 
L 176.250109 53.906713 
L 173.651196 53.527798 
L 171.052283 53.159075 
L 168.453369 52.800058 
L 165.854456 52.450211 
L 163.255542 52.108939 
L 160.656629 51.775592 
L 158.057716 51.44946 
L 155.458802 51.129775 
L 152.859889 50.815707 
L 150.260976 50.506368 
L 147.662062 50.200818 
L 145.063149 49.898074 
L 142.464235 49.597126 
L 139.865322 49.296969 
L 137.266409 48.99663 
L 134.667495 48.695213 
L 132.068582 48.391932 
L 129.469668 48.086157 
L 126.870755 47.777431 
L 124.271842 47.465485 
L 121.672928 47.150226 
L 119.074015 46.831721 
L 116.475102 46.510161 
L 113.876188 46.185828 
L 111.277275 45.859059 
L 108.678361 45.530218 
L 106.079448 45.19967 
L 103.480535 44.867768 
L 100.881621 44.534842 
L 98.282708 44.201191 
L 95.683795 43.867084 
L 93.084881 43.532757 
L 90.485968 43.198416 
L 87.887054 42.864239 
L 85.288141 42.530378 
L 82.689228 42.196964 
L 80.090314 41.864106 
L 77.491401 41.531898 
L 74.892487 41.200417 
z
" clip-path="url(#p9ff4f564f9)" style="fill: #ff0000; fill-opacity: 0.6"/>
   </g>
   <g id="matplotlib.axis_1">
    <g id="xtick_1">
     <g id="line2d_1">
      <defs>
       <path id="m93198a92cf" d="M 0 0 
L 0 3.5 
" style="stroke: #000000; stroke-width: 0.8"/>
      </defs>
      <g>
       <use xlink:href="#m93198a92cf" x="111.812345" y="190.4328" style="stroke: #000000; stroke-width: 0.8"/>
      </g>
     </g>
    </g>
    <g id="xtick_2">
     <g id="line2d_2">
      <g>
       <use xlink:href="#m93198a92cf" x="234.114151" y="190.4328" style="stroke: #000000; stroke-width: 0.8"/>
      </g>
     </g>
    </g>
    <g id="xtick_3">
     <g id="line2d_3">
      <defs>
       <path id="mf03ac02084" d="M 0 0 
L 0 2 
" style="stroke: #000000; stroke-width: 0.6"/>
      </defs>
      <g>
       <use xlink:href="#mf03ac02084" x="63.143563" y="190.4328" style="stroke: #000000; stroke-width: 0.6"/>
      </g>
     </g>
    </g>
    <g id="xtick_4">
     <g id="line2d_4">
      <g>
       <use xlink:href="#mf03ac02084" x="74.995833" y="190.4328" style="stroke: #000000; stroke-width: 0.6"/>
      </g>
     </g>
    </g>
    <g id="xtick_5">
     <g id="line2d_5">
      <g>
       <use xlink:href="#mf03ac02084" x="84.679842" y="190.4328" style="stroke: #000000; stroke-width: 0.6"/>
      </g>
     </g>
    </g>
    <g id="xtick_6">
     <g id="line2d_6">
      <g>
       <use xlink:href="#mf03ac02084" x="92.867556" y="190.4328" style="stroke: #000000; stroke-width: 0.6"/>
      </g>
     </g>
    </g>
    <g id="xtick_7">
     <g id="line2d_7">
      <g>
       <use xlink:href="#mf03ac02084" x="99.960076" y="190.4328" style="stroke: #000000; stroke-width: 0.6"/>
      </g>
     </g>
    </g>
    <g id="xtick_8">
     <g id="line2d_8">
      <g>
       <use xlink:href="#mf03ac02084" x="106.216121" y="190.4328" style="stroke: #000000; stroke-width: 0.6"/>
      </g>
     </g>
    </g>
    <g id="xtick_9">
     <g id="line2d_9">
      <g>
       <use xlink:href="#mf03ac02084" x="148.628857" y="190.4328" style="stroke: #000000; stroke-width: 0.6"/>
      </g>
     </g>
    </g>
    <g id="xtick_10">
     <g id="line2d_10">
      <g>
       <use xlink:href="#mf03ac02084" x="170.165136" y="190.4328" style="stroke: #000000; stroke-width: 0.6"/>
      </g>
     </g>
    </g>
    <g id="xtick_11">
     <g id="line2d_11">
      <g>
       <use xlink:href="#mf03ac02084" x="185.44537" y="190.4328" style="stroke: #000000; stroke-width: 0.6"/>
      </g>
     </g>
    </g>
    <g id="xtick_12">
     <g id="line2d_12">
      <g>
       <use xlink:href="#mf03ac02084" x="197.297639" y="190.4328" style="stroke: #000000; stroke-width: 0.6"/>
      </g>
     </g>
    </g>
    <g id="xtick_13">
     <g id="line2d_13">
      <g>
       <use xlink:href="#mf03ac02084" x="206.981649" y="190.4328" style="stroke: #000000; stroke-width: 0.6"/>
      </g>
     </g>
    </g>
    <g id="xtick_14">
     <g id="line2d_14">
      <g>
       <use xlink:href="#mf03ac02084" x="215.169362" y="190.4328" style="stroke: #000000; stroke-width: 0.6"/>
      </g>
     </g>
    </g>
    <g id="xtick_15">
     <g id="line2d_15">
      <g>
       <use xlink:href="#mf03ac02084" x="222.261882" y="190.4328" style="stroke: #000000; stroke-width: 0.6"/>
      </g>
     </g>
    </g>
    <g id="xtick_16">
     <g id="line2d_16">
      <g>
       <use xlink:href="#mf03ac02084" x="228.517928" y="190.4328" style="stroke: #000000; stroke-width: 0.6"/>
      </g>
     </g>
    </g>
    <g id="xtick_17">
     <g id="line2d_17">
      <g>
       <use xlink:href="#mf03ac02084" x="270.930664" y="190.4328" style="stroke: #000000; stroke-width: 0.6"/>
      </g>
     </g>
    </g>
    <g id="xtick_18">
     <g id="line2d_18">
      <g>
       <use xlink:href="#mf03ac02084" x="292.466943" y="190.4328" style="stroke: #000000; stroke-width: 0.6"/>
      </g>
     </g>
    </g>
    <g id="xtick_19">
     <g id="line2d_19">
      <g>
       <use xlink:href="#mf03ac02084" x="307.747176" y="190.4328" style="stroke: #000000; stroke-width: 0.6"/>
      </g>
     </g>
    </g>
    <g id="xtick_20">
     <g id="line2d_20">
      <g>
       <use xlink:href="#mf03ac02084" x="319.599446" y="190.4328" style="stroke: #000000; stroke-width: 0.6"/>
      </g>
     </g>
    </g>
    <g id="xtick_21">
     <g id="line2d_21">
      <g>
       <use xlink:href="#mf03ac02084" x="329.283455" y="190.4328" style="stroke: #000000; stroke-width: 0.6"/>
      </g>
     </g>
    </g>
    <g id="xtick_22">
     <g id="line2d_22">
      <g>
       <use xlink:href="#mf03ac02084" x="337.471168" y="190.4328" style="stroke: #000000; stroke-width: 0.6"/>
      </g>
     </g>
    </g>
    <g id="xtick_23">
     <g id="line2d_23">
      <g>
       <use xlink:href="#mf03ac02084" x="344.563688" y="190.4328" style="stroke: #000000; stroke-width: 0.6"/>
      </g>
     </g>
    </g>
   </g>
   <g id="matplotlib.axis_2">
    <g id="ytick_1">
     <g id="line2d_24">
      <defs>
       <path id="mab5b5d996d" d="M 0 0 
L -3.5 0 
" style="stroke: #000000; stroke-width: 0.8"/>
      </defs>
      <g>
       <use xlink:href="#mab5b5d996d" x="60.468889" y="171.287552" style="stroke: #000000; stroke-width: 0.8"/>
      </g>
     </g>
     <g id="text_1">
      <!-- $\mathdefault{10^{-16}}$ -->
      <g transform="translate(25.568889 175.086771) scale(0.1 -0.1)">
       <defs>
        <path id="DejaVuSans-31" d="M 794 531 
L 1825 531 
L 1825 4091 
L 703 3866 
L 703 4441 
L 1819 4666 
L 2450 4666 
L 2450 531 
L 3481 531 
L 3481 0 
L 794 0 
L 794 531 
z
" transform="scale(0.015625)"/>
        <path id="DejaVuSans-30" d="M 2034 4250 
Q 1547 4250 1301 3770 
Q 1056 3291 1056 2328 
Q 1056 1369 1301 889 
Q 1547 409 2034 409 
Q 2525 409 2770 889 
Q 3016 1369 3016 2328 
Q 3016 3291 2770 3770 
Q 2525 4250 2034 4250 
z
M 2034 4750 
Q 2819 4750 3233 4129 
Q 3647 3509 3647 2328 
Q 3647 1150 3233 529 
Q 2819 -91 2034 -91 
Q 1250 -91 836 529 
Q 422 1150 422 2328 
Q 422 3509 836 4129 
Q 1250 4750 2034 4750 
z
" transform="scale(0.015625)"/>
        <path id="DejaVuSans-2212" d="M 678 2272 
L 4684 2272 
L 4684 1741 
L 678 1741 
L 678 2272 
z
" transform="scale(0.015625)"/>
        <path id="DejaVuSans-36" d="M 2113 2584 
Q 1688 2584 1439 2293 
Q 1191 2003 1191 1497 
Q 1191 994 1439 701 
Q 1688 409 2113 409 
Q 2538 409 2786 701 
Q 3034 994 3034 1497 
Q 3034 2003 2786 2293 
Q 2538 2584 2113 2584 
z
M 3366 4563 
L 3366 3988 
Q 3128 4100 2886 4159 
Q 2644 4219 2406 4219 
Q 1781 4219 1451 3797 
Q 1122 3375 1075 2522 
Q 1259 2794 1537 2939 
Q 1816 3084 2150 3084 
Q 2853 3084 3261 2657 
Q 3669 2231 3669 1497 
Q 3669 778 3244 343 
Q 2819 -91 2113 -91 
Q 1303 -91 875 529 
Q 447 1150 447 2328 
Q 447 3434 972 4092 
Q 1497 4750 2381 4750 
Q 2619 4750 2861 4703 
Q 3103 4656 3366 4563 
z
" transform="scale(0.015625)"/>
       </defs>
       <use xlink:href="#DejaVuSans-31" transform="translate(0 0.765625)"/>
       <use xlink:href="#DejaVuSans-30" transform="translate(63.623047 0.765625)"/>
       <use xlink:href="#DejaVuSans-2212" transform="translate(128.203125 39.046875) scale(0.7)"/>
       <use xlink:href="#DejaVuSans-31" transform="translate(186.855469 39.046875) scale(0.7)"/>
       <use xlink:href="#DejaVuSans-36" transform="translate(231.391602 39.046875) scale(0.7)"/>
      </g>
     </g>
    </g>
    <g id="ytick_2">
     <g id="line2d_25">
      <g>
       <use xlink:href="#mab5b5d996d" x="60.468889" y="139.973218" style="stroke: #000000; stroke-width: 0.8"/>
      </g>
     </g>
     <g id="text_2">
      <!-- $\mathdefault{10^{-15}}$ -->
      <g transform="translate(25.568889 143.772437) scale(0.1 -0.1)">
       <defs>
        <path id="DejaVuSans-35" d="M 691 4666 
L 3169 4666 
L 3169 4134 
L 1269 4134 
L 1269 2991 
Q 1406 3038 1543 3061 
Q 1681 3084 1819 3084 
Q 2600 3084 3056 2656 
Q 3513 2228 3513 1497 
Q 3513 744 3044 326 
Q 2575 -91 1722 -91 
Q 1428 -91 1123 -41 
Q 819 9 494 109 
L 494 744 
Q 775 591 1075 516 
Q 1375 441 1709 441 
Q 2250 441 2565 725 
Q 2881 1009 2881 1497 
Q 2881 1984 2565 2268 
Q 2250 2553 1709 2553 
Q 1456 2553 1204 2497 
Q 953 2441 691 2322 
L 691 4666 
z
" transform="scale(0.015625)"/>
       </defs>
       <use xlink:href="#DejaVuSans-31" transform="translate(0 0.684375)"/>
       <use xlink:href="#DejaVuSans-30" transform="translate(63.623047 0.684375)"/>
       <use xlink:href="#DejaVuSans-2212" transform="translate(128.203125 38.965625) scale(0.7)"/>
       <use xlink:href="#DejaVuSans-31" transform="translate(186.855469 38.965625) scale(0.7)"/>
       <use xlink:href="#DejaVuSans-35" transform="translate(231.391602 38.965625) scale(0.7)"/>
      </g>
     </g>
    </g>
    <g id="ytick_3">
     <g id="line2d_26">
      <g>
       <use xlink:href="#mab5b5d996d" x="60.468889" y="108.658884" style="stroke: #000000; stroke-width: 0.8"/>
      </g>
     </g>
     <g id="text_3">
      <!-- $\mathdefault{10^{-14}}$ -->
      <g transform="translate(25.568889 112.458103) scale(0.1 -0.1)">
       <defs>
        <path id="DejaVuSans-34" d="M 2419 4116 
L 825 1625 
L 2419 1625 
L 2419 4116 
z
M 2253 4666 
L 3047 4666 
L 3047 1625 
L 3713 1625 
L 3713 1100 
L 3047 1100 
L 3047 0 
L 2419 0 
L 2419 1100 
L 313 1100 
L 313 1709 
L 2253 4666 
z
" transform="scale(0.015625)"/>
       </defs>
       <use xlink:href="#DejaVuSans-31" transform="translate(0 0.684375)"/>
       <use xlink:href="#DejaVuSans-30" transform="translate(63.623047 0.684375)"/>
       <use xlink:href="#DejaVuSans-2212" transform="translate(128.203125 38.965625) scale(0.7)"/>
       <use xlink:href="#DejaVuSans-31" transform="translate(186.855469 38.965625) scale(0.7)"/>
       <use xlink:href="#DejaVuSans-34" transform="translate(231.391602 38.965625) scale(0.7)"/>
      </g>
     </g>
    </g>
    <g id="ytick_4">
     <g id="line2d_27">
      <g>
       <use xlink:href="#mab5b5d996d" x="60.468889" y="77.34455" style="stroke: #000000; stroke-width: 0.8"/>
      </g>
     </g>
     <g id="text_4">
      <!-- $\mathdefault{10^{-13}}$ -->
      <g transform="translate(25.568889 81.143769) scale(0.1 -0.1)">
       <defs>
        <path id="DejaVuSans-33" d="M 2597 2516 
Q 3050 2419 3304 2112 
Q 3559 1806 3559 1356 
Q 3559 666 3084 287 
Q 2609 -91 1734 -91 
Q 1441 -91 1130 -33 
Q 819 25 488 141 
L 488 750 
Q 750 597 1062 519 
Q 1375 441 1716 441 
Q 2309 441 2620 675 
Q 2931 909 2931 1356 
Q 2931 1769 2642 2001 
Q 2353 2234 1838 2234 
L 1294 2234 
L 1294 2753 
L 1863 2753 
Q 2328 2753 2575 2939 
Q 2822 3125 2822 3475 
Q 2822 3834 2567 4026 
Q 2313 4219 1838 4219 
Q 1578 4219 1281 4162 
Q 984 4106 628 3988 
L 628 4550 
Q 988 4650 1302 4700 
Q 1616 4750 1894 4750 
Q 2613 4750 3031 4423 
Q 3450 4097 3450 3541 
Q 3450 3153 3228 2886 
Q 3006 2619 2597 2516 
z
" transform="scale(0.015625)"/>
       </defs>
       <use xlink:href="#DejaVuSans-31" transform="translate(0 0.765625)"/>
       <use xlink:href="#DejaVuSans-30" transform="translate(63.623047 0.765625)"/>
       <use xlink:href="#DejaVuSans-2212" transform="translate(128.203125 39.046875) scale(0.7)"/>
       <use xlink:href="#DejaVuSans-31" transform="translate(186.855469 39.046875) scale(0.7)"/>
       <use xlink:href="#DejaVuSans-33" transform="translate(231.391602 39.046875) scale(0.7)"/>
      </g>
     </g>
    </g>
    <g id="ytick_5">
     <g id="line2d_28">
      <g>
       <use xlink:href="#mab5b5d996d" x="60.468889" y="46.030216" style="stroke: #000000; stroke-width: 0.8"/>
      </g>
     </g>
     <g id="text_5">
      <!-- $\mathdefault{10^{-12}}$ -->
      <g transform="translate(25.568889 49.829435) scale(0.1 -0.1)">
       <defs>
        <path id="DejaVuSans-32" d="M 1228 531 
L 3431 531 
L 3431 0 
L 469 0 
L 469 531 
Q 828 903 1448 1529 
Q 2069 2156 2228 2338 
Q 2531 2678 2651 2914 
Q 2772 3150 2772 3378 
Q 2772 3750 2511 3984 
Q 2250 4219 1831 4219 
Q 1534 4219 1204 4116 
Q 875 4013 500 3803 
L 500 4441 
Q 881 4594 1212 4672 
Q 1544 4750 1819 4750 
Q 2544 4750 2975 4387 
Q 3406 4025 3406 3419 
Q 3406 3131 3298 2873 
Q 3191 2616 2906 2266 
Q 2828 2175 2409 1742 
Q 1991 1309 1228 531 
z
" transform="scale(0.015625)"/>
       </defs>
       <use xlink:href="#DejaVuSans-31" transform="translate(0 0.765625)"/>
       <use xlink:href="#DejaVuSans-30" transform="translate(63.623047 0.765625)"/>
       <use xlink:href="#DejaVuSans-2212" transform="translate(128.203125 39.046875) scale(0.7)"/>
       <use xlink:href="#DejaVuSans-31" transform="translate(186.855469 39.046875) scale(0.7)"/>
       <use xlink:href="#DejaVuSans-32" transform="translate(231.391602 39.046875) scale(0.7)"/>
      </g>
     </g>
    </g>
    <g id="ytick_6">
     <g id="line2d_29">
      <defs>
       <path id="m04667e33b4" d="M 0 0 
L -2 0 
" style="stroke: #000000; stroke-width: 0.6"/>
      </defs>
      <g>
       <use xlink:href="#m04667e33b4" x="60.468889" y="187.661152" style="stroke: #000000; stroke-width: 0.6"/>
      </g>
     </g>
    </g>
    <g id="ytick_7">
     <g id="line2d_30">
      <g>
       <use xlink:href="#m04667e33b4" x="60.468889" y="183.748778" style="stroke: #000000; stroke-width: 0.6"/>
      </g>
     </g>
    </g>
    <g id="ytick_8">
     <g id="line2d_31">
      <g>
       <use xlink:href="#m04667e33b4" x="60.468889" y="180.714106" style="stroke: #000000; stroke-width: 0.6"/>
      </g>
     </g>
    </g>
    <g id="ytick_9">
     <g id="line2d_32">
      <g>
       <use xlink:href="#m04667e33b4" x="60.468889" y="178.234598" style="stroke: #000000; stroke-width: 0.6"/>
      </g>
     </g>
    </g>
    <g id="ytick_10">
     <g id="line2d_33">
      <g>
       <use xlink:href="#m04667e33b4" x="60.468889" y="176.138204" style="stroke: #000000; stroke-width: 0.6"/>
      </g>
     </g>
    </g>
    <g id="ytick_11">
     <g id="line2d_34">
      <g>
       <use xlink:href="#m04667e33b4" x="60.468889" y="174.322224" style="stroke: #000000; stroke-width: 0.6"/>
      </g>
     </g>
    </g>
    <g id="ytick_12">
     <g id="line2d_35">
      <g>
       <use xlink:href="#m04667e33b4" x="60.468889" y="172.720417" style="stroke: #000000; stroke-width: 0.6"/>
      </g>
     </g>
    </g>
    <g id="ytick_13">
     <g id="line2d_36">
      <g>
       <use xlink:href="#m04667e33b4" x="60.468889" y="161.860998" style="stroke: #000000; stroke-width: 0.6"/>
      </g>
     </g>
    </g>
    <g id="ytick_14">
     <g id="line2d_37">
      <g>
       <use xlink:href="#m04667e33b4" x="60.468889" y="156.346818" style="stroke: #000000; stroke-width: 0.6"/>
      </g>
     </g>
    </g>
    <g id="ytick_15">
     <g id="line2d_38">
      <g>
       <use xlink:href="#m04667e33b4" x="60.468889" y="152.434444" style="stroke: #000000; stroke-width: 0.6"/>
      </g>
     </g>
    </g>
    <g id="ytick_16">
     <g id="line2d_39">
      <g>
       <use xlink:href="#m04667e33b4" x="60.468889" y="149.399772" style="stroke: #000000; stroke-width: 0.6"/>
      </g>
     </g>
    </g>
    <g id="ytick_17">
     <g id="line2d_40">
      <g>
       <use xlink:href="#m04667e33b4" x="60.468889" y="146.920264" style="stroke: #000000; stroke-width: 0.6"/>
      </g>
     </g>
    </g>
    <g id="ytick_18">
     <g id="line2d_41">
      <g>
       <use xlink:href="#m04667e33b4" x="60.468889" y="144.82387" style="stroke: #000000; stroke-width: 0.6"/>
      </g>
     </g>
    </g>
    <g id="ytick_19">
     <g id="line2d_42">
      <g>
       <use xlink:href="#m04667e33b4" x="60.468889" y="143.00789" style="stroke: #000000; stroke-width: 0.6"/>
      </g>
     </g>
    </g>
    <g id="ytick_20">
     <g id="line2d_43">
      <g>
       <use xlink:href="#m04667e33b4" x="60.468889" y="141.406083" style="stroke: #000000; stroke-width: 0.6"/>
      </g>
     </g>
    </g>
    <g id="ytick_21">
     <g id="line2d_44">
      <g>
       <use xlink:href="#m04667e33b4" x="60.468889" y="130.546664" style="stroke: #000000; stroke-width: 0.6"/>
      </g>
     </g>
    </g>
    <g id="ytick_22">
     <g id="line2d_45">
      <g>
       <use xlink:href="#m04667e33b4" x="60.468889" y="125.032484" style="stroke: #000000; stroke-width: 0.6"/>
      </g>
     </g>
    </g>
    <g id="ytick_23">
     <g id="line2d_46">
      <g>
       <use xlink:href="#m04667e33b4" x="60.468889" y="121.12011" style="stroke: #000000; stroke-width: 0.6"/>
      </g>
     </g>
    </g>
    <g id="ytick_24">
     <g id="line2d_47">
      <g>
       <use xlink:href="#m04667e33b4" x="60.468889" y="118.085438" style="stroke: #000000; stroke-width: 0.6"/>
      </g>
     </g>
    </g>
    <g id="ytick_25">
     <g id="line2d_48">
      <g>
       <use xlink:href="#m04667e33b4" x="60.468889" y="115.60593" style="stroke: #000000; stroke-width: 0.6"/>
      </g>
     </g>
    </g>
    <g id="ytick_26">
     <g id="line2d_49">
      <g>
       <use xlink:href="#m04667e33b4" x="60.468889" y="113.509536" style="stroke: #000000; stroke-width: 0.6"/>
      </g>
     </g>
    </g>
    <g id="ytick_27">
     <g id="line2d_50">
      <g>
       <use xlink:href="#m04667e33b4" x="60.468889" y="111.693556" style="stroke: #000000; stroke-width: 0.6"/>
      </g>
     </g>
    </g>
    <g id="ytick_28">
     <g id="line2d_51">
      <g>
       <use xlink:href="#m04667e33b4" x="60.468889" y="110.091749" style="stroke: #000000; stroke-width: 0.6"/>
      </g>
     </g>
    </g>
    <g id="ytick_29">
     <g id="line2d_52">
      <g>
       <use xlink:href="#m04667e33b4" x="60.468889" y="99.23233" style="stroke: #000000; stroke-width: 0.6"/>
      </g>
     </g>
    </g>
    <g id="ytick_30">
     <g id="line2d_53">
      <g>
       <use xlink:href="#m04667e33b4" x="60.468889" y="93.71815" style="stroke: #000000; stroke-width: 0.6"/>
      </g>
     </g>
    </g>
    <g id="ytick_31">
     <g id="line2d_54">
      <g>
       <use xlink:href="#m04667e33b4" x="60.468889" y="89.805776" style="stroke: #000000; stroke-width: 0.6"/>
      </g>
     </g>
    </g>
    <g id="ytick_32">
     <g id="line2d_55">
      <g>
       <use xlink:href="#m04667e33b4" x="60.468889" y="86.771104" style="stroke: #000000; stroke-width: 0.6"/>
      </g>
     </g>
    </g>
    <g id="ytick_33">
     <g id="line2d_56">
      <g>
       <use xlink:href="#m04667e33b4" x="60.468889" y="84.291596" style="stroke: #000000; stroke-width: 0.6"/>
      </g>
     </g>
    </g>
    <g id="ytick_34">
     <g id="line2d_57">
      <g>
       <use xlink:href="#m04667e33b4" x="60.468889" y="82.195202" style="stroke: #000000; stroke-width: 0.6"/>
      </g>
     </g>
    </g>
    <g id="ytick_35">
     <g id="line2d_58">
      <g>
       <use xlink:href="#m04667e33b4" x="60.468889" y="80.379222" style="stroke: #000000; stroke-width: 0.6"/>
      </g>
     </g>
    </g>
    <g id="ytick_36">
     <g id="line2d_59">
      <g>
       <use xlink:href="#m04667e33b4" x="60.468889" y="78.777415" style="stroke: #000000; stroke-width: 0.6"/>
      </g>
     </g>
    </g>
    <g id="ytick_37">
     <g id="line2d_60">
      <g>
       <use xlink:href="#m04667e33b4" x="60.468889" y="67.917996" style="stroke: #000000; stroke-width: 0.6"/>
      </g>
     </g>
    </g>
    <g id="ytick_38">
     <g id="line2d_61">
      <g>
       <use xlink:href="#m04667e33b4" x="60.468889" y="62.403816" style="stroke: #000000; stroke-width: 0.6"/>
      </g>
     </g>
    </g>
    <g id="ytick_39">
     <g id="line2d_62">
      <g>
       <use xlink:href="#m04667e33b4" x="60.468889" y="58.491442" style="stroke: #000000; stroke-width: 0.6"/>
      </g>
     </g>
    </g>
    <g id="ytick_40">
     <g id="line2d_63">
      <g>
       <use xlink:href="#m04667e33b4" x="60.468889" y="55.45677" style="stroke: #000000; stroke-width: 0.6"/>
      </g>
     </g>
    </g>
    <g id="ytick_41">
     <g id="line2d_64">
      <g>
       <use xlink:href="#m04667e33b4" x="60.468889" y="52.977262" style="stroke: #000000; stroke-width: 0.6"/>
      </g>
     </g>
    </g>
    <g id="ytick_42">
     <g id="line2d_65">
      <g>
       <use xlink:href="#m04667e33b4" x="60.468889" y="50.880868" style="stroke: #000000; stroke-width: 0.6"/>
      </g>
     </g>
    </g>
    <g id="ytick_43">
     <g id="line2d_66">
      <g>
       <use xlink:href="#m04667e33b4" x="60.468889" y="49.064889" style="stroke: #000000; stroke-width: 0.6"/>
      </g>
     </g>
    </g>
    <g id="ytick_44">
     <g id="line2d_67">
      <g>
       <use xlink:href="#m04667e33b4" x="60.468889" y="47.463081" style="stroke: #000000; stroke-width: 0.6"/>
      </g>
     </g>
    </g>
    <g id="ytick_45">
     <g id="line2d_68">
      <g>
       <use xlink:href="#m04667e33b4" x="60.468889" y="36.603662" style="stroke: #000000; stroke-width: 0.6"/>
      </g>
     </g>
    </g>
    <g id="ytick_46">
     <g id="line2d_69">
      <g>
       <use xlink:href="#m04667e33b4" x="60.468889" y="31.089482" style="stroke: #000000; stroke-width: 0.6"/>
      </g>
     </g>
    </g>
    <g id="ytick_47">
     <g id="line2d_70">
      <g>
       <use xlink:href="#m04667e33b4" x="60.468889" y="27.177108" style="stroke: #000000; stroke-width: 0.6"/>
      </g>
     </g>
    </g>
    <g id="text_6">
     <!-- e2 * dnde [TeV / (cm2 s)] -->
     <g transform="translate(19.489202 170.416088) rotate(-90) scale(0.1 -0.1)">
      <defs>
       <path id="DejaVuSans-65" d="M 3597 1894 
L 3597 1613 
L 953 1613 
Q 991 1019 1311 708 
Q 1631 397 2203 397 
Q 2534 397 2845 478 
Q 3156 559 3463 722 
L 3463 178 
Q 3153 47 2828 -22 
Q 2503 -91 2169 -91 
Q 1331 -91 842 396 
Q 353 884 353 1716 
Q 353 2575 817 3079 
Q 1281 3584 2069 3584 
Q 2775 3584 3186 3129 
Q 3597 2675 3597 1894 
z
M 3022 2063 
Q 3016 2534 2758 2815 
Q 2500 3097 2075 3097 
Q 1594 3097 1305 2825 
Q 1016 2553 972 2059 
L 3022 2063 
z
" transform="scale(0.015625)"/>
       <path id="DejaVuSans-20" transform="scale(0.015625)"/>
       <path id="DejaVuSans-2a" d="M 3009 3897 
L 1888 3291 
L 3009 2681 
L 2828 2375 
L 1778 3009 
L 1778 1831 
L 1422 1831 
L 1422 3009 
L 372 2375 
L 191 2681 
L 1313 3291 
L 191 3897 
L 372 4206 
L 1422 3572 
L 1422 4750 
L 1778 4750 
L 1778 3572 
L 2828 4206 
L 3009 3897 
z
" transform="scale(0.015625)"/>
       <path id="DejaVuSans-64" d="M 2906 2969 
L 2906 4863 
L 3481 4863 
L 3481 0 
L 2906 0 
L 2906 525 
Q 2725 213 2448 61 
Q 2172 -91 1784 -91 
Q 1150 -91 751 415 
Q 353 922 353 1747 
Q 353 2572 751 3078 
Q 1150 3584 1784 3584 
Q 2172 3584 2448 3432 
Q 2725 3281 2906 2969 
z
M 947 1747 
Q 947 1113 1208 752 
Q 1469 391 1925 391 
Q 2381 391 2643 752 
Q 2906 1113 2906 1747 
Q 2906 2381 2643 2742 
Q 2381 3103 1925 3103 
Q 1469 3103 1208 2742 
Q 947 2381 947 1747 
z
" transform="scale(0.015625)"/>
       <path id="DejaVuSans-6e" d="M 3513 2113 
L 3513 0 
L 2938 0 
L 2938 2094 
Q 2938 2591 2744 2837 
Q 2550 3084 2163 3084 
Q 1697 3084 1428 2787 
Q 1159 2491 1159 1978 
L 1159 0 
L 581 0 
L 581 3500 
L 1159 3500 
L 1159 2956 
Q 1366 3272 1645 3428 
Q 1925 3584 2291 3584 
Q 2894 3584 3203 3211 
Q 3513 2838 3513 2113 
z
" transform="scale(0.015625)"/>
       <path id="DejaVuSans-5b" d="M 550 4863 
L 1875 4863 
L 1875 4416 
L 1125 4416 
L 1125 -397 
L 1875 -397 
L 1875 -844 
L 550 -844 
L 550 4863 
z
" transform="scale(0.015625)"/>
       <path id="DejaVuSans-54" d="M -19 4666 
L 3928 4666 
L 3928 4134 
L 2272 4134 
L 2272 0 
L 1638 0 
L 1638 4134 
L -19 4134 
L -19 4666 
z
" transform="scale(0.015625)"/>
       <path id="DejaVuSans-56" d="M 1831 0 
L 50 4666 
L 709 4666 
L 2188 738 
L 3669 4666 
L 4325 4666 
L 2547 0 
L 1831 0 
z
" transform="scale(0.015625)"/>
       <path id="DejaVuSans-2f" d="M 1625 4666 
L 2156 4666 
L 531 -594 
L 0 -594 
L 1625 4666 
z
" transform="scale(0.015625)"/>
       <path id="DejaVuSans-28" d="M 1984 4856 
Q 1566 4138 1362 3434 
Q 1159 2731 1159 2009 
Q 1159 1288 1364 580 
Q 1569 -128 1984 -844 
L 1484 -844 
Q 1016 -109 783 600 
Q 550 1309 550 2009 
Q 550 2706 781 3412 
Q 1013 4119 1484 4856 
L 1984 4856 
z
" transform="scale(0.015625)"/>
       <path id="DejaVuSans-63" d="M 3122 3366 
L 3122 2828 
Q 2878 2963 2633 3030 
Q 2388 3097 2138 3097 
Q 1578 3097 1268 2742 
Q 959 2388 959 1747 
Q 959 1106 1268 751 
Q 1578 397 2138 397 
Q 2388 397 2633 464 
Q 2878 531 3122 666 
L 3122 134 
Q 2881 22 2623 -34 
Q 2366 -91 2075 -91 
Q 1284 -91 818 406 
Q 353 903 353 1747 
Q 353 2603 823 3093 
Q 1294 3584 2113 3584 
Q 2378 3584 2631 3529 
Q 2884 3475 3122 3366 
z
" transform="scale(0.015625)"/>
       <path id="DejaVuSans-6d" d="M 3328 2828 
Q 3544 3216 3844 3400 
Q 4144 3584 4550 3584 
Q 5097 3584 5394 3201 
Q 5691 2819 5691 2113 
L 5691 0 
L 5113 0 
L 5113 2094 
Q 5113 2597 4934 2840 
Q 4756 3084 4391 3084 
Q 3944 3084 3684 2787 
Q 3425 2491 3425 1978 
L 3425 0 
L 2847 0 
L 2847 2094 
Q 2847 2600 2669 2842 
Q 2491 3084 2119 3084 
Q 1678 3084 1418 2786 
Q 1159 2488 1159 1978 
L 1159 0 
L 581 0 
L 581 3500 
L 1159 3500 
L 1159 2956 
Q 1356 3278 1631 3431 
Q 1906 3584 2284 3584 
Q 2666 3584 2933 3390 
Q 3200 3197 3328 2828 
z
" transform="scale(0.015625)"/>
       <path id="DejaVuSans-73" d="M 2834 3397 
L 2834 2853 
Q 2591 2978 2328 3040 
Q 2066 3103 1784 3103 
Q 1356 3103 1142 2972 
Q 928 2841 928 2578 
Q 928 2378 1081 2264 
Q 1234 2150 1697 2047 
L 1894 2003 
Q 2506 1872 2764 1633 
Q 3022 1394 3022 966 
Q 3022 478 2636 193 
Q 2250 -91 1575 -91 
Q 1294 -91 989 -36 
Q 684 19 347 128 
L 347 722 
Q 666 556 975 473 
Q 1284 391 1588 391 
Q 1994 391 2212 530 
Q 2431 669 2431 922 
Q 2431 1156 2273 1281 
Q 2116 1406 1581 1522 
L 1381 1569 
Q 847 1681 609 1914 
Q 372 2147 372 2553 
Q 372 3047 722 3315 
Q 1072 3584 1716 3584 
Q 2034 3584 2315 3537 
Q 2597 3491 2834 3397 
z
" transform="scale(0.015625)"/>
       <path id="DejaVuSans-29" d="M 513 4856 
L 1013 4856 
Q 1481 4119 1714 3412 
Q 1947 2706 1947 2009 
Q 1947 1309 1714 600 
Q 1481 -109 1013 -844 
L 513 -844 
Q 928 -128 1133 580 
Q 1338 1288 1338 2009 
Q 1338 2731 1133 3434 
Q 928 4138 513 4856 
z
" transform="scale(0.015625)"/>
       <path id="DejaVuSans-5d" d="M 1947 4863 
L 1947 -844 
L 622 -844 
L 622 -397 
L 1369 -397 
L 1369 4416 
L 622 4416 
L 622 4863 
L 1947 4863 
z
" transform="scale(0.015625)"/>
      </defs>
      <use xlink:href="#DejaVuSans-65"/>
      <use xlink:href="#DejaVuSans-32" x="61.523438"/>
      <use xlink:href="#DejaVuSans-20" x="125.146484"/>
      <use xlink:href="#DejaVuSans-2a" x="156.933594"/>
      <use xlink:href="#DejaVuSans-20" x="206.933594"/>
      <use xlink:href="#DejaVuSans-64" x="238.720703"/>
      <use xlink:href="#DejaVuSans-6e" x="302.197266"/>
      <use xlink:href="#DejaVuSans-64" x="365.576172"/>
      <use xlink:href="#DejaVuSans-65" x="429.052734"/>
      <use xlink:href="#DejaVuSans-20" x="490.576172"/>
      <use xlink:href="#DejaVuSans-5b" x="522.363281"/>
      <use xlink:href="#DejaVuSans-54" x="561.376953"/>
      <use xlink:href="#DejaVuSans-65" x="605.460938"/>
      <use xlink:href="#DejaVuSans-56" x="666.984375"/>
      <use xlink:href="#DejaVuSans-20" x="735.392578"/>
      <use xlink:href="#DejaVuSans-2f" x="767.179688"/>
      <use xlink:href="#DejaVuSans-20" x="800.871094"/>
      <use xlink:href="#DejaVuSans-28" x="832.658203"/>
      <use xlink:href="#DejaVuSans-63" x="871.671875"/>
      <use xlink:href="#DejaVuSans-6d" x="926.652344"/>
      <use xlink:href="#DejaVuSans-32" x="1024.064453"/>
      <use xlink:href="#DejaVuSans-20" x="1087.6875"/>
      <use xlink:href="#DejaVuSans-73" x="1119.474609"/>
      <use xlink:href="#DejaVuSans-29" x="1171.574219"/>
      <use xlink:href="#DejaVuSans-5d" x="1210.587891"/>
     </g>
    </g>
   </g>
   <g id="line2d_71">
    <path d="M 74.892487 43.872972 
L 77.491401 44.106634 
L 80.090314 44.342002 
L 82.689228 44.579162 
L 85.288141 44.818204 
L 87.887054 45.059223 
L 90.485968 45.302318 
L 93.084881 45.547592 
L 95.683795 45.795155 
L 98.282708 46.045122 
L 100.881621 46.297613 
L 103.480535 46.552755 
L 106.079448 46.810681 
L 108.678361 47.07153 
L 111.277275 47.335449 
L 113.876188 47.602592 
L 116.475102 47.873121 
L 119.074015 48.147205 
L 121.672928 48.425023 
L 124.271842 48.706762 
L 126.870755 48.992618 
L 129.469668 49.282798 
L 132.068582 49.577519 
L 134.667495 49.877009 
L 137.266409 50.181507 
L 139.865322 50.491263 
L 142.464235 50.806542 
L 145.063149 51.12762 
L 147.662062 51.454789 
L 150.260976 51.788353 
L 152.859889 52.128634 
L 155.458802 52.475968 
L 158.057716 52.830709 
L 160.656629 53.193228 
L 163.255542 53.563915 
L 165.854456 53.943181 
L 168.453369 54.331455 
L 171.052283 54.729189 
L 173.651196 55.136857 
L 176.250109 55.554958 
L 178.849023 55.984014 
L 181.447936 56.424576 
L 184.04685 56.877219 
L 186.645763 57.34255 
L 189.244676 57.821206 
L 191.84359 58.313853 
L 194.442503 58.821195 
L 197.041416 59.343967 
L 199.64033 59.882944 
L 202.239243 60.438939 
L 204.838157 61.012803 
L 207.43707 61.605435 
L 210.035983 62.217774 
L 212.634897 62.850809 
L 215.23381 63.505579 
L 217.832724 64.183172 
L 220.431637 64.884733 
L 223.03055 65.611465 
L 225.629464 66.36463 
L 228.228377 67.145552 
L 230.82729 67.955624 
L 233.426204 68.796308 
L 236.025117 69.669139 
L 238.624031 70.575729 
L 241.222944 71.517771 
L 243.821857 72.497042 
L 246.420771 73.51541 
L 249.019684 74.574835 
L 251.618597 75.677376 
L 254.217511 76.825195 
L 256.816424 78.020562 
L 259.415338 79.265863 
L 262.014251 80.563601 
L 264.613164 81.916405 
L 267.212078 83.327038 
L 269.810991 84.798398 
L 272.409905 86.333532 
L 275.008818 87.935637 
L 277.607731 89.608071 
L 280.206645 91.354362 
L 282.805558 93.178213 
L 285.404471 95.083514 
L 288.003385 97.074348 
L 290.602298 99.155006 
L 293.201212 101.329991 
L 295.800125 103.604034 
L 298.399038 105.982102 
L 300.997952 108.469412 
L 303.596865 111.071441 
L 306.195779 113.793944 
L 308.794692 116.64296 
L 311.393605 119.624834 
L 313.992519 122.746229 
L 316.591432 126.014141 
L 319.190345 129.435917 
L 321.789259 133.019274 
L 324.388172 136.772314 
L 326.987086 140.703546 
L 329.585999 144.821906 
L 332.184912 149.136777 
" clip-path="url(#p9ff4f564f9)" style="fill: none; stroke-dasharray: 1.5,2.475; stroke-dashoffset: 0; stroke: #000000; stroke-width: 1.5"/>
   </g>
   <g id="LineCollection_1">
    <path clip-path="url(#p9ff4f564f9)" style="fill: none; stroke: #006400; stroke-width: 1.5"/>
    <path clip-path="url(#p9ff4f564f9)" style="fill: none; stroke: #006400; stroke-width: 1.5"/>
    <path clip-path="url(#p9ff4f564f9)" style="fill: none; stroke: #006400; stroke-width: 1.5"/>
    <path clip-path="url(#p9ff4f564f9)" style="fill: none; stroke: #006400; stroke-width: 1.5"/>
    <path clip-path="url(#p9ff4f564f9)" style="fill: none; stroke: #006400; stroke-width: 1.5"/>
    <path d="M 73.593031 361 
L 73.593031 32.939673 
" clip-path="url(#p9ff4f564f9)" style="fill: none; stroke: #006400; stroke-width: 1.5"/>
    <path d="M 88.880757 52.800762 
L 88.880757 39.726694 
" clip-path="url(#p9ff4f564f9)" style="fill: none; stroke: #006400; stroke-width: 1.5"/>
    <path d="M 104.168482 50.517526 
L 104.168482 43.586695 
" clip-path="url(#p9ff4f564f9)" style="fill: none; stroke: #006400; stroke-width: 1.5"/>
    <path d="M 119.456208 51.646078 
L 119.456208 45.402349 
" clip-path="url(#p9ff4f564f9)" style="fill: none; stroke: #006400; stroke-width: 1.5"/>
    <path d="M 134.743934 53.47244 
L 134.743934 47.059616 
" clip-path="url(#p9ff4f564f9)" style="fill: none; stroke: #006400; stroke-width: 1.5"/>
    <path d="M 150.03166 55.600959 
L 150.03166 48.793641 
" clip-path="url(#p9ff4f564f9)" style="fill: none; stroke: #006400; stroke-width: 1.5"/>
    <path d="M 165.319385 58.149128 
L 165.319385 50.635622 
" clip-path="url(#p9ff4f564f9)" style="fill: none; stroke: #006400; stroke-width: 1.5"/>
    <path d="M 180.607111 61.299185 
L 180.607111 52.652828 
" clip-path="url(#p9ff4f564f9)" style="fill: none; stroke: #006400; stroke-width: 1.5"/>
    <path d="M 195.894837 65.128284 
L 195.894837 54.978102 
" clip-path="url(#p9ff4f564f9)" style="fill: none; stroke: #006400; stroke-width: 1.5"/>
    <path d="M 211.182563 70.308729 
L 211.182563 57.575728 
" clip-path="url(#p9ff4f564f9)" style="fill: none; stroke: #006400; stroke-width: 1.5"/>
    <path d="M 226.470289 78.00505 
L 226.470289 60.516745 
" clip-path="url(#p9ff4f564f9)" style="fill: none; stroke: #006400; stroke-width: 1.5"/>
    <path d="M 241.758014 92.028323 
L 241.758014 63.910227 
" clip-path="url(#p9ff4f564f9)" style="fill: none; stroke: #006400; stroke-width: 1.5"/>
    <path d="M 257.04574 361 
L 257.04574 67.694957 
" clip-path="url(#p9ff4f564f9)" style="fill: none; stroke: #006400; stroke-width: 1.5"/>
    <path d="M 272.333466 361 
L 272.333466 71.839849 
" clip-path="url(#p9ff4f564f9)" style="fill: none; stroke: #006400; stroke-width: 1.5"/>
    <path d="M 287.621192 361 
L 287.621192 76.553117 
" clip-path="url(#p9ff4f564f9)" style="fill: none; stroke: #006400; stroke-width: 1.5"/>
    <path d="M 302.908917 361 
L 302.908917 81.569539 
" clip-path="url(#p9ff4f564f9)" style="fill: none; stroke: #006400; stroke-width: 1.5"/>
    <path d="M 318.196643 361 
L 318.196643 87.285343 
" clip-path="url(#p9ff4f564f9)" style="fill: none; stroke: #006400; stroke-width: 1.5"/>
    <path d="M 333.484369 361 
L 333.484369 94.364037 
" clip-path="url(#p9ff4f564f9)" style="fill: none; stroke: #006400; stroke-width: 1.5"/>
    <path clip-path="url(#p9ff4f564f9)" style="fill: none; stroke: #006400; stroke-width: 1.5"/>
   </g>
   <g id="LineCollection_2">
    <path clip-path="url(#p9ff4f564f9)" style="fill: none; stroke: #8b0000; stroke-width: 1.5"/>
    <path clip-path="url(#p9ff4f564f9)" style="fill: none; stroke: #8b0000; stroke-width: 1.5"/>
    <path clip-path="url(#p9ff4f564f9)" style="fill: none; stroke: #8b0000; stroke-width: 1.5"/>
    <path clip-path="url(#p9ff4f564f9)" style="fill: none; stroke: #8b0000; stroke-width: 1.5"/>
    <path clip-path="url(#p9ff4f564f9)" style="fill: none; stroke: #8b0000; stroke-width: 1.5"/>
    <path d="M 76.18452 361 
L 76.18452 33.595221 
" clip-path="url(#p9ff4f564f9)" style="fill: none; stroke: #8b0000; stroke-width: 1.5"/>
    <path d="M 91.472246 52.906392 
L 91.472246 40.244134 
" clip-path="url(#p9ff4f564f9)" style="fill: none; stroke: #8b0000; stroke-width: 1.5"/>
    <path d="M 106.759972 50.103841 
L 106.759972 43.85031 
" clip-path="url(#p9ff4f564f9)" style="fill: none; stroke: #8b0000; stroke-width: 1.5"/>
    <path d="M 122.047698 51.207573 
L 122.047698 45.718271 
" clip-path="url(#p9ff4f564f9)" style="fill: none; stroke: #8b0000; stroke-width: 1.5"/>
    <path d="M 137.335423 53.023853 
L 137.335423 47.337947 
" clip-path="url(#p9ff4f564f9)" style="fill: none; stroke: #8b0000; stroke-width: 1.5"/>
    <path d="M 152.623149 55.165632 
L 152.623149 49.036489 
" clip-path="url(#p9ff4f564f9)" style="fill: none; stroke: #8b0000; stroke-width: 1.5"/>
    <path d="M 167.910875 57.747801 
L 167.910875 50.847101 
" clip-path="url(#p9ff4f564f9)" style="fill: none; stroke: #8b0000; stroke-width: 1.5"/>
    <path d="M 183.198601 60.925856 
L 183.198601 52.824664 
" clip-path="url(#p9ff4f564f9)" style="fill: none; stroke: #8b0000; stroke-width: 1.5"/>
    <path d="M 198.486327 64.790146 
L 198.486327 55.117457 
" clip-path="url(#p9ff4f564f9)" style="fill: none; stroke: #8b0000; stroke-width: 1.5"/>
    <path d="M 213.774052 69.997219 
L 213.774052 57.687151 
" clip-path="url(#p9ff4f564f9)" style="fill: none; stroke: #8b0000; stroke-width: 1.5"/>
    <path d="M 229.061778 77.682241 
L 229.061778 60.594088 
" clip-path="url(#p9ff4f564f9)" style="fill: none; stroke: #8b0000; stroke-width: 1.5"/>
    <path d="M 244.349504 91.5674 
L 244.349504 63.968922 
" clip-path="url(#p9ff4f564f9)" style="fill: none; stroke: #8b0000; stroke-width: 1.5"/>
    <path d="M 259.63723 361 
L 259.63723 67.748366 
" clip-path="url(#p9ff4f564f9)" style="fill: none; stroke: #8b0000; stroke-width: 1.5"/>
    <path d="M 274.924955 361 
L 274.924955 71.901233 
" clip-path="url(#p9ff4f564f9)" style="fill: none; stroke: #8b0000; stroke-width: 1.5"/>
    <path d="M 290.212681 361 
L 290.212681 76.632179 
" clip-path="url(#p9ff4f564f9)" style="fill: none; stroke: #8b0000; stroke-width: 1.5"/>
    <path d="M 305.500407 361 
L 305.500407 81.739843 
" clip-path="url(#p9ff4f564f9)" style="fill: none; stroke: #8b0000; stroke-width: 1.5"/>
    <path d="M 320.788133 361 
L 320.788133 87.587674 
" clip-path="url(#p9ff4f564f9)" style="fill: none; stroke: #8b0000; stroke-width: 1.5"/>
    <path d="M 336.075859 361 
L 336.075859 94.846538 
" clip-path="url(#p9ff4f564f9)" style="fill: none; stroke: #8b0000; stroke-width: 1.5"/>
    <path clip-path="url(#p9ff4f564f9)" style="fill: none; stroke: #8b0000; stroke-width: 1.5"/>
   </g>
   <g id="LineCollection_3">
    <path clip-path="url(#p9ff4f564f9)" style="fill: none; stroke: #1f77b4; stroke-width: 1.5"/>
    <path clip-path="url(#p9ff4f564f9)" style="fill: none; stroke: #1f77b4; stroke-width: 1.5"/>
    <path clip-path="url(#p9ff4f564f9)" style="fill: none; stroke: #1f77b4; stroke-width: 1.5"/>
    <path clip-path="url(#p9ff4f564f9)" style="fill: none; stroke: #1f77b4; stroke-width: 1.5"/>
    <path clip-path="url(#p9ff4f564f9)" style="fill: none; stroke: #1f77b4; stroke-width: 1.5"/>
    <path d="M 78.655431 361 
L 78.655431 33.172981 
" clip-path="url(#p9ff4f564f9)" style="fill: none; stroke: #1f77b4; stroke-width: 1.5"/>
    <path d="M 93.943157 53.206675 
L 93.943157 40.41582 
" clip-path="url(#p9ff4f564f9)" style="fill: none; stroke: #1f77b4; stroke-width: 1.5"/>
    <path d="M 109.230882 50.275457 
L 109.230882 43.539378 
" clip-path="url(#p9ff4f564f9)" style="fill: none; stroke: #1f77b4; stroke-width: 1.5"/>
    <path d="M 124.518608 51.480248 
L 124.518608 45.487048 
" clip-path="url(#p9ff4f564f9)" style="fill: none; stroke: #1f77b4; stroke-width: 1.5"/>
    <path d="M 139.806334 53.351038 
L 139.806334 46.949841 
" clip-path="url(#p9ff4f564f9)" style="fill: none; stroke: #1f77b4; stroke-width: 1.5"/>
    <path d="M 155.09406 55.223782 
L 155.09406 48.465993 
" clip-path="url(#p9ff4f564f9)" style="fill: none; stroke: #1f77b4; stroke-width: 1.5"/>
    <path d="M 170.381786 57.809158 
L 170.381786 50.067517 
" clip-path="url(#p9ff4f564f9)" style="fill: none; stroke: #1f77b4; stroke-width: 1.5"/>
    <path d="M 185.669511 60.883573 
L 185.669511 52.268467 
" clip-path="url(#p9ff4f564f9)" style="fill: none; stroke: #1f77b4; stroke-width: 1.5"/>
    <path d="M 200.957237 64.915709 
L 200.957237 54.515121 
" clip-path="url(#p9ff4f564f9)" style="fill: none; stroke: #1f77b4; stroke-width: 1.5"/>
    <path d="M 216.244963 70.541248 
L 216.244963 57.257837 
" clip-path="url(#p9ff4f564f9)" style="fill: none; stroke: #1f77b4; stroke-width: 1.5"/>
    <path d="M 231.532689 78.370921 
L 231.532689 60.276601 
" clip-path="url(#p9ff4f564f9)" style="fill: none; stroke: #1f77b4; stroke-width: 1.5"/>
    <path d="M 246.820415 95.087579 
L 246.820415 64.027591 
" clip-path="url(#p9ff4f564f9)" style="fill: none; stroke: #1f77b4; stroke-width: 1.5"/>
    <path d="M 262.10814 361 
L 262.10814 66.976389 
" clip-path="url(#p9ff4f564f9)" style="fill: none; stroke: #1f77b4; stroke-width: 1.5"/>
    <path clip-path="url(#p9ff4f564f9)" style="fill: none; stroke: #1f77b4; stroke-width: 1.5"/>
    <path d="M 292.683592 361 
L 292.683592 75.026768 
" clip-path="url(#p9ff4f564f9)" style="fill: none; stroke: #1f77b4; stroke-width: 1.5"/>
    <path d="M 307.971318 361 
L 307.971318 75.261476 
" clip-path="url(#p9ff4f564f9)" style="fill: none; stroke: #1f77b4; stroke-width: 1.5"/>
    <path clip-path="url(#p9ff4f564f9)" style="fill: none; stroke: #1f77b4; stroke-width: 1.5"/>
    <path clip-path="url(#p9ff4f564f9)" style="fill: none; stroke: #1f77b4; stroke-width: 1.5"/>
    <path clip-path="url(#p9ff4f564f9)" style="fill: none; stroke: #1f77b4; stroke-width: 1.5"/>
   </g>
   <g id="line2d_72">
    <defs>
     <path id="m78411dacd2" d="M -3 3 
L 3 -3 
M -3 -3 
L 3 3 
" style="stroke: #006400"/>
    </defs>
    <g clip-path="url(#p9ff4f564f9)">
     <use xlink:href="#m78411dacd2" x="73.593031" y="43.133545" style="fill: #006400; stroke: #006400"/>
     <use xlink:href="#m78411dacd2" x="88.880757" y="44.749643" style="fill: #006400; stroke: #006400"/>
     <use xlink:href="#m78411dacd2" x="104.168482" y="46.615285" style="fill: #006400; stroke: #006400"/>
     <use xlink:href="#m78411dacd2" x="119.456208" y="48.168997" style="fill: #006400; stroke: #006400"/>
     <use xlink:href="#m78411dacd2" x="134.743934" y="49.891488" style="fill: #006400; stroke: #006400"/>
     <use xlink:href="#m78411dacd2" x="150.03166" y="51.775747" style="fill: #006400; stroke: #006400"/>
     <use xlink:href="#m78411dacd2" x="165.319385" y="53.879962" style="fill: #006400; stroke: #006400"/>
     <use xlink:href="#m78411dacd2" x="180.607111" y="56.300131" style="fill: #006400; stroke: #006400"/>
     <use xlink:href="#m78411dacd2" x="195.894837" y="59.127432" style="fill: #006400; stroke: #006400"/>
     <use xlink:href="#m78411dacd2" x="211.182563" y="62.503477" style="fill: #006400; stroke: #006400"/>
     <use xlink:href="#m78411dacd2" x="226.470289" y="66.624488" style="fill: #006400; stroke: #006400"/>
     <use xlink:href="#m78411dacd2" x="241.758014" y="71.716927" style="fill: #006400; stroke: #006400"/>
     <use xlink:href="#m78411dacd2" x="257.04574" y="78.11011" style="fill: #006400; stroke: #006400"/>
     <use xlink:href="#m78411dacd2" x="272.333466" y="86.241661" style="fill: #006400; stroke: #006400"/>
     <use xlink:href="#m78411dacd2" x="287.621192" y="96.696717" style="fill: #006400; stroke: #006400"/>
     <use xlink:href="#m78411dacd2" x="302.908917" y="110.176138" style="fill: #006400; stroke: #006400"/>
     <use xlink:href="#m78411dacd2" x="318.196643" y="127.776461" style="fill: #006400; stroke: #006400"/>
     <use xlink:href="#m78411dacd2" x="333.484369" y="150.868398" style="fill: #006400; stroke: #006400"/>
    </g>
   </g>
   <g id="line2d_73">
    <defs>
     <path id="m292f2a6953" d="M -3 3 
L 3 -3 
M -3 -3 
L 3 3 
" style="stroke: #8b0000"/>
    </defs>
    <g clip-path="url(#p9ff4f564f9)">
     <use xlink:href="#m292f2a6953" x="76.18452" y="43.756754" style="fill: #8b0000; stroke: #8b0000"/>
     <use xlink:href="#m292f2a6953" x="91.472246" y="45.151921" style="fill: #8b0000; stroke: #8b0000"/>
     <use xlink:href="#m292f2a6953" x="106.759972" y="46.620753" style="fill: #8b0000; stroke: #8b0000"/>
     <use xlink:href="#m292f2a6953" x="122.047698" y="48.187822" style="fill: #8b0000; stroke: #8b0000"/>
     <use xlink:href="#m292f2a6953" x="137.335423" y="49.885885" style="fill: #8b0000; stroke: #8b0000"/>
     <use xlink:href="#m292f2a6953" x="152.623149" y="51.758655" style="fill: #8b0000; stroke: #8b0000"/>
     <use xlink:href="#m292f2a6953" x="167.910875" y="53.864375" style="fill: #8b0000; stroke: #8b0000"/>
     <use xlink:href="#m292f2a6953" x="183.198601" y="56.280747" style="fill: #8b0000; stroke: #8b0000"/>
     <use xlink:href="#m292f2a6953" x="198.486327" y="59.111381" style="fill: #8b0000; stroke: #8b0000"/>
     <use xlink:href="#m292f2a6953" x="213.774052" y="62.494443" style="fill: #8b0000; stroke: #8b0000"/>
     <use xlink:href="#m292f2a6953" x="229.061778" y="66.614178" style="fill: #8b0000; stroke: #8b0000"/>
     <use xlink:href="#m292f2a6953" x="244.349504" y="71.716275" style="fill: #8b0000; stroke: #8b0000"/>
     <use xlink:href="#m292f2a6953" x="259.63723" y="78.128377" style="fill: #8b0000; stroke: #8b0000"/>
     <use xlink:href="#m292f2a6953" x="274.924955" y="86.287441" style="fill: #8b0000; stroke: #8b0000"/>
     <use xlink:href="#m292f2a6953" x="290.212681" y="96.77605" style="fill: #8b0000; stroke: #8b0000"/>
     <use xlink:href="#m292f2a6953" x="305.500407" y="110.371186" style="fill: #8b0000; stroke: #8b0000"/>
     <use xlink:href="#m292f2a6953" x="320.788133" y="128.10894" style="fill: #8b0000; stroke: #8b0000"/>
     <use xlink:href="#m292f2a6953" x="336.075859" y="151.370965" style="fill: #8b0000; stroke: #8b0000"/>
    </g>
   </g>
   <g id="line2d_74">
    <path d="M 78.655431 43.83576 
L 93.943157 45.359839 
L 109.230882 46.494554 
L 124.518608 48.156144 
L 139.806334 49.777244 
L 155.09406 51.429385 
L 170.381786 53.394749 
L 185.669511 55.904943 
L 200.957237 58.744484 
L 216.244963 62.338371 
L 231.532689 66.5133 
L 246.820415 72.13464 
L 262.10814 77.684173 
M 292.683592 94.275063 
L 292.815595 361 
" clip-path="url(#p9ff4f564f9)" style="fill: none; stroke: #1f77b4; stroke-width: 1.5; stroke-linecap: square"/>
   </g>
   <g id="patch_3">
    <path d="M 60.468889 190.4328 
L 60.468889 25.44 
" style="fill: none; stroke: #000000; stroke-width: 0.8; stroke-linejoin: miter; stroke-linecap: square"/>
   </g>
   <g id="patch_4">
    <path d="M 349.2 190.4328 
L 349.2 25.44 
" style="fill: none; stroke: #000000; stroke-width: 0.8; stroke-linejoin: miter; stroke-linecap: square"/>
   </g>
   <g id="patch_5">
    <path d="M 60.468889 190.4328 
L 349.2 190.4328 
" style="fill: none; stroke: #000000; stroke-width: 0.8; stroke-linejoin: miter; stroke-linecap: square"/>
   </g>
   <g id="patch_6">
    <path d="M 60.468889 25.44 
L 349.2 25.44 
" style="fill: none; stroke: #000000; stroke-width: 0.8; stroke-linejoin: miter; stroke-linecap: square"/>
   </g>
   <g id="text_7">
    <!-- N = 800; (p=0.058) -->
    <g transform="translate(145.427882 19.44) scale(0.12 -0.12)">
     <defs>
      <path id="DejaVuSans-4e" d="M 628 4666 
L 1478 4666 
L 3547 763 
L 3547 4666 
L 4159 4666 
L 4159 0 
L 3309 0 
L 1241 3903 
L 1241 0 
L 628 0 
L 628 4666 
z
" transform="scale(0.015625)"/>
      <path id="DejaVuSans-3d" d="M 678 2906 
L 4684 2906 
L 4684 2381 
L 678 2381 
L 678 2906 
z
M 678 1631 
L 4684 1631 
L 4684 1100 
L 678 1100 
L 678 1631 
z
" transform="scale(0.015625)"/>
      <path id="DejaVuSans-38" d="M 2034 2216 
Q 1584 2216 1326 1975 
Q 1069 1734 1069 1313 
Q 1069 891 1326 650 
Q 1584 409 2034 409 
Q 2484 409 2743 651 
Q 3003 894 3003 1313 
Q 3003 1734 2745 1975 
Q 2488 2216 2034 2216 
z
M 1403 2484 
Q 997 2584 770 2862 
Q 544 3141 544 3541 
Q 544 4100 942 4425 
Q 1341 4750 2034 4750 
Q 2731 4750 3128 4425 
Q 3525 4100 3525 3541 
Q 3525 3141 3298 2862 
Q 3072 2584 2669 2484 
Q 3125 2378 3379 2068 
Q 3634 1759 3634 1313 
Q 3634 634 3220 271 
Q 2806 -91 2034 -91 
Q 1263 -91 848 271 
Q 434 634 434 1313 
Q 434 1759 690 2068 
Q 947 2378 1403 2484 
z
M 1172 3481 
Q 1172 3119 1398 2916 
Q 1625 2713 2034 2713 
Q 2441 2713 2670 2916 
Q 2900 3119 2900 3481 
Q 2900 3844 2670 4047 
Q 2441 4250 2034 4250 
Q 1625 4250 1398 4047 
Q 1172 3844 1172 3481 
z
" transform="scale(0.015625)"/>
      <path id="DejaVuSans-3b" d="M 750 3309 
L 1409 3309 
L 1409 2516 
L 750 2516 
L 750 3309 
z
M 750 794 
L 1409 794 
L 1409 256 
L 897 -744 
L 494 -744 
L 750 256 
L 750 794 
z
" transform="scale(0.015625)"/>
      <path id="DejaVuSans-70" d="M 1159 525 
L 1159 -1331 
L 581 -1331 
L 581 3500 
L 1159 3500 
L 1159 2969 
Q 1341 3281 1617 3432 
Q 1894 3584 2278 3584 
Q 2916 3584 3314 3078 
Q 3713 2572 3713 1747 
Q 3713 922 3314 415 
Q 2916 -91 2278 -91 
Q 1894 -91 1617 61 
Q 1341 213 1159 525 
z
M 3116 1747 
Q 3116 2381 2855 2742 
Q 2594 3103 2138 3103 
Q 1681 3103 1420 2742 
Q 1159 2381 1159 1747 
Q 1159 1113 1420 752 
Q 1681 391 2138 391 
Q 2594 391 2855 752 
Q 3116 1113 3116 1747 
z
" transform="scale(0.015625)"/>
      <path id="DejaVuSans-2e" d="M 684 794 
L 1344 794 
L 1344 0 
L 684 0 
L 684 794 
z
" transform="scale(0.015625)"/>
     </defs>
     <use xlink:href="#DejaVuSans-4e"/>
     <use xlink:href="#DejaVuSans-20" x="74.804688"/>
     <use xlink:href="#DejaVuSans-3d" x="106.591797"/>
     <use xlink:href="#DejaVuSans-20" x="190.380859"/>
     <use xlink:href="#DejaVuSans-38" x="222.167969"/>
     <use xlink:href="#DejaVuSans-30" x="285.791016"/>
     <use xlink:href="#DejaVuSans-30" x="349.414062"/>
     <use xlink:href="#DejaVuSans-3b" x="413.037109"/>
     <use xlink:href="#DejaVuSans-20" x="446.728516"/>
     <use xlink:href="#DejaVuSans-28" x="478.515625"/>
     <use xlink:href="#DejaVuSans-70" x="517.529297"/>
     <use xlink:href="#DejaVuSans-3d" x="581.005859"/>
     <use xlink:href="#DejaVuSans-30" x="664.794922"/>
     <use xlink:href="#DejaVuSans-2e" x="728.417969"/>
     <use xlink:href="#DejaVuSans-30" x="760.205078"/>
     <use xlink:href="#DejaVuSans-35" x="823.828125"/>
     <use xlink:href="#DejaVuSans-38" x="887.451172"/>
     <use xlink:href="#DejaVuSans-29" x="951.074219"/>
    </g>
   </g>
   <g id="legend_1">
    <g id="patch_7">
     <path d="M 67.468889 185.4328 
L 200.068889 185.4328 
Q 202.068889 185.4328 202.068889 183.4328 
L 202.068889 125.699988 
Q 202.068889 123.699988 200.068889 123.699988 
L 67.468889 123.699988 
Q 65.468889 123.699988 65.468889 125.699988 
L 65.468889 183.4328 
Q 65.468889 185.4328 67.468889 185.4328 
z
" style="fill: #ffffff; opacity: 0.8; stroke: #cccccc; stroke-linejoin: miter"/>
    </g>
    <g id="line2d_75">
     <path d="M 69.468889 131.798425 
L 79.468889 131.798425 
L 89.468889 131.798425 
" style="fill: none; stroke-dasharray: 1.5,2.475; stroke-dashoffset: 0; stroke: #000000; stroke-width: 1.5"/>
    </g>
    <g id="text_8">
     <!-- Input -->
     <g transform="translate(97.468889 135.298425) scale(0.1 -0.1)">
      <defs>
       <path id="DejaVuSans-49" d="M 628 4666 
L 1259 4666 
L 1259 0 
L 628 0 
L 628 4666 
z
" transform="scale(0.015625)"/>
       <path id="DejaVuSans-75" d="M 544 1381 
L 544 3500 
L 1119 3500 
L 1119 1403 
Q 1119 906 1312 657 
Q 1506 409 1894 409 
Q 2359 409 2629 706 
Q 2900 1003 2900 1516 
L 2900 3500 
L 3475 3500 
L 3475 0 
L 2900 0 
L 2900 538 
Q 2691 219 2414 64 
Q 2138 -91 1772 -91 
Q 1169 -91 856 284 
Q 544 659 544 1381 
z
M 1991 3584 
L 1991 3584 
z
" transform="scale(0.015625)"/>
       <path id="DejaVuSans-74" d="M 1172 4494 
L 1172 3500 
L 2356 3500 
L 2356 3053 
L 1172 3053 
L 1172 1153 
Q 1172 725 1289 603 
Q 1406 481 1766 481 
L 2356 481 
L 2356 0 
L 1766 0 
Q 1100 0 847 248 
Q 594 497 594 1153 
L 594 3053 
L 172 3053 
L 172 3500 
L 594 3500 
L 594 4494 
L 1172 4494 
z
" transform="scale(0.015625)"/>
      </defs>
      <use xlink:href="#DejaVuSans-49"/>
      <use xlink:href="#DejaVuSans-6e" x="29.492188"/>
      <use xlink:href="#DejaVuSans-70" x="92.871094"/>
      <use xlink:href="#DejaVuSans-75" x="156.347656"/>
      <use xlink:href="#DejaVuSans-74" x="219.726562"/>
     </g>
    </g>
    <g id="LineCollection_4">
     <path d="M 79.468889 151.47655 
L 79.468889 141.47655 
" style="fill: none; stroke: #006400; stroke-width: 1.5"/>
    </g>
    <g id="line2d_76"/>
    <g id="line2d_77">
     <g>
      <use xlink:href="#m78411dacd2" x="79.468889" y="146.47655" style="fill: #006400; stroke: #006400"/>
     </g>
    </g>
    <g id="text_9">
     <!-- Fluxpoints Nuisance -->
     <g transform="translate(97.468889 149.97655) scale(0.1 -0.1)">
      <defs>
       <path id="DejaVuSans-46" d="M 628 4666 
L 3309 4666 
L 3309 4134 
L 1259 4134 
L 1259 2759 
L 3109 2759 
L 3109 2228 
L 1259 2228 
L 1259 0 
L 628 0 
L 628 4666 
z
" transform="scale(0.015625)"/>
       <path id="DejaVuSans-6c" d="M 603 4863 
L 1178 4863 
L 1178 0 
L 603 0 
L 603 4863 
z
" transform="scale(0.015625)"/>
       <path id="DejaVuSans-78" d="M 3513 3500 
L 2247 1797 
L 3578 0 
L 2900 0 
L 1881 1375 
L 863 0 
L 184 0 
L 1544 1831 
L 300 3500 
L 978 3500 
L 1906 2253 
L 2834 3500 
L 3513 3500 
z
" transform="scale(0.015625)"/>
       <path id="DejaVuSans-6f" d="M 1959 3097 
Q 1497 3097 1228 2736 
Q 959 2375 959 1747 
Q 959 1119 1226 758 
Q 1494 397 1959 397 
Q 2419 397 2687 759 
Q 2956 1122 2956 1747 
Q 2956 2369 2687 2733 
Q 2419 3097 1959 3097 
z
M 1959 3584 
Q 2709 3584 3137 3096 
Q 3566 2609 3566 1747 
Q 3566 888 3137 398 
Q 2709 -91 1959 -91 
Q 1206 -91 779 398 
Q 353 888 353 1747 
Q 353 2609 779 3096 
Q 1206 3584 1959 3584 
z
" transform="scale(0.015625)"/>
       <path id="DejaVuSans-69" d="M 603 3500 
L 1178 3500 
L 1178 0 
L 603 0 
L 603 3500 
z
M 603 4863 
L 1178 4863 
L 1178 4134 
L 603 4134 
L 603 4863 
z
" transform="scale(0.015625)"/>
       <path id="DejaVuSans-61" d="M 2194 1759 
Q 1497 1759 1228 1600 
Q 959 1441 959 1056 
Q 959 750 1161 570 
Q 1363 391 1709 391 
Q 2188 391 2477 730 
Q 2766 1069 2766 1631 
L 2766 1759 
L 2194 1759 
z
M 3341 1997 
L 3341 0 
L 2766 0 
L 2766 531 
Q 2569 213 2275 61 
Q 1981 -91 1556 -91 
Q 1019 -91 701 211 
Q 384 513 384 1019 
Q 384 1609 779 1909 
Q 1175 2209 1959 2209 
L 2766 2209 
L 2766 2266 
Q 2766 2663 2505 2880 
Q 2244 3097 1772 3097 
Q 1472 3097 1187 3025 
Q 903 2953 641 2809 
L 641 3341 
Q 956 3463 1253 3523 
Q 1550 3584 1831 3584 
Q 2591 3584 2966 3190 
Q 3341 2797 3341 1997 
z
" transform="scale(0.015625)"/>
      </defs>
      <use xlink:href="#DejaVuSans-46"/>
      <use xlink:href="#DejaVuSans-6c" x="57.519531"/>
      <use xlink:href="#DejaVuSans-75" x="85.302734"/>
      <use xlink:href="#DejaVuSans-78" x="148.681641"/>
      <use xlink:href="#DejaVuSans-70" x="207.861328"/>
      <use xlink:href="#DejaVuSans-6f" x="271.337891"/>
      <use xlink:href="#DejaVuSans-69" x="332.519531"/>
      <use xlink:href="#DejaVuSans-6e" x="360.302734"/>
      <use xlink:href="#DejaVuSans-74" x="423.681641"/>
      <use xlink:href="#DejaVuSans-73" x="462.890625"/>
      <use xlink:href="#DejaVuSans-20" x="514.990234"/>
      <use xlink:href="#DejaVuSans-4e" x="546.777344"/>
      <use xlink:href="#DejaVuSans-75" x="621.582031"/>
      <use xlink:href="#DejaVuSans-69" x="684.960938"/>
      <use xlink:href="#DejaVuSans-73" x="712.744141"/>
      <use xlink:href="#DejaVuSans-61" x="764.84375"/>
      <use xlink:href="#DejaVuSans-6e" x="826.123047"/>
      <use xlink:href="#DejaVuSans-63" x="889.501953"/>
      <use xlink:href="#DejaVuSans-65" x="944.482422"/>
     </g>
    </g>
    <g id="LineCollection_5">
     <path d="M 79.468889 166.154675 
L 79.468889 156.154675 
" style="fill: none; stroke: #8b0000; stroke-width: 1.5"/>
    </g>
    <g id="line2d_78"/>
    <g id="line2d_79">
     <g>
      <use xlink:href="#m292f2a6953" x="79.468889" y="161.154675" style="fill: #8b0000; stroke: #8b0000"/>
     </g>
    </g>
    <g id="text_10">
     <!-- Fluxpoints Standard -->
     <g transform="translate(97.468889 164.654675) scale(0.1 -0.1)">
      <defs>
       <path id="DejaVuSans-53" d="M 3425 4513 
L 3425 3897 
Q 3066 4069 2747 4153 
Q 2428 4238 2131 4238 
Q 1616 4238 1336 4038 
Q 1056 3838 1056 3469 
Q 1056 3159 1242 3001 
Q 1428 2844 1947 2747 
L 2328 2669 
Q 3034 2534 3370 2195 
Q 3706 1856 3706 1288 
Q 3706 609 3251 259 
Q 2797 -91 1919 -91 
Q 1588 -91 1214 -16 
Q 841 59 441 206 
L 441 856 
Q 825 641 1194 531 
Q 1563 422 1919 422 
Q 2459 422 2753 634 
Q 3047 847 3047 1241 
Q 3047 1584 2836 1778 
Q 2625 1972 2144 2069 
L 1759 2144 
Q 1053 2284 737 2584 
Q 422 2884 422 3419 
Q 422 4038 858 4394 
Q 1294 4750 2059 4750 
Q 2388 4750 2728 4690 
Q 3069 4631 3425 4513 
z
" transform="scale(0.015625)"/>
       <path id="DejaVuSans-72" d="M 2631 2963 
Q 2534 3019 2420 3045 
Q 2306 3072 2169 3072 
Q 1681 3072 1420 2755 
Q 1159 2438 1159 1844 
L 1159 0 
L 581 0 
L 581 3500 
L 1159 3500 
L 1159 2956 
Q 1341 3275 1631 3429 
Q 1922 3584 2338 3584 
Q 2397 3584 2469 3576 
Q 2541 3569 2628 3553 
L 2631 2963 
z
" transform="scale(0.015625)"/>
      </defs>
      <use xlink:href="#DejaVuSans-46"/>
      <use xlink:href="#DejaVuSans-6c" x="57.519531"/>
      <use xlink:href="#DejaVuSans-75" x="85.302734"/>
      <use xlink:href="#DejaVuSans-78" x="148.681641"/>
      <use xlink:href="#DejaVuSans-70" x="207.861328"/>
      <use xlink:href="#DejaVuSans-6f" x="271.337891"/>
      <use xlink:href="#DejaVuSans-69" x="332.519531"/>
      <use xlink:href="#DejaVuSans-6e" x="360.302734"/>
      <use xlink:href="#DejaVuSans-74" x="423.681641"/>
      <use xlink:href="#DejaVuSans-73" x="462.890625"/>
      <use xlink:href="#DejaVuSans-20" x="514.990234"/>
      <use xlink:href="#DejaVuSans-53" x="546.777344"/>
      <use xlink:href="#DejaVuSans-74" x="610.253906"/>
      <use xlink:href="#DejaVuSans-61" x="649.462891"/>
      <use xlink:href="#DejaVuSans-6e" x="710.742188"/>
      <use xlink:href="#DejaVuSans-64" x="774.121094"/>
      <use xlink:href="#DejaVuSans-61" x="837.597656"/>
      <use xlink:href="#DejaVuSans-72" x="898.876953"/>
      <use xlink:href="#DejaVuSans-64" x="938.240234"/>
     </g>
    </g>
    <g id="LineCollection_6">
     <path d="M 79.468889 180.8328 
L 79.468889 170.8328 
" style="fill: none; stroke: #1f77b4; stroke-width: 1.5"/>
    </g>
    <g id="line2d_80">
     <path d="M 69.468889 175.8328 
L 89.468889 175.8328 
" style="fill: none; stroke: #1f77b4; stroke-width: 1.5; stroke-linecap: square"/>
    </g>
    <g id="line2d_81"/>
    <g id="text_11">
     <!-- $\mu$, $\sigma$ -->
     <g transform="translate(97.468889 179.3328) scale(0.1 -0.1)">
      <defs>
       <path id="DejaVuSans-Oblique-3bc" d="M -84 -1331 
L 856 3500 
L 1434 3500 
L 1009 1322 
Q 997 1256 987 1175 
Q 978 1094 978 1013 
Q 978 722 1161 565 
Q 1344 409 1684 409 
Q 2147 409 2431 671 
Q 2716 934 2816 1459 
L 3213 3500 
L 3788 3500 
L 3266 809 
Q 3253 750 3248 706 
Q 3244 663 3244 628 
Q 3244 531 3283 486 
Q 3322 441 3406 441 
Q 3438 441 3492 456 
Q 3547 472 3647 513 
L 3559 50 
Q 3422 -19 3297 -55 
Q 3172 -91 3053 -91 
Q 2847 -91 2730 40 
Q 2613 172 2613 403 
Q 2438 153 2195 31 
Q 1953 -91 1625 -91 
Q 1334 -91 1117 43 
Q 900 178 831 397 
L 494 -1331 
L -84 -1331 
z
" transform="scale(0.015625)"/>
       <path id="DejaVuSans-2c" d="M 750 794 
L 1409 794 
L 1409 256 
L 897 -744 
L 494 -744 
L 750 256 
L 750 794 
z
" transform="scale(0.015625)"/>
       <path id="DejaVuSans-Oblique-3c3" d="M 2219 3044 
Q 1744 3044 1422 2700 
Q 1081 2341 969 1747 
Q 844 1119 1044 756 
Q 1241 397 1706 397 
Q 2166 397 2503 759 
Q 2844 1122 2966 1747 
Q 3075 2319 2881 2700 
Q 2700 3044 2219 3044 
z
M 2309 3503 
L 4219 3500 
L 4106 2925 
L 3463 2925 
Q 3706 2438 3575 1747 
Q 3406 888 2884 400 
Q 2359 -91 1609 -91 
Q 856 -91 525 400 
Q 194 888 363 1747 
Q 528 2609 1050 3097 
Q 1484 3503 2309 3503 
z
" transform="scale(0.015625)"/>
      </defs>
      <use xlink:href="#DejaVuSans-Oblique-3bc" transform="translate(0 0.265625)"/>
      <use xlink:href="#DejaVuSans-2c" transform="translate(63.623047 0.265625)"/>
      <use xlink:href="#DejaVuSans-20" transform="translate(95.410156 0.265625)"/>
      <use xlink:href="#DejaVuSans-Oblique-3c3" transform="translate(127.197266 0.265625)"/>
     </g>
    </g>
   </g>
  </g>
  <g id="axes_2">
   <g id="patch_8">
    <path d="M 60.468889 314.728 
L 349.2 314.728 
L 349.2 204.7328 
L 60.468889 204.7328 
z
" style="fill: #ffffff"/>
   </g>
   <g id="matplotlib.axis_3">
    <g id="xtick_24">
     <g id="line2d_82">
      <g>
       <use xlink:href="#m93198a92cf" x="111.812345" y="314.728" style="stroke: #000000; stroke-width: 0.8"/>
      </g>
     </g>
     <g id="text_12">
      <!-- $\mathdefault{10^{0}}$ -->
      <g transform="translate(103.012345 329.326438) scale(0.1 -0.1)">
       <use xlink:href="#DejaVuSans-31" transform="translate(0 0.765625)"/>
       <use xlink:href="#DejaVuSans-30" transform="translate(63.623047 0.765625)"/>
       <use xlink:href="#DejaVuSans-30" transform="translate(128.203125 39.046875) scale(0.7)"/>
      </g>
     </g>
    </g>
    <g id="xtick_25">
     <g id="line2d_83">
      <g>
       <use xlink:href="#m93198a92cf" x="234.114151" y="314.728" style="stroke: #000000; stroke-width: 0.8"/>
      </g>
     </g>
     <g id="text_13">
      <!-- $\mathdefault{10^{1}}$ -->
      <g transform="translate(225.314151 329.326438) scale(0.1 -0.1)">
       <use xlink:href="#DejaVuSans-31" transform="translate(0 0.684375)"/>
       <use xlink:href="#DejaVuSans-30" transform="translate(63.623047 0.684375)"/>
       <use xlink:href="#DejaVuSans-31" transform="translate(128.203125 38.965625) scale(0.7)"/>
      </g>
     </g>
    </g>
    <g id="xtick_26">
     <g id="line2d_84">
      <g>
       <use xlink:href="#mf03ac02084" x="63.143563" y="314.728" style="stroke: #000000; stroke-width: 0.6"/>
      </g>
     </g>
    </g>
    <g id="xtick_27">
     <g id="line2d_85">
      <g>
       <use xlink:href="#mf03ac02084" x="74.995833" y="314.728" style="stroke: #000000; stroke-width: 0.6"/>
      </g>
     </g>
    </g>
    <g id="xtick_28">
     <g id="line2d_86">
      <g>
       <use xlink:href="#mf03ac02084" x="84.679842" y="314.728" style="stroke: #000000; stroke-width: 0.6"/>
      </g>
     </g>
    </g>
    <g id="xtick_29">
     <g id="line2d_87">
      <g>
       <use xlink:href="#mf03ac02084" x="92.867556" y="314.728" style="stroke: #000000; stroke-width: 0.6"/>
      </g>
     </g>
    </g>
    <g id="xtick_30">
     <g id="line2d_88">
      <g>
       <use xlink:href="#mf03ac02084" x="99.960076" y="314.728" style="stroke: #000000; stroke-width: 0.6"/>
      </g>
     </g>
    </g>
    <g id="xtick_31">
     <g id="line2d_89">
      <g>
       <use xlink:href="#mf03ac02084" x="106.216121" y="314.728" style="stroke: #000000; stroke-width: 0.6"/>
      </g>
     </g>
    </g>
    <g id="xtick_32">
     <g id="line2d_90">
      <g>
       <use xlink:href="#mf03ac02084" x="148.628857" y="314.728" style="stroke: #000000; stroke-width: 0.6"/>
      </g>
     </g>
    </g>
    <g id="xtick_33">
     <g id="line2d_91">
      <g>
       <use xlink:href="#mf03ac02084" x="170.165136" y="314.728" style="stroke: #000000; stroke-width: 0.6"/>
      </g>
     </g>
    </g>
    <g id="xtick_34">
     <g id="line2d_92">
      <g>
       <use xlink:href="#mf03ac02084" x="185.44537" y="314.728" style="stroke: #000000; stroke-width: 0.6"/>
      </g>
     </g>
    </g>
    <g id="xtick_35">
     <g id="line2d_93">
      <g>
       <use xlink:href="#mf03ac02084" x="197.297639" y="314.728" style="stroke: #000000; stroke-width: 0.6"/>
      </g>
     </g>
    </g>
    <g id="xtick_36">
     <g id="line2d_94">
      <g>
       <use xlink:href="#mf03ac02084" x="206.981649" y="314.728" style="stroke: #000000; stroke-width: 0.6"/>
      </g>
     </g>
    </g>
    <g id="xtick_37">
     <g id="line2d_95">
      <g>
       <use xlink:href="#mf03ac02084" x="215.169362" y="314.728" style="stroke: #000000; stroke-width: 0.6"/>
      </g>
     </g>
    </g>
    <g id="xtick_38">
     <g id="line2d_96">
      <g>
       <use xlink:href="#mf03ac02084" x="222.261882" y="314.728" style="stroke: #000000; stroke-width: 0.6"/>
      </g>
     </g>
    </g>
    <g id="xtick_39">
     <g id="line2d_97">
      <g>
       <use xlink:href="#mf03ac02084" x="228.517928" y="314.728" style="stroke: #000000; stroke-width: 0.6"/>
      </g>
     </g>
    </g>
    <g id="xtick_40">
     <g id="line2d_98">
      <g>
       <use xlink:href="#mf03ac02084" x="270.930664" y="314.728" style="stroke: #000000; stroke-width: 0.6"/>
      </g>
     </g>
    </g>
    <g id="xtick_41">
     <g id="line2d_99">
      <g>
       <use xlink:href="#mf03ac02084" x="292.466943" y="314.728" style="stroke: #000000; stroke-width: 0.6"/>
      </g>
     </g>
    </g>
    <g id="xtick_42">
     <g id="line2d_100">
      <g>
       <use xlink:href="#mf03ac02084" x="307.747176" y="314.728" style="stroke: #000000; stroke-width: 0.6"/>
      </g>
     </g>
    </g>
    <g id="xtick_43">
     <g id="line2d_101">
      <g>
       <use xlink:href="#mf03ac02084" x="319.599446" y="314.728" style="stroke: #000000; stroke-width: 0.6"/>
      </g>
     </g>
    </g>
    <g id="xtick_44">
     <g id="line2d_102">
      <g>
       <use xlink:href="#mf03ac02084" x="329.283455" y="314.728" style="stroke: #000000; stroke-width: 0.6"/>
      </g>
     </g>
    </g>
    <g id="xtick_45">
     <g id="line2d_103">
      <g>
       <use xlink:href="#mf03ac02084" x="337.471168" y="314.728" style="stroke: #000000; stroke-width: 0.6"/>
      </g>
     </g>
    </g>
    <g id="xtick_46">
     <g id="line2d_104">
      <g>
       <use xlink:href="#mf03ac02084" x="344.563688" y="314.728" style="stroke: #000000; stroke-width: 0.6"/>
      </g>
     </g>
    </g>
    <g id="text_14">
     <!-- Energy [TeV] -->
     <g transform="translate(173.136788 343.004563) scale(0.1 -0.1)">
      <defs>
       <path id="DejaVuSans-45" d="M 628 4666 
L 3578 4666 
L 3578 4134 
L 1259 4134 
L 1259 2753 
L 3481 2753 
L 3481 2222 
L 1259 2222 
L 1259 531 
L 3634 531 
L 3634 0 
L 628 0 
L 628 4666 
z
" transform="scale(0.015625)"/>
       <path id="DejaVuSans-67" d="M 2906 1791 
Q 2906 2416 2648 2759 
Q 2391 3103 1925 3103 
Q 1463 3103 1205 2759 
Q 947 2416 947 1791 
Q 947 1169 1205 825 
Q 1463 481 1925 481 
Q 2391 481 2648 825 
Q 2906 1169 2906 1791 
z
M 3481 434 
Q 3481 -459 3084 -895 
Q 2688 -1331 1869 -1331 
Q 1566 -1331 1297 -1286 
Q 1028 -1241 775 -1147 
L 775 -588 
Q 1028 -725 1275 -790 
Q 1522 -856 1778 -856 
Q 2344 -856 2625 -561 
Q 2906 -266 2906 331 
L 2906 616 
Q 2728 306 2450 153 
Q 2172 0 1784 0 
Q 1141 0 747 490 
Q 353 981 353 1791 
Q 353 2603 747 3093 
Q 1141 3584 1784 3584 
Q 2172 3584 2450 3431 
Q 2728 3278 2906 2969 
L 2906 3500 
L 3481 3500 
L 3481 434 
z
" transform="scale(0.015625)"/>
       <path id="DejaVuSans-79" d="M 2059 -325 
Q 1816 -950 1584 -1140 
Q 1353 -1331 966 -1331 
L 506 -1331 
L 506 -850 
L 844 -850 
Q 1081 -850 1212 -737 
Q 1344 -625 1503 -206 
L 1606 56 
L 191 3500 
L 800 3500 
L 1894 763 
L 2988 3500 
L 3597 3500 
L 2059 -325 
z
" transform="scale(0.015625)"/>
      </defs>
      <use xlink:href="#DejaVuSans-45"/>
      <use xlink:href="#DejaVuSans-6e" x="63.183594"/>
      <use xlink:href="#DejaVuSans-65" x="126.5625"/>
      <use xlink:href="#DejaVuSans-72" x="188.085938"/>
      <use xlink:href="#DejaVuSans-67" x="227.449219"/>
      <use xlink:href="#DejaVuSans-79" x="290.925781"/>
      <use xlink:href="#DejaVuSans-20" x="350.105469"/>
      <use xlink:href="#DejaVuSans-5b" x="381.892578"/>
      <use xlink:href="#DejaVuSans-54" x="420.90625"/>
      <use xlink:href="#DejaVuSans-65" x="464.990234"/>
      <use xlink:href="#DejaVuSans-56" x="526.513672"/>
      <use xlink:href="#DejaVuSans-5d" x="594.921875"/>
     </g>
    </g>
   </g>
   <g id="matplotlib.axis_4">
    <g id="ytick_48">
     <g id="line2d_105">
      <g>
       <use xlink:href="#mab5b5d996d" x="60.468889" y="311.277935" style="stroke: #000000; stroke-width: 0.8"/>
      </g>
     </g>
     <g id="text_15">
      <!-- 0.5 -->
      <g transform="translate(37.565764 315.077154) scale(0.1 -0.1)">
       <use xlink:href="#DejaVuSans-30"/>
       <use xlink:href="#DejaVuSans-2e" x="63.623047"/>
       <use xlink:href="#DejaVuSans-35" x="95.410156"/>
      </g>
     </g>
    </g>
    <g id="ytick_49">
     <g id="line2d_106">
      <g>
       <use xlink:href="#mab5b5d996d" x="60.468889" y="275.574015" style="stroke: #000000; stroke-width: 0.8"/>
      </g>
     </g>
     <g id="text_16">
      <!-- 0.6 -->
      <g transform="translate(37.565764 279.373233) scale(0.1 -0.1)">
       <use xlink:href="#DejaVuSans-30"/>
       <use xlink:href="#DejaVuSans-2e" x="63.623047"/>
       <use xlink:href="#DejaVuSans-36" x="95.410156"/>
      </g>
     </g>
    </g>
    <g id="ytick_50">
     <g id="line2d_107">
      <g>
       <use xlink:href="#mab5b5d996d" x="60.468889" y="239.870094" style="stroke: #000000; stroke-width: 0.8"/>
      </g>
     </g>
     <g id="text_17">
      <!-- 0.7 -->
      <g transform="translate(37.565764 243.669313) scale(0.1 -0.1)">
       <defs>
        <path id="DejaVuSans-37" d="M 525 4666 
L 3525 4666 
L 3525 4397 
L 1831 0 
L 1172 0 
L 2766 4134 
L 525 4134 
L 525 4666 
z
" transform="scale(0.015625)"/>
       </defs>
       <use xlink:href="#DejaVuSans-30"/>
       <use xlink:href="#DejaVuSans-2e" x="63.623047"/>
       <use xlink:href="#DejaVuSans-37" x="95.410156"/>
      </g>
     </g>
    </g>
    <g id="text_18">
     <!-- Coverage -->
     <g transform="translate(31.486077 283.687431) rotate(-90) scale(0.1 -0.1)">
      <defs>
       <path id="DejaVuSans-43" d="M 4122 4306 
L 4122 3641 
Q 3803 3938 3442 4084 
Q 3081 4231 2675 4231 
Q 1875 4231 1450 3742 
Q 1025 3253 1025 2328 
Q 1025 1406 1450 917 
Q 1875 428 2675 428 
Q 3081 428 3442 575 
Q 3803 722 4122 1019 
L 4122 359 
Q 3791 134 3420 21 
Q 3050 -91 2638 -91 
Q 1578 -91 968 557 
Q 359 1206 359 2328 
Q 359 3453 968 4101 
Q 1578 4750 2638 4750 
Q 3056 4750 3426 4639 
Q 3797 4528 4122 4306 
z
" transform="scale(0.015625)"/>
       <path id="DejaVuSans-76" d="M 191 3500 
L 800 3500 
L 1894 563 
L 2988 3500 
L 3597 3500 
L 2284 0 
L 1503 0 
L 191 3500 
z
" transform="scale(0.015625)"/>
      </defs>
      <use xlink:href="#DejaVuSans-43"/>
      <use xlink:href="#DejaVuSans-6f" x="69.824219"/>
      <use xlink:href="#DejaVuSans-76" x="131.005859"/>
      <use xlink:href="#DejaVuSans-65" x="190.185547"/>
      <use xlink:href="#DejaVuSans-72" x="251.708984"/>
      <use xlink:href="#DejaVuSans-61" x="292.822266"/>
      <use xlink:href="#DejaVuSans-67" x="354.101562"/>
      <use xlink:href="#DejaVuSans-65" x="417.578125"/>
     </g>
    </g>
   </g>
   <g id="LineCollection_7">
    <path d="M 73.593031 279.379886 
L 73.593031 237.849419 
" clip-path="url(#p2d3dacea39)" style="fill: none; stroke: #ff0000; stroke-width: 1.5"/>
    <path d="M 88.880757 265.990916 
L 88.880757 224.460449 
" clip-path="url(#p2d3dacea39)" style="fill: none; stroke: #ff0000; stroke-width: 1.5"/>
    <path d="M 104.168482 286.074371 
L 104.168482 244.543904 
" clip-path="url(#p2d3dacea39)" style="fill: none; stroke: #ff0000; stroke-width: 1.5"/>
    <path d="M 119.456208 282.503979 
L 119.456208 240.973512 
" clip-path="url(#p2d3dacea39)" style="fill: none; stroke: #ff0000; stroke-width: 1.5"/>
    <path d="M 134.743934 282.503979 
L 134.743934 240.973512 
" clip-path="url(#p2d3dacea39)" style="fill: none; stroke: #ff0000; stroke-width: 1.5"/>
    <path d="M 150.03166 281.165082 
L 150.03166 239.634615 
" clip-path="url(#p2d3dacea39)" style="fill: none; stroke: #ff0000; stroke-width: 1.5"/>
    <path d="M 165.319385 281.165082 
L 165.319385 239.634615 
" clip-path="url(#p2d3dacea39)" style="fill: none; stroke: #ff0000; stroke-width: 1.5"/>
    <path d="M 180.607111 274.024298 
L 180.607111 232.493831 
" clip-path="url(#p2d3dacea39)" style="fill: none; stroke: #ff0000; stroke-width: 1.5"/>
    <path d="M 195.894837 279.379886 
L 195.894837 237.849419 
" clip-path="url(#p2d3dacea39)" style="fill: none; stroke: #ff0000; stroke-width: 1.5"/>
    <path d="M 211.182563 274.916896 
L 211.182563 233.386429 
" clip-path="url(#p2d3dacea39)" style="fill: none; stroke: #ff0000; stroke-width: 1.5"/>
    <path d="M 226.470289 272.685401 
L 226.470289 231.154934 
" clip-path="url(#p2d3dacea39)" style="fill: none; stroke: #ff0000; stroke-width: 1.5"/>
    <path d="M 241.758014 274.916896 
L 241.758014 233.386429 
" clip-path="url(#p2d3dacea39)" style="fill: none; stroke: #ff0000; stroke-width: 1.5"/>
    <path d="M 257.04574 271.792803 
L 257.04574 230.262336 
" clip-path="url(#p2d3dacea39)" style="fill: none; stroke: #ff0000; stroke-width: 1.5"/>
    <path d="M 272.333466 260.189029 
L 272.333466 218.658562 
" clip-path="url(#p2d3dacea39)" style="fill: none; stroke: #ff0000; stroke-width: 1.5"/>
    <path d="M 287.621192 251.709347 
L 287.621192 210.178881 
" clip-path="url(#p2d3dacea39)" style="fill: none; stroke: #ff0000; stroke-width: 1.5"/>
    <path d="M 302.908917 260.635328 
L 302.908917 219.104861 
" clip-path="url(#p2d3dacea39)" style="fill: none; stroke: #ff0000; stroke-width: 1.5"/>
    <path d="M 318.196643 283.396577 
L 318.196643 241.86611 
" clip-path="url(#p2d3dacea39)" style="fill: none; stroke: #ff0000; stroke-width: 1.5"/>
    <path d="M 333.484369 309.728218 
L 333.484369 268.197752 
" clip-path="url(#p2d3dacea39)" style="fill: none; stroke: #ff0000; stroke-width: 1.5"/>
   </g>
   <g id="LineCollection_8">
    <path d="M 73.593031 270.453906 
L 73.593031 228.923439 
" clip-path="url(#p2d3dacea39)" style="fill: none; stroke: #008000; stroke-width: 1.5"/>
    <path d="M 88.880757 259.74273 
L 88.880757 218.212263 
" clip-path="url(#p2d3dacea39)" style="fill: none; stroke: #008000; stroke-width: 1.5"/>
    <path d="M 104.168482 270.007607 
L 104.168482 228.47714 
" clip-path="url(#p2d3dacea39)" style="fill: none; stroke: #008000; stroke-width: 1.5"/>
    <path d="M 119.456208 262.420524 
L 119.456208 220.890057 
" clip-path="url(#p2d3dacea39)" style="fill: none; stroke: #008000; stroke-width: 1.5"/>
    <path d="M 134.743934 263.759421 
L 134.743934 222.228954 
" clip-path="url(#p2d3dacea39)" style="fill: none; stroke: #008000; stroke-width: 1.5"/>
    <path d="M 150.03166 259.296431 
L 150.03166 217.765964 
" clip-path="url(#p2d3dacea39)" style="fill: none; stroke: #008000; stroke-width: 1.5"/>
    <path d="M 165.319385 271.346504 
L 165.319385 229.816037 
" clip-path="url(#p2d3dacea39)" style="fill: none; stroke: #008000; stroke-width: 1.5"/>
    <path d="M 180.607111 267.329813 
L 180.607111 225.799346 
" clip-path="url(#p2d3dacea39)" style="fill: none; stroke: #008000; stroke-width: 1.5"/>
    <path d="M 195.894837 271.792803 
L 195.894837 230.262336 
" clip-path="url(#p2d3dacea39)" style="fill: none; stroke: #008000; stroke-width: 1.5"/>
    <path d="M 211.182563 270.900205 
L 211.182563 229.369738 
" clip-path="url(#p2d3dacea39)" style="fill: none; stroke: #008000; stroke-width: 1.5"/>
    <path d="M 226.470289 270.453906 
L 226.470289 228.923439 
" clip-path="url(#p2d3dacea39)" style="fill: none; stroke: #008000; stroke-width: 1.5"/>
    <path d="M 241.758014 272.685401 
L 241.758014 231.154934 
" clip-path="url(#p2d3dacea39)" style="fill: none; stroke: #008000; stroke-width: 1.5"/>
    <path d="M 257.04574 270.900205 
L 257.04574 229.369738 
" clip-path="url(#p2d3dacea39)" style="fill: none; stroke: #008000; stroke-width: 1.5"/>
    <path d="M 272.333466 259.296431 
L 272.333466 217.765964 
" clip-path="url(#p2d3dacea39)" style="fill: none; stroke: #008000; stroke-width: 1.5"/>
    <path d="M 287.621192 251.263048 
L 287.621192 209.732582 
" clip-path="url(#p2d3dacea39)" style="fill: none; stroke: #008000; stroke-width: 1.5"/>
    <path d="M 302.908917 258.403833 
L 302.908917 216.873366 
" clip-path="url(#p2d3dacea39)" style="fill: none; stroke: #008000; stroke-width: 1.5"/>
    <path d="M 318.196643 282.05768 
L 318.196643 240.527213 
" clip-path="url(#p2d3dacea39)" style="fill: none; stroke: #008000; stroke-width: 1.5"/>
    <path d="M 333.484369 307.943022 
L 333.484369 266.412556 
" clip-path="url(#p2d3dacea39)" style="fill: none; stroke: #008000; stroke-width: 1.5"/>
   </g>
   <g id="line2d_108">
    <path d="M 73.593031 247.010878 
L 88.880757 247.010878 
L 104.168482 247.010878 
L 119.456208 247.010878 
L 134.743934 247.010878 
L 150.03166 247.010878 
L 165.319385 247.010878 
L 180.607111 247.010878 
L 195.894837 247.010878 
L 211.182563 247.010878 
L 226.470289 247.010878 
L 241.758014 247.010878 
L 257.04574 247.010878 
L 272.333466 247.010878 
L 287.621192 247.010878 
L 302.908917 247.010878 
L 318.196643 247.010878 
L 333.484369 247.010878 
" clip-path="url(#p2d3dacea39)" style="fill: none; stroke-dasharray: 1.5,2.475; stroke-dashoffset: 0; stroke: #008000; stroke-width: 1.5"/>
   </g>
   <g id="line2d_109">
    <path d="M 73.593031 258.614652 
L 88.880757 245.225682 
L 104.168482 265.309138 
L 119.456208 261.738746 
L 134.743934 261.738746 
L 150.03166 260.399849 
L 165.319385 260.399849 
L 180.607111 253.259064 
L 195.894837 258.614652 
L 211.182563 254.151662 
L 226.470289 251.920167 
L 241.758014 254.151662 
L 257.04574 251.027569 
L 272.333466 239.423795 
L 287.621192 230.944114 
L 302.908917 239.870094 
L 318.196643 262.631344 
L 333.484369 288.962985 
" clip-path="url(#p2d3dacea39)" style="fill: none; stroke: #ff0000; stroke-width: 1.5; stroke-linecap: square"/>
   </g>
   <g id="line2d_110">
    <path d="M 73.593031 249.688672 
L 88.880757 238.977496 
L 104.168482 249.242373 
L 119.456208 241.65529 
L 134.743934 242.994187 
L 150.03166 238.531197 
L 165.319385 250.58127 
L 180.607111 246.564579 
L 195.894837 251.027569 
L 211.182563 250.134971 
L 226.470289 249.688672 
L 241.758014 251.920167 
L 257.04574 250.134971 
L 272.333466 238.531197 
L 287.621192 230.497815 
L 302.908917 237.638599 
L 318.196643 261.292447 
L 333.484369 287.177789 
" clip-path="url(#p2d3dacea39)" style="fill: none; stroke: #008000; stroke-width: 1.5; stroke-linecap: square"/>
   </g>
   <g id="patch_9">
    <path d="M 60.468889 314.728 
L 60.468889 204.7328 
" style="fill: none; stroke: #000000; stroke-width: 0.8; stroke-linejoin: miter; stroke-linecap: square"/>
   </g>
   <g id="patch_10">
    <path d="M 349.2 314.728 
L 349.2 204.7328 
" style="fill: none; stroke: #000000; stroke-width: 0.8; stroke-linejoin: miter; stroke-linecap: square"/>
   </g>
   <g id="patch_11">
    <path d="M 60.468889 314.728 
L 349.2 314.728 
" style="fill: none; stroke: #000000; stroke-width: 0.8; stroke-linejoin: miter; stroke-linecap: square"/>
   </g>
   <g id="patch_12">
    <path d="M 60.468889 204.7328 
L 349.2 204.7328 
" style="fill: none; stroke: #000000; stroke-width: 0.8; stroke-linejoin: miter; stroke-linecap: square"/>
   </g>
   <g id="legend_2">
    <g id="patch_13">
     <path d="M 164.497726 309.728 
L 245.171163 309.728 
Q 247.171163 309.728 247.171163 307.728 
L 247.171163 264.693625 
Q 247.171163 262.693625 245.171163 262.693625 
L 164.497726 262.693625 
Q 162.497726 262.693625 162.497726 264.693625 
L 162.497726 307.728 
Q 162.497726 309.728 164.497726 309.728 
z
" style="fill: #ffffff; opacity: 0.8; stroke: #cccccc; stroke-linejoin: miter"/>
    </g>
    <g id="line2d_111">
     <path d="M 166.497726 270.792063 
L 176.497726 270.792063 
L 186.497726 270.792063 
" style="fill: none; stroke-dasharray: 1.5,2.475; stroke-dashoffset: 0; stroke: #008000; stroke-width: 1.5"/>
    </g>
    <g id="text_19">
     <!-- 68 % -->
     <g transform="translate(194.497726 274.292063) scale(0.1 -0.1)">
      <defs>
       <path id="DejaVuSans-25" d="M 4653 2053 
Q 4381 2053 4226 1822 
Q 4072 1591 4072 1178 
Q 4072 772 4226 539 
Q 4381 306 4653 306 
Q 4919 306 5073 539 
Q 5228 772 5228 1178 
Q 5228 1588 5073 1820 
Q 4919 2053 4653 2053 
z
M 4653 2450 
Q 5147 2450 5437 2106 
Q 5728 1763 5728 1178 
Q 5728 594 5436 251 
Q 5144 -91 4653 -91 
Q 4153 -91 3862 251 
Q 3572 594 3572 1178 
Q 3572 1766 3864 2108 
Q 4156 2450 4653 2450 
z
M 1428 4353 
Q 1159 4353 1004 4120 
Q 850 3888 850 3481 
Q 850 3069 1003 2837 
Q 1156 2606 1428 2606 
Q 1700 2606 1854 2837 
Q 2009 3069 2009 3481 
Q 2009 3884 1853 4118 
Q 1697 4353 1428 4353 
z
M 4250 4750 
L 4750 4750 
L 1831 -91 
L 1331 -91 
L 4250 4750 
z
M 1428 4750 
Q 1922 4750 2215 4408 
Q 2509 4066 2509 3481 
Q 2509 2891 2217 2550 
Q 1925 2209 1428 2209 
Q 931 2209 642 2551 
Q 353 2894 353 3481 
Q 353 4063 643 4406 
Q 934 4750 1428 4750 
z
" transform="scale(0.015625)"/>
      </defs>
      <use xlink:href="#DejaVuSans-36"/>
      <use xlink:href="#DejaVuSans-38" x="63.623047"/>
      <use xlink:href="#DejaVuSans-20" x="127.246094"/>
      <use xlink:href="#DejaVuSans-25" x="159.033203"/>
     </g>
    </g>
    <g id="LineCollection_9">
     <path d="M 176.497726 290.470188 
L 176.497726 280.470188 
" style="fill: none; stroke: #ff0000; stroke-width: 1.5"/>
    </g>
    <g id="line2d_112">
     <path d="M 166.497726 285.470188 
L 186.497726 285.470188 
" style="fill: none; stroke: #ff0000; stroke-width: 1.5; stroke-linecap: square"/>
    </g>
    <g id="line2d_113"/>
    <g id="text_20">
     <!-- Standard  -->
     <g transform="translate(194.497726 288.970188) scale(0.1 -0.1)">
      <use xlink:href="#DejaVuSans-53"/>
      <use xlink:href="#DejaVuSans-74" x="63.476562"/>
      <use xlink:href="#DejaVuSans-61" x="102.685547"/>
      <use xlink:href="#DejaVuSans-6e" x="163.964844"/>
      <use xlink:href="#DejaVuSans-64" x="227.34375"/>
      <use xlink:href="#DejaVuSans-61" x="290.820312"/>
      <use xlink:href="#DejaVuSans-72" x="352.099609"/>
      <use xlink:href="#DejaVuSans-64" x="391.462891"/>
      <use xlink:href="#DejaVuSans-20" x="454.939453"/>
     </g>
    </g>
    <g id="LineCollection_10">
     <path d="M 176.497726 305.148313 
L 176.497726 295.148313 
" style="fill: none; stroke: #008000; stroke-width: 1.5"/>
    </g>
    <g id="line2d_114">
     <path d="M 166.497726 300.148313 
L 186.497726 300.148313 
" style="fill: none; stroke: #008000; stroke-width: 1.5; stroke-linecap: square"/>
    </g>
    <g id="line2d_115"/>
    <g id="text_21">
     <!-- Nuisance -->
     <g transform="translate(194.497726 303.648313) scale(0.1 -0.1)">
      <use xlink:href="#DejaVuSans-4e"/>
      <use xlink:href="#DejaVuSans-75" x="74.804688"/>
      <use xlink:href="#DejaVuSans-69" x="138.183594"/>
      <use xlink:href="#DejaVuSans-73" x="165.966797"/>
      <use xlink:href="#DejaVuSans-61" x="218.066406"/>
      <use xlink:href="#DejaVuSans-6e" x="279.345703"/>
      <use xlink:href="#DejaVuSans-63" x="342.724609"/>
      <use xlink:href="#DejaVuSans-65" x="397.705078"/>
     </g>
    </g>
   </g>
  </g>
 </g>
 <defs>
  <clipPath id="p9ff4f564f9">
   <rect x="60.468889" y="25.44" width="288.731111" height="164.9928"/>
  </clipPath>
  <clipPath id="p2d3dacea39">
   <rect x="60.468889" y="204.7328" width="288.731111" height="109.9952"/>
  </clipPath>
 </defs>
</svg>
